G04 #@! TF.GenerationSoftware,KiCad,Pcbnew,5.1.4-e60b266~84~ubuntu16.04.1*
G04 #@! TF.CreationDate,2019-10-09T11:36:19-05:00*
G04 #@! TF.ProjectId,8cap,38636170-2e6b-4696-9361-645f70636258,rev?*
G04 #@! TF.SameCoordinates,Original*
G04 #@! TF.FileFunction,Soldermask,Bot*
G04 #@! TF.FilePolarity,Negative*
%FSLAX46Y46*%
G04 Gerber Fmt 4.6, Leading zero omitted, Abs format (unit mm)*
G04 Created by KiCad (PCBNEW 5.1.4-e60b266~84~ubuntu16.04.1) date 2019-10-09 11:36:19*
%MOMM*%
%LPD*%
G04 APERTURE LIST*
%ADD10C,0.050000*%
%ADD11C,0.150000*%
G04 APERTURE END LIST*
D10*
X100000000Y-150000000D02*
X100000000Y-50000000D01*
X200000000Y-150000000D02*
X100000000Y-150000000D01*
X200000000Y-50000000D02*
X200000000Y-150000000D01*
X100000000Y-50000000D02*
X200000000Y-50000000D01*
D11*
G36*
X193261304Y-144837002D02*
G01*
X193680139Y-145010489D01*
X193680141Y-145010490D01*
X193869891Y-145137277D01*
X194057082Y-145262354D01*
X194377646Y-145582918D01*
X194629511Y-145959861D01*
X194802998Y-146378696D01*
X194891440Y-146823327D01*
X194891440Y-147276673D01*
X194802998Y-147721304D01*
X194629511Y-148140139D01*
X194377646Y-148517082D01*
X194057082Y-148837646D01*
X193869891Y-148962723D01*
X193680141Y-149089510D01*
X193680140Y-149089511D01*
X193680139Y-149089511D01*
X193261304Y-149262998D01*
X192816673Y-149351440D01*
X192363327Y-149351440D01*
X191918696Y-149262998D01*
X191499861Y-149089511D01*
X191499860Y-149089511D01*
X191499859Y-149089510D01*
X191310109Y-148962723D01*
X191122918Y-148837646D01*
X190802354Y-148517082D01*
X190550489Y-148140139D01*
X190377002Y-147721304D01*
X190288560Y-147276673D01*
X190288560Y-146823327D01*
X190377002Y-146378696D01*
X190550489Y-145959861D01*
X190802354Y-145582918D01*
X191122918Y-145262354D01*
X191310109Y-145137277D01*
X191499859Y-145010490D01*
X191499861Y-145010489D01*
X191918696Y-144837002D01*
X192363327Y-144748560D01*
X192816673Y-144748560D01*
X193261304Y-144837002D01*
X193261304Y-144837002D01*
G37*
G36*
X176361304Y-144837002D02*
G01*
X176780139Y-145010489D01*
X176780141Y-145010490D01*
X176969891Y-145137277D01*
X177157082Y-145262354D01*
X177477646Y-145582918D01*
X177729511Y-145959861D01*
X177902998Y-146378696D01*
X177991440Y-146823327D01*
X177991440Y-147276673D01*
X177902998Y-147721304D01*
X177729511Y-148140139D01*
X177477646Y-148517082D01*
X177157082Y-148837646D01*
X176969891Y-148962723D01*
X176780141Y-149089510D01*
X176780140Y-149089511D01*
X176780139Y-149089511D01*
X176361304Y-149262998D01*
X175916673Y-149351440D01*
X175463327Y-149351440D01*
X175018696Y-149262998D01*
X174599861Y-149089511D01*
X174599860Y-149089511D01*
X174599859Y-149089510D01*
X174410109Y-148962723D01*
X174222918Y-148837646D01*
X173902354Y-148517082D01*
X173650489Y-148140139D01*
X173477002Y-147721304D01*
X173388560Y-147276673D01*
X173388560Y-146823327D01*
X173477002Y-146378696D01*
X173650489Y-145959861D01*
X173902354Y-145582918D01*
X174222918Y-145262354D01*
X174410109Y-145137277D01*
X174599859Y-145010490D01*
X174599861Y-145010489D01*
X175018696Y-144837002D01*
X175463327Y-144748560D01*
X175916673Y-144748560D01*
X176361304Y-144837002D01*
X176361304Y-144837002D01*
G37*
G36*
X159361304Y-144837002D02*
G01*
X159780139Y-145010489D01*
X159780141Y-145010490D01*
X159969891Y-145137277D01*
X160157082Y-145262354D01*
X160477646Y-145582918D01*
X160729511Y-145959861D01*
X160902998Y-146378696D01*
X160991440Y-146823327D01*
X160991440Y-147276673D01*
X160902998Y-147721304D01*
X160729511Y-148140139D01*
X160477646Y-148517082D01*
X160157082Y-148837646D01*
X159969891Y-148962723D01*
X159780141Y-149089510D01*
X159780140Y-149089511D01*
X159780139Y-149089511D01*
X159361304Y-149262998D01*
X158916673Y-149351440D01*
X158463327Y-149351440D01*
X158018696Y-149262998D01*
X157599861Y-149089511D01*
X157599860Y-149089511D01*
X157599859Y-149089510D01*
X157410109Y-148962723D01*
X157222918Y-148837646D01*
X156902354Y-148517082D01*
X156650489Y-148140139D01*
X156477002Y-147721304D01*
X156388560Y-147276673D01*
X156388560Y-146823327D01*
X156477002Y-146378696D01*
X156650489Y-145959861D01*
X156902354Y-145582918D01*
X157222918Y-145262354D01*
X157410109Y-145137277D01*
X157599859Y-145010490D01*
X157599861Y-145010489D01*
X158018696Y-144837002D01*
X158463327Y-144748560D01*
X158916673Y-144748560D01*
X159361304Y-144837002D01*
X159361304Y-144837002D01*
G37*
G36*
X142261304Y-144737002D02*
G01*
X142680139Y-144910489D01*
X142680141Y-144910490D01*
X142829800Y-145010489D01*
X143057082Y-145162354D01*
X143377646Y-145482918D01*
X143629511Y-145859861D01*
X143802998Y-146278696D01*
X143891440Y-146723327D01*
X143891440Y-147176673D01*
X143802998Y-147621304D01*
X143643479Y-148006417D01*
X143629510Y-148040141D01*
X143585226Y-148106416D01*
X143377646Y-148417082D01*
X143057082Y-148737646D01*
X142987190Y-148784346D01*
X142680141Y-148989510D01*
X142680140Y-148989511D01*
X142680139Y-148989511D01*
X142261304Y-149162998D01*
X141816673Y-149251440D01*
X141363327Y-149251440D01*
X140918696Y-149162998D01*
X140499861Y-148989511D01*
X140499860Y-148989511D01*
X140499859Y-148989510D01*
X140192810Y-148784346D01*
X140122918Y-148737646D01*
X139802354Y-148417082D01*
X139594774Y-148106416D01*
X139550490Y-148040141D01*
X139536521Y-148006417D01*
X139377002Y-147621304D01*
X139288560Y-147176673D01*
X139288560Y-146723327D01*
X139377002Y-146278696D01*
X139550489Y-145859861D01*
X139802354Y-145482918D01*
X140122918Y-145162354D01*
X140350200Y-145010489D01*
X140499859Y-144910490D01*
X140499861Y-144910489D01*
X140918696Y-144737002D01*
X141363327Y-144648560D01*
X141816673Y-144648560D01*
X142261304Y-144737002D01*
X142261304Y-144737002D01*
G37*
G36*
X171806416Y-146789879D02*
G01*
X171997592Y-146869067D01*
X171997594Y-146869068D01*
X172169648Y-146984031D01*
X172315969Y-147130352D01*
X172413738Y-147276673D01*
X172430933Y-147302408D01*
X172510121Y-147493584D01*
X172550490Y-147696534D01*
X172550490Y-147903466D01*
X172510121Y-148106416D01*
X172433019Y-148292555D01*
X172430932Y-148297594D01*
X172315969Y-148469648D01*
X172169648Y-148615969D01*
X171997594Y-148730932D01*
X171997593Y-148730933D01*
X171997592Y-148730933D01*
X171806416Y-148810121D01*
X171603466Y-148850490D01*
X171396534Y-148850490D01*
X171193584Y-148810121D01*
X171002408Y-148730933D01*
X171002407Y-148730933D01*
X171002406Y-148730932D01*
X170830352Y-148615969D01*
X170684031Y-148469648D01*
X170569068Y-148297594D01*
X170566981Y-148292555D01*
X170489879Y-148106416D01*
X170449510Y-147903466D01*
X170449510Y-147696534D01*
X170489879Y-147493584D01*
X170569067Y-147302408D01*
X170586263Y-147276673D01*
X170684031Y-147130352D01*
X170830352Y-146984031D01*
X171002406Y-146869068D01*
X171002408Y-146869067D01*
X171193584Y-146789879D01*
X171396534Y-146749510D01*
X171603466Y-146749510D01*
X171806416Y-146789879D01*
X171806416Y-146789879D01*
G37*
G36*
X154606416Y-146789879D02*
G01*
X154797592Y-146869067D01*
X154797594Y-146869068D01*
X154969648Y-146984031D01*
X155115969Y-147130352D01*
X155213738Y-147276673D01*
X155230933Y-147302408D01*
X155310121Y-147493584D01*
X155350490Y-147696534D01*
X155350490Y-147903466D01*
X155310121Y-148106416D01*
X155233019Y-148292555D01*
X155230932Y-148297594D01*
X155115969Y-148469648D01*
X154969648Y-148615969D01*
X154797594Y-148730932D01*
X154797593Y-148730933D01*
X154797592Y-148730933D01*
X154606416Y-148810121D01*
X154403466Y-148850490D01*
X154196534Y-148850490D01*
X153993584Y-148810121D01*
X153802408Y-148730933D01*
X153802407Y-148730933D01*
X153802406Y-148730932D01*
X153630352Y-148615969D01*
X153484031Y-148469648D01*
X153369068Y-148297594D01*
X153366981Y-148292555D01*
X153289879Y-148106416D01*
X153249510Y-147903466D01*
X153249510Y-147696534D01*
X153289879Y-147493584D01*
X153369067Y-147302408D01*
X153386263Y-147276673D01*
X153484031Y-147130352D01*
X153630352Y-146984031D01*
X153802406Y-146869068D01*
X153802408Y-146869067D01*
X153993584Y-146789879D01*
X154196534Y-146749510D01*
X154403466Y-146749510D01*
X154606416Y-146789879D01*
X154606416Y-146789879D01*
G37*
G36*
X124341000Y-148801000D02*
G01*
X122039000Y-148801000D01*
X122039000Y-146499000D01*
X124341000Y-146499000D01*
X124341000Y-148801000D01*
X124341000Y-148801000D01*
G37*
G36*
X115739271Y-146510103D02*
G01*
X115795635Y-146515654D01*
X116012600Y-146581470D01*
X116012602Y-146581471D01*
X116212555Y-146688347D01*
X116387818Y-146832182D01*
X116531653Y-147007445D01*
X116622106Y-147176672D01*
X116638530Y-147207400D01*
X116704346Y-147424365D01*
X116726569Y-147650000D01*
X116704346Y-147875635D01*
X116664674Y-148006416D01*
X116638529Y-148092602D01*
X116531653Y-148292555D01*
X116387818Y-148467818D01*
X116212555Y-148611653D01*
X116046351Y-148700490D01*
X116012600Y-148718530D01*
X115795635Y-148784346D01*
X115739271Y-148789897D01*
X115626545Y-148801000D01*
X115513455Y-148801000D01*
X115400729Y-148789897D01*
X115344365Y-148784346D01*
X115127400Y-148718530D01*
X115093649Y-148700490D01*
X114927445Y-148611653D01*
X114752182Y-148467818D01*
X114608347Y-148292555D01*
X114501471Y-148092602D01*
X114475327Y-148006416D01*
X114435654Y-147875635D01*
X114413431Y-147650000D01*
X114435654Y-147424365D01*
X114501470Y-147207400D01*
X114517894Y-147176672D01*
X114608347Y-147007445D01*
X114752182Y-146832182D01*
X114927445Y-146688347D01*
X115127398Y-146581471D01*
X115127400Y-146581470D01*
X115344365Y-146515654D01*
X115400729Y-146510103D01*
X115513455Y-146499000D01*
X115626545Y-146499000D01*
X115739271Y-146510103D01*
X115739271Y-146510103D01*
G37*
G36*
X137506416Y-146689879D02*
G01*
X137650377Y-146749510D01*
X137697594Y-146769068D01*
X137869648Y-146884031D01*
X138015969Y-147030352D01*
X138113738Y-147176673D01*
X138130933Y-147202408D01*
X138210121Y-147393584D01*
X138250490Y-147596534D01*
X138250490Y-147803466D01*
X138210121Y-148006416D01*
X138151643Y-148147594D01*
X138130932Y-148197594D01*
X138015969Y-148369648D01*
X137869648Y-148515969D01*
X137697594Y-148630932D01*
X137697593Y-148630933D01*
X137697592Y-148630933D01*
X137506416Y-148710121D01*
X137303466Y-148750490D01*
X137096534Y-148750490D01*
X136893584Y-148710121D01*
X136702408Y-148630933D01*
X136702407Y-148630933D01*
X136702406Y-148630932D01*
X136530352Y-148515969D01*
X136384031Y-148369648D01*
X136269068Y-148197594D01*
X136248357Y-148147594D01*
X136189879Y-148006416D01*
X136149510Y-147803466D01*
X136149510Y-147596534D01*
X136189879Y-147393584D01*
X136269067Y-147202408D01*
X136286263Y-147176673D01*
X136384031Y-147030352D01*
X136530352Y-146884031D01*
X136702406Y-146769068D01*
X136749623Y-146749510D01*
X136893584Y-146689879D01*
X137096534Y-146649510D01*
X137303466Y-146649510D01*
X137506416Y-146689879D01*
X137506416Y-146689879D01*
G37*
G36*
X188606416Y-146689879D02*
G01*
X188750377Y-146749510D01*
X188797594Y-146769068D01*
X188969648Y-146884031D01*
X189115969Y-147030352D01*
X189213738Y-147176673D01*
X189230933Y-147202408D01*
X189310121Y-147393584D01*
X189350490Y-147596534D01*
X189350490Y-147803466D01*
X189310121Y-148006416D01*
X189251643Y-148147594D01*
X189230932Y-148197594D01*
X189115969Y-148369648D01*
X188969648Y-148515969D01*
X188797594Y-148630932D01*
X188797593Y-148630933D01*
X188797592Y-148630933D01*
X188606416Y-148710121D01*
X188403466Y-148750490D01*
X188196534Y-148750490D01*
X187993584Y-148710121D01*
X187802408Y-148630933D01*
X187802407Y-148630933D01*
X187802406Y-148630932D01*
X187630352Y-148515969D01*
X187484031Y-148369648D01*
X187369068Y-148197594D01*
X187348357Y-148147594D01*
X187289879Y-148006416D01*
X187249510Y-147803466D01*
X187249510Y-147596534D01*
X187289879Y-147393584D01*
X187369067Y-147202408D01*
X187386263Y-147176673D01*
X187484031Y-147030352D01*
X187630352Y-146884031D01*
X187802406Y-146769068D01*
X187849623Y-146749510D01*
X187993584Y-146689879D01*
X188196534Y-146649510D01*
X188403466Y-146649510D01*
X188606416Y-146689879D01*
X188606416Y-146689879D01*
G37*
G36*
X112896416Y-146639879D02*
G01*
X113087592Y-146719067D01*
X113087594Y-146719068D01*
X113162424Y-146769068D01*
X113259648Y-146834031D01*
X113405969Y-146980352D01*
X113520933Y-147152408D01*
X113600121Y-147343584D01*
X113640490Y-147546534D01*
X113640490Y-147753466D01*
X113600121Y-147956416D01*
X113537988Y-148106417D01*
X113520932Y-148147594D01*
X113405969Y-148319648D01*
X113259648Y-148465969D01*
X113087594Y-148580932D01*
X113087593Y-148580933D01*
X113087592Y-148580933D01*
X112896416Y-148660121D01*
X112693466Y-148700490D01*
X112486534Y-148700490D01*
X112283584Y-148660121D01*
X112092408Y-148580933D01*
X112092407Y-148580933D01*
X112092406Y-148580932D01*
X111920352Y-148465969D01*
X111774031Y-148319648D01*
X111659068Y-148147594D01*
X111642012Y-148106417D01*
X111579879Y-147956416D01*
X111539510Y-147753466D01*
X111539510Y-147546534D01*
X111579879Y-147343584D01*
X111659067Y-147152408D01*
X111774031Y-146980352D01*
X111920352Y-146834031D01*
X112017576Y-146769068D01*
X112092406Y-146719068D01*
X112092408Y-146719067D01*
X112283584Y-146639879D01*
X112486534Y-146599510D01*
X112693466Y-146599510D01*
X112896416Y-146639879D01*
X112896416Y-146639879D01*
G37*
G36*
X106224549Y-145671116D02*
G01*
X106335734Y-145693232D01*
X106545203Y-145779997D01*
X106733720Y-145905960D01*
X106894040Y-146066280D01*
X107020003Y-146254797D01*
X107020004Y-146254799D01*
X107106768Y-146464267D01*
X107141700Y-146639879D01*
X107151000Y-146686636D01*
X107151000Y-146913364D01*
X107106768Y-147135734D01*
X107020003Y-147345203D01*
X106894040Y-147533720D01*
X106733720Y-147694040D01*
X106545203Y-147820003D01*
X106335734Y-147906768D01*
X106224549Y-147928884D01*
X106113365Y-147951000D01*
X105886635Y-147951000D01*
X105775451Y-147928884D01*
X105664266Y-147906768D01*
X105454797Y-147820003D01*
X105266280Y-147694040D01*
X105105960Y-147533720D01*
X104979997Y-147345203D01*
X104893232Y-147135734D01*
X104849000Y-146913364D01*
X104849000Y-146686636D01*
X104858301Y-146639879D01*
X104893232Y-146464267D01*
X104979996Y-146254799D01*
X104979997Y-146254797D01*
X105105960Y-146066280D01*
X105266280Y-145905960D01*
X105454797Y-145779997D01*
X105664266Y-145693232D01*
X105775451Y-145671116D01*
X105886635Y-145649000D01*
X106113365Y-145649000D01*
X106224549Y-145671116D01*
X106224549Y-145671116D01*
G37*
G36*
X115759271Y-142410103D02*
G01*
X115815635Y-142415654D01*
X116032600Y-142481470D01*
X116032602Y-142481471D01*
X116232555Y-142588347D01*
X116407818Y-142732182D01*
X116551653Y-142907445D01*
X116626562Y-143047592D01*
X116658530Y-143107400D01*
X116724346Y-143324365D01*
X116746569Y-143550000D01*
X116724346Y-143775634D01*
X116658529Y-143992602D01*
X116551653Y-144192555D01*
X116407818Y-144367818D01*
X116232555Y-144511653D01*
X116032602Y-144618529D01*
X116032600Y-144618530D01*
X115815635Y-144684346D01*
X115759271Y-144689897D01*
X115646545Y-144701000D01*
X115533455Y-144701000D01*
X115420729Y-144689897D01*
X115364365Y-144684346D01*
X115147400Y-144618530D01*
X115147398Y-144618529D01*
X114947445Y-144511653D01*
X114772182Y-144367818D01*
X114628347Y-144192555D01*
X114521471Y-143992602D01*
X114455654Y-143775634D01*
X114433431Y-143550000D01*
X114455654Y-143324365D01*
X114521470Y-143107400D01*
X114553438Y-143047592D01*
X114628347Y-142907445D01*
X114772182Y-142732182D01*
X114947445Y-142588347D01*
X115147398Y-142481471D01*
X115147400Y-142481470D01*
X115364365Y-142415654D01*
X115420729Y-142410103D01*
X115533455Y-142399000D01*
X115646545Y-142399000D01*
X115759271Y-142410103D01*
X115759271Y-142410103D01*
G37*
G36*
X124361000Y-144701000D02*
G01*
X122059000Y-144701000D01*
X122059000Y-142399000D01*
X124361000Y-142399000D01*
X124361000Y-144701000D01*
X124361000Y-144701000D01*
G37*
G36*
X108145239Y-141307101D02*
G01*
X108381053Y-141378634D01*
X108598381Y-141494799D01*
X108788871Y-141651129D01*
X108945201Y-141841619D01*
X109061366Y-142058947D01*
X109132899Y-142294761D01*
X109157053Y-142540000D01*
X109132899Y-142785239D01*
X109061366Y-143021053D01*
X108945201Y-143238381D01*
X108788871Y-143428871D01*
X108598381Y-143585201D01*
X108381053Y-143701366D01*
X108145239Y-143772899D01*
X107961457Y-143791000D01*
X107838543Y-143791000D01*
X107654761Y-143772899D01*
X107418947Y-143701366D01*
X107201619Y-143585201D01*
X107011129Y-143428871D01*
X106854799Y-143238381D01*
X106738634Y-143021053D01*
X106667101Y-142785239D01*
X106642947Y-142540000D01*
X106667101Y-142294761D01*
X106738634Y-142058947D01*
X106854799Y-141841619D01*
X107011129Y-141651129D01*
X107201619Y-141494799D01*
X107418947Y-141378634D01*
X107654761Y-141307101D01*
X107838543Y-141289000D01*
X107961457Y-141289000D01*
X108145239Y-141307101D01*
X108145239Y-141307101D01*
G37*
G36*
X104054903Y-141297075D02*
G01*
X104251805Y-141378634D01*
X104282571Y-141391378D01*
X104487466Y-141528285D01*
X104661715Y-141702534D01*
X104798180Y-141906768D01*
X104798623Y-141907431D01*
X104892925Y-142135097D01*
X104941000Y-142376786D01*
X104941000Y-142623214D01*
X104892925Y-142864903D01*
X104828245Y-143021056D01*
X104798622Y-143092571D01*
X104661715Y-143297466D01*
X104487466Y-143471715D01*
X104282571Y-143608622D01*
X104282570Y-143608623D01*
X104282569Y-143608623D01*
X104054903Y-143702925D01*
X103813214Y-143751000D01*
X103566786Y-143751000D01*
X103325097Y-143702925D01*
X103097431Y-143608623D01*
X103097430Y-143608623D01*
X103097429Y-143608622D01*
X102892534Y-143471715D01*
X102718285Y-143297466D01*
X102581378Y-143092571D01*
X102551756Y-143021056D01*
X102487075Y-142864903D01*
X102439000Y-142623214D01*
X102439000Y-142376786D01*
X102487075Y-142135097D01*
X102581377Y-141907431D01*
X102581820Y-141906768D01*
X102718285Y-141702534D01*
X102892534Y-141528285D01*
X103097429Y-141391378D01*
X103128196Y-141378634D01*
X103325097Y-141297075D01*
X103566786Y-141249000D01*
X103813214Y-141249000D01*
X104054903Y-141297075D01*
X104054903Y-141297075D01*
G37*
G36*
X111906416Y-141539879D02*
G01*
X112097592Y-141619067D01*
X112097594Y-141619068D01*
X112269648Y-141734031D01*
X112415969Y-141880352D01*
X112463175Y-141951000D01*
X112530933Y-142052408D01*
X112610121Y-142243584D01*
X112650490Y-142446534D01*
X112650490Y-142653466D01*
X112610121Y-142856416D01*
X112530933Y-143047592D01*
X112530932Y-143047594D01*
X112415969Y-143219648D01*
X112269648Y-143365969D01*
X112097594Y-143480932D01*
X112097593Y-143480933D01*
X112097592Y-143480933D01*
X111906416Y-143560121D01*
X111703466Y-143600490D01*
X111496534Y-143600490D01*
X111293584Y-143560121D01*
X111102408Y-143480933D01*
X111102407Y-143480933D01*
X111102406Y-143480932D01*
X110930352Y-143365969D01*
X110784031Y-143219648D01*
X110669068Y-143047594D01*
X110669067Y-143047592D01*
X110589879Y-142856416D01*
X110549510Y-142653466D01*
X110549510Y-142446534D01*
X110589879Y-142243584D01*
X110669067Y-142052408D01*
X110736826Y-141951000D01*
X110784031Y-141880352D01*
X110930352Y-141734031D01*
X111102406Y-141619068D01*
X111102408Y-141619067D01*
X111293584Y-141539879D01*
X111496534Y-141499510D01*
X111703466Y-141499510D01*
X111906416Y-141539879D01*
X111906416Y-141539879D01*
G37*
G36*
X196224549Y-139671116D02*
G01*
X196335734Y-139693232D01*
X196545203Y-139779997D01*
X196733720Y-139905960D01*
X196894040Y-140066280D01*
X197020003Y-140254797D01*
X197106768Y-140464266D01*
X197125127Y-140556564D01*
X197151000Y-140686635D01*
X197151000Y-140913365D01*
X197128884Y-141024549D01*
X197106768Y-141135734D01*
X197020003Y-141345203D01*
X196894040Y-141533720D01*
X196733720Y-141694040D01*
X196545203Y-141820003D01*
X196335734Y-141906768D01*
X196224549Y-141928884D01*
X196113365Y-141951000D01*
X195886635Y-141951000D01*
X195775451Y-141928884D01*
X195664266Y-141906768D01*
X195454797Y-141820003D01*
X195266280Y-141694040D01*
X195105960Y-141533720D01*
X194979997Y-141345203D01*
X194893232Y-141135734D01*
X194871116Y-141024549D01*
X194849000Y-140913365D01*
X194849000Y-140686635D01*
X194874873Y-140556564D01*
X194893232Y-140464266D01*
X194979997Y-140254797D01*
X195105960Y-140066280D01*
X195266280Y-139905960D01*
X195454797Y-139779997D01*
X195664266Y-139693232D01*
X195775451Y-139671116D01*
X195886635Y-139649000D01*
X196113365Y-139649000D01*
X196224549Y-139671116D01*
X196224549Y-139671116D01*
G37*
G36*
X122096564Y-139239389D02*
G01*
X122287833Y-139318615D01*
X122287835Y-139318616D01*
X122339182Y-139352925D01*
X122459973Y-139433635D01*
X122606365Y-139580027D01*
X122721385Y-139752167D01*
X122800611Y-139943436D01*
X122841000Y-140146484D01*
X122841000Y-140353516D01*
X122800611Y-140556564D01*
X122740784Y-140701000D01*
X122721384Y-140747835D01*
X122606365Y-140919973D01*
X122459973Y-141066365D01*
X122287835Y-141181384D01*
X122287834Y-141181385D01*
X122287833Y-141181385D01*
X122096564Y-141260611D01*
X121893516Y-141301000D01*
X121686484Y-141301000D01*
X121483436Y-141260611D01*
X121292167Y-141181385D01*
X121292166Y-141181385D01*
X121292165Y-141181384D01*
X121120027Y-141066365D01*
X120973635Y-140919973D01*
X120858616Y-140747835D01*
X120839216Y-140701000D01*
X120779389Y-140556564D01*
X120739000Y-140353516D01*
X120739000Y-140146484D01*
X120779389Y-139943436D01*
X120858615Y-139752167D01*
X120973635Y-139580027D01*
X121120027Y-139433635D01*
X121240818Y-139352925D01*
X121292165Y-139318616D01*
X121292167Y-139318615D01*
X121483436Y-139239389D01*
X121686484Y-139199000D01*
X121893516Y-139199000D01*
X122096564Y-139239389D01*
X122096564Y-139239389D01*
G37*
G36*
X116496564Y-138639389D02*
G01*
X116687833Y-138718615D01*
X116687835Y-138718616D01*
X116859973Y-138833635D01*
X117006365Y-138980027D01*
X117101039Y-139121716D01*
X117121385Y-139152167D01*
X117200611Y-139343436D01*
X117241000Y-139546484D01*
X117241000Y-139753516D01*
X117200611Y-139956564D01*
X117155165Y-140066280D01*
X117121384Y-140147835D01*
X117006365Y-140319973D01*
X116859973Y-140466365D01*
X116687835Y-140581384D01*
X116687834Y-140581385D01*
X116687833Y-140581385D01*
X116496564Y-140660611D01*
X116293516Y-140701000D01*
X116086484Y-140701000D01*
X115883436Y-140660611D01*
X115692167Y-140581385D01*
X115692166Y-140581385D01*
X115692165Y-140581384D01*
X115520027Y-140466365D01*
X115373635Y-140319973D01*
X115258616Y-140147835D01*
X115224835Y-140066280D01*
X115179389Y-139956564D01*
X115139000Y-139753516D01*
X115139000Y-139546484D01*
X115179389Y-139343436D01*
X115258615Y-139152167D01*
X115278962Y-139121716D01*
X115373635Y-138980027D01*
X115520027Y-138833635D01*
X115692165Y-138718616D01*
X115692167Y-138718615D01*
X115883436Y-138639389D01*
X116086484Y-138599000D01*
X116293516Y-138599000D01*
X116496564Y-138639389D01*
X116496564Y-138639389D01*
G37*
G36*
X164641000Y-139401000D02*
G01*
X162139000Y-139401000D01*
X162139000Y-136899000D01*
X164641000Y-136899000D01*
X164641000Y-139401000D01*
X164641000Y-139401000D01*
G37*
G36*
X171254903Y-136947075D02*
G01*
X171482571Y-137041378D01*
X171687466Y-137178285D01*
X171861715Y-137352534D01*
X171861716Y-137352536D01*
X171998623Y-137557431D01*
X172092925Y-137785097D01*
X172141000Y-138026786D01*
X172141000Y-138273214D01*
X172092925Y-138514903D01*
X172008545Y-138718616D01*
X171998622Y-138742571D01*
X171861715Y-138947466D01*
X171687466Y-139121715D01*
X171482571Y-139258622D01*
X171482570Y-139258623D01*
X171482569Y-139258623D01*
X171254903Y-139352925D01*
X171013214Y-139401000D01*
X170766786Y-139401000D01*
X170525097Y-139352925D01*
X170297431Y-139258623D01*
X170297430Y-139258623D01*
X170297429Y-139258622D01*
X170092534Y-139121715D01*
X169918285Y-138947466D01*
X169781378Y-138742571D01*
X169771456Y-138718616D01*
X169687075Y-138514903D01*
X169639000Y-138273214D01*
X169639000Y-138026786D01*
X169687075Y-137785097D01*
X169781377Y-137557431D01*
X169918284Y-137352536D01*
X169918285Y-137352534D01*
X170092534Y-137178285D01*
X170297429Y-137041378D01*
X170525097Y-136947075D01*
X170766786Y-136899000D01*
X171013214Y-136899000D01*
X171254903Y-136947075D01*
X171254903Y-136947075D01*
G37*
G36*
X137254903Y-136947075D02*
G01*
X137482571Y-137041378D01*
X137687466Y-137178285D01*
X137861715Y-137352534D01*
X137861716Y-137352536D01*
X137998623Y-137557431D01*
X138092925Y-137785097D01*
X138141000Y-138026786D01*
X138141000Y-138273214D01*
X138092925Y-138514903D01*
X138008545Y-138718616D01*
X137998622Y-138742571D01*
X137861715Y-138947466D01*
X137687466Y-139121715D01*
X137482571Y-139258622D01*
X137482570Y-139258623D01*
X137482569Y-139258623D01*
X137254903Y-139352925D01*
X137013214Y-139401000D01*
X136766786Y-139401000D01*
X136525097Y-139352925D01*
X136297431Y-139258623D01*
X136297430Y-139258623D01*
X136297429Y-139258622D01*
X136092534Y-139121715D01*
X135918285Y-138947466D01*
X135781378Y-138742571D01*
X135771456Y-138718616D01*
X135687075Y-138514903D01*
X135639000Y-138273214D01*
X135639000Y-138026786D01*
X135687075Y-137785097D01*
X135781377Y-137557431D01*
X135918284Y-137352536D01*
X135918285Y-137352534D01*
X136092534Y-137178285D01*
X136297429Y-137041378D01*
X136525097Y-136947075D01*
X136766786Y-136899000D01*
X137013214Y-136899000D01*
X137254903Y-136947075D01*
X137254903Y-136947075D01*
G37*
G36*
X130641000Y-139401000D02*
G01*
X128139000Y-139401000D01*
X128139000Y-136899000D01*
X130641000Y-136899000D01*
X130641000Y-139401000D01*
X130641000Y-139401000D01*
G37*
G36*
X147641000Y-139401000D02*
G01*
X145139000Y-139401000D01*
X145139000Y-136899000D01*
X147641000Y-136899000D01*
X147641000Y-139401000D01*
X147641000Y-139401000D01*
G37*
G36*
X181641000Y-139401000D02*
G01*
X179139000Y-139401000D01*
X179139000Y-136899000D01*
X181641000Y-136899000D01*
X181641000Y-139401000D01*
X181641000Y-139401000D01*
G37*
G36*
X188254903Y-136947075D02*
G01*
X188482571Y-137041378D01*
X188687466Y-137178285D01*
X188861715Y-137352534D01*
X188861716Y-137352536D01*
X188998623Y-137557431D01*
X189092925Y-137785097D01*
X189141000Y-138026786D01*
X189141000Y-138273214D01*
X189092925Y-138514903D01*
X189008545Y-138718616D01*
X188998622Y-138742571D01*
X188861715Y-138947466D01*
X188687466Y-139121715D01*
X188482571Y-139258622D01*
X188482570Y-139258623D01*
X188482569Y-139258623D01*
X188254903Y-139352925D01*
X188013214Y-139401000D01*
X187766786Y-139401000D01*
X187525097Y-139352925D01*
X187297431Y-139258623D01*
X187297430Y-139258623D01*
X187297429Y-139258622D01*
X187092534Y-139121715D01*
X186918285Y-138947466D01*
X186781378Y-138742571D01*
X186771456Y-138718616D01*
X186687075Y-138514903D01*
X186639000Y-138273214D01*
X186639000Y-138026786D01*
X186687075Y-137785097D01*
X186781377Y-137557431D01*
X186918284Y-137352536D01*
X186918285Y-137352534D01*
X187092534Y-137178285D01*
X187297429Y-137041378D01*
X187525097Y-136947075D01*
X187766786Y-136899000D01*
X188013214Y-136899000D01*
X188254903Y-136947075D01*
X188254903Y-136947075D01*
G37*
G36*
X154254903Y-136947075D02*
G01*
X154482571Y-137041378D01*
X154687466Y-137178285D01*
X154861715Y-137352534D01*
X154861716Y-137352536D01*
X154998623Y-137557431D01*
X155092925Y-137785097D01*
X155141000Y-138026786D01*
X155141000Y-138273214D01*
X155092925Y-138514903D01*
X155008545Y-138718616D01*
X154998622Y-138742571D01*
X154861715Y-138947466D01*
X154687466Y-139121715D01*
X154482571Y-139258622D01*
X154482570Y-139258623D01*
X154482569Y-139258623D01*
X154254903Y-139352925D01*
X154013214Y-139401000D01*
X153766786Y-139401000D01*
X153525097Y-139352925D01*
X153297431Y-139258623D01*
X153297430Y-139258623D01*
X153297429Y-139258622D01*
X153092534Y-139121715D01*
X152918285Y-138947466D01*
X152781378Y-138742571D01*
X152771456Y-138718616D01*
X152687075Y-138514903D01*
X152639000Y-138273214D01*
X152639000Y-138026786D01*
X152687075Y-137785097D01*
X152781377Y-137557431D01*
X152918284Y-137352536D01*
X152918285Y-137352534D01*
X153092534Y-137178285D01*
X153297429Y-137041378D01*
X153525097Y-136947075D01*
X153766786Y-136899000D01*
X154013214Y-136899000D01*
X154254903Y-136947075D01*
X154254903Y-136947075D01*
G37*
G36*
X112841000Y-136701000D02*
G01*
X110539000Y-136701000D01*
X110539000Y-134399000D01*
X112841000Y-134399000D01*
X112841000Y-136701000D01*
X112841000Y-136701000D01*
G37*
G36*
X116496564Y-131139389D02*
G01*
X116634529Y-131196536D01*
X116687835Y-131218616D01*
X116750683Y-131260610D01*
X116859973Y-131333635D01*
X117006365Y-131480027D01*
X117121385Y-131652167D01*
X117200611Y-131843436D01*
X117241000Y-132046484D01*
X117241000Y-132253516D01*
X117200611Y-132456564D01*
X117121385Y-132647833D01*
X117121384Y-132647835D01*
X117006365Y-132819973D01*
X116859973Y-132966365D01*
X116687835Y-133081384D01*
X116687834Y-133081385D01*
X116687833Y-133081385D01*
X116496564Y-133160611D01*
X116293516Y-133201000D01*
X116086484Y-133201000D01*
X115883436Y-133160611D01*
X115692167Y-133081385D01*
X115692166Y-133081385D01*
X115692165Y-133081384D01*
X115520027Y-132966365D01*
X115373635Y-132819973D01*
X115258616Y-132647835D01*
X115258615Y-132647833D01*
X115179389Y-132456564D01*
X115139000Y-132253516D01*
X115139000Y-132046484D01*
X115179389Y-131843436D01*
X115258615Y-131652167D01*
X115373635Y-131480027D01*
X115520027Y-131333635D01*
X115629317Y-131260610D01*
X115692165Y-131218616D01*
X115745471Y-131196536D01*
X115883436Y-131139389D01*
X116086484Y-131099000D01*
X116293516Y-131099000D01*
X116496564Y-131139389D01*
X116496564Y-131139389D01*
G37*
G36*
X196506416Y-130289879D02*
G01*
X196697592Y-130369067D01*
X196697594Y-130369068D01*
X196869648Y-130484031D01*
X197015969Y-130630352D01*
X197130933Y-130802408D01*
X197210121Y-130993584D01*
X197250490Y-131196534D01*
X197250490Y-131403466D01*
X197210121Y-131606416D01*
X197191171Y-131652165D01*
X197130932Y-131797594D01*
X197015969Y-131969648D01*
X196869648Y-132115969D01*
X196697594Y-132230932D01*
X196697593Y-132230933D01*
X196697592Y-132230933D01*
X196506416Y-132310121D01*
X196303466Y-132350490D01*
X196096534Y-132350490D01*
X195893584Y-132310121D01*
X195702408Y-132230933D01*
X195702407Y-132230933D01*
X195702406Y-132230932D01*
X195530352Y-132115969D01*
X195384031Y-131969648D01*
X195269068Y-131797594D01*
X195208829Y-131652165D01*
X195189879Y-131606416D01*
X195149510Y-131403466D01*
X195149510Y-131196534D01*
X195189879Y-130993584D01*
X195269067Y-130802408D01*
X195384031Y-130630352D01*
X195530352Y-130484031D01*
X195702406Y-130369068D01*
X195702408Y-130369067D01*
X195893584Y-130289879D01*
X196096534Y-130249510D01*
X196303466Y-130249510D01*
X196506416Y-130289879D01*
X196506416Y-130289879D01*
G37*
G36*
X122096564Y-129239389D02*
G01*
X122287833Y-129318615D01*
X122287835Y-129318616D01*
X122459973Y-129433635D01*
X122606365Y-129580027D01*
X122721385Y-129752167D01*
X122800611Y-129943436D01*
X122841000Y-130146484D01*
X122841000Y-130353516D01*
X122800611Y-130556564D01*
X122770047Y-130630352D01*
X122721384Y-130747835D01*
X122606365Y-130919973D01*
X122459973Y-131066365D01*
X122287835Y-131181384D01*
X122287834Y-131181385D01*
X122287833Y-131181385D01*
X122096564Y-131260611D01*
X121893516Y-131301000D01*
X121686484Y-131301000D01*
X121483436Y-131260611D01*
X121292167Y-131181385D01*
X121292166Y-131181385D01*
X121292165Y-131181384D01*
X121120027Y-131066365D01*
X120973635Y-130919973D01*
X120858616Y-130747835D01*
X120809953Y-130630352D01*
X120779389Y-130556564D01*
X120739000Y-130353516D01*
X120739000Y-130146484D01*
X120779389Y-129943436D01*
X120858615Y-129752167D01*
X120973635Y-129580027D01*
X121120027Y-129433635D01*
X121292165Y-129318616D01*
X121292167Y-129318615D01*
X121483436Y-129239389D01*
X121686484Y-129199000D01*
X121893516Y-129199000D01*
X122096564Y-129239389D01*
X122096564Y-129239389D01*
G37*
G36*
X111859271Y-126790103D02*
G01*
X111915635Y-126795654D01*
X112132600Y-126861470D01*
X112132602Y-126861471D01*
X112332555Y-126968347D01*
X112507818Y-127112182D01*
X112651653Y-127287445D01*
X112731477Y-127436787D01*
X112758530Y-127487400D01*
X112824346Y-127704365D01*
X112846569Y-127930000D01*
X112824346Y-128155635D01*
X112763121Y-128357466D01*
X112758529Y-128372602D01*
X112651653Y-128572555D01*
X112507818Y-128747818D01*
X112332555Y-128891653D01*
X112132602Y-128998529D01*
X112132600Y-128998530D01*
X111915635Y-129064346D01*
X111859271Y-129069897D01*
X111746545Y-129081000D01*
X111633455Y-129081000D01*
X111520729Y-129069897D01*
X111464365Y-129064346D01*
X111247400Y-128998530D01*
X111247398Y-128998529D01*
X111047445Y-128891653D01*
X110872182Y-128747818D01*
X110728347Y-128572555D01*
X110621471Y-128372602D01*
X110616880Y-128357466D01*
X110555654Y-128155635D01*
X110533431Y-127930000D01*
X110555654Y-127704365D01*
X110621470Y-127487400D01*
X110648523Y-127436787D01*
X110728347Y-127287445D01*
X110872182Y-127112182D01*
X111047445Y-126968347D01*
X111247398Y-126861471D01*
X111247400Y-126861470D01*
X111464365Y-126795654D01*
X111520729Y-126790103D01*
X111633455Y-126779000D01*
X111746545Y-126779000D01*
X111859271Y-126790103D01*
X111859271Y-126790103D01*
G37*
G36*
X181514903Y-126427075D02*
G01*
X181697083Y-126502536D01*
X181742571Y-126521378D01*
X181947466Y-126658285D01*
X182121715Y-126832534D01*
X182243477Y-127014763D01*
X182258623Y-127037431D01*
X182352925Y-127265097D01*
X182401000Y-127506786D01*
X182401000Y-127753214D01*
X182352925Y-127994903D01*
X182289150Y-128148871D01*
X182258622Y-128222571D01*
X182121715Y-128427466D01*
X181947466Y-128601715D01*
X181742571Y-128738622D01*
X181742570Y-128738623D01*
X181742569Y-128738623D01*
X181514903Y-128832925D01*
X181273214Y-128881000D01*
X181026786Y-128881000D01*
X180785097Y-128832925D01*
X180557431Y-128738623D01*
X180557430Y-128738623D01*
X180557429Y-128738622D01*
X180352534Y-128601715D01*
X180178285Y-128427466D01*
X180041378Y-128222571D01*
X180010851Y-128148871D01*
X179947075Y-127994903D01*
X179899000Y-127753214D01*
X179899000Y-127506786D01*
X179947075Y-127265097D01*
X180041377Y-127037431D01*
X180056523Y-127014763D01*
X180178285Y-126832534D01*
X180352534Y-126658285D01*
X180557429Y-126521378D01*
X180602918Y-126502536D01*
X180785097Y-126427075D01*
X181026786Y-126379000D01*
X181273214Y-126379000D01*
X181514903Y-126427075D01*
X181514903Y-126427075D01*
G37*
G36*
X196635239Y-126397101D02*
G01*
X196871053Y-126468634D01*
X197088381Y-126584799D01*
X197278871Y-126741129D01*
X197435201Y-126931619D01*
X197551366Y-127148947D01*
X197622899Y-127384761D01*
X197647053Y-127630000D01*
X197622899Y-127875239D01*
X197551366Y-128111053D01*
X197435201Y-128328381D01*
X197278871Y-128518871D01*
X197088381Y-128675201D01*
X196871053Y-128791366D01*
X196635239Y-128862899D01*
X196451457Y-128881000D01*
X196328543Y-128881000D01*
X196144761Y-128862899D01*
X195908947Y-128791366D01*
X195691619Y-128675201D01*
X195501129Y-128518871D01*
X195344799Y-128328381D01*
X195228634Y-128111053D01*
X195157101Y-127875239D01*
X195132947Y-127630000D01*
X195157101Y-127384761D01*
X195228634Y-127148947D01*
X195344799Y-126931619D01*
X195501129Y-126741129D01*
X195691619Y-126584799D01*
X195908947Y-126468634D01*
X196144761Y-126397101D01*
X196328543Y-126379000D01*
X196451457Y-126379000D01*
X196635239Y-126397101D01*
X196635239Y-126397101D01*
G37*
G36*
X126584903Y-126357075D02*
G01*
X126793753Y-126443583D01*
X126812571Y-126451378D01*
X127017466Y-126588285D01*
X127191715Y-126762534D01*
X127257922Y-126861620D01*
X127328623Y-126967431D01*
X127422925Y-127195097D01*
X127471000Y-127436786D01*
X127471000Y-127683214D01*
X127459495Y-127741053D01*
X127422925Y-127924903D01*
X127328622Y-128152571D01*
X127191715Y-128357466D01*
X127017466Y-128531715D01*
X126812571Y-128668622D01*
X126812570Y-128668623D01*
X126812569Y-128668623D01*
X126584903Y-128762925D01*
X126343214Y-128811000D01*
X126096786Y-128811000D01*
X125855097Y-128762925D01*
X125627431Y-128668623D01*
X125627430Y-128668623D01*
X125627429Y-128668622D01*
X125422534Y-128531715D01*
X125248285Y-128357466D01*
X125111378Y-128152571D01*
X125017075Y-127924903D01*
X124980505Y-127741053D01*
X124969000Y-127683214D01*
X124969000Y-127436786D01*
X125017075Y-127195097D01*
X125111377Y-126967431D01*
X125182078Y-126861620D01*
X125248285Y-126762534D01*
X125422534Y-126588285D01*
X125627429Y-126451378D01*
X125646248Y-126443583D01*
X125855097Y-126357075D01*
X126096786Y-126309000D01*
X126343214Y-126309000D01*
X126584903Y-126357075D01*
X126584903Y-126357075D01*
G37*
G36*
X141705239Y-126327101D02*
G01*
X141941053Y-126398634D01*
X142158381Y-126514799D01*
X142348871Y-126671129D01*
X142505201Y-126861619D01*
X142621366Y-127078947D01*
X142692899Y-127314761D01*
X142717053Y-127560000D01*
X142692899Y-127805239D01*
X142621366Y-128041053D01*
X142505201Y-128258381D01*
X142348871Y-128448871D01*
X142158381Y-128605201D01*
X141941053Y-128721366D01*
X141705239Y-128792899D01*
X141521457Y-128811000D01*
X141398543Y-128811000D01*
X141214761Y-128792899D01*
X140978947Y-128721366D01*
X140761619Y-128605201D01*
X140571129Y-128448871D01*
X140414799Y-128258381D01*
X140298634Y-128041053D01*
X140227101Y-127805239D01*
X140202947Y-127560000D01*
X140227101Y-127314761D01*
X140298634Y-127078947D01*
X140414799Y-126861619D01*
X140571129Y-126671129D01*
X140761619Y-126514799D01*
X140978947Y-126398634D01*
X141214761Y-126327101D01*
X141398543Y-126309000D01*
X141521457Y-126309000D01*
X141705239Y-126327101D01*
X141705239Y-126327101D01*
G37*
G36*
X144944903Y-126357075D02*
G01*
X145153753Y-126443583D01*
X145172571Y-126451378D01*
X145377466Y-126588285D01*
X145551715Y-126762534D01*
X145617922Y-126861620D01*
X145688623Y-126967431D01*
X145782925Y-127195097D01*
X145831000Y-127436786D01*
X145831000Y-127683214D01*
X145819495Y-127741053D01*
X145782925Y-127924903D01*
X145688622Y-128152571D01*
X145551715Y-128357466D01*
X145377466Y-128531715D01*
X145172571Y-128668622D01*
X145172570Y-128668623D01*
X145172569Y-128668623D01*
X144944903Y-128762925D01*
X144703214Y-128811000D01*
X144456786Y-128811000D01*
X144215097Y-128762925D01*
X143987431Y-128668623D01*
X143987430Y-128668623D01*
X143987429Y-128668622D01*
X143782534Y-128531715D01*
X143608285Y-128357466D01*
X143471378Y-128152571D01*
X143377075Y-127924903D01*
X143340505Y-127741053D01*
X143329000Y-127683214D01*
X143329000Y-127436786D01*
X143377075Y-127195097D01*
X143471377Y-126967431D01*
X143542078Y-126861620D01*
X143608285Y-126762534D01*
X143782534Y-126588285D01*
X143987429Y-126451378D01*
X144006248Y-126443583D01*
X144215097Y-126357075D01*
X144456786Y-126309000D01*
X144703214Y-126309000D01*
X144944903Y-126357075D01*
X144944903Y-126357075D01*
G37*
G36*
X160065239Y-126327101D02*
G01*
X160301053Y-126398634D01*
X160518381Y-126514799D01*
X160708871Y-126671129D01*
X160865201Y-126861619D01*
X160981366Y-127078947D01*
X161052899Y-127314761D01*
X161077053Y-127560000D01*
X161052899Y-127805239D01*
X160981366Y-128041053D01*
X160865201Y-128258381D01*
X160708871Y-128448871D01*
X160518381Y-128605201D01*
X160301053Y-128721366D01*
X160065239Y-128792899D01*
X159881457Y-128811000D01*
X159758543Y-128811000D01*
X159574761Y-128792899D01*
X159338947Y-128721366D01*
X159121619Y-128605201D01*
X158931129Y-128448871D01*
X158774799Y-128258381D01*
X158658634Y-128041053D01*
X158587101Y-127805239D01*
X158562947Y-127560000D01*
X158587101Y-127314761D01*
X158658634Y-127078947D01*
X158774799Y-126861619D01*
X158931129Y-126671129D01*
X159121619Y-126514799D01*
X159338947Y-126398634D01*
X159574761Y-126327101D01*
X159758543Y-126309000D01*
X159881457Y-126309000D01*
X160065239Y-126327101D01*
X160065239Y-126327101D01*
G37*
G36*
X163294903Y-126357075D02*
G01*
X163503753Y-126443583D01*
X163522571Y-126451378D01*
X163727466Y-126588285D01*
X163901715Y-126762534D01*
X163967922Y-126861620D01*
X164038623Y-126967431D01*
X164132925Y-127195097D01*
X164181000Y-127436786D01*
X164181000Y-127683214D01*
X164169495Y-127741053D01*
X164132925Y-127924903D01*
X164038622Y-128152571D01*
X163901715Y-128357466D01*
X163727466Y-128531715D01*
X163522571Y-128668622D01*
X163522570Y-128668623D01*
X163522569Y-128668623D01*
X163294903Y-128762925D01*
X163053214Y-128811000D01*
X162806786Y-128811000D01*
X162565097Y-128762925D01*
X162337431Y-128668623D01*
X162337430Y-128668623D01*
X162337429Y-128668622D01*
X162132534Y-128531715D01*
X161958285Y-128357466D01*
X161821378Y-128152571D01*
X161727075Y-127924903D01*
X161690505Y-127741053D01*
X161679000Y-127683214D01*
X161679000Y-127436786D01*
X161727075Y-127195097D01*
X161821377Y-126967431D01*
X161892078Y-126861620D01*
X161958285Y-126762534D01*
X162132534Y-126588285D01*
X162337429Y-126451378D01*
X162356248Y-126443583D01*
X162565097Y-126357075D01*
X162806786Y-126309000D01*
X163053214Y-126309000D01*
X163294903Y-126357075D01*
X163294903Y-126357075D01*
G37*
G36*
X178415239Y-126327101D02*
G01*
X178651053Y-126398634D01*
X178868381Y-126514799D01*
X179058871Y-126671129D01*
X179215201Y-126861619D01*
X179331366Y-127078947D01*
X179402899Y-127314761D01*
X179427053Y-127560000D01*
X179402899Y-127805239D01*
X179331366Y-128041053D01*
X179215201Y-128258381D01*
X179058871Y-128448871D01*
X178868381Y-128605201D01*
X178651053Y-128721366D01*
X178415239Y-128792899D01*
X178231457Y-128811000D01*
X178108543Y-128811000D01*
X177924761Y-128792899D01*
X177688947Y-128721366D01*
X177471619Y-128605201D01*
X177281129Y-128448871D01*
X177124799Y-128258381D01*
X177008634Y-128041053D01*
X176937101Y-127805239D01*
X176912947Y-127560000D01*
X176937101Y-127314761D01*
X177008634Y-127078947D01*
X177124799Y-126861619D01*
X177281129Y-126671129D01*
X177471619Y-126514799D01*
X177688947Y-126398634D01*
X177924761Y-126327101D01*
X178108543Y-126309000D01*
X178231457Y-126309000D01*
X178415239Y-126327101D01*
X178415239Y-126327101D01*
G37*
G36*
X108180831Y-126080352D02*
G01*
X108264903Y-126097075D01*
X108492571Y-126191378D01*
X108697466Y-126328285D01*
X108871715Y-126502534D01*
X109008622Y-126707429D01*
X109008623Y-126707431D01*
X109102925Y-126935097D01*
X109151000Y-127176786D01*
X109151000Y-127423214D01*
X109102925Y-127664903D01*
X109063485Y-127760121D01*
X109008622Y-127892571D01*
X108871715Y-128097466D01*
X108697466Y-128271715D01*
X108492571Y-128408622D01*
X108492570Y-128408623D01*
X108492569Y-128408623D01*
X108264903Y-128502925D01*
X108023214Y-128551000D01*
X107776786Y-128551000D01*
X107535097Y-128502925D01*
X107307431Y-128408623D01*
X107307430Y-128408623D01*
X107307429Y-128408622D01*
X107102534Y-128271715D01*
X106928285Y-128097466D01*
X106791378Y-127892571D01*
X106736516Y-127760121D01*
X106697075Y-127664903D01*
X106649000Y-127423214D01*
X106649000Y-127176786D01*
X106697075Y-126935097D01*
X106791377Y-126707431D01*
X106791378Y-126707429D01*
X106928285Y-126502534D01*
X107102534Y-126328285D01*
X107307429Y-126191378D01*
X107535097Y-126097075D01*
X107619169Y-126080352D01*
X107776786Y-126049000D01*
X108023214Y-126049000D01*
X108180831Y-126080352D01*
X108180831Y-126080352D01*
G37*
G36*
X103935239Y-126027101D02*
G01*
X104171053Y-126098634D01*
X104388381Y-126214799D01*
X104578871Y-126371129D01*
X104735201Y-126561619D01*
X104851366Y-126778947D01*
X104922899Y-127014761D01*
X104947053Y-127260000D01*
X104922899Y-127505239D01*
X104851366Y-127741053D01*
X104735201Y-127958381D01*
X104578871Y-128148871D01*
X104388381Y-128305201D01*
X104171053Y-128421366D01*
X103935239Y-128492899D01*
X103751457Y-128511000D01*
X103628543Y-128511000D01*
X103444761Y-128492899D01*
X103208947Y-128421366D01*
X102991619Y-128305201D01*
X102801129Y-128148871D01*
X102644799Y-127958381D01*
X102528634Y-127741053D01*
X102457101Y-127505239D01*
X102432947Y-127260000D01*
X102457101Y-127014761D01*
X102528634Y-126778947D01*
X102644799Y-126561619D01*
X102801129Y-126371129D01*
X102991619Y-126214799D01*
X103208947Y-126098634D01*
X103444761Y-126027101D01*
X103628543Y-126009000D01*
X103751457Y-126009000D01*
X103935239Y-126027101D01*
X103935239Y-126027101D01*
G37*
G36*
X121196416Y-125739879D02*
G01*
X121387592Y-125819067D01*
X121387594Y-125819068D01*
X121559648Y-125934031D01*
X121705969Y-126080352D01*
X121786584Y-126201000D01*
X121820933Y-126252408D01*
X121900121Y-126443584D01*
X121940490Y-126646534D01*
X121940490Y-126853466D01*
X121900121Y-127056416D01*
X121842677Y-127195097D01*
X121820932Y-127247594D01*
X121705969Y-127419648D01*
X121559648Y-127565969D01*
X121387594Y-127680932D01*
X121387593Y-127680933D01*
X121387592Y-127680933D01*
X121196416Y-127760121D01*
X120993466Y-127800490D01*
X120786534Y-127800490D01*
X120583584Y-127760121D01*
X120392408Y-127680933D01*
X120392407Y-127680933D01*
X120392406Y-127680932D01*
X120220352Y-127565969D01*
X120074031Y-127419648D01*
X119959068Y-127247594D01*
X119937323Y-127195097D01*
X119879879Y-127056416D01*
X119839510Y-126853466D01*
X119839510Y-126646534D01*
X119879879Y-126443584D01*
X119959067Y-126252408D01*
X119993417Y-126201000D01*
X120074031Y-126080352D01*
X120220352Y-125934031D01*
X120392406Y-125819068D01*
X120392408Y-125819067D01*
X120583584Y-125739879D01*
X120786534Y-125699510D01*
X120993466Y-125699510D01*
X121196416Y-125739879D01*
X121196416Y-125739879D01*
G37*
G36*
X112841000Y-126201000D02*
G01*
X110539000Y-126201000D01*
X110539000Y-123899000D01*
X112841000Y-123899000D01*
X112841000Y-126201000D01*
X112841000Y-126201000D01*
G37*
G36*
X108806416Y-123189879D02*
G01*
X108997592Y-123269067D01*
X108997594Y-123269068D01*
X109128541Y-123356564D01*
X109169648Y-123384031D01*
X109315969Y-123530352D01*
X109430933Y-123702408D01*
X109510121Y-123893584D01*
X109550490Y-124096534D01*
X109550490Y-124303466D01*
X109510121Y-124506416D01*
X109483929Y-124569648D01*
X109430932Y-124697594D01*
X109315969Y-124869648D01*
X109169648Y-125015969D01*
X108997594Y-125130932D01*
X108997593Y-125130933D01*
X108997592Y-125130933D01*
X108806416Y-125210121D01*
X108603466Y-125250490D01*
X108396534Y-125250490D01*
X108193584Y-125210121D01*
X108002408Y-125130933D01*
X108002407Y-125130933D01*
X108002406Y-125130932D01*
X107830352Y-125015969D01*
X107684031Y-124869648D01*
X107569068Y-124697594D01*
X107516071Y-124569648D01*
X107489879Y-124506416D01*
X107449510Y-124303466D01*
X107449510Y-124096534D01*
X107489879Y-123893584D01*
X107569067Y-123702408D01*
X107684031Y-123530352D01*
X107830352Y-123384031D01*
X107871459Y-123356564D01*
X108002406Y-123269068D01*
X108002408Y-123269067D01*
X108193584Y-123189879D01*
X108396534Y-123149510D01*
X108603466Y-123149510D01*
X108806416Y-123189879D01*
X108806416Y-123189879D01*
G37*
G36*
X196606416Y-122889879D02*
G01*
X196797592Y-122969067D01*
X196797594Y-122969068D01*
X196969648Y-123084031D01*
X197115969Y-123230352D01*
X197230933Y-123402408D01*
X197310121Y-123593584D01*
X197350490Y-123796534D01*
X197350490Y-124003466D01*
X197310121Y-124206416D01*
X197269922Y-124303464D01*
X197230932Y-124397594D01*
X197115969Y-124569648D01*
X196969648Y-124715969D01*
X196797594Y-124830932D01*
X196797593Y-124830933D01*
X196797592Y-124830933D01*
X196606416Y-124910121D01*
X196403466Y-124950490D01*
X196196534Y-124950490D01*
X195993584Y-124910121D01*
X195802408Y-124830933D01*
X195802407Y-124830933D01*
X195802406Y-124830932D01*
X195630352Y-124715969D01*
X195484031Y-124569648D01*
X195369068Y-124397594D01*
X195330078Y-124303464D01*
X195289879Y-124206416D01*
X195249510Y-124003466D01*
X195249510Y-123796534D01*
X195289879Y-123593584D01*
X195369067Y-123402408D01*
X195484031Y-123230352D01*
X195630352Y-123084031D01*
X195802406Y-122969068D01*
X195802408Y-122969067D01*
X195993584Y-122889879D01*
X196196534Y-122849510D01*
X196403466Y-122849510D01*
X196606416Y-122889879D01*
X196606416Y-122889879D01*
G37*
G36*
X122096564Y-122039389D02*
G01*
X122287833Y-122118615D01*
X122287835Y-122118616D01*
X122459973Y-122233635D01*
X122606365Y-122380027D01*
X122721385Y-122552167D01*
X122800611Y-122743436D01*
X122841000Y-122946484D01*
X122841000Y-123153516D01*
X122800611Y-123356564D01*
X122728626Y-123530352D01*
X122721384Y-123547835D01*
X122606365Y-123719973D01*
X122459973Y-123866365D01*
X122287835Y-123981384D01*
X122287834Y-123981385D01*
X122287833Y-123981385D01*
X122096564Y-124060611D01*
X121893516Y-124101000D01*
X121686484Y-124101000D01*
X121483436Y-124060611D01*
X121292167Y-123981385D01*
X121292166Y-123981385D01*
X121292165Y-123981384D01*
X121120027Y-123866365D01*
X120973635Y-123719973D01*
X120858616Y-123547835D01*
X120851374Y-123530352D01*
X120779389Y-123356564D01*
X120739000Y-123153516D01*
X120739000Y-122946484D01*
X120779389Y-122743436D01*
X120858615Y-122552167D01*
X120973635Y-122380027D01*
X121120027Y-122233635D01*
X121292165Y-122118616D01*
X121292167Y-122118615D01*
X121483436Y-122039389D01*
X121686484Y-121999000D01*
X121893516Y-121999000D01*
X122096564Y-122039389D01*
X122096564Y-122039389D01*
G37*
G36*
X117538228Y-119031703D02*
G01*
X117693100Y-119095853D01*
X117832481Y-119188985D01*
X117951015Y-119307519D01*
X118044147Y-119446900D01*
X118108297Y-119601772D01*
X118141000Y-119766184D01*
X118141000Y-119933816D01*
X118108297Y-120098228D01*
X118044147Y-120253100D01*
X117951015Y-120392481D01*
X117832481Y-120511015D01*
X117693100Y-120604147D01*
X117538228Y-120668297D01*
X117373816Y-120701000D01*
X117206184Y-120701000D01*
X117041772Y-120668297D01*
X116886900Y-120604147D01*
X116747519Y-120511015D01*
X116628985Y-120392481D01*
X116535853Y-120253100D01*
X116471703Y-120098228D01*
X116439000Y-119933816D01*
X116439000Y-119766184D01*
X116471703Y-119601772D01*
X116535853Y-119446900D01*
X116628985Y-119307519D01*
X116747519Y-119188985D01*
X116886900Y-119095853D01*
X117041772Y-119031703D01*
X117206184Y-118999000D01*
X117373816Y-118999000D01*
X117538228Y-119031703D01*
X117538228Y-119031703D01*
G37*
G36*
X111859271Y-116290103D02*
G01*
X111915635Y-116295654D01*
X112132600Y-116361470D01*
X112132602Y-116361471D01*
X112332555Y-116468347D01*
X112507818Y-116612182D01*
X112651653Y-116787445D01*
X112726132Y-116926787D01*
X112758530Y-116987400D01*
X112824346Y-117204365D01*
X112846569Y-117430000D01*
X112824346Y-117655635D01*
X112797975Y-117742569D01*
X112758529Y-117872602D01*
X112651653Y-118072555D01*
X112507818Y-118247818D01*
X112332555Y-118391653D01*
X112132602Y-118498529D01*
X112132600Y-118498530D01*
X111915635Y-118564346D01*
X111859271Y-118569897D01*
X111746545Y-118581000D01*
X111633455Y-118581000D01*
X111520729Y-118569897D01*
X111464365Y-118564346D01*
X111247400Y-118498530D01*
X111247398Y-118498529D01*
X111047445Y-118391653D01*
X110872182Y-118247818D01*
X110728347Y-118072555D01*
X110621471Y-117872602D01*
X110582026Y-117742569D01*
X110555654Y-117655635D01*
X110533431Y-117430000D01*
X110555654Y-117204365D01*
X110621470Y-116987400D01*
X110653868Y-116926787D01*
X110728347Y-116787445D01*
X110872182Y-116612182D01*
X111047445Y-116468347D01*
X111247398Y-116361471D01*
X111247400Y-116361470D01*
X111464365Y-116295654D01*
X111520729Y-116290103D01*
X111633455Y-116279000D01*
X111746545Y-116279000D01*
X111859271Y-116290103D01*
X111859271Y-116290103D01*
G37*
G36*
X172141000Y-118401000D02*
G01*
X169639000Y-118401000D01*
X169639000Y-115899000D01*
X172141000Y-115899000D01*
X172141000Y-118401000D01*
X172141000Y-118401000D01*
G37*
G36*
X163726257Y-115941377D02*
G01*
X163754903Y-115947075D01*
X163982571Y-116041378D01*
X164187466Y-116178285D01*
X164361715Y-116352534D01*
X164498622Y-116557429D01*
X164498623Y-116557431D01*
X164592925Y-116785097D01*
X164641000Y-117026786D01*
X164641000Y-117273214D01*
X164592925Y-117514903D01*
X164534633Y-117655634D01*
X164498622Y-117742571D01*
X164361715Y-117947466D01*
X164187466Y-118121715D01*
X163982571Y-118258622D01*
X163982570Y-118258623D01*
X163982569Y-118258623D01*
X163754903Y-118352925D01*
X163513214Y-118401000D01*
X163266786Y-118401000D01*
X163025097Y-118352925D01*
X162797431Y-118258623D01*
X162797430Y-118258623D01*
X162797429Y-118258622D01*
X162592534Y-118121715D01*
X162418285Y-117947466D01*
X162281378Y-117742571D01*
X162245368Y-117655634D01*
X162187075Y-117514903D01*
X162139000Y-117273214D01*
X162139000Y-117026786D01*
X162187075Y-116785097D01*
X162281377Y-116557431D01*
X162281378Y-116557429D01*
X162418285Y-116352534D01*
X162592534Y-116178285D01*
X162797429Y-116041378D01*
X163025097Y-115947075D01*
X163053743Y-115941377D01*
X163266786Y-115899000D01*
X163513214Y-115899000D01*
X163726257Y-115941377D01*
X163726257Y-115941377D01*
G37*
G36*
X189141000Y-118401000D02*
G01*
X186639000Y-118401000D01*
X186639000Y-115899000D01*
X189141000Y-115899000D01*
X189141000Y-118401000D01*
X189141000Y-118401000D01*
G37*
G36*
X180726257Y-115941377D02*
G01*
X180754903Y-115947075D01*
X180982571Y-116041378D01*
X181187466Y-116178285D01*
X181361715Y-116352534D01*
X181498622Y-116557429D01*
X181498623Y-116557431D01*
X181592925Y-116785097D01*
X181641000Y-117026786D01*
X181641000Y-117273214D01*
X181592925Y-117514903D01*
X181534633Y-117655634D01*
X181498622Y-117742571D01*
X181361715Y-117947466D01*
X181187466Y-118121715D01*
X180982571Y-118258622D01*
X180982570Y-118258623D01*
X180982569Y-118258623D01*
X180754903Y-118352925D01*
X180513214Y-118401000D01*
X180266786Y-118401000D01*
X180025097Y-118352925D01*
X179797431Y-118258623D01*
X179797430Y-118258623D01*
X179797429Y-118258622D01*
X179592534Y-118121715D01*
X179418285Y-117947466D01*
X179281378Y-117742571D01*
X179245368Y-117655634D01*
X179187075Y-117514903D01*
X179139000Y-117273214D01*
X179139000Y-117026786D01*
X179187075Y-116785097D01*
X179281377Y-116557431D01*
X179281378Y-116557429D01*
X179418285Y-116352534D01*
X179592534Y-116178285D01*
X179797429Y-116041378D01*
X180025097Y-115947075D01*
X180053743Y-115941377D01*
X180266786Y-115899000D01*
X180513214Y-115899000D01*
X180726257Y-115941377D01*
X180726257Y-115941377D01*
G37*
G36*
X138041000Y-118301000D02*
G01*
X135539000Y-118301000D01*
X135539000Y-115799000D01*
X138041000Y-115799000D01*
X138041000Y-118301000D01*
X138041000Y-118301000D01*
G37*
G36*
X129654903Y-115847075D02*
G01*
X129882571Y-115941378D01*
X130087466Y-116078285D01*
X130261715Y-116252534D01*
X130398622Y-116457429D01*
X130398623Y-116457431D01*
X130492925Y-116685097D01*
X130541000Y-116926786D01*
X130541000Y-117173214D01*
X130534803Y-117204366D01*
X130492925Y-117414903D01*
X130398622Y-117642571D01*
X130261715Y-117847466D01*
X130087466Y-118021715D01*
X129882571Y-118158622D01*
X129882570Y-118158623D01*
X129882569Y-118158623D01*
X129654903Y-118252925D01*
X129413214Y-118301000D01*
X129166786Y-118301000D01*
X128925097Y-118252925D01*
X128697431Y-118158623D01*
X128697430Y-118158623D01*
X128697429Y-118158622D01*
X128492534Y-118021715D01*
X128318285Y-117847466D01*
X128181378Y-117642571D01*
X128087075Y-117414903D01*
X128045197Y-117204366D01*
X128039000Y-117173214D01*
X128039000Y-116926786D01*
X128087075Y-116685097D01*
X128181377Y-116457431D01*
X128181378Y-116457429D01*
X128318285Y-116252534D01*
X128492534Y-116078285D01*
X128697429Y-115941378D01*
X128925097Y-115847075D01*
X129166786Y-115799000D01*
X129413214Y-115799000D01*
X129654903Y-115847075D01*
X129654903Y-115847075D01*
G37*
G36*
X155041000Y-118301000D02*
G01*
X152539000Y-118301000D01*
X152539000Y-115799000D01*
X155041000Y-115799000D01*
X155041000Y-118301000D01*
X155041000Y-118301000D01*
G37*
G36*
X146654903Y-115847075D02*
G01*
X146882571Y-115941378D01*
X147087466Y-116078285D01*
X147261715Y-116252534D01*
X147398622Y-116457429D01*
X147398623Y-116457431D01*
X147492925Y-116685097D01*
X147541000Y-116926786D01*
X147541000Y-117173214D01*
X147534803Y-117204366D01*
X147492925Y-117414903D01*
X147398622Y-117642571D01*
X147261715Y-117847466D01*
X147087466Y-118021715D01*
X146882571Y-118158622D01*
X146882570Y-118158623D01*
X146882569Y-118158623D01*
X146654903Y-118252925D01*
X146413214Y-118301000D01*
X146166786Y-118301000D01*
X145925097Y-118252925D01*
X145697431Y-118158623D01*
X145697430Y-118158623D01*
X145697429Y-118158622D01*
X145492534Y-118021715D01*
X145318285Y-117847466D01*
X145181378Y-117642571D01*
X145087075Y-117414903D01*
X145045197Y-117204366D01*
X145039000Y-117173214D01*
X145039000Y-116926786D01*
X145087075Y-116685097D01*
X145181377Y-116457431D01*
X145181378Y-116457429D01*
X145318285Y-116252534D01*
X145492534Y-116078285D01*
X145697429Y-115941378D01*
X145925097Y-115847075D01*
X146166786Y-115799000D01*
X146413214Y-115799000D01*
X146654903Y-115847075D01*
X146654903Y-115847075D01*
G37*
G36*
X122096564Y-114539389D02*
G01*
X122247170Y-114601772D01*
X122287835Y-114618616D01*
X122459973Y-114733635D01*
X122606365Y-114880027D01*
X122721385Y-115052167D01*
X122800611Y-115243436D01*
X122841000Y-115446484D01*
X122841000Y-115653516D01*
X122800611Y-115856564D01*
X122783033Y-115899000D01*
X122721384Y-116047835D01*
X122606365Y-116219973D01*
X122459973Y-116366365D01*
X122287835Y-116481384D01*
X122287834Y-116481385D01*
X122287833Y-116481385D01*
X122096564Y-116560611D01*
X121893516Y-116601000D01*
X121686484Y-116601000D01*
X121483436Y-116560611D01*
X121292167Y-116481385D01*
X121292166Y-116481385D01*
X121292165Y-116481384D01*
X121120027Y-116366365D01*
X120973635Y-116219973D01*
X120858616Y-116047835D01*
X120796967Y-115899000D01*
X120779389Y-115856564D01*
X120739000Y-115653516D01*
X120739000Y-115446484D01*
X120779389Y-115243436D01*
X120858615Y-115052167D01*
X120973635Y-114880027D01*
X121120027Y-114733635D01*
X121292165Y-114618616D01*
X121332830Y-114601772D01*
X121483436Y-114539389D01*
X121686484Y-114499000D01*
X121893516Y-114499000D01*
X122096564Y-114539389D01*
X122096564Y-114539389D01*
G37*
G36*
X117538228Y-114031703D02*
G01*
X117693100Y-114095853D01*
X117832481Y-114188985D01*
X117951015Y-114307519D01*
X118044147Y-114446900D01*
X118108297Y-114601772D01*
X118141000Y-114766184D01*
X118141000Y-114933816D01*
X118108297Y-115098228D01*
X118044147Y-115253100D01*
X117951015Y-115392481D01*
X117832481Y-115511015D01*
X117693100Y-115604147D01*
X117538228Y-115668297D01*
X117373816Y-115701000D01*
X117206184Y-115701000D01*
X117041772Y-115668297D01*
X116886900Y-115604147D01*
X116747519Y-115511015D01*
X116628985Y-115392481D01*
X116535853Y-115253100D01*
X116471703Y-115098228D01*
X116439000Y-114933816D01*
X116439000Y-114766184D01*
X116471703Y-114601772D01*
X116535853Y-114446900D01*
X116628985Y-114307519D01*
X116747519Y-114188985D01*
X116886900Y-114095853D01*
X117041772Y-114031703D01*
X117206184Y-113999000D01*
X117373816Y-113999000D01*
X117538228Y-114031703D01*
X117538228Y-114031703D01*
G37*
G36*
X112079271Y-113210103D02*
G01*
X112135635Y-113215654D01*
X112352600Y-113281470D01*
X112352602Y-113281471D01*
X112552555Y-113388347D01*
X112727818Y-113532182D01*
X112871653Y-113707445D01*
X112978529Y-113907398D01*
X112978530Y-113907400D01*
X113044346Y-114124365D01*
X113066569Y-114350000D01*
X113044346Y-114575635D01*
X113031308Y-114618616D01*
X112978529Y-114792602D01*
X112871653Y-114992555D01*
X112727818Y-115167818D01*
X112552555Y-115311653D01*
X112352602Y-115418529D01*
X112352600Y-115418530D01*
X112135635Y-115484346D01*
X112079271Y-115489897D01*
X111966545Y-115501000D01*
X111853455Y-115501000D01*
X111740729Y-115489897D01*
X111684365Y-115484346D01*
X111467400Y-115418530D01*
X111467398Y-115418529D01*
X111267445Y-115311653D01*
X111092182Y-115167818D01*
X110948347Y-114992555D01*
X110841471Y-114792602D01*
X110788693Y-114618616D01*
X110775654Y-114575635D01*
X110753431Y-114350000D01*
X110775654Y-114124365D01*
X110841470Y-113907400D01*
X110841471Y-113907398D01*
X110948347Y-113707445D01*
X111092182Y-113532182D01*
X111267445Y-113388347D01*
X111467398Y-113281471D01*
X111467400Y-113281470D01*
X111684365Y-113215654D01*
X111740729Y-113210103D01*
X111853455Y-113199000D01*
X111966545Y-113199000D01*
X112079271Y-113210103D01*
X112079271Y-113210103D01*
G37*
G36*
X105441000Y-115501000D02*
G01*
X103139000Y-115501000D01*
X103139000Y-113199000D01*
X105441000Y-113199000D01*
X105441000Y-115501000D01*
X105441000Y-115501000D01*
G37*
G36*
X120861304Y-108637002D02*
G01*
X121280139Y-108810489D01*
X121280141Y-108810490D01*
X121469891Y-108937277D01*
X121595648Y-109021305D01*
X121657083Y-109062355D01*
X121977645Y-109382917D01*
X122202254Y-109719067D01*
X122229511Y-109759861D01*
X122402998Y-110178696D01*
X122491440Y-110623327D01*
X122491440Y-111076673D01*
X122402998Y-111521304D01*
X122260233Y-111865969D01*
X122229510Y-111940141D01*
X121977645Y-112317083D01*
X121657083Y-112637645D01*
X121280141Y-112889510D01*
X121280140Y-112889511D01*
X121280139Y-112889511D01*
X120861304Y-113062998D01*
X120416673Y-113151440D01*
X119963327Y-113151440D01*
X119518696Y-113062998D01*
X119099861Y-112889511D01*
X119099860Y-112889511D01*
X119099859Y-112889510D01*
X118722917Y-112637645D01*
X118402355Y-112317083D01*
X118150490Y-111940141D01*
X118119767Y-111865969D01*
X117977002Y-111521304D01*
X117888560Y-111076673D01*
X117888560Y-110623327D01*
X117977002Y-110178696D01*
X118150489Y-109759861D01*
X118177747Y-109719067D01*
X118402355Y-109382917D01*
X118722917Y-109062355D01*
X118784353Y-109021305D01*
X118910109Y-108937277D01*
X119099859Y-108810490D01*
X119099861Y-108810489D01*
X119518696Y-108637002D01*
X119963327Y-108548560D01*
X120416673Y-108548560D01*
X120861304Y-108637002D01*
X120861304Y-108637002D01*
G37*
G36*
X107776416Y-110039879D02*
G01*
X107967592Y-110119067D01*
X107967594Y-110119068D01*
X108139648Y-110234031D01*
X108285969Y-110380352D01*
X108397010Y-110546536D01*
X108400933Y-110552408D01*
X108480121Y-110743584D01*
X108520490Y-110946534D01*
X108520490Y-111153466D01*
X108480121Y-111356416D01*
X108434742Y-111465969D01*
X108400932Y-111547594D01*
X108285969Y-111719648D01*
X108139648Y-111865969D01*
X107967594Y-111980932D01*
X107967593Y-111980933D01*
X107967592Y-111980933D01*
X107776416Y-112060121D01*
X107573466Y-112100490D01*
X107366534Y-112100490D01*
X107163584Y-112060121D01*
X106972408Y-111980933D01*
X106972407Y-111980933D01*
X106972406Y-111980932D01*
X106800352Y-111865969D01*
X106654031Y-111719648D01*
X106539068Y-111547594D01*
X106505258Y-111465969D01*
X106459879Y-111356416D01*
X106419510Y-111153466D01*
X106419510Y-110946534D01*
X106459879Y-110743584D01*
X106539067Y-110552408D01*
X106542991Y-110546536D01*
X106654031Y-110380352D01*
X106800352Y-110234031D01*
X106972406Y-110119068D01*
X106972408Y-110119067D01*
X107163584Y-110039879D01*
X107366534Y-109999510D01*
X107573466Y-109999510D01*
X107776416Y-110039879D01*
X107776416Y-110039879D01*
G37*
G36*
X104646416Y-110039879D02*
G01*
X104837592Y-110119067D01*
X104837594Y-110119068D01*
X105009648Y-110234031D01*
X105155969Y-110380352D01*
X105267010Y-110546536D01*
X105270933Y-110552408D01*
X105350121Y-110743584D01*
X105390490Y-110946534D01*
X105390490Y-111153466D01*
X105350121Y-111356416D01*
X105304742Y-111465969D01*
X105270932Y-111547594D01*
X105155969Y-111719648D01*
X105009648Y-111865969D01*
X104837594Y-111980932D01*
X104837593Y-111980933D01*
X104837592Y-111980933D01*
X104646416Y-112060121D01*
X104443466Y-112100490D01*
X104236534Y-112100490D01*
X104033584Y-112060121D01*
X103842408Y-111980933D01*
X103842407Y-111980933D01*
X103842406Y-111980932D01*
X103670352Y-111865969D01*
X103524031Y-111719648D01*
X103409068Y-111547594D01*
X103375258Y-111465969D01*
X103329879Y-111356416D01*
X103289510Y-111153466D01*
X103289510Y-110946534D01*
X103329879Y-110743584D01*
X103409067Y-110552408D01*
X103412991Y-110546536D01*
X103524031Y-110380352D01*
X103670352Y-110234031D01*
X103842406Y-110119068D01*
X103842408Y-110119067D01*
X104033584Y-110039879D01*
X104236534Y-109999510D01*
X104443466Y-109999510D01*
X104646416Y-110039879D01*
X104646416Y-110039879D01*
G37*
G36*
X196224549Y-109671116D02*
G01*
X196335734Y-109693232D01*
X196483850Y-109754584D01*
X196496591Y-109759861D01*
X196545203Y-109779997D01*
X196733720Y-109905960D01*
X196894040Y-110066280D01*
X197020003Y-110254797D01*
X197106768Y-110464266D01*
X197123132Y-110546534D01*
X197151000Y-110686635D01*
X197151000Y-110913365D01*
X197142436Y-110956417D01*
X197106768Y-111135734D01*
X197020003Y-111345203D01*
X196894040Y-111533720D01*
X196733720Y-111694040D01*
X196545203Y-111820003D01*
X196335734Y-111906768D01*
X196224549Y-111928884D01*
X196113365Y-111951000D01*
X195886635Y-111951000D01*
X195775451Y-111928884D01*
X195664266Y-111906768D01*
X195454797Y-111820003D01*
X195266280Y-111694040D01*
X195105960Y-111533720D01*
X194979997Y-111345203D01*
X194893232Y-111135734D01*
X194857564Y-110956417D01*
X194849000Y-110913365D01*
X194849000Y-110686635D01*
X194876868Y-110546534D01*
X194893232Y-110464266D01*
X194979997Y-110254797D01*
X195105960Y-110066280D01*
X195266280Y-109905960D01*
X195454797Y-109779997D01*
X195503410Y-109759861D01*
X195516150Y-109754584D01*
X195664266Y-109693232D01*
X195775451Y-109671116D01*
X195886635Y-109649000D01*
X196113365Y-109649000D01*
X196224549Y-109671116D01*
X196224549Y-109671116D01*
G37*
G36*
X124996416Y-109639879D02*
G01*
X125187592Y-109719067D01*
X125187594Y-109719068D01*
X125359648Y-109834031D01*
X125505969Y-109980352D01*
X125611070Y-110137646D01*
X125620933Y-110152408D01*
X125700121Y-110343584D01*
X125740490Y-110546534D01*
X125740490Y-110753466D01*
X125700121Y-110956416D01*
X125625845Y-111135733D01*
X125620932Y-111147594D01*
X125505969Y-111319648D01*
X125359648Y-111465969D01*
X125187594Y-111580932D01*
X125187593Y-111580933D01*
X125187592Y-111580933D01*
X124996416Y-111660121D01*
X124793466Y-111700490D01*
X124586534Y-111700490D01*
X124383584Y-111660121D01*
X124192408Y-111580933D01*
X124192407Y-111580933D01*
X124192406Y-111580932D01*
X124020352Y-111465969D01*
X123874031Y-111319648D01*
X123759068Y-111147594D01*
X123754155Y-111135733D01*
X123679879Y-110956416D01*
X123639510Y-110753466D01*
X123639510Y-110546534D01*
X123679879Y-110343584D01*
X123759067Y-110152408D01*
X123768931Y-110137646D01*
X123874031Y-109980352D01*
X124020352Y-109834031D01*
X124192406Y-109719068D01*
X124192408Y-109719067D01*
X124383584Y-109639879D01*
X124586534Y-109599510D01*
X124793466Y-109599510D01*
X124996416Y-109639879D01*
X124996416Y-109639879D01*
G37*
G36*
X176261304Y-106237002D02*
G01*
X176680139Y-106410489D01*
X176680141Y-106410490D01*
X176869891Y-106537277D01*
X177057082Y-106662354D01*
X177377646Y-106982918D01*
X177629511Y-107359861D01*
X177802998Y-107778696D01*
X177891440Y-108223327D01*
X177891440Y-108676673D01*
X177802998Y-109121304D01*
X177694634Y-109382917D01*
X177629510Y-109540141D01*
X177527218Y-109693232D01*
X177377646Y-109917082D01*
X177057082Y-110237646D01*
X176898536Y-110343583D01*
X176680141Y-110489510D01*
X176680140Y-110489511D01*
X176680139Y-110489511D01*
X176261304Y-110662998D01*
X175816673Y-110751440D01*
X175363327Y-110751440D01*
X174918696Y-110662998D01*
X174499861Y-110489511D01*
X174499860Y-110489511D01*
X174499859Y-110489510D01*
X174281464Y-110343583D01*
X174122918Y-110237646D01*
X173802354Y-109917082D01*
X173652782Y-109693232D01*
X173550490Y-109540141D01*
X173485366Y-109382917D01*
X173377002Y-109121304D01*
X173288560Y-108676673D01*
X173288560Y-108223327D01*
X173377002Y-107778696D01*
X173550489Y-107359861D01*
X173802354Y-106982918D01*
X174122918Y-106662354D01*
X174310109Y-106537277D01*
X174499859Y-106410490D01*
X174499861Y-106410489D01*
X174918696Y-106237002D01*
X175363327Y-106148560D01*
X175816673Y-106148560D01*
X176261304Y-106237002D01*
X176261304Y-106237002D01*
G37*
G36*
X159361304Y-106137002D02*
G01*
X159690424Y-106273328D01*
X159780141Y-106310490D01*
X159929800Y-106410489D01*
X160157082Y-106562354D01*
X160477646Y-106882918D01*
X160520153Y-106946534D01*
X160718635Y-107243583D01*
X160729511Y-107259861D01*
X160902998Y-107678696D01*
X160991440Y-108123327D01*
X160991440Y-108576673D01*
X160902998Y-109021304D01*
X160729511Y-109440139D01*
X160477646Y-109817082D01*
X160157082Y-110137646D01*
X160007423Y-110237645D01*
X159780141Y-110389510D01*
X159780140Y-110389511D01*
X159780139Y-110389511D01*
X159361304Y-110562998D01*
X158916673Y-110651440D01*
X158463327Y-110651440D01*
X158018696Y-110562998D01*
X157599861Y-110389511D01*
X157599860Y-110389511D01*
X157599859Y-110389510D01*
X157372577Y-110237645D01*
X157222918Y-110137646D01*
X156902354Y-109817082D01*
X156650489Y-109440139D01*
X156477002Y-109021304D01*
X156388560Y-108576673D01*
X156388560Y-108123327D01*
X156477002Y-107678696D01*
X156650489Y-107259861D01*
X156661366Y-107243583D01*
X156859847Y-106946534D01*
X156902354Y-106882918D01*
X157222918Y-106562354D01*
X157450200Y-106410489D01*
X157599859Y-106310490D01*
X157689576Y-106273328D01*
X158018696Y-106137002D01*
X158463327Y-106048560D01*
X158916673Y-106048560D01*
X159361304Y-106137002D01*
X159361304Y-106137002D01*
G37*
G36*
X142261304Y-106137002D02*
G01*
X142590424Y-106273328D01*
X142680141Y-106310490D01*
X142829800Y-106410489D01*
X143057082Y-106562354D01*
X143377646Y-106882918D01*
X143420153Y-106946534D01*
X143618635Y-107243583D01*
X143629511Y-107259861D01*
X143802998Y-107678696D01*
X143891440Y-108123327D01*
X143891440Y-108576673D01*
X143802998Y-109021304D01*
X143629511Y-109440139D01*
X143377646Y-109817082D01*
X143057082Y-110137646D01*
X142907423Y-110237645D01*
X142680141Y-110389510D01*
X142680140Y-110389511D01*
X142680139Y-110389511D01*
X142261304Y-110562998D01*
X141816673Y-110651440D01*
X141363327Y-110651440D01*
X140918696Y-110562998D01*
X140499861Y-110389511D01*
X140499860Y-110389511D01*
X140499859Y-110389510D01*
X140272577Y-110237645D01*
X140122918Y-110137646D01*
X139802354Y-109817082D01*
X139550489Y-109440139D01*
X139377002Y-109021304D01*
X139288560Y-108576673D01*
X139288560Y-108123327D01*
X139377002Y-107678696D01*
X139550489Y-107259861D01*
X139561366Y-107243583D01*
X139759847Y-106946534D01*
X139802354Y-106882918D01*
X140122918Y-106562354D01*
X140350200Y-106410489D01*
X140499859Y-106310490D01*
X140589576Y-106273328D01*
X140918696Y-106137002D01*
X141363327Y-106048560D01*
X141816673Y-106048560D01*
X142261304Y-106137002D01*
X142261304Y-106137002D01*
G37*
G36*
X190371304Y-104287002D02*
G01*
X190790139Y-104460489D01*
X190790141Y-104460490D01*
X190873171Y-104515969D01*
X191167082Y-104712354D01*
X191487646Y-105032918D01*
X191739511Y-105409861D01*
X191912998Y-105828696D01*
X192001440Y-106273327D01*
X192001440Y-106726673D01*
X191912998Y-107171304D01*
X191753479Y-107556417D01*
X191739510Y-107590141D01*
X191680340Y-107678695D01*
X191487646Y-107967082D01*
X191167082Y-108287646D01*
X191049863Y-108365969D01*
X190790141Y-108539510D01*
X190790140Y-108539511D01*
X190790139Y-108539511D01*
X190371304Y-108712998D01*
X189926673Y-108801440D01*
X189473327Y-108801440D01*
X189028696Y-108712998D01*
X188609861Y-108539511D01*
X188609860Y-108539511D01*
X188609859Y-108539510D01*
X188350137Y-108365969D01*
X188232918Y-108287646D01*
X187912354Y-107967082D01*
X187719660Y-107678695D01*
X187660490Y-107590141D01*
X187646521Y-107556417D01*
X187487002Y-107171304D01*
X187398560Y-106726673D01*
X187398560Y-106273327D01*
X187487002Y-105828696D01*
X187660489Y-105409861D01*
X187912354Y-105032918D01*
X188232918Y-104712354D01*
X188526829Y-104515969D01*
X188609859Y-104460490D01*
X188609861Y-104460489D01*
X189028696Y-104287002D01*
X189473327Y-104198560D01*
X189926673Y-104198560D01*
X190371304Y-104287002D01*
X190371304Y-104287002D01*
G37*
G36*
X124996416Y-106539879D02*
G01*
X125187592Y-106619067D01*
X125187594Y-106619068D01*
X125359648Y-106734031D01*
X125505969Y-106880352D01*
X125617010Y-107046536D01*
X125620933Y-107052408D01*
X125700121Y-107243584D01*
X125740490Y-107446534D01*
X125740490Y-107653466D01*
X125700121Y-107856416D01*
X125648544Y-107980933D01*
X125620932Y-108047594D01*
X125505969Y-108219648D01*
X125359648Y-108365969D01*
X125187594Y-108480932D01*
X125187593Y-108480933D01*
X125187592Y-108480933D01*
X124996416Y-108560121D01*
X124793466Y-108600490D01*
X124586534Y-108600490D01*
X124383584Y-108560121D01*
X124192408Y-108480933D01*
X124192407Y-108480933D01*
X124192406Y-108480932D01*
X124020352Y-108365969D01*
X123874031Y-108219648D01*
X123759068Y-108047594D01*
X123731456Y-107980933D01*
X123679879Y-107856416D01*
X123639510Y-107653466D01*
X123639510Y-107446534D01*
X123679879Y-107243584D01*
X123759067Y-107052408D01*
X123762991Y-107046536D01*
X123874031Y-106880352D01*
X124020352Y-106734031D01*
X124192406Y-106619068D01*
X124192408Y-106619067D01*
X124383584Y-106539879D01*
X124586534Y-106499510D01*
X124793466Y-106499510D01*
X124996416Y-106539879D01*
X124996416Y-106539879D01*
G37*
G36*
X171496416Y-106239879D02*
G01*
X171666885Y-106310490D01*
X171687594Y-106319068D01*
X171859648Y-106434031D01*
X172005969Y-106580352D01*
X172115037Y-106743583D01*
X172120933Y-106752408D01*
X172200121Y-106943584D01*
X172240490Y-107146534D01*
X172240490Y-107353466D01*
X172200121Y-107556416D01*
X172132508Y-107719648D01*
X172120932Y-107747594D01*
X172005969Y-107919648D01*
X171859648Y-108065969D01*
X171687594Y-108180932D01*
X171687593Y-108180933D01*
X171687592Y-108180933D01*
X171496416Y-108260121D01*
X171293466Y-108300490D01*
X171086534Y-108300490D01*
X170883584Y-108260121D01*
X170692408Y-108180933D01*
X170692407Y-108180933D01*
X170692406Y-108180932D01*
X170520352Y-108065969D01*
X170374031Y-107919648D01*
X170259068Y-107747594D01*
X170247492Y-107719648D01*
X170179879Y-107556416D01*
X170139510Y-107353466D01*
X170139510Y-107146534D01*
X170179879Y-106943584D01*
X170259067Y-106752408D01*
X170264964Y-106743583D01*
X170374031Y-106580352D01*
X170520352Y-106434031D01*
X170692406Y-106319068D01*
X170713115Y-106310490D01*
X170883584Y-106239879D01*
X171086534Y-106199510D01*
X171293466Y-106199510D01*
X171496416Y-106239879D01*
X171496416Y-106239879D01*
G37*
G36*
X154696416Y-106139879D02*
G01*
X154840377Y-106199510D01*
X154887594Y-106219068D01*
X155059648Y-106334031D01*
X155205969Y-106480352D01*
X155298656Y-106619067D01*
X155320933Y-106652408D01*
X155400121Y-106843584D01*
X155440490Y-107046534D01*
X155440490Y-107253466D01*
X155400121Y-107456416D01*
X155358699Y-107556416D01*
X155320932Y-107647594D01*
X155205969Y-107819648D01*
X155059648Y-107965969D01*
X154887594Y-108080932D01*
X154887593Y-108080933D01*
X154887592Y-108080933D01*
X154696416Y-108160121D01*
X154493466Y-108200490D01*
X154286534Y-108200490D01*
X154083584Y-108160121D01*
X153892408Y-108080933D01*
X153892407Y-108080933D01*
X153892406Y-108080932D01*
X153720352Y-107965969D01*
X153574031Y-107819648D01*
X153459068Y-107647594D01*
X153421301Y-107556416D01*
X153379879Y-107456416D01*
X153339510Y-107253466D01*
X153339510Y-107046534D01*
X153379879Y-106843584D01*
X153459067Y-106652408D01*
X153481345Y-106619067D01*
X153574031Y-106480352D01*
X153720352Y-106334031D01*
X153892406Y-106219068D01*
X153939623Y-106199510D01*
X154083584Y-106139879D01*
X154286534Y-106099510D01*
X154493466Y-106099510D01*
X154696416Y-106139879D01*
X154696416Y-106139879D01*
G37*
G36*
X137596416Y-106039879D02*
G01*
X137740377Y-106099510D01*
X137787594Y-106119068D01*
X137959648Y-106234031D01*
X138105969Y-106380352D01*
X138212562Y-106539879D01*
X138220933Y-106552408D01*
X138300121Y-106743584D01*
X138340490Y-106946534D01*
X138340490Y-107153466D01*
X138300121Y-107356416D01*
X138262792Y-107446536D01*
X138220932Y-107547594D01*
X138105969Y-107719648D01*
X137959648Y-107865969D01*
X137787594Y-107980932D01*
X137787593Y-107980933D01*
X137787592Y-107980933D01*
X137596416Y-108060121D01*
X137393466Y-108100490D01*
X137186534Y-108100490D01*
X136983584Y-108060121D01*
X136792408Y-107980933D01*
X136792407Y-107980933D01*
X136792406Y-107980932D01*
X136620352Y-107865969D01*
X136474031Y-107719648D01*
X136359068Y-107547594D01*
X136317208Y-107446536D01*
X136279879Y-107356416D01*
X136239510Y-107153466D01*
X136239510Y-106946534D01*
X136279879Y-106743584D01*
X136359067Y-106552408D01*
X136367439Y-106539879D01*
X136474031Y-106380352D01*
X136620352Y-106234031D01*
X136792406Y-106119068D01*
X136839623Y-106099510D01*
X136983584Y-106039879D01*
X137186534Y-105999510D01*
X137393466Y-105999510D01*
X137596416Y-106039879D01*
X137596416Y-106039879D01*
G37*
G36*
X185556416Y-106039879D02*
G01*
X185700377Y-106099510D01*
X185747594Y-106119068D01*
X185919648Y-106234031D01*
X186065969Y-106380352D01*
X186172562Y-106539879D01*
X186180933Y-106552408D01*
X186260121Y-106743584D01*
X186300490Y-106946534D01*
X186300490Y-107153466D01*
X186260121Y-107356416D01*
X186222792Y-107446536D01*
X186180932Y-107547594D01*
X186065969Y-107719648D01*
X185919648Y-107865969D01*
X185747594Y-107980932D01*
X185747593Y-107980933D01*
X185747592Y-107980933D01*
X185556416Y-108060121D01*
X185353466Y-108100490D01*
X185146534Y-108100490D01*
X184943584Y-108060121D01*
X184752408Y-107980933D01*
X184752407Y-107980933D01*
X184752406Y-107980932D01*
X184580352Y-107865969D01*
X184434031Y-107719648D01*
X184319068Y-107547594D01*
X184277208Y-107446536D01*
X184239879Y-107356416D01*
X184199510Y-107153466D01*
X184199510Y-106946534D01*
X184239879Y-106743584D01*
X184319067Y-106552408D01*
X184327439Y-106539879D01*
X184434031Y-106380352D01*
X184580352Y-106234031D01*
X184752406Y-106119068D01*
X184799623Y-106099510D01*
X184943584Y-106039879D01*
X185146534Y-105999510D01*
X185353466Y-105999510D01*
X185556416Y-106039879D01*
X185556416Y-106039879D01*
G37*
G36*
X106224549Y-103671116D02*
G01*
X106335734Y-103693232D01*
X106545203Y-103779997D01*
X106733720Y-103905960D01*
X106894040Y-104066280D01*
X107020003Y-104254797D01*
X107106768Y-104464266D01*
X107125537Y-104558623D01*
X107144295Y-104652925D01*
X107151000Y-104686636D01*
X107151000Y-104913364D01*
X107106768Y-105135734D01*
X107020003Y-105345203D01*
X106894040Y-105533720D01*
X106733720Y-105694040D01*
X106545203Y-105820003D01*
X106545202Y-105820004D01*
X106545201Y-105820004D01*
X106483850Y-105845416D01*
X106335734Y-105906768D01*
X106224549Y-105928884D01*
X106113365Y-105951000D01*
X105886635Y-105951000D01*
X105775451Y-105928884D01*
X105664266Y-105906768D01*
X105516150Y-105845416D01*
X105454799Y-105820004D01*
X105454798Y-105820004D01*
X105454797Y-105820003D01*
X105266280Y-105694040D01*
X105105960Y-105533720D01*
X104979997Y-105345203D01*
X104893232Y-105135734D01*
X104849000Y-104913364D01*
X104849000Y-104686636D01*
X104855706Y-104652925D01*
X104874463Y-104558623D01*
X104893232Y-104464266D01*
X104979997Y-104254797D01*
X105105960Y-104066280D01*
X105266280Y-103905960D01*
X105454797Y-103779997D01*
X105664266Y-103693232D01*
X105775451Y-103671116D01*
X105886635Y-103649000D01*
X106113365Y-103649000D01*
X106224549Y-103671116D01*
X106224549Y-103671116D01*
G37*
G36*
X150306416Y-102689879D02*
G01*
X150455471Y-102751620D01*
X150497594Y-102769068D01*
X150669648Y-102884031D01*
X150815969Y-103030352D01*
X150852549Y-103085097D01*
X150930933Y-103202408D01*
X151010121Y-103393584D01*
X151050490Y-103596534D01*
X151050490Y-103803466D01*
X151010121Y-104006416D01*
X150995145Y-104042571D01*
X150930932Y-104197594D01*
X150815969Y-104369648D01*
X150669648Y-104515969D01*
X150497594Y-104630932D01*
X150497593Y-104630933D01*
X150497592Y-104630933D01*
X150306416Y-104710121D01*
X150103466Y-104750490D01*
X149896534Y-104750490D01*
X149693584Y-104710121D01*
X149502408Y-104630933D01*
X149502407Y-104630933D01*
X149502406Y-104630932D01*
X149330352Y-104515969D01*
X149184031Y-104369648D01*
X149069068Y-104197594D01*
X149004855Y-104042571D01*
X148989879Y-104006416D01*
X148949510Y-103803466D01*
X148949510Y-103596534D01*
X148989879Y-103393584D01*
X149069067Y-103202408D01*
X149147452Y-103085097D01*
X149184031Y-103030352D01*
X149330352Y-102884031D01*
X149502406Y-102769068D01*
X149544529Y-102751620D01*
X149693584Y-102689879D01*
X149896534Y-102649510D01*
X150103466Y-102649510D01*
X150306416Y-102689879D01*
X150306416Y-102689879D01*
G37*
G36*
X131895239Y-102217101D02*
G01*
X132131053Y-102288634D01*
X132348381Y-102404799D01*
X132538871Y-102561129D01*
X132695201Y-102751619D01*
X132811366Y-102968947D01*
X132882899Y-103204761D01*
X132907053Y-103450000D01*
X132882899Y-103695239D01*
X132811366Y-103931053D01*
X132695201Y-104148381D01*
X132538871Y-104338871D01*
X132348381Y-104495201D01*
X132131053Y-104611366D01*
X131895239Y-104682899D01*
X131711457Y-104701000D01*
X131588543Y-104701000D01*
X131404761Y-104682899D01*
X131168947Y-104611366D01*
X130951619Y-104495201D01*
X130761129Y-104338871D01*
X130604799Y-104148381D01*
X130488634Y-103931053D01*
X130417101Y-103695239D01*
X130392947Y-103450000D01*
X130417101Y-103204761D01*
X130488634Y-102968947D01*
X130604799Y-102751619D01*
X130761129Y-102561129D01*
X130951619Y-102404799D01*
X131168947Y-102288634D01*
X131404761Y-102217101D01*
X131588543Y-102199000D01*
X131711457Y-102199000D01*
X131895239Y-102217101D01*
X131895239Y-102217101D01*
G37*
G36*
X147254903Y-102247075D02*
G01*
X147355236Y-102288634D01*
X147482571Y-102341378D01*
X147687466Y-102478285D01*
X147861715Y-102652534D01*
X147998622Y-102857429D01*
X147998623Y-102857431D01*
X148092925Y-103085097D01*
X148141000Y-103326786D01*
X148141000Y-103573214D01*
X148092925Y-103814903D01*
X148013598Y-104006417D01*
X147998622Y-104042571D01*
X147861715Y-104247466D01*
X147687466Y-104421715D01*
X147482571Y-104558622D01*
X147482570Y-104558623D01*
X147482569Y-104558623D01*
X147254903Y-104652925D01*
X147013214Y-104701000D01*
X146766786Y-104701000D01*
X146525097Y-104652925D01*
X146297431Y-104558623D01*
X146297430Y-104558623D01*
X146297429Y-104558622D01*
X146092534Y-104421715D01*
X145918285Y-104247466D01*
X145781378Y-104042571D01*
X145766403Y-104006417D01*
X145687075Y-103814903D01*
X145639000Y-103573214D01*
X145639000Y-103326786D01*
X145687075Y-103085097D01*
X145781377Y-102857431D01*
X145781378Y-102857429D01*
X145918285Y-102652534D01*
X146092534Y-102478285D01*
X146297429Y-102341378D01*
X146424765Y-102288634D01*
X146525097Y-102247075D01*
X146766786Y-102199000D01*
X147013214Y-102199000D01*
X147254903Y-102247075D01*
X147254903Y-102247075D01*
G37*
G36*
X159361304Y-93237002D02*
G01*
X159780139Y-93410489D01*
X159780141Y-93410490D01*
X159969891Y-93537277D01*
X160157082Y-93662354D01*
X160477646Y-93982918D01*
X160729511Y-94359861D01*
X160902998Y-94778696D01*
X160991440Y-95223327D01*
X160991440Y-95676673D01*
X160902998Y-96121304D01*
X160729511Y-96540139D01*
X160477646Y-96917082D01*
X160157082Y-97237646D01*
X159969891Y-97362723D01*
X159780141Y-97489510D01*
X159780140Y-97489511D01*
X159780139Y-97489511D01*
X159361304Y-97662998D01*
X158916673Y-97751440D01*
X158463327Y-97751440D01*
X158018696Y-97662998D01*
X157599861Y-97489511D01*
X157599860Y-97489511D01*
X157599859Y-97489510D01*
X157410109Y-97362723D01*
X157222918Y-97237646D01*
X156902354Y-96917082D01*
X156650489Y-96540139D01*
X156477002Y-96121304D01*
X156388560Y-95676673D01*
X156388560Y-95223327D01*
X156477002Y-94778696D01*
X156650489Y-94359861D01*
X156902354Y-93982918D01*
X157222918Y-93662354D01*
X157410109Y-93537277D01*
X157599859Y-93410490D01*
X157599861Y-93410489D01*
X158018696Y-93237002D01*
X158463327Y-93148560D01*
X158916673Y-93148560D01*
X159361304Y-93237002D01*
X159361304Y-93237002D01*
G37*
G36*
X193261304Y-93237002D02*
G01*
X193680139Y-93410489D01*
X193680141Y-93410490D01*
X193869891Y-93537277D01*
X194057082Y-93662354D01*
X194377646Y-93982918D01*
X194629511Y-94359861D01*
X194802998Y-94778696D01*
X194891440Y-95223327D01*
X194891440Y-95676673D01*
X194802998Y-96121304D01*
X194629511Y-96540139D01*
X194377646Y-96917082D01*
X194057082Y-97237646D01*
X193869891Y-97362723D01*
X193680141Y-97489510D01*
X193680140Y-97489511D01*
X193680139Y-97489511D01*
X193261304Y-97662998D01*
X192816673Y-97751440D01*
X192363327Y-97751440D01*
X191918696Y-97662998D01*
X191499861Y-97489511D01*
X191499860Y-97489511D01*
X191499859Y-97489510D01*
X191310109Y-97362723D01*
X191122918Y-97237646D01*
X190802354Y-96917082D01*
X190550489Y-96540139D01*
X190377002Y-96121304D01*
X190288560Y-95676673D01*
X190288560Y-95223327D01*
X190377002Y-94778696D01*
X190550489Y-94359861D01*
X190802354Y-93982918D01*
X191122918Y-93662354D01*
X191310109Y-93537277D01*
X191499859Y-93410490D01*
X191499861Y-93410489D01*
X191918696Y-93237002D01*
X192363327Y-93148560D01*
X192816673Y-93148560D01*
X193261304Y-93237002D01*
X193261304Y-93237002D01*
G37*
G36*
X176361304Y-93237002D02*
G01*
X176780139Y-93410489D01*
X176780141Y-93410490D01*
X176969891Y-93537277D01*
X177157082Y-93662354D01*
X177477646Y-93982918D01*
X177729511Y-94359861D01*
X177902998Y-94778696D01*
X177991440Y-95223327D01*
X177991440Y-95676673D01*
X177902998Y-96121304D01*
X177729511Y-96540139D01*
X177477646Y-96917082D01*
X177157082Y-97237646D01*
X176969891Y-97362723D01*
X176780141Y-97489510D01*
X176780140Y-97489511D01*
X176780139Y-97489511D01*
X176361304Y-97662998D01*
X175916673Y-97751440D01*
X175463327Y-97751440D01*
X175018696Y-97662998D01*
X174599861Y-97489511D01*
X174599860Y-97489511D01*
X174599859Y-97489510D01*
X174410109Y-97362723D01*
X174222918Y-97237646D01*
X173902354Y-96917082D01*
X173650489Y-96540139D01*
X173477002Y-96121304D01*
X173388560Y-95676673D01*
X173388560Y-95223327D01*
X173477002Y-94778696D01*
X173650489Y-94359861D01*
X173902354Y-93982918D01*
X174222918Y-93662354D01*
X174410109Y-93537277D01*
X174599859Y-93410490D01*
X174599861Y-93410489D01*
X175018696Y-93237002D01*
X175463327Y-93148560D01*
X175916673Y-93148560D01*
X176361304Y-93237002D01*
X176361304Y-93237002D01*
G37*
G36*
X142261304Y-93137002D02*
G01*
X142680139Y-93310489D01*
X142680141Y-93310490D01*
X142829800Y-93410489D01*
X143057082Y-93562354D01*
X143377646Y-93882918D01*
X143629511Y-94259861D01*
X143802998Y-94678696D01*
X143891440Y-95123327D01*
X143891440Y-95576673D01*
X143802998Y-96021304D01*
X143643479Y-96406417D01*
X143629510Y-96440141D01*
X143585226Y-96506416D01*
X143377646Y-96817082D01*
X143057082Y-97137646D01*
X142987190Y-97184346D01*
X142680141Y-97389510D01*
X142680140Y-97389511D01*
X142680139Y-97389511D01*
X142261304Y-97562998D01*
X141816673Y-97651440D01*
X141363327Y-97651440D01*
X140918696Y-97562998D01*
X140499861Y-97389511D01*
X140499860Y-97389511D01*
X140499859Y-97389510D01*
X140192810Y-97184346D01*
X140122918Y-97137646D01*
X139802354Y-96817082D01*
X139594774Y-96506416D01*
X139550490Y-96440141D01*
X139536521Y-96406417D01*
X139377002Y-96021304D01*
X139288560Y-95576673D01*
X139288560Y-95123327D01*
X139377002Y-94678696D01*
X139550489Y-94259861D01*
X139802354Y-93882918D01*
X140122918Y-93562354D01*
X140350200Y-93410489D01*
X140499859Y-93310490D01*
X140499861Y-93310489D01*
X140918696Y-93137002D01*
X141363327Y-93048560D01*
X141816673Y-93048560D01*
X142261304Y-93137002D01*
X142261304Y-93137002D01*
G37*
G36*
X171806416Y-95189879D02*
G01*
X171997592Y-95269067D01*
X171997594Y-95269068D01*
X172169648Y-95384031D01*
X172315969Y-95530352D01*
X172413738Y-95676673D01*
X172430933Y-95702408D01*
X172510121Y-95893584D01*
X172550490Y-96096534D01*
X172550490Y-96303466D01*
X172510121Y-96506416D01*
X172433019Y-96692555D01*
X172430932Y-96697594D01*
X172315969Y-96869648D01*
X172169648Y-97015969D01*
X171997594Y-97130932D01*
X171997593Y-97130933D01*
X171997592Y-97130933D01*
X171806416Y-97210121D01*
X171603466Y-97250490D01*
X171396534Y-97250490D01*
X171193584Y-97210121D01*
X171002408Y-97130933D01*
X171002407Y-97130933D01*
X171002406Y-97130932D01*
X170830352Y-97015969D01*
X170684031Y-96869648D01*
X170569068Y-96697594D01*
X170566981Y-96692555D01*
X170489879Y-96506416D01*
X170449510Y-96303466D01*
X170449510Y-96096534D01*
X170489879Y-95893584D01*
X170569067Y-95702408D01*
X170586263Y-95676673D01*
X170684031Y-95530352D01*
X170830352Y-95384031D01*
X171002406Y-95269068D01*
X171002408Y-95269067D01*
X171193584Y-95189879D01*
X171396534Y-95149510D01*
X171603466Y-95149510D01*
X171806416Y-95189879D01*
X171806416Y-95189879D01*
G37*
G36*
X154606416Y-95189879D02*
G01*
X154797592Y-95269067D01*
X154797594Y-95269068D01*
X154969648Y-95384031D01*
X155115969Y-95530352D01*
X155213738Y-95676673D01*
X155230933Y-95702408D01*
X155310121Y-95893584D01*
X155350490Y-96096534D01*
X155350490Y-96303466D01*
X155310121Y-96506416D01*
X155233019Y-96692555D01*
X155230932Y-96697594D01*
X155115969Y-96869648D01*
X154969648Y-97015969D01*
X154797594Y-97130932D01*
X154797593Y-97130933D01*
X154797592Y-97130933D01*
X154606416Y-97210121D01*
X154403466Y-97250490D01*
X154196534Y-97250490D01*
X153993584Y-97210121D01*
X153802408Y-97130933D01*
X153802407Y-97130933D01*
X153802406Y-97130932D01*
X153630352Y-97015969D01*
X153484031Y-96869648D01*
X153369068Y-96697594D01*
X153366981Y-96692555D01*
X153289879Y-96506416D01*
X153249510Y-96303466D01*
X153249510Y-96096534D01*
X153289879Y-95893584D01*
X153369067Y-95702408D01*
X153386263Y-95676673D01*
X153484031Y-95530352D01*
X153630352Y-95384031D01*
X153802406Y-95269068D01*
X153802408Y-95269067D01*
X153993584Y-95189879D01*
X154196534Y-95149510D01*
X154403466Y-95149510D01*
X154606416Y-95189879D01*
X154606416Y-95189879D01*
G37*
G36*
X124341000Y-97201000D02*
G01*
X122039000Y-97201000D01*
X122039000Y-94899000D01*
X124341000Y-94899000D01*
X124341000Y-97201000D01*
X124341000Y-97201000D01*
G37*
G36*
X115739271Y-94910103D02*
G01*
X115795635Y-94915654D01*
X116012600Y-94981470D01*
X116012602Y-94981471D01*
X116212555Y-95088347D01*
X116387818Y-95232182D01*
X116531653Y-95407445D01*
X116622106Y-95576672D01*
X116638530Y-95607400D01*
X116704346Y-95824365D01*
X116726569Y-96050000D01*
X116704346Y-96275635D01*
X116664674Y-96406416D01*
X116638529Y-96492602D01*
X116531653Y-96692555D01*
X116387818Y-96867818D01*
X116212555Y-97011653D01*
X116046351Y-97100490D01*
X116012600Y-97118530D01*
X115795635Y-97184346D01*
X115739271Y-97189897D01*
X115626545Y-97201000D01*
X115513455Y-97201000D01*
X115400729Y-97189897D01*
X115344365Y-97184346D01*
X115127400Y-97118530D01*
X115093649Y-97100490D01*
X114927445Y-97011653D01*
X114752182Y-96867818D01*
X114608347Y-96692555D01*
X114501471Y-96492602D01*
X114475327Y-96406416D01*
X114435654Y-96275635D01*
X114413431Y-96050000D01*
X114435654Y-95824365D01*
X114501470Y-95607400D01*
X114517894Y-95576672D01*
X114608347Y-95407445D01*
X114752182Y-95232182D01*
X114927445Y-95088347D01*
X115127398Y-94981471D01*
X115127400Y-94981470D01*
X115344365Y-94915654D01*
X115400729Y-94910103D01*
X115513455Y-94899000D01*
X115626545Y-94899000D01*
X115739271Y-94910103D01*
X115739271Y-94910103D01*
G37*
G36*
X188606416Y-95089879D02*
G01*
X188750377Y-95149510D01*
X188797594Y-95169068D01*
X188969648Y-95284031D01*
X189115969Y-95430352D01*
X189213738Y-95576673D01*
X189230933Y-95602408D01*
X189310121Y-95793584D01*
X189350490Y-95996534D01*
X189350490Y-96203466D01*
X189310121Y-96406416D01*
X189251643Y-96547594D01*
X189230932Y-96597594D01*
X189115969Y-96769648D01*
X188969648Y-96915969D01*
X188797594Y-97030932D01*
X188797593Y-97030933D01*
X188797592Y-97030933D01*
X188606416Y-97110121D01*
X188403466Y-97150490D01*
X188196534Y-97150490D01*
X187993584Y-97110121D01*
X187802408Y-97030933D01*
X187802407Y-97030933D01*
X187802406Y-97030932D01*
X187630352Y-96915969D01*
X187484031Y-96769648D01*
X187369068Y-96597594D01*
X187348357Y-96547594D01*
X187289879Y-96406416D01*
X187249510Y-96203466D01*
X187249510Y-95996534D01*
X187289879Y-95793584D01*
X187369067Y-95602408D01*
X187386263Y-95576673D01*
X187484031Y-95430352D01*
X187630352Y-95284031D01*
X187802406Y-95169068D01*
X187849623Y-95149510D01*
X187993584Y-95089879D01*
X188196534Y-95049510D01*
X188403466Y-95049510D01*
X188606416Y-95089879D01*
X188606416Y-95089879D01*
G37*
G36*
X137506416Y-95089879D02*
G01*
X137650377Y-95149510D01*
X137697594Y-95169068D01*
X137869648Y-95284031D01*
X138015969Y-95430352D01*
X138113738Y-95576673D01*
X138130933Y-95602408D01*
X138210121Y-95793584D01*
X138250490Y-95996534D01*
X138250490Y-96203466D01*
X138210121Y-96406416D01*
X138151643Y-96547594D01*
X138130932Y-96597594D01*
X138015969Y-96769648D01*
X137869648Y-96915969D01*
X137697594Y-97030932D01*
X137697593Y-97030933D01*
X137697592Y-97030933D01*
X137506416Y-97110121D01*
X137303466Y-97150490D01*
X137096534Y-97150490D01*
X136893584Y-97110121D01*
X136702408Y-97030933D01*
X136702407Y-97030933D01*
X136702406Y-97030932D01*
X136530352Y-96915969D01*
X136384031Y-96769648D01*
X136269068Y-96597594D01*
X136248357Y-96547594D01*
X136189879Y-96406416D01*
X136149510Y-96203466D01*
X136149510Y-95996534D01*
X136189879Y-95793584D01*
X136269067Y-95602408D01*
X136286263Y-95576673D01*
X136384031Y-95430352D01*
X136530352Y-95284031D01*
X136702406Y-95169068D01*
X136749623Y-95149510D01*
X136893584Y-95089879D01*
X137096534Y-95049510D01*
X137303466Y-95049510D01*
X137506416Y-95089879D01*
X137506416Y-95089879D01*
G37*
G36*
X112896416Y-95039879D02*
G01*
X113087592Y-95119067D01*
X113087594Y-95119068D01*
X113162424Y-95169068D01*
X113259648Y-95234031D01*
X113405969Y-95380352D01*
X113520933Y-95552408D01*
X113600121Y-95743584D01*
X113640490Y-95946534D01*
X113640490Y-96153466D01*
X113600121Y-96356416D01*
X113537988Y-96506417D01*
X113520932Y-96547594D01*
X113405969Y-96719648D01*
X113259648Y-96865969D01*
X113087594Y-96980932D01*
X113087593Y-96980933D01*
X113087592Y-96980933D01*
X112896416Y-97060121D01*
X112693466Y-97100490D01*
X112486534Y-97100490D01*
X112283584Y-97060121D01*
X112092408Y-96980933D01*
X112092407Y-96980933D01*
X112092406Y-96980932D01*
X111920352Y-96865969D01*
X111774031Y-96719648D01*
X111659068Y-96547594D01*
X111642012Y-96506417D01*
X111579879Y-96356416D01*
X111539510Y-96153466D01*
X111539510Y-95946534D01*
X111579879Y-95743584D01*
X111659067Y-95552408D01*
X111774031Y-95380352D01*
X111920352Y-95234031D01*
X112017576Y-95169068D01*
X112092406Y-95119068D01*
X112092408Y-95119067D01*
X112283584Y-95039879D01*
X112486534Y-94999510D01*
X112693466Y-94999510D01*
X112896416Y-95039879D01*
X112896416Y-95039879D01*
G37*
G36*
X106224549Y-94071116D02*
G01*
X106335734Y-94093232D01*
X106545203Y-94179997D01*
X106733720Y-94305960D01*
X106894040Y-94466280D01*
X107020003Y-94654797D01*
X107020004Y-94654799D01*
X107106768Y-94864267D01*
X107141700Y-95039879D01*
X107151000Y-95086636D01*
X107151000Y-95313364D01*
X107106768Y-95535734D01*
X107020003Y-95745203D01*
X106894040Y-95933720D01*
X106733720Y-96094040D01*
X106545203Y-96220003D01*
X106335734Y-96306768D01*
X106224549Y-96328884D01*
X106113365Y-96351000D01*
X105886635Y-96351000D01*
X105775451Y-96328884D01*
X105664266Y-96306768D01*
X105454797Y-96220003D01*
X105266280Y-96094040D01*
X105105960Y-95933720D01*
X104979997Y-95745203D01*
X104893232Y-95535734D01*
X104849000Y-95313364D01*
X104849000Y-95086636D01*
X104858301Y-95039879D01*
X104893232Y-94864267D01*
X104979996Y-94654799D01*
X104979997Y-94654797D01*
X105105960Y-94466280D01*
X105266280Y-94305960D01*
X105454797Y-94179997D01*
X105664266Y-94093232D01*
X105775451Y-94071116D01*
X105886635Y-94049000D01*
X106113365Y-94049000D01*
X106224549Y-94071116D01*
X106224549Y-94071116D01*
G37*
G36*
X115759271Y-90810103D02*
G01*
X115815635Y-90815654D01*
X116032600Y-90881470D01*
X116032602Y-90881471D01*
X116232555Y-90988347D01*
X116407818Y-91132182D01*
X116551653Y-91307445D01*
X116626562Y-91447592D01*
X116658530Y-91507400D01*
X116724346Y-91724365D01*
X116746569Y-91950000D01*
X116724346Y-92175634D01*
X116658529Y-92392602D01*
X116551653Y-92592555D01*
X116407818Y-92767818D01*
X116232555Y-92911653D01*
X116032602Y-93018529D01*
X116032600Y-93018530D01*
X115815635Y-93084346D01*
X115759271Y-93089897D01*
X115646545Y-93101000D01*
X115533455Y-93101000D01*
X115420729Y-93089897D01*
X115364365Y-93084346D01*
X115147400Y-93018530D01*
X115147398Y-93018529D01*
X114947445Y-92911653D01*
X114772182Y-92767818D01*
X114628347Y-92592555D01*
X114521471Y-92392602D01*
X114455654Y-92175634D01*
X114433431Y-91950000D01*
X114455654Y-91724365D01*
X114521470Y-91507400D01*
X114553438Y-91447592D01*
X114628347Y-91307445D01*
X114772182Y-91132182D01*
X114947445Y-90988347D01*
X115147398Y-90881471D01*
X115147400Y-90881470D01*
X115364365Y-90815654D01*
X115420729Y-90810103D01*
X115533455Y-90799000D01*
X115646545Y-90799000D01*
X115759271Y-90810103D01*
X115759271Y-90810103D01*
G37*
G36*
X124361000Y-93101000D02*
G01*
X122059000Y-93101000D01*
X122059000Y-90799000D01*
X124361000Y-90799000D01*
X124361000Y-93101000D01*
X124361000Y-93101000D01*
G37*
G36*
X108145239Y-89707101D02*
G01*
X108381053Y-89778634D01*
X108598381Y-89894799D01*
X108788871Y-90051129D01*
X108945201Y-90241619D01*
X109061366Y-90458947D01*
X109132899Y-90694761D01*
X109157053Y-90940000D01*
X109132899Y-91185239D01*
X109061366Y-91421053D01*
X108945201Y-91638381D01*
X108788871Y-91828871D01*
X108598381Y-91985201D01*
X108381053Y-92101366D01*
X108145239Y-92172899D01*
X107961457Y-92191000D01*
X107838543Y-92191000D01*
X107654761Y-92172899D01*
X107418947Y-92101366D01*
X107201619Y-91985201D01*
X107011129Y-91828871D01*
X106854799Y-91638381D01*
X106738634Y-91421053D01*
X106667101Y-91185239D01*
X106642947Y-90940000D01*
X106667101Y-90694761D01*
X106738634Y-90458947D01*
X106854799Y-90241619D01*
X107011129Y-90051129D01*
X107201619Y-89894799D01*
X107418947Y-89778634D01*
X107654761Y-89707101D01*
X107838543Y-89689000D01*
X107961457Y-89689000D01*
X108145239Y-89707101D01*
X108145239Y-89707101D01*
G37*
G36*
X104054903Y-89697075D02*
G01*
X104251805Y-89778634D01*
X104282571Y-89791378D01*
X104487466Y-89928285D01*
X104661715Y-90102534D01*
X104798180Y-90306768D01*
X104798623Y-90307431D01*
X104892925Y-90535097D01*
X104941000Y-90776786D01*
X104941000Y-91023214D01*
X104892925Y-91264903D01*
X104828245Y-91421056D01*
X104798622Y-91492571D01*
X104661715Y-91697466D01*
X104487466Y-91871715D01*
X104282571Y-92008622D01*
X104282570Y-92008623D01*
X104282569Y-92008623D01*
X104054903Y-92102925D01*
X103813214Y-92151000D01*
X103566786Y-92151000D01*
X103325097Y-92102925D01*
X103097431Y-92008623D01*
X103097430Y-92008623D01*
X103097429Y-92008622D01*
X102892534Y-91871715D01*
X102718285Y-91697466D01*
X102581378Y-91492571D01*
X102551756Y-91421056D01*
X102487075Y-91264903D01*
X102439000Y-91023214D01*
X102439000Y-90776786D01*
X102487075Y-90535097D01*
X102581377Y-90307431D01*
X102581820Y-90306768D01*
X102718285Y-90102534D01*
X102892534Y-89928285D01*
X103097429Y-89791378D01*
X103128196Y-89778634D01*
X103325097Y-89697075D01*
X103566786Y-89649000D01*
X103813214Y-89649000D01*
X104054903Y-89697075D01*
X104054903Y-89697075D01*
G37*
G36*
X111906416Y-89939879D02*
G01*
X112097592Y-90019067D01*
X112097594Y-90019068D01*
X112269648Y-90134031D01*
X112415969Y-90280352D01*
X112463175Y-90351000D01*
X112530933Y-90452408D01*
X112610121Y-90643584D01*
X112650490Y-90846534D01*
X112650490Y-91053466D01*
X112610121Y-91256416D01*
X112530933Y-91447592D01*
X112530932Y-91447594D01*
X112415969Y-91619648D01*
X112269648Y-91765969D01*
X112097594Y-91880932D01*
X112097593Y-91880933D01*
X112097592Y-91880933D01*
X111906416Y-91960121D01*
X111703466Y-92000490D01*
X111496534Y-92000490D01*
X111293584Y-91960121D01*
X111102408Y-91880933D01*
X111102407Y-91880933D01*
X111102406Y-91880932D01*
X110930352Y-91765969D01*
X110784031Y-91619648D01*
X110669068Y-91447594D01*
X110669067Y-91447592D01*
X110589879Y-91256416D01*
X110549510Y-91053466D01*
X110549510Y-90846534D01*
X110589879Y-90643584D01*
X110669067Y-90452408D01*
X110736826Y-90351000D01*
X110784031Y-90280352D01*
X110930352Y-90134031D01*
X111102406Y-90019068D01*
X111102408Y-90019067D01*
X111293584Y-89939879D01*
X111496534Y-89899510D01*
X111703466Y-89899510D01*
X111906416Y-89939879D01*
X111906416Y-89939879D01*
G37*
G36*
X196224549Y-88071116D02*
G01*
X196335734Y-88093232D01*
X196545203Y-88179997D01*
X196733720Y-88305960D01*
X196894040Y-88466280D01*
X197020003Y-88654797D01*
X197106768Y-88864266D01*
X197125127Y-88956564D01*
X197151000Y-89086635D01*
X197151000Y-89313365D01*
X197128884Y-89424549D01*
X197106768Y-89535734D01*
X197020003Y-89745203D01*
X196894040Y-89933720D01*
X196733720Y-90094040D01*
X196545203Y-90220003D01*
X196335734Y-90306768D01*
X196224549Y-90328884D01*
X196113365Y-90351000D01*
X195886635Y-90351000D01*
X195775451Y-90328884D01*
X195664266Y-90306768D01*
X195454797Y-90220003D01*
X195266280Y-90094040D01*
X195105960Y-89933720D01*
X194979997Y-89745203D01*
X194893232Y-89535734D01*
X194871116Y-89424549D01*
X194849000Y-89313365D01*
X194849000Y-89086635D01*
X194874873Y-88956564D01*
X194893232Y-88864266D01*
X194979997Y-88654797D01*
X195105960Y-88466280D01*
X195266280Y-88305960D01*
X195454797Y-88179997D01*
X195664266Y-88093232D01*
X195775451Y-88071116D01*
X195886635Y-88049000D01*
X196113365Y-88049000D01*
X196224549Y-88071116D01*
X196224549Y-88071116D01*
G37*
G36*
X122096564Y-87639389D02*
G01*
X122287833Y-87718615D01*
X122287835Y-87718616D01*
X122339182Y-87752925D01*
X122459973Y-87833635D01*
X122606365Y-87980027D01*
X122721385Y-88152167D01*
X122800611Y-88343436D01*
X122841000Y-88546484D01*
X122841000Y-88753516D01*
X122800611Y-88956564D01*
X122740784Y-89101000D01*
X122721384Y-89147835D01*
X122606365Y-89319973D01*
X122459973Y-89466365D01*
X122287835Y-89581384D01*
X122287834Y-89581385D01*
X122287833Y-89581385D01*
X122096564Y-89660611D01*
X121893516Y-89701000D01*
X121686484Y-89701000D01*
X121483436Y-89660611D01*
X121292167Y-89581385D01*
X121292166Y-89581385D01*
X121292165Y-89581384D01*
X121120027Y-89466365D01*
X120973635Y-89319973D01*
X120858616Y-89147835D01*
X120839216Y-89101000D01*
X120779389Y-88956564D01*
X120739000Y-88753516D01*
X120739000Y-88546484D01*
X120779389Y-88343436D01*
X120858615Y-88152167D01*
X120973635Y-87980027D01*
X121120027Y-87833635D01*
X121240818Y-87752925D01*
X121292165Y-87718616D01*
X121292167Y-87718615D01*
X121483436Y-87639389D01*
X121686484Y-87599000D01*
X121893516Y-87599000D01*
X122096564Y-87639389D01*
X122096564Y-87639389D01*
G37*
G36*
X116496564Y-87039389D02*
G01*
X116687833Y-87118615D01*
X116687835Y-87118616D01*
X116859973Y-87233635D01*
X117006365Y-87380027D01*
X117101039Y-87521716D01*
X117121385Y-87552167D01*
X117200611Y-87743436D01*
X117241000Y-87946484D01*
X117241000Y-88153516D01*
X117200611Y-88356564D01*
X117155165Y-88466280D01*
X117121384Y-88547835D01*
X117006365Y-88719973D01*
X116859973Y-88866365D01*
X116687835Y-88981384D01*
X116687834Y-88981385D01*
X116687833Y-88981385D01*
X116496564Y-89060611D01*
X116293516Y-89101000D01*
X116086484Y-89101000D01*
X115883436Y-89060611D01*
X115692167Y-88981385D01*
X115692166Y-88981385D01*
X115692165Y-88981384D01*
X115520027Y-88866365D01*
X115373635Y-88719973D01*
X115258616Y-88547835D01*
X115224835Y-88466280D01*
X115179389Y-88356564D01*
X115139000Y-88153516D01*
X115139000Y-87946484D01*
X115179389Y-87743436D01*
X115258615Y-87552167D01*
X115278962Y-87521716D01*
X115373635Y-87380027D01*
X115520027Y-87233635D01*
X115692165Y-87118616D01*
X115692167Y-87118615D01*
X115883436Y-87039389D01*
X116086484Y-86999000D01*
X116293516Y-86999000D01*
X116496564Y-87039389D01*
X116496564Y-87039389D01*
G37*
G36*
X171254903Y-85347075D02*
G01*
X171482571Y-85441378D01*
X171687466Y-85578285D01*
X171861715Y-85752534D01*
X171861716Y-85752536D01*
X171998623Y-85957431D01*
X172092925Y-86185097D01*
X172141000Y-86426786D01*
X172141000Y-86673214D01*
X172092925Y-86914903D01*
X172008545Y-87118616D01*
X171998622Y-87142571D01*
X171861715Y-87347466D01*
X171687466Y-87521715D01*
X171482571Y-87658622D01*
X171482570Y-87658623D01*
X171482569Y-87658623D01*
X171254903Y-87752925D01*
X171013214Y-87801000D01*
X170766786Y-87801000D01*
X170525097Y-87752925D01*
X170297431Y-87658623D01*
X170297430Y-87658623D01*
X170297429Y-87658622D01*
X170092534Y-87521715D01*
X169918285Y-87347466D01*
X169781378Y-87142571D01*
X169771456Y-87118616D01*
X169687075Y-86914903D01*
X169639000Y-86673214D01*
X169639000Y-86426786D01*
X169687075Y-86185097D01*
X169781377Y-85957431D01*
X169918284Y-85752536D01*
X169918285Y-85752534D01*
X170092534Y-85578285D01*
X170297429Y-85441378D01*
X170525097Y-85347075D01*
X170766786Y-85299000D01*
X171013214Y-85299000D01*
X171254903Y-85347075D01*
X171254903Y-85347075D01*
G37*
G36*
X147641000Y-87801000D02*
G01*
X145139000Y-87801000D01*
X145139000Y-85299000D01*
X147641000Y-85299000D01*
X147641000Y-87801000D01*
X147641000Y-87801000D01*
G37*
G36*
X154254903Y-85347075D02*
G01*
X154482571Y-85441378D01*
X154687466Y-85578285D01*
X154861715Y-85752534D01*
X154861716Y-85752536D01*
X154998623Y-85957431D01*
X155092925Y-86185097D01*
X155141000Y-86426786D01*
X155141000Y-86673214D01*
X155092925Y-86914903D01*
X155008545Y-87118616D01*
X154998622Y-87142571D01*
X154861715Y-87347466D01*
X154687466Y-87521715D01*
X154482571Y-87658622D01*
X154482570Y-87658623D01*
X154482569Y-87658623D01*
X154254903Y-87752925D01*
X154013214Y-87801000D01*
X153766786Y-87801000D01*
X153525097Y-87752925D01*
X153297431Y-87658623D01*
X153297430Y-87658623D01*
X153297429Y-87658622D01*
X153092534Y-87521715D01*
X152918285Y-87347466D01*
X152781378Y-87142571D01*
X152771456Y-87118616D01*
X152687075Y-86914903D01*
X152639000Y-86673214D01*
X152639000Y-86426786D01*
X152687075Y-86185097D01*
X152781377Y-85957431D01*
X152918284Y-85752536D01*
X152918285Y-85752534D01*
X153092534Y-85578285D01*
X153297429Y-85441378D01*
X153525097Y-85347075D01*
X153766786Y-85299000D01*
X154013214Y-85299000D01*
X154254903Y-85347075D01*
X154254903Y-85347075D01*
G37*
G36*
X130641000Y-87801000D02*
G01*
X128139000Y-87801000D01*
X128139000Y-85299000D01*
X130641000Y-85299000D01*
X130641000Y-87801000D01*
X130641000Y-87801000D01*
G37*
G36*
X181641000Y-87801000D02*
G01*
X179139000Y-87801000D01*
X179139000Y-85299000D01*
X181641000Y-85299000D01*
X181641000Y-87801000D01*
X181641000Y-87801000D01*
G37*
G36*
X137254903Y-85347075D02*
G01*
X137482571Y-85441378D01*
X137687466Y-85578285D01*
X137861715Y-85752534D01*
X137861716Y-85752536D01*
X137998623Y-85957431D01*
X138092925Y-86185097D01*
X138141000Y-86426786D01*
X138141000Y-86673214D01*
X138092925Y-86914903D01*
X138008545Y-87118616D01*
X137998622Y-87142571D01*
X137861715Y-87347466D01*
X137687466Y-87521715D01*
X137482571Y-87658622D01*
X137482570Y-87658623D01*
X137482569Y-87658623D01*
X137254903Y-87752925D01*
X137013214Y-87801000D01*
X136766786Y-87801000D01*
X136525097Y-87752925D01*
X136297431Y-87658623D01*
X136297430Y-87658623D01*
X136297429Y-87658622D01*
X136092534Y-87521715D01*
X135918285Y-87347466D01*
X135781378Y-87142571D01*
X135771456Y-87118616D01*
X135687075Y-86914903D01*
X135639000Y-86673214D01*
X135639000Y-86426786D01*
X135687075Y-86185097D01*
X135781377Y-85957431D01*
X135918284Y-85752536D01*
X135918285Y-85752534D01*
X136092534Y-85578285D01*
X136297429Y-85441378D01*
X136525097Y-85347075D01*
X136766786Y-85299000D01*
X137013214Y-85299000D01*
X137254903Y-85347075D01*
X137254903Y-85347075D01*
G37*
G36*
X188254903Y-85347075D02*
G01*
X188482571Y-85441378D01*
X188687466Y-85578285D01*
X188861715Y-85752534D01*
X188861716Y-85752536D01*
X188998623Y-85957431D01*
X189092925Y-86185097D01*
X189141000Y-86426786D01*
X189141000Y-86673214D01*
X189092925Y-86914903D01*
X189008545Y-87118616D01*
X188998622Y-87142571D01*
X188861715Y-87347466D01*
X188687466Y-87521715D01*
X188482571Y-87658622D01*
X188482570Y-87658623D01*
X188482569Y-87658623D01*
X188254903Y-87752925D01*
X188013214Y-87801000D01*
X187766786Y-87801000D01*
X187525097Y-87752925D01*
X187297431Y-87658623D01*
X187297430Y-87658623D01*
X187297429Y-87658622D01*
X187092534Y-87521715D01*
X186918285Y-87347466D01*
X186781378Y-87142571D01*
X186771456Y-87118616D01*
X186687075Y-86914903D01*
X186639000Y-86673214D01*
X186639000Y-86426786D01*
X186687075Y-86185097D01*
X186781377Y-85957431D01*
X186918284Y-85752536D01*
X186918285Y-85752534D01*
X187092534Y-85578285D01*
X187297429Y-85441378D01*
X187525097Y-85347075D01*
X187766786Y-85299000D01*
X188013214Y-85299000D01*
X188254903Y-85347075D01*
X188254903Y-85347075D01*
G37*
G36*
X164641000Y-87801000D02*
G01*
X162139000Y-87801000D01*
X162139000Y-85299000D01*
X164641000Y-85299000D01*
X164641000Y-87801000D01*
X164641000Y-87801000D01*
G37*
G36*
X112841000Y-85101000D02*
G01*
X110539000Y-85101000D01*
X110539000Y-82799000D01*
X112841000Y-82799000D01*
X112841000Y-85101000D01*
X112841000Y-85101000D01*
G37*
G36*
X116496564Y-79539389D02*
G01*
X116634529Y-79596536D01*
X116687835Y-79618616D01*
X116750683Y-79660610D01*
X116859973Y-79733635D01*
X117006365Y-79880027D01*
X117121385Y-80052167D01*
X117200611Y-80243436D01*
X117241000Y-80446484D01*
X117241000Y-80653516D01*
X117200611Y-80856564D01*
X117121385Y-81047833D01*
X117121384Y-81047835D01*
X117006365Y-81219973D01*
X116859973Y-81366365D01*
X116687835Y-81481384D01*
X116687834Y-81481385D01*
X116687833Y-81481385D01*
X116496564Y-81560611D01*
X116293516Y-81601000D01*
X116086484Y-81601000D01*
X115883436Y-81560611D01*
X115692167Y-81481385D01*
X115692166Y-81481385D01*
X115692165Y-81481384D01*
X115520027Y-81366365D01*
X115373635Y-81219973D01*
X115258616Y-81047835D01*
X115258615Y-81047833D01*
X115179389Y-80856564D01*
X115139000Y-80653516D01*
X115139000Y-80446484D01*
X115179389Y-80243436D01*
X115258615Y-80052167D01*
X115373635Y-79880027D01*
X115520027Y-79733635D01*
X115629317Y-79660610D01*
X115692165Y-79618616D01*
X115745471Y-79596536D01*
X115883436Y-79539389D01*
X116086484Y-79499000D01*
X116293516Y-79499000D01*
X116496564Y-79539389D01*
X116496564Y-79539389D01*
G37*
G36*
X196506416Y-78689879D02*
G01*
X196697592Y-78769067D01*
X196697594Y-78769068D01*
X196869648Y-78884031D01*
X197015969Y-79030352D01*
X197130933Y-79202408D01*
X197210121Y-79393584D01*
X197250490Y-79596534D01*
X197250490Y-79803466D01*
X197210121Y-80006416D01*
X197191171Y-80052165D01*
X197130932Y-80197594D01*
X197015969Y-80369648D01*
X196869648Y-80515969D01*
X196697594Y-80630932D01*
X196697593Y-80630933D01*
X196697592Y-80630933D01*
X196506416Y-80710121D01*
X196303466Y-80750490D01*
X196096534Y-80750490D01*
X195893584Y-80710121D01*
X195702408Y-80630933D01*
X195702407Y-80630933D01*
X195702406Y-80630932D01*
X195530352Y-80515969D01*
X195384031Y-80369648D01*
X195269068Y-80197594D01*
X195208829Y-80052165D01*
X195189879Y-80006416D01*
X195149510Y-79803466D01*
X195149510Y-79596534D01*
X195189879Y-79393584D01*
X195269067Y-79202408D01*
X195384031Y-79030352D01*
X195530352Y-78884031D01*
X195702406Y-78769068D01*
X195702408Y-78769067D01*
X195893584Y-78689879D01*
X196096534Y-78649510D01*
X196303466Y-78649510D01*
X196506416Y-78689879D01*
X196506416Y-78689879D01*
G37*
G36*
X122096564Y-77639389D02*
G01*
X122287833Y-77718615D01*
X122287835Y-77718616D01*
X122459973Y-77833635D01*
X122606365Y-77980027D01*
X122721385Y-78152167D01*
X122800611Y-78343436D01*
X122841000Y-78546484D01*
X122841000Y-78753516D01*
X122800611Y-78956564D01*
X122770047Y-79030352D01*
X122721384Y-79147835D01*
X122606365Y-79319973D01*
X122459973Y-79466365D01*
X122287835Y-79581384D01*
X122287834Y-79581385D01*
X122287833Y-79581385D01*
X122096564Y-79660611D01*
X121893516Y-79701000D01*
X121686484Y-79701000D01*
X121483436Y-79660611D01*
X121292167Y-79581385D01*
X121292166Y-79581385D01*
X121292165Y-79581384D01*
X121120027Y-79466365D01*
X120973635Y-79319973D01*
X120858616Y-79147835D01*
X120809953Y-79030352D01*
X120779389Y-78956564D01*
X120739000Y-78753516D01*
X120739000Y-78546484D01*
X120779389Y-78343436D01*
X120858615Y-78152167D01*
X120973635Y-77980027D01*
X121120027Y-77833635D01*
X121292165Y-77718616D01*
X121292167Y-77718615D01*
X121483436Y-77639389D01*
X121686484Y-77599000D01*
X121893516Y-77599000D01*
X122096564Y-77639389D01*
X122096564Y-77639389D01*
G37*
G36*
X111859271Y-75190103D02*
G01*
X111915635Y-75195654D01*
X112132600Y-75261470D01*
X112132602Y-75261471D01*
X112332555Y-75368347D01*
X112507818Y-75512182D01*
X112651653Y-75687445D01*
X112731477Y-75836787D01*
X112758530Y-75887400D01*
X112824346Y-76104365D01*
X112846569Y-76330000D01*
X112824346Y-76555635D01*
X112763121Y-76757466D01*
X112758529Y-76772602D01*
X112651653Y-76972555D01*
X112507818Y-77147818D01*
X112332555Y-77291653D01*
X112132602Y-77398529D01*
X112132600Y-77398530D01*
X111915635Y-77464346D01*
X111859271Y-77469897D01*
X111746545Y-77481000D01*
X111633455Y-77481000D01*
X111520729Y-77469897D01*
X111464365Y-77464346D01*
X111247400Y-77398530D01*
X111247398Y-77398529D01*
X111047445Y-77291653D01*
X110872182Y-77147818D01*
X110728347Y-76972555D01*
X110621471Y-76772602D01*
X110616880Y-76757466D01*
X110555654Y-76555635D01*
X110533431Y-76330000D01*
X110555654Y-76104365D01*
X110621470Y-75887400D01*
X110648523Y-75836787D01*
X110728347Y-75687445D01*
X110872182Y-75512182D01*
X111047445Y-75368347D01*
X111247398Y-75261471D01*
X111247400Y-75261470D01*
X111464365Y-75195654D01*
X111520729Y-75190103D01*
X111633455Y-75179000D01*
X111746545Y-75179000D01*
X111859271Y-75190103D01*
X111859271Y-75190103D01*
G37*
G36*
X181514903Y-74827075D02*
G01*
X181697083Y-74902536D01*
X181742571Y-74921378D01*
X181947466Y-75058285D01*
X182121715Y-75232534D01*
X182243477Y-75414763D01*
X182258623Y-75437431D01*
X182352925Y-75665097D01*
X182401000Y-75906786D01*
X182401000Y-76153214D01*
X182352925Y-76394903D01*
X182289150Y-76548871D01*
X182258622Y-76622571D01*
X182121715Y-76827466D01*
X181947466Y-77001715D01*
X181742571Y-77138622D01*
X181742570Y-77138623D01*
X181742569Y-77138623D01*
X181514903Y-77232925D01*
X181273214Y-77281000D01*
X181026786Y-77281000D01*
X180785097Y-77232925D01*
X180557431Y-77138623D01*
X180557430Y-77138623D01*
X180557429Y-77138622D01*
X180352534Y-77001715D01*
X180178285Y-76827466D01*
X180041378Y-76622571D01*
X180010851Y-76548871D01*
X179947075Y-76394903D01*
X179899000Y-76153214D01*
X179899000Y-75906786D01*
X179947075Y-75665097D01*
X180041377Y-75437431D01*
X180056523Y-75414763D01*
X180178285Y-75232534D01*
X180352534Y-75058285D01*
X180557429Y-74921378D01*
X180602918Y-74902536D01*
X180785097Y-74827075D01*
X181026786Y-74779000D01*
X181273214Y-74779000D01*
X181514903Y-74827075D01*
X181514903Y-74827075D01*
G37*
G36*
X196635239Y-74797101D02*
G01*
X196871053Y-74868634D01*
X197088381Y-74984799D01*
X197278871Y-75141129D01*
X197435201Y-75331619D01*
X197551366Y-75548947D01*
X197622899Y-75784761D01*
X197647053Y-76030000D01*
X197622899Y-76275239D01*
X197551366Y-76511053D01*
X197435201Y-76728381D01*
X197278871Y-76918871D01*
X197088381Y-77075201D01*
X196871053Y-77191366D01*
X196635239Y-77262899D01*
X196451457Y-77281000D01*
X196328543Y-77281000D01*
X196144761Y-77262899D01*
X195908947Y-77191366D01*
X195691619Y-77075201D01*
X195501129Y-76918871D01*
X195344799Y-76728381D01*
X195228634Y-76511053D01*
X195157101Y-76275239D01*
X195132947Y-76030000D01*
X195157101Y-75784761D01*
X195228634Y-75548947D01*
X195344799Y-75331619D01*
X195501129Y-75141129D01*
X195691619Y-74984799D01*
X195908947Y-74868634D01*
X196144761Y-74797101D01*
X196328543Y-74779000D01*
X196451457Y-74779000D01*
X196635239Y-74797101D01*
X196635239Y-74797101D01*
G37*
G36*
X144944903Y-74757075D02*
G01*
X145153753Y-74843583D01*
X145172571Y-74851378D01*
X145377466Y-74988285D01*
X145551715Y-75162534D01*
X145617922Y-75261620D01*
X145688623Y-75367431D01*
X145782925Y-75595097D01*
X145831000Y-75836786D01*
X145831000Y-76083214D01*
X145819495Y-76141053D01*
X145782925Y-76324903D01*
X145688622Y-76552571D01*
X145551715Y-76757466D01*
X145377466Y-76931715D01*
X145172571Y-77068622D01*
X145172570Y-77068623D01*
X145172569Y-77068623D01*
X144944903Y-77162925D01*
X144703214Y-77211000D01*
X144456786Y-77211000D01*
X144215097Y-77162925D01*
X143987431Y-77068623D01*
X143987430Y-77068623D01*
X143987429Y-77068622D01*
X143782534Y-76931715D01*
X143608285Y-76757466D01*
X143471378Y-76552571D01*
X143377075Y-76324903D01*
X143340505Y-76141053D01*
X143329000Y-76083214D01*
X143329000Y-75836786D01*
X143377075Y-75595097D01*
X143471377Y-75367431D01*
X143542078Y-75261620D01*
X143608285Y-75162534D01*
X143782534Y-74988285D01*
X143987429Y-74851378D01*
X144006248Y-74843583D01*
X144215097Y-74757075D01*
X144456786Y-74709000D01*
X144703214Y-74709000D01*
X144944903Y-74757075D01*
X144944903Y-74757075D01*
G37*
G36*
X141705239Y-74727101D02*
G01*
X141941053Y-74798634D01*
X142158381Y-74914799D01*
X142348871Y-75071129D01*
X142505201Y-75261619D01*
X142621366Y-75478947D01*
X142692899Y-75714761D01*
X142717053Y-75960000D01*
X142692899Y-76205239D01*
X142621366Y-76441053D01*
X142505201Y-76658381D01*
X142348871Y-76848871D01*
X142158381Y-77005201D01*
X141941053Y-77121366D01*
X141705239Y-77192899D01*
X141521457Y-77211000D01*
X141398543Y-77211000D01*
X141214761Y-77192899D01*
X140978947Y-77121366D01*
X140761619Y-77005201D01*
X140571129Y-76848871D01*
X140414799Y-76658381D01*
X140298634Y-76441053D01*
X140227101Y-76205239D01*
X140202947Y-75960000D01*
X140227101Y-75714761D01*
X140298634Y-75478947D01*
X140414799Y-75261619D01*
X140571129Y-75071129D01*
X140761619Y-74914799D01*
X140978947Y-74798634D01*
X141214761Y-74727101D01*
X141398543Y-74709000D01*
X141521457Y-74709000D01*
X141705239Y-74727101D01*
X141705239Y-74727101D01*
G37*
G36*
X126584903Y-74757075D02*
G01*
X126793753Y-74843583D01*
X126812571Y-74851378D01*
X127017466Y-74988285D01*
X127191715Y-75162534D01*
X127257922Y-75261620D01*
X127328623Y-75367431D01*
X127422925Y-75595097D01*
X127471000Y-75836786D01*
X127471000Y-76083214D01*
X127459495Y-76141053D01*
X127422925Y-76324903D01*
X127328622Y-76552571D01*
X127191715Y-76757466D01*
X127017466Y-76931715D01*
X126812571Y-77068622D01*
X126812570Y-77068623D01*
X126812569Y-77068623D01*
X126584903Y-77162925D01*
X126343214Y-77211000D01*
X126096786Y-77211000D01*
X125855097Y-77162925D01*
X125627431Y-77068623D01*
X125627430Y-77068623D01*
X125627429Y-77068622D01*
X125422534Y-76931715D01*
X125248285Y-76757466D01*
X125111378Y-76552571D01*
X125017075Y-76324903D01*
X124980505Y-76141053D01*
X124969000Y-76083214D01*
X124969000Y-75836786D01*
X125017075Y-75595097D01*
X125111377Y-75367431D01*
X125182078Y-75261620D01*
X125248285Y-75162534D01*
X125422534Y-74988285D01*
X125627429Y-74851378D01*
X125646248Y-74843583D01*
X125855097Y-74757075D01*
X126096786Y-74709000D01*
X126343214Y-74709000D01*
X126584903Y-74757075D01*
X126584903Y-74757075D01*
G37*
G36*
X160065239Y-74727101D02*
G01*
X160301053Y-74798634D01*
X160518381Y-74914799D01*
X160708871Y-75071129D01*
X160865201Y-75261619D01*
X160981366Y-75478947D01*
X161052899Y-75714761D01*
X161077053Y-75960000D01*
X161052899Y-76205239D01*
X160981366Y-76441053D01*
X160865201Y-76658381D01*
X160708871Y-76848871D01*
X160518381Y-77005201D01*
X160301053Y-77121366D01*
X160065239Y-77192899D01*
X159881457Y-77211000D01*
X159758543Y-77211000D01*
X159574761Y-77192899D01*
X159338947Y-77121366D01*
X159121619Y-77005201D01*
X158931129Y-76848871D01*
X158774799Y-76658381D01*
X158658634Y-76441053D01*
X158587101Y-76205239D01*
X158562947Y-75960000D01*
X158587101Y-75714761D01*
X158658634Y-75478947D01*
X158774799Y-75261619D01*
X158931129Y-75071129D01*
X159121619Y-74914799D01*
X159338947Y-74798634D01*
X159574761Y-74727101D01*
X159758543Y-74709000D01*
X159881457Y-74709000D01*
X160065239Y-74727101D01*
X160065239Y-74727101D01*
G37*
G36*
X163294903Y-74757075D02*
G01*
X163503753Y-74843583D01*
X163522571Y-74851378D01*
X163727466Y-74988285D01*
X163901715Y-75162534D01*
X163967922Y-75261620D01*
X164038623Y-75367431D01*
X164132925Y-75595097D01*
X164181000Y-75836786D01*
X164181000Y-76083214D01*
X164169495Y-76141053D01*
X164132925Y-76324903D01*
X164038622Y-76552571D01*
X163901715Y-76757466D01*
X163727466Y-76931715D01*
X163522571Y-77068622D01*
X163522570Y-77068623D01*
X163522569Y-77068623D01*
X163294903Y-77162925D01*
X163053214Y-77211000D01*
X162806786Y-77211000D01*
X162565097Y-77162925D01*
X162337431Y-77068623D01*
X162337430Y-77068623D01*
X162337429Y-77068622D01*
X162132534Y-76931715D01*
X161958285Y-76757466D01*
X161821378Y-76552571D01*
X161727075Y-76324903D01*
X161690505Y-76141053D01*
X161679000Y-76083214D01*
X161679000Y-75836786D01*
X161727075Y-75595097D01*
X161821377Y-75367431D01*
X161892078Y-75261620D01*
X161958285Y-75162534D01*
X162132534Y-74988285D01*
X162337429Y-74851378D01*
X162356248Y-74843583D01*
X162565097Y-74757075D01*
X162806786Y-74709000D01*
X163053214Y-74709000D01*
X163294903Y-74757075D01*
X163294903Y-74757075D01*
G37*
G36*
X178415239Y-74727101D02*
G01*
X178651053Y-74798634D01*
X178868381Y-74914799D01*
X179058871Y-75071129D01*
X179215201Y-75261619D01*
X179331366Y-75478947D01*
X179402899Y-75714761D01*
X179427053Y-75960000D01*
X179402899Y-76205239D01*
X179331366Y-76441053D01*
X179215201Y-76658381D01*
X179058871Y-76848871D01*
X178868381Y-77005201D01*
X178651053Y-77121366D01*
X178415239Y-77192899D01*
X178231457Y-77211000D01*
X178108543Y-77211000D01*
X177924761Y-77192899D01*
X177688947Y-77121366D01*
X177471619Y-77005201D01*
X177281129Y-76848871D01*
X177124799Y-76658381D01*
X177008634Y-76441053D01*
X176937101Y-76205239D01*
X176912947Y-75960000D01*
X176937101Y-75714761D01*
X177008634Y-75478947D01*
X177124799Y-75261619D01*
X177281129Y-75071129D01*
X177471619Y-74914799D01*
X177688947Y-74798634D01*
X177924761Y-74727101D01*
X178108543Y-74709000D01*
X178231457Y-74709000D01*
X178415239Y-74727101D01*
X178415239Y-74727101D01*
G37*
G36*
X108180831Y-74480352D02*
G01*
X108264903Y-74497075D01*
X108492571Y-74591378D01*
X108697466Y-74728285D01*
X108871715Y-74902534D01*
X109008622Y-75107429D01*
X109008623Y-75107431D01*
X109102925Y-75335097D01*
X109151000Y-75576786D01*
X109151000Y-75823214D01*
X109102925Y-76064903D01*
X109063485Y-76160121D01*
X109008622Y-76292571D01*
X108871715Y-76497466D01*
X108697466Y-76671715D01*
X108492571Y-76808622D01*
X108492570Y-76808623D01*
X108492569Y-76808623D01*
X108264903Y-76902925D01*
X108023214Y-76951000D01*
X107776786Y-76951000D01*
X107535097Y-76902925D01*
X107307431Y-76808623D01*
X107307430Y-76808623D01*
X107307429Y-76808622D01*
X107102534Y-76671715D01*
X106928285Y-76497466D01*
X106791378Y-76292571D01*
X106736516Y-76160121D01*
X106697075Y-76064903D01*
X106649000Y-75823214D01*
X106649000Y-75576786D01*
X106697075Y-75335097D01*
X106791377Y-75107431D01*
X106791378Y-75107429D01*
X106928285Y-74902534D01*
X107102534Y-74728285D01*
X107307429Y-74591378D01*
X107535097Y-74497075D01*
X107619169Y-74480352D01*
X107776786Y-74449000D01*
X108023214Y-74449000D01*
X108180831Y-74480352D01*
X108180831Y-74480352D01*
G37*
G36*
X103935239Y-74427101D02*
G01*
X104171053Y-74498634D01*
X104388381Y-74614799D01*
X104578871Y-74771129D01*
X104735201Y-74961619D01*
X104851366Y-75178947D01*
X104922899Y-75414761D01*
X104947053Y-75660000D01*
X104922899Y-75905239D01*
X104851366Y-76141053D01*
X104735201Y-76358381D01*
X104578871Y-76548871D01*
X104388381Y-76705201D01*
X104171053Y-76821366D01*
X103935239Y-76892899D01*
X103751457Y-76911000D01*
X103628543Y-76911000D01*
X103444761Y-76892899D01*
X103208947Y-76821366D01*
X102991619Y-76705201D01*
X102801129Y-76548871D01*
X102644799Y-76358381D01*
X102528634Y-76141053D01*
X102457101Y-75905239D01*
X102432947Y-75660000D01*
X102457101Y-75414761D01*
X102528634Y-75178947D01*
X102644799Y-74961619D01*
X102801129Y-74771129D01*
X102991619Y-74614799D01*
X103208947Y-74498634D01*
X103444761Y-74427101D01*
X103628543Y-74409000D01*
X103751457Y-74409000D01*
X103935239Y-74427101D01*
X103935239Y-74427101D01*
G37*
G36*
X121196416Y-74139879D02*
G01*
X121387592Y-74219067D01*
X121387594Y-74219068D01*
X121559648Y-74334031D01*
X121705969Y-74480352D01*
X121786584Y-74601000D01*
X121820933Y-74652408D01*
X121900121Y-74843584D01*
X121940490Y-75046534D01*
X121940490Y-75253466D01*
X121900121Y-75456416D01*
X121842677Y-75595097D01*
X121820932Y-75647594D01*
X121705969Y-75819648D01*
X121559648Y-75965969D01*
X121387594Y-76080932D01*
X121387593Y-76080933D01*
X121387592Y-76080933D01*
X121196416Y-76160121D01*
X120993466Y-76200490D01*
X120786534Y-76200490D01*
X120583584Y-76160121D01*
X120392408Y-76080933D01*
X120392407Y-76080933D01*
X120392406Y-76080932D01*
X120220352Y-75965969D01*
X120074031Y-75819648D01*
X119959068Y-75647594D01*
X119937323Y-75595097D01*
X119879879Y-75456416D01*
X119839510Y-75253466D01*
X119839510Y-75046534D01*
X119879879Y-74843584D01*
X119959067Y-74652408D01*
X119993417Y-74601000D01*
X120074031Y-74480352D01*
X120220352Y-74334031D01*
X120392406Y-74219068D01*
X120392408Y-74219067D01*
X120583584Y-74139879D01*
X120786534Y-74099510D01*
X120993466Y-74099510D01*
X121196416Y-74139879D01*
X121196416Y-74139879D01*
G37*
G36*
X112841000Y-74601000D02*
G01*
X110539000Y-74601000D01*
X110539000Y-72299000D01*
X112841000Y-72299000D01*
X112841000Y-74601000D01*
X112841000Y-74601000D01*
G37*
G36*
X108806416Y-71589879D02*
G01*
X108997592Y-71669067D01*
X108997594Y-71669068D01*
X109128541Y-71756564D01*
X109169648Y-71784031D01*
X109315969Y-71930352D01*
X109430933Y-72102408D01*
X109510121Y-72293584D01*
X109550490Y-72496534D01*
X109550490Y-72703466D01*
X109510121Y-72906416D01*
X109483929Y-72969648D01*
X109430932Y-73097594D01*
X109315969Y-73269648D01*
X109169648Y-73415969D01*
X108997594Y-73530932D01*
X108997593Y-73530933D01*
X108997592Y-73530933D01*
X108806416Y-73610121D01*
X108603466Y-73650490D01*
X108396534Y-73650490D01*
X108193584Y-73610121D01*
X108002408Y-73530933D01*
X108002407Y-73530933D01*
X108002406Y-73530932D01*
X107830352Y-73415969D01*
X107684031Y-73269648D01*
X107569068Y-73097594D01*
X107516071Y-72969648D01*
X107489879Y-72906416D01*
X107449510Y-72703466D01*
X107449510Y-72496534D01*
X107489879Y-72293584D01*
X107569067Y-72102408D01*
X107684031Y-71930352D01*
X107830352Y-71784031D01*
X107871459Y-71756564D01*
X108002406Y-71669068D01*
X108002408Y-71669067D01*
X108193584Y-71589879D01*
X108396534Y-71549510D01*
X108603466Y-71549510D01*
X108806416Y-71589879D01*
X108806416Y-71589879D01*
G37*
G36*
X196606416Y-71289879D02*
G01*
X196797592Y-71369067D01*
X196797594Y-71369068D01*
X196969648Y-71484031D01*
X197115969Y-71630352D01*
X197230933Y-71802408D01*
X197310121Y-71993584D01*
X197350490Y-72196534D01*
X197350490Y-72403466D01*
X197310121Y-72606416D01*
X197269922Y-72703464D01*
X197230932Y-72797594D01*
X197115969Y-72969648D01*
X196969648Y-73115969D01*
X196797594Y-73230932D01*
X196797593Y-73230933D01*
X196797592Y-73230933D01*
X196606416Y-73310121D01*
X196403466Y-73350490D01*
X196196534Y-73350490D01*
X195993584Y-73310121D01*
X195802408Y-73230933D01*
X195802407Y-73230933D01*
X195802406Y-73230932D01*
X195630352Y-73115969D01*
X195484031Y-72969648D01*
X195369068Y-72797594D01*
X195330078Y-72703464D01*
X195289879Y-72606416D01*
X195249510Y-72403466D01*
X195249510Y-72196534D01*
X195289879Y-71993584D01*
X195369067Y-71802408D01*
X195484031Y-71630352D01*
X195630352Y-71484031D01*
X195802406Y-71369068D01*
X195802408Y-71369067D01*
X195993584Y-71289879D01*
X196196534Y-71249510D01*
X196403466Y-71249510D01*
X196606416Y-71289879D01*
X196606416Y-71289879D01*
G37*
G36*
X122096564Y-70439389D02*
G01*
X122287833Y-70518615D01*
X122287835Y-70518616D01*
X122459973Y-70633635D01*
X122606365Y-70780027D01*
X122721385Y-70952167D01*
X122800611Y-71143436D01*
X122841000Y-71346484D01*
X122841000Y-71553516D01*
X122800611Y-71756564D01*
X122728626Y-71930352D01*
X122721384Y-71947835D01*
X122606365Y-72119973D01*
X122459973Y-72266365D01*
X122287835Y-72381384D01*
X122287834Y-72381385D01*
X122287833Y-72381385D01*
X122096564Y-72460611D01*
X121893516Y-72501000D01*
X121686484Y-72501000D01*
X121483436Y-72460611D01*
X121292167Y-72381385D01*
X121292166Y-72381385D01*
X121292165Y-72381384D01*
X121120027Y-72266365D01*
X120973635Y-72119973D01*
X120858616Y-71947835D01*
X120851374Y-71930352D01*
X120779389Y-71756564D01*
X120739000Y-71553516D01*
X120739000Y-71346484D01*
X120779389Y-71143436D01*
X120858615Y-70952167D01*
X120973635Y-70780027D01*
X121120027Y-70633635D01*
X121292165Y-70518616D01*
X121292167Y-70518615D01*
X121483436Y-70439389D01*
X121686484Y-70399000D01*
X121893516Y-70399000D01*
X122096564Y-70439389D01*
X122096564Y-70439389D01*
G37*
G36*
X117538228Y-67431703D02*
G01*
X117693100Y-67495853D01*
X117832481Y-67588985D01*
X117951015Y-67707519D01*
X118044147Y-67846900D01*
X118108297Y-68001772D01*
X118141000Y-68166184D01*
X118141000Y-68333816D01*
X118108297Y-68498228D01*
X118044147Y-68653100D01*
X117951015Y-68792481D01*
X117832481Y-68911015D01*
X117693100Y-69004147D01*
X117538228Y-69068297D01*
X117373816Y-69101000D01*
X117206184Y-69101000D01*
X117041772Y-69068297D01*
X116886900Y-69004147D01*
X116747519Y-68911015D01*
X116628985Y-68792481D01*
X116535853Y-68653100D01*
X116471703Y-68498228D01*
X116439000Y-68333816D01*
X116439000Y-68166184D01*
X116471703Y-68001772D01*
X116535853Y-67846900D01*
X116628985Y-67707519D01*
X116747519Y-67588985D01*
X116886900Y-67495853D01*
X117041772Y-67431703D01*
X117206184Y-67399000D01*
X117373816Y-67399000D01*
X117538228Y-67431703D01*
X117538228Y-67431703D01*
G37*
G36*
X111859271Y-64690103D02*
G01*
X111915635Y-64695654D01*
X112132600Y-64761470D01*
X112132602Y-64761471D01*
X112332555Y-64868347D01*
X112507818Y-65012182D01*
X112651653Y-65187445D01*
X112726132Y-65326787D01*
X112758530Y-65387400D01*
X112824346Y-65604365D01*
X112846569Y-65830000D01*
X112824346Y-66055635D01*
X112797975Y-66142569D01*
X112758529Y-66272602D01*
X112651653Y-66472555D01*
X112507818Y-66647818D01*
X112332555Y-66791653D01*
X112132602Y-66898529D01*
X112132600Y-66898530D01*
X111915635Y-66964346D01*
X111859271Y-66969897D01*
X111746545Y-66981000D01*
X111633455Y-66981000D01*
X111520729Y-66969897D01*
X111464365Y-66964346D01*
X111247400Y-66898530D01*
X111247398Y-66898529D01*
X111047445Y-66791653D01*
X110872182Y-66647818D01*
X110728347Y-66472555D01*
X110621471Y-66272602D01*
X110582026Y-66142569D01*
X110555654Y-66055635D01*
X110533431Y-65830000D01*
X110555654Y-65604365D01*
X110621470Y-65387400D01*
X110653868Y-65326787D01*
X110728347Y-65187445D01*
X110872182Y-65012182D01*
X111047445Y-64868347D01*
X111247398Y-64761471D01*
X111247400Y-64761470D01*
X111464365Y-64695654D01*
X111520729Y-64690103D01*
X111633455Y-64679000D01*
X111746545Y-64679000D01*
X111859271Y-64690103D01*
X111859271Y-64690103D01*
G37*
G36*
X189141000Y-66801000D02*
G01*
X186639000Y-66801000D01*
X186639000Y-64299000D01*
X189141000Y-64299000D01*
X189141000Y-66801000D01*
X189141000Y-66801000D01*
G37*
G36*
X163726257Y-64341377D02*
G01*
X163754903Y-64347075D01*
X163982571Y-64441378D01*
X164187466Y-64578285D01*
X164361715Y-64752534D01*
X164498622Y-64957429D01*
X164498623Y-64957431D01*
X164592925Y-65185097D01*
X164641000Y-65426786D01*
X164641000Y-65673214D01*
X164592925Y-65914903D01*
X164534633Y-66055634D01*
X164498622Y-66142571D01*
X164361715Y-66347466D01*
X164187466Y-66521715D01*
X163982571Y-66658622D01*
X163982570Y-66658623D01*
X163982569Y-66658623D01*
X163754903Y-66752925D01*
X163513214Y-66801000D01*
X163266786Y-66801000D01*
X163025097Y-66752925D01*
X162797431Y-66658623D01*
X162797430Y-66658623D01*
X162797429Y-66658622D01*
X162592534Y-66521715D01*
X162418285Y-66347466D01*
X162281378Y-66142571D01*
X162245368Y-66055634D01*
X162187075Y-65914903D01*
X162139000Y-65673214D01*
X162139000Y-65426786D01*
X162187075Y-65185097D01*
X162281377Y-64957431D01*
X162281378Y-64957429D01*
X162418285Y-64752534D01*
X162592534Y-64578285D01*
X162797429Y-64441378D01*
X163025097Y-64347075D01*
X163053743Y-64341377D01*
X163266786Y-64299000D01*
X163513214Y-64299000D01*
X163726257Y-64341377D01*
X163726257Y-64341377D01*
G37*
G36*
X180726257Y-64341377D02*
G01*
X180754903Y-64347075D01*
X180982571Y-64441378D01*
X181187466Y-64578285D01*
X181361715Y-64752534D01*
X181498622Y-64957429D01*
X181498623Y-64957431D01*
X181592925Y-65185097D01*
X181641000Y-65426786D01*
X181641000Y-65673214D01*
X181592925Y-65914903D01*
X181534633Y-66055634D01*
X181498622Y-66142571D01*
X181361715Y-66347466D01*
X181187466Y-66521715D01*
X180982571Y-66658622D01*
X180982570Y-66658623D01*
X180982569Y-66658623D01*
X180754903Y-66752925D01*
X180513214Y-66801000D01*
X180266786Y-66801000D01*
X180025097Y-66752925D01*
X179797431Y-66658623D01*
X179797430Y-66658623D01*
X179797429Y-66658622D01*
X179592534Y-66521715D01*
X179418285Y-66347466D01*
X179281378Y-66142571D01*
X179245368Y-66055634D01*
X179187075Y-65914903D01*
X179139000Y-65673214D01*
X179139000Y-65426786D01*
X179187075Y-65185097D01*
X179281377Y-64957431D01*
X179281378Y-64957429D01*
X179418285Y-64752534D01*
X179592534Y-64578285D01*
X179797429Y-64441378D01*
X180025097Y-64347075D01*
X180053743Y-64341377D01*
X180266786Y-64299000D01*
X180513214Y-64299000D01*
X180726257Y-64341377D01*
X180726257Y-64341377D01*
G37*
G36*
X172141000Y-66801000D02*
G01*
X169639000Y-66801000D01*
X169639000Y-64299000D01*
X172141000Y-64299000D01*
X172141000Y-66801000D01*
X172141000Y-66801000D01*
G37*
G36*
X138041000Y-66701000D02*
G01*
X135539000Y-66701000D01*
X135539000Y-64199000D01*
X138041000Y-64199000D01*
X138041000Y-66701000D01*
X138041000Y-66701000D01*
G37*
G36*
X129654903Y-64247075D02*
G01*
X129882571Y-64341378D01*
X130087466Y-64478285D01*
X130261715Y-64652534D01*
X130398622Y-64857429D01*
X130398623Y-64857431D01*
X130492925Y-65085097D01*
X130541000Y-65326786D01*
X130541000Y-65573214D01*
X130534803Y-65604366D01*
X130492925Y-65814903D01*
X130398622Y-66042571D01*
X130261715Y-66247466D01*
X130087466Y-66421715D01*
X129882571Y-66558622D01*
X129882570Y-66558623D01*
X129882569Y-66558623D01*
X129654903Y-66652925D01*
X129413214Y-66701000D01*
X129166786Y-66701000D01*
X128925097Y-66652925D01*
X128697431Y-66558623D01*
X128697430Y-66558623D01*
X128697429Y-66558622D01*
X128492534Y-66421715D01*
X128318285Y-66247466D01*
X128181378Y-66042571D01*
X128087075Y-65814903D01*
X128045197Y-65604366D01*
X128039000Y-65573214D01*
X128039000Y-65326786D01*
X128087075Y-65085097D01*
X128181377Y-64857431D01*
X128181378Y-64857429D01*
X128318285Y-64652534D01*
X128492534Y-64478285D01*
X128697429Y-64341378D01*
X128925097Y-64247075D01*
X129166786Y-64199000D01*
X129413214Y-64199000D01*
X129654903Y-64247075D01*
X129654903Y-64247075D01*
G37*
G36*
X146654903Y-64247075D02*
G01*
X146882571Y-64341378D01*
X147087466Y-64478285D01*
X147261715Y-64652534D01*
X147398622Y-64857429D01*
X147398623Y-64857431D01*
X147492925Y-65085097D01*
X147541000Y-65326786D01*
X147541000Y-65573214D01*
X147534803Y-65604366D01*
X147492925Y-65814903D01*
X147398622Y-66042571D01*
X147261715Y-66247466D01*
X147087466Y-66421715D01*
X146882571Y-66558622D01*
X146882570Y-66558623D01*
X146882569Y-66558623D01*
X146654903Y-66652925D01*
X146413214Y-66701000D01*
X146166786Y-66701000D01*
X145925097Y-66652925D01*
X145697431Y-66558623D01*
X145697430Y-66558623D01*
X145697429Y-66558622D01*
X145492534Y-66421715D01*
X145318285Y-66247466D01*
X145181378Y-66042571D01*
X145087075Y-65814903D01*
X145045197Y-65604366D01*
X145039000Y-65573214D01*
X145039000Y-65326786D01*
X145087075Y-65085097D01*
X145181377Y-64857431D01*
X145181378Y-64857429D01*
X145318285Y-64652534D01*
X145492534Y-64478285D01*
X145697429Y-64341378D01*
X145925097Y-64247075D01*
X146166786Y-64199000D01*
X146413214Y-64199000D01*
X146654903Y-64247075D01*
X146654903Y-64247075D01*
G37*
G36*
X155041000Y-66701000D02*
G01*
X152539000Y-66701000D01*
X152539000Y-64199000D01*
X155041000Y-64199000D01*
X155041000Y-66701000D01*
X155041000Y-66701000D01*
G37*
G36*
X122096564Y-62939389D02*
G01*
X122247170Y-63001772D01*
X122287835Y-63018616D01*
X122459973Y-63133635D01*
X122606365Y-63280027D01*
X122721385Y-63452167D01*
X122800611Y-63643436D01*
X122841000Y-63846484D01*
X122841000Y-64053516D01*
X122800611Y-64256564D01*
X122783033Y-64299000D01*
X122721384Y-64447835D01*
X122606365Y-64619973D01*
X122459973Y-64766365D01*
X122287835Y-64881384D01*
X122287834Y-64881385D01*
X122287833Y-64881385D01*
X122096564Y-64960611D01*
X121893516Y-65001000D01*
X121686484Y-65001000D01*
X121483436Y-64960611D01*
X121292167Y-64881385D01*
X121292166Y-64881385D01*
X121292165Y-64881384D01*
X121120027Y-64766365D01*
X120973635Y-64619973D01*
X120858616Y-64447835D01*
X120796967Y-64299000D01*
X120779389Y-64256564D01*
X120739000Y-64053516D01*
X120739000Y-63846484D01*
X120779389Y-63643436D01*
X120858615Y-63452167D01*
X120973635Y-63280027D01*
X121120027Y-63133635D01*
X121292165Y-63018616D01*
X121332830Y-63001772D01*
X121483436Y-62939389D01*
X121686484Y-62899000D01*
X121893516Y-62899000D01*
X122096564Y-62939389D01*
X122096564Y-62939389D01*
G37*
G36*
X117538228Y-62431703D02*
G01*
X117693100Y-62495853D01*
X117832481Y-62588985D01*
X117951015Y-62707519D01*
X118044147Y-62846900D01*
X118108297Y-63001772D01*
X118141000Y-63166184D01*
X118141000Y-63333816D01*
X118108297Y-63498228D01*
X118044147Y-63653100D01*
X117951015Y-63792481D01*
X117832481Y-63911015D01*
X117693100Y-64004147D01*
X117538228Y-64068297D01*
X117373816Y-64101000D01*
X117206184Y-64101000D01*
X117041772Y-64068297D01*
X116886900Y-64004147D01*
X116747519Y-63911015D01*
X116628985Y-63792481D01*
X116535853Y-63653100D01*
X116471703Y-63498228D01*
X116439000Y-63333816D01*
X116439000Y-63166184D01*
X116471703Y-63001772D01*
X116535853Y-62846900D01*
X116628985Y-62707519D01*
X116747519Y-62588985D01*
X116886900Y-62495853D01*
X117041772Y-62431703D01*
X117206184Y-62399000D01*
X117373816Y-62399000D01*
X117538228Y-62431703D01*
X117538228Y-62431703D01*
G37*
G36*
X112079271Y-61610103D02*
G01*
X112135635Y-61615654D01*
X112352600Y-61681470D01*
X112352602Y-61681471D01*
X112552555Y-61788347D01*
X112727818Y-61932182D01*
X112871653Y-62107445D01*
X112978529Y-62307398D01*
X112978530Y-62307400D01*
X113044346Y-62524365D01*
X113066569Y-62750000D01*
X113044346Y-62975635D01*
X113031308Y-63018616D01*
X112978529Y-63192602D01*
X112871653Y-63392555D01*
X112727818Y-63567818D01*
X112552555Y-63711653D01*
X112352602Y-63818529D01*
X112352600Y-63818530D01*
X112135635Y-63884346D01*
X112079271Y-63889897D01*
X111966545Y-63901000D01*
X111853455Y-63901000D01*
X111740729Y-63889897D01*
X111684365Y-63884346D01*
X111467400Y-63818530D01*
X111467398Y-63818529D01*
X111267445Y-63711653D01*
X111092182Y-63567818D01*
X110948347Y-63392555D01*
X110841471Y-63192602D01*
X110788693Y-63018616D01*
X110775654Y-62975635D01*
X110753431Y-62750000D01*
X110775654Y-62524365D01*
X110841470Y-62307400D01*
X110841471Y-62307398D01*
X110948347Y-62107445D01*
X111092182Y-61932182D01*
X111267445Y-61788347D01*
X111467398Y-61681471D01*
X111467400Y-61681470D01*
X111684365Y-61615654D01*
X111740729Y-61610103D01*
X111853455Y-61599000D01*
X111966545Y-61599000D01*
X112079271Y-61610103D01*
X112079271Y-61610103D01*
G37*
G36*
X105441000Y-63901000D02*
G01*
X103139000Y-63901000D01*
X103139000Y-61599000D01*
X105441000Y-61599000D01*
X105441000Y-63901000D01*
X105441000Y-63901000D01*
G37*
G36*
X120861304Y-57037002D02*
G01*
X121280139Y-57210489D01*
X121280141Y-57210490D01*
X121469891Y-57337277D01*
X121595648Y-57421305D01*
X121657083Y-57462355D01*
X121977645Y-57782917D01*
X122202254Y-58119067D01*
X122229511Y-58159861D01*
X122402998Y-58578696D01*
X122491440Y-59023327D01*
X122491440Y-59476673D01*
X122402998Y-59921304D01*
X122260233Y-60265969D01*
X122229510Y-60340141D01*
X121977645Y-60717083D01*
X121657083Y-61037645D01*
X121280141Y-61289510D01*
X121280140Y-61289511D01*
X121280139Y-61289511D01*
X120861304Y-61462998D01*
X120416673Y-61551440D01*
X119963327Y-61551440D01*
X119518696Y-61462998D01*
X119099861Y-61289511D01*
X119099860Y-61289511D01*
X119099859Y-61289510D01*
X118722917Y-61037645D01*
X118402355Y-60717083D01*
X118150490Y-60340141D01*
X118119767Y-60265969D01*
X117977002Y-59921304D01*
X117888560Y-59476673D01*
X117888560Y-59023327D01*
X117977002Y-58578696D01*
X118150489Y-58159861D01*
X118177747Y-58119067D01*
X118402355Y-57782917D01*
X118722917Y-57462355D01*
X118784353Y-57421305D01*
X118910109Y-57337277D01*
X119099859Y-57210490D01*
X119099861Y-57210489D01*
X119518696Y-57037002D01*
X119963327Y-56948560D01*
X120416673Y-56948560D01*
X120861304Y-57037002D01*
X120861304Y-57037002D01*
G37*
G36*
X107776416Y-58439879D02*
G01*
X107967592Y-58519067D01*
X107967594Y-58519068D01*
X108139648Y-58634031D01*
X108285969Y-58780352D01*
X108397010Y-58946536D01*
X108400933Y-58952408D01*
X108480121Y-59143584D01*
X108520490Y-59346534D01*
X108520490Y-59553466D01*
X108480121Y-59756416D01*
X108434742Y-59865969D01*
X108400932Y-59947594D01*
X108285969Y-60119648D01*
X108139648Y-60265969D01*
X107967594Y-60380932D01*
X107967593Y-60380933D01*
X107967592Y-60380933D01*
X107776416Y-60460121D01*
X107573466Y-60500490D01*
X107366534Y-60500490D01*
X107163584Y-60460121D01*
X106972408Y-60380933D01*
X106972407Y-60380933D01*
X106972406Y-60380932D01*
X106800352Y-60265969D01*
X106654031Y-60119648D01*
X106539068Y-59947594D01*
X106505258Y-59865969D01*
X106459879Y-59756416D01*
X106419510Y-59553466D01*
X106419510Y-59346534D01*
X106459879Y-59143584D01*
X106539067Y-58952408D01*
X106542991Y-58946536D01*
X106654031Y-58780352D01*
X106800352Y-58634031D01*
X106972406Y-58519068D01*
X106972408Y-58519067D01*
X107163584Y-58439879D01*
X107366534Y-58399510D01*
X107573466Y-58399510D01*
X107776416Y-58439879D01*
X107776416Y-58439879D01*
G37*
G36*
X104646416Y-58439879D02*
G01*
X104837592Y-58519067D01*
X104837594Y-58519068D01*
X105009648Y-58634031D01*
X105155969Y-58780352D01*
X105267010Y-58946536D01*
X105270933Y-58952408D01*
X105350121Y-59143584D01*
X105390490Y-59346534D01*
X105390490Y-59553466D01*
X105350121Y-59756416D01*
X105304742Y-59865969D01*
X105270932Y-59947594D01*
X105155969Y-60119648D01*
X105009648Y-60265969D01*
X104837594Y-60380932D01*
X104837593Y-60380933D01*
X104837592Y-60380933D01*
X104646416Y-60460121D01*
X104443466Y-60500490D01*
X104236534Y-60500490D01*
X104033584Y-60460121D01*
X103842408Y-60380933D01*
X103842407Y-60380933D01*
X103842406Y-60380932D01*
X103670352Y-60265969D01*
X103524031Y-60119648D01*
X103409068Y-59947594D01*
X103375258Y-59865969D01*
X103329879Y-59756416D01*
X103289510Y-59553466D01*
X103289510Y-59346534D01*
X103329879Y-59143584D01*
X103409067Y-58952408D01*
X103412991Y-58946536D01*
X103524031Y-58780352D01*
X103670352Y-58634031D01*
X103842406Y-58519068D01*
X103842408Y-58519067D01*
X104033584Y-58439879D01*
X104236534Y-58399510D01*
X104443466Y-58399510D01*
X104646416Y-58439879D01*
X104646416Y-58439879D01*
G37*
G36*
X196224549Y-58071116D02*
G01*
X196335734Y-58093232D01*
X196483850Y-58154584D01*
X196496591Y-58159861D01*
X196545203Y-58179997D01*
X196733720Y-58305960D01*
X196894040Y-58466280D01*
X197020003Y-58654797D01*
X197106768Y-58864266D01*
X197123132Y-58946534D01*
X197151000Y-59086635D01*
X197151000Y-59313365D01*
X197142436Y-59356417D01*
X197106768Y-59535734D01*
X197020003Y-59745203D01*
X196894040Y-59933720D01*
X196733720Y-60094040D01*
X196545203Y-60220003D01*
X196335734Y-60306768D01*
X196224549Y-60328884D01*
X196113365Y-60351000D01*
X195886635Y-60351000D01*
X195775451Y-60328884D01*
X195664266Y-60306768D01*
X195454797Y-60220003D01*
X195266280Y-60094040D01*
X195105960Y-59933720D01*
X194979997Y-59745203D01*
X194893232Y-59535734D01*
X194857564Y-59356417D01*
X194849000Y-59313365D01*
X194849000Y-59086635D01*
X194876868Y-58946534D01*
X194893232Y-58864266D01*
X194979997Y-58654797D01*
X195105960Y-58466280D01*
X195266280Y-58305960D01*
X195454797Y-58179997D01*
X195503410Y-58159861D01*
X195516150Y-58154584D01*
X195664266Y-58093232D01*
X195775451Y-58071116D01*
X195886635Y-58049000D01*
X196113365Y-58049000D01*
X196224549Y-58071116D01*
X196224549Y-58071116D01*
G37*
G36*
X124996416Y-58039879D02*
G01*
X125187592Y-58119067D01*
X125187594Y-58119068D01*
X125359648Y-58234031D01*
X125505969Y-58380352D01*
X125611070Y-58537646D01*
X125620933Y-58552408D01*
X125700121Y-58743584D01*
X125740490Y-58946534D01*
X125740490Y-59153466D01*
X125700121Y-59356416D01*
X125625845Y-59535733D01*
X125620932Y-59547594D01*
X125505969Y-59719648D01*
X125359648Y-59865969D01*
X125187594Y-59980932D01*
X125187593Y-59980933D01*
X125187592Y-59980933D01*
X124996416Y-60060121D01*
X124793466Y-60100490D01*
X124586534Y-60100490D01*
X124383584Y-60060121D01*
X124192408Y-59980933D01*
X124192407Y-59980933D01*
X124192406Y-59980932D01*
X124020352Y-59865969D01*
X123874031Y-59719648D01*
X123759068Y-59547594D01*
X123754155Y-59535733D01*
X123679879Y-59356416D01*
X123639510Y-59153466D01*
X123639510Y-58946534D01*
X123679879Y-58743584D01*
X123759067Y-58552408D01*
X123768931Y-58537646D01*
X123874031Y-58380352D01*
X124020352Y-58234031D01*
X124192406Y-58119068D01*
X124192408Y-58119067D01*
X124383584Y-58039879D01*
X124586534Y-57999510D01*
X124793466Y-57999510D01*
X124996416Y-58039879D01*
X124996416Y-58039879D01*
G37*
G36*
X176261304Y-54637002D02*
G01*
X176680139Y-54810489D01*
X176680141Y-54810490D01*
X176869891Y-54937277D01*
X177057082Y-55062354D01*
X177377646Y-55382918D01*
X177629511Y-55759861D01*
X177802998Y-56178696D01*
X177891440Y-56623327D01*
X177891440Y-57076673D01*
X177802998Y-57521304D01*
X177694634Y-57782917D01*
X177629510Y-57940141D01*
X177527218Y-58093232D01*
X177377646Y-58317082D01*
X177057082Y-58637646D01*
X176898536Y-58743583D01*
X176680141Y-58889510D01*
X176680140Y-58889511D01*
X176680139Y-58889511D01*
X176261304Y-59062998D01*
X175816673Y-59151440D01*
X175363327Y-59151440D01*
X174918696Y-59062998D01*
X174499861Y-58889511D01*
X174499860Y-58889511D01*
X174499859Y-58889510D01*
X174281464Y-58743583D01*
X174122918Y-58637646D01*
X173802354Y-58317082D01*
X173652782Y-58093232D01*
X173550490Y-57940141D01*
X173485366Y-57782917D01*
X173377002Y-57521304D01*
X173288560Y-57076673D01*
X173288560Y-56623327D01*
X173377002Y-56178696D01*
X173550489Y-55759861D01*
X173802354Y-55382918D01*
X174122918Y-55062354D01*
X174310109Y-54937277D01*
X174499859Y-54810490D01*
X174499861Y-54810489D01*
X174918696Y-54637002D01*
X175363327Y-54548560D01*
X175816673Y-54548560D01*
X176261304Y-54637002D01*
X176261304Y-54637002D01*
G37*
G36*
X159361304Y-54537002D02*
G01*
X159690424Y-54673328D01*
X159780141Y-54710490D01*
X159929800Y-54810489D01*
X160157082Y-54962354D01*
X160477646Y-55282918D01*
X160520153Y-55346534D01*
X160718635Y-55643583D01*
X160729511Y-55659861D01*
X160902998Y-56078696D01*
X160991440Y-56523327D01*
X160991440Y-56976673D01*
X160902998Y-57421304D01*
X160729511Y-57840139D01*
X160477646Y-58217082D01*
X160157082Y-58537646D01*
X160007423Y-58637645D01*
X159780141Y-58789510D01*
X159780140Y-58789511D01*
X159780139Y-58789511D01*
X159361304Y-58962998D01*
X158916673Y-59051440D01*
X158463327Y-59051440D01*
X158018696Y-58962998D01*
X157599861Y-58789511D01*
X157599860Y-58789511D01*
X157599859Y-58789510D01*
X157372577Y-58637645D01*
X157222918Y-58537646D01*
X156902354Y-58217082D01*
X156650489Y-57840139D01*
X156477002Y-57421304D01*
X156388560Y-56976673D01*
X156388560Y-56523327D01*
X156477002Y-56078696D01*
X156650489Y-55659861D01*
X156661366Y-55643583D01*
X156859847Y-55346534D01*
X156902354Y-55282918D01*
X157222918Y-54962354D01*
X157450200Y-54810489D01*
X157599859Y-54710490D01*
X157689576Y-54673328D01*
X158018696Y-54537002D01*
X158463327Y-54448560D01*
X158916673Y-54448560D01*
X159361304Y-54537002D01*
X159361304Y-54537002D01*
G37*
G36*
X142261304Y-54537002D02*
G01*
X142590424Y-54673328D01*
X142680141Y-54710490D01*
X142829800Y-54810489D01*
X143057082Y-54962354D01*
X143377646Y-55282918D01*
X143420153Y-55346534D01*
X143618635Y-55643583D01*
X143629511Y-55659861D01*
X143802998Y-56078696D01*
X143891440Y-56523327D01*
X143891440Y-56976673D01*
X143802998Y-57421304D01*
X143629511Y-57840139D01*
X143377646Y-58217082D01*
X143057082Y-58537646D01*
X142907423Y-58637645D01*
X142680141Y-58789510D01*
X142680140Y-58789511D01*
X142680139Y-58789511D01*
X142261304Y-58962998D01*
X141816673Y-59051440D01*
X141363327Y-59051440D01*
X140918696Y-58962998D01*
X140499861Y-58789511D01*
X140499860Y-58789511D01*
X140499859Y-58789510D01*
X140272577Y-58637645D01*
X140122918Y-58537646D01*
X139802354Y-58217082D01*
X139550489Y-57840139D01*
X139377002Y-57421304D01*
X139288560Y-56976673D01*
X139288560Y-56523327D01*
X139377002Y-56078696D01*
X139550489Y-55659861D01*
X139561366Y-55643583D01*
X139759847Y-55346534D01*
X139802354Y-55282918D01*
X140122918Y-54962354D01*
X140350200Y-54810489D01*
X140499859Y-54710490D01*
X140589576Y-54673328D01*
X140918696Y-54537002D01*
X141363327Y-54448560D01*
X141816673Y-54448560D01*
X142261304Y-54537002D01*
X142261304Y-54537002D01*
G37*
G36*
X190371304Y-52687002D02*
G01*
X190718784Y-52830933D01*
X190790141Y-52860490D01*
X190864417Y-52910120D01*
X191167082Y-53112354D01*
X191487646Y-53432918D01*
X191739511Y-53809861D01*
X191912998Y-54228696D01*
X192001440Y-54673327D01*
X192001440Y-55126673D01*
X191912998Y-55571304D01*
X191753479Y-55956417D01*
X191739510Y-55990141D01*
X191680340Y-56078695D01*
X191487646Y-56367082D01*
X191167082Y-56687646D01*
X191049863Y-56765969D01*
X190790141Y-56939510D01*
X190790140Y-56939511D01*
X190790139Y-56939511D01*
X190371304Y-57112998D01*
X189926673Y-57201440D01*
X189473327Y-57201440D01*
X189028696Y-57112998D01*
X188609861Y-56939511D01*
X188609860Y-56939511D01*
X188609859Y-56939510D01*
X188350137Y-56765969D01*
X188232918Y-56687646D01*
X187912354Y-56367082D01*
X187719660Y-56078695D01*
X187660490Y-55990141D01*
X187646521Y-55956417D01*
X187487002Y-55571304D01*
X187398560Y-55126673D01*
X187398560Y-54673327D01*
X187487002Y-54228696D01*
X187660489Y-53809861D01*
X187912354Y-53432918D01*
X188232918Y-53112354D01*
X188535583Y-52910120D01*
X188609859Y-52860490D01*
X188681216Y-52830933D01*
X189028696Y-52687002D01*
X189473327Y-52598560D01*
X189926673Y-52598560D01*
X190371304Y-52687002D01*
X190371304Y-52687002D01*
G37*
G36*
X124996416Y-54939879D02*
G01*
X125187592Y-55019067D01*
X125187594Y-55019068D01*
X125359648Y-55134031D01*
X125505969Y-55280352D01*
X125617010Y-55446536D01*
X125620933Y-55452408D01*
X125700121Y-55643584D01*
X125740490Y-55846534D01*
X125740490Y-56053466D01*
X125700121Y-56256416D01*
X125648544Y-56380933D01*
X125620932Y-56447594D01*
X125505969Y-56619648D01*
X125359648Y-56765969D01*
X125187594Y-56880932D01*
X125187593Y-56880933D01*
X125187592Y-56880933D01*
X124996416Y-56960121D01*
X124793466Y-57000490D01*
X124586534Y-57000490D01*
X124383584Y-56960121D01*
X124192408Y-56880933D01*
X124192407Y-56880933D01*
X124192406Y-56880932D01*
X124020352Y-56765969D01*
X123874031Y-56619648D01*
X123759068Y-56447594D01*
X123731456Y-56380933D01*
X123679879Y-56256416D01*
X123639510Y-56053466D01*
X123639510Y-55846534D01*
X123679879Y-55643584D01*
X123759067Y-55452408D01*
X123762991Y-55446536D01*
X123874031Y-55280352D01*
X124020352Y-55134031D01*
X124192406Y-55019068D01*
X124192408Y-55019067D01*
X124383584Y-54939879D01*
X124586534Y-54899510D01*
X124793466Y-54899510D01*
X124996416Y-54939879D01*
X124996416Y-54939879D01*
G37*
G36*
X171496416Y-54639879D02*
G01*
X171666885Y-54710490D01*
X171687594Y-54719068D01*
X171859648Y-54834031D01*
X172005969Y-54980352D01*
X172115037Y-55143583D01*
X172120933Y-55152408D01*
X172200121Y-55343584D01*
X172240490Y-55546534D01*
X172240490Y-55753466D01*
X172200121Y-55956416D01*
X172132508Y-56119648D01*
X172120932Y-56147594D01*
X172005969Y-56319648D01*
X171859648Y-56465969D01*
X171687594Y-56580932D01*
X171687593Y-56580933D01*
X171687592Y-56580933D01*
X171496416Y-56660121D01*
X171293466Y-56700490D01*
X171086534Y-56700490D01*
X170883584Y-56660121D01*
X170692408Y-56580933D01*
X170692407Y-56580933D01*
X170692406Y-56580932D01*
X170520352Y-56465969D01*
X170374031Y-56319648D01*
X170259068Y-56147594D01*
X170247492Y-56119648D01*
X170179879Y-55956416D01*
X170139510Y-55753466D01*
X170139510Y-55546534D01*
X170179879Y-55343584D01*
X170259067Y-55152408D01*
X170264964Y-55143583D01*
X170374031Y-54980352D01*
X170520352Y-54834031D01*
X170692406Y-54719068D01*
X170713115Y-54710490D01*
X170883584Y-54639879D01*
X171086534Y-54599510D01*
X171293466Y-54599510D01*
X171496416Y-54639879D01*
X171496416Y-54639879D01*
G37*
G36*
X154696416Y-54539879D02*
G01*
X154840377Y-54599510D01*
X154887594Y-54619068D01*
X155059648Y-54734031D01*
X155205969Y-54880352D01*
X155298656Y-55019067D01*
X155320933Y-55052408D01*
X155400121Y-55243584D01*
X155440490Y-55446534D01*
X155440490Y-55653466D01*
X155400121Y-55856416D01*
X155358699Y-55956416D01*
X155320932Y-56047594D01*
X155205969Y-56219648D01*
X155059648Y-56365969D01*
X154887594Y-56480932D01*
X154887593Y-56480933D01*
X154887592Y-56480933D01*
X154696416Y-56560121D01*
X154493466Y-56600490D01*
X154286534Y-56600490D01*
X154083584Y-56560121D01*
X153892408Y-56480933D01*
X153892407Y-56480933D01*
X153892406Y-56480932D01*
X153720352Y-56365969D01*
X153574031Y-56219648D01*
X153459068Y-56047594D01*
X153421301Y-55956416D01*
X153379879Y-55856416D01*
X153339510Y-55653466D01*
X153339510Y-55446534D01*
X153379879Y-55243584D01*
X153459067Y-55052408D01*
X153481345Y-55019067D01*
X153574031Y-54880352D01*
X153720352Y-54734031D01*
X153892406Y-54619068D01*
X153939623Y-54599510D01*
X154083584Y-54539879D01*
X154286534Y-54499510D01*
X154493466Y-54499510D01*
X154696416Y-54539879D01*
X154696416Y-54539879D01*
G37*
G36*
X137596416Y-54439879D02*
G01*
X137740377Y-54499510D01*
X137787594Y-54519068D01*
X137959648Y-54634031D01*
X138105969Y-54780352D01*
X138212562Y-54939879D01*
X138220933Y-54952408D01*
X138300121Y-55143584D01*
X138340490Y-55346534D01*
X138340490Y-55553466D01*
X138300121Y-55756416D01*
X138262792Y-55846536D01*
X138220932Y-55947594D01*
X138105969Y-56119648D01*
X137959648Y-56265969D01*
X137787594Y-56380932D01*
X137787593Y-56380933D01*
X137787592Y-56380933D01*
X137596416Y-56460121D01*
X137393466Y-56500490D01*
X137186534Y-56500490D01*
X136983584Y-56460121D01*
X136792408Y-56380933D01*
X136792407Y-56380933D01*
X136792406Y-56380932D01*
X136620352Y-56265969D01*
X136474031Y-56119648D01*
X136359068Y-55947594D01*
X136317208Y-55846536D01*
X136279879Y-55756416D01*
X136239510Y-55553466D01*
X136239510Y-55346534D01*
X136279879Y-55143584D01*
X136359067Y-54952408D01*
X136367439Y-54939879D01*
X136474031Y-54780352D01*
X136620352Y-54634031D01*
X136792406Y-54519068D01*
X136839623Y-54499510D01*
X136983584Y-54439879D01*
X137186534Y-54399510D01*
X137393466Y-54399510D01*
X137596416Y-54439879D01*
X137596416Y-54439879D01*
G37*
G36*
X185556416Y-54439879D02*
G01*
X185700377Y-54499510D01*
X185747594Y-54519068D01*
X185919648Y-54634031D01*
X186065969Y-54780352D01*
X186172562Y-54939879D01*
X186180933Y-54952408D01*
X186260121Y-55143584D01*
X186300490Y-55346534D01*
X186300490Y-55553466D01*
X186260121Y-55756416D01*
X186222792Y-55846536D01*
X186180932Y-55947594D01*
X186065969Y-56119648D01*
X185919648Y-56265969D01*
X185747594Y-56380932D01*
X185747593Y-56380933D01*
X185747592Y-56380933D01*
X185556416Y-56460121D01*
X185353466Y-56500490D01*
X185146534Y-56500490D01*
X184943584Y-56460121D01*
X184752408Y-56380933D01*
X184752407Y-56380933D01*
X184752406Y-56380932D01*
X184580352Y-56265969D01*
X184434031Y-56119648D01*
X184319068Y-55947594D01*
X184277208Y-55846536D01*
X184239879Y-55756416D01*
X184199510Y-55553466D01*
X184199510Y-55346534D01*
X184239879Y-55143584D01*
X184319067Y-54952408D01*
X184327439Y-54939879D01*
X184434031Y-54780352D01*
X184580352Y-54634031D01*
X184752406Y-54519068D01*
X184799623Y-54499510D01*
X184943584Y-54439879D01*
X185146534Y-54399510D01*
X185353466Y-54399510D01*
X185556416Y-54439879D01*
X185556416Y-54439879D01*
G37*
G36*
X106224549Y-52071116D02*
G01*
X106335734Y-52093232D01*
X106545203Y-52179997D01*
X106733720Y-52305960D01*
X106894040Y-52466280D01*
X107020003Y-52654797D01*
X107106768Y-52864266D01*
X107125537Y-52958623D01*
X107144295Y-53052925D01*
X107151000Y-53086636D01*
X107151000Y-53313364D01*
X107106768Y-53535734D01*
X107020003Y-53745203D01*
X106894040Y-53933720D01*
X106733720Y-54094040D01*
X106545203Y-54220003D01*
X106545202Y-54220004D01*
X106545201Y-54220004D01*
X106483850Y-54245416D01*
X106335734Y-54306768D01*
X106224549Y-54328884D01*
X106113365Y-54351000D01*
X105886635Y-54351000D01*
X105775451Y-54328884D01*
X105664266Y-54306768D01*
X105516150Y-54245416D01*
X105454799Y-54220004D01*
X105454798Y-54220004D01*
X105454797Y-54220003D01*
X105266280Y-54094040D01*
X105105960Y-53933720D01*
X104979997Y-53745203D01*
X104893232Y-53535734D01*
X104849000Y-53313364D01*
X104849000Y-53086636D01*
X104855706Y-53052925D01*
X104874463Y-52958623D01*
X104893232Y-52864266D01*
X104979997Y-52654797D01*
X105105960Y-52466280D01*
X105266280Y-52305960D01*
X105454797Y-52179997D01*
X105664266Y-52093232D01*
X105775451Y-52071116D01*
X105886635Y-52049000D01*
X106113365Y-52049000D01*
X106224549Y-52071116D01*
X106224549Y-52071116D01*
G37*
G36*
X131895239Y-50617101D02*
G01*
X132131053Y-50688634D01*
X132348381Y-50804799D01*
X132538871Y-50961129D01*
X132695201Y-51151619D01*
X132811366Y-51368947D01*
X132882899Y-51604761D01*
X132907053Y-51850000D01*
X132882899Y-52095239D01*
X132811366Y-52331053D01*
X132695201Y-52548381D01*
X132538871Y-52738871D01*
X132348381Y-52895201D01*
X132131053Y-53011366D01*
X131895239Y-53082899D01*
X131711457Y-53101000D01*
X131588543Y-53101000D01*
X131404761Y-53082899D01*
X131168947Y-53011366D01*
X130951619Y-52895201D01*
X130761129Y-52738871D01*
X130604799Y-52548381D01*
X130488634Y-52331053D01*
X130417101Y-52095239D01*
X130392947Y-51850000D01*
X130417101Y-51604761D01*
X130488634Y-51368947D01*
X130604799Y-51151619D01*
X130761129Y-50961129D01*
X130951619Y-50804799D01*
X131168947Y-50688634D01*
X131404761Y-50617101D01*
X131588543Y-50599000D01*
X131711457Y-50599000D01*
X131895239Y-50617101D01*
X131895239Y-50617101D01*
G37*
G36*
X147254903Y-50647075D02*
G01*
X147355236Y-50688634D01*
X147482571Y-50741378D01*
X147687466Y-50878285D01*
X147861715Y-51052534D01*
X147998622Y-51257429D01*
X148092925Y-51485097D01*
X148141000Y-51726787D01*
X148141000Y-51973213D01*
X148092925Y-52214903D01*
X147998622Y-52442571D01*
X147861715Y-52647466D01*
X147687466Y-52821715D01*
X147482571Y-52958622D01*
X147482570Y-52958623D01*
X147482569Y-52958623D01*
X147254903Y-53052925D01*
X147013214Y-53101000D01*
X146766786Y-53101000D01*
X146525097Y-53052925D01*
X146297431Y-52958623D01*
X146297430Y-52958623D01*
X146297429Y-52958622D01*
X146092534Y-52821715D01*
X145918285Y-52647466D01*
X145781378Y-52442571D01*
X145687075Y-52214903D01*
X145639000Y-51973213D01*
X145639000Y-51726787D01*
X145687075Y-51485097D01*
X145781378Y-51257429D01*
X145918285Y-51052534D01*
X146092534Y-50878285D01*
X146297429Y-50741378D01*
X146424765Y-50688634D01*
X146525097Y-50647075D01*
X146766786Y-50599000D01*
X147013214Y-50599000D01*
X147254903Y-50647075D01*
X147254903Y-50647075D01*
G37*
G36*
X150306416Y-50889879D02*
G01*
X150478428Y-50961129D01*
X150497594Y-50969068D01*
X150622509Y-51052534D01*
X150669648Y-51084031D01*
X150815969Y-51230352D01*
X150930933Y-51402408D01*
X151010121Y-51593584D01*
X151050490Y-51796534D01*
X151050490Y-52003466D01*
X151010121Y-52206416D01*
X150968888Y-52305960D01*
X150930932Y-52397594D01*
X150815969Y-52569648D01*
X150669648Y-52715969D01*
X150497594Y-52830932D01*
X150497593Y-52830933D01*
X150497592Y-52830933D01*
X150306416Y-52910121D01*
X150103466Y-52950490D01*
X149896534Y-52950490D01*
X149693584Y-52910121D01*
X149502408Y-52830933D01*
X149502407Y-52830933D01*
X149502406Y-52830932D01*
X149330352Y-52715969D01*
X149184031Y-52569648D01*
X149069068Y-52397594D01*
X149031112Y-52305960D01*
X148989879Y-52206416D01*
X148949510Y-52003466D01*
X148949510Y-51796534D01*
X148989879Y-51593584D01*
X149069067Y-51402408D01*
X149184031Y-51230352D01*
X149330352Y-51084031D01*
X149377491Y-51052534D01*
X149502406Y-50969068D01*
X149521572Y-50961129D01*
X149693584Y-50889879D01*
X149896534Y-50849510D01*
X150103466Y-50849510D01*
X150306416Y-50889879D01*
X150306416Y-50889879D01*
G37*
M02*
