G04 #@! TF.GenerationSoftware,KiCad,Pcbnew,5.1.4-e60b266~84~ubuntu16.04.1*
G04 #@! TF.CreationDate,2019-10-09T11:36:19-05:00*
G04 #@! TF.ProjectId,8cap,38636170-2e6b-4696-9361-645f70636258,rev?*
G04 #@! TF.SameCoordinates,Original*
G04 #@! TF.FileFunction,Copper,L2,Bot*
G04 #@! TF.FilePolarity,Positive*
%FSLAX46Y46*%
G04 Gerber Fmt 4.6, Leading zero omitted, Abs format (unit mm)*
G04 Created by KiCad (PCBNEW 5.1.4-e60b266~84~ubuntu16.04.1) date 2019-10-09 11:36:19*
%MOMM*%
%LPD*%
G04 APERTURE LIST*
G04 #@! TA.AperFunction,NonConductor*
%ADD10C,0.050000*%
G04 #@! TD*
G04 #@! TA.AperFunction,ComponentPad*
%ADD11R,2.400000X2.400000*%
G04 #@! TD*
G04 #@! TA.AperFunction,ComponentPad*
%ADD12C,2.400000*%
G04 #@! TD*
G04 #@! TA.AperFunction,ComponentPad*
%ADD13C,4.500880*%
G04 #@! TD*
G04 #@! TA.AperFunction,ComponentPad*
%ADD14C,1.998980*%
G04 #@! TD*
G04 #@! TA.AperFunction,ComponentPad*
%ADD15R,2.200000X2.200000*%
G04 #@! TD*
G04 #@! TA.AperFunction,ComponentPad*
%ADD16O,2.200000X2.200000*%
G04 #@! TD*
G04 #@! TA.AperFunction,ComponentPad*
%ADD17O,2.400000X2.400000*%
G04 #@! TD*
G04 #@! TA.AperFunction,ComponentPad*
%ADD18C,2.000000*%
G04 #@! TD*
G04 #@! TA.AperFunction,ComponentPad*
%ADD19C,1.600000*%
G04 #@! TD*
G04 #@! TA.AperFunction,ViaPad*
%ADD20C,0.800000*%
G04 #@! TD*
G04 #@! TA.AperFunction,Conductor*
%ADD21C,4.500000*%
G04 #@! TD*
G04 #@! TA.AperFunction,Conductor*
%ADD22C,4.000000*%
G04 #@! TD*
G04 #@! TA.AperFunction,Conductor*
%ADD23C,3.000000*%
G04 #@! TD*
G04 APERTURE END LIST*
D10*
X100000000Y-150000000D02*
X100000000Y-50000000D01*
X200000000Y-150000000D02*
X100000000Y-150000000D01*
X200000000Y-50000000D02*
X200000000Y-150000000D01*
X100000000Y-50000000D02*
X200000000Y-50000000D01*
D11*
G04 #@! TO.P,C5,1*
G04 #@! TO.N,N/C*
X180390000Y-86550000D03*
D12*
G04 #@! TO.P,C5,2*
X187890000Y-86550000D03*
G04 #@! TD*
D11*
G04 #@! TO.P,C6,1*
G04 #@! TO.N,N/C*
X163390000Y-86550000D03*
D12*
G04 #@! TO.P,C6,2*
X170890000Y-86550000D03*
G04 #@! TD*
D13*
G04 #@! TO.P,V7,1*
G04 #@! TO.N,N/C*
X158690000Y-95450000D03*
G04 #@! TD*
G04 #@! TO.P,V8,1*
G04 #@! TO.N,N/C*
X141590000Y-95350000D03*
G04 #@! TD*
D14*
G04 #@! TO.P,AC1,1*
G04 #@! TO.N,N/C*
X108500000Y-72600000D03*
G04 #@! TD*
G04 #@! TO.P,AC2,1*
G04 #@! TO.N,N/C*
X112590000Y-96050000D03*
G04 #@! TD*
D15*
G04 #@! TO.P,D2,1*
G04 #@! TO.N,N/C*
X104290000Y-62750000D03*
D16*
G04 #@! TO.P,D2,2*
X111910000Y-62750000D03*
G04 #@! TD*
D14*
G04 #@! TO.P,V7,1*
G04 #@! TO.N,N/C*
X154300000Y-96200000D03*
G04 #@! TD*
G04 #@! TO.P,V8,1*
G04 #@! TO.N,N/C*
X137200000Y-96100000D03*
G04 #@! TD*
D15*
G04 #@! TO.P,D1,1*
G04 #@! TO.N,N/C*
X111690000Y-73450000D03*
D16*
G04 #@! TO.P,D1,2*
X111690000Y-65830000D03*
G04 #@! TD*
D12*
G04 #@! TO.P,R3,1*
G04 #@! TO.N,N/C*
X162930000Y-75960000D03*
D17*
G04 #@! TO.P,R3,2*
X178170000Y-75960000D03*
G04 #@! TD*
D13*
G04 #@! TO.P,V5,1*
G04 #@! TO.N,N/C*
X192590000Y-95450000D03*
G04 #@! TD*
G04 #@! TO.P,V6,1*
G04 #@! TO.N,N/C*
X175690000Y-95450000D03*
G04 #@! TD*
D12*
G04 #@! TO.P,R5,1*
G04 #@! TO.N,N/C*
X126220000Y-75960000D03*
D17*
G04 #@! TO.P,R5,2*
X141460000Y-75960000D03*
G04 #@! TD*
D14*
G04 #@! TO.P,AC2,1*
G04 #@! TO.N,N/C*
X107470000Y-59450000D03*
G04 #@! TD*
G04 #@! TO.P,PROBE,1*
G04 #@! TO.N,N/C*
X196300000Y-72300000D03*
G04 #@! TD*
G04 #@! TO.P,V0,1*
G04 #@! TO.N,N/C*
X124690000Y-59050000D03*
G04 #@! TD*
D12*
G04 #@! TO.P,R7,1*
G04 #@! TO.N,N/C*
X103690000Y-90900000D03*
D17*
G04 #@! TO.P,R7,2*
X103690000Y-75660000D03*
G04 #@! TD*
D15*
G04 #@! TO.P,D3,1*
G04 #@! TO.N,N/C*
X111690000Y-83950000D03*
D16*
G04 #@! TO.P,D3,2*
X111690000Y-76330000D03*
G04 #@! TD*
D14*
G04 #@! TO.P,PROBE,1*
G04 #@! TO.N,N/C*
X150000000Y-51900000D03*
G04 #@! TD*
G04 #@! TO.P,AC2,1*
G04 #@! TO.N,N/C*
X104340000Y-59450000D03*
G04 #@! TD*
D15*
G04 #@! TO.P,D5,1*
G04 #@! TO.N,N/C*
X123210000Y-91950000D03*
D16*
G04 #@! TO.P,D5,2*
X115590000Y-91950000D03*
G04 #@! TD*
D14*
G04 #@! TO.P,TRIG,1*
G04 #@! TO.N,N/C*
X120890000Y-75150000D03*
G04 #@! TD*
G04 #@! TO.P,AC0,1*
G04 #@! TO.N,N/C*
X111600000Y-90950000D03*
G04 #@! TD*
D13*
G04 #@! TO.P,V1,1*
G04 #@! TO.N,N/C*
X141590000Y-56750000D03*
G04 #@! TD*
G04 #@! TO.P,V2,1*
G04 #@! TO.N,N/C*
X158690000Y-56750000D03*
G04 #@! TD*
D12*
G04 #@! TO.P,R2,1*
G04 #@! TO.N,N/C*
X181150000Y-76030000D03*
D17*
G04 #@! TO.P,R2,2*
X196390000Y-76030000D03*
G04 #@! TD*
D13*
G04 #@! TO.P,V3,1*
G04 #@! TO.N,N/C*
X175590000Y-56850000D03*
G04 #@! TD*
G04 #@! TO.P,V4,1*
G04 #@! TO.N,N/C*
X189700000Y-54900000D03*
G04 #@! TD*
D14*
G04 #@! TO.P,V0,1*
G04 #@! TO.N,N/C*
X124690000Y-55950000D03*
G04 #@! TD*
D13*
G04 #@! TO.P,V0,1*
G04 #@! TO.N,N/C*
X120190000Y-59250000D03*
G04 #@! TD*
D14*
G04 #@! TO.P,V3,1*
G04 #@! TO.N,N/C*
X171190000Y-55650000D03*
G04 #@! TD*
G04 #@! TO.P,V4,1*
G04 #@! TO.N,N/C*
X185250000Y-55450000D03*
G04 #@! TD*
D12*
G04 #@! TO.P,R1,1*
G04 #@! TO.N,N/C*
X146890000Y-51850000D03*
D17*
G04 #@! TO.P,R1,2*
X131650000Y-51850000D03*
G04 #@! TD*
D11*
G04 #@! TO.P,C1,1*
G04 #@! TO.N,N/C*
X136790000Y-65450000D03*
D12*
G04 #@! TO.P,C1,2*
X129290000Y-65450000D03*
G04 #@! TD*
D11*
G04 #@! TO.P,C2,1*
G04 #@! TO.N,N/C*
X153790000Y-65450000D03*
D12*
G04 #@! TO.P,C2,2*
X146290000Y-65450000D03*
G04 #@! TD*
D11*
G04 #@! TO.P,C3,1*
G04 #@! TO.N,N/C*
X170890000Y-65550000D03*
D12*
G04 #@! TO.P,C3,2*
X163390000Y-65550000D03*
G04 #@! TD*
D11*
G04 #@! TO.P,C4,1*
G04 #@! TO.N,N/C*
X187890000Y-65550000D03*
D12*
G04 #@! TO.P,C4,2*
X180390000Y-65550000D03*
G04 #@! TD*
D15*
G04 #@! TO.P,D4,1*
G04 #@! TO.N,N/C*
X123190000Y-96050000D03*
D16*
G04 #@! TO.P,D4,2*
X115570000Y-96050000D03*
G04 #@! TD*
D14*
G04 #@! TO.P,PROBE,1*
G04 #@! TO.N,N/C*
X196200000Y-79700000D03*
G04 #@! TD*
D18*
G04 #@! TO.P,C12,1*
G04 #@! TO.N,N/C*
X121790000Y-88650000D03*
G04 #@! TO.P,C12,2*
X121790000Y-78650000D03*
G04 #@! TD*
D12*
G04 #@! TO.P,R6,1*
G04 #@! TO.N,N/C*
X107900000Y-75700000D03*
D17*
G04 #@! TO.P,R6,2*
X107900000Y-90940000D03*
G04 #@! TD*
D12*
G04 #@! TO.P,R4,1*
G04 #@! TO.N,N/C*
X144580000Y-75960000D03*
D17*
G04 #@! TO.P,R4,2*
X159820000Y-75960000D03*
G04 #@! TD*
D18*
G04 #@! TO.P,C11,1*
G04 #@! TO.N,N/C*
X121790000Y-71450000D03*
G04 #@! TO.P,C11,2*
X121790000Y-63950000D03*
G04 #@! TD*
G04 #@! TO.P,C10,1*
G04 #@! TO.N,N/C*
X116190000Y-88050000D03*
G04 #@! TO.P,C10,2*
X116190000Y-80550000D03*
G04 #@! TD*
D11*
G04 #@! TO.P,C7,1*
G04 #@! TO.N,N/C*
X146390000Y-86550000D03*
D12*
G04 #@! TO.P,C7,2*
X153890000Y-86550000D03*
G04 #@! TD*
D19*
G04 #@! TO.P,C9,1*
G04 #@! TO.N,N/C*
X117290000Y-68250000D03*
G04 #@! TO.P,C9,2*
X117290000Y-63250000D03*
G04 #@! TD*
D14*
G04 #@! TO.P,V5,1*
G04 #@! TO.N,N/C*
X188300000Y-96100000D03*
G04 #@! TD*
G04 #@! TO.P,V6,1*
G04 #@! TO.N,N/C*
X171500000Y-96200000D03*
G04 #@! TD*
G04 #@! TO.P,V1,1*
G04 #@! TO.N,N/C*
X137290000Y-55450000D03*
G04 #@! TD*
G04 #@! TO.P,V2,1*
G04 #@! TO.N,N/C*
X154390000Y-55550000D03*
G04 #@! TD*
D11*
G04 #@! TO.P,C8,1*
G04 #@! TO.N,N/C*
X129390000Y-86550000D03*
D12*
G04 #@! TO.P,C8,2*
X136890000Y-86550000D03*
G04 #@! TD*
D14*
G04 #@! TO.P,PROBE,1*
G04 #@! TO.N,PROBE*
X196200000Y-131300000D03*
G04 #@! TD*
G04 #@! TO.P,AC2,1*
G04 #@! TO.N,AC2*
X104340000Y-111050000D03*
G04 #@! TD*
G04 #@! TO.P,AC2,1*
G04 #@! TO.N,AC2*
X107470000Y-111050000D03*
G04 #@! TD*
D17*
G04 #@! TO.P,R7,2*
G04 #@! TO.N,AC1*
X103690000Y-127260000D03*
D12*
G04 #@! TO.P,R7,1*
G04 #@! TO.N,AC0*
X103690000Y-142500000D03*
G04 #@! TD*
D17*
G04 #@! TO.P,R6,2*
G04 #@! TO.N,AC0*
X107900000Y-142540000D03*
D12*
G04 #@! TO.P,R6,1*
G04 #@! TO.N,AC1*
X107900000Y-127300000D03*
G04 #@! TD*
D17*
G04 #@! TO.P,R5,2*
G04 #@! TO.N,Net-(R4-Pad1)*
X141460000Y-127560000D03*
D12*
G04 #@! TO.P,R5,1*
G04 #@! TO.N,V8*
X126220000Y-127560000D03*
G04 #@! TD*
D17*
G04 #@! TO.P,R4,2*
G04 #@! TO.N,Net-(R3-Pad1)*
X159820000Y-127560000D03*
D12*
G04 #@! TO.P,R4,1*
G04 #@! TO.N,Net-(R4-Pad1)*
X144580000Y-127560000D03*
G04 #@! TD*
D17*
G04 #@! TO.P,R3,2*
G04 #@! TO.N,Net-(R2-Pad1)*
X178170000Y-127560000D03*
D12*
G04 #@! TO.P,R3,1*
G04 #@! TO.N,Net-(R3-Pad1)*
X162930000Y-127560000D03*
G04 #@! TD*
D17*
G04 #@! TO.P,R2,2*
G04 #@! TO.N,PROBE*
X196390000Y-127630000D03*
D12*
G04 #@! TO.P,R2,1*
G04 #@! TO.N,Net-(R2-Pad1)*
X181150000Y-127630000D03*
G04 #@! TD*
D17*
G04 #@! TO.P,R1,2*
G04 #@! TO.N,V0*
X131650000Y-103450000D03*
D12*
G04 #@! TO.P,R1,1*
G04 #@! TO.N,PROBE*
X146890000Y-103450000D03*
G04 #@! TD*
D14*
G04 #@! TO.P,AC0,1*
G04 #@! TO.N,AC0*
X111600000Y-142550000D03*
G04 #@! TD*
G04 #@! TO.P,TRIG,1*
G04 #@! TO.N,TRIG*
X120890000Y-126750000D03*
G04 #@! TD*
D13*
G04 #@! TO.P,V8,1*
G04 #@! TO.N,V8*
X141590000Y-146950000D03*
G04 #@! TD*
G04 #@! TO.P,V7,1*
G04 #@! TO.N,V7*
X158690000Y-147050000D03*
G04 #@! TD*
G04 #@! TO.P,V6,1*
G04 #@! TO.N,V6*
X175690000Y-147050000D03*
G04 #@! TD*
G04 #@! TO.P,V5,1*
G04 #@! TO.N,V5*
X192590000Y-147050000D03*
G04 #@! TD*
G04 #@! TO.P,V4,1*
G04 #@! TO.N,V4*
X189700000Y-106500000D03*
G04 #@! TD*
G04 #@! TO.P,V3,1*
G04 #@! TO.N,V3*
X175590000Y-108450000D03*
G04 #@! TD*
G04 #@! TO.P,V2,1*
G04 #@! TO.N,V2*
X158690000Y-108350000D03*
G04 #@! TD*
G04 #@! TO.P,V1,1*
G04 #@! TO.N,V1*
X141590000Y-108350000D03*
G04 #@! TD*
G04 #@! TO.P,V0,1*
G04 #@! TO.N,V0*
X120190000Y-110850000D03*
G04 #@! TD*
D14*
G04 #@! TO.P,V0,1*
G04 #@! TO.N,V0*
X124690000Y-107550000D03*
G04 #@! TD*
G04 #@! TO.P,PROBE,1*
G04 #@! TO.N,PROBE*
X150000000Y-103700000D03*
G04 #@! TD*
G04 #@! TO.P,V8,1*
G04 #@! TO.N,V8*
X137200000Y-147700000D03*
G04 #@! TD*
G04 #@! TO.P,V7,1*
G04 #@! TO.N,V7*
X154300000Y-147800000D03*
G04 #@! TD*
G04 #@! TO.P,V6,1*
G04 #@! TO.N,V6*
X171500000Y-147800000D03*
G04 #@! TD*
G04 #@! TO.P,V5,1*
G04 #@! TO.N,V5*
X188300000Y-147700000D03*
G04 #@! TD*
G04 #@! TO.P,V4,1*
G04 #@! TO.N,V4*
X185250000Y-107050000D03*
G04 #@! TD*
G04 #@! TO.P,V3,1*
G04 #@! TO.N,V3*
X171190000Y-107250000D03*
G04 #@! TD*
G04 #@! TO.P,V2,1*
G04 #@! TO.N,V2*
X154390000Y-107150000D03*
G04 #@! TD*
G04 #@! TO.P,V1,1*
G04 #@! TO.N,V1*
X137290000Y-107050000D03*
G04 #@! TD*
G04 #@! TO.P,V0,1*
G04 #@! TO.N,V0*
X124690000Y-110650000D03*
G04 #@! TD*
G04 #@! TO.P,PROBE,1*
G04 #@! TO.N,PROBE*
X196300000Y-123900000D03*
G04 #@! TD*
G04 #@! TO.P,AC2,1*
G04 #@! TO.N,AC2*
X112590000Y-147650000D03*
G04 #@! TD*
G04 #@! TO.P,AC1,1*
G04 #@! TO.N,AC1*
X108500000Y-124200000D03*
G04 #@! TD*
D16*
G04 #@! TO.P,D5,2*
G04 #@! TO.N,Net-(C10-Pad1)*
X115590000Y-143550000D03*
D15*
G04 #@! TO.P,D5,1*
G04 #@! TO.N,V8*
X123210000Y-143550000D03*
G04 #@! TD*
D16*
G04 #@! TO.P,D4,2*
G04 #@! TO.N,AC2*
X115570000Y-147650000D03*
D15*
G04 #@! TO.P,D4,1*
G04 #@! TO.N,V8*
X123190000Y-147650000D03*
G04 #@! TD*
D16*
G04 #@! TO.P,D3,2*
G04 #@! TO.N,AC1*
X111690000Y-127930000D03*
D15*
G04 #@! TO.P,D3,1*
G04 #@! TO.N,Net-(C10-Pad1)*
X111690000Y-135550000D03*
G04 #@! TD*
D16*
G04 #@! TO.P,D2,2*
G04 #@! TO.N,V0*
X111910000Y-114350000D03*
D15*
G04 #@! TO.P,D2,1*
G04 #@! TO.N,AC2*
X104290000Y-114350000D03*
G04 #@! TD*
D16*
G04 #@! TO.P,D1,2*
G04 #@! TO.N,V0*
X111690000Y-117430000D03*
D15*
G04 #@! TO.P,D1,1*
G04 #@! TO.N,AC1*
X111690000Y-125050000D03*
G04 #@! TD*
D18*
G04 #@! TO.P,C12,2*
G04 #@! TO.N,TRIG*
X121790000Y-130250000D03*
G04 #@! TO.P,C12,1*
G04 #@! TO.N,Net-(C10-Pad1)*
X121790000Y-140250000D03*
G04 #@! TD*
G04 #@! TO.P,C11,2*
G04 #@! TO.N,V0*
X121790000Y-115550000D03*
G04 #@! TO.P,C11,1*
G04 #@! TO.N,TRIG*
X121790000Y-123050000D03*
G04 #@! TD*
G04 #@! TO.P,C10,2*
G04 #@! TO.N,TRIG*
X116190000Y-132150000D03*
G04 #@! TO.P,C10,1*
G04 #@! TO.N,Net-(C10-Pad1)*
X116190000Y-139650000D03*
G04 #@! TD*
D19*
G04 #@! TO.P,C9,2*
G04 #@! TO.N,V0*
X117290000Y-114850000D03*
G04 #@! TO.P,C9,1*
G04 #@! TO.N,TRIG*
X117290000Y-119850000D03*
G04 #@! TD*
D12*
G04 #@! TO.P,C8,2*
G04 #@! TO.N,V7*
X136890000Y-138150000D03*
D11*
G04 #@! TO.P,C8,1*
G04 #@! TO.N,V8*
X129390000Y-138150000D03*
G04 #@! TD*
D12*
G04 #@! TO.P,C7,2*
G04 #@! TO.N,V6*
X153890000Y-138150000D03*
D11*
G04 #@! TO.P,C7,1*
G04 #@! TO.N,V7*
X146390000Y-138150000D03*
G04 #@! TD*
D12*
G04 #@! TO.P,C6,2*
G04 #@! TO.N,V5*
X170890000Y-138150000D03*
D11*
G04 #@! TO.P,C6,1*
G04 #@! TO.N,V6*
X163390000Y-138150000D03*
G04 #@! TD*
D12*
G04 #@! TO.P,C5,2*
G04 #@! TO.N,V4*
X187890000Y-138150000D03*
D11*
G04 #@! TO.P,C5,1*
G04 #@! TO.N,V5*
X180390000Y-138150000D03*
G04 #@! TD*
D12*
G04 #@! TO.P,C4,2*
G04 #@! TO.N,V3*
X180390000Y-117150000D03*
D11*
G04 #@! TO.P,C4,1*
G04 #@! TO.N,V4*
X187890000Y-117150000D03*
G04 #@! TD*
D12*
G04 #@! TO.P,C3,2*
G04 #@! TO.N,V2*
X163390000Y-117150000D03*
D11*
G04 #@! TO.P,C3,1*
G04 #@! TO.N,V3*
X170890000Y-117150000D03*
G04 #@! TD*
D12*
G04 #@! TO.P,C2,2*
G04 #@! TO.N,V1*
X146290000Y-117050000D03*
D11*
G04 #@! TO.P,C2,1*
G04 #@! TO.N,V2*
X153790000Y-117050000D03*
G04 #@! TD*
D12*
G04 #@! TO.P,C1,2*
G04 #@! TO.N,V0*
X129290000Y-117050000D03*
D11*
G04 #@! TO.P,C1,1*
G04 #@! TO.N,V1*
X136790000Y-117050000D03*
G04 #@! TD*
D20*
G04 #@! TO.N,*
X117900000Y-55600000D03*
X196300000Y-81800000D03*
G04 #@! TO.N,V0*
X117900000Y-107200000D03*
G04 #@! TO.N,PROBE*
X196300000Y-133400000D03*
G04 #@! TD*
D21*
G04 #@! TO.N,*
X126390000Y-65450000D02*
X120190000Y-59250000D01*
X129290000Y-65450000D02*
X126390000Y-65450000D01*
X121790000Y-61950000D02*
X124690000Y-59050000D01*
X121790000Y-63950000D02*
X121790000Y-61950000D01*
X124690000Y-59050000D02*
X124690000Y-55950000D01*
X127550000Y-55950000D02*
X131650000Y-51850000D01*
X124690000Y-55950000D02*
X127550000Y-55950000D01*
X113110000Y-63950000D02*
X111910000Y-62750000D01*
X121790000Y-63950000D02*
X113110000Y-63950000D01*
X118270000Y-59250000D02*
X111690000Y-65830000D01*
X120190000Y-59250000D02*
X118270000Y-59250000D01*
D22*
X117900000Y-56960000D02*
X120190000Y-59250000D01*
X111690000Y-62970000D02*
X111910000Y-62750000D01*
X111690000Y-65830000D02*
X111690000Y-62970000D01*
X124340000Y-55600000D02*
X124690000Y-55950000D01*
X117900000Y-55600000D02*
X124340000Y-55600000D01*
X123490000Y-55950000D02*
X120190000Y-59250000D01*
X124690000Y-55950000D02*
X123490000Y-55950000D01*
X117290000Y-62150000D02*
X120190000Y-59250000D01*
X117290000Y-63250000D02*
X117290000Y-62150000D01*
X117900000Y-55600000D02*
X117900000Y-56960000D01*
D21*
X136790000Y-65450000D02*
X146290000Y-65450000D01*
X141590000Y-60750000D02*
X146290000Y-65450000D01*
X141590000Y-56750000D02*
X141590000Y-60750000D01*
X141590000Y-60650000D02*
X136790000Y-65450000D01*
X141590000Y-56750000D02*
X141590000Y-60650000D01*
X138590000Y-56750000D02*
X137290000Y-55450000D01*
X141590000Y-56750000D02*
X138590000Y-56750000D01*
X163290000Y-65450000D02*
X163390000Y-65550000D01*
X153790000Y-65450000D02*
X163290000Y-65450000D01*
X163290000Y-64532602D02*
X163290000Y-65450000D01*
X158690000Y-59932602D02*
X163290000Y-64532602D01*
X158690000Y-56750000D02*
X158690000Y-59932602D01*
X158690000Y-60550000D02*
X153790000Y-65450000D01*
X158690000Y-56750000D02*
X158690000Y-60550000D01*
X158690000Y-56750000D02*
X155590000Y-56750000D01*
X155590000Y-56750000D02*
X154390000Y-55550000D01*
X172390000Y-56850000D02*
X171190000Y-55650000D01*
X175590000Y-60850000D02*
X170890000Y-65550000D01*
X175590000Y-56850000D02*
X175590000Y-60850000D01*
X170890000Y-65550000D02*
X180390000Y-65550000D01*
X175590000Y-60750000D02*
X180390000Y-65550000D01*
X175590000Y-56850000D02*
X175590000Y-60750000D01*
X175590000Y-56850000D02*
X172390000Y-56850000D01*
D22*
X187890000Y-65550000D02*
X187890000Y-86550000D01*
X187890000Y-58090000D02*
X185250000Y-55450000D01*
X187890000Y-65550000D02*
X187890000Y-58090000D01*
X185800000Y-54900000D02*
X185250000Y-55450000D01*
X189700000Y-54900000D02*
X185800000Y-54900000D01*
X187890000Y-56710000D02*
X189700000Y-54900000D01*
X187890000Y-65550000D02*
X187890000Y-56710000D01*
X170890000Y-86550000D02*
X180390000Y-86550000D01*
X188300000Y-94460000D02*
X180390000Y-86550000D01*
X188300000Y-96100000D02*
X188300000Y-94460000D01*
X188950000Y-95450000D02*
X188300000Y-96100000D01*
X192590000Y-95450000D02*
X188950000Y-95450000D01*
D21*
X153890000Y-86550000D02*
X163390000Y-86550000D01*
D22*
X171500000Y-94660000D02*
X163390000Y-86550000D01*
X171500000Y-96200000D02*
X171500000Y-94660000D01*
X172250000Y-95450000D02*
X171500000Y-96200000D01*
X175690000Y-95450000D02*
X172250000Y-95450000D01*
D21*
X136890000Y-86550000D02*
X146390000Y-86550000D01*
D22*
X154300000Y-94460000D02*
X146390000Y-86550000D01*
X154300000Y-96200000D02*
X154300000Y-94460000D01*
X155050000Y-95450000D02*
X154300000Y-96200000D01*
X158690000Y-95450000D02*
X155050000Y-95450000D01*
X129390000Y-86550000D02*
X129390000Y-88750000D01*
X129390000Y-89850000D02*
X123190000Y-96050000D01*
X129390000Y-86550000D02*
X129390000Y-89850000D01*
X129390000Y-79130000D02*
X126220000Y-75960000D01*
X129390000Y-86550000D02*
X129390000Y-79130000D01*
X137200000Y-94360000D02*
X129390000Y-86550000D01*
X137200000Y-96100000D02*
X137200000Y-94360000D01*
X137950000Y-95350000D02*
X137200000Y-96100000D01*
X141590000Y-95350000D02*
X137950000Y-95350000D01*
D23*
X123190000Y-91970000D02*
X123210000Y-91950000D01*
X123190000Y-96050000D02*
X123190000Y-91970000D01*
X120490000Y-71450000D02*
X117290000Y-68250000D01*
X121790000Y-71450000D02*
X120490000Y-71450000D01*
X119890000Y-80550000D02*
X121790000Y-78650000D01*
X116190000Y-80550000D02*
X119890000Y-80550000D01*
X120890000Y-77750000D02*
X121790000Y-78650000D01*
X120890000Y-75150000D02*
X120890000Y-77750000D01*
X120890000Y-72350000D02*
X121790000Y-71450000D01*
X120890000Y-75150000D02*
X120890000Y-72350000D01*
X121790000Y-78650000D02*
X121790000Y-71450000D01*
X121790000Y-74950000D02*
X116190000Y-80550000D01*
X121790000Y-71450000D02*
X121790000Y-74950000D01*
X121190000Y-88050000D02*
X121533698Y-88393698D01*
X116190000Y-88050000D02*
X121190000Y-88050000D01*
X115590000Y-88650000D02*
X116190000Y-88050000D01*
X115590000Y-91950000D02*
X115590000Y-88650000D01*
X115790000Y-88050000D02*
X111690000Y-83950000D01*
X116190000Y-88050000D02*
X115790000Y-88050000D01*
X107860000Y-75660000D02*
X107900000Y-75700000D01*
X103690000Y-75660000D02*
X107860000Y-75660000D01*
X107900000Y-73200000D02*
X108500000Y-72600000D01*
X107900000Y-75700000D02*
X107900000Y-73200000D01*
X111690000Y-76330000D02*
X111690000Y-73450000D01*
X109350000Y-73450000D02*
X108500000Y-72600000D01*
X111690000Y-73450000D02*
X109350000Y-73450000D01*
X111060000Y-75700000D02*
X111690000Y-76330000D01*
X107900000Y-75700000D02*
X111060000Y-75700000D01*
X115570000Y-96050000D02*
X112590000Y-96050000D01*
X104290000Y-59500000D02*
X104340000Y-59450000D01*
X104290000Y-62750000D02*
X104290000Y-59500000D01*
X104340000Y-59450000D02*
X107470000Y-59450000D01*
X196300000Y-79800000D02*
X196200000Y-79700000D01*
X196300000Y-81800000D02*
X196300000Y-79800000D01*
X196300000Y-75940000D02*
X196390000Y-76030000D01*
X196300000Y-72300000D02*
X196300000Y-75940000D01*
X196390000Y-79510000D02*
X196200000Y-79700000D01*
X196390000Y-76030000D02*
X196390000Y-79510000D01*
X149950000Y-51850000D02*
X150000000Y-51900000D01*
X146890000Y-51850000D02*
X149950000Y-51850000D01*
X107960000Y-90900000D02*
X108000000Y-90940000D01*
X103690000Y-90900000D02*
X107960000Y-90900000D01*
X107910000Y-90950000D02*
X107900000Y-90940000D01*
X111600000Y-90950000D02*
X107910000Y-90950000D01*
X178240000Y-76030000D02*
X178170000Y-75960000D01*
X181150000Y-76030000D02*
X178240000Y-76030000D01*
X162930000Y-75960000D02*
X159820000Y-75960000D01*
X144580000Y-75960000D02*
X141460000Y-75960000D01*
D21*
G04 #@! TO.N,V0*
X126390000Y-117050000D02*
X120190000Y-110850000D01*
X129290000Y-117050000D02*
X126390000Y-117050000D01*
X121790000Y-113550000D02*
X124690000Y-110650000D01*
X121790000Y-115550000D02*
X121790000Y-113550000D01*
X124690000Y-110650000D02*
X124690000Y-107550000D01*
X127550000Y-107550000D02*
X131650000Y-103450000D01*
X124690000Y-107550000D02*
X127550000Y-107550000D01*
X113110000Y-115550000D02*
X111910000Y-114350000D01*
X121790000Y-115550000D02*
X113110000Y-115550000D01*
X118270000Y-110850000D02*
X111690000Y-117430000D01*
X120190000Y-110850000D02*
X118270000Y-110850000D01*
D22*
X117900000Y-108560000D02*
X120190000Y-110850000D01*
X117900000Y-107200000D02*
X117900000Y-108560000D01*
X111690000Y-114570000D02*
X111910000Y-114350000D01*
X111690000Y-117430000D02*
X111690000Y-114570000D01*
X124340000Y-107200000D02*
X124690000Y-107550000D01*
X117900000Y-107200000D02*
X124340000Y-107200000D01*
X123490000Y-107550000D02*
X120190000Y-110850000D01*
X124690000Y-107550000D02*
X123490000Y-107550000D01*
X117290000Y-113750000D02*
X120190000Y-110850000D01*
X117290000Y-114850000D02*
X117290000Y-113750000D01*
D21*
G04 #@! TO.N,V1*
X136790000Y-117050000D02*
X146290000Y-117050000D01*
X141590000Y-112350000D02*
X146290000Y-117050000D01*
X141590000Y-108350000D02*
X141590000Y-112350000D01*
X141590000Y-112250000D02*
X136790000Y-117050000D01*
X141590000Y-108350000D02*
X141590000Y-112250000D01*
X138590000Y-108350000D02*
X137290000Y-107050000D01*
X141590000Y-108350000D02*
X138590000Y-108350000D01*
G04 #@! TO.N,V2*
X163290000Y-117050000D02*
X163390000Y-117150000D01*
X153790000Y-117050000D02*
X163290000Y-117050000D01*
X163290000Y-116132602D02*
X163290000Y-117050000D01*
X158690000Y-111532602D02*
X163290000Y-116132602D01*
X158690000Y-108350000D02*
X158690000Y-111532602D01*
X158690000Y-112150000D02*
X153790000Y-117050000D01*
X158690000Y-108350000D02*
X158690000Y-112150000D01*
X158690000Y-108350000D02*
X155590000Y-108350000D01*
X155590000Y-108350000D02*
X154390000Y-107150000D01*
G04 #@! TO.N,V3*
X175590000Y-112450000D02*
X170890000Y-117150000D01*
X175590000Y-108450000D02*
X175590000Y-112450000D01*
X170890000Y-117150000D02*
X180390000Y-117150000D01*
X175590000Y-112350000D02*
X180390000Y-117150000D01*
X175590000Y-108450000D02*
X175590000Y-112350000D01*
X172390000Y-108450000D02*
X171190000Y-107250000D01*
X175590000Y-108450000D02*
X172390000Y-108450000D01*
D22*
G04 #@! TO.N,V4*
X187890000Y-117150000D02*
X187890000Y-138150000D01*
X187890000Y-109690000D02*
X185250000Y-107050000D01*
X187890000Y-117150000D02*
X187890000Y-109690000D01*
X185800000Y-106500000D02*
X185250000Y-107050000D01*
X189700000Y-106500000D02*
X185800000Y-106500000D01*
X187890000Y-108310000D02*
X189700000Y-106500000D01*
X187890000Y-117150000D02*
X187890000Y-108310000D01*
G04 #@! TO.N,V5*
X170890000Y-138150000D02*
X180390000Y-138150000D01*
X188300000Y-146060000D02*
X180390000Y-138150000D01*
X188300000Y-147700000D02*
X188300000Y-146060000D01*
X188950000Y-147050000D02*
X188300000Y-147700000D01*
X192590000Y-147050000D02*
X188950000Y-147050000D01*
D21*
G04 #@! TO.N,V6*
X153890000Y-138150000D02*
X163390000Y-138150000D01*
D22*
X171500000Y-146260000D02*
X163390000Y-138150000D01*
X171500000Y-147800000D02*
X171500000Y-146260000D01*
X172250000Y-147050000D02*
X171500000Y-147800000D01*
X175690000Y-147050000D02*
X172250000Y-147050000D01*
D21*
G04 #@! TO.N,V7*
X136890000Y-138150000D02*
X146390000Y-138150000D01*
D22*
X154300000Y-146060000D02*
X146390000Y-138150000D01*
X154300000Y-147800000D02*
X154300000Y-146060000D01*
X155050000Y-147050000D02*
X154300000Y-147800000D01*
X158690000Y-147050000D02*
X155050000Y-147050000D01*
G04 #@! TO.N,V8*
X129390000Y-138150000D02*
X129390000Y-140350000D01*
X129390000Y-141450000D02*
X123190000Y-147650000D01*
X129390000Y-138150000D02*
X129390000Y-141450000D01*
X129390000Y-130730000D02*
X126220000Y-127560000D01*
X129390000Y-138150000D02*
X129390000Y-130730000D01*
X137200000Y-145960000D02*
X129390000Y-138150000D01*
X137200000Y-147700000D02*
X137200000Y-145960000D01*
X137950000Y-146950000D02*
X137200000Y-147700000D01*
X141590000Y-146950000D02*
X137950000Y-146950000D01*
D23*
X123190000Y-143570000D02*
X123210000Y-143550000D01*
X123190000Y-147650000D02*
X123190000Y-143570000D01*
G04 #@! TO.N,TRIG*
X120490000Y-123050000D02*
X117290000Y-119850000D01*
X121790000Y-123050000D02*
X120490000Y-123050000D01*
X119890000Y-132150000D02*
X121790000Y-130250000D01*
X116190000Y-132150000D02*
X119890000Y-132150000D01*
X120890000Y-129350000D02*
X121790000Y-130250000D01*
X120890000Y-126750000D02*
X120890000Y-129350000D01*
X120890000Y-123950000D02*
X121790000Y-123050000D01*
X120890000Y-126750000D02*
X120890000Y-123950000D01*
X121790000Y-130250000D02*
X121790000Y-123050000D01*
X121790000Y-126550000D02*
X116190000Y-132150000D01*
X121790000Y-123050000D02*
X121790000Y-126550000D01*
G04 #@! TO.N,Net-(C10-Pad1)*
X121190000Y-139650000D02*
X121533698Y-139993698D01*
X116190000Y-139650000D02*
X121190000Y-139650000D01*
X115590000Y-140250000D02*
X116190000Y-139650000D01*
X115590000Y-143550000D02*
X115590000Y-140250000D01*
X115790000Y-139650000D02*
X111690000Y-135550000D01*
X116190000Y-139650000D02*
X115790000Y-139650000D01*
G04 #@! TO.N,AC1*
X107860000Y-127260000D02*
X107900000Y-127300000D01*
X103690000Y-127260000D02*
X107860000Y-127260000D01*
X107900000Y-124800000D02*
X108500000Y-124200000D01*
X107900000Y-127300000D02*
X107900000Y-124800000D01*
X111690000Y-127930000D02*
X111690000Y-125050000D01*
X109350000Y-125050000D02*
X108500000Y-124200000D01*
X111690000Y-125050000D02*
X109350000Y-125050000D01*
X111060000Y-127300000D02*
X111690000Y-127930000D01*
X107900000Y-127300000D02*
X111060000Y-127300000D01*
G04 #@! TO.N,AC2*
X115570000Y-147650000D02*
X112590000Y-147650000D01*
X104290000Y-111100000D02*
X104340000Y-111050000D01*
X104290000Y-114350000D02*
X104290000Y-111100000D01*
X104340000Y-111050000D02*
X107470000Y-111050000D01*
G04 #@! TO.N,PROBE*
X196300000Y-127540000D02*
X196390000Y-127630000D01*
X196300000Y-123900000D02*
X196300000Y-127540000D01*
X196390000Y-131110000D02*
X196200000Y-131300000D01*
X196390000Y-127630000D02*
X196390000Y-131110000D01*
X196300000Y-131400000D02*
X196200000Y-131300000D01*
X196300000Y-133400000D02*
X196300000Y-131400000D01*
X149950000Y-103450000D02*
X150000000Y-103500000D01*
X146890000Y-103450000D02*
X149950000Y-103450000D01*
G04 #@! TO.N,AC0*
X107960000Y-142500000D02*
X108000000Y-142540000D01*
X103690000Y-142500000D02*
X107960000Y-142500000D01*
X107910000Y-142550000D02*
X107900000Y-142540000D01*
X111600000Y-142550000D02*
X107910000Y-142550000D01*
G04 #@! TO.N,Net-(R2-Pad1)*
X178240000Y-127630000D02*
X178170000Y-127560000D01*
X181150000Y-127630000D02*
X178240000Y-127630000D01*
G04 #@! TO.N,Net-(R3-Pad1)*
X162930000Y-127560000D02*
X159820000Y-127560000D01*
G04 #@! TO.N,Net-(R4-Pad1)*
X144580000Y-127560000D02*
X141460000Y-127560000D01*
G04 #@! TD*
M02*
