M48
; DRILL file {KiCad 5.1.4-e60b266~84~ubuntu16.04.1} date Wed 09 Oct 2019 11:36:36 AM CDT
; FORMAT={-:-/ absolute / metric / decimal}
; #@! TF.CreationDate,2019-10-09T11:36:36-05:00
; #@! TF.GenerationSoftware,Kicad,Pcbnew,5.1.4-e60b266~84~ubuntu16.04.1
; #@! TF.FileFunction,Plated,1,2,PTH
FMAT,2
METRIC
T1C0.400
T2C0.800
T3C0.800
T4C1.000
T5C1.100
T6C1.200
T7C1.999
%
G90
G05
T1
X117.9Y-55.6
X117.9Y-107.2
X196.3Y-81.8
X196.3Y-133.4
T2
X117.29Y-114.85
X117.29Y-119.85
X117.29Y-63.25
X117.29Y-68.25
T3
X171.5Y-96.2
X104.34Y-59.45
X154.3Y-96.2
X196.2Y-131.3
X185.25Y-107.05
X154.3Y-147.8
X137.2Y-147.7
X104.34Y-111.05
X171.5Y-147.8
X124.69Y-59.05
X150.0Y-103.7
X111.6Y-90.95
X112.59Y-96.05
X108.5Y-72.6
X154.39Y-55.55
X171.19Y-107.25
X196.2Y-79.7
X124.69Y-110.65
X124.69Y-107.55
X108.5Y-124.2
X154.39Y-107.15
X111.6Y-142.55
X120.89Y-75.15
X137.2Y-96.1
X185.25Y-55.45
X112.59Y-147.65
X137.29Y-55.45
X107.47Y-59.45
X150.0Y-51.9
X137.29Y-107.05
X188.3Y-147.7
X120.89Y-126.75
X188.3Y-96.1
X171.19Y-55.65
X107.47Y-111.05
X196.3Y-123.9
X124.69Y-55.95
X196.3Y-72.3
T4
X116.19Y-132.15
X116.19Y-139.65
X121.79Y-63.95
X121.79Y-71.45
X121.79Y-115.55
X121.79Y-123.05
X121.79Y-78.65
X121.79Y-88.65
X121.79Y-130.25
X121.79Y-140.25
X116.19Y-80.55
X116.19Y-88.05
T5
X111.69Y-117.43
X111.69Y-125.05
X111.69Y-65.83
X111.69Y-73.45
X115.59Y-91.95
X123.21Y-91.95
X115.57Y-147.65
X123.19Y-147.65
X104.29Y-62.75
X111.91Y-62.75
X115.59Y-143.55
X123.21Y-143.55
X104.29Y-114.35
X111.91Y-114.35
X111.69Y-76.33
X111.69Y-83.95
X115.57Y-96.05
X123.19Y-96.05
X111.69Y-127.93
X111.69Y-135.55
T6
X131.65Y-103.45
X146.89Y-103.45
X162.93Y-75.96
X178.17Y-75.96
X163.39Y-86.55
X170.89Y-86.55
X180.39Y-65.55
X187.89Y-65.55
X146.29Y-65.45
X153.79Y-65.45
X126.22Y-127.56
X141.46Y-127.56
X146.39Y-86.55
X153.89Y-86.55
X129.39Y-138.15
X136.89Y-138.15
X180.39Y-138.15
X187.89Y-138.15
X146.39Y-138.15
X153.89Y-138.15
X181.15Y-76.03
X196.39Y-76.03
X180.39Y-117.15
X187.89Y-117.15
X103.69Y-75.66
X103.69Y-90.9
X107.9Y-75.7
X107.9Y-90.94
X146.29Y-117.05
X153.79Y-117.05
X129.39Y-86.55
X136.89Y-86.55
X129.29Y-65.45
X136.79Y-65.45
X103.69Y-127.26
X103.69Y-142.5
X181.15Y-127.63
X196.39Y-127.63
X144.58Y-75.96
X159.82Y-75.96
X163.39Y-138.15
X170.89Y-138.15
X131.65Y-51.85
X146.89Y-51.85
X162.93Y-127.56
X178.17Y-127.56
X163.39Y-65.55
X170.89Y-65.55
X126.22Y-75.96
X141.46Y-75.96
X144.58Y-127.56
X159.82Y-127.56
X163.39Y-117.15
X170.89Y-117.15
X180.39Y-86.55
X187.89Y-86.55
X107.9Y-127.3
X107.9Y-142.54
X129.29Y-117.05
X136.79Y-117.05
T7
X141.59Y-95.35
X141.59Y-56.75
X158.69Y-108.35
X192.59Y-147.05
X192.59Y-95.45
X175.69Y-95.45
X175.59Y-108.45
X158.69Y-95.45
X158.69Y-56.75
X141.59Y-146.95
X141.59Y-108.35
X189.7Y-54.9
X120.19Y-110.85
X175.59Y-56.85
X175.69Y-147.05
X158.69Y-147.05
X120.19Y-59.25
X189.7Y-106.5
T0
M30
