G04 #@! TF.GenerationSoftware,KiCad,Pcbnew,5.1.4-e60b266~84~ubuntu16.04.1*
G04 #@! TF.CreationDate,2019-10-08T23:41:47-05:00*
G04 #@! TF.ProjectId,8cap,38636170-2e6b-4696-9361-645f70636258,rev?*
G04 #@! TF.SameCoordinates,Original*
G04 #@! TF.FileFunction,Soldermask,Top*
G04 #@! TF.FilePolarity,Negative*
%FSLAX46Y46*%
G04 Gerber Fmt 4.6, Leading zero omitted, Abs format (unit mm)*
G04 Created by KiCad (PCBNEW 5.1.4-e60b266~84~ubuntu16.04.1) date 2019-10-08 23:41:47*
%MOMM*%
%LPD*%
G04 APERTURE LIST*
%ADD10C,0.050000*%
%ADD11C,0.150000*%
G04 APERTURE END LIST*
D10*
X100000000Y-150000000D02*
X100000000Y-100000000D01*
X200000000Y-150000000D02*
X100000000Y-150000000D01*
X200000000Y-100000000D02*
X200000000Y-150000000D01*
X100000000Y-100000000D02*
X200000000Y-100000000D01*
D11*
G36*
X193261304Y-144037002D02*
G01*
X193680139Y-144210489D01*
X193680141Y-144210490D01*
X193869891Y-144337277D01*
X194057082Y-144462354D01*
X194377646Y-144782918D01*
X194629511Y-145159861D01*
X194802998Y-145578696D01*
X194891440Y-146023327D01*
X194891440Y-146476673D01*
X194802998Y-146921304D01*
X194629511Y-147340139D01*
X194377646Y-147717082D01*
X194057082Y-148037646D01*
X193869891Y-148162723D01*
X193680141Y-148289510D01*
X193680140Y-148289511D01*
X193680139Y-148289511D01*
X193261304Y-148462998D01*
X192816673Y-148551440D01*
X192363327Y-148551440D01*
X191918696Y-148462998D01*
X191499861Y-148289511D01*
X191499860Y-148289511D01*
X191499859Y-148289510D01*
X191310109Y-148162723D01*
X191122918Y-148037646D01*
X190802354Y-147717082D01*
X190550489Y-147340139D01*
X190377002Y-146921304D01*
X190288560Y-146476673D01*
X190288560Y-146023327D01*
X190377002Y-145578696D01*
X190550489Y-145159861D01*
X190802354Y-144782918D01*
X191122918Y-144462354D01*
X191310109Y-144337277D01*
X191499859Y-144210490D01*
X191499861Y-144210489D01*
X191918696Y-144037002D01*
X192363327Y-143948560D01*
X192816673Y-143948560D01*
X193261304Y-144037002D01*
X193261304Y-144037002D01*
G37*
G36*
X176361304Y-144037002D02*
G01*
X176780139Y-144210489D01*
X176780141Y-144210490D01*
X176969891Y-144337277D01*
X177157082Y-144462354D01*
X177477646Y-144782918D01*
X177729511Y-145159861D01*
X177902998Y-145578696D01*
X177991440Y-146023327D01*
X177991440Y-146476673D01*
X177902998Y-146921304D01*
X177729511Y-147340139D01*
X177477646Y-147717082D01*
X177157082Y-148037646D01*
X176969891Y-148162723D01*
X176780141Y-148289510D01*
X176780140Y-148289511D01*
X176780139Y-148289511D01*
X176361304Y-148462998D01*
X175916673Y-148551440D01*
X175463327Y-148551440D01*
X175018696Y-148462998D01*
X174599861Y-148289511D01*
X174599860Y-148289511D01*
X174599859Y-148289510D01*
X174410109Y-148162723D01*
X174222918Y-148037646D01*
X173902354Y-147717082D01*
X173650489Y-147340139D01*
X173477002Y-146921304D01*
X173388560Y-146476673D01*
X173388560Y-146023327D01*
X173477002Y-145578696D01*
X173650489Y-145159861D01*
X173902354Y-144782918D01*
X174222918Y-144462354D01*
X174410109Y-144337277D01*
X174599859Y-144210490D01*
X174599861Y-144210489D01*
X175018696Y-144037002D01*
X175463327Y-143948560D01*
X175916673Y-143948560D01*
X176361304Y-144037002D01*
X176361304Y-144037002D01*
G37*
G36*
X159361304Y-144037002D02*
G01*
X159780139Y-144210489D01*
X159780141Y-144210490D01*
X159969891Y-144337277D01*
X160157082Y-144462354D01*
X160477646Y-144782918D01*
X160729511Y-145159861D01*
X160902998Y-145578696D01*
X160991440Y-146023327D01*
X160991440Y-146476673D01*
X160902998Y-146921304D01*
X160729511Y-147340139D01*
X160477646Y-147717082D01*
X160157082Y-148037646D01*
X159969891Y-148162723D01*
X159780141Y-148289510D01*
X159780140Y-148289511D01*
X159780139Y-148289511D01*
X159361304Y-148462998D01*
X158916673Y-148551440D01*
X158463327Y-148551440D01*
X158018696Y-148462998D01*
X157599861Y-148289511D01*
X157599860Y-148289511D01*
X157599859Y-148289510D01*
X157410109Y-148162723D01*
X157222918Y-148037646D01*
X156902354Y-147717082D01*
X156650489Y-147340139D01*
X156477002Y-146921304D01*
X156388560Y-146476673D01*
X156388560Y-146023327D01*
X156477002Y-145578696D01*
X156650489Y-145159861D01*
X156902354Y-144782918D01*
X157222918Y-144462354D01*
X157410109Y-144337277D01*
X157599859Y-144210490D01*
X157599861Y-144210489D01*
X158018696Y-144037002D01*
X158463327Y-143948560D01*
X158916673Y-143948560D01*
X159361304Y-144037002D01*
X159361304Y-144037002D01*
G37*
G36*
X142261304Y-143937002D02*
G01*
X142680139Y-144110489D01*
X142680141Y-144110490D01*
X142829800Y-144210489D01*
X143057082Y-144362354D01*
X143377646Y-144682918D01*
X143629511Y-145059861D01*
X143802998Y-145478696D01*
X143891440Y-145923327D01*
X143891440Y-146376673D01*
X143802998Y-146821304D01*
X143643479Y-147206417D01*
X143629510Y-147240141D01*
X143585226Y-147306416D01*
X143377646Y-147617082D01*
X143057082Y-147937646D01*
X142987190Y-147984346D01*
X142680141Y-148189510D01*
X142680140Y-148189511D01*
X142680139Y-148189511D01*
X142261304Y-148362998D01*
X141816673Y-148451440D01*
X141363327Y-148451440D01*
X140918696Y-148362998D01*
X140499861Y-148189511D01*
X140499860Y-148189511D01*
X140499859Y-148189510D01*
X140192810Y-147984346D01*
X140122918Y-147937646D01*
X139802354Y-147617082D01*
X139594774Y-147306416D01*
X139550490Y-147240141D01*
X139536521Y-147206417D01*
X139377002Y-146821304D01*
X139288560Y-146376673D01*
X139288560Y-145923327D01*
X139377002Y-145478696D01*
X139550489Y-145059861D01*
X139802354Y-144682918D01*
X140122918Y-144362354D01*
X140350200Y-144210489D01*
X140499859Y-144110490D01*
X140499861Y-144110489D01*
X140918696Y-143937002D01*
X141363327Y-143848560D01*
X141816673Y-143848560D01*
X142261304Y-143937002D01*
X142261304Y-143937002D01*
G37*
G36*
X154606416Y-145989879D02*
G01*
X154797592Y-146069067D01*
X154797594Y-146069068D01*
X154969648Y-146184031D01*
X155115969Y-146330352D01*
X155213738Y-146476673D01*
X155230933Y-146502408D01*
X155310121Y-146693584D01*
X155350490Y-146896534D01*
X155350490Y-147103466D01*
X155310121Y-147306416D01*
X155233019Y-147492555D01*
X155230932Y-147497594D01*
X155115969Y-147669648D01*
X154969648Y-147815969D01*
X154797594Y-147930932D01*
X154797593Y-147930933D01*
X154797592Y-147930933D01*
X154606416Y-148010121D01*
X154403466Y-148050490D01*
X154196534Y-148050490D01*
X153993584Y-148010121D01*
X153802408Y-147930933D01*
X153802407Y-147930933D01*
X153802406Y-147930932D01*
X153630352Y-147815969D01*
X153484031Y-147669648D01*
X153369068Y-147497594D01*
X153366981Y-147492555D01*
X153289879Y-147306416D01*
X153249510Y-147103466D01*
X153249510Y-146896534D01*
X153289879Y-146693584D01*
X153369067Y-146502408D01*
X153386263Y-146476673D01*
X153484031Y-146330352D01*
X153630352Y-146184031D01*
X153802406Y-146069068D01*
X153802408Y-146069067D01*
X153993584Y-145989879D01*
X154196534Y-145949510D01*
X154403466Y-145949510D01*
X154606416Y-145989879D01*
X154606416Y-145989879D01*
G37*
G36*
X171806416Y-145989879D02*
G01*
X171997592Y-146069067D01*
X171997594Y-146069068D01*
X172169648Y-146184031D01*
X172315969Y-146330352D01*
X172413738Y-146476673D01*
X172430933Y-146502408D01*
X172510121Y-146693584D01*
X172550490Y-146896534D01*
X172550490Y-147103466D01*
X172510121Y-147306416D01*
X172433019Y-147492555D01*
X172430932Y-147497594D01*
X172315969Y-147669648D01*
X172169648Y-147815969D01*
X171997594Y-147930932D01*
X171997593Y-147930933D01*
X171997592Y-147930933D01*
X171806416Y-148010121D01*
X171603466Y-148050490D01*
X171396534Y-148050490D01*
X171193584Y-148010121D01*
X171002408Y-147930933D01*
X171002407Y-147930933D01*
X171002406Y-147930932D01*
X170830352Y-147815969D01*
X170684031Y-147669648D01*
X170569068Y-147497594D01*
X170566981Y-147492555D01*
X170489879Y-147306416D01*
X170449510Y-147103466D01*
X170449510Y-146896534D01*
X170489879Y-146693584D01*
X170569067Y-146502408D01*
X170586263Y-146476673D01*
X170684031Y-146330352D01*
X170830352Y-146184031D01*
X171002406Y-146069068D01*
X171002408Y-146069067D01*
X171193584Y-145989879D01*
X171396534Y-145949510D01*
X171603466Y-145949510D01*
X171806416Y-145989879D01*
X171806416Y-145989879D01*
G37*
G36*
X124341000Y-148001000D02*
G01*
X122039000Y-148001000D01*
X122039000Y-145699000D01*
X124341000Y-145699000D01*
X124341000Y-148001000D01*
X124341000Y-148001000D01*
G37*
G36*
X115739271Y-145710103D02*
G01*
X115795635Y-145715654D01*
X116012600Y-145781470D01*
X116012602Y-145781471D01*
X116212555Y-145888347D01*
X116387818Y-146032182D01*
X116531653Y-146207445D01*
X116622106Y-146376672D01*
X116638530Y-146407400D01*
X116704346Y-146624365D01*
X116726569Y-146850000D01*
X116704346Y-147075635D01*
X116664674Y-147206416D01*
X116638529Y-147292602D01*
X116531653Y-147492555D01*
X116387818Y-147667818D01*
X116212555Y-147811653D01*
X116046351Y-147900490D01*
X116012600Y-147918530D01*
X115795635Y-147984346D01*
X115739271Y-147989897D01*
X115626545Y-148001000D01*
X115513455Y-148001000D01*
X115400729Y-147989897D01*
X115344365Y-147984346D01*
X115127400Y-147918530D01*
X115093649Y-147900490D01*
X114927445Y-147811653D01*
X114752182Y-147667818D01*
X114608347Y-147492555D01*
X114501471Y-147292602D01*
X114475327Y-147206416D01*
X114435654Y-147075635D01*
X114413431Y-146850000D01*
X114435654Y-146624365D01*
X114501470Y-146407400D01*
X114517894Y-146376672D01*
X114608347Y-146207445D01*
X114752182Y-146032182D01*
X114927445Y-145888347D01*
X115127398Y-145781471D01*
X115127400Y-145781470D01*
X115344365Y-145715654D01*
X115400729Y-145710103D01*
X115513455Y-145699000D01*
X115626545Y-145699000D01*
X115739271Y-145710103D01*
X115739271Y-145710103D01*
G37*
G36*
X137506416Y-145889879D02*
G01*
X137650377Y-145949510D01*
X137697594Y-145969068D01*
X137869648Y-146084031D01*
X138015969Y-146230352D01*
X138113738Y-146376673D01*
X138130933Y-146402408D01*
X138210121Y-146593584D01*
X138250490Y-146796534D01*
X138250490Y-147003466D01*
X138210121Y-147206416D01*
X138151643Y-147347594D01*
X138130932Y-147397594D01*
X138015969Y-147569648D01*
X137869648Y-147715969D01*
X137697594Y-147830932D01*
X137697593Y-147830933D01*
X137697592Y-147830933D01*
X137506416Y-147910121D01*
X137303466Y-147950490D01*
X137096534Y-147950490D01*
X136893584Y-147910121D01*
X136702408Y-147830933D01*
X136702407Y-147830933D01*
X136702406Y-147830932D01*
X136530352Y-147715969D01*
X136384031Y-147569648D01*
X136269068Y-147397594D01*
X136248357Y-147347594D01*
X136189879Y-147206416D01*
X136149510Y-147003466D01*
X136149510Y-146796534D01*
X136189879Y-146593584D01*
X136269067Y-146402408D01*
X136286263Y-146376673D01*
X136384031Y-146230352D01*
X136530352Y-146084031D01*
X136702406Y-145969068D01*
X136749623Y-145949510D01*
X136893584Y-145889879D01*
X137096534Y-145849510D01*
X137303466Y-145849510D01*
X137506416Y-145889879D01*
X137506416Y-145889879D01*
G37*
G36*
X188606416Y-145889879D02*
G01*
X188750377Y-145949510D01*
X188797594Y-145969068D01*
X188969648Y-146084031D01*
X189115969Y-146230352D01*
X189213738Y-146376673D01*
X189230933Y-146402408D01*
X189310121Y-146593584D01*
X189350490Y-146796534D01*
X189350490Y-147003466D01*
X189310121Y-147206416D01*
X189251643Y-147347594D01*
X189230932Y-147397594D01*
X189115969Y-147569648D01*
X188969648Y-147715969D01*
X188797594Y-147830932D01*
X188797593Y-147830933D01*
X188797592Y-147830933D01*
X188606416Y-147910121D01*
X188403466Y-147950490D01*
X188196534Y-147950490D01*
X187993584Y-147910121D01*
X187802408Y-147830933D01*
X187802407Y-147830933D01*
X187802406Y-147830932D01*
X187630352Y-147715969D01*
X187484031Y-147569648D01*
X187369068Y-147397594D01*
X187348357Y-147347594D01*
X187289879Y-147206416D01*
X187249510Y-147003466D01*
X187249510Y-146796534D01*
X187289879Y-146593584D01*
X187369067Y-146402408D01*
X187386263Y-146376673D01*
X187484031Y-146230352D01*
X187630352Y-146084031D01*
X187802406Y-145969068D01*
X187849623Y-145949510D01*
X187993584Y-145889879D01*
X188196534Y-145849510D01*
X188403466Y-145849510D01*
X188606416Y-145889879D01*
X188606416Y-145889879D01*
G37*
G36*
X112896416Y-145839879D02*
G01*
X113087592Y-145919067D01*
X113087594Y-145919068D01*
X113162424Y-145969068D01*
X113259648Y-146034031D01*
X113405969Y-146180352D01*
X113520933Y-146352408D01*
X113600121Y-146543584D01*
X113640490Y-146746534D01*
X113640490Y-146953466D01*
X113600121Y-147156416D01*
X113537988Y-147306417D01*
X113520932Y-147347594D01*
X113405969Y-147519648D01*
X113259648Y-147665969D01*
X113087594Y-147780932D01*
X113087593Y-147780933D01*
X113087592Y-147780933D01*
X112896416Y-147860121D01*
X112693466Y-147900490D01*
X112486534Y-147900490D01*
X112283584Y-147860121D01*
X112092408Y-147780933D01*
X112092407Y-147780933D01*
X112092406Y-147780932D01*
X111920352Y-147665969D01*
X111774031Y-147519648D01*
X111659068Y-147347594D01*
X111642012Y-147306417D01*
X111579879Y-147156416D01*
X111539510Y-146953466D01*
X111539510Y-146746534D01*
X111579879Y-146543584D01*
X111659067Y-146352408D01*
X111774031Y-146180352D01*
X111920352Y-146034031D01*
X112017576Y-145969068D01*
X112092406Y-145919068D01*
X112092408Y-145919067D01*
X112283584Y-145839879D01*
X112486534Y-145799510D01*
X112693466Y-145799510D01*
X112896416Y-145839879D01*
X112896416Y-145839879D01*
G37*
G36*
X106224549Y-144871116D02*
G01*
X106335734Y-144893232D01*
X106545203Y-144979997D01*
X106733720Y-145105960D01*
X106894040Y-145266280D01*
X107020003Y-145454797D01*
X107020004Y-145454799D01*
X107106768Y-145664267D01*
X107141700Y-145839879D01*
X107151000Y-145886636D01*
X107151000Y-146113364D01*
X107106768Y-146335734D01*
X107020003Y-146545203D01*
X106894040Y-146733720D01*
X106733720Y-146894040D01*
X106545203Y-147020003D01*
X106335734Y-147106768D01*
X106224549Y-147128884D01*
X106113365Y-147151000D01*
X105886635Y-147151000D01*
X105775451Y-147128884D01*
X105664266Y-147106768D01*
X105454797Y-147020003D01*
X105266280Y-146894040D01*
X105105960Y-146733720D01*
X104979997Y-146545203D01*
X104893232Y-146335734D01*
X104849000Y-146113364D01*
X104849000Y-145886636D01*
X104858301Y-145839879D01*
X104893232Y-145664267D01*
X104979996Y-145454799D01*
X104979997Y-145454797D01*
X105105960Y-145266280D01*
X105266280Y-145105960D01*
X105454797Y-144979997D01*
X105664266Y-144893232D01*
X105775451Y-144871116D01*
X105886635Y-144849000D01*
X106113365Y-144849000D01*
X106224549Y-144871116D01*
X106224549Y-144871116D01*
G37*
G36*
X115759271Y-141610103D02*
G01*
X115815635Y-141615654D01*
X116032600Y-141681470D01*
X116032602Y-141681471D01*
X116232555Y-141788347D01*
X116407818Y-141932182D01*
X116551653Y-142107445D01*
X116626562Y-142247592D01*
X116658530Y-142307400D01*
X116724346Y-142524365D01*
X116746569Y-142750000D01*
X116724346Y-142975634D01*
X116658529Y-143192602D01*
X116551653Y-143392555D01*
X116407818Y-143567818D01*
X116232555Y-143711653D01*
X116032602Y-143818529D01*
X116032600Y-143818530D01*
X115815635Y-143884346D01*
X115759271Y-143889897D01*
X115646545Y-143901000D01*
X115533455Y-143901000D01*
X115420729Y-143889897D01*
X115364365Y-143884346D01*
X115147400Y-143818530D01*
X115147398Y-143818529D01*
X114947445Y-143711653D01*
X114772182Y-143567818D01*
X114628347Y-143392555D01*
X114521471Y-143192602D01*
X114455654Y-142975634D01*
X114433431Y-142750000D01*
X114455654Y-142524365D01*
X114521470Y-142307400D01*
X114553438Y-142247592D01*
X114628347Y-142107445D01*
X114772182Y-141932182D01*
X114947445Y-141788347D01*
X115147398Y-141681471D01*
X115147400Y-141681470D01*
X115364365Y-141615654D01*
X115420729Y-141610103D01*
X115533455Y-141599000D01*
X115646545Y-141599000D01*
X115759271Y-141610103D01*
X115759271Y-141610103D01*
G37*
G36*
X124361000Y-143901000D02*
G01*
X122059000Y-143901000D01*
X122059000Y-141599000D01*
X124361000Y-141599000D01*
X124361000Y-143901000D01*
X124361000Y-143901000D01*
G37*
G36*
X108145239Y-140507101D02*
G01*
X108381053Y-140578634D01*
X108598381Y-140694799D01*
X108788871Y-140851129D01*
X108945201Y-141041619D01*
X109061366Y-141258947D01*
X109132899Y-141494761D01*
X109157053Y-141740000D01*
X109132899Y-141985239D01*
X109061366Y-142221053D01*
X108945201Y-142438381D01*
X108788871Y-142628871D01*
X108598381Y-142785201D01*
X108381053Y-142901366D01*
X108145239Y-142972899D01*
X107961457Y-142991000D01*
X107838543Y-142991000D01*
X107654761Y-142972899D01*
X107418947Y-142901366D01*
X107201619Y-142785201D01*
X107011129Y-142628871D01*
X106854799Y-142438381D01*
X106738634Y-142221053D01*
X106667101Y-141985239D01*
X106642947Y-141740000D01*
X106667101Y-141494761D01*
X106738634Y-141258947D01*
X106854799Y-141041619D01*
X107011129Y-140851129D01*
X107201619Y-140694799D01*
X107418947Y-140578634D01*
X107654761Y-140507101D01*
X107838543Y-140489000D01*
X107961457Y-140489000D01*
X108145239Y-140507101D01*
X108145239Y-140507101D01*
G37*
G36*
X104054903Y-140497075D02*
G01*
X104251805Y-140578634D01*
X104282571Y-140591378D01*
X104487466Y-140728285D01*
X104661715Y-140902534D01*
X104798180Y-141106768D01*
X104798623Y-141107431D01*
X104892925Y-141335097D01*
X104941000Y-141576786D01*
X104941000Y-141823214D01*
X104892925Y-142064903D01*
X104828245Y-142221056D01*
X104798622Y-142292571D01*
X104661715Y-142497466D01*
X104487466Y-142671715D01*
X104282571Y-142808622D01*
X104282570Y-142808623D01*
X104282569Y-142808623D01*
X104054903Y-142902925D01*
X103813214Y-142951000D01*
X103566786Y-142951000D01*
X103325097Y-142902925D01*
X103097431Y-142808623D01*
X103097430Y-142808623D01*
X103097429Y-142808622D01*
X102892534Y-142671715D01*
X102718285Y-142497466D01*
X102581378Y-142292571D01*
X102551756Y-142221056D01*
X102487075Y-142064903D01*
X102439000Y-141823214D01*
X102439000Y-141576786D01*
X102487075Y-141335097D01*
X102581377Y-141107431D01*
X102581820Y-141106768D01*
X102718285Y-140902534D01*
X102892534Y-140728285D01*
X103097429Y-140591378D01*
X103128196Y-140578634D01*
X103325097Y-140497075D01*
X103566786Y-140449000D01*
X103813214Y-140449000D01*
X104054903Y-140497075D01*
X104054903Y-140497075D01*
G37*
G36*
X111906416Y-140739879D02*
G01*
X112097592Y-140819067D01*
X112097594Y-140819068D01*
X112269648Y-140934031D01*
X112415969Y-141080352D01*
X112463175Y-141151000D01*
X112530933Y-141252408D01*
X112610121Y-141443584D01*
X112650490Y-141646534D01*
X112650490Y-141853466D01*
X112610121Y-142056416D01*
X112530933Y-142247592D01*
X112530932Y-142247594D01*
X112415969Y-142419648D01*
X112269648Y-142565969D01*
X112097594Y-142680932D01*
X112097593Y-142680933D01*
X112097592Y-142680933D01*
X111906416Y-142760121D01*
X111703466Y-142800490D01*
X111496534Y-142800490D01*
X111293584Y-142760121D01*
X111102408Y-142680933D01*
X111102407Y-142680933D01*
X111102406Y-142680932D01*
X110930352Y-142565969D01*
X110784031Y-142419648D01*
X110669068Y-142247594D01*
X110669067Y-142247592D01*
X110589879Y-142056416D01*
X110549510Y-141853466D01*
X110549510Y-141646534D01*
X110589879Y-141443584D01*
X110669067Y-141252408D01*
X110736826Y-141151000D01*
X110784031Y-141080352D01*
X110930352Y-140934031D01*
X111102406Y-140819068D01*
X111102408Y-140819067D01*
X111293584Y-140739879D01*
X111496534Y-140699510D01*
X111703466Y-140699510D01*
X111906416Y-140739879D01*
X111906416Y-140739879D01*
G37*
G36*
X196224549Y-138871116D02*
G01*
X196335734Y-138893232D01*
X196545203Y-138979997D01*
X196733720Y-139105960D01*
X196894040Y-139266280D01*
X197020003Y-139454797D01*
X197106768Y-139664266D01*
X197125127Y-139756564D01*
X197151000Y-139886635D01*
X197151000Y-140113365D01*
X197128884Y-140224549D01*
X197106768Y-140335734D01*
X197020003Y-140545203D01*
X196894040Y-140733720D01*
X196733720Y-140894040D01*
X196545203Y-141020003D01*
X196335734Y-141106768D01*
X196224549Y-141128884D01*
X196113365Y-141151000D01*
X195886635Y-141151000D01*
X195775451Y-141128884D01*
X195664266Y-141106768D01*
X195454797Y-141020003D01*
X195266280Y-140894040D01*
X195105960Y-140733720D01*
X194979997Y-140545203D01*
X194893232Y-140335734D01*
X194871116Y-140224549D01*
X194849000Y-140113365D01*
X194849000Y-139886635D01*
X194874873Y-139756564D01*
X194893232Y-139664266D01*
X194979997Y-139454797D01*
X195105960Y-139266280D01*
X195266280Y-139105960D01*
X195454797Y-138979997D01*
X195664266Y-138893232D01*
X195775451Y-138871116D01*
X195886635Y-138849000D01*
X196113365Y-138849000D01*
X196224549Y-138871116D01*
X196224549Y-138871116D01*
G37*
G36*
X122096564Y-138439389D02*
G01*
X122287833Y-138518615D01*
X122287835Y-138518616D01*
X122339182Y-138552925D01*
X122459973Y-138633635D01*
X122606365Y-138780027D01*
X122721385Y-138952167D01*
X122800611Y-139143436D01*
X122841000Y-139346484D01*
X122841000Y-139553516D01*
X122800611Y-139756564D01*
X122740784Y-139901000D01*
X122721384Y-139947835D01*
X122606365Y-140119973D01*
X122459973Y-140266365D01*
X122287835Y-140381384D01*
X122287834Y-140381385D01*
X122287833Y-140381385D01*
X122096564Y-140460611D01*
X121893516Y-140501000D01*
X121686484Y-140501000D01*
X121483436Y-140460611D01*
X121292167Y-140381385D01*
X121292166Y-140381385D01*
X121292165Y-140381384D01*
X121120027Y-140266365D01*
X120973635Y-140119973D01*
X120858616Y-139947835D01*
X120839216Y-139901000D01*
X120779389Y-139756564D01*
X120739000Y-139553516D01*
X120739000Y-139346484D01*
X120779389Y-139143436D01*
X120858615Y-138952167D01*
X120973635Y-138780027D01*
X121120027Y-138633635D01*
X121240818Y-138552925D01*
X121292165Y-138518616D01*
X121292167Y-138518615D01*
X121483436Y-138439389D01*
X121686484Y-138399000D01*
X121893516Y-138399000D01*
X122096564Y-138439389D01*
X122096564Y-138439389D01*
G37*
G36*
X116496564Y-137839389D02*
G01*
X116687833Y-137918615D01*
X116687835Y-137918616D01*
X116859973Y-138033635D01*
X117006365Y-138180027D01*
X117101039Y-138321716D01*
X117121385Y-138352167D01*
X117200611Y-138543436D01*
X117241000Y-138746484D01*
X117241000Y-138953516D01*
X117200611Y-139156564D01*
X117155165Y-139266280D01*
X117121384Y-139347835D01*
X117006365Y-139519973D01*
X116859973Y-139666365D01*
X116687835Y-139781384D01*
X116687834Y-139781385D01*
X116687833Y-139781385D01*
X116496564Y-139860611D01*
X116293516Y-139901000D01*
X116086484Y-139901000D01*
X115883436Y-139860611D01*
X115692167Y-139781385D01*
X115692166Y-139781385D01*
X115692165Y-139781384D01*
X115520027Y-139666365D01*
X115373635Y-139519973D01*
X115258616Y-139347835D01*
X115224835Y-139266280D01*
X115179389Y-139156564D01*
X115139000Y-138953516D01*
X115139000Y-138746484D01*
X115179389Y-138543436D01*
X115258615Y-138352167D01*
X115278962Y-138321716D01*
X115373635Y-138180027D01*
X115520027Y-138033635D01*
X115692165Y-137918616D01*
X115692167Y-137918615D01*
X115883436Y-137839389D01*
X116086484Y-137799000D01*
X116293516Y-137799000D01*
X116496564Y-137839389D01*
X116496564Y-137839389D01*
G37*
G36*
X164641000Y-138601000D02*
G01*
X162139000Y-138601000D01*
X162139000Y-136099000D01*
X164641000Y-136099000D01*
X164641000Y-138601000D01*
X164641000Y-138601000D01*
G37*
G36*
X171254903Y-136147075D02*
G01*
X171482571Y-136241378D01*
X171687466Y-136378285D01*
X171861715Y-136552534D01*
X171861716Y-136552536D01*
X171998623Y-136757431D01*
X172092925Y-136985097D01*
X172141000Y-137226786D01*
X172141000Y-137473214D01*
X172092925Y-137714903D01*
X172008545Y-137918616D01*
X171998622Y-137942571D01*
X171861715Y-138147466D01*
X171687466Y-138321715D01*
X171482571Y-138458622D01*
X171482570Y-138458623D01*
X171482569Y-138458623D01*
X171254903Y-138552925D01*
X171013214Y-138601000D01*
X170766786Y-138601000D01*
X170525097Y-138552925D01*
X170297431Y-138458623D01*
X170297430Y-138458623D01*
X170297429Y-138458622D01*
X170092534Y-138321715D01*
X169918285Y-138147466D01*
X169781378Y-137942571D01*
X169771456Y-137918616D01*
X169687075Y-137714903D01*
X169639000Y-137473214D01*
X169639000Y-137226786D01*
X169687075Y-136985097D01*
X169781377Y-136757431D01*
X169918284Y-136552536D01*
X169918285Y-136552534D01*
X170092534Y-136378285D01*
X170297429Y-136241378D01*
X170525097Y-136147075D01*
X170766786Y-136099000D01*
X171013214Y-136099000D01*
X171254903Y-136147075D01*
X171254903Y-136147075D01*
G37*
G36*
X181641000Y-138601000D02*
G01*
X179139000Y-138601000D01*
X179139000Y-136099000D01*
X181641000Y-136099000D01*
X181641000Y-138601000D01*
X181641000Y-138601000D01*
G37*
G36*
X188254903Y-136147075D02*
G01*
X188482571Y-136241378D01*
X188687466Y-136378285D01*
X188861715Y-136552534D01*
X188861716Y-136552536D01*
X188998623Y-136757431D01*
X189092925Y-136985097D01*
X189141000Y-137226786D01*
X189141000Y-137473214D01*
X189092925Y-137714903D01*
X189008545Y-137918616D01*
X188998622Y-137942571D01*
X188861715Y-138147466D01*
X188687466Y-138321715D01*
X188482571Y-138458622D01*
X188482570Y-138458623D01*
X188482569Y-138458623D01*
X188254903Y-138552925D01*
X188013214Y-138601000D01*
X187766786Y-138601000D01*
X187525097Y-138552925D01*
X187297431Y-138458623D01*
X187297430Y-138458623D01*
X187297429Y-138458622D01*
X187092534Y-138321715D01*
X186918285Y-138147466D01*
X186781378Y-137942571D01*
X186771456Y-137918616D01*
X186687075Y-137714903D01*
X186639000Y-137473214D01*
X186639000Y-137226786D01*
X186687075Y-136985097D01*
X186781377Y-136757431D01*
X186918284Y-136552536D01*
X186918285Y-136552534D01*
X187092534Y-136378285D01*
X187297429Y-136241378D01*
X187525097Y-136147075D01*
X187766786Y-136099000D01*
X188013214Y-136099000D01*
X188254903Y-136147075D01*
X188254903Y-136147075D01*
G37*
G36*
X147641000Y-138601000D02*
G01*
X145139000Y-138601000D01*
X145139000Y-136099000D01*
X147641000Y-136099000D01*
X147641000Y-138601000D01*
X147641000Y-138601000D01*
G37*
G36*
X137254903Y-136147075D02*
G01*
X137482571Y-136241378D01*
X137687466Y-136378285D01*
X137861715Y-136552534D01*
X137861716Y-136552536D01*
X137998623Y-136757431D01*
X138092925Y-136985097D01*
X138141000Y-137226786D01*
X138141000Y-137473214D01*
X138092925Y-137714903D01*
X138008545Y-137918616D01*
X137998622Y-137942571D01*
X137861715Y-138147466D01*
X137687466Y-138321715D01*
X137482571Y-138458622D01*
X137482570Y-138458623D01*
X137482569Y-138458623D01*
X137254903Y-138552925D01*
X137013214Y-138601000D01*
X136766786Y-138601000D01*
X136525097Y-138552925D01*
X136297431Y-138458623D01*
X136297430Y-138458623D01*
X136297429Y-138458622D01*
X136092534Y-138321715D01*
X135918285Y-138147466D01*
X135781378Y-137942571D01*
X135771456Y-137918616D01*
X135687075Y-137714903D01*
X135639000Y-137473214D01*
X135639000Y-137226786D01*
X135687075Y-136985097D01*
X135781377Y-136757431D01*
X135918284Y-136552536D01*
X135918285Y-136552534D01*
X136092534Y-136378285D01*
X136297429Y-136241378D01*
X136525097Y-136147075D01*
X136766786Y-136099000D01*
X137013214Y-136099000D01*
X137254903Y-136147075D01*
X137254903Y-136147075D01*
G37*
G36*
X130641000Y-138601000D02*
G01*
X128139000Y-138601000D01*
X128139000Y-136099000D01*
X130641000Y-136099000D01*
X130641000Y-138601000D01*
X130641000Y-138601000D01*
G37*
G36*
X154254903Y-136147075D02*
G01*
X154482571Y-136241378D01*
X154687466Y-136378285D01*
X154861715Y-136552534D01*
X154861716Y-136552536D01*
X154998623Y-136757431D01*
X155092925Y-136985097D01*
X155141000Y-137226786D01*
X155141000Y-137473214D01*
X155092925Y-137714903D01*
X155008545Y-137918616D01*
X154998622Y-137942571D01*
X154861715Y-138147466D01*
X154687466Y-138321715D01*
X154482571Y-138458622D01*
X154482570Y-138458623D01*
X154482569Y-138458623D01*
X154254903Y-138552925D01*
X154013214Y-138601000D01*
X153766786Y-138601000D01*
X153525097Y-138552925D01*
X153297431Y-138458623D01*
X153297430Y-138458623D01*
X153297429Y-138458622D01*
X153092534Y-138321715D01*
X152918285Y-138147466D01*
X152781378Y-137942571D01*
X152771456Y-137918616D01*
X152687075Y-137714903D01*
X152639000Y-137473214D01*
X152639000Y-137226786D01*
X152687075Y-136985097D01*
X152781377Y-136757431D01*
X152918284Y-136552536D01*
X152918285Y-136552534D01*
X153092534Y-136378285D01*
X153297429Y-136241378D01*
X153525097Y-136147075D01*
X153766786Y-136099000D01*
X154013214Y-136099000D01*
X154254903Y-136147075D01*
X154254903Y-136147075D01*
G37*
G36*
X197751000Y-136951000D02*
G01*
X194649000Y-136951000D01*
X194649000Y-133849000D01*
X197751000Y-133849000D01*
X197751000Y-136951000D01*
X197751000Y-136951000D01*
G37*
G36*
X112841000Y-135901000D02*
G01*
X110539000Y-135901000D01*
X110539000Y-133599000D01*
X112841000Y-133599000D01*
X112841000Y-135901000D01*
X112841000Y-135901000D01*
G37*
G36*
X116496564Y-130339389D02*
G01*
X116634529Y-130396536D01*
X116687835Y-130418616D01*
X116750683Y-130460610D01*
X116859973Y-130533635D01*
X117006365Y-130680027D01*
X117121385Y-130852167D01*
X117200611Y-131043436D01*
X117241000Y-131246484D01*
X117241000Y-131453516D01*
X117200611Y-131656564D01*
X117121385Y-131847833D01*
X117121384Y-131847835D01*
X117006365Y-132019973D01*
X116859973Y-132166365D01*
X116687835Y-132281384D01*
X116687834Y-132281385D01*
X116687833Y-132281385D01*
X116496564Y-132360611D01*
X116293516Y-132401000D01*
X116086484Y-132401000D01*
X115883436Y-132360611D01*
X115692167Y-132281385D01*
X115692166Y-132281385D01*
X115692165Y-132281384D01*
X115520027Y-132166365D01*
X115373635Y-132019973D01*
X115258616Y-131847835D01*
X115258615Y-131847833D01*
X115179389Y-131656564D01*
X115139000Y-131453516D01*
X115139000Y-131246484D01*
X115179389Y-131043436D01*
X115258615Y-130852167D01*
X115373635Y-130680027D01*
X115520027Y-130533635D01*
X115629317Y-130460610D01*
X115692165Y-130418616D01*
X115745471Y-130396536D01*
X115883436Y-130339389D01*
X116086484Y-130299000D01*
X116293516Y-130299000D01*
X116496564Y-130339389D01*
X116496564Y-130339389D01*
G37*
G36*
X196506416Y-129489879D02*
G01*
X196697592Y-129569067D01*
X196697594Y-129569068D01*
X196869648Y-129684031D01*
X197015969Y-129830352D01*
X197130933Y-130002408D01*
X197210121Y-130193584D01*
X197250490Y-130396534D01*
X197250490Y-130603466D01*
X197210121Y-130806416D01*
X197191171Y-130852165D01*
X197130932Y-130997594D01*
X197015969Y-131169648D01*
X196869648Y-131315969D01*
X196697594Y-131430932D01*
X196697593Y-131430933D01*
X196697592Y-131430933D01*
X196506416Y-131510121D01*
X196303466Y-131550490D01*
X196096534Y-131550490D01*
X195893584Y-131510121D01*
X195702408Y-131430933D01*
X195702407Y-131430933D01*
X195702406Y-131430932D01*
X195530352Y-131315969D01*
X195384031Y-131169648D01*
X195269068Y-130997594D01*
X195208829Y-130852165D01*
X195189879Y-130806416D01*
X195149510Y-130603466D01*
X195149510Y-130396534D01*
X195189879Y-130193584D01*
X195269067Y-130002408D01*
X195384031Y-129830352D01*
X195530352Y-129684031D01*
X195702406Y-129569068D01*
X195702408Y-129569067D01*
X195893584Y-129489879D01*
X196096534Y-129449510D01*
X196303466Y-129449510D01*
X196506416Y-129489879D01*
X196506416Y-129489879D01*
G37*
G36*
X122096564Y-128439389D02*
G01*
X122287833Y-128518615D01*
X122287835Y-128518616D01*
X122459973Y-128633635D01*
X122606365Y-128780027D01*
X122721385Y-128952167D01*
X122800611Y-129143436D01*
X122841000Y-129346484D01*
X122841000Y-129553516D01*
X122800611Y-129756564D01*
X122770047Y-129830352D01*
X122721384Y-129947835D01*
X122606365Y-130119973D01*
X122459973Y-130266365D01*
X122287835Y-130381384D01*
X122287834Y-130381385D01*
X122287833Y-130381385D01*
X122096564Y-130460611D01*
X121893516Y-130501000D01*
X121686484Y-130501000D01*
X121483436Y-130460611D01*
X121292167Y-130381385D01*
X121292166Y-130381385D01*
X121292165Y-130381384D01*
X121120027Y-130266365D01*
X120973635Y-130119973D01*
X120858616Y-129947835D01*
X120809953Y-129830352D01*
X120779389Y-129756564D01*
X120739000Y-129553516D01*
X120739000Y-129346484D01*
X120779389Y-129143436D01*
X120858615Y-128952167D01*
X120973635Y-128780027D01*
X121120027Y-128633635D01*
X121292165Y-128518616D01*
X121292167Y-128518615D01*
X121483436Y-128439389D01*
X121686484Y-128399000D01*
X121893516Y-128399000D01*
X122096564Y-128439389D01*
X122096564Y-128439389D01*
G37*
G36*
X111859271Y-125990103D02*
G01*
X111915635Y-125995654D01*
X112132600Y-126061470D01*
X112132602Y-126061471D01*
X112332555Y-126168347D01*
X112507818Y-126312182D01*
X112651653Y-126487445D01*
X112731477Y-126636787D01*
X112758530Y-126687400D01*
X112824346Y-126904365D01*
X112846569Y-127130000D01*
X112824346Y-127355635D01*
X112763121Y-127557466D01*
X112758529Y-127572602D01*
X112651653Y-127772555D01*
X112507818Y-127947818D01*
X112332555Y-128091653D01*
X112132602Y-128198529D01*
X112132600Y-128198530D01*
X111915635Y-128264346D01*
X111859271Y-128269897D01*
X111746545Y-128281000D01*
X111633455Y-128281000D01*
X111520729Y-128269897D01*
X111464365Y-128264346D01*
X111247400Y-128198530D01*
X111247398Y-128198529D01*
X111047445Y-128091653D01*
X110872182Y-127947818D01*
X110728347Y-127772555D01*
X110621471Y-127572602D01*
X110616880Y-127557466D01*
X110555654Y-127355635D01*
X110533431Y-127130000D01*
X110555654Y-126904365D01*
X110621470Y-126687400D01*
X110648523Y-126636787D01*
X110728347Y-126487445D01*
X110872182Y-126312182D01*
X111047445Y-126168347D01*
X111247398Y-126061471D01*
X111247400Y-126061470D01*
X111464365Y-125995654D01*
X111520729Y-125990103D01*
X111633455Y-125979000D01*
X111746545Y-125979000D01*
X111859271Y-125990103D01*
X111859271Y-125990103D01*
G37*
G36*
X196635239Y-125597101D02*
G01*
X196871053Y-125668634D01*
X197088381Y-125784799D01*
X197278871Y-125941129D01*
X197435201Y-126131619D01*
X197551366Y-126348947D01*
X197622899Y-126584761D01*
X197647053Y-126830000D01*
X197622899Y-127075239D01*
X197551366Y-127311053D01*
X197435201Y-127528381D01*
X197278871Y-127718871D01*
X197088381Y-127875201D01*
X196871053Y-127991366D01*
X196635239Y-128062899D01*
X196451457Y-128081000D01*
X196328543Y-128081000D01*
X196144761Y-128062899D01*
X195908947Y-127991366D01*
X195691619Y-127875201D01*
X195501129Y-127718871D01*
X195344799Y-127528381D01*
X195228634Y-127311053D01*
X195157101Y-127075239D01*
X195132947Y-126830000D01*
X195157101Y-126584761D01*
X195228634Y-126348947D01*
X195344799Y-126131619D01*
X195501129Y-125941129D01*
X195691619Y-125784799D01*
X195908947Y-125668634D01*
X196144761Y-125597101D01*
X196328543Y-125579000D01*
X196451457Y-125579000D01*
X196635239Y-125597101D01*
X196635239Y-125597101D01*
G37*
G36*
X181514903Y-125627075D02*
G01*
X181697083Y-125702536D01*
X181742571Y-125721378D01*
X181947466Y-125858285D01*
X182121715Y-126032534D01*
X182243477Y-126214763D01*
X182258623Y-126237431D01*
X182352925Y-126465097D01*
X182401000Y-126706786D01*
X182401000Y-126953214D01*
X182352925Y-127194903D01*
X182289150Y-127348871D01*
X182258622Y-127422571D01*
X182121715Y-127627466D01*
X181947466Y-127801715D01*
X181742571Y-127938622D01*
X181742570Y-127938623D01*
X181742569Y-127938623D01*
X181514903Y-128032925D01*
X181273214Y-128081000D01*
X181026786Y-128081000D01*
X180785097Y-128032925D01*
X180557431Y-127938623D01*
X180557430Y-127938623D01*
X180557429Y-127938622D01*
X180352534Y-127801715D01*
X180178285Y-127627466D01*
X180041378Y-127422571D01*
X180010851Y-127348871D01*
X179947075Y-127194903D01*
X179899000Y-126953214D01*
X179899000Y-126706786D01*
X179947075Y-126465097D01*
X180041377Y-126237431D01*
X180056523Y-126214763D01*
X180178285Y-126032534D01*
X180352534Y-125858285D01*
X180557429Y-125721378D01*
X180602918Y-125702536D01*
X180785097Y-125627075D01*
X181026786Y-125579000D01*
X181273214Y-125579000D01*
X181514903Y-125627075D01*
X181514903Y-125627075D01*
G37*
G36*
X163294903Y-125557075D02*
G01*
X163503753Y-125643583D01*
X163522571Y-125651378D01*
X163727466Y-125788285D01*
X163901715Y-125962534D01*
X163967922Y-126061620D01*
X164038623Y-126167431D01*
X164132925Y-126395097D01*
X164181000Y-126636786D01*
X164181000Y-126883214D01*
X164169495Y-126941053D01*
X164132925Y-127124903D01*
X164038622Y-127352571D01*
X163901715Y-127557466D01*
X163727466Y-127731715D01*
X163522571Y-127868622D01*
X163522570Y-127868623D01*
X163522569Y-127868623D01*
X163294903Y-127962925D01*
X163053214Y-128011000D01*
X162806786Y-128011000D01*
X162565097Y-127962925D01*
X162337431Y-127868623D01*
X162337430Y-127868623D01*
X162337429Y-127868622D01*
X162132534Y-127731715D01*
X161958285Y-127557466D01*
X161821378Y-127352571D01*
X161727075Y-127124903D01*
X161690505Y-126941053D01*
X161679000Y-126883214D01*
X161679000Y-126636786D01*
X161727075Y-126395097D01*
X161821377Y-126167431D01*
X161892078Y-126061620D01*
X161958285Y-125962534D01*
X162132534Y-125788285D01*
X162337429Y-125651378D01*
X162356248Y-125643583D01*
X162565097Y-125557075D01*
X162806786Y-125509000D01*
X163053214Y-125509000D01*
X163294903Y-125557075D01*
X163294903Y-125557075D01*
G37*
G36*
X141705239Y-125527101D02*
G01*
X141941053Y-125598634D01*
X142158381Y-125714799D01*
X142348871Y-125871129D01*
X142505201Y-126061619D01*
X142621366Y-126278947D01*
X142692899Y-126514761D01*
X142717053Y-126760000D01*
X142692899Y-127005239D01*
X142621366Y-127241053D01*
X142505201Y-127458381D01*
X142348871Y-127648871D01*
X142158381Y-127805201D01*
X141941053Y-127921366D01*
X141705239Y-127992899D01*
X141521457Y-128011000D01*
X141398543Y-128011000D01*
X141214761Y-127992899D01*
X140978947Y-127921366D01*
X140761619Y-127805201D01*
X140571129Y-127648871D01*
X140414799Y-127458381D01*
X140298634Y-127241053D01*
X140227101Y-127005239D01*
X140202947Y-126760000D01*
X140227101Y-126514761D01*
X140298634Y-126278947D01*
X140414799Y-126061619D01*
X140571129Y-125871129D01*
X140761619Y-125714799D01*
X140978947Y-125598634D01*
X141214761Y-125527101D01*
X141398543Y-125509000D01*
X141521457Y-125509000D01*
X141705239Y-125527101D01*
X141705239Y-125527101D01*
G37*
G36*
X126584903Y-125557075D02*
G01*
X126793753Y-125643583D01*
X126812571Y-125651378D01*
X127017466Y-125788285D01*
X127191715Y-125962534D01*
X127257922Y-126061620D01*
X127328623Y-126167431D01*
X127422925Y-126395097D01*
X127471000Y-126636786D01*
X127471000Y-126883214D01*
X127459495Y-126941053D01*
X127422925Y-127124903D01*
X127328622Y-127352571D01*
X127191715Y-127557466D01*
X127017466Y-127731715D01*
X126812571Y-127868622D01*
X126812570Y-127868623D01*
X126812569Y-127868623D01*
X126584903Y-127962925D01*
X126343214Y-128011000D01*
X126096786Y-128011000D01*
X125855097Y-127962925D01*
X125627431Y-127868623D01*
X125627430Y-127868623D01*
X125627429Y-127868622D01*
X125422534Y-127731715D01*
X125248285Y-127557466D01*
X125111378Y-127352571D01*
X125017075Y-127124903D01*
X124980505Y-126941053D01*
X124969000Y-126883214D01*
X124969000Y-126636786D01*
X125017075Y-126395097D01*
X125111377Y-126167431D01*
X125182078Y-126061620D01*
X125248285Y-125962534D01*
X125422534Y-125788285D01*
X125627429Y-125651378D01*
X125646248Y-125643583D01*
X125855097Y-125557075D01*
X126096786Y-125509000D01*
X126343214Y-125509000D01*
X126584903Y-125557075D01*
X126584903Y-125557075D01*
G37*
G36*
X144944903Y-125557075D02*
G01*
X145153753Y-125643583D01*
X145172571Y-125651378D01*
X145377466Y-125788285D01*
X145551715Y-125962534D01*
X145617922Y-126061620D01*
X145688623Y-126167431D01*
X145782925Y-126395097D01*
X145831000Y-126636786D01*
X145831000Y-126883214D01*
X145819495Y-126941053D01*
X145782925Y-127124903D01*
X145688622Y-127352571D01*
X145551715Y-127557466D01*
X145377466Y-127731715D01*
X145172571Y-127868622D01*
X145172570Y-127868623D01*
X145172569Y-127868623D01*
X144944903Y-127962925D01*
X144703214Y-128011000D01*
X144456786Y-128011000D01*
X144215097Y-127962925D01*
X143987431Y-127868623D01*
X143987430Y-127868623D01*
X143987429Y-127868622D01*
X143782534Y-127731715D01*
X143608285Y-127557466D01*
X143471378Y-127352571D01*
X143377075Y-127124903D01*
X143340505Y-126941053D01*
X143329000Y-126883214D01*
X143329000Y-126636786D01*
X143377075Y-126395097D01*
X143471377Y-126167431D01*
X143542078Y-126061620D01*
X143608285Y-125962534D01*
X143782534Y-125788285D01*
X143987429Y-125651378D01*
X144006248Y-125643583D01*
X144215097Y-125557075D01*
X144456786Y-125509000D01*
X144703214Y-125509000D01*
X144944903Y-125557075D01*
X144944903Y-125557075D01*
G37*
G36*
X160065239Y-125527101D02*
G01*
X160301053Y-125598634D01*
X160518381Y-125714799D01*
X160708871Y-125871129D01*
X160865201Y-126061619D01*
X160981366Y-126278947D01*
X161052899Y-126514761D01*
X161077053Y-126760000D01*
X161052899Y-127005239D01*
X160981366Y-127241053D01*
X160865201Y-127458381D01*
X160708871Y-127648871D01*
X160518381Y-127805201D01*
X160301053Y-127921366D01*
X160065239Y-127992899D01*
X159881457Y-128011000D01*
X159758543Y-128011000D01*
X159574761Y-127992899D01*
X159338947Y-127921366D01*
X159121619Y-127805201D01*
X158931129Y-127648871D01*
X158774799Y-127458381D01*
X158658634Y-127241053D01*
X158587101Y-127005239D01*
X158562947Y-126760000D01*
X158587101Y-126514761D01*
X158658634Y-126278947D01*
X158774799Y-126061619D01*
X158931129Y-125871129D01*
X159121619Y-125714799D01*
X159338947Y-125598634D01*
X159574761Y-125527101D01*
X159758543Y-125509000D01*
X159881457Y-125509000D01*
X160065239Y-125527101D01*
X160065239Y-125527101D01*
G37*
G36*
X178415239Y-125527101D02*
G01*
X178651053Y-125598634D01*
X178868381Y-125714799D01*
X179058871Y-125871129D01*
X179215201Y-126061619D01*
X179331366Y-126278947D01*
X179402899Y-126514761D01*
X179427053Y-126760000D01*
X179402899Y-127005239D01*
X179331366Y-127241053D01*
X179215201Y-127458381D01*
X179058871Y-127648871D01*
X178868381Y-127805201D01*
X178651053Y-127921366D01*
X178415239Y-127992899D01*
X178231457Y-128011000D01*
X178108543Y-128011000D01*
X177924761Y-127992899D01*
X177688947Y-127921366D01*
X177471619Y-127805201D01*
X177281129Y-127648871D01*
X177124799Y-127458381D01*
X177008634Y-127241053D01*
X176937101Y-127005239D01*
X176912947Y-126760000D01*
X176937101Y-126514761D01*
X177008634Y-126278947D01*
X177124799Y-126061619D01*
X177281129Y-125871129D01*
X177471619Y-125714799D01*
X177688947Y-125598634D01*
X177924761Y-125527101D01*
X178108543Y-125509000D01*
X178231457Y-125509000D01*
X178415239Y-125527101D01*
X178415239Y-125527101D01*
G37*
G36*
X108180831Y-125280352D02*
G01*
X108264903Y-125297075D01*
X108492571Y-125391378D01*
X108697466Y-125528285D01*
X108871715Y-125702534D01*
X109008622Y-125907429D01*
X109008623Y-125907431D01*
X109102925Y-126135097D01*
X109151000Y-126376786D01*
X109151000Y-126623214D01*
X109102925Y-126864903D01*
X109063485Y-126960121D01*
X109008622Y-127092571D01*
X108871715Y-127297466D01*
X108697466Y-127471715D01*
X108492571Y-127608622D01*
X108492570Y-127608623D01*
X108492569Y-127608623D01*
X108264903Y-127702925D01*
X108023214Y-127751000D01*
X107776786Y-127751000D01*
X107535097Y-127702925D01*
X107307431Y-127608623D01*
X107307430Y-127608623D01*
X107307429Y-127608622D01*
X107102534Y-127471715D01*
X106928285Y-127297466D01*
X106791378Y-127092571D01*
X106736516Y-126960121D01*
X106697075Y-126864903D01*
X106649000Y-126623214D01*
X106649000Y-126376786D01*
X106697075Y-126135097D01*
X106791377Y-125907431D01*
X106791378Y-125907429D01*
X106928285Y-125702534D01*
X107102534Y-125528285D01*
X107307429Y-125391378D01*
X107535097Y-125297075D01*
X107619169Y-125280352D01*
X107776786Y-125249000D01*
X108023214Y-125249000D01*
X108180831Y-125280352D01*
X108180831Y-125280352D01*
G37*
G36*
X103935239Y-125227101D02*
G01*
X104171053Y-125298634D01*
X104388381Y-125414799D01*
X104578871Y-125571129D01*
X104735201Y-125761619D01*
X104851366Y-125978947D01*
X104922899Y-126214761D01*
X104947053Y-126460000D01*
X104922899Y-126705239D01*
X104851366Y-126941053D01*
X104735201Y-127158381D01*
X104578871Y-127348871D01*
X104388381Y-127505201D01*
X104171053Y-127621366D01*
X103935239Y-127692899D01*
X103751457Y-127711000D01*
X103628543Y-127711000D01*
X103444761Y-127692899D01*
X103208947Y-127621366D01*
X102991619Y-127505201D01*
X102801129Y-127348871D01*
X102644799Y-127158381D01*
X102528634Y-126941053D01*
X102457101Y-126705239D01*
X102432947Y-126460000D01*
X102457101Y-126214761D01*
X102528634Y-125978947D01*
X102644799Y-125761619D01*
X102801129Y-125571129D01*
X102991619Y-125414799D01*
X103208947Y-125298634D01*
X103444761Y-125227101D01*
X103628543Y-125209000D01*
X103751457Y-125209000D01*
X103935239Y-125227101D01*
X103935239Y-125227101D01*
G37*
G36*
X121196416Y-124939879D02*
G01*
X121387592Y-125019067D01*
X121387594Y-125019068D01*
X121559648Y-125134031D01*
X121705969Y-125280352D01*
X121786584Y-125401000D01*
X121820933Y-125452408D01*
X121900121Y-125643584D01*
X121940490Y-125846534D01*
X121940490Y-126053466D01*
X121900121Y-126256416D01*
X121842677Y-126395097D01*
X121820932Y-126447594D01*
X121705969Y-126619648D01*
X121559648Y-126765969D01*
X121387594Y-126880932D01*
X121387593Y-126880933D01*
X121387592Y-126880933D01*
X121196416Y-126960121D01*
X120993466Y-127000490D01*
X120786534Y-127000490D01*
X120583584Y-126960121D01*
X120392408Y-126880933D01*
X120392407Y-126880933D01*
X120392406Y-126880932D01*
X120220352Y-126765969D01*
X120074031Y-126619648D01*
X119959068Y-126447594D01*
X119937323Y-126395097D01*
X119879879Y-126256416D01*
X119839510Y-126053466D01*
X119839510Y-125846534D01*
X119879879Y-125643584D01*
X119959067Y-125452408D01*
X119993417Y-125401000D01*
X120074031Y-125280352D01*
X120220352Y-125134031D01*
X120392406Y-125019068D01*
X120392408Y-125019067D01*
X120583584Y-124939879D01*
X120786534Y-124899510D01*
X120993466Y-124899510D01*
X121196416Y-124939879D01*
X121196416Y-124939879D01*
G37*
G36*
X112841000Y-125401000D02*
G01*
X110539000Y-125401000D01*
X110539000Y-123099000D01*
X112841000Y-123099000D01*
X112841000Y-125401000D01*
X112841000Y-125401000D01*
G37*
G36*
X108806416Y-122389879D02*
G01*
X108997592Y-122469067D01*
X108997594Y-122469068D01*
X109128541Y-122556564D01*
X109169648Y-122584031D01*
X109315969Y-122730352D01*
X109430933Y-122902408D01*
X109510121Y-123093584D01*
X109550490Y-123296534D01*
X109550490Y-123503466D01*
X109510121Y-123706416D01*
X109483929Y-123769648D01*
X109430932Y-123897594D01*
X109315969Y-124069648D01*
X109169648Y-124215969D01*
X108997594Y-124330932D01*
X108997593Y-124330933D01*
X108997592Y-124330933D01*
X108806416Y-124410121D01*
X108603466Y-124450490D01*
X108396534Y-124450490D01*
X108193584Y-124410121D01*
X108002408Y-124330933D01*
X108002407Y-124330933D01*
X108002406Y-124330932D01*
X107830352Y-124215969D01*
X107684031Y-124069648D01*
X107569068Y-123897594D01*
X107516071Y-123769648D01*
X107489879Y-123706416D01*
X107449510Y-123503466D01*
X107449510Y-123296534D01*
X107489879Y-123093584D01*
X107569067Y-122902408D01*
X107684031Y-122730352D01*
X107830352Y-122584031D01*
X107871459Y-122556564D01*
X108002406Y-122469068D01*
X108002408Y-122469067D01*
X108193584Y-122389879D01*
X108396534Y-122349510D01*
X108603466Y-122349510D01*
X108806416Y-122389879D01*
X108806416Y-122389879D01*
G37*
G36*
X196606416Y-122089879D02*
G01*
X196797592Y-122169067D01*
X196797594Y-122169068D01*
X196969648Y-122284031D01*
X197115969Y-122430352D01*
X197230933Y-122602408D01*
X197310121Y-122793584D01*
X197350490Y-122996534D01*
X197350490Y-123203466D01*
X197310121Y-123406416D01*
X197269922Y-123503464D01*
X197230932Y-123597594D01*
X197115969Y-123769648D01*
X196969648Y-123915969D01*
X196797594Y-124030932D01*
X196797593Y-124030933D01*
X196797592Y-124030933D01*
X196606416Y-124110121D01*
X196403466Y-124150490D01*
X196196534Y-124150490D01*
X195993584Y-124110121D01*
X195802408Y-124030933D01*
X195802407Y-124030933D01*
X195802406Y-124030932D01*
X195630352Y-123915969D01*
X195484031Y-123769648D01*
X195369068Y-123597594D01*
X195330078Y-123503464D01*
X195289879Y-123406416D01*
X195249510Y-123203466D01*
X195249510Y-122996534D01*
X195289879Y-122793584D01*
X195369067Y-122602408D01*
X195484031Y-122430352D01*
X195630352Y-122284031D01*
X195802406Y-122169068D01*
X195802408Y-122169067D01*
X195993584Y-122089879D01*
X196196534Y-122049510D01*
X196403466Y-122049510D01*
X196606416Y-122089879D01*
X196606416Y-122089879D01*
G37*
G36*
X122096564Y-121239389D02*
G01*
X122287833Y-121318615D01*
X122287835Y-121318616D01*
X122459973Y-121433635D01*
X122606365Y-121580027D01*
X122721385Y-121752167D01*
X122800611Y-121943436D01*
X122841000Y-122146484D01*
X122841000Y-122353516D01*
X122800611Y-122556564D01*
X122728626Y-122730352D01*
X122721384Y-122747835D01*
X122606365Y-122919973D01*
X122459973Y-123066365D01*
X122287835Y-123181384D01*
X122287834Y-123181385D01*
X122287833Y-123181385D01*
X122096564Y-123260611D01*
X121893516Y-123301000D01*
X121686484Y-123301000D01*
X121483436Y-123260611D01*
X121292167Y-123181385D01*
X121292166Y-123181385D01*
X121292165Y-123181384D01*
X121120027Y-123066365D01*
X120973635Y-122919973D01*
X120858616Y-122747835D01*
X120851374Y-122730352D01*
X120779389Y-122556564D01*
X120739000Y-122353516D01*
X120739000Y-122146484D01*
X120779389Y-121943436D01*
X120858615Y-121752167D01*
X120973635Y-121580027D01*
X121120027Y-121433635D01*
X121292165Y-121318616D01*
X121292167Y-121318615D01*
X121483436Y-121239389D01*
X121686484Y-121199000D01*
X121893516Y-121199000D01*
X122096564Y-121239389D01*
X122096564Y-121239389D01*
G37*
G36*
X117538228Y-118231703D02*
G01*
X117693100Y-118295853D01*
X117832481Y-118388985D01*
X117951015Y-118507519D01*
X118044147Y-118646900D01*
X118108297Y-118801772D01*
X118141000Y-118966184D01*
X118141000Y-119133816D01*
X118108297Y-119298228D01*
X118044147Y-119453100D01*
X117951015Y-119592481D01*
X117832481Y-119711015D01*
X117693100Y-119804147D01*
X117538228Y-119868297D01*
X117373816Y-119901000D01*
X117206184Y-119901000D01*
X117041772Y-119868297D01*
X116886900Y-119804147D01*
X116747519Y-119711015D01*
X116628985Y-119592481D01*
X116535853Y-119453100D01*
X116471703Y-119298228D01*
X116439000Y-119133816D01*
X116439000Y-118966184D01*
X116471703Y-118801772D01*
X116535853Y-118646900D01*
X116628985Y-118507519D01*
X116747519Y-118388985D01*
X116886900Y-118295853D01*
X117041772Y-118231703D01*
X117206184Y-118199000D01*
X117373816Y-118199000D01*
X117538228Y-118231703D01*
X117538228Y-118231703D01*
G37*
G36*
X111859271Y-115490103D02*
G01*
X111915635Y-115495654D01*
X112132600Y-115561470D01*
X112132602Y-115561471D01*
X112332555Y-115668347D01*
X112507818Y-115812182D01*
X112651653Y-115987445D01*
X112726132Y-116126787D01*
X112758530Y-116187400D01*
X112824346Y-116404365D01*
X112846569Y-116630000D01*
X112824346Y-116855635D01*
X112797975Y-116942569D01*
X112758529Y-117072602D01*
X112651653Y-117272555D01*
X112507818Y-117447818D01*
X112332555Y-117591653D01*
X112132602Y-117698529D01*
X112132600Y-117698530D01*
X111915635Y-117764346D01*
X111859271Y-117769897D01*
X111746545Y-117781000D01*
X111633455Y-117781000D01*
X111520729Y-117769897D01*
X111464365Y-117764346D01*
X111247400Y-117698530D01*
X111247398Y-117698529D01*
X111047445Y-117591653D01*
X110872182Y-117447818D01*
X110728347Y-117272555D01*
X110621471Y-117072602D01*
X110582026Y-116942569D01*
X110555654Y-116855635D01*
X110533431Y-116630000D01*
X110555654Y-116404365D01*
X110621470Y-116187400D01*
X110653868Y-116126787D01*
X110728347Y-115987445D01*
X110872182Y-115812182D01*
X111047445Y-115668347D01*
X111247398Y-115561471D01*
X111247400Y-115561470D01*
X111464365Y-115495654D01*
X111520729Y-115490103D01*
X111633455Y-115479000D01*
X111746545Y-115479000D01*
X111859271Y-115490103D01*
X111859271Y-115490103D01*
G37*
G36*
X180726257Y-115141377D02*
G01*
X180754903Y-115147075D01*
X180982571Y-115241378D01*
X181187466Y-115378285D01*
X181361715Y-115552534D01*
X181498622Y-115757429D01*
X181498623Y-115757431D01*
X181592925Y-115985097D01*
X181641000Y-116226786D01*
X181641000Y-116473214D01*
X181592925Y-116714903D01*
X181534633Y-116855634D01*
X181498622Y-116942571D01*
X181361715Y-117147466D01*
X181187466Y-117321715D01*
X180982571Y-117458622D01*
X180982570Y-117458623D01*
X180982569Y-117458623D01*
X180754903Y-117552925D01*
X180513214Y-117601000D01*
X180266786Y-117601000D01*
X180025097Y-117552925D01*
X179797431Y-117458623D01*
X179797430Y-117458623D01*
X179797429Y-117458622D01*
X179592534Y-117321715D01*
X179418285Y-117147466D01*
X179281378Y-116942571D01*
X179245368Y-116855634D01*
X179187075Y-116714903D01*
X179139000Y-116473214D01*
X179139000Y-116226786D01*
X179187075Y-115985097D01*
X179281377Y-115757431D01*
X179281378Y-115757429D01*
X179418285Y-115552534D01*
X179592534Y-115378285D01*
X179797429Y-115241378D01*
X180025097Y-115147075D01*
X180053743Y-115141377D01*
X180266786Y-115099000D01*
X180513214Y-115099000D01*
X180726257Y-115141377D01*
X180726257Y-115141377D01*
G37*
G36*
X163726257Y-115141377D02*
G01*
X163754903Y-115147075D01*
X163982571Y-115241378D01*
X164187466Y-115378285D01*
X164361715Y-115552534D01*
X164498622Y-115757429D01*
X164498623Y-115757431D01*
X164592925Y-115985097D01*
X164641000Y-116226786D01*
X164641000Y-116473214D01*
X164592925Y-116714903D01*
X164534633Y-116855634D01*
X164498622Y-116942571D01*
X164361715Y-117147466D01*
X164187466Y-117321715D01*
X163982571Y-117458622D01*
X163982570Y-117458623D01*
X163982569Y-117458623D01*
X163754903Y-117552925D01*
X163513214Y-117601000D01*
X163266786Y-117601000D01*
X163025097Y-117552925D01*
X162797431Y-117458623D01*
X162797430Y-117458623D01*
X162797429Y-117458622D01*
X162592534Y-117321715D01*
X162418285Y-117147466D01*
X162281378Y-116942571D01*
X162245368Y-116855634D01*
X162187075Y-116714903D01*
X162139000Y-116473214D01*
X162139000Y-116226786D01*
X162187075Y-115985097D01*
X162281377Y-115757431D01*
X162281378Y-115757429D01*
X162418285Y-115552534D01*
X162592534Y-115378285D01*
X162797429Y-115241378D01*
X163025097Y-115147075D01*
X163053743Y-115141377D01*
X163266786Y-115099000D01*
X163513214Y-115099000D01*
X163726257Y-115141377D01*
X163726257Y-115141377D01*
G37*
G36*
X172141000Y-117601000D02*
G01*
X169639000Y-117601000D01*
X169639000Y-115099000D01*
X172141000Y-115099000D01*
X172141000Y-117601000D01*
X172141000Y-117601000D01*
G37*
G36*
X189141000Y-117601000D02*
G01*
X186639000Y-117601000D01*
X186639000Y-115099000D01*
X189141000Y-115099000D01*
X189141000Y-117601000D01*
X189141000Y-117601000D01*
G37*
G36*
X129654903Y-115047075D02*
G01*
X129882571Y-115141378D01*
X130087466Y-115278285D01*
X130261715Y-115452534D01*
X130398622Y-115657429D01*
X130398623Y-115657431D01*
X130492925Y-115885097D01*
X130541000Y-116126786D01*
X130541000Y-116373214D01*
X130534803Y-116404366D01*
X130492925Y-116614903D01*
X130398622Y-116842571D01*
X130261715Y-117047466D01*
X130087466Y-117221715D01*
X129882571Y-117358622D01*
X129882570Y-117358623D01*
X129882569Y-117358623D01*
X129654903Y-117452925D01*
X129413214Y-117501000D01*
X129166786Y-117501000D01*
X128925097Y-117452925D01*
X128697431Y-117358623D01*
X128697430Y-117358623D01*
X128697429Y-117358622D01*
X128492534Y-117221715D01*
X128318285Y-117047466D01*
X128181378Y-116842571D01*
X128087075Y-116614903D01*
X128045197Y-116404366D01*
X128039000Y-116373214D01*
X128039000Y-116126786D01*
X128087075Y-115885097D01*
X128181377Y-115657431D01*
X128181378Y-115657429D01*
X128318285Y-115452534D01*
X128492534Y-115278285D01*
X128697429Y-115141378D01*
X128925097Y-115047075D01*
X129166786Y-114999000D01*
X129413214Y-114999000D01*
X129654903Y-115047075D01*
X129654903Y-115047075D01*
G37*
G36*
X146654903Y-115047075D02*
G01*
X146882571Y-115141378D01*
X147087466Y-115278285D01*
X147261715Y-115452534D01*
X147398622Y-115657429D01*
X147398623Y-115657431D01*
X147492925Y-115885097D01*
X147541000Y-116126786D01*
X147541000Y-116373214D01*
X147534803Y-116404366D01*
X147492925Y-116614903D01*
X147398622Y-116842571D01*
X147261715Y-117047466D01*
X147087466Y-117221715D01*
X146882571Y-117358622D01*
X146882570Y-117358623D01*
X146882569Y-117358623D01*
X146654903Y-117452925D01*
X146413214Y-117501000D01*
X146166786Y-117501000D01*
X145925097Y-117452925D01*
X145697431Y-117358623D01*
X145697430Y-117358623D01*
X145697429Y-117358622D01*
X145492534Y-117221715D01*
X145318285Y-117047466D01*
X145181378Y-116842571D01*
X145087075Y-116614903D01*
X145045197Y-116404366D01*
X145039000Y-116373214D01*
X145039000Y-116126786D01*
X145087075Y-115885097D01*
X145181377Y-115657431D01*
X145181378Y-115657429D01*
X145318285Y-115452534D01*
X145492534Y-115278285D01*
X145697429Y-115141378D01*
X145925097Y-115047075D01*
X146166786Y-114999000D01*
X146413214Y-114999000D01*
X146654903Y-115047075D01*
X146654903Y-115047075D01*
G37*
G36*
X138041000Y-117501000D02*
G01*
X135539000Y-117501000D01*
X135539000Y-114999000D01*
X138041000Y-114999000D01*
X138041000Y-117501000D01*
X138041000Y-117501000D01*
G37*
G36*
X155041000Y-117501000D02*
G01*
X152539000Y-117501000D01*
X152539000Y-114999000D01*
X155041000Y-114999000D01*
X155041000Y-117501000D01*
X155041000Y-117501000D01*
G37*
G36*
X122096564Y-113739389D02*
G01*
X122247170Y-113801772D01*
X122287835Y-113818616D01*
X122459973Y-113933635D01*
X122606365Y-114080027D01*
X122721385Y-114252167D01*
X122800611Y-114443436D01*
X122841000Y-114646484D01*
X122841000Y-114853516D01*
X122800611Y-115056564D01*
X122783033Y-115099000D01*
X122721384Y-115247835D01*
X122606365Y-115419973D01*
X122459973Y-115566365D01*
X122287835Y-115681384D01*
X122287834Y-115681385D01*
X122287833Y-115681385D01*
X122096564Y-115760611D01*
X121893516Y-115801000D01*
X121686484Y-115801000D01*
X121483436Y-115760611D01*
X121292167Y-115681385D01*
X121292166Y-115681385D01*
X121292165Y-115681384D01*
X121120027Y-115566365D01*
X120973635Y-115419973D01*
X120858616Y-115247835D01*
X120796967Y-115099000D01*
X120779389Y-115056564D01*
X120739000Y-114853516D01*
X120739000Y-114646484D01*
X120779389Y-114443436D01*
X120858615Y-114252167D01*
X120973635Y-114080027D01*
X121120027Y-113933635D01*
X121292165Y-113818616D01*
X121332830Y-113801772D01*
X121483436Y-113739389D01*
X121686484Y-113699000D01*
X121893516Y-113699000D01*
X122096564Y-113739389D01*
X122096564Y-113739389D01*
G37*
G36*
X117538228Y-113231703D02*
G01*
X117693100Y-113295853D01*
X117832481Y-113388985D01*
X117951015Y-113507519D01*
X118044147Y-113646900D01*
X118108297Y-113801772D01*
X118141000Y-113966184D01*
X118141000Y-114133816D01*
X118108297Y-114298228D01*
X118044147Y-114453100D01*
X117951015Y-114592481D01*
X117832481Y-114711015D01*
X117693100Y-114804147D01*
X117538228Y-114868297D01*
X117373816Y-114901000D01*
X117206184Y-114901000D01*
X117041772Y-114868297D01*
X116886900Y-114804147D01*
X116747519Y-114711015D01*
X116628985Y-114592481D01*
X116535853Y-114453100D01*
X116471703Y-114298228D01*
X116439000Y-114133816D01*
X116439000Y-113966184D01*
X116471703Y-113801772D01*
X116535853Y-113646900D01*
X116628985Y-113507519D01*
X116747519Y-113388985D01*
X116886900Y-113295853D01*
X117041772Y-113231703D01*
X117206184Y-113199000D01*
X117373816Y-113199000D01*
X117538228Y-113231703D01*
X117538228Y-113231703D01*
G37*
G36*
X112079271Y-112410103D02*
G01*
X112135635Y-112415654D01*
X112352600Y-112481470D01*
X112352602Y-112481471D01*
X112552555Y-112588347D01*
X112727818Y-112732182D01*
X112871653Y-112907445D01*
X112978529Y-113107398D01*
X112978530Y-113107400D01*
X113044346Y-113324365D01*
X113066569Y-113550000D01*
X113044346Y-113775635D01*
X113031308Y-113818616D01*
X112978529Y-113992602D01*
X112871653Y-114192555D01*
X112727818Y-114367818D01*
X112552555Y-114511653D01*
X112352602Y-114618529D01*
X112352600Y-114618530D01*
X112135635Y-114684346D01*
X112079271Y-114689897D01*
X111966545Y-114701000D01*
X111853455Y-114701000D01*
X111740729Y-114689897D01*
X111684365Y-114684346D01*
X111467400Y-114618530D01*
X111467398Y-114618529D01*
X111267445Y-114511653D01*
X111092182Y-114367818D01*
X110948347Y-114192555D01*
X110841471Y-113992602D01*
X110788693Y-113818616D01*
X110775654Y-113775635D01*
X110753431Y-113550000D01*
X110775654Y-113324365D01*
X110841470Y-113107400D01*
X110841471Y-113107398D01*
X110948347Y-112907445D01*
X111092182Y-112732182D01*
X111267445Y-112588347D01*
X111467398Y-112481471D01*
X111467400Y-112481470D01*
X111684365Y-112415654D01*
X111740729Y-112410103D01*
X111853455Y-112399000D01*
X111966545Y-112399000D01*
X112079271Y-112410103D01*
X112079271Y-112410103D01*
G37*
G36*
X105441000Y-114701000D02*
G01*
X103139000Y-114701000D01*
X103139000Y-112399000D01*
X105441000Y-112399000D01*
X105441000Y-114701000D01*
X105441000Y-114701000D01*
G37*
G36*
X120861304Y-107837002D02*
G01*
X121280139Y-108010489D01*
X121280141Y-108010490D01*
X121469891Y-108137277D01*
X121595648Y-108221305D01*
X121657083Y-108262355D01*
X121977645Y-108582917D01*
X122202254Y-108919067D01*
X122229511Y-108959861D01*
X122402998Y-109378696D01*
X122491440Y-109823327D01*
X122491440Y-110276673D01*
X122402998Y-110721304D01*
X122260233Y-111065969D01*
X122229510Y-111140141D01*
X121977645Y-111517083D01*
X121657083Y-111837645D01*
X121280141Y-112089510D01*
X121280140Y-112089511D01*
X121280139Y-112089511D01*
X120861304Y-112262998D01*
X120416673Y-112351440D01*
X119963327Y-112351440D01*
X119518696Y-112262998D01*
X119099861Y-112089511D01*
X119099860Y-112089511D01*
X119099859Y-112089510D01*
X118722917Y-111837645D01*
X118402355Y-111517083D01*
X118150490Y-111140141D01*
X118119767Y-111065969D01*
X117977002Y-110721304D01*
X117888560Y-110276673D01*
X117888560Y-109823327D01*
X117977002Y-109378696D01*
X118150489Y-108959861D01*
X118177747Y-108919067D01*
X118402355Y-108582917D01*
X118722917Y-108262355D01*
X118784353Y-108221305D01*
X118910109Y-108137277D01*
X119099859Y-108010490D01*
X119099861Y-108010489D01*
X119518696Y-107837002D01*
X119963327Y-107748560D01*
X120416673Y-107748560D01*
X120861304Y-107837002D01*
X120861304Y-107837002D01*
G37*
G36*
X104646416Y-109239879D02*
G01*
X104837592Y-109319067D01*
X104837594Y-109319068D01*
X105009648Y-109434031D01*
X105155969Y-109580352D01*
X105267010Y-109746536D01*
X105270933Y-109752408D01*
X105350121Y-109943584D01*
X105390490Y-110146534D01*
X105390490Y-110353466D01*
X105350121Y-110556416D01*
X105304742Y-110665969D01*
X105270932Y-110747594D01*
X105155969Y-110919648D01*
X105009648Y-111065969D01*
X104837594Y-111180932D01*
X104837593Y-111180933D01*
X104837592Y-111180933D01*
X104646416Y-111260121D01*
X104443466Y-111300490D01*
X104236534Y-111300490D01*
X104033584Y-111260121D01*
X103842408Y-111180933D01*
X103842407Y-111180933D01*
X103842406Y-111180932D01*
X103670352Y-111065969D01*
X103524031Y-110919648D01*
X103409068Y-110747594D01*
X103375258Y-110665969D01*
X103329879Y-110556416D01*
X103289510Y-110353466D01*
X103289510Y-110146534D01*
X103329879Y-109943584D01*
X103409067Y-109752408D01*
X103412991Y-109746536D01*
X103524031Y-109580352D01*
X103670352Y-109434031D01*
X103842406Y-109319068D01*
X103842408Y-109319067D01*
X104033584Y-109239879D01*
X104236534Y-109199510D01*
X104443466Y-109199510D01*
X104646416Y-109239879D01*
X104646416Y-109239879D01*
G37*
G36*
X107776416Y-109239879D02*
G01*
X107967592Y-109319067D01*
X107967594Y-109319068D01*
X108139648Y-109434031D01*
X108285969Y-109580352D01*
X108397010Y-109746536D01*
X108400933Y-109752408D01*
X108480121Y-109943584D01*
X108520490Y-110146534D01*
X108520490Y-110353466D01*
X108480121Y-110556416D01*
X108434742Y-110665969D01*
X108400932Y-110747594D01*
X108285969Y-110919648D01*
X108139648Y-111065969D01*
X107967594Y-111180932D01*
X107967593Y-111180933D01*
X107967592Y-111180933D01*
X107776416Y-111260121D01*
X107573466Y-111300490D01*
X107366534Y-111300490D01*
X107163584Y-111260121D01*
X106972408Y-111180933D01*
X106972407Y-111180933D01*
X106972406Y-111180932D01*
X106800352Y-111065969D01*
X106654031Y-110919648D01*
X106539068Y-110747594D01*
X106505258Y-110665969D01*
X106459879Y-110556416D01*
X106419510Y-110353466D01*
X106419510Y-110146534D01*
X106459879Y-109943584D01*
X106539067Y-109752408D01*
X106542991Y-109746536D01*
X106654031Y-109580352D01*
X106800352Y-109434031D01*
X106972406Y-109319068D01*
X106972408Y-109319067D01*
X107163584Y-109239879D01*
X107366534Y-109199510D01*
X107573466Y-109199510D01*
X107776416Y-109239879D01*
X107776416Y-109239879D01*
G37*
G36*
X196224549Y-108871116D02*
G01*
X196335734Y-108893232D01*
X196483850Y-108954584D01*
X196496591Y-108959861D01*
X196545203Y-108979997D01*
X196733720Y-109105960D01*
X196894040Y-109266280D01*
X197020003Y-109454797D01*
X197106768Y-109664266D01*
X197123132Y-109746534D01*
X197151000Y-109886635D01*
X197151000Y-110113365D01*
X197142436Y-110156417D01*
X197106768Y-110335734D01*
X197020003Y-110545203D01*
X196894040Y-110733720D01*
X196733720Y-110894040D01*
X196545203Y-111020003D01*
X196335734Y-111106768D01*
X196224549Y-111128884D01*
X196113365Y-111151000D01*
X195886635Y-111151000D01*
X195775451Y-111128884D01*
X195664266Y-111106768D01*
X195454797Y-111020003D01*
X195266280Y-110894040D01*
X195105960Y-110733720D01*
X194979997Y-110545203D01*
X194893232Y-110335734D01*
X194857564Y-110156417D01*
X194849000Y-110113365D01*
X194849000Y-109886635D01*
X194876868Y-109746534D01*
X194893232Y-109664266D01*
X194979997Y-109454797D01*
X195105960Y-109266280D01*
X195266280Y-109105960D01*
X195454797Y-108979997D01*
X195503410Y-108959861D01*
X195516150Y-108954584D01*
X195664266Y-108893232D01*
X195775451Y-108871116D01*
X195886635Y-108849000D01*
X196113365Y-108849000D01*
X196224549Y-108871116D01*
X196224549Y-108871116D01*
G37*
G36*
X124996416Y-108839879D02*
G01*
X125187592Y-108919067D01*
X125187594Y-108919068D01*
X125359648Y-109034031D01*
X125505969Y-109180352D01*
X125611070Y-109337646D01*
X125620933Y-109352408D01*
X125700121Y-109543584D01*
X125740490Y-109746534D01*
X125740490Y-109953466D01*
X125700121Y-110156416D01*
X125625845Y-110335733D01*
X125620932Y-110347594D01*
X125505969Y-110519648D01*
X125359648Y-110665969D01*
X125187594Y-110780932D01*
X125187593Y-110780933D01*
X125187592Y-110780933D01*
X124996416Y-110860121D01*
X124793466Y-110900490D01*
X124586534Y-110900490D01*
X124383584Y-110860121D01*
X124192408Y-110780933D01*
X124192407Y-110780933D01*
X124192406Y-110780932D01*
X124020352Y-110665969D01*
X123874031Y-110519648D01*
X123759068Y-110347594D01*
X123754155Y-110335733D01*
X123679879Y-110156416D01*
X123639510Y-109953466D01*
X123639510Y-109746534D01*
X123679879Y-109543584D01*
X123759067Y-109352408D01*
X123768931Y-109337646D01*
X123874031Y-109180352D01*
X124020352Y-109034031D01*
X124192406Y-108919068D01*
X124192408Y-108919067D01*
X124383584Y-108839879D01*
X124586534Y-108799510D01*
X124793466Y-108799510D01*
X124996416Y-108839879D01*
X124996416Y-108839879D01*
G37*
G36*
X176261304Y-105437002D02*
G01*
X176680139Y-105610489D01*
X176680141Y-105610490D01*
X176869891Y-105737277D01*
X177057082Y-105862354D01*
X177377646Y-106182918D01*
X177486971Y-106346534D01*
X177590182Y-106501000D01*
X177629511Y-106559861D01*
X177802998Y-106978696D01*
X177891440Y-107423327D01*
X177891440Y-107876673D01*
X177802998Y-108321304D01*
X177694634Y-108582917D01*
X177629510Y-108740141D01*
X177527218Y-108893232D01*
X177377646Y-109117082D01*
X177057082Y-109437646D01*
X176898536Y-109543583D01*
X176680141Y-109689510D01*
X176680140Y-109689511D01*
X176680139Y-109689511D01*
X176261304Y-109862998D01*
X175816673Y-109951440D01*
X175363327Y-109951440D01*
X174918696Y-109862998D01*
X174499861Y-109689511D01*
X174499860Y-109689511D01*
X174499859Y-109689510D01*
X174281464Y-109543583D01*
X174122918Y-109437646D01*
X173802354Y-109117082D01*
X173652782Y-108893232D01*
X173550490Y-108740141D01*
X173485366Y-108582917D01*
X173377002Y-108321304D01*
X173288560Y-107876673D01*
X173288560Y-107423327D01*
X173377002Y-106978696D01*
X173550489Y-106559861D01*
X173589819Y-106501000D01*
X173693029Y-106346534D01*
X173802354Y-106182918D01*
X174122918Y-105862354D01*
X174310109Y-105737277D01*
X174499859Y-105610490D01*
X174499861Y-105610489D01*
X174918696Y-105437002D01*
X175363327Y-105348560D01*
X175816673Y-105348560D01*
X176261304Y-105437002D01*
X176261304Y-105437002D01*
G37*
G36*
X142261304Y-105337002D02*
G01*
X142590424Y-105473328D01*
X142680141Y-105510490D01*
X142829800Y-105610489D01*
X143057082Y-105762354D01*
X143377646Y-106082918D01*
X143420153Y-106146534D01*
X143618635Y-106443583D01*
X143629511Y-106459861D01*
X143802998Y-106878696D01*
X143891440Y-107323327D01*
X143891440Y-107776673D01*
X143802998Y-108221304D01*
X143629511Y-108640139D01*
X143377646Y-109017082D01*
X143057082Y-109337646D01*
X142907423Y-109437645D01*
X142680141Y-109589510D01*
X142680140Y-109589511D01*
X142680139Y-109589511D01*
X142261304Y-109762998D01*
X141816673Y-109851440D01*
X141363327Y-109851440D01*
X140918696Y-109762998D01*
X140499861Y-109589511D01*
X140499860Y-109589511D01*
X140499859Y-109589510D01*
X140272577Y-109437645D01*
X140122918Y-109337646D01*
X139802354Y-109017082D01*
X139550489Y-108640139D01*
X139377002Y-108221304D01*
X139288560Y-107776673D01*
X139288560Y-107323327D01*
X139377002Y-106878696D01*
X139550489Y-106459861D01*
X139561366Y-106443583D01*
X139759847Y-106146534D01*
X139802354Y-106082918D01*
X140122918Y-105762354D01*
X140350200Y-105610489D01*
X140499859Y-105510490D01*
X140589576Y-105473328D01*
X140918696Y-105337002D01*
X141363327Y-105248560D01*
X141816673Y-105248560D01*
X142261304Y-105337002D01*
X142261304Y-105337002D01*
G37*
G36*
X159361304Y-105337002D02*
G01*
X159690424Y-105473328D01*
X159780141Y-105510490D01*
X159929800Y-105610489D01*
X160157082Y-105762354D01*
X160477646Y-106082918D01*
X160520153Y-106146534D01*
X160718635Y-106443583D01*
X160729511Y-106459861D01*
X160902998Y-106878696D01*
X160991440Y-107323327D01*
X160991440Y-107776673D01*
X160902998Y-108221304D01*
X160729511Y-108640139D01*
X160477646Y-109017082D01*
X160157082Y-109337646D01*
X160007423Y-109437645D01*
X159780141Y-109589510D01*
X159780140Y-109589511D01*
X159780139Y-109589511D01*
X159361304Y-109762998D01*
X158916673Y-109851440D01*
X158463327Y-109851440D01*
X158018696Y-109762998D01*
X157599861Y-109589511D01*
X157599860Y-109589511D01*
X157599859Y-109589510D01*
X157372577Y-109437645D01*
X157222918Y-109337646D01*
X156902354Y-109017082D01*
X156650489Y-108640139D01*
X156477002Y-108221304D01*
X156388560Y-107776673D01*
X156388560Y-107323327D01*
X156477002Y-106878696D01*
X156650489Y-106459861D01*
X156661366Y-106443583D01*
X156859847Y-106146534D01*
X156902354Y-106082918D01*
X157222918Y-105762354D01*
X157450200Y-105610489D01*
X157599859Y-105510490D01*
X157689576Y-105473328D01*
X158018696Y-105337002D01*
X158463327Y-105248560D01*
X158916673Y-105248560D01*
X159361304Y-105337002D01*
X159361304Y-105337002D01*
G37*
G36*
X190371304Y-103487002D02*
G01*
X190718784Y-103630933D01*
X190790141Y-103660490D01*
X190864417Y-103710120D01*
X191167082Y-103912354D01*
X191487646Y-104232918D01*
X191739511Y-104609861D01*
X191912998Y-105028696D01*
X192001440Y-105473327D01*
X192001440Y-105926673D01*
X191912998Y-106371304D01*
X191753479Y-106756417D01*
X191739510Y-106790141D01*
X191680340Y-106878695D01*
X191487646Y-107167082D01*
X191167082Y-107487646D01*
X191049863Y-107565969D01*
X190790141Y-107739510D01*
X190790140Y-107739511D01*
X190790139Y-107739511D01*
X190371304Y-107912998D01*
X189926673Y-108001440D01*
X189473327Y-108001440D01*
X189028696Y-107912998D01*
X188609861Y-107739511D01*
X188609860Y-107739511D01*
X188609859Y-107739510D01*
X188350137Y-107565969D01*
X188232918Y-107487646D01*
X187912354Y-107167082D01*
X187719660Y-106878695D01*
X187660490Y-106790141D01*
X187646521Y-106756417D01*
X187487002Y-106371304D01*
X187398560Y-105926673D01*
X187398560Y-105473327D01*
X187487002Y-105028696D01*
X187660489Y-104609861D01*
X187912354Y-104232918D01*
X188232918Y-103912354D01*
X188535583Y-103710120D01*
X188609859Y-103660490D01*
X188681216Y-103630933D01*
X189028696Y-103487002D01*
X189473327Y-103398560D01*
X189926673Y-103398560D01*
X190371304Y-103487002D01*
X190371304Y-103487002D01*
G37*
G36*
X124996416Y-105739879D02*
G01*
X125187592Y-105819067D01*
X125187594Y-105819068D01*
X125359648Y-105934031D01*
X125505969Y-106080352D01*
X125617010Y-106246536D01*
X125620933Y-106252408D01*
X125700121Y-106443584D01*
X125740490Y-106646534D01*
X125740490Y-106853466D01*
X125700121Y-107056416D01*
X125648544Y-107180933D01*
X125620932Y-107247594D01*
X125505969Y-107419648D01*
X125359648Y-107565969D01*
X125187594Y-107680932D01*
X125187593Y-107680933D01*
X125187592Y-107680933D01*
X124996416Y-107760121D01*
X124793466Y-107800490D01*
X124586534Y-107800490D01*
X124383584Y-107760121D01*
X124192408Y-107680933D01*
X124192407Y-107680933D01*
X124192406Y-107680932D01*
X124020352Y-107565969D01*
X123874031Y-107419648D01*
X123759068Y-107247594D01*
X123731456Y-107180933D01*
X123679879Y-107056416D01*
X123639510Y-106853466D01*
X123639510Y-106646534D01*
X123679879Y-106443584D01*
X123759067Y-106252408D01*
X123762991Y-106246536D01*
X123874031Y-106080352D01*
X124020352Y-105934031D01*
X124192406Y-105819068D01*
X124192408Y-105819067D01*
X124383584Y-105739879D01*
X124586534Y-105699510D01*
X124793466Y-105699510D01*
X124996416Y-105739879D01*
X124996416Y-105739879D01*
G37*
G36*
X171496416Y-105439879D02*
G01*
X171666885Y-105510490D01*
X171687594Y-105519068D01*
X171859648Y-105634031D01*
X172005969Y-105780352D01*
X172115037Y-105943583D01*
X172120933Y-105952408D01*
X172200121Y-106143584D01*
X172240490Y-106346534D01*
X172240490Y-106553466D01*
X172200121Y-106756416D01*
X172132508Y-106919648D01*
X172120932Y-106947594D01*
X172005969Y-107119648D01*
X171859648Y-107265969D01*
X171687594Y-107380932D01*
X171687593Y-107380933D01*
X171687592Y-107380933D01*
X171496416Y-107460121D01*
X171293466Y-107500490D01*
X171086534Y-107500490D01*
X170883584Y-107460121D01*
X170692408Y-107380933D01*
X170692407Y-107380933D01*
X170692406Y-107380932D01*
X170520352Y-107265969D01*
X170374031Y-107119648D01*
X170259068Y-106947594D01*
X170247492Y-106919648D01*
X170179879Y-106756416D01*
X170139510Y-106553466D01*
X170139510Y-106346534D01*
X170179879Y-106143584D01*
X170259067Y-105952408D01*
X170264964Y-105943583D01*
X170374031Y-105780352D01*
X170520352Y-105634031D01*
X170692406Y-105519068D01*
X170713115Y-105510490D01*
X170883584Y-105439879D01*
X171086534Y-105399510D01*
X171293466Y-105399510D01*
X171496416Y-105439879D01*
X171496416Y-105439879D01*
G37*
G36*
X154696416Y-105339879D02*
G01*
X154840377Y-105399510D01*
X154887594Y-105419068D01*
X155059648Y-105534031D01*
X155205969Y-105680352D01*
X155298656Y-105819067D01*
X155320933Y-105852408D01*
X155400121Y-106043584D01*
X155440490Y-106246534D01*
X155440490Y-106453466D01*
X155400121Y-106656416D01*
X155358699Y-106756416D01*
X155320932Y-106847594D01*
X155205969Y-107019648D01*
X155059648Y-107165969D01*
X154887594Y-107280932D01*
X154887593Y-107280933D01*
X154887592Y-107280933D01*
X154696416Y-107360121D01*
X154493466Y-107400490D01*
X154286534Y-107400490D01*
X154083584Y-107360121D01*
X153892408Y-107280933D01*
X153892407Y-107280933D01*
X153892406Y-107280932D01*
X153720352Y-107165969D01*
X153574031Y-107019648D01*
X153459068Y-106847594D01*
X153421301Y-106756416D01*
X153379879Y-106656416D01*
X153339510Y-106453466D01*
X153339510Y-106246534D01*
X153379879Y-106043584D01*
X153459067Y-105852408D01*
X153481345Y-105819067D01*
X153574031Y-105680352D01*
X153720352Y-105534031D01*
X153892406Y-105419068D01*
X153939623Y-105399510D01*
X154083584Y-105339879D01*
X154286534Y-105299510D01*
X154493466Y-105299510D01*
X154696416Y-105339879D01*
X154696416Y-105339879D01*
G37*
G36*
X185556416Y-105239879D02*
G01*
X185700377Y-105299510D01*
X185747594Y-105319068D01*
X185919648Y-105434031D01*
X186065969Y-105580352D01*
X186172562Y-105739879D01*
X186180933Y-105752408D01*
X186260121Y-105943584D01*
X186300490Y-106146534D01*
X186300490Y-106353466D01*
X186260121Y-106556416D01*
X186222792Y-106646536D01*
X186180932Y-106747594D01*
X186065969Y-106919648D01*
X185919648Y-107065969D01*
X185747594Y-107180932D01*
X185747593Y-107180933D01*
X185747592Y-107180933D01*
X185556416Y-107260121D01*
X185353466Y-107300490D01*
X185146534Y-107300490D01*
X184943584Y-107260121D01*
X184752408Y-107180933D01*
X184752407Y-107180933D01*
X184752406Y-107180932D01*
X184580352Y-107065969D01*
X184434031Y-106919648D01*
X184319068Y-106747594D01*
X184277208Y-106646536D01*
X184239879Y-106556416D01*
X184199510Y-106353466D01*
X184199510Y-106146534D01*
X184239879Y-105943584D01*
X184319067Y-105752408D01*
X184327439Y-105739879D01*
X184434031Y-105580352D01*
X184580352Y-105434031D01*
X184752406Y-105319068D01*
X184799623Y-105299510D01*
X184943584Y-105239879D01*
X185146534Y-105199510D01*
X185353466Y-105199510D01*
X185556416Y-105239879D01*
X185556416Y-105239879D01*
G37*
G36*
X137596416Y-105239879D02*
G01*
X137740377Y-105299510D01*
X137787594Y-105319068D01*
X137959648Y-105434031D01*
X138105969Y-105580352D01*
X138212562Y-105739879D01*
X138220933Y-105752408D01*
X138300121Y-105943584D01*
X138340490Y-106146534D01*
X138340490Y-106353466D01*
X138300121Y-106556416D01*
X138262792Y-106646536D01*
X138220932Y-106747594D01*
X138105969Y-106919648D01*
X137959648Y-107065969D01*
X137787594Y-107180932D01*
X137787593Y-107180933D01*
X137787592Y-107180933D01*
X137596416Y-107260121D01*
X137393466Y-107300490D01*
X137186534Y-107300490D01*
X136983584Y-107260121D01*
X136792408Y-107180933D01*
X136792407Y-107180933D01*
X136792406Y-107180932D01*
X136620352Y-107065969D01*
X136474031Y-106919648D01*
X136359068Y-106747594D01*
X136317208Y-106646536D01*
X136279879Y-106556416D01*
X136239510Y-106353466D01*
X136239510Y-106146534D01*
X136279879Y-105943584D01*
X136359067Y-105752408D01*
X136367439Y-105739879D01*
X136474031Y-105580352D01*
X136620352Y-105434031D01*
X136792406Y-105319068D01*
X136839623Y-105299510D01*
X136983584Y-105239879D01*
X137186534Y-105199510D01*
X137393466Y-105199510D01*
X137596416Y-105239879D01*
X137596416Y-105239879D01*
G37*
G36*
X122541000Y-106501000D02*
G01*
X119439000Y-106501000D01*
X119439000Y-103399000D01*
X122541000Y-103399000D01*
X122541000Y-106501000D01*
X122541000Y-106501000D01*
G37*
G36*
X106224549Y-102871116D02*
G01*
X106335734Y-102893232D01*
X106545203Y-102979997D01*
X106733720Y-103105960D01*
X106894040Y-103266280D01*
X107020003Y-103454797D01*
X107106768Y-103664266D01*
X107125537Y-103758623D01*
X107144295Y-103852925D01*
X107151000Y-103886636D01*
X107151000Y-104113364D01*
X107106768Y-104335734D01*
X107020003Y-104545203D01*
X106894040Y-104733720D01*
X106733720Y-104894040D01*
X106545203Y-105020003D01*
X106545202Y-105020004D01*
X106545201Y-105020004D01*
X106483850Y-105045416D01*
X106335734Y-105106768D01*
X106224549Y-105128884D01*
X106113365Y-105151000D01*
X105886635Y-105151000D01*
X105775451Y-105128884D01*
X105664266Y-105106768D01*
X105516150Y-105045416D01*
X105454799Y-105020004D01*
X105454798Y-105020004D01*
X105454797Y-105020003D01*
X105266280Y-104894040D01*
X105105960Y-104733720D01*
X104979997Y-104545203D01*
X104893232Y-104335734D01*
X104849000Y-104113364D01*
X104849000Y-103886636D01*
X104855706Y-103852925D01*
X104874463Y-103758623D01*
X104893232Y-103664266D01*
X104979997Y-103454797D01*
X105105960Y-103266280D01*
X105266280Y-103105960D01*
X105454797Y-102979997D01*
X105664266Y-102893232D01*
X105775451Y-102871116D01*
X105886635Y-102849000D01*
X106113365Y-102849000D01*
X106224549Y-102871116D01*
X106224549Y-102871116D01*
G37*
G36*
X131895239Y-101417101D02*
G01*
X132131053Y-101488634D01*
X132348381Y-101604799D01*
X132538871Y-101761129D01*
X132695201Y-101951619D01*
X132811366Y-102168947D01*
X132882899Y-102404761D01*
X132907053Y-102650000D01*
X132882899Y-102895239D01*
X132811366Y-103131053D01*
X132695201Y-103348381D01*
X132538871Y-103538871D01*
X132348381Y-103695201D01*
X132131053Y-103811366D01*
X131895239Y-103882899D01*
X131711457Y-103901000D01*
X131588543Y-103901000D01*
X131404761Y-103882899D01*
X131168947Y-103811366D01*
X130951619Y-103695201D01*
X130761129Y-103538871D01*
X130604799Y-103348381D01*
X130488634Y-103131053D01*
X130417101Y-102895239D01*
X130392947Y-102650000D01*
X130417101Y-102404761D01*
X130488634Y-102168947D01*
X130604799Y-101951619D01*
X130761129Y-101761129D01*
X130951619Y-101604799D01*
X131168947Y-101488634D01*
X131404761Y-101417101D01*
X131588543Y-101399000D01*
X131711457Y-101399000D01*
X131895239Y-101417101D01*
X131895239Y-101417101D01*
G37*
G36*
X147254903Y-101447075D02*
G01*
X147355236Y-101488634D01*
X147482571Y-101541378D01*
X147687466Y-101678285D01*
X147861715Y-101852534D01*
X147998622Y-102057429D01*
X148092925Y-102285097D01*
X148141000Y-102526787D01*
X148141000Y-102773213D01*
X148092925Y-103014903D01*
X147998622Y-103242571D01*
X147861715Y-103447466D01*
X147687466Y-103621715D01*
X147482571Y-103758622D01*
X147482570Y-103758623D01*
X147482569Y-103758623D01*
X147254903Y-103852925D01*
X147013214Y-103901000D01*
X146766786Y-103901000D01*
X146525097Y-103852925D01*
X146297431Y-103758623D01*
X146297430Y-103758623D01*
X146297429Y-103758622D01*
X146092534Y-103621715D01*
X145918285Y-103447466D01*
X145781378Y-103242571D01*
X145687075Y-103014903D01*
X145639000Y-102773213D01*
X145639000Y-102526787D01*
X145687075Y-102285097D01*
X145781378Y-102057429D01*
X145918285Y-101852534D01*
X146092534Y-101678285D01*
X146297429Y-101541378D01*
X146424765Y-101488634D01*
X146525097Y-101447075D01*
X146766786Y-101399000D01*
X147013214Y-101399000D01*
X147254903Y-101447075D01*
X147254903Y-101447075D01*
G37*
G36*
X150306416Y-101689879D02*
G01*
X150478428Y-101761129D01*
X150497594Y-101769068D01*
X150622509Y-101852534D01*
X150669648Y-101884031D01*
X150815969Y-102030352D01*
X150930933Y-102202408D01*
X151010121Y-102393584D01*
X151050490Y-102596534D01*
X151050490Y-102803466D01*
X151010121Y-103006416D01*
X150968888Y-103105960D01*
X150930932Y-103197594D01*
X150815969Y-103369648D01*
X150669648Y-103515969D01*
X150497594Y-103630932D01*
X150497593Y-103630933D01*
X150497592Y-103630933D01*
X150306416Y-103710121D01*
X150103466Y-103750490D01*
X149896534Y-103750490D01*
X149693584Y-103710121D01*
X149502408Y-103630933D01*
X149502407Y-103630933D01*
X149502406Y-103630932D01*
X149330352Y-103515969D01*
X149184031Y-103369648D01*
X149069068Y-103197594D01*
X149031112Y-103105960D01*
X148989879Y-103006416D01*
X148949510Y-102803466D01*
X148949510Y-102596534D01*
X148989879Y-102393584D01*
X149069067Y-102202408D01*
X149184031Y-102030352D01*
X149330352Y-101884031D01*
X149377491Y-101852534D01*
X149502406Y-101769068D01*
X149521572Y-101761129D01*
X149693584Y-101689879D01*
X149896534Y-101649510D01*
X150103466Y-101649510D01*
X150306416Y-101689879D01*
X150306416Y-101689879D01*
G37*
M02*
