G04 #@! TF.GenerationSoftware,KiCad,Pcbnew,5.1.4-e60b266~84~ubuntu16.04.1*
G04 #@! TF.CreationDate,2019-10-08T23:41:47-05:00*
G04 #@! TF.ProjectId,8cap,38636170-2e6b-4696-9361-645f70636258,rev?*
G04 #@! TF.SameCoordinates,Original*
G04 #@! TF.FileFunction,Legend,Top*
G04 #@! TF.FilePolarity,Positive*
%FSLAX46Y46*%
G04 Gerber Fmt 4.6, Leading zero omitted, Abs format (unit mm)*
G04 Created by KiCad (PCBNEW 5.1.4-e60b266~84~ubuntu16.04.1) date 2019-10-08 23:41:47*
%MOMM*%
%LPD*%
G04 APERTURE LIST*
%ADD10C,0.050000*%
%ADD11C,0.120000*%
%ADD12C,0.150000*%
G04 APERTURE END LIST*
D10*
X100000000Y-150000000D02*
X100000000Y-100000000D01*
X200000000Y-150000000D02*
X100000000Y-150000000D01*
X200000000Y-100000000D02*
X200000000Y-150000000D01*
X100000000Y-100000000D02*
X200000000Y-100000000D01*
D11*
G04 #@! TO.C,R7*
X103690000Y-127900000D02*
X103690000Y-129010000D01*
X103690000Y-140260000D02*
X103690000Y-139150000D01*
X101770000Y-129010000D02*
X101770000Y-139150000D01*
X105610000Y-129010000D02*
X101770000Y-129010000D01*
X105610000Y-139150000D02*
X105610000Y-129010000D01*
X101770000Y-139150000D02*
X105610000Y-139150000D01*
G04 #@! TO.C,R6*
X107900000Y-140300000D02*
X107900000Y-139190000D01*
X107900000Y-127940000D02*
X107900000Y-129050000D01*
X109820000Y-139190000D02*
X109820000Y-129050000D01*
X105980000Y-139190000D02*
X109820000Y-139190000D01*
X105980000Y-129050000D02*
X105980000Y-139190000D01*
X109820000Y-129050000D02*
X105980000Y-129050000D01*
G04 #@! TO.C,R5*
X140020000Y-126760000D02*
X138910000Y-126760000D01*
X127660000Y-126760000D02*
X128770000Y-126760000D01*
X138910000Y-124840000D02*
X128770000Y-124840000D01*
X138910000Y-128680000D02*
X138910000Y-124840000D01*
X128770000Y-128680000D02*
X138910000Y-128680000D01*
X128770000Y-124840000D02*
X128770000Y-128680000D01*
G04 #@! TO.C,R4*
X158380000Y-126760000D02*
X157270000Y-126760000D01*
X146020000Y-126760000D02*
X147130000Y-126760000D01*
X157270000Y-124840000D02*
X147130000Y-124840000D01*
X157270000Y-128680000D02*
X157270000Y-124840000D01*
X147130000Y-128680000D02*
X157270000Y-128680000D01*
X147130000Y-124840000D02*
X147130000Y-128680000D01*
G04 #@! TO.C,R3*
X176730000Y-126760000D02*
X175620000Y-126760000D01*
X164370000Y-126760000D02*
X165480000Y-126760000D01*
X175620000Y-124840000D02*
X165480000Y-124840000D01*
X175620000Y-128680000D02*
X175620000Y-124840000D01*
X165480000Y-128680000D02*
X175620000Y-128680000D01*
X165480000Y-124840000D02*
X165480000Y-128680000D01*
G04 #@! TO.C,R2*
X194950000Y-126830000D02*
X193840000Y-126830000D01*
X182590000Y-126830000D02*
X183700000Y-126830000D01*
X193840000Y-124910000D02*
X183700000Y-124910000D01*
X193840000Y-128750000D02*
X193840000Y-124910000D01*
X183700000Y-128750000D02*
X193840000Y-128750000D01*
X183700000Y-124910000D02*
X183700000Y-128750000D01*
G04 #@! TO.C,R1*
X133090000Y-102650000D02*
X134200000Y-102650000D01*
X145450000Y-102650000D02*
X144340000Y-102650000D01*
X134200000Y-104570000D02*
X144340000Y-104570000D01*
X134200000Y-100730000D02*
X134200000Y-104570000D01*
X144340000Y-100730000D02*
X134200000Y-100730000D01*
X144340000Y-104570000D02*
X144340000Y-100730000D01*
G04 #@! TO.C,V0*
X119290000Y-106650000D02*
X119290000Y-103250000D01*
X122690000Y-106650000D02*
X119290000Y-106650000D01*
X122690000Y-103250000D02*
X122690000Y-106650000D01*
X119290000Y-103250000D02*
X122690000Y-103250000D01*
G04 #@! TO.C,PROBE*
X194500000Y-137100000D02*
X194500000Y-133700000D01*
X197900000Y-137100000D02*
X194500000Y-137100000D01*
X197900000Y-133700000D02*
X197900000Y-137100000D01*
X194500000Y-133700000D02*
X197900000Y-133700000D01*
G04 #@! TO.C,D5*
X121340000Y-144220000D02*
X121340000Y-141280000D01*
X121100000Y-144220000D02*
X121100000Y-141280000D01*
X121220000Y-144220000D02*
X121220000Y-141280000D01*
X116680000Y-141280000D02*
X116680000Y-141410000D01*
X122120000Y-141280000D02*
X116680000Y-141280000D01*
X122120000Y-141410000D02*
X122120000Y-141280000D01*
X116680000Y-144220000D02*
X116680000Y-144090000D01*
X122120000Y-144220000D02*
X116680000Y-144220000D01*
X122120000Y-144090000D02*
X122120000Y-144220000D01*
G04 #@! TO.C,D4*
X121320000Y-148320000D02*
X121320000Y-145380000D01*
X121080000Y-148320000D02*
X121080000Y-145380000D01*
X121200000Y-148320000D02*
X121200000Y-145380000D01*
X116660000Y-145380000D02*
X116660000Y-145510000D01*
X122100000Y-145380000D02*
X116660000Y-145380000D01*
X122100000Y-145510000D02*
X122100000Y-145380000D01*
X116660000Y-148320000D02*
X116660000Y-148190000D01*
X122100000Y-148320000D02*
X116660000Y-148320000D01*
X122100000Y-148190000D02*
X122100000Y-148320000D01*
G04 #@! TO.C,D3*
X110220000Y-132880000D02*
X113160000Y-132880000D01*
X110220000Y-132640000D02*
X113160000Y-132640000D01*
X110220000Y-132760000D02*
X113160000Y-132760000D01*
X113160000Y-128220000D02*
X113030000Y-128220000D01*
X113160000Y-133660000D02*
X113160000Y-128220000D01*
X113030000Y-133660000D02*
X113160000Y-133660000D01*
X110220000Y-128220000D02*
X110350000Y-128220000D01*
X110220000Y-133660000D02*
X110220000Y-128220000D01*
X110350000Y-133660000D02*
X110220000Y-133660000D01*
G04 #@! TO.C,D2*
X106160000Y-112080000D02*
X106160000Y-115020000D01*
X106400000Y-112080000D02*
X106400000Y-115020000D01*
X106280000Y-112080000D02*
X106280000Y-115020000D01*
X110820000Y-115020000D02*
X110820000Y-114890000D01*
X105380000Y-115020000D02*
X110820000Y-115020000D01*
X105380000Y-114890000D02*
X105380000Y-115020000D01*
X110820000Y-112080000D02*
X110820000Y-112210000D01*
X105380000Y-112080000D02*
X110820000Y-112080000D01*
X105380000Y-112210000D02*
X105380000Y-112080000D01*
G04 #@! TO.C,D1*
X110220000Y-122380000D02*
X113160000Y-122380000D01*
X110220000Y-122140000D02*
X113160000Y-122140000D01*
X110220000Y-122260000D02*
X113160000Y-122260000D01*
X113160000Y-117720000D02*
X113030000Y-117720000D01*
X113160000Y-123160000D02*
X113160000Y-117720000D01*
X113030000Y-123160000D02*
X113160000Y-123160000D01*
X110220000Y-117720000D02*
X110350000Y-117720000D01*
X110220000Y-123160000D02*
X110220000Y-117720000D01*
X110350000Y-123160000D02*
X110220000Y-123160000D01*
G04 #@! TO.C,C12*
X123046000Y-129080000D02*
X124410000Y-129080000D01*
X119170000Y-129080000D02*
X120534000Y-129080000D01*
X123046000Y-139820000D02*
X124410000Y-139820000D01*
X119170000Y-139820000D02*
X120534000Y-139820000D01*
X124410000Y-139820000D02*
X124410000Y-129080000D01*
X119170000Y-139820000D02*
X119170000Y-129080000D01*
G04 #@! TO.C,C11*
X119170000Y-113130000D02*
X124410000Y-113130000D01*
X119170000Y-123870000D02*
X124410000Y-123870000D01*
X124410000Y-123870000D02*
X124410000Y-113130000D01*
X119170000Y-123870000D02*
X119170000Y-113130000D01*
G04 #@! TO.C,C10*
X113570000Y-129730000D02*
X118810000Y-129730000D01*
X113570000Y-140470000D02*
X118810000Y-140470000D01*
X118810000Y-140470000D02*
X118810000Y-129730000D01*
X113570000Y-140470000D02*
X113570000Y-129730000D01*
G04 #@! TO.C,C9*
X118345000Y-113930000D02*
X118660000Y-113930000D01*
X115920000Y-113930000D02*
X116235000Y-113930000D01*
X118345000Y-119170000D02*
X118660000Y-119170000D01*
X115920000Y-119170000D02*
X116235000Y-119170000D01*
X118660000Y-119170000D02*
X118660000Y-113930000D01*
X115920000Y-119170000D02*
X115920000Y-113930000D01*
G04 #@! TO.C,C8*
X125250509Y-131995000D02*
X125250509Y-133595000D01*
X124450509Y-132795000D02*
X126050509Y-132795000D01*
X141221000Y-136585000D02*
X141221000Y-138115000D01*
X141181000Y-136252000D02*
X141181000Y-138448000D01*
X141141000Y-135999000D02*
X141141000Y-138701000D01*
X141101000Y-135786000D02*
X141101000Y-138914000D01*
X141061000Y-135598000D02*
X141061000Y-139102000D01*
X141021000Y-135430000D02*
X141021000Y-139270000D01*
X140981000Y-135276000D02*
X140981000Y-139424000D01*
X140941000Y-135132000D02*
X140941000Y-139568000D01*
X140901000Y-134999000D02*
X140901000Y-139701000D01*
X140861000Y-134872000D02*
X140861000Y-139828000D01*
X140821000Y-134753000D02*
X140821000Y-139947000D01*
X140781000Y-134639000D02*
X140781000Y-140061000D01*
X140741000Y-134530000D02*
X140741000Y-140170000D01*
X140701000Y-134426000D02*
X140701000Y-140274000D01*
X140661000Y-134326000D02*
X140661000Y-140374000D01*
X140621000Y-134230000D02*
X140621000Y-140470000D01*
X140581000Y-134137000D02*
X140581000Y-140563000D01*
X140541000Y-134047000D02*
X140541000Y-140653000D01*
X140501000Y-133960000D02*
X140501000Y-140740000D01*
X140461000Y-133875000D02*
X140461000Y-140825000D01*
X140421000Y-133793000D02*
X140421000Y-140907000D01*
X140381000Y-133713000D02*
X140381000Y-140987000D01*
X140341000Y-133635000D02*
X140341000Y-141065000D01*
X140301000Y-133560000D02*
X140301000Y-141140000D01*
X140261000Y-133486000D02*
X140261000Y-141214000D01*
X140221000Y-133414000D02*
X140221000Y-141286000D01*
X140181000Y-133343000D02*
X140181000Y-141357000D01*
X140141000Y-133274000D02*
X140141000Y-141426000D01*
X140101000Y-133207000D02*
X140101000Y-141493000D01*
X140061000Y-133141000D02*
X140061000Y-141559000D01*
X140021000Y-133077000D02*
X140021000Y-141623000D01*
X139981000Y-133014000D02*
X139981000Y-141686000D01*
X139941000Y-132952000D02*
X139941000Y-141748000D01*
X139901000Y-132891000D02*
X139901000Y-141809000D01*
X139861000Y-132831000D02*
X139861000Y-141869000D01*
X139821000Y-132773000D02*
X139821000Y-141927000D01*
X139781000Y-132716000D02*
X139781000Y-141984000D01*
X139741000Y-132659000D02*
X139741000Y-142041000D01*
X139701000Y-132604000D02*
X139701000Y-142096000D01*
X139661000Y-132550000D02*
X139661000Y-142150000D01*
X139621000Y-132496000D02*
X139621000Y-142204000D01*
X139581000Y-132444000D02*
X139581000Y-142256000D01*
X139541000Y-132392000D02*
X139541000Y-142308000D01*
X139501000Y-132341000D02*
X139501000Y-142359000D01*
X139461000Y-132291000D02*
X139461000Y-142409000D01*
X139421000Y-132242000D02*
X139421000Y-142458000D01*
X139381000Y-132194000D02*
X139381000Y-142506000D01*
X139341000Y-132146000D02*
X139341000Y-142554000D01*
X139301000Y-132099000D02*
X139301000Y-142601000D01*
X139261000Y-132053000D02*
X139261000Y-142647000D01*
X139221000Y-132007000D02*
X139221000Y-142693000D01*
X139181000Y-131962000D02*
X139181000Y-142738000D01*
X139141000Y-131918000D02*
X139141000Y-142782000D01*
X139101000Y-131875000D02*
X139101000Y-142825000D01*
X139061000Y-131832000D02*
X139061000Y-142868000D01*
X139021000Y-131790000D02*
X139021000Y-142910000D01*
X138981000Y-131748000D02*
X138981000Y-142952000D01*
X138941000Y-131707000D02*
X138941000Y-142993000D01*
X138901000Y-131666000D02*
X138901000Y-143034000D01*
X138861000Y-131626000D02*
X138861000Y-143074000D01*
X138821000Y-131587000D02*
X138821000Y-143113000D01*
X138781000Y-131548000D02*
X138781000Y-143152000D01*
X138741000Y-131510000D02*
X138741000Y-143190000D01*
X138701000Y-131472000D02*
X138701000Y-143228000D01*
X138661000Y-131434000D02*
X138661000Y-143266000D01*
X138621000Y-131398000D02*
X138621000Y-143302000D01*
X138581000Y-131361000D02*
X138581000Y-143339000D01*
X138541000Y-131325000D02*
X138541000Y-143375000D01*
X138501000Y-131290000D02*
X138501000Y-143410000D01*
X138461000Y-131255000D02*
X138461000Y-143445000D01*
X138421000Y-131221000D02*
X138421000Y-143479000D01*
X138381000Y-131187000D02*
X138381000Y-143513000D01*
X138341000Y-131153000D02*
X138341000Y-143547000D01*
X138301000Y-138790000D02*
X138301000Y-143580000D01*
X138301000Y-131120000D02*
X138301000Y-135910000D01*
X138261000Y-138790000D02*
X138261000Y-143613000D01*
X138261000Y-131087000D02*
X138261000Y-135910000D01*
X138221000Y-138790000D02*
X138221000Y-143645000D01*
X138221000Y-131055000D02*
X138221000Y-135910000D01*
X138181000Y-138790000D02*
X138181000Y-143677000D01*
X138181000Y-131023000D02*
X138181000Y-135910000D01*
X138141000Y-138790000D02*
X138141000Y-143708000D01*
X138141000Y-130992000D02*
X138141000Y-135910000D01*
X138101000Y-138790000D02*
X138101000Y-143740000D01*
X138101000Y-130960000D02*
X138101000Y-135910000D01*
X138061000Y-138790000D02*
X138061000Y-143770000D01*
X138061000Y-130930000D02*
X138061000Y-135910000D01*
X138021000Y-138790000D02*
X138021000Y-143800000D01*
X138021000Y-130900000D02*
X138021000Y-135910000D01*
X137981000Y-138790000D02*
X137981000Y-143830000D01*
X137981000Y-130870000D02*
X137981000Y-135910000D01*
X137941000Y-138790000D02*
X137941000Y-143860000D01*
X137941000Y-130840000D02*
X137941000Y-135910000D01*
X137901000Y-138790000D02*
X137901000Y-143889000D01*
X137901000Y-130811000D02*
X137901000Y-135910000D01*
X137861000Y-138790000D02*
X137861000Y-143918000D01*
X137861000Y-130782000D02*
X137861000Y-135910000D01*
X137821000Y-138790000D02*
X137821000Y-143946000D01*
X137821000Y-130754000D02*
X137821000Y-135910000D01*
X137781000Y-138790000D02*
X137781000Y-143974000D01*
X137781000Y-130726000D02*
X137781000Y-135910000D01*
X137741000Y-138790000D02*
X137741000Y-144002000D01*
X137741000Y-130698000D02*
X137741000Y-135910000D01*
X137701000Y-138790000D02*
X137701000Y-144029000D01*
X137701000Y-130671000D02*
X137701000Y-135910000D01*
X137661000Y-138790000D02*
X137661000Y-144056000D01*
X137661000Y-130644000D02*
X137661000Y-135910000D01*
X137621000Y-138790000D02*
X137621000Y-144083000D01*
X137621000Y-130617000D02*
X137621000Y-135910000D01*
X137581000Y-138790000D02*
X137581000Y-144109000D01*
X137581000Y-130591000D02*
X137581000Y-135910000D01*
X137541000Y-138790000D02*
X137541000Y-144135000D01*
X137541000Y-130565000D02*
X137541000Y-135910000D01*
X137501000Y-138790000D02*
X137501000Y-144161000D01*
X137501000Y-130539000D02*
X137501000Y-135910000D01*
X137461000Y-138790000D02*
X137461000Y-144186000D01*
X137461000Y-130514000D02*
X137461000Y-135910000D01*
X137421000Y-138790000D02*
X137421000Y-144211000D01*
X137421000Y-130489000D02*
X137421000Y-135910000D01*
X137381000Y-138790000D02*
X137381000Y-144236000D01*
X137381000Y-130464000D02*
X137381000Y-135910000D01*
X137341000Y-138790000D02*
X137341000Y-144260000D01*
X137341000Y-130440000D02*
X137341000Y-135910000D01*
X137301000Y-138790000D02*
X137301000Y-144284000D01*
X137301000Y-130416000D02*
X137301000Y-135910000D01*
X137261000Y-138790000D02*
X137261000Y-144308000D01*
X137261000Y-130392000D02*
X137261000Y-135910000D01*
X137221000Y-138790000D02*
X137221000Y-144331000D01*
X137221000Y-130369000D02*
X137221000Y-135910000D01*
X137181000Y-138790000D02*
X137181000Y-144354000D01*
X137181000Y-130346000D02*
X137181000Y-135910000D01*
X137141000Y-138790000D02*
X137141000Y-144377000D01*
X137141000Y-130323000D02*
X137141000Y-135910000D01*
X137101000Y-138790000D02*
X137101000Y-144399000D01*
X137101000Y-130301000D02*
X137101000Y-135910000D01*
X137061000Y-138790000D02*
X137061000Y-144422000D01*
X137061000Y-130278000D02*
X137061000Y-135910000D01*
X137021000Y-138790000D02*
X137021000Y-144444000D01*
X137021000Y-130256000D02*
X137021000Y-135910000D01*
X136981000Y-138790000D02*
X136981000Y-144465000D01*
X136981000Y-130235000D02*
X136981000Y-135910000D01*
X136941000Y-138790000D02*
X136941000Y-144486000D01*
X136941000Y-130214000D02*
X136941000Y-135910000D01*
X136901000Y-138790000D02*
X136901000Y-144507000D01*
X136901000Y-130193000D02*
X136901000Y-135910000D01*
X136861000Y-138790000D02*
X136861000Y-144528000D01*
X136861000Y-130172000D02*
X136861000Y-135910000D01*
X136821000Y-138790000D02*
X136821000Y-144549000D01*
X136821000Y-130151000D02*
X136821000Y-135910000D01*
X136781000Y-138790000D02*
X136781000Y-144569000D01*
X136781000Y-130131000D02*
X136781000Y-135910000D01*
X136741000Y-138790000D02*
X136741000Y-144589000D01*
X136741000Y-130111000D02*
X136741000Y-135910000D01*
X136701000Y-138790000D02*
X136701000Y-144608000D01*
X136701000Y-130092000D02*
X136701000Y-135910000D01*
X136661000Y-138790000D02*
X136661000Y-144628000D01*
X136661000Y-130072000D02*
X136661000Y-135910000D01*
X136621000Y-138790000D02*
X136621000Y-144647000D01*
X136621000Y-130053000D02*
X136621000Y-135910000D01*
X136581000Y-138790000D02*
X136581000Y-144666000D01*
X136581000Y-130034000D02*
X136581000Y-135910000D01*
X136541000Y-138790000D02*
X136541000Y-144684000D01*
X136541000Y-130016000D02*
X136541000Y-135910000D01*
X136501000Y-138790000D02*
X136501000Y-144703000D01*
X136501000Y-129997000D02*
X136501000Y-135910000D01*
X136461000Y-138790000D02*
X136461000Y-144721000D01*
X136461000Y-129979000D02*
X136461000Y-135910000D01*
X136421000Y-138790000D02*
X136421000Y-144739000D01*
X136421000Y-129961000D02*
X136421000Y-135910000D01*
X136381000Y-138790000D02*
X136381000Y-144756000D01*
X136381000Y-129944000D02*
X136381000Y-135910000D01*
X136341000Y-138790000D02*
X136341000Y-144773000D01*
X136341000Y-129927000D02*
X136341000Y-135910000D01*
X136301000Y-138790000D02*
X136301000Y-144790000D01*
X136301000Y-129910000D02*
X136301000Y-135910000D01*
X136261000Y-138790000D02*
X136261000Y-144807000D01*
X136261000Y-129893000D02*
X136261000Y-135910000D01*
X136221000Y-138790000D02*
X136221000Y-144824000D01*
X136221000Y-129876000D02*
X136221000Y-135910000D01*
X136181000Y-138790000D02*
X136181000Y-144840000D01*
X136181000Y-129860000D02*
X136181000Y-135910000D01*
X136141000Y-138790000D02*
X136141000Y-144856000D01*
X136141000Y-129844000D02*
X136141000Y-135910000D01*
X136101000Y-138790000D02*
X136101000Y-144872000D01*
X136101000Y-129828000D02*
X136101000Y-135910000D01*
X136061000Y-138790000D02*
X136061000Y-144887000D01*
X136061000Y-129813000D02*
X136061000Y-135910000D01*
X136021000Y-138790000D02*
X136021000Y-144903000D01*
X136021000Y-129797000D02*
X136021000Y-135910000D01*
X135981000Y-138790000D02*
X135981000Y-144918000D01*
X135981000Y-129782000D02*
X135981000Y-135910000D01*
X135941000Y-138790000D02*
X135941000Y-144932000D01*
X135941000Y-129768000D02*
X135941000Y-135910000D01*
X135901000Y-138790000D02*
X135901000Y-144947000D01*
X135901000Y-129753000D02*
X135901000Y-135910000D01*
X135861000Y-138790000D02*
X135861000Y-144961000D01*
X135861000Y-129739000D02*
X135861000Y-135910000D01*
X135821000Y-138790000D02*
X135821000Y-144975000D01*
X135821000Y-129725000D02*
X135821000Y-135910000D01*
X135781000Y-138790000D02*
X135781000Y-144989000D01*
X135781000Y-129711000D02*
X135781000Y-135910000D01*
X135741000Y-138790000D02*
X135741000Y-145003000D01*
X135741000Y-129697000D02*
X135741000Y-135910000D01*
X135701000Y-138790000D02*
X135701000Y-145016000D01*
X135701000Y-129684000D02*
X135701000Y-135910000D01*
X135661000Y-138790000D02*
X135661000Y-145030000D01*
X135661000Y-129670000D02*
X135661000Y-135910000D01*
X135621000Y-138790000D02*
X135621000Y-145043000D01*
X135621000Y-129657000D02*
X135621000Y-135910000D01*
X135581000Y-138790000D02*
X135581000Y-145055000D01*
X135581000Y-129645000D02*
X135581000Y-135910000D01*
X135541000Y-138790000D02*
X135541000Y-145068000D01*
X135541000Y-129632000D02*
X135541000Y-135910000D01*
X135501000Y-138790000D02*
X135501000Y-145080000D01*
X135501000Y-129620000D02*
X135501000Y-135910000D01*
X135461000Y-138790000D02*
X135461000Y-145092000D01*
X135461000Y-129608000D02*
X135461000Y-135910000D01*
X135421000Y-129596000D02*
X135421000Y-145104000D01*
X135381000Y-129585000D02*
X135381000Y-145115000D01*
X135341000Y-129573000D02*
X135341000Y-145127000D01*
X135301000Y-129562000D02*
X135301000Y-145138000D01*
X135261000Y-129551000D02*
X135261000Y-145149000D01*
X135221000Y-129540000D02*
X135221000Y-145160000D01*
X135181000Y-129530000D02*
X135181000Y-145170000D01*
X135141000Y-129520000D02*
X135141000Y-145180000D01*
X135101000Y-129510000D02*
X135101000Y-145190000D01*
X135061000Y-129500000D02*
X135061000Y-145200000D01*
X135021000Y-129490000D02*
X135021000Y-145210000D01*
X134981000Y-129481000D02*
X134981000Y-145219000D01*
X134941000Y-129472000D02*
X134941000Y-145228000D01*
X134901000Y-129463000D02*
X134901000Y-145237000D01*
X134861000Y-129454000D02*
X134861000Y-145246000D01*
X134821000Y-129445000D02*
X134821000Y-145255000D01*
X134781000Y-129437000D02*
X134781000Y-145263000D01*
X134741000Y-129429000D02*
X134741000Y-145271000D01*
X134701000Y-129421000D02*
X134701000Y-145279000D01*
X134661000Y-129413000D02*
X134661000Y-145287000D01*
X134621000Y-129406000D02*
X134621000Y-145294000D01*
X134581000Y-129398000D02*
X134581000Y-145302000D01*
X134541000Y-129391000D02*
X134541000Y-145309000D01*
X134501000Y-129384000D02*
X134501000Y-145316000D01*
X134461000Y-129378000D02*
X134461000Y-145322000D01*
X134421000Y-129371000D02*
X134421000Y-145329000D01*
X134381000Y-129365000D02*
X134381000Y-145335000D01*
X134341000Y-129359000D02*
X134341000Y-145341000D01*
X134301000Y-129353000D02*
X134301000Y-145347000D01*
X134261000Y-129347000D02*
X134261000Y-145353000D01*
X134221000Y-129342000D02*
X134221000Y-145358000D01*
X134181000Y-129336000D02*
X134181000Y-145364000D01*
X134141000Y-129331000D02*
X134141000Y-145369000D01*
X134101000Y-129326000D02*
X134101000Y-145374000D01*
X134061000Y-129322000D02*
X134061000Y-145378000D01*
X134021000Y-129317000D02*
X134021000Y-145383000D01*
X133981000Y-129313000D02*
X133981000Y-145387000D01*
X133941000Y-129309000D02*
X133941000Y-145391000D01*
X133901000Y-129305000D02*
X133901000Y-145395000D01*
X133861000Y-129301000D02*
X133861000Y-145399000D01*
X133820000Y-129298000D02*
X133820000Y-145402000D01*
X133780000Y-129295000D02*
X133780000Y-145405000D01*
X133740000Y-129292000D02*
X133740000Y-145408000D01*
X133700000Y-129289000D02*
X133700000Y-145411000D01*
X133660000Y-129286000D02*
X133660000Y-145414000D01*
X133620000Y-129284000D02*
X133620000Y-145416000D01*
X133580000Y-129281000D02*
X133580000Y-145419000D01*
X133540000Y-129279000D02*
X133540000Y-145421000D01*
X133500000Y-129277000D02*
X133500000Y-145423000D01*
X133460000Y-129276000D02*
X133460000Y-145424000D01*
X133420000Y-129274000D02*
X133420000Y-145426000D01*
X133380000Y-129273000D02*
X133380000Y-145427000D01*
X133340000Y-129272000D02*
X133340000Y-145428000D01*
X133300000Y-129271000D02*
X133300000Y-145429000D01*
X133260000Y-129270000D02*
X133260000Y-145430000D01*
X133220000Y-129270000D02*
X133220000Y-145430000D01*
X133180000Y-129270000D02*
X133180000Y-145430000D01*
X133140000Y-129269000D02*
X133140000Y-145431000D01*
X141260000Y-137350000D02*
G75*
G03X141260000Y-137350000I-8120000J0D01*
G01*
G04 #@! TO.C,C7*
X142250509Y-131995000D02*
X142250509Y-133595000D01*
X141450509Y-132795000D02*
X143050509Y-132795000D01*
X158221000Y-136585000D02*
X158221000Y-138115000D01*
X158181000Y-136252000D02*
X158181000Y-138448000D01*
X158141000Y-135999000D02*
X158141000Y-138701000D01*
X158101000Y-135786000D02*
X158101000Y-138914000D01*
X158061000Y-135598000D02*
X158061000Y-139102000D01*
X158021000Y-135430000D02*
X158021000Y-139270000D01*
X157981000Y-135276000D02*
X157981000Y-139424000D01*
X157941000Y-135132000D02*
X157941000Y-139568000D01*
X157901000Y-134999000D02*
X157901000Y-139701000D01*
X157861000Y-134872000D02*
X157861000Y-139828000D01*
X157821000Y-134753000D02*
X157821000Y-139947000D01*
X157781000Y-134639000D02*
X157781000Y-140061000D01*
X157741000Y-134530000D02*
X157741000Y-140170000D01*
X157701000Y-134426000D02*
X157701000Y-140274000D01*
X157661000Y-134326000D02*
X157661000Y-140374000D01*
X157621000Y-134230000D02*
X157621000Y-140470000D01*
X157581000Y-134137000D02*
X157581000Y-140563000D01*
X157541000Y-134047000D02*
X157541000Y-140653000D01*
X157501000Y-133960000D02*
X157501000Y-140740000D01*
X157461000Y-133875000D02*
X157461000Y-140825000D01*
X157421000Y-133793000D02*
X157421000Y-140907000D01*
X157381000Y-133713000D02*
X157381000Y-140987000D01*
X157341000Y-133635000D02*
X157341000Y-141065000D01*
X157301000Y-133560000D02*
X157301000Y-141140000D01*
X157261000Y-133486000D02*
X157261000Y-141214000D01*
X157221000Y-133414000D02*
X157221000Y-141286000D01*
X157181000Y-133343000D02*
X157181000Y-141357000D01*
X157141000Y-133274000D02*
X157141000Y-141426000D01*
X157101000Y-133207000D02*
X157101000Y-141493000D01*
X157061000Y-133141000D02*
X157061000Y-141559000D01*
X157021000Y-133077000D02*
X157021000Y-141623000D01*
X156981000Y-133014000D02*
X156981000Y-141686000D01*
X156941000Y-132952000D02*
X156941000Y-141748000D01*
X156901000Y-132891000D02*
X156901000Y-141809000D01*
X156861000Y-132831000D02*
X156861000Y-141869000D01*
X156821000Y-132773000D02*
X156821000Y-141927000D01*
X156781000Y-132716000D02*
X156781000Y-141984000D01*
X156741000Y-132659000D02*
X156741000Y-142041000D01*
X156701000Y-132604000D02*
X156701000Y-142096000D01*
X156661000Y-132550000D02*
X156661000Y-142150000D01*
X156621000Y-132496000D02*
X156621000Y-142204000D01*
X156581000Y-132444000D02*
X156581000Y-142256000D01*
X156541000Y-132392000D02*
X156541000Y-142308000D01*
X156501000Y-132341000D02*
X156501000Y-142359000D01*
X156461000Y-132291000D02*
X156461000Y-142409000D01*
X156421000Y-132242000D02*
X156421000Y-142458000D01*
X156381000Y-132194000D02*
X156381000Y-142506000D01*
X156341000Y-132146000D02*
X156341000Y-142554000D01*
X156301000Y-132099000D02*
X156301000Y-142601000D01*
X156261000Y-132053000D02*
X156261000Y-142647000D01*
X156221000Y-132007000D02*
X156221000Y-142693000D01*
X156181000Y-131962000D02*
X156181000Y-142738000D01*
X156141000Y-131918000D02*
X156141000Y-142782000D01*
X156101000Y-131875000D02*
X156101000Y-142825000D01*
X156061000Y-131832000D02*
X156061000Y-142868000D01*
X156021000Y-131790000D02*
X156021000Y-142910000D01*
X155981000Y-131748000D02*
X155981000Y-142952000D01*
X155941000Y-131707000D02*
X155941000Y-142993000D01*
X155901000Y-131666000D02*
X155901000Y-143034000D01*
X155861000Y-131626000D02*
X155861000Y-143074000D01*
X155821000Y-131587000D02*
X155821000Y-143113000D01*
X155781000Y-131548000D02*
X155781000Y-143152000D01*
X155741000Y-131510000D02*
X155741000Y-143190000D01*
X155701000Y-131472000D02*
X155701000Y-143228000D01*
X155661000Y-131434000D02*
X155661000Y-143266000D01*
X155621000Y-131398000D02*
X155621000Y-143302000D01*
X155581000Y-131361000D02*
X155581000Y-143339000D01*
X155541000Y-131325000D02*
X155541000Y-143375000D01*
X155501000Y-131290000D02*
X155501000Y-143410000D01*
X155461000Y-131255000D02*
X155461000Y-143445000D01*
X155421000Y-131221000D02*
X155421000Y-143479000D01*
X155381000Y-131187000D02*
X155381000Y-143513000D01*
X155341000Y-131153000D02*
X155341000Y-143547000D01*
X155301000Y-138790000D02*
X155301000Y-143580000D01*
X155301000Y-131120000D02*
X155301000Y-135910000D01*
X155261000Y-138790000D02*
X155261000Y-143613000D01*
X155261000Y-131087000D02*
X155261000Y-135910000D01*
X155221000Y-138790000D02*
X155221000Y-143645000D01*
X155221000Y-131055000D02*
X155221000Y-135910000D01*
X155181000Y-138790000D02*
X155181000Y-143677000D01*
X155181000Y-131023000D02*
X155181000Y-135910000D01*
X155141000Y-138790000D02*
X155141000Y-143708000D01*
X155141000Y-130992000D02*
X155141000Y-135910000D01*
X155101000Y-138790000D02*
X155101000Y-143740000D01*
X155101000Y-130960000D02*
X155101000Y-135910000D01*
X155061000Y-138790000D02*
X155061000Y-143770000D01*
X155061000Y-130930000D02*
X155061000Y-135910000D01*
X155021000Y-138790000D02*
X155021000Y-143800000D01*
X155021000Y-130900000D02*
X155021000Y-135910000D01*
X154981000Y-138790000D02*
X154981000Y-143830000D01*
X154981000Y-130870000D02*
X154981000Y-135910000D01*
X154941000Y-138790000D02*
X154941000Y-143860000D01*
X154941000Y-130840000D02*
X154941000Y-135910000D01*
X154901000Y-138790000D02*
X154901000Y-143889000D01*
X154901000Y-130811000D02*
X154901000Y-135910000D01*
X154861000Y-138790000D02*
X154861000Y-143918000D01*
X154861000Y-130782000D02*
X154861000Y-135910000D01*
X154821000Y-138790000D02*
X154821000Y-143946000D01*
X154821000Y-130754000D02*
X154821000Y-135910000D01*
X154781000Y-138790000D02*
X154781000Y-143974000D01*
X154781000Y-130726000D02*
X154781000Y-135910000D01*
X154741000Y-138790000D02*
X154741000Y-144002000D01*
X154741000Y-130698000D02*
X154741000Y-135910000D01*
X154701000Y-138790000D02*
X154701000Y-144029000D01*
X154701000Y-130671000D02*
X154701000Y-135910000D01*
X154661000Y-138790000D02*
X154661000Y-144056000D01*
X154661000Y-130644000D02*
X154661000Y-135910000D01*
X154621000Y-138790000D02*
X154621000Y-144083000D01*
X154621000Y-130617000D02*
X154621000Y-135910000D01*
X154581000Y-138790000D02*
X154581000Y-144109000D01*
X154581000Y-130591000D02*
X154581000Y-135910000D01*
X154541000Y-138790000D02*
X154541000Y-144135000D01*
X154541000Y-130565000D02*
X154541000Y-135910000D01*
X154501000Y-138790000D02*
X154501000Y-144161000D01*
X154501000Y-130539000D02*
X154501000Y-135910000D01*
X154461000Y-138790000D02*
X154461000Y-144186000D01*
X154461000Y-130514000D02*
X154461000Y-135910000D01*
X154421000Y-138790000D02*
X154421000Y-144211000D01*
X154421000Y-130489000D02*
X154421000Y-135910000D01*
X154381000Y-138790000D02*
X154381000Y-144236000D01*
X154381000Y-130464000D02*
X154381000Y-135910000D01*
X154341000Y-138790000D02*
X154341000Y-144260000D01*
X154341000Y-130440000D02*
X154341000Y-135910000D01*
X154301000Y-138790000D02*
X154301000Y-144284000D01*
X154301000Y-130416000D02*
X154301000Y-135910000D01*
X154261000Y-138790000D02*
X154261000Y-144308000D01*
X154261000Y-130392000D02*
X154261000Y-135910000D01*
X154221000Y-138790000D02*
X154221000Y-144331000D01*
X154221000Y-130369000D02*
X154221000Y-135910000D01*
X154181000Y-138790000D02*
X154181000Y-144354000D01*
X154181000Y-130346000D02*
X154181000Y-135910000D01*
X154141000Y-138790000D02*
X154141000Y-144377000D01*
X154141000Y-130323000D02*
X154141000Y-135910000D01*
X154101000Y-138790000D02*
X154101000Y-144399000D01*
X154101000Y-130301000D02*
X154101000Y-135910000D01*
X154061000Y-138790000D02*
X154061000Y-144422000D01*
X154061000Y-130278000D02*
X154061000Y-135910000D01*
X154021000Y-138790000D02*
X154021000Y-144444000D01*
X154021000Y-130256000D02*
X154021000Y-135910000D01*
X153981000Y-138790000D02*
X153981000Y-144465000D01*
X153981000Y-130235000D02*
X153981000Y-135910000D01*
X153941000Y-138790000D02*
X153941000Y-144486000D01*
X153941000Y-130214000D02*
X153941000Y-135910000D01*
X153901000Y-138790000D02*
X153901000Y-144507000D01*
X153901000Y-130193000D02*
X153901000Y-135910000D01*
X153861000Y-138790000D02*
X153861000Y-144528000D01*
X153861000Y-130172000D02*
X153861000Y-135910000D01*
X153821000Y-138790000D02*
X153821000Y-144549000D01*
X153821000Y-130151000D02*
X153821000Y-135910000D01*
X153781000Y-138790000D02*
X153781000Y-144569000D01*
X153781000Y-130131000D02*
X153781000Y-135910000D01*
X153741000Y-138790000D02*
X153741000Y-144589000D01*
X153741000Y-130111000D02*
X153741000Y-135910000D01*
X153701000Y-138790000D02*
X153701000Y-144608000D01*
X153701000Y-130092000D02*
X153701000Y-135910000D01*
X153661000Y-138790000D02*
X153661000Y-144628000D01*
X153661000Y-130072000D02*
X153661000Y-135910000D01*
X153621000Y-138790000D02*
X153621000Y-144647000D01*
X153621000Y-130053000D02*
X153621000Y-135910000D01*
X153581000Y-138790000D02*
X153581000Y-144666000D01*
X153581000Y-130034000D02*
X153581000Y-135910000D01*
X153541000Y-138790000D02*
X153541000Y-144684000D01*
X153541000Y-130016000D02*
X153541000Y-135910000D01*
X153501000Y-138790000D02*
X153501000Y-144703000D01*
X153501000Y-129997000D02*
X153501000Y-135910000D01*
X153461000Y-138790000D02*
X153461000Y-144721000D01*
X153461000Y-129979000D02*
X153461000Y-135910000D01*
X153421000Y-138790000D02*
X153421000Y-144739000D01*
X153421000Y-129961000D02*
X153421000Y-135910000D01*
X153381000Y-138790000D02*
X153381000Y-144756000D01*
X153381000Y-129944000D02*
X153381000Y-135910000D01*
X153341000Y-138790000D02*
X153341000Y-144773000D01*
X153341000Y-129927000D02*
X153341000Y-135910000D01*
X153301000Y-138790000D02*
X153301000Y-144790000D01*
X153301000Y-129910000D02*
X153301000Y-135910000D01*
X153261000Y-138790000D02*
X153261000Y-144807000D01*
X153261000Y-129893000D02*
X153261000Y-135910000D01*
X153221000Y-138790000D02*
X153221000Y-144824000D01*
X153221000Y-129876000D02*
X153221000Y-135910000D01*
X153181000Y-138790000D02*
X153181000Y-144840000D01*
X153181000Y-129860000D02*
X153181000Y-135910000D01*
X153141000Y-138790000D02*
X153141000Y-144856000D01*
X153141000Y-129844000D02*
X153141000Y-135910000D01*
X153101000Y-138790000D02*
X153101000Y-144872000D01*
X153101000Y-129828000D02*
X153101000Y-135910000D01*
X153061000Y-138790000D02*
X153061000Y-144887000D01*
X153061000Y-129813000D02*
X153061000Y-135910000D01*
X153021000Y-138790000D02*
X153021000Y-144903000D01*
X153021000Y-129797000D02*
X153021000Y-135910000D01*
X152981000Y-138790000D02*
X152981000Y-144918000D01*
X152981000Y-129782000D02*
X152981000Y-135910000D01*
X152941000Y-138790000D02*
X152941000Y-144932000D01*
X152941000Y-129768000D02*
X152941000Y-135910000D01*
X152901000Y-138790000D02*
X152901000Y-144947000D01*
X152901000Y-129753000D02*
X152901000Y-135910000D01*
X152861000Y-138790000D02*
X152861000Y-144961000D01*
X152861000Y-129739000D02*
X152861000Y-135910000D01*
X152821000Y-138790000D02*
X152821000Y-144975000D01*
X152821000Y-129725000D02*
X152821000Y-135910000D01*
X152781000Y-138790000D02*
X152781000Y-144989000D01*
X152781000Y-129711000D02*
X152781000Y-135910000D01*
X152741000Y-138790000D02*
X152741000Y-145003000D01*
X152741000Y-129697000D02*
X152741000Y-135910000D01*
X152701000Y-138790000D02*
X152701000Y-145016000D01*
X152701000Y-129684000D02*
X152701000Y-135910000D01*
X152661000Y-138790000D02*
X152661000Y-145030000D01*
X152661000Y-129670000D02*
X152661000Y-135910000D01*
X152621000Y-138790000D02*
X152621000Y-145043000D01*
X152621000Y-129657000D02*
X152621000Y-135910000D01*
X152581000Y-138790000D02*
X152581000Y-145055000D01*
X152581000Y-129645000D02*
X152581000Y-135910000D01*
X152541000Y-138790000D02*
X152541000Y-145068000D01*
X152541000Y-129632000D02*
X152541000Y-135910000D01*
X152501000Y-138790000D02*
X152501000Y-145080000D01*
X152501000Y-129620000D02*
X152501000Y-135910000D01*
X152461000Y-138790000D02*
X152461000Y-145092000D01*
X152461000Y-129608000D02*
X152461000Y-135910000D01*
X152421000Y-129596000D02*
X152421000Y-145104000D01*
X152381000Y-129585000D02*
X152381000Y-145115000D01*
X152341000Y-129573000D02*
X152341000Y-145127000D01*
X152301000Y-129562000D02*
X152301000Y-145138000D01*
X152261000Y-129551000D02*
X152261000Y-145149000D01*
X152221000Y-129540000D02*
X152221000Y-145160000D01*
X152181000Y-129530000D02*
X152181000Y-145170000D01*
X152141000Y-129520000D02*
X152141000Y-145180000D01*
X152101000Y-129510000D02*
X152101000Y-145190000D01*
X152061000Y-129500000D02*
X152061000Y-145200000D01*
X152021000Y-129490000D02*
X152021000Y-145210000D01*
X151981000Y-129481000D02*
X151981000Y-145219000D01*
X151941000Y-129472000D02*
X151941000Y-145228000D01*
X151901000Y-129463000D02*
X151901000Y-145237000D01*
X151861000Y-129454000D02*
X151861000Y-145246000D01*
X151821000Y-129445000D02*
X151821000Y-145255000D01*
X151781000Y-129437000D02*
X151781000Y-145263000D01*
X151741000Y-129429000D02*
X151741000Y-145271000D01*
X151701000Y-129421000D02*
X151701000Y-145279000D01*
X151661000Y-129413000D02*
X151661000Y-145287000D01*
X151621000Y-129406000D02*
X151621000Y-145294000D01*
X151581000Y-129398000D02*
X151581000Y-145302000D01*
X151541000Y-129391000D02*
X151541000Y-145309000D01*
X151501000Y-129384000D02*
X151501000Y-145316000D01*
X151461000Y-129378000D02*
X151461000Y-145322000D01*
X151421000Y-129371000D02*
X151421000Y-145329000D01*
X151381000Y-129365000D02*
X151381000Y-145335000D01*
X151341000Y-129359000D02*
X151341000Y-145341000D01*
X151301000Y-129353000D02*
X151301000Y-145347000D01*
X151261000Y-129347000D02*
X151261000Y-145353000D01*
X151221000Y-129342000D02*
X151221000Y-145358000D01*
X151181000Y-129336000D02*
X151181000Y-145364000D01*
X151141000Y-129331000D02*
X151141000Y-145369000D01*
X151101000Y-129326000D02*
X151101000Y-145374000D01*
X151061000Y-129322000D02*
X151061000Y-145378000D01*
X151021000Y-129317000D02*
X151021000Y-145383000D01*
X150981000Y-129313000D02*
X150981000Y-145387000D01*
X150941000Y-129309000D02*
X150941000Y-145391000D01*
X150901000Y-129305000D02*
X150901000Y-145395000D01*
X150861000Y-129301000D02*
X150861000Y-145399000D01*
X150820000Y-129298000D02*
X150820000Y-145402000D01*
X150780000Y-129295000D02*
X150780000Y-145405000D01*
X150740000Y-129292000D02*
X150740000Y-145408000D01*
X150700000Y-129289000D02*
X150700000Y-145411000D01*
X150660000Y-129286000D02*
X150660000Y-145414000D01*
X150620000Y-129284000D02*
X150620000Y-145416000D01*
X150580000Y-129281000D02*
X150580000Y-145419000D01*
X150540000Y-129279000D02*
X150540000Y-145421000D01*
X150500000Y-129277000D02*
X150500000Y-145423000D01*
X150460000Y-129276000D02*
X150460000Y-145424000D01*
X150420000Y-129274000D02*
X150420000Y-145426000D01*
X150380000Y-129273000D02*
X150380000Y-145427000D01*
X150340000Y-129272000D02*
X150340000Y-145428000D01*
X150300000Y-129271000D02*
X150300000Y-145429000D01*
X150260000Y-129270000D02*
X150260000Y-145430000D01*
X150220000Y-129270000D02*
X150220000Y-145430000D01*
X150180000Y-129270000D02*
X150180000Y-145430000D01*
X150140000Y-129269000D02*
X150140000Y-145431000D01*
X158260000Y-137350000D02*
G75*
G03X158260000Y-137350000I-8120000J0D01*
G01*
G04 #@! TO.C,C6*
X159250509Y-131995000D02*
X159250509Y-133595000D01*
X158450509Y-132795000D02*
X160050509Y-132795000D01*
X175221000Y-136585000D02*
X175221000Y-138115000D01*
X175181000Y-136252000D02*
X175181000Y-138448000D01*
X175141000Y-135999000D02*
X175141000Y-138701000D01*
X175101000Y-135786000D02*
X175101000Y-138914000D01*
X175061000Y-135598000D02*
X175061000Y-139102000D01*
X175021000Y-135430000D02*
X175021000Y-139270000D01*
X174981000Y-135276000D02*
X174981000Y-139424000D01*
X174941000Y-135132000D02*
X174941000Y-139568000D01*
X174901000Y-134999000D02*
X174901000Y-139701000D01*
X174861000Y-134872000D02*
X174861000Y-139828000D01*
X174821000Y-134753000D02*
X174821000Y-139947000D01*
X174781000Y-134639000D02*
X174781000Y-140061000D01*
X174741000Y-134530000D02*
X174741000Y-140170000D01*
X174701000Y-134426000D02*
X174701000Y-140274000D01*
X174661000Y-134326000D02*
X174661000Y-140374000D01*
X174621000Y-134230000D02*
X174621000Y-140470000D01*
X174581000Y-134137000D02*
X174581000Y-140563000D01*
X174541000Y-134047000D02*
X174541000Y-140653000D01*
X174501000Y-133960000D02*
X174501000Y-140740000D01*
X174461000Y-133875000D02*
X174461000Y-140825000D01*
X174421000Y-133793000D02*
X174421000Y-140907000D01*
X174381000Y-133713000D02*
X174381000Y-140987000D01*
X174341000Y-133635000D02*
X174341000Y-141065000D01*
X174301000Y-133560000D02*
X174301000Y-141140000D01*
X174261000Y-133486000D02*
X174261000Y-141214000D01*
X174221000Y-133414000D02*
X174221000Y-141286000D01*
X174181000Y-133343000D02*
X174181000Y-141357000D01*
X174141000Y-133274000D02*
X174141000Y-141426000D01*
X174101000Y-133207000D02*
X174101000Y-141493000D01*
X174061000Y-133141000D02*
X174061000Y-141559000D01*
X174021000Y-133077000D02*
X174021000Y-141623000D01*
X173981000Y-133014000D02*
X173981000Y-141686000D01*
X173941000Y-132952000D02*
X173941000Y-141748000D01*
X173901000Y-132891000D02*
X173901000Y-141809000D01*
X173861000Y-132831000D02*
X173861000Y-141869000D01*
X173821000Y-132773000D02*
X173821000Y-141927000D01*
X173781000Y-132716000D02*
X173781000Y-141984000D01*
X173741000Y-132659000D02*
X173741000Y-142041000D01*
X173701000Y-132604000D02*
X173701000Y-142096000D01*
X173661000Y-132550000D02*
X173661000Y-142150000D01*
X173621000Y-132496000D02*
X173621000Y-142204000D01*
X173581000Y-132444000D02*
X173581000Y-142256000D01*
X173541000Y-132392000D02*
X173541000Y-142308000D01*
X173501000Y-132341000D02*
X173501000Y-142359000D01*
X173461000Y-132291000D02*
X173461000Y-142409000D01*
X173421000Y-132242000D02*
X173421000Y-142458000D01*
X173381000Y-132194000D02*
X173381000Y-142506000D01*
X173341000Y-132146000D02*
X173341000Y-142554000D01*
X173301000Y-132099000D02*
X173301000Y-142601000D01*
X173261000Y-132053000D02*
X173261000Y-142647000D01*
X173221000Y-132007000D02*
X173221000Y-142693000D01*
X173181000Y-131962000D02*
X173181000Y-142738000D01*
X173141000Y-131918000D02*
X173141000Y-142782000D01*
X173101000Y-131875000D02*
X173101000Y-142825000D01*
X173061000Y-131832000D02*
X173061000Y-142868000D01*
X173021000Y-131790000D02*
X173021000Y-142910000D01*
X172981000Y-131748000D02*
X172981000Y-142952000D01*
X172941000Y-131707000D02*
X172941000Y-142993000D01*
X172901000Y-131666000D02*
X172901000Y-143034000D01*
X172861000Y-131626000D02*
X172861000Y-143074000D01*
X172821000Y-131587000D02*
X172821000Y-143113000D01*
X172781000Y-131548000D02*
X172781000Y-143152000D01*
X172741000Y-131510000D02*
X172741000Y-143190000D01*
X172701000Y-131472000D02*
X172701000Y-143228000D01*
X172661000Y-131434000D02*
X172661000Y-143266000D01*
X172621000Y-131398000D02*
X172621000Y-143302000D01*
X172581000Y-131361000D02*
X172581000Y-143339000D01*
X172541000Y-131325000D02*
X172541000Y-143375000D01*
X172501000Y-131290000D02*
X172501000Y-143410000D01*
X172461000Y-131255000D02*
X172461000Y-143445000D01*
X172421000Y-131221000D02*
X172421000Y-143479000D01*
X172381000Y-131187000D02*
X172381000Y-143513000D01*
X172341000Y-131153000D02*
X172341000Y-143547000D01*
X172301000Y-138790000D02*
X172301000Y-143580000D01*
X172301000Y-131120000D02*
X172301000Y-135910000D01*
X172261000Y-138790000D02*
X172261000Y-143613000D01*
X172261000Y-131087000D02*
X172261000Y-135910000D01*
X172221000Y-138790000D02*
X172221000Y-143645000D01*
X172221000Y-131055000D02*
X172221000Y-135910000D01*
X172181000Y-138790000D02*
X172181000Y-143677000D01*
X172181000Y-131023000D02*
X172181000Y-135910000D01*
X172141000Y-138790000D02*
X172141000Y-143708000D01*
X172141000Y-130992000D02*
X172141000Y-135910000D01*
X172101000Y-138790000D02*
X172101000Y-143740000D01*
X172101000Y-130960000D02*
X172101000Y-135910000D01*
X172061000Y-138790000D02*
X172061000Y-143770000D01*
X172061000Y-130930000D02*
X172061000Y-135910000D01*
X172021000Y-138790000D02*
X172021000Y-143800000D01*
X172021000Y-130900000D02*
X172021000Y-135910000D01*
X171981000Y-138790000D02*
X171981000Y-143830000D01*
X171981000Y-130870000D02*
X171981000Y-135910000D01*
X171941000Y-138790000D02*
X171941000Y-143860000D01*
X171941000Y-130840000D02*
X171941000Y-135910000D01*
X171901000Y-138790000D02*
X171901000Y-143889000D01*
X171901000Y-130811000D02*
X171901000Y-135910000D01*
X171861000Y-138790000D02*
X171861000Y-143918000D01*
X171861000Y-130782000D02*
X171861000Y-135910000D01*
X171821000Y-138790000D02*
X171821000Y-143946000D01*
X171821000Y-130754000D02*
X171821000Y-135910000D01*
X171781000Y-138790000D02*
X171781000Y-143974000D01*
X171781000Y-130726000D02*
X171781000Y-135910000D01*
X171741000Y-138790000D02*
X171741000Y-144002000D01*
X171741000Y-130698000D02*
X171741000Y-135910000D01*
X171701000Y-138790000D02*
X171701000Y-144029000D01*
X171701000Y-130671000D02*
X171701000Y-135910000D01*
X171661000Y-138790000D02*
X171661000Y-144056000D01*
X171661000Y-130644000D02*
X171661000Y-135910000D01*
X171621000Y-138790000D02*
X171621000Y-144083000D01*
X171621000Y-130617000D02*
X171621000Y-135910000D01*
X171581000Y-138790000D02*
X171581000Y-144109000D01*
X171581000Y-130591000D02*
X171581000Y-135910000D01*
X171541000Y-138790000D02*
X171541000Y-144135000D01*
X171541000Y-130565000D02*
X171541000Y-135910000D01*
X171501000Y-138790000D02*
X171501000Y-144161000D01*
X171501000Y-130539000D02*
X171501000Y-135910000D01*
X171461000Y-138790000D02*
X171461000Y-144186000D01*
X171461000Y-130514000D02*
X171461000Y-135910000D01*
X171421000Y-138790000D02*
X171421000Y-144211000D01*
X171421000Y-130489000D02*
X171421000Y-135910000D01*
X171381000Y-138790000D02*
X171381000Y-144236000D01*
X171381000Y-130464000D02*
X171381000Y-135910000D01*
X171341000Y-138790000D02*
X171341000Y-144260000D01*
X171341000Y-130440000D02*
X171341000Y-135910000D01*
X171301000Y-138790000D02*
X171301000Y-144284000D01*
X171301000Y-130416000D02*
X171301000Y-135910000D01*
X171261000Y-138790000D02*
X171261000Y-144308000D01*
X171261000Y-130392000D02*
X171261000Y-135910000D01*
X171221000Y-138790000D02*
X171221000Y-144331000D01*
X171221000Y-130369000D02*
X171221000Y-135910000D01*
X171181000Y-138790000D02*
X171181000Y-144354000D01*
X171181000Y-130346000D02*
X171181000Y-135910000D01*
X171141000Y-138790000D02*
X171141000Y-144377000D01*
X171141000Y-130323000D02*
X171141000Y-135910000D01*
X171101000Y-138790000D02*
X171101000Y-144399000D01*
X171101000Y-130301000D02*
X171101000Y-135910000D01*
X171061000Y-138790000D02*
X171061000Y-144422000D01*
X171061000Y-130278000D02*
X171061000Y-135910000D01*
X171021000Y-138790000D02*
X171021000Y-144444000D01*
X171021000Y-130256000D02*
X171021000Y-135910000D01*
X170981000Y-138790000D02*
X170981000Y-144465000D01*
X170981000Y-130235000D02*
X170981000Y-135910000D01*
X170941000Y-138790000D02*
X170941000Y-144486000D01*
X170941000Y-130214000D02*
X170941000Y-135910000D01*
X170901000Y-138790000D02*
X170901000Y-144507000D01*
X170901000Y-130193000D02*
X170901000Y-135910000D01*
X170861000Y-138790000D02*
X170861000Y-144528000D01*
X170861000Y-130172000D02*
X170861000Y-135910000D01*
X170821000Y-138790000D02*
X170821000Y-144549000D01*
X170821000Y-130151000D02*
X170821000Y-135910000D01*
X170781000Y-138790000D02*
X170781000Y-144569000D01*
X170781000Y-130131000D02*
X170781000Y-135910000D01*
X170741000Y-138790000D02*
X170741000Y-144589000D01*
X170741000Y-130111000D02*
X170741000Y-135910000D01*
X170701000Y-138790000D02*
X170701000Y-144608000D01*
X170701000Y-130092000D02*
X170701000Y-135910000D01*
X170661000Y-138790000D02*
X170661000Y-144628000D01*
X170661000Y-130072000D02*
X170661000Y-135910000D01*
X170621000Y-138790000D02*
X170621000Y-144647000D01*
X170621000Y-130053000D02*
X170621000Y-135910000D01*
X170581000Y-138790000D02*
X170581000Y-144666000D01*
X170581000Y-130034000D02*
X170581000Y-135910000D01*
X170541000Y-138790000D02*
X170541000Y-144684000D01*
X170541000Y-130016000D02*
X170541000Y-135910000D01*
X170501000Y-138790000D02*
X170501000Y-144703000D01*
X170501000Y-129997000D02*
X170501000Y-135910000D01*
X170461000Y-138790000D02*
X170461000Y-144721000D01*
X170461000Y-129979000D02*
X170461000Y-135910000D01*
X170421000Y-138790000D02*
X170421000Y-144739000D01*
X170421000Y-129961000D02*
X170421000Y-135910000D01*
X170381000Y-138790000D02*
X170381000Y-144756000D01*
X170381000Y-129944000D02*
X170381000Y-135910000D01*
X170341000Y-138790000D02*
X170341000Y-144773000D01*
X170341000Y-129927000D02*
X170341000Y-135910000D01*
X170301000Y-138790000D02*
X170301000Y-144790000D01*
X170301000Y-129910000D02*
X170301000Y-135910000D01*
X170261000Y-138790000D02*
X170261000Y-144807000D01*
X170261000Y-129893000D02*
X170261000Y-135910000D01*
X170221000Y-138790000D02*
X170221000Y-144824000D01*
X170221000Y-129876000D02*
X170221000Y-135910000D01*
X170181000Y-138790000D02*
X170181000Y-144840000D01*
X170181000Y-129860000D02*
X170181000Y-135910000D01*
X170141000Y-138790000D02*
X170141000Y-144856000D01*
X170141000Y-129844000D02*
X170141000Y-135910000D01*
X170101000Y-138790000D02*
X170101000Y-144872000D01*
X170101000Y-129828000D02*
X170101000Y-135910000D01*
X170061000Y-138790000D02*
X170061000Y-144887000D01*
X170061000Y-129813000D02*
X170061000Y-135910000D01*
X170021000Y-138790000D02*
X170021000Y-144903000D01*
X170021000Y-129797000D02*
X170021000Y-135910000D01*
X169981000Y-138790000D02*
X169981000Y-144918000D01*
X169981000Y-129782000D02*
X169981000Y-135910000D01*
X169941000Y-138790000D02*
X169941000Y-144932000D01*
X169941000Y-129768000D02*
X169941000Y-135910000D01*
X169901000Y-138790000D02*
X169901000Y-144947000D01*
X169901000Y-129753000D02*
X169901000Y-135910000D01*
X169861000Y-138790000D02*
X169861000Y-144961000D01*
X169861000Y-129739000D02*
X169861000Y-135910000D01*
X169821000Y-138790000D02*
X169821000Y-144975000D01*
X169821000Y-129725000D02*
X169821000Y-135910000D01*
X169781000Y-138790000D02*
X169781000Y-144989000D01*
X169781000Y-129711000D02*
X169781000Y-135910000D01*
X169741000Y-138790000D02*
X169741000Y-145003000D01*
X169741000Y-129697000D02*
X169741000Y-135910000D01*
X169701000Y-138790000D02*
X169701000Y-145016000D01*
X169701000Y-129684000D02*
X169701000Y-135910000D01*
X169661000Y-138790000D02*
X169661000Y-145030000D01*
X169661000Y-129670000D02*
X169661000Y-135910000D01*
X169621000Y-138790000D02*
X169621000Y-145043000D01*
X169621000Y-129657000D02*
X169621000Y-135910000D01*
X169581000Y-138790000D02*
X169581000Y-145055000D01*
X169581000Y-129645000D02*
X169581000Y-135910000D01*
X169541000Y-138790000D02*
X169541000Y-145068000D01*
X169541000Y-129632000D02*
X169541000Y-135910000D01*
X169501000Y-138790000D02*
X169501000Y-145080000D01*
X169501000Y-129620000D02*
X169501000Y-135910000D01*
X169461000Y-138790000D02*
X169461000Y-145092000D01*
X169461000Y-129608000D02*
X169461000Y-135910000D01*
X169421000Y-129596000D02*
X169421000Y-145104000D01*
X169381000Y-129585000D02*
X169381000Y-145115000D01*
X169341000Y-129573000D02*
X169341000Y-145127000D01*
X169301000Y-129562000D02*
X169301000Y-145138000D01*
X169261000Y-129551000D02*
X169261000Y-145149000D01*
X169221000Y-129540000D02*
X169221000Y-145160000D01*
X169181000Y-129530000D02*
X169181000Y-145170000D01*
X169141000Y-129520000D02*
X169141000Y-145180000D01*
X169101000Y-129510000D02*
X169101000Y-145190000D01*
X169061000Y-129500000D02*
X169061000Y-145200000D01*
X169021000Y-129490000D02*
X169021000Y-145210000D01*
X168981000Y-129481000D02*
X168981000Y-145219000D01*
X168941000Y-129472000D02*
X168941000Y-145228000D01*
X168901000Y-129463000D02*
X168901000Y-145237000D01*
X168861000Y-129454000D02*
X168861000Y-145246000D01*
X168821000Y-129445000D02*
X168821000Y-145255000D01*
X168781000Y-129437000D02*
X168781000Y-145263000D01*
X168741000Y-129429000D02*
X168741000Y-145271000D01*
X168701000Y-129421000D02*
X168701000Y-145279000D01*
X168661000Y-129413000D02*
X168661000Y-145287000D01*
X168621000Y-129406000D02*
X168621000Y-145294000D01*
X168581000Y-129398000D02*
X168581000Y-145302000D01*
X168541000Y-129391000D02*
X168541000Y-145309000D01*
X168501000Y-129384000D02*
X168501000Y-145316000D01*
X168461000Y-129378000D02*
X168461000Y-145322000D01*
X168421000Y-129371000D02*
X168421000Y-145329000D01*
X168381000Y-129365000D02*
X168381000Y-145335000D01*
X168341000Y-129359000D02*
X168341000Y-145341000D01*
X168301000Y-129353000D02*
X168301000Y-145347000D01*
X168261000Y-129347000D02*
X168261000Y-145353000D01*
X168221000Y-129342000D02*
X168221000Y-145358000D01*
X168181000Y-129336000D02*
X168181000Y-145364000D01*
X168141000Y-129331000D02*
X168141000Y-145369000D01*
X168101000Y-129326000D02*
X168101000Y-145374000D01*
X168061000Y-129322000D02*
X168061000Y-145378000D01*
X168021000Y-129317000D02*
X168021000Y-145383000D01*
X167981000Y-129313000D02*
X167981000Y-145387000D01*
X167941000Y-129309000D02*
X167941000Y-145391000D01*
X167901000Y-129305000D02*
X167901000Y-145395000D01*
X167861000Y-129301000D02*
X167861000Y-145399000D01*
X167820000Y-129298000D02*
X167820000Y-145402000D01*
X167780000Y-129295000D02*
X167780000Y-145405000D01*
X167740000Y-129292000D02*
X167740000Y-145408000D01*
X167700000Y-129289000D02*
X167700000Y-145411000D01*
X167660000Y-129286000D02*
X167660000Y-145414000D01*
X167620000Y-129284000D02*
X167620000Y-145416000D01*
X167580000Y-129281000D02*
X167580000Y-145419000D01*
X167540000Y-129279000D02*
X167540000Y-145421000D01*
X167500000Y-129277000D02*
X167500000Y-145423000D01*
X167460000Y-129276000D02*
X167460000Y-145424000D01*
X167420000Y-129274000D02*
X167420000Y-145426000D01*
X167380000Y-129273000D02*
X167380000Y-145427000D01*
X167340000Y-129272000D02*
X167340000Y-145428000D01*
X167300000Y-129271000D02*
X167300000Y-145429000D01*
X167260000Y-129270000D02*
X167260000Y-145430000D01*
X167220000Y-129270000D02*
X167220000Y-145430000D01*
X167180000Y-129270000D02*
X167180000Y-145430000D01*
X167140000Y-129269000D02*
X167140000Y-145431000D01*
X175260000Y-137350000D02*
G75*
G03X175260000Y-137350000I-8120000J0D01*
G01*
G04 #@! TO.C,C5*
X176250509Y-131995000D02*
X176250509Y-133595000D01*
X175450509Y-132795000D02*
X177050509Y-132795000D01*
X192221000Y-136585000D02*
X192221000Y-138115000D01*
X192181000Y-136252000D02*
X192181000Y-138448000D01*
X192141000Y-135999000D02*
X192141000Y-138701000D01*
X192101000Y-135786000D02*
X192101000Y-138914000D01*
X192061000Y-135598000D02*
X192061000Y-139102000D01*
X192021000Y-135430000D02*
X192021000Y-139270000D01*
X191981000Y-135276000D02*
X191981000Y-139424000D01*
X191941000Y-135132000D02*
X191941000Y-139568000D01*
X191901000Y-134999000D02*
X191901000Y-139701000D01*
X191861000Y-134872000D02*
X191861000Y-139828000D01*
X191821000Y-134753000D02*
X191821000Y-139947000D01*
X191781000Y-134639000D02*
X191781000Y-140061000D01*
X191741000Y-134530000D02*
X191741000Y-140170000D01*
X191701000Y-134426000D02*
X191701000Y-140274000D01*
X191661000Y-134326000D02*
X191661000Y-140374000D01*
X191621000Y-134230000D02*
X191621000Y-140470000D01*
X191581000Y-134137000D02*
X191581000Y-140563000D01*
X191541000Y-134047000D02*
X191541000Y-140653000D01*
X191501000Y-133960000D02*
X191501000Y-140740000D01*
X191461000Y-133875000D02*
X191461000Y-140825000D01*
X191421000Y-133793000D02*
X191421000Y-140907000D01*
X191381000Y-133713000D02*
X191381000Y-140987000D01*
X191341000Y-133635000D02*
X191341000Y-141065000D01*
X191301000Y-133560000D02*
X191301000Y-141140000D01*
X191261000Y-133486000D02*
X191261000Y-141214000D01*
X191221000Y-133414000D02*
X191221000Y-141286000D01*
X191181000Y-133343000D02*
X191181000Y-141357000D01*
X191141000Y-133274000D02*
X191141000Y-141426000D01*
X191101000Y-133207000D02*
X191101000Y-141493000D01*
X191061000Y-133141000D02*
X191061000Y-141559000D01*
X191021000Y-133077000D02*
X191021000Y-141623000D01*
X190981000Y-133014000D02*
X190981000Y-141686000D01*
X190941000Y-132952000D02*
X190941000Y-141748000D01*
X190901000Y-132891000D02*
X190901000Y-141809000D01*
X190861000Y-132831000D02*
X190861000Y-141869000D01*
X190821000Y-132773000D02*
X190821000Y-141927000D01*
X190781000Y-132716000D02*
X190781000Y-141984000D01*
X190741000Y-132659000D02*
X190741000Y-142041000D01*
X190701000Y-132604000D02*
X190701000Y-142096000D01*
X190661000Y-132550000D02*
X190661000Y-142150000D01*
X190621000Y-132496000D02*
X190621000Y-142204000D01*
X190581000Y-132444000D02*
X190581000Y-142256000D01*
X190541000Y-132392000D02*
X190541000Y-142308000D01*
X190501000Y-132341000D02*
X190501000Y-142359000D01*
X190461000Y-132291000D02*
X190461000Y-142409000D01*
X190421000Y-132242000D02*
X190421000Y-142458000D01*
X190381000Y-132194000D02*
X190381000Y-142506000D01*
X190341000Y-132146000D02*
X190341000Y-142554000D01*
X190301000Y-132099000D02*
X190301000Y-142601000D01*
X190261000Y-132053000D02*
X190261000Y-142647000D01*
X190221000Y-132007000D02*
X190221000Y-142693000D01*
X190181000Y-131962000D02*
X190181000Y-142738000D01*
X190141000Y-131918000D02*
X190141000Y-142782000D01*
X190101000Y-131875000D02*
X190101000Y-142825000D01*
X190061000Y-131832000D02*
X190061000Y-142868000D01*
X190021000Y-131790000D02*
X190021000Y-142910000D01*
X189981000Y-131748000D02*
X189981000Y-142952000D01*
X189941000Y-131707000D02*
X189941000Y-142993000D01*
X189901000Y-131666000D02*
X189901000Y-143034000D01*
X189861000Y-131626000D02*
X189861000Y-143074000D01*
X189821000Y-131587000D02*
X189821000Y-143113000D01*
X189781000Y-131548000D02*
X189781000Y-143152000D01*
X189741000Y-131510000D02*
X189741000Y-143190000D01*
X189701000Y-131472000D02*
X189701000Y-143228000D01*
X189661000Y-131434000D02*
X189661000Y-143266000D01*
X189621000Y-131398000D02*
X189621000Y-143302000D01*
X189581000Y-131361000D02*
X189581000Y-143339000D01*
X189541000Y-131325000D02*
X189541000Y-143375000D01*
X189501000Y-131290000D02*
X189501000Y-143410000D01*
X189461000Y-131255000D02*
X189461000Y-143445000D01*
X189421000Y-131221000D02*
X189421000Y-143479000D01*
X189381000Y-131187000D02*
X189381000Y-143513000D01*
X189341000Y-131153000D02*
X189341000Y-143547000D01*
X189301000Y-138790000D02*
X189301000Y-143580000D01*
X189301000Y-131120000D02*
X189301000Y-135910000D01*
X189261000Y-138790000D02*
X189261000Y-143613000D01*
X189261000Y-131087000D02*
X189261000Y-135910000D01*
X189221000Y-138790000D02*
X189221000Y-143645000D01*
X189221000Y-131055000D02*
X189221000Y-135910000D01*
X189181000Y-138790000D02*
X189181000Y-143677000D01*
X189181000Y-131023000D02*
X189181000Y-135910000D01*
X189141000Y-138790000D02*
X189141000Y-143708000D01*
X189141000Y-130992000D02*
X189141000Y-135910000D01*
X189101000Y-138790000D02*
X189101000Y-143740000D01*
X189101000Y-130960000D02*
X189101000Y-135910000D01*
X189061000Y-138790000D02*
X189061000Y-143770000D01*
X189061000Y-130930000D02*
X189061000Y-135910000D01*
X189021000Y-138790000D02*
X189021000Y-143800000D01*
X189021000Y-130900000D02*
X189021000Y-135910000D01*
X188981000Y-138790000D02*
X188981000Y-143830000D01*
X188981000Y-130870000D02*
X188981000Y-135910000D01*
X188941000Y-138790000D02*
X188941000Y-143860000D01*
X188941000Y-130840000D02*
X188941000Y-135910000D01*
X188901000Y-138790000D02*
X188901000Y-143889000D01*
X188901000Y-130811000D02*
X188901000Y-135910000D01*
X188861000Y-138790000D02*
X188861000Y-143918000D01*
X188861000Y-130782000D02*
X188861000Y-135910000D01*
X188821000Y-138790000D02*
X188821000Y-143946000D01*
X188821000Y-130754000D02*
X188821000Y-135910000D01*
X188781000Y-138790000D02*
X188781000Y-143974000D01*
X188781000Y-130726000D02*
X188781000Y-135910000D01*
X188741000Y-138790000D02*
X188741000Y-144002000D01*
X188741000Y-130698000D02*
X188741000Y-135910000D01*
X188701000Y-138790000D02*
X188701000Y-144029000D01*
X188701000Y-130671000D02*
X188701000Y-135910000D01*
X188661000Y-138790000D02*
X188661000Y-144056000D01*
X188661000Y-130644000D02*
X188661000Y-135910000D01*
X188621000Y-138790000D02*
X188621000Y-144083000D01*
X188621000Y-130617000D02*
X188621000Y-135910000D01*
X188581000Y-138790000D02*
X188581000Y-144109000D01*
X188581000Y-130591000D02*
X188581000Y-135910000D01*
X188541000Y-138790000D02*
X188541000Y-144135000D01*
X188541000Y-130565000D02*
X188541000Y-135910000D01*
X188501000Y-138790000D02*
X188501000Y-144161000D01*
X188501000Y-130539000D02*
X188501000Y-135910000D01*
X188461000Y-138790000D02*
X188461000Y-144186000D01*
X188461000Y-130514000D02*
X188461000Y-135910000D01*
X188421000Y-138790000D02*
X188421000Y-144211000D01*
X188421000Y-130489000D02*
X188421000Y-135910000D01*
X188381000Y-138790000D02*
X188381000Y-144236000D01*
X188381000Y-130464000D02*
X188381000Y-135910000D01*
X188341000Y-138790000D02*
X188341000Y-144260000D01*
X188341000Y-130440000D02*
X188341000Y-135910000D01*
X188301000Y-138790000D02*
X188301000Y-144284000D01*
X188301000Y-130416000D02*
X188301000Y-135910000D01*
X188261000Y-138790000D02*
X188261000Y-144308000D01*
X188261000Y-130392000D02*
X188261000Y-135910000D01*
X188221000Y-138790000D02*
X188221000Y-144331000D01*
X188221000Y-130369000D02*
X188221000Y-135910000D01*
X188181000Y-138790000D02*
X188181000Y-144354000D01*
X188181000Y-130346000D02*
X188181000Y-135910000D01*
X188141000Y-138790000D02*
X188141000Y-144377000D01*
X188141000Y-130323000D02*
X188141000Y-135910000D01*
X188101000Y-138790000D02*
X188101000Y-144399000D01*
X188101000Y-130301000D02*
X188101000Y-135910000D01*
X188061000Y-138790000D02*
X188061000Y-144422000D01*
X188061000Y-130278000D02*
X188061000Y-135910000D01*
X188021000Y-138790000D02*
X188021000Y-144444000D01*
X188021000Y-130256000D02*
X188021000Y-135910000D01*
X187981000Y-138790000D02*
X187981000Y-144465000D01*
X187981000Y-130235000D02*
X187981000Y-135910000D01*
X187941000Y-138790000D02*
X187941000Y-144486000D01*
X187941000Y-130214000D02*
X187941000Y-135910000D01*
X187901000Y-138790000D02*
X187901000Y-144507000D01*
X187901000Y-130193000D02*
X187901000Y-135910000D01*
X187861000Y-138790000D02*
X187861000Y-144528000D01*
X187861000Y-130172000D02*
X187861000Y-135910000D01*
X187821000Y-138790000D02*
X187821000Y-144549000D01*
X187821000Y-130151000D02*
X187821000Y-135910000D01*
X187781000Y-138790000D02*
X187781000Y-144569000D01*
X187781000Y-130131000D02*
X187781000Y-135910000D01*
X187741000Y-138790000D02*
X187741000Y-144589000D01*
X187741000Y-130111000D02*
X187741000Y-135910000D01*
X187701000Y-138790000D02*
X187701000Y-144608000D01*
X187701000Y-130092000D02*
X187701000Y-135910000D01*
X187661000Y-138790000D02*
X187661000Y-144628000D01*
X187661000Y-130072000D02*
X187661000Y-135910000D01*
X187621000Y-138790000D02*
X187621000Y-144647000D01*
X187621000Y-130053000D02*
X187621000Y-135910000D01*
X187581000Y-138790000D02*
X187581000Y-144666000D01*
X187581000Y-130034000D02*
X187581000Y-135910000D01*
X187541000Y-138790000D02*
X187541000Y-144684000D01*
X187541000Y-130016000D02*
X187541000Y-135910000D01*
X187501000Y-138790000D02*
X187501000Y-144703000D01*
X187501000Y-129997000D02*
X187501000Y-135910000D01*
X187461000Y-138790000D02*
X187461000Y-144721000D01*
X187461000Y-129979000D02*
X187461000Y-135910000D01*
X187421000Y-138790000D02*
X187421000Y-144739000D01*
X187421000Y-129961000D02*
X187421000Y-135910000D01*
X187381000Y-138790000D02*
X187381000Y-144756000D01*
X187381000Y-129944000D02*
X187381000Y-135910000D01*
X187341000Y-138790000D02*
X187341000Y-144773000D01*
X187341000Y-129927000D02*
X187341000Y-135910000D01*
X187301000Y-138790000D02*
X187301000Y-144790000D01*
X187301000Y-129910000D02*
X187301000Y-135910000D01*
X187261000Y-138790000D02*
X187261000Y-144807000D01*
X187261000Y-129893000D02*
X187261000Y-135910000D01*
X187221000Y-138790000D02*
X187221000Y-144824000D01*
X187221000Y-129876000D02*
X187221000Y-135910000D01*
X187181000Y-138790000D02*
X187181000Y-144840000D01*
X187181000Y-129860000D02*
X187181000Y-135910000D01*
X187141000Y-138790000D02*
X187141000Y-144856000D01*
X187141000Y-129844000D02*
X187141000Y-135910000D01*
X187101000Y-138790000D02*
X187101000Y-144872000D01*
X187101000Y-129828000D02*
X187101000Y-135910000D01*
X187061000Y-138790000D02*
X187061000Y-144887000D01*
X187061000Y-129813000D02*
X187061000Y-135910000D01*
X187021000Y-138790000D02*
X187021000Y-144903000D01*
X187021000Y-129797000D02*
X187021000Y-135910000D01*
X186981000Y-138790000D02*
X186981000Y-144918000D01*
X186981000Y-129782000D02*
X186981000Y-135910000D01*
X186941000Y-138790000D02*
X186941000Y-144932000D01*
X186941000Y-129768000D02*
X186941000Y-135910000D01*
X186901000Y-138790000D02*
X186901000Y-144947000D01*
X186901000Y-129753000D02*
X186901000Y-135910000D01*
X186861000Y-138790000D02*
X186861000Y-144961000D01*
X186861000Y-129739000D02*
X186861000Y-135910000D01*
X186821000Y-138790000D02*
X186821000Y-144975000D01*
X186821000Y-129725000D02*
X186821000Y-135910000D01*
X186781000Y-138790000D02*
X186781000Y-144989000D01*
X186781000Y-129711000D02*
X186781000Y-135910000D01*
X186741000Y-138790000D02*
X186741000Y-145003000D01*
X186741000Y-129697000D02*
X186741000Y-135910000D01*
X186701000Y-138790000D02*
X186701000Y-145016000D01*
X186701000Y-129684000D02*
X186701000Y-135910000D01*
X186661000Y-138790000D02*
X186661000Y-145030000D01*
X186661000Y-129670000D02*
X186661000Y-135910000D01*
X186621000Y-138790000D02*
X186621000Y-145043000D01*
X186621000Y-129657000D02*
X186621000Y-135910000D01*
X186581000Y-138790000D02*
X186581000Y-145055000D01*
X186581000Y-129645000D02*
X186581000Y-135910000D01*
X186541000Y-138790000D02*
X186541000Y-145068000D01*
X186541000Y-129632000D02*
X186541000Y-135910000D01*
X186501000Y-138790000D02*
X186501000Y-145080000D01*
X186501000Y-129620000D02*
X186501000Y-135910000D01*
X186461000Y-138790000D02*
X186461000Y-145092000D01*
X186461000Y-129608000D02*
X186461000Y-135910000D01*
X186421000Y-129596000D02*
X186421000Y-145104000D01*
X186381000Y-129585000D02*
X186381000Y-145115000D01*
X186341000Y-129573000D02*
X186341000Y-145127000D01*
X186301000Y-129562000D02*
X186301000Y-145138000D01*
X186261000Y-129551000D02*
X186261000Y-145149000D01*
X186221000Y-129540000D02*
X186221000Y-145160000D01*
X186181000Y-129530000D02*
X186181000Y-145170000D01*
X186141000Y-129520000D02*
X186141000Y-145180000D01*
X186101000Y-129510000D02*
X186101000Y-145190000D01*
X186061000Y-129500000D02*
X186061000Y-145200000D01*
X186021000Y-129490000D02*
X186021000Y-145210000D01*
X185981000Y-129481000D02*
X185981000Y-145219000D01*
X185941000Y-129472000D02*
X185941000Y-145228000D01*
X185901000Y-129463000D02*
X185901000Y-145237000D01*
X185861000Y-129454000D02*
X185861000Y-145246000D01*
X185821000Y-129445000D02*
X185821000Y-145255000D01*
X185781000Y-129437000D02*
X185781000Y-145263000D01*
X185741000Y-129429000D02*
X185741000Y-145271000D01*
X185701000Y-129421000D02*
X185701000Y-145279000D01*
X185661000Y-129413000D02*
X185661000Y-145287000D01*
X185621000Y-129406000D02*
X185621000Y-145294000D01*
X185581000Y-129398000D02*
X185581000Y-145302000D01*
X185541000Y-129391000D02*
X185541000Y-145309000D01*
X185501000Y-129384000D02*
X185501000Y-145316000D01*
X185461000Y-129378000D02*
X185461000Y-145322000D01*
X185421000Y-129371000D02*
X185421000Y-145329000D01*
X185381000Y-129365000D02*
X185381000Y-145335000D01*
X185341000Y-129359000D02*
X185341000Y-145341000D01*
X185301000Y-129353000D02*
X185301000Y-145347000D01*
X185261000Y-129347000D02*
X185261000Y-145353000D01*
X185221000Y-129342000D02*
X185221000Y-145358000D01*
X185181000Y-129336000D02*
X185181000Y-145364000D01*
X185141000Y-129331000D02*
X185141000Y-145369000D01*
X185101000Y-129326000D02*
X185101000Y-145374000D01*
X185061000Y-129322000D02*
X185061000Y-145378000D01*
X185021000Y-129317000D02*
X185021000Y-145383000D01*
X184981000Y-129313000D02*
X184981000Y-145387000D01*
X184941000Y-129309000D02*
X184941000Y-145391000D01*
X184901000Y-129305000D02*
X184901000Y-145395000D01*
X184861000Y-129301000D02*
X184861000Y-145399000D01*
X184820000Y-129298000D02*
X184820000Y-145402000D01*
X184780000Y-129295000D02*
X184780000Y-145405000D01*
X184740000Y-129292000D02*
X184740000Y-145408000D01*
X184700000Y-129289000D02*
X184700000Y-145411000D01*
X184660000Y-129286000D02*
X184660000Y-145414000D01*
X184620000Y-129284000D02*
X184620000Y-145416000D01*
X184580000Y-129281000D02*
X184580000Y-145419000D01*
X184540000Y-129279000D02*
X184540000Y-145421000D01*
X184500000Y-129277000D02*
X184500000Y-145423000D01*
X184460000Y-129276000D02*
X184460000Y-145424000D01*
X184420000Y-129274000D02*
X184420000Y-145426000D01*
X184380000Y-129273000D02*
X184380000Y-145427000D01*
X184340000Y-129272000D02*
X184340000Y-145428000D01*
X184300000Y-129271000D02*
X184300000Y-145429000D01*
X184260000Y-129270000D02*
X184260000Y-145430000D01*
X184220000Y-129270000D02*
X184220000Y-145430000D01*
X184180000Y-129270000D02*
X184180000Y-145430000D01*
X184140000Y-129269000D02*
X184140000Y-145431000D01*
X192260000Y-137350000D02*
G75*
G03X192260000Y-137350000I-8120000J0D01*
G01*
G04 #@! TO.C,C4*
X192029491Y-121705000D02*
X192029491Y-120105000D01*
X192829491Y-120905000D02*
X191229491Y-120905000D01*
X176059000Y-117115000D02*
X176059000Y-115585000D01*
X176099000Y-117448000D02*
X176099000Y-115252000D01*
X176139000Y-117701000D02*
X176139000Y-114999000D01*
X176179000Y-117914000D02*
X176179000Y-114786000D01*
X176219000Y-118102000D02*
X176219000Y-114598000D01*
X176259000Y-118270000D02*
X176259000Y-114430000D01*
X176299000Y-118424000D02*
X176299000Y-114276000D01*
X176339000Y-118568000D02*
X176339000Y-114132000D01*
X176379000Y-118701000D02*
X176379000Y-113999000D01*
X176419000Y-118828000D02*
X176419000Y-113872000D01*
X176459000Y-118947000D02*
X176459000Y-113753000D01*
X176499000Y-119061000D02*
X176499000Y-113639000D01*
X176539000Y-119170000D02*
X176539000Y-113530000D01*
X176579000Y-119274000D02*
X176579000Y-113426000D01*
X176619000Y-119374000D02*
X176619000Y-113326000D01*
X176659000Y-119470000D02*
X176659000Y-113230000D01*
X176699000Y-119563000D02*
X176699000Y-113137000D01*
X176739000Y-119653000D02*
X176739000Y-113047000D01*
X176779000Y-119740000D02*
X176779000Y-112960000D01*
X176819000Y-119825000D02*
X176819000Y-112875000D01*
X176859000Y-119907000D02*
X176859000Y-112793000D01*
X176899000Y-119987000D02*
X176899000Y-112713000D01*
X176939000Y-120065000D02*
X176939000Y-112635000D01*
X176979000Y-120140000D02*
X176979000Y-112560000D01*
X177019000Y-120214000D02*
X177019000Y-112486000D01*
X177059000Y-120286000D02*
X177059000Y-112414000D01*
X177099000Y-120357000D02*
X177099000Y-112343000D01*
X177139000Y-120426000D02*
X177139000Y-112274000D01*
X177179000Y-120493000D02*
X177179000Y-112207000D01*
X177219000Y-120559000D02*
X177219000Y-112141000D01*
X177259000Y-120623000D02*
X177259000Y-112077000D01*
X177299000Y-120686000D02*
X177299000Y-112014000D01*
X177339000Y-120748000D02*
X177339000Y-111952000D01*
X177379000Y-120809000D02*
X177379000Y-111891000D01*
X177419000Y-120869000D02*
X177419000Y-111831000D01*
X177459000Y-120927000D02*
X177459000Y-111773000D01*
X177499000Y-120984000D02*
X177499000Y-111716000D01*
X177539000Y-121041000D02*
X177539000Y-111659000D01*
X177579000Y-121096000D02*
X177579000Y-111604000D01*
X177619000Y-121150000D02*
X177619000Y-111550000D01*
X177659000Y-121204000D02*
X177659000Y-111496000D01*
X177699000Y-121256000D02*
X177699000Y-111444000D01*
X177739000Y-121308000D02*
X177739000Y-111392000D01*
X177779000Y-121359000D02*
X177779000Y-111341000D01*
X177819000Y-121409000D02*
X177819000Y-111291000D01*
X177859000Y-121458000D02*
X177859000Y-111242000D01*
X177899000Y-121506000D02*
X177899000Y-111194000D01*
X177939000Y-121554000D02*
X177939000Y-111146000D01*
X177979000Y-121601000D02*
X177979000Y-111099000D01*
X178019000Y-121647000D02*
X178019000Y-111053000D01*
X178059000Y-121693000D02*
X178059000Y-111007000D01*
X178099000Y-121738000D02*
X178099000Y-110962000D01*
X178139000Y-121782000D02*
X178139000Y-110918000D01*
X178179000Y-121825000D02*
X178179000Y-110875000D01*
X178219000Y-121868000D02*
X178219000Y-110832000D01*
X178259000Y-121910000D02*
X178259000Y-110790000D01*
X178299000Y-121952000D02*
X178299000Y-110748000D01*
X178339000Y-121993000D02*
X178339000Y-110707000D01*
X178379000Y-122034000D02*
X178379000Y-110666000D01*
X178419000Y-122074000D02*
X178419000Y-110626000D01*
X178459000Y-122113000D02*
X178459000Y-110587000D01*
X178499000Y-122152000D02*
X178499000Y-110548000D01*
X178539000Y-122190000D02*
X178539000Y-110510000D01*
X178579000Y-122228000D02*
X178579000Y-110472000D01*
X178619000Y-122266000D02*
X178619000Y-110434000D01*
X178659000Y-122302000D02*
X178659000Y-110398000D01*
X178699000Y-122339000D02*
X178699000Y-110361000D01*
X178739000Y-122375000D02*
X178739000Y-110325000D01*
X178779000Y-122410000D02*
X178779000Y-110290000D01*
X178819000Y-122445000D02*
X178819000Y-110255000D01*
X178859000Y-122479000D02*
X178859000Y-110221000D01*
X178899000Y-122513000D02*
X178899000Y-110187000D01*
X178939000Y-122547000D02*
X178939000Y-110153000D01*
X178979000Y-114910000D02*
X178979000Y-110120000D01*
X178979000Y-122580000D02*
X178979000Y-117790000D01*
X179019000Y-114910000D02*
X179019000Y-110087000D01*
X179019000Y-122613000D02*
X179019000Y-117790000D01*
X179059000Y-114910000D02*
X179059000Y-110055000D01*
X179059000Y-122645000D02*
X179059000Y-117790000D01*
X179099000Y-114910000D02*
X179099000Y-110023000D01*
X179099000Y-122677000D02*
X179099000Y-117790000D01*
X179139000Y-114910000D02*
X179139000Y-109992000D01*
X179139000Y-122708000D02*
X179139000Y-117790000D01*
X179179000Y-114910000D02*
X179179000Y-109960000D01*
X179179000Y-122740000D02*
X179179000Y-117790000D01*
X179219000Y-114910000D02*
X179219000Y-109930000D01*
X179219000Y-122770000D02*
X179219000Y-117790000D01*
X179259000Y-114910000D02*
X179259000Y-109900000D01*
X179259000Y-122800000D02*
X179259000Y-117790000D01*
X179299000Y-114910000D02*
X179299000Y-109870000D01*
X179299000Y-122830000D02*
X179299000Y-117790000D01*
X179339000Y-114910000D02*
X179339000Y-109840000D01*
X179339000Y-122860000D02*
X179339000Y-117790000D01*
X179379000Y-114910000D02*
X179379000Y-109811000D01*
X179379000Y-122889000D02*
X179379000Y-117790000D01*
X179419000Y-114910000D02*
X179419000Y-109782000D01*
X179419000Y-122918000D02*
X179419000Y-117790000D01*
X179459000Y-114910000D02*
X179459000Y-109754000D01*
X179459000Y-122946000D02*
X179459000Y-117790000D01*
X179499000Y-114910000D02*
X179499000Y-109726000D01*
X179499000Y-122974000D02*
X179499000Y-117790000D01*
X179539000Y-114910000D02*
X179539000Y-109698000D01*
X179539000Y-123002000D02*
X179539000Y-117790000D01*
X179579000Y-114910000D02*
X179579000Y-109671000D01*
X179579000Y-123029000D02*
X179579000Y-117790000D01*
X179619000Y-114910000D02*
X179619000Y-109644000D01*
X179619000Y-123056000D02*
X179619000Y-117790000D01*
X179659000Y-114910000D02*
X179659000Y-109617000D01*
X179659000Y-123083000D02*
X179659000Y-117790000D01*
X179699000Y-114910000D02*
X179699000Y-109591000D01*
X179699000Y-123109000D02*
X179699000Y-117790000D01*
X179739000Y-114910000D02*
X179739000Y-109565000D01*
X179739000Y-123135000D02*
X179739000Y-117790000D01*
X179779000Y-114910000D02*
X179779000Y-109539000D01*
X179779000Y-123161000D02*
X179779000Y-117790000D01*
X179819000Y-114910000D02*
X179819000Y-109514000D01*
X179819000Y-123186000D02*
X179819000Y-117790000D01*
X179859000Y-114910000D02*
X179859000Y-109489000D01*
X179859000Y-123211000D02*
X179859000Y-117790000D01*
X179899000Y-114910000D02*
X179899000Y-109464000D01*
X179899000Y-123236000D02*
X179899000Y-117790000D01*
X179939000Y-114910000D02*
X179939000Y-109440000D01*
X179939000Y-123260000D02*
X179939000Y-117790000D01*
X179979000Y-114910000D02*
X179979000Y-109416000D01*
X179979000Y-123284000D02*
X179979000Y-117790000D01*
X180019000Y-114910000D02*
X180019000Y-109392000D01*
X180019000Y-123308000D02*
X180019000Y-117790000D01*
X180059000Y-114910000D02*
X180059000Y-109369000D01*
X180059000Y-123331000D02*
X180059000Y-117790000D01*
X180099000Y-114910000D02*
X180099000Y-109346000D01*
X180099000Y-123354000D02*
X180099000Y-117790000D01*
X180139000Y-114910000D02*
X180139000Y-109323000D01*
X180139000Y-123377000D02*
X180139000Y-117790000D01*
X180179000Y-114910000D02*
X180179000Y-109301000D01*
X180179000Y-123399000D02*
X180179000Y-117790000D01*
X180219000Y-114910000D02*
X180219000Y-109278000D01*
X180219000Y-123422000D02*
X180219000Y-117790000D01*
X180259000Y-114910000D02*
X180259000Y-109256000D01*
X180259000Y-123444000D02*
X180259000Y-117790000D01*
X180299000Y-114910000D02*
X180299000Y-109235000D01*
X180299000Y-123465000D02*
X180299000Y-117790000D01*
X180339000Y-114910000D02*
X180339000Y-109214000D01*
X180339000Y-123486000D02*
X180339000Y-117790000D01*
X180379000Y-114910000D02*
X180379000Y-109193000D01*
X180379000Y-123507000D02*
X180379000Y-117790000D01*
X180419000Y-114910000D02*
X180419000Y-109172000D01*
X180419000Y-123528000D02*
X180419000Y-117790000D01*
X180459000Y-114910000D02*
X180459000Y-109151000D01*
X180459000Y-123549000D02*
X180459000Y-117790000D01*
X180499000Y-114910000D02*
X180499000Y-109131000D01*
X180499000Y-123569000D02*
X180499000Y-117790000D01*
X180539000Y-114910000D02*
X180539000Y-109111000D01*
X180539000Y-123589000D02*
X180539000Y-117790000D01*
X180579000Y-114910000D02*
X180579000Y-109092000D01*
X180579000Y-123608000D02*
X180579000Y-117790000D01*
X180619000Y-114910000D02*
X180619000Y-109072000D01*
X180619000Y-123628000D02*
X180619000Y-117790000D01*
X180659000Y-114910000D02*
X180659000Y-109053000D01*
X180659000Y-123647000D02*
X180659000Y-117790000D01*
X180699000Y-114910000D02*
X180699000Y-109034000D01*
X180699000Y-123666000D02*
X180699000Y-117790000D01*
X180739000Y-114910000D02*
X180739000Y-109016000D01*
X180739000Y-123684000D02*
X180739000Y-117790000D01*
X180779000Y-114910000D02*
X180779000Y-108997000D01*
X180779000Y-123703000D02*
X180779000Y-117790000D01*
X180819000Y-114910000D02*
X180819000Y-108979000D01*
X180819000Y-123721000D02*
X180819000Y-117790000D01*
X180859000Y-114910000D02*
X180859000Y-108961000D01*
X180859000Y-123739000D02*
X180859000Y-117790000D01*
X180899000Y-114910000D02*
X180899000Y-108944000D01*
X180899000Y-123756000D02*
X180899000Y-117790000D01*
X180939000Y-114910000D02*
X180939000Y-108927000D01*
X180939000Y-123773000D02*
X180939000Y-117790000D01*
X180979000Y-114910000D02*
X180979000Y-108910000D01*
X180979000Y-123790000D02*
X180979000Y-117790000D01*
X181019000Y-114910000D02*
X181019000Y-108893000D01*
X181019000Y-123807000D02*
X181019000Y-117790000D01*
X181059000Y-114910000D02*
X181059000Y-108876000D01*
X181059000Y-123824000D02*
X181059000Y-117790000D01*
X181099000Y-114910000D02*
X181099000Y-108860000D01*
X181099000Y-123840000D02*
X181099000Y-117790000D01*
X181139000Y-114910000D02*
X181139000Y-108844000D01*
X181139000Y-123856000D02*
X181139000Y-117790000D01*
X181179000Y-114910000D02*
X181179000Y-108828000D01*
X181179000Y-123872000D02*
X181179000Y-117790000D01*
X181219000Y-114910000D02*
X181219000Y-108813000D01*
X181219000Y-123887000D02*
X181219000Y-117790000D01*
X181259000Y-114910000D02*
X181259000Y-108797000D01*
X181259000Y-123903000D02*
X181259000Y-117790000D01*
X181299000Y-114910000D02*
X181299000Y-108782000D01*
X181299000Y-123918000D02*
X181299000Y-117790000D01*
X181339000Y-114910000D02*
X181339000Y-108768000D01*
X181339000Y-123932000D02*
X181339000Y-117790000D01*
X181379000Y-114910000D02*
X181379000Y-108753000D01*
X181379000Y-123947000D02*
X181379000Y-117790000D01*
X181419000Y-114910000D02*
X181419000Y-108739000D01*
X181419000Y-123961000D02*
X181419000Y-117790000D01*
X181459000Y-114910000D02*
X181459000Y-108725000D01*
X181459000Y-123975000D02*
X181459000Y-117790000D01*
X181499000Y-114910000D02*
X181499000Y-108711000D01*
X181499000Y-123989000D02*
X181499000Y-117790000D01*
X181539000Y-114910000D02*
X181539000Y-108697000D01*
X181539000Y-124003000D02*
X181539000Y-117790000D01*
X181579000Y-114910000D02*
X181579000Y-108684000D01*
X181579000Y-124016000D02*
X181579000Y-117790000D01*
X181619000Y-114910000D02*
X181619000Y-108670000D01*
X181619000Y-124030000D02*
X181619000Y-117790000D01*
X181659000Y-114910000D02*
X181659000Y-108657000D01*
X181659000Y-124043000D02*
X181659000Y-117790000D01*
X181699000Y-114910000D02*
X181699000Y-108645000D01*
X181699000Y-124055000D02*
X181699000Y-117790000D01*
X181739000Y-114910000D02*
X181739000Y-108632000D01*
X181739000Y-124068000D02*
X181739000Y-117790000D01*
X181779000Y-114910000D02*
X181779000Y-108620000D01*
X181779000Y-124080000D02*
X181779000Y-117790000D01*
X181819000Y-114910000D02*
X181819000Y-108608000D01*
X181819000Y-124092000D02*
X181819000Y-117790000D01*
X181859000Y-124104000D02*
X181859000Y-108596000D01*
X181899000Y-124115000D02*
X181899000Y-108585000D01*
X181939000Y-124127000D02*
X181939000Y-108573000D01*
X181979000Y-124138000D02*
X181979000Y-108562000D01*
X182019000Y-124149000D02*
X182019000Y-108551000D01*
X182059000Y-124160000D02*
X182059000Y-108540000D01*
X182099000Y-124170000D02*
X182099000Y-108530000D01*
X182139000Y-124180000D02*
X182139000Y-108520000D01*
X182179000Y-124190000D02*
X182179000Y-108510000D01*
X182219000Y-124200000D02*
X182219000Y-108500000D01*
X182259000Y-124210000D02*
X182259000Y-108490000D01*
X182299000Y-124219000D02*
X182299000Y-108481000D01*
X182339000Y-124228000D02*
X182339000Y-108472000D01*
X182379000Y-124237000D02*
X182379000Y-108463000D01*
X182419000Y-124246000D02*
X182419000Y-108454000D01*
X182459000Y-124255000D02*
X182459000Y-108445000D01*
X182499000Y-124263000D02*
X182499000Y-108437000D01*
X182539000Y-124271000D02*
X182539000Y-108429000D01*
X182579000Y-124279000D02*
X182579000Y-108421000D01*
X182619000Y-124287000D02*
X182619000Y-108413000D01*
X182659000Y-124294000D02*
X182659000Y-108406000D01*
X182699000Y-124302000D02*
X182699000Y-108398000D01*
X182739000Y-124309000D02*
X182739000Y-108391000D01*
X182779000Y-124316000D02*
X182779000Y-108384000D01*
X182819000Y-124322000D02*
X182819000Y-108378000D01*
X182859000Y-124329000D02*
X182859000Y-108371000D01*
X182899000Y-124335000D02*
X182899000Y-108365000D01*
X182939000Y-124341000D02*
X182939000Y-108359000D01*
X182979000Y-124347000D02*
X182979000Y-108353000D01*
X183019000Y-124353000D02*
X183019000Y-108347000D01*
X183059000Y-124358000D02*
X183059000Y-108342000D01*
X183099000Y-124364000D02*
X183099000Y-108336000D01*
X183139000Y-124369000D02*
X183139000Y-108331000D01*
X183179000Y-124374000D02*
X183179000Y-108326000D01*
X183219000Y-124378000D02*
X183219000Y-108322000D01*
X183259000Y-124383000D02*
X183259000Y-108317000D01*
X183299000Y-124387000D02*
X183299000Y-108313000D01*
X183339000Y-124391000D02*
X183339000Y-108309000D01*
X183379000Y-124395000D02*
X183379000Y-108305000D01*
X183419000Y-124399000D02*
X183419000Y-108301000D01*
X183460000Y-124402000D02*
X183460000Y-108298000D01*
X183500000Y-124405000D02*
X183500000Y-108295000D01*
X183540000Y-124408000D02*
X183540000Y-108292000D01*
X183580000Y-124411000D02*
X183580000Y-108289000D01*
X183620000Y-124414000D02*
X183620000Y-108286000D01*
X183660000Y-124416000D02*
X183660000Y-108284000D01*
X183700000Y-124419000D02*
X183700000Y-108281000D01*
X183740000Y-124421000D02*
X183740000Y-108279000D01*
X183780000Y-124423000D02*
X183780000Y-108277000D01*
X183820000Y-124424000D02*
X183820000Y-108276000D01*
X183860000Y-124426000D02*
X183860000Y-108274000D01*
X183900000Y-124427000D02*
X183900000Y-108273000D01*
X183940000Y-124428000D02*
X183940000Y-108272000D01*
X183980000Y-124429000D02*
X183980000Y-108271000D01*
X184020000Y-124430000D02*
X184020000Y-108270000D01*
X184060000Y-124430000D02*
X184060000Y-108270000D01*
X184100000Y-124430000D02*
X184100000Y-108270000D01*
X184140000Y-124431000D02*
X184140000Y-108269000D01*
X192260000Y-116350000D02*
G75*
G03X192260000Y-116350000I-8120000J0D01*
G01*
G04 #@! TO.C,C3*
X175029491Y-121705000D02*
X175029491Y-120105000D01*
X175829491Y-120905000D02*
X174229491Y-120905000D01*
X159059000Y-117115000D02*
X159059000Y-115585000D01*
X159099000Y-117448000D02*
X159099000Y-115252000D01*
X159139000Y-117701000D02*
X159139000Y-114999000D01*
X159179000Y-117914000D02*
X159179000Y-114786000D01*
X159219000Y-118102000D02*
X159219000Y-114598000D01*
X159259000Y-118270000D02*
X159259000Y-114430000D01*
X159299000Y-118424000D02*
X159299000Y-114276000D01*
X159339000Y-118568000D02*
X159339000Y-114132000D01*
X159379000Y-118701000D02*
X159379000Y-113999000D01*
X159419000Y-118828000D02*
X159419000Y-113872000D01*
X159459000Y-118947000D02*
X159459000Y-113753000D01*
X159499000Y-119061000D02*
X159499000Y-113639000D01*
X159539000Y-119170000D02*
X159539000Y-113530000D01*
X159579000Y-119274000D02*
X159579000Y-113426000D01*
X159619000Y-119374000D02*
X159619000Y-113326000D01*
X159659000Y-119470000D02*
X159659000Y-113230000D01*
X159699000Y-119563000D02*
X159699000Y-113137000D01*
X159739000Y-119653000D02*
X159739000Y-113047000D01*
X159779000Y-119740000D02*
X159779000Y-112960000D01*
X159819000Y-119825000D02*
X159819000Y-112875000D01*
X159859000Y-119907000D02*
X159859000Y-112793000D01*
X159899000Y-119987000D02*
X159899000Y-112713000D01*
X159939000Y-120065000D02*
X159939000Y-112635000D01*
X159979000Y-120140000D02*
X159979000Y-112560000D01*
X160019000Y-120214000D02*
X160019000Y-112486000D01*
X160059000Y-120286000D02*
X160059000Y-112414000D01*
X160099000Y-120357000D02*
X160099000Y-112343000D01*
X160139000Y-120426000D02*
X160139000Y-112274000D01*
X160179000Y-120493000D02*
X160179000Y-112207000D01*
X160219000Y-120559000D02*
X160219000Y-112141000D01*
X160259000Y-120623000D02*
X160259000Y-112077000D01*
X160299000Y-120686000D02*
X160299000Y-112014000D01*
X160339000Y-120748000D02*
X160339000Y-111952000D01*
X160379000Y-120809000D02*
X160379000Y-111891000D01*
X160419000Y-120869000D02*
X160419000Y-111831000D01*
X160459000Y-120927000D02*
X160459000Y-111773000D01*
X160499000Y-120984000D02*
X160499000Y-111716000D01*
X160539000Y-121041000D02*
X160539000Y-111659000D01*
X160579000Y-121096000D02*
X160579000Y-111604000D01*
X160619000Y-121150000D02*
X160619000Y-111550000D01*
X160659000Y-121204000D02*
X160659000Y-111496000D01*
X160699000Y-121256000D02*
X160699000Y-111444000D01*
X160739000Y-121308000D02*
X160739000Y-111392000D01*
X160779000Y-121359000D02*
X160779000Y-111341000D01*
X160819000Y-121409000D02*
X160819000Y-111291000D01*
X160859000Y-121458000D02*
X160859000Y-111242000D01*
X160899000Y-121506000D02*
X160899000Y-111194000D01*
X160939000Y-121554000D02*
X160939000Y-111146000D01*
X160979000Y-121601000D02*
X160979000Y-111099000D01*
X161019000Y-121647000D02*
X161019000Y-111053000D01*
X161059000Y-121693000D02*
X161059000Y-111007000D01*
X161099000Y-121738000D02*
X161099000Y-110962000D01*
X161139000Y-121782000D02*
X161139000Y-110918000D01*
X161179000Y-121825000D02*
X161179000Y-110875000D01*
X161219000Y-121868000D02*
X161219000Y-110832000D01*
X161259000Y-121910000D02*
X161259000Y-110790000D01*
X161299000Y-121952000D02*
X161299000Y-110748000D01*
X161339000Y-121993000D02*
X161339000Y-110707000D01*
X161379000Y-122034000D02*
X161379000Y-110666000D01*
X161419000Y-122074000D02*
X161419000Y-110626000D01*
X161459000Y-122113000D02*
X161459000Y-110587000D01*
X161499000Y-122152000D02*
X161499000Y-110548000D01*
X161539000Y-122190000D02*
X161539000Y-110510000D01*
X161579000Y-122228000D02*
X161579000Y-110472000D01*
X161619000Y-122266000D02*
X161619000Y-110434000D01*
X161659000Y-122302000D02*
X161659000Y-110398000D01*
X161699000Y-122339000D02*
X161699000Y-110361000D01*
X161739000Y-122375000D02*
X161739000Y-110325000D01*
X161779000Y-122410000D02*
X161779000Y-110290000D01*
X161819000Y-122445000D02*
X161819000Y-110255000D01*
X161859000Y-122479000D02*
X161859000Y-110221000D01*
X161899000Y-122513000D02*
X161899000Y-110187000D01*
X161939000Y-122547000D02*
X161939000Y-110153000D01*
X161979000Y-114910000D02*
X161979000Y-110120000D01*
X161979000Y-122580000D02*
X161979000Y-117790000D01*
X162019000Y-114910000D02*
X162019000Y-110087000D01*
X162019000Y-122613000D02*
X162019000Y-117790000D01*
X162059000Y-114910000D02*
X162059000Y-110055000D01*
X162059000Y-122645000D02*
X162059000Y-117790000D01*
X162099000Y-114910000D02*
X162099000Y-110023000D01*
X162099000Y-122677000D02*
X162099000Y-117790000D01*
X162139000Y-114910000D02*
X162139000Y-109992000D01*
X162139000Y-122708000D02*
X162139000Y-117790000D01*
X162179000Y-114910000D02*
X162179000Y-109960000D01*
X162179000Y-122740000D02*
X162179000Y-117790000D01*
X162219000Y-114910000D02*
X162219000Y-109930000D01*
X162219000Y-122770000D02*
X162219000Y-117790000D01*
X162259000Y-114910000D02*
X162259000Y-109900000D01*
X162259000Y-122800000D02*
X162259000Y-117790000D01*
X162299000Y-114910000D02*
X162299000Y-109870000D01*
X162299000Y-122830000D02*
X162299000Y-117790000D01*
X162339000Y-114910000D02*
X162339000Y-109840000D01*
X162339000Y-122860000D02*
X162339000Y-117790000D01*
X162379000Y-114910000D02*
X162379000Y-109811000D01*
X162379000Y-122889000D02*
X162379000Y-117790000D01*
X162419000Y-114910000D02*
X162419000Y-109782000D01*
X162419000Y-122918000D02*
X162419000Y-117790000D01*
X162459000Y-114910000D02*
X162459000Y-109754000D01*
X162459000Y-122946000D02*
X162459000Y-117790000D01*
X162499000Y-114910000D02*
X162499000Y-109726000D01*
X162499000Y-122974000D02*
X162499000Y-117790000D01*
X162539000Y-114910000D02*
X162539000Y-109698000D01*
X162539000Y-123002000D02*
X162539000Y-117790000D01*
X162579000Y-114910000D02*
X162579000Y-109671000D01*
X162579000Y-123029000D02*
X162579000Y-117790000D01*
X162619000Y-114910000D02*
X162619000Y-109644000D01*
X162619000Y-123056000D02*
X162619000Y-117790000D01*
X162659000Y-114910000D02*
X162659000Y-109617000D01*
X162659000Y-123083000D02*
X162659000Y-117790000D01*
X162699000Y-114910000D02*
X162699000Y-109591000D01*
X162699000Y-123109000D02*
X162699000Y-117790000D01*
X162739000Y-114910000D02*
X162739000Y-109565000D01*
X162739000Y-123135000D02*
X162739000Y-117790000D01*
X162779000Y-114910000D02*
X162779000Y-109539000D01*
X162779000Y-123161000D02*
X162779000Y-117790000D01*
X162819000Y-114910000D02*
X162819000Y-109514000D01*
X162819000Y-123186000D02*
X162819000Y-117790000D01*
X162859000Y-114910000D02*
X162859000Y-109489000D01*
X162859000Y-123211000D02*
X162859000Y-117790000D01*
X162899000Y-114910000D02*
X162899000Y-109464000D01*
X162899000Y-123236000D02*
X162899000Y-117790000D01*
X162939000Y-114910000D02*
X162939000Y-109440000D01*
X162939000Y-123260000D02*
X162939000Y-117790000D01*
X162979000Y-114910000D02*
X162979000Y-109416000D01*
X162979000Y-123284000D02*
X162979000Y-117790000D01*
X163019000Y-114910000D02*
X163019000Y-109392000D01*
X163019000Y-123308000D02*
X163019000Y-117790000D01*
X163059000Y-114910000D02*
X163059000Y-109369000D01*
X163059000Y-123331000D02*
X163059000Y-117790000D01*
X163099000Y-114910000D02*
X163099000Y-109346000D01*
X163099000Y-123354000D02*
X163099000Y-117790000D01*
X163139000Y-114910000D02*
X163139000Y-109323000D01*
X163139000Y-123377000D02*
X163139000Y-117790000D01*
X163179000Y-114910000D02*
X163179000Y-109301000D01*
X163179000Y-123399000D02*
X163179000Y-117790000D01*
X163219000Y-114910000D02*
X163219000Y-109278000D01*
X163219000Y-123422000D02*
X163219000Y-117790000D01*
X163259000Y-114910000D02*
X163259000Y-109256000D01*
X163259000Y-123444000D02*
X163259000Y-117790000D01*
X163299000Y-114910000D02*
X163299000Y-109235000D01*
X163299000Y-123465000D02*
X163299000Y-117790000D01*
X163339000Y-114910000D02*
X163339000Y-109214000D01*
X163339000Y-123486000D02*
X163339000Y-117790000D01*
X163379000Y-114910000D02*
X163379000Y-109193000D01*
X163379000Y-123507000D02*
X163379000Y-117790000D01*
X163419000Y-114910000D02*
X163419000Y-109172000D01*
X163419000Y-123528000D02*
X163419000Y-117790000D01*
X163459000Y-114910000D02*
X163459000Y-109151000D01*
X163459000Y-123549000D02*
X163459000Y-117790000D01*
X163499000Y-114910000D02*
X163499000Y-109131000D01*
X163499000Y-123569000D02*
X163499000Y-117790000D01*
X163539000Y-114910000D02*
X163539000Y-109111000D01*
X163539000Y-123589000D02*
X163539000Y-117790000D01*
X163579000Y-114910000D02*
X163579000Y-109092000D01*
X163579000Y-123608000D02*
X163579000Y-117790000D01*
X163619000Y-114910000D02*
X163619000Y-109072000D01*
X163619000Y-123628000D02*
X163619000Y-117790000D01*
X163659000Y-114910000D02*
X163659000Y-109053000D01*
X163659000Y-123647000D02*
X163659000Y-117790000D01*
X163699000Y-114910000D02*
X163699000Y-109034000D01*
X163699000Y-123666000D02*
X163699000Y-117790000D01*
X163739000Y-114910000D02*
X163739000Y-109016000D01*
X163739000Y-123684000D02*
X163739000Y-117790000D01*
X163779000Y-114910000D02*
X163779000Y-108997000D01*
X163779000Y-123703000D02*
X163779000Y-117790000D01*
X163819000Y-114910000D02*
X163819000Y-108979000D01*
X163819000Y-123721000D02*
X163819000Y-117790000D01*
X163859000Y-114910000D02*
X163859000Y-108961000D01*
X163859000Y-123739000D02*
X163859000Y-117790000D01*
X163899000Y-114910000D02*
X163899000Y-108944000D01*
X163899000Y-123756000D02*
X163899000Y-117790000D01*
X163939000Y-114910000D02*
X163939000Y-108927000D01*
X163939000Y-123773000D02*
X163939000Y-117790000D01*
X163979000Y-114910000D02*
X163979000Y-108910000D01*
X163979000Y-123790000D02*
X163979000Y-117790000D01*
X164019000Y-114910000D02*
X164019000Y-108893000D01*
X164019000Y-123807000D02*
X164019000Y-117790000D01*
X164059000Y-114910000D02*
X164059000Y-108876000D01*
X164059000Y-123824000D02*
X164059000Y-117790000D01*
X164099000Y-114910000D02*
X164099000Y-108860000D01*
X164099000Y-123840000D02*
X164099000Y-117790000D01*
X164139000Y-114910000D02*
X164139000Y-108844000D01*
X164139000Y-123856000D02*
X164139000Y-117790000D01*
X164179000Y-114910000D02*
X164179000Y-108828000D01*
X164179000Y-123872000D02*
X164179000Y-117790000D01*
X164219000Y-114910000D02*
X164219000Y-108813000D01*
X164219000Y-123887000D02*
X164219000Y-117790000D01*
X164259000Y-114910000D02*
X164259000Y-108797000D01*
X164259000Y-123903000D02*
X164259000Y-117790000D01*
X164299000Y-114910000D02*
X164299000Y-108782000D01*
X164299000Y-123918000D02*
X164299000Y-117790000D01*
X164339000Y-114910000D02*
X164339000Y-108768000D01*
X164339000Y-123932000D02*
X164339000Y-117790000D01*
X164379000Y-114910000D02*
X164379000Y-108753000D01*
X164379000Y-123947000D02*
X164379000Y-117790000D01*
X164419000Y-114910000D02*
X164419000Y-108739000D01*
X164419000Y-123961000D02*
X164419000Y-117790000D01*
X164459000Y-114910000D02*
X164459000Y-108725000D01*
X164459000Y-123975000D02*
X164459000Y-117790000D01*
X164499000Y-114910000D02*
X164499000Y-108711000D01*
X164499000Y-123989000D02*
X164499000Y-117790000D01*
X164539000Y-114910000D02*
X164539000Y-108697000D01*
X164539000Y-124003000D02*
X164539000Y-117790000D01*
X164579000Y-114910000D02*
X164579000Y-108684000D01*
X164579000Y-124016000D02*
X164579000Y-117790000D01*
X164619000Y-114910000D02*
X164619000Y-108670000D01*
X164619000Y-124030000D02*
X164619000Y-117790000D01*
X164659000Y-114910000D02*
X164659000Y-108657000D01*
X164659000Y-124043000D02*
X164659000Y-117790000D01*
X164699000Y-114910000D02*
X164699000Y-108645000D01*
X164699000Y-124055000D02*
X164699000Y-117790000D01*
X164739000Y-114910000D02*
X164739000Y-108632000D01*
X164739000Y-124068000D02*
X164739000Y-117790000D01*
X164779000Y-114910000D02*
X164779000Y-108620000D01*
X164779000Y-124080000D02*
X164779000Y-117790000D01*
X164819000Y-114910000D02*
X164819000Y-108608000D01*
X164819000Y-124092000D02*
X164819000Y-117790000D01*
X164859000Y-124104000D02*
X164859000Y-108596000D01*
X164899000Y-124115000D02*
X164899000Y-108585000D01*
X164939000Y-124127000D02*
X164939000Y-108573000D01*
X164979000Y-124138000D02*
X164979000Y-108562000D01*
X165019000Y-124149000D02*
X165019000Y-108551000D01*
X165059000Y-124160000D02*
X165059000Y-108540000D01*
X165099000Y-124170000D02*
X165099000Y-108530000D01*
X165139000Y-124180000D02*
X165139000Y-108520000D01*
X165179000Y-124190000D02*
X165179000Y-108510000D01*
X165219000Y-124200000D02*
X165219000Y-108500000D01*
X165259000Y-124210000D02*
X165259000Y-108490000D01*
X165299000Y-124219000D02*
X165299000Y-108481000D01*
X165339000Y-124228000D02*
X165339000Y-108472000D01*
X165379000Y-124237000D02*
X165379000Y-108463000D01*
X165419000Y-124246000D02*
X165419000Y-108454000D01*
X165459000Y-124255000D02*
X165459000Y-108445000D01*
X165499000Y-124263000D02*
X165499000Y-108437000D01*
X165539000Y-124271000D02*
X165539000Y-108429000D01*
X165579000Y-124279000D02*
X165579000Y-108421000D01*
X165619000Y-124287000D02*
X165619000Y-108413000D01*
X165659000Y-124294000D02*
X165659000Y-108406000D01*
X165699000Y-124302000D02*
X165699000Y-108398000D01*
X165739000Y-124309000D02*
X165739000Y-108391000D01*
X165779000Y-124316000D02*
X165779000Y-108384000D01*
X165819000Y-124322000D02*
X165819000Y-108378000D01*
X165859000Y-124329000D02*
X165859000Y-108371000D01*
X165899000Y-124335000D02*
X165899000Y-108365000D01*
X165939000Y-124341000D02*
X165939000Y-108359000D01*
X165979000Y-124347000D02*
X165979000Y-108353000D01*
X166019000Y-124353000D02*
X166019000Y-108347000D01*
X166059000Y-124358000D02*
X166059000Y-108342000D01*
X166099000Y-124364000D02*
X166099000Y-108336000D01*
X166139000Y-124369000D02*
X166139000Y-108331000D01*
X166179000Y-124374000D02*
X166179000Y-108326000D01*
X166219000Y-124378000D02*
X166219000Y-108322000D01*
X166259000Y-124383000D02*
X166259000Y-108317000D01*
X166299000Y-124387000D02*
X166299000Y-108313000D01*
X166339000Y-124391000D02*
X166339000Y-108309000D01*
X166379000Y-124395000D02*
X166379000Y-108305000D01*
X166419000Y-124399000D02*
X166419000Y-108301000D01*
X166460000Y-124402000D02*
X166460000Y-108298000D01*
X166500000Y-124405000D02*
X166500000Y-108295000D01*
X166540000Y-124408000D02*
X166540000Y-108292000D01*
X166580000Y-124411000D02*
X166580000Y-108289000D01*
X166620000Y-124414000D02*
X166620000Y-108286000D01*
X166660000Y-124416000D02*
X166660000Y-108284000D01*
X166700000Y-124419000D02*
X166700000Y-108281000D01*
X166740000Y-124421000D02*
X166740000Y-108279000D01*
X166780000Y-124423000D02*
X166780000Y-108277000D01*
X166820000Y-124424000D02*
X166820000Y-108276000D01*
X166860000Y-124426000D02*
X166860000Y-108274000D01*
X166900000Y-124427000D02*
X166900000Y-108273000D01*
X166940000Y-124428000D02*
X166940000Y-108272000D01*
X166980000Y-124429000D02*
X166980000Y-108271000D01*
X167020000Y-124430000D02*
X167020000Y-108270000D01*
X167060000Y-124430000D02*
X167060000Y-108270000D01*
X167100000Y-124430000D02*
X167100000Y-108270000D01*
X167140000Y-124431000D02*
X167140000Y-108269000D01*
X175260000Y-116350000D02*
G75*
G03X175260000Y-116350000I-8120000J0D01*
G01*
G04 #@! TO.C,C2*
X157929491Y-121605000D02*
X157929491Y-120005000D01*
X158729491Y-120805000D02*
X157129491Y-120805000D01*
X141959000Y-117015000D02*
X141959000Y-115485000D01*
X141999000Y-117348000D02*
X141999000Y-115152000D01*
X142039000Y-117601000D02*
X142039000Y-114899000D01*
X142079000Y-117814000D02*
X142079000Y-114686000D01*
X142119000Y-118002000D02*
X142119000Y-114498000D01*
X142159000Y-118170000D02*
X142159000Y-114330000D01*
X142199000Y-118324000D02*
X142199000Y-114176000D01*
X142239000Y-118468000D02*
X142239000Y-114032000D01*
X142279000Y-118601000D02*
X142279000Y-113899000D01*
X142319000Y-118728000D02*
X142319000Y-113772000D01*
X142359000Y-118847000D02*
X142359000Y-113653000D01*
X142399000Y-118961000D02*
X142399000Y-113539000D01*
X142439000Y-119070000D02*
X142439000Y-113430000D01*
X142479000Y-119174000D02*
X142479000Y-113326000D01*
X142519000Y-119274000D02*
X142519000Y-113226000D01*
X142559000Y-119370000D02*
X142559000Y-113130000D01*
X142599000Y-119463000D02*
X142599000Y-113037000D01*
X142639000Y-119553000D02*
X142639000Y-112947000D01*
X142679000Y-119640000D02*
X142679000Y-112860000D01*
X142719000Y-119725000D02*
X142719000Y-112775000D01*
X142759000Y-119807000D02*
X142759000Y-112693000D01*
X142799000Y-119887000D02*
X142799000Y-112613000D01*
X142839000Y-119965000D02*
X142839000Y-112535000D01*
X142879000Y-120040000D02*
X142879000Y-112460000D01*
X142919000Y-120114000D02*
X142919000Y-112386000D01*
X142959000Y-120186000D02*
X142959000Y-112314000D01*
X142999000Y-120257000D02*
X142999000Y-112243000D01*
X143039000Y-120326000D02*
X143039000Y-112174000D01*
X143079000Y-120393000D02*
X143079000Y-112107000D01*
X143119000Y-120459000D02*
X143119000Y-112041000D01*
X143159000Y-120523000D02*
X143159000Y-111977000D01*
X143199000Y-120586000D02*
X143199000Y-111914000D01*
X143239000Y-120648000D02*
X143239000Y-111852000D01*
X143279000Y-120709000D02*
X143279000Y-111791000D01*
X143319000Y-120769000D02*
X143319000Y-111731000D01*
X143359000Y-120827000D02*
X143359000Y-111673000D01*
X143399000Y-120884000D02*
X143399000Y-111616000D01*
X143439000Y-120941000D02*
X143439000Y-111559000D01*
X143479000Y-120996000D02*
X143479000Y-111504000D01*
X143519000Y-121050000D02*
X143519000Y-111450000D01*
X143559000Y-121104000D02*
X143559000Y-111396000D01*
X143599000Y-121156000D02*
X143599000Y-111344000D01*
X143639000Y-121208000D02*
X143639000Y-111292000D01*
X143679000Y-121259000D02*
X143679000Y-111241000D01*
X143719000Y-121309000D02*
X143719000Y-111191000D01*
X143759000Y-121358000D02*
X143759000Y-111142000D01*
X143799000Y-121406000D02*
X143799000Y-111094000D01*
X143839000Y-121454000D02*
X143839000Y-111046000D01*
X143879000Y-121501000D02*
X143879000Y-110999000D01*
X143919000Y-121547000D02*
X143919000Y-110953000D01*
X143959000Y-121593000D02*
X143959000Y-110907000D01*
X143999000Y-121638000D02*
X143999000Y-110862000D01*
X144039000Y-121682000D02*
X144039000Y-110818000D01*
X144079000Y-121725000D02*
X144079000Y-110775000D01*
X144119000Y-121768000D02*
X144119000Y-110732000D01*
X144159000Y-121810000D02*
X144159000Y-110690000D01*
X144199000Y-121852000D02*
X144199000Y-110648000D01*
X144239000Y-121893000D02*
X144239000Y-110607000D01*
X144279000Y-121934000D02*
X144279000Y-110566000D01*
X144319000Y-121974000D02*
X144319000Y-110526000D01*
X144359000Y-122013000D02*
X144359000Y-110487000D01*
X144399000Y-122052000D02*
X144399000Y-110448000D01*
X144439000Y-122090000D02*
X144439000Y-110410000D01*
X144479000Y-122128000D02*
X144479000Y-110372000D01*
X144519000Y-122166000D02*
X144519000Y-110334000D01*
X144559000Y-122202000D02*
X144559000Y-110298000D01*
X144599000Y-122239000D02*
X144599000Y-110261000D01*
X144639000Y-122275000D02*
X144639000Y-110225000D01*
X144679000Y-122310000D02*
X144679000Y-110190000D01*
X144719000Y-122345000D02*
X144719000Y-110155000D01*
X144759000Y-122379000D02*
X144759000Y-110121000D01*
X144799000Y-122413000D02*
X144799000Y-110087000D01*
X144839000Y-122447000D02*
X144839000Y-110053000D01*
X144879000Y-114810000D02*
X144879000Y-110020000D01*
X144879000Y-122480000D02*
X144879000Y-117690000D01*
X144919000Y-114810000D02*
X144919000Y-109987000D01*
X144919000Y-122513000D02*
X144919000Y-117690000D01*
X144959000Y-114810000D02*
X144959000Y-109955000D01*
X144959000Y-122545000D02*
X144959000Y-117690000D01*
X144999000Y-114810000D02*
X144999000Y-109923000D01*
X144999000Y-122577000D02*
X144999000Y-117690000D01*
X145039000Y-114810000D02*
X145039000Y-109892000D01*
X145039000Y-122608000D02*
X145039000Y-117690000D01*
X145079000Y-114810000D02*
X145079000Y-109860000D01*
X145079000Y-122640000D02*
X145079000Y-117690000D01*
X145119000Y-114810000D02*
X145119000Y-109830000D01*
X145119000Y-122670000D02*
X145119000Y-117690000D01*
X145159000Y-114810000D02*
X145159000Y-109800000D01*
X145159000Y-122700000D02*
X145159000Y-117690000D01*
X145199000Y-114810000D02*
X145199000Y-109770000D01*
X145199000Y-122730000D02*
X145199000Y-117690000D01*
X145239000Y-114810000D02*
X145239000Y-109740000D01*
X145239000Y-122760000D02*
X145239000Y-117690000D01*
X145279000Y-114810000D02*
X145279000Y-109711000D01*
X145279000Y-122789000D02*
X145279000Y-117690000D01*
X145319000Y-114810000D02*
X145319000Y-109682000D01*
X145319000Y-122818000D02*
X145319000Y-117690000D01*
X145359000Y-114810000D02*
X145359000Y-109654000D01*
X145359000Y-122846000D02*
X145359000Y-117690000D01*
X145399000Y-114810000D02*
X145399000Y-109626000D01*
X145399000Y-122874000D02*
X145399000Y-117690000D01*
X145439000Y-114810000D02*
X145439000Y-109598000D01*
X145439000Y-122902000D02*
X145439000Y-117690000D01*
X145479000Y-114810000D02*
X145479000Y-109571000D01*
X145479000Y-122929000D02*
X145479000Y-117690000D01*
X145519000Y-114810000D02*
X145519000Y-109544000D01*
X145519000Y-122956000D02*
X145519000Y-117690000D01*
X145559000Y-114810000D02*
X145559000Y-109517000D01*
X145559000Y-122983000D02*
X145559000Y-117690000D01*
X145599000Y-114810000D02*
X145599000Y-109491000D01*
X145599000Y-123009000D02*
X145599000Y-117690000D01*
X145639000Y-114810000D02*
X145639000Y-109465000D01*
X145639000Y-123035000D02*
X145639000Y-117690000D01*
X145679000Y-114810000D02*
X145679000Y-109439000D01*
X145679000Y-123061000D02*
X145679000Y-117690000D01*
X145719000Y-114810000D02*
X145719000Y-109414000D01*
X145719000Y-123086000D02*
X145719000Y-117690000D01*
X145759000Y-114810000D02*
X145759000Y-109389000D01*
X145759000Y-123111000D02*
X145759000Y-117690000D01*
X145799000Y-114810000D02*
X145799000Y-109364000D01*
X145799000Y-123136000D02*
X145799000Y-117690000D01*
X145839000Y-114810000D02*
X145839000Y-109340000D01*
X145839000Y-123160000D02*
X145839000Y-117690000D01*
X145879000Y-114810000D02*
X145879000Y-109316000D01*
X145879000Y-123184000D02*
X145879000Y-117690000D01*
X145919000Y-114810000D02*
X145919000Y-109292000D01*
X145919000Y-123208000D02*
X145919000Y-117690000D01*
X145959000Y-114810000D02*
X145959000Y-109269000D01*
X145959000Y-123231000D02*
X145959000Y-117690000D01*
X145999000Y-114810000D02*
X145999000Y-109246000D01*
X145999000Y-123254000D02*
X145999000Y-117690000D01*
X146039000Y-114810000D02*
X146039000Y-109223000D01*
X146039000Y-123277000D02*
X146039000Y-117690000D01*
X146079000Y-114810000D02*
X146079000Y-109201000D01*
X146079000Y-123299000D02*
X146079000Y-117690000D01*
X146119000Y-114810000D02*
X146119000Y-109178000D01*
X146119000Y-123322000D02*
X146119000Y-117690000D01*
X146159000Y-114810000D02*
X146159000Y-109156000D01*
X146159000Y-123344000D02*
X146159000Y-117690000D01*
X146199000Y-114810000D02*
X146199000Y-109135000D01*
X146199000Y-123365000D02*
X146199000Y-117690000D01*
X146239000Y-114810000D02*
X146239000Y-109114000D01*
X146239000Y-123386000D02*
X146239000Y-117690000D01*
X146279000Y-114810000D02*
X146279000Y-109093000D01*
X146279000Y-123407000D02*
X146279000Y-117690000D01*
X146319000Y-114810000D02*
X146319000Y-109072000D01*
X146319000Y-123428000D02*
X146319000Y-117690000D01*
X146359000Y-114810000D02*
X146359000Y-109051000D01*
X146359000Y-123449000D02*
X146359000Y-117690000D01*
X146399000Y-114810000D02*
X146399000Y-109031000D01*
X146399000Y-123469000D02*
X146399000Y-117690000D01*
X146439000Y-114810000D02*
X146439000Y-109011000D01*
X146439000Y-123489000D02*
X146439000Y-117690000D01*
X146479000Y-114810000D02*
X146479000Y-108992000D01*
X146479000Y-123508000D02*
X146479000Y-117690000D01*
X146519000Y-114810000D02*
X146519000Y-108972000D01*
X146519000Y-123528000D02*
X146519000Y-117690000D01*
X146559000Y-114810000D02*
X146559000Y-108953000D01*
X146559000Y-123547000D02*
X146559000Y-117690000D01*
X146599000Y-114810000D02*
X146599000Y-108934000D01*
X146599000Y-123566000D02*
X146599000Y-117690000D01*
X146639000Y-114810000D02*
X146639000Y-108916000D01*
X146639000Y-123584000D02*
X146639000Y-117690000D01*
X146679000Y-114810000D02*
X146679000Y-108897000D01*
X146679000Y-123603000D02*
X146679000Y-117690000D01*
X146719000Y-114810000D02*
X146719000Y-108879000D01*
X146719000Y-123621000D02*
X146719000Y-117690000D01*
X146759000Y-114810000D02*
X146759000Y-108861000D01*
X146759000Y-123639000D02*
X146759000Y-117690000D01*
X146799000Y-114810000D02*
X146799000Y-108844000D01*
X146799000Y-123656000D02*
X146799000Y-117690000D01*
X146839000Y-114810000D02*
X146839000Y-108827000D01*
X146839000Y-123673000D02*
X146839000Y-117690000D01*
X146879000Y-114810000D02*
X146879000Y-108810000D01*
X146879000Y-123690000D02*
X146879000Y-117690000D01*
X146919000Y-114810000D02*
X146919000Y-108793000D01*
X146919000Y-123707000D02*
X146919000Y-117690000D01*
X146959000Y-114810000D02*
X146959000Y-108776000D01*
X146959000Y-123724000D02*
X146959000Y-117690000D01*
X146999000Y-114810000D02*
X146999000Y-108760000D01*
X146999000Y-123740000D02*
X146999000Y-117690000D01*
X147039000Y-114810000D02*
X147039000Y-108744000D01*
X147039000Y-123756000D02*
X147039000Y-117690000D01*
X147079000Y-114810000D02*
X147079000Y-108728000D01*
X147079000Y-123772000D02*
X147079000Y-117690000D01*
X147119000Y-114810000D02*
X147119000Y-108713000D01*
X147119000Y-123787000D02*
X147119000Y-117690000D01*
X147159000Y-114810000D02*
X147159000Y-108697000D01*
X147159000Y-123803000D02*
X147159000Y-117690000D01*
X147199000Y-114810000D02*
X147199000Y-108682000D01*
X147199000Y-123818000D02*
X147199000Y-117690000D01*
X147239000Y-114810000D02*
X147239000Y-108668000D01*
X147239000Y-123832000D02*
X147239000Y-117690000D01*
X147279000Y-114810000D02*
X147279000Y-108653000D01*
X147279000Y-123847000D02*
X147279000Y-117690000D01*
X147319000Y-114810000D02*
X147319000Y-108639000D01*
X147319000Y-123861000D02*
X147319000Y-117690000D01*
X147359000Y-114810000D02*
X147359000Y-108625000D01*
X147359000Y-123875000D02*
X147359000Y-117690000D01*
X147399000Y-114810000D02*
X147399000Y-108611000D01*
X147399000Y-123889000D02*
X147399000Y-117690000D01*
X147439000Y-114810000D02*
X147439000Y-108597000D01*
X147439000Y-123903000D02*
X147439000Y-117690000D01*
X147479000Y-114810000D02*
X147479000Y-108584000D01*
X147479000Y-123916000D02*
X147479000Y-117690000D01*
X147519000Y-114810000D02*
X147519000Y-108570000D01*
X147519000Y-123930000D02*
X147519000Y-117690000D01*
X147559000Y-114810000D02*
X147559000Y-108557000D01*
X147559000Y-123943000D02*
X147559000Y-117690000D01*
X147599000Y-114810000D02*
X147599000Y-108545000D01*
X147599000Y-123955000D02*
X147599000Y-117690000D01*
X147639000Y-114810000D02*
X147639000Y-108532000D01*
X147639000Y-123968000D02*
X147639000Y-117690000D01*
X147679000Y-114810000D02*
X147679000Y-108520000D01*
X147679000Y-123980000D02*
X147679000Y-117690000D01*
X147719000Y-114810000D02*
X147719000Y-108508000D01*
X147719000Y-123992000D02*
X147719000Y-117690000D01*
X147759000Y-124004000D02*
X147759000Y-108496000D01*
X147799000Y-124015000D02*
X147799000Y-108485000D01*
X147839000Y-124027000D02*
X147839000Y-108473000D01*
X147879000Y-124038000D02*
X147879000Y-108462000D01*
X147919000Y-124049000D02*
X147919000Y-108451000D01*
X147959000Y-124060000D02*
X147959000Y-108440000D01*
X147999000Y-124070000D02*
X147999000Y-108430000D01*
X148039000Y-124080000D02*
X148039000Y-108420000D01*
X148079000Y-124090000D02*
X148079000Y-108410000D01*
X148119000Y-124100000D02*
X148119000Y-108400000D01*
X148159000Y-124110000D02*
X148159000Y-108390000D01*
X148199000Y-124119000D02*
X148199000Y-108381000D01*
X148239000Y-124128000D02*
X148239000Y-108372000D01*
X148279000Y-124137000D02*
X148279000Y-108363000D01*
X148319000Y-124146000D02*
X148319000Y-108354000D01*
X148359000Y-124155000D02*
X148359000Y-108345000D01*
X148399000Y-124163000D02*
X148399000Y-108337000D01*
X148439000Y-124171000D02*
X148439000Y-108329000D01*
X148479000Y-124179000D02*
X148479000Y-108321000D01*
X148519000Y-124187000D02*
X148519000Y-108313000D01*
X148559000Y-124194000D02*
X148559000Y-108306000D01*
X148599000Y-124202000D02*
X148599000Y-108298000D01*
X148639000Y-124209000D02*
X148639000Y-108291000D01*
X148679000Y-124216000D02*
X148679000Y-108284000D01*
X148719000Y-124222000D02*
X148719000Y-108278000D01*
X148759000Y-124229000D02*
X148759000Y-108271000D01*
X148799000Y-124235000D02*
X148799000Y-108265000D01*
X148839000Y-124241000D02*
X148839000Y-108259000D01*
X148879000Y-124247000D02*
X148879000Y-108253000D01*
X148919000Y-124253000D02*
X148919000Y-108247000D01*
X148959000Y-124258000D02*
X148959000Y-108242000D01*
X148999000Y-124264000D02*
X148999000Y-108236000D01*
X149039000Y-124269000D02*
X149039000Y-108231000D01*
X149079000Y-124274000D02*
X149079000Y-108226000D01*
X149119000Y-124278000D02*
X149119000Y-108222000D01*
X149159000Y-124283000D02*
X149159000Y-108217000D01*
X149199000Y-124287000D02*
X149199000Y-108213000D01*
X149239000Y-124291000D02*
X149239000Y-108209000D01*
X149279000Y-124295000D02*
X149279000Y-108205000D01*
X149319000Y-124299000D02*
X149319000Y-108201000D01*
X149360000Y-124302000D02*
X149360000Y-108198000D01*
X149400000Y-124305000D02*
X149400000Y-108195000D01*
X149440000Y-124308000D02*
X149440000Y-108192000D01*
X149480000Y-124311000D02*
X149480000Y-108189000D01*
X149520000Y-124314000D02*
X149520000Y-108186000D01*
X149560000Y-124316000D02*
X149560000Y-108184000D01*
X149600000Y-124319000D02*
X149600000Y-108181000D01*
X149640000Y-124321000D02*
X149640000Y-108179000D01*
X149680000Y-124323000D02*
X149680000Y-108177000D01*
X149720000Y-124324000D02*
X149720000Y-108176000D01*
X149760000Y-124326000D02*
X149760000Y-108174000D01*
X149800000Y-124327000D02*
X149800000Y-108173000D01*
X149840000Y-124328000D02*
X149840000Y-108172000D01*
X149880000Y-124329000D02*
X149880000Y-108171000D01*
X149920000Y-124330000D02*
X149920000Y-108170000D01*
X149960000Y-124330000D02*
X149960000Y-108170000D01*
X150000000Y-124330000D02*
X150000000Y-108170000D01*
X150040000Y-124331000D02*
X150040000Y-108169000D01*
X158160000Y-116250000D02*
G75*
G03X158160000Y-116250000I-8120000J0D01*
G01*
G04 #@! TO.C,C1*
X140929491Y-121605000D02*
X140929491Y-120005000D01*
X141729491Y-120805000D02*
X140129491Y-120805000D01*
X124959000Y-117015000D02*
X124959000Y-115485000D01*
X124999000Y-117348000D02*
X124999000Y-115152000D01*
X125039000Y-117601000D02*
X125039000Y-114899000D01*
X125079000Y-117814000D02*
X125079000Y-114686000D01*
X125119000Y-118002000D02*
X125119000Y-114498000D01*
X125159000Y-118170000D02*
X125159000Y-114330000D01*
X125199000Y-118324000D02*
X125199000Y-114176000D01*
X125239000Y-118468000D02*
X125239000Y-114032000D01*
X125279000Y-118601000D02*
X125279000Y-113899000D01*
X125319000Y-118728000D02*
X125319000Y-113772000D01*
X125359000Y-118847000D02*
X125359000Y-113653000D01*
X125399000Y-118961000D02*
X125399000Y-113539000D01*
X125439000Y-119070000D02*
X125439000Y-113430000D01*
X125479000Y-119174000D02*
X125479000Y-113326000D01*
X125519000Y-119274000D02*
X125519000Y-113226000D01*
X125559000Y-119370000D02*
X125559000Y-113130000D01*
X125599000Y-119463000D02*
X125599000Y-113037000D01*
X125639000Y-119553000D02*
X125639000Y-112947000D01*
X125679000Y-119640000D02*
X125679000Y-112860000D01*
X125719000Y-119725000D02*
X125719000Y-112775000D01*
X125759000Y-119807000D02*
X125759000Y-112693000D01*
X125799000Y-119887000D02*
X125799000Y-112613000D01*
X125839000Y-119965000D02*
X125839000Y-112535000D01*
X125879000Y-120040000D02*
X125879000Y-112460000D01*
X125919000Y-120114000D02*
X125919000Y-112386000D01*
X125959000Y-120186000D02*
X125959000Y-112314000D01*
X125999000Y-120257000D02*
X125999000Y-112243000D01*
X126039000Y-120326000D02*
X126039000Y-112174000D01*
X126079000Y-120393000D02*
X126079000Y-112107000D01*
X126119000Y-120459000D02*
X126119000Y-112041000D01*
X126159000Y-120523000D02*
X126159000Y-111977000D01*
X126199000Y-120586000D02*
X126199000Y-111914000D01*
X126239000Y-120648000D02*
X126239000Y-111852000D01*
X126279000Y-120709000D02*
X126279000Y-111791000D01*
X126319000Y-120769000D02*
X126319000Y-111731000D01*
X126359000Y-120827000D02*
X126359000Y-111673000D01*
X126399000Y-120884000D02*
X126399000Y-111616000D01*
X126439000Y-120941000D02*
X126439000Y-111559000D01*
X126479000Y-120996000D02*
X126479000Y-111504000D01*
X126519000Y-121050000D02*
X126519000Y-111450000D01*
X126559000Y-121104000D02*
X126559000Y-111396000D01*
X126599000Y-121156000D02*
X126599000Y-111344000D01*
X126639000Y-121208000D02*
X126639000Y-111292000D01*
X126679000Y-121259000D02*
X126679000Y-111241000D01*
X126719000Y-121309000D02*
X126719000Y-111191000D01*
X126759000Y-121358000D02*
X126759000Y-111142000D01*
X126799000Y-121406000D02*
X126799000Y-111094000D01*
X126839000Y-121454000D02*
X126839000Y-111046000D01*
X126879000Y-121501000D02*
X126879000Y-110999000D01*
X126919000Y-121547000D02*
X126919000Y-110953000D01*
X126959000Y-121593000D02*
X126959000Y-110907000D01*
X126999000Y-121638000D02*
X126999000Y-110862000D01*
X127039000Y-121682000D02*
X127039000Y-110818000D01*
X127079000Y-121725000D02*
X127079000Y-110775000D01*
X127119000Y-121768000D02*
X127119000Y-110732000D01*
X127159000Y-121810000D02*
X127159000Y-110690000D01*
X127199000Y-121852000D02*
X127199000Y-110648000D01*
X127239000Y-121893000D02*
X127239000Y-110607000D01*
X127279000Y-121934000D02*
X127279000Y-110566000D01*
X127319000Y-121974000D02*
X127319000Y-110526000D01*
X127359000Y-122013000D02*
X127359000Y-110487000D01*
X127399000Y-122052000D02*
X127399000Y-110448000D01*
X127439000Y-122090000D02*
X127439000Y-110410000D01*
X127479000Y-122128000D02*
X127479000Y-110372000D01*
X127519000Y-122166000D02*
X127519000Y-110334000D01*
X127559000Y-122202000D02*
X127559000Y-110298000D01*
X127599000Y-122239000D02*
X127599000Y-110261000D01*
X127639000Y-122275000D02*
X127639000Y-110225000D01*
X127679000Y-122310000D02*
X127679000Y-110190000D01*
X127719000Y-122345000D02*
X127719000Y-110155000D01*
X127759000Y-122379000D02*
X127759000Y-110121000D01*
X127799000Y-122413000D02*
X127799000Y-110087000D01*
X127839000Y-122447000D02*
X127839000Y-110053000D01*
X127879000Y-114810000D02*
X127879000Y-110020000D01*
X127879000Y-122480000D02*
X127879000Y-117690000D01*
X127919000Y-114810000D02*
X127919000Y-109987000D01*
X127919000Y-122513000D02*
X127919000Y-117690000D01*
X127959000Y-114810000D02*
X127959000Y-109955000D01*
X127959000Y-122545000D02*
X127959000Y-117690000D01*
X127999000Y-114810000D02*
X127999000Y-109923000D01*
X127999000Y-122577000D02*
X127999000Y-117690000D01*
X128039000Y-114810000D02*
X128039000Y-109892000D01*
X128039000Y-122608000D02*
X128039000Y-117690000D01*
X128079000Y-114810000D02*
X128079000Y-109860000D01*
X128079000Y-122640000D02*
X128079000Y-117690000D01*
X128119000Y-114810000D02*
X128119000Y-109830000D01*
X128119000Y-122670000D02*
X128119000Y-117690000D01*
X128159000Y-114810000D02*
X128159000Y-109800000D01*
X128159000Y-122700000D02*
X128159000Y-117690000D01*
X128199000Y-114810000D02*
X128199000Y-109770000D01*
X128199000Y-122730000D02*
X128199000Y-117690000D01*
X128239000Y-114810000D02*
X128239000Y-109740000D01*
X128239000Y-122760000D02*
X128239000Y-117690000D01*
X128279000Y-114810000D02*
X128279000Y-109711000D01*
X128279000Y-122789000D02*
X128279000Y-117690000D01*
X128319000Y-114810000D02*
X128319000Y-109682000D01*
X128319000Y-122818000D02*
X128319000Y-117690000D01*
X128359000Y-114810000D02*
X128359000Y-109654000D01*
X128359000Y-122846000D02*
X128359000Y-117690000D01*
X128399000Y-114810000D02*
X128399000Y-109626000D01*
X128399000Y-122874000D02*
X128399000Y-117690000D01*
X128439000Y-114810000D02*
X128439000Y-109598000D01*
X128439000Y-122902000D02*
X128439000Y-117690000D01*
X128479000Y-114810000D02*
X128479000Y-109571000D01*
X128479000Y-122929000D02*
X128479000Y-117690000D01*
X128519000Y-114810000D02*
X128519000Y-109544000D01*
X128519000Y-122956000D02*
X128519000Y-117690000D01*
X128559000Y-114810000D02*
X128559000Y-109517000D01*
X128559000Y-122983000D02*
X128559000Y-117690000D01*
X128599000Y-114810000D02*
X128599000Y-109491000D01*
X128599000Y-123009000D02*
X128599000Y-117690000D01*
X128639000Y-114810000D02*
X128639000Y-109465000D01*
X128639000Y-123035000D02*
X128639000Y-117690000D01*
X128679000Y-114810000D02*
X128679000Y-109439000D01*
X128679000Y-123061000D02*
X128679000Y-117690000D01*
X128719000Y-114810000D02*
X128719000Y-109414000D01*
X128719000Y-123086000D02*
X128719000Y-117690000D01*
X128759000Y-114810000D02*
X128759000Y-109389000D01*
X128759000Y-123111000D02*
X128759000Y-117690000D01*
X128799000Y-114810000D02*
X128799000Y-109364000D01*
X128799000Y-123136000D02*
X128799000Y-117690000D01*
X128839000Y-114810000D02*
X128839000Y-109340000D01*
X128839000Y-123160000D02*
X128839000Y-117690000D01*
X128879000Y-114810000D02*
X128879000Y-109316000D01*
X128879000Y-123184000D02*
X128879000Y-117690000D01*
X128919000Y-114810000D02*
X128919000Y-109292000D01*
X128919000Y-123208000D02*
X128919000Y-117690000D01*
X128959000Y-114810000D02*
X128959000Y-109269000D01*
X128959000Y-123231000D02*
X128959000Y-117690000D01*
X128999000Y-114810000D02*
X128999000Y-109246000D01*
X128999000Y-123254000D02*
X128999000Y-117690000D01*
X129039000Y-114810000D02*
X129039000Y-109223000D01*
X129039000Y-123277000D02*
X129039000Y-117690000D01*
X129079000Y-114810000D02*
X129079000Y-109201000D01*
X129079000Y-123299000D02*
X129079000Y-117690000D01*
X129119000Y-114810000D02*
X129119000Y-109178000D01*
X129119000Y-123322000D02*
X129119000Y-117690000D01*
X129159000Y-114810000D02*
X129159000Y-109156000D01*
X129159000Y-123344000D02*
X129159000Y-117690000D01*
X129199000Y-114810000D02*
X129199000Y-109135000D01*
X129199000Y-123365000D02*
X129199000Y-117690000D01*
X129239000Y-114810000D02*
X129239000Y-109114000D01*
X129239000Y-123386000D02*
X129239000Y-117690000D01*
X129279000Y-114810000D02*
X129279000Y-109093000D01*
X129279000Y-123407000D02*
X129279000Y-117690000D01*
X129319000Y-114810000D02*
X129319000Y-109072000D01*
X129319000Y-123428000D02*
X129319000Y-117690000D01*
X129359000Y-114810000D02*
X129359000Y-109051000D01*
X129359000Y-123449000D02*
X129359000Y-117690000D01*
X129399000Y-114810000D02*
X129399000Y-109031000D01*
X129399000Y-123469000D02*
X129399000Y-117690000D01*
X129439000Y-114810000D02*
X129439000Y-109011000D01*
X129439000Y-123489000D02*
X129439000Y-117690000D01*
X129479000Y-114810000D02*
X129479000Y-108992000D01*
X129479000Y-123508000D02*
X129479000Y-117690000D01*
X129519000Y-114810000D02*
X129519000Y-108972000D01*
X129519000Y-123528000D02*
X129519000Y-117690000D01*
X129559000Y-114810000D02*
X129559000Y-108953000D01*
X129559000Y-123547000D02*
X129559000Y-117690000D01*
X129599000Y-114810000D02*
X129599000Y-108934000D01*
X129599000Y-123566000D02*
X129599000Y-117690000D01*
X129639000Y-114810000D02*
X129639000Y-108916000D01*
X129639000Y-123584000D02*
X129639000Y-117690000D01*
X129679000Y-114810000D02*
X129679000Y-108897000D01*
X129679000Y-123603000D02*
X129679000Y-117690000D01*
X129719000Y-114810000D02*
X129719000Y-108879000D01*
X129719000Y-123621000D02*
X129719000Y-117690000D01*
X129759000Y-114810000D02*
X129759000Y-108861000D01*
X129759000Y-123639000D02*
X129759000Y-117690000D01*
X129799000Y-114810000D02*
X129799000Y-108844000D01*
X129799000Y-123656000D02*
X129799000Y-117690000D01*
X129839000Y-114810000D02*
X129839000Y-108827000D01*
X129839000Y-123673000D02*
X129839000Y-117690000D01*
X129879000Y-114810000D02*
X129879000Y-108810000D01*
X129879000Y-123690000D02*
X129879000Y-117690000D01*
X129919000Y-114810000D02*
X129919000Y-108793000D01*
X129919000Y-123707000D02*
X129919000Y-117690000D01*
X129959000Y-114810000D02*
X129959000Y-108776000D01*
X129959000Y-123724000D02*
X129959000Y-117690000D01*
X129999000Y-114810000D02*
X129999000Y-108760000D01*
X129999000Y-123740000D02*
X129999000Y-117690000D01*
X130039000Y-114810000D02*
X130039000Y-108744000D01*
X130039000Y-123756000D02*
X130039000Y-117690000D01*
X130079000Y-114810000D02*
X130079000Y-108728000D01*
X130079000Y-123772000D02*
X130079000Y-117690000D01*
X130119000Y-114810000D02*
X130119000Y-108713000D01*
X130119000Y-123787000D02*
X130119000Y-117690000D01*
X130159000Y-114810000D02*
X130159000Y-108697000D01*
X130159000Y-123803000D02*
X130159000Y-117690000D01*
X130199000Y-114810000D02*
X130199000Y-108682000D01*
X130199000Y-123818000D02*
X130199000Y-117690000D01*
X130239000Y-114810000D02*
X130239000Y-108668000D01*
X130239000Y-123832000D02*
X130239000Y-117690000D01*
X130279000Y-114810000D02*
X130279000Y-108653000D01*
X130279000Y-123847000D02*
X130279000Y-117690000D01*
X130319000Y-114810000D02*
X130319000Y-108639000D01*
X130319000Y-123861000D02*
X130319000Y-117690000D01*
X130359000Y-114810000D02*
X130359000Y-108625000D01*
X130359000Y-123875000D02*
X130359000Y-117690000D01*
X130399000Y-114810000D02*
X130399000Y-108611000D01*
X130399000Y-123889000D02*
X130399000Y-117690000D01*
X130439000Y-114810000D02*
X130439000Y-108597000D01*
X130439000Y-123903000D02*
X130439000Y-117690000D01*
X130479000Y-114810000D02*
X130479000Y-108584000D01*
X130479000Y-123916000D02*
X130479000Y-117690000D01*
X130519000Y-114810000D02*
X130519000Y-108570000D01*
X130519000Y-123930000D02*
X130519000Y-117690000D01*
X130559000Y-114810000D02*
X130559000Y-108557000D01*
X130559000Y-123943000D02*
X130559000Y-117690000D01*
X130599000Y-114810000D02*
X130599000Y-108545000D01*
X130599000Y-123955000D02*
X130599000Y-117690000D01*
X130639000Y-114810000D02*
X130639000Y-108532000D01*
X130639000Y-123968000D02*
X130639000Y-117690000D01*
X130679000Y-114810000D02*
X130679000Y-108520000D01*
X130679000Y-123980000D02*
X130679000Y-117690000D01*
X130719000Y-114810000D02*
X130719000Y-108508000D01*
X130719000Y-123992000D02*
X130719000Y-117690000D01*
X130759000Y-124004000D02*
X130759000Y-108496000D01*
X130799000Y-124015000D02*
X130799000Y-108485000D01*
X130839000Y-124027000D02*
X130839000Y-108473000D01*
X130879000Y-124038000D02*
X130879000Y-108462000D01*
X130919000Y-124049000D02*
X130919000Y-108451000D01*
X130959000Y-124060000D02*
X130959000Y-108440000D01*
X130999000Y-124070000D02*
X130999000Y-108430000D01*
X131039000Y-124080000D02*
X131039000Y-108420000D01*
X131079000Y-124090000D02*
X131079000Y-108410000D01*
X131119000Y-124100000D02*
X131119000Y-108400000D01*
X131159000Y-124110000D02*
X131159000Y-108390000D01*
X131199000Y-124119000D02*
X131199000Y-108381000D01*
X131239000Y-124128000D02*
X131239000Y-108372000D01*
X131279000Y-124137000D02*
X131279000Y-108363000D01*
X131319000Y-124146000D02*
X131319000Y-108354000D01*
X131359000Y-124155000D02*
X131359000Y-108345000D01*
X131399000Y-124163000D02*
X131399000Y-108337000D01*
X131439000Y-124171000D02*
X131439000Y-108329000D01*
X131479000Y-124179000D02*
X131479000Y-108321000D01*
X131519000Y-124187000D02*
X131519000Y-108313000D01*
X131559000Y-124194000D02*
X131559000Y-108306000D01*
X131599000Y-124202000D02*
X131599000Y-108298000D01*
X131639000Y-124209000D02*
X131639000Y-108291000D01*
X131679000Y-124216000D02*
X131679000Y-108284000D01*
X131719000Y-124222000D02*
X131719000Y-108278000D01*
X131759000Y-124229000D02*
X131759000Y-108271000D01*
X131799000Y-124235000D02*
X131799000Y-108265000D01*
X131839000Y-124241000D02*
X131839000Y-108259000D01*
X131879000Y-124247000D02*
X131879000Y-108253000D01*
X131919000Y-124253000D02*
X131919000Y-108247000D01*
X131959000Y-124258000D02*
X131959000Y-108242000D01*
X131999000Y-124264000D02*
X131999000Y-108236000D01*
X132039000Y-124269000D02*
X132039000Y-108231000D01*
X132079000Y-124274000D02*
X132079000Y-108226000D01*
X132119000Y-124278000D02*
X132119000Y-108222000D01*
X132159000Y-124283000D02*
X132159000Y-108217000D01*
X132199000Y-124287000D02*
X132199000Y-108213000D01*
X132239000Y-124291000D02*
X132239000Y-108209000D01*
X132279000Y-124295000D02*
X132279000Y-108205000D01*
X132319000Y-124299000D02*
X132319000Y-108201000D01*
X132360000Y-124302000D02*
X132360000Y-108198000D01*
X132400000Y-124305000D02*
X132400000Y-108195000D01*
X132440000Y-124308000D02*
X132440000Y-108192000D01*
X132480000Y-124311000D02*
X132480000Y-108189000D01*
X132520000Y-124314000D02*
X132520000Y-108186000D01*
X132560000Y-124316000D02*
X132560000Y-108184000D01*
X132600000Y-124319000D02*
X132600000Y-108181000D01*
X132640000Y-124321000D02*
X132640000Y-108179000D01*
X132680000Y-124323000D02*
X132680000Y-108177000D01*
X132720000Y-124324000D02*
X132720000Y-108176000D01*
X132760000Y-124326000D02*
X132760000Y-108174000D01*
X132800000Y-124327000D02*
X132800000Y-108173000D01*
X132840000Y-124328000D02*
X132840000Y-108172000D01*
X132880000Y-124329000D02*
X132880000Y-108171000D01*
X132920000Y-124330000D02*
X132920000Y-108170000D01*
X132960000Y-124330000D02*
X132960000Y-108170000D01*
X133000000Y-124330000D02*
X133000000Y-108170000D01*
X133040000Y-124331000D02*
X133040000Y-108169000D01*
X141160000Y-116250000D02*
G75*
G03X141160000Y-116250000I-8120000J0D01*
G01*
G04 #@! TD*
G04 #@! TO.C,AC2*
D12*
X102855714Y-108236666D02*
X103331904Y-108236666D01*
X102760476Y-108522380D02*
X103093809Y-107522380D01*
X103427142Y-108522380D01*
X104331904Y-108427142D02*
X104284285Y-108474761D01*
X104141428Y-108522380D01*
X104046190Y-108522380D01*
X103903333Y-108474761D01*
X103808095Y-108379523D01*
X103760476Y-108284285D01*
X103712857Y-108093809D01*
X103712857Y-107950952D01*
X103760476Y-107760476D01*
X103808095Y-107665238D01*
X103903333Y-107570000D01*
X104046190Y-107522380D01*
X104141428Y-107522380D01*
X104284285Y-107570000D01*
X104331904Y-107617619D01*
X104712857Y-107617619D02*
X104760476Y-107570000D01*
X104855714Y-107522380D01*
X105093809Y-107522380D01*
X105189047Y-107570000D01*
X105236666Y-107617619D01*
X105284285Y-107712857D01*
X105284285Y-107808095D01*
X105236666Y-107950952D01*
X104665238Y-108522380D01*
X105284285Y-108522380D01*
X106185714Y-108176666D02*
X106661904Y-108176666D01*
X106090476Y-108462380D02*
X106423809Y-107462380D01*
X106757142Y-108462380D01*
X107661904Y-108367142D02*
X107614285Y-108414761D01*
X107471428Y-108462380D01*
X107376190Y-108462380D01*
X107233333Y-108414761D01*
X107138095Y-108319523D01*
X107090476Y-108224285D01*
X107042857Y-108033809D01*
X107042857Y-107890952D01*
X107090476Y-107700476D01*
X107138095Y-107605238D01*
X107233333Y-107510000D01*
X107376190Y-107462380D01*
X107471428Y-107462380D01*
X107614285Y-107510000D01*
X107661904Y-107557619D01*
X108042857Y-107557619D02*
X108090476Y-107510000D01*
X108185714Y-107462380D01*
X108423809Y-107462380D01*
X108519047Y-107510000D01*
X108566666Y-107557619D01*
X108614285Y-107652857D01*
X108614285Y-107748095D01*
X108566666Y-107890952D01*
X107995238Y-108462380D01*
X108614285Y-108462380D01*
G04 #@! TO.C,R7*
X104142380Y-134166666D02*
X103666190Y-134500000D01*
X104142380Y-134738095D02*
X103142380Y-134738095D01*
X103142380Y-134357142D01*
X103190000Y-134261904D01*
X103237619Y-134214285D01*
X103332857Y-134166666D01*
X103475714Y-134166666D01*
X103570952Y-134214285D01*
X103618571Y-134261904D01*
X103666190Y-134357142D01*
X103666190Y-134738095D01*
X103142380Y-133833333D02*
X103142380Y-133166666D01*
X104142380Y-133595238D01*
G04 #@! TO.C,R6*
X108252380Y-134466666D02*
X107776190Y-134800000D01*
X108252380Y-135038095D02*
X107252380Y-135038095D01*
X107252380Y-134657142D01*
X107300000Y-134561904D01*
X107347619Y-134514285D01*
X107442857Y-134466666D01*
X107585714Y-134466666D01*
X107680952Y-134514285D01*
X107728571Y-134561904D01*
X107776190Y-134657142D01*
X107776190Y-135038095D01*
X107252380Y-133609523D02*
X107252380Y-133800000D01*
X107300000Y-133895238D01*
X107347619Y-133942857D01*
X107490476Y-134038095D01*
X107680952Y-134085714D01*
X108061904Y-134085714D01*
X108157142Y-134038095D01*
X108204761Y-133990476D01*
X108252380Y-133895238D01*
X108252380Y-133704761D01*
X108204761Y-133609523D01*
X108157142Y-133561904D01*
X108061904Y-133514285D01*
X107823809Y-133514285D01*
X107728571Y-133561904D01*
X107680952Y-133609523D01*
X107633333Y-133704761D01*
X107633333Y-133895238D01*
X107680952Y-133990476D01*
X107728571Y-134038095D01*
X107823809Y-134085714D01*
G04 #@! TO.C,R5*
X133453333Y-127212380D02*
X133120000Y-126736190D01*
X132881904Y-127212380D02*
X132881904Y-126212380D01*
X133262857Y-126212380D01*
X133358095Y-126260000D01*
X133405714Y-126307619D01*
X133453333Y-126402857D01*
X133453333Y-126545714D01*
X133405714Y-126640952D01*
X133358095Y-126688571D01*
X133262857Y-126736190D01*
X132881904Y-126736190D01*
X134358095Y-126212380D02*
X133881904Y-126212380D01*
X133834285Y-126688571D01*
X133881904Y-126640952D01*
X133977142Y-126593333D01*
X134215238Y-126593333D01*
X134310476Y-126640952D01*
X134358095Y-126688571D01*
X134405714Y-126783809D01*
X134405714Y-127021904D01*
X134358095Y-127117142D01*
X134310476Y-127164761D01*
X134215238Y-127212380D01*
X133977142Y-127212380D01*
X133881904Y-127164761D01*
X133834285Y-127117142D01*
G04 #@! TO.C,R4*
X152113333Y-127212380D02*
X151780000Y-126736190D01*
X151541904Y-127212380D02*
X151541904Y-126212380D01*
X151922857Y-126212380D01*
X152018095Y-126260000D01*
X152065714Y-126307619D01*
X152113333Y-126402857D01*
X152113333Y-126545714D01*
X152065714Y-126640952D01*
X152018095Y-126688571D01*
X151922857Y-126736190D01*
X151541904Y-126736190D01*
X152970476Y-126545714D02*
X152970476Y-127212380D01*
X152732380Y-126164761D02*
X152494285Y-126879047D01*
X153113333Y-126879047D01*
G04 #@! TO.C,R3*
X170363333Y-127212380D02*
X170030000Y-126736190D01*
X169791904Y-127212380D02*
X169791904Y-126212380D01*
X170172857Y-126212380D01*
X170268095Y-126260000D01*
X170315714Y-126307619D01*
X170363333Y-126402857D01*
X170363333Y-126545714D01*
X170315714Y-126640952D01*
X170268095Y-126688571D01*
X170172857Y-126736190D01*
X169791904Y-126736190D01*
X170696666Y-126212380D02*
X171315714Y-126212380D01*
X170982380Y-126593333D01*
X171125238Y-126593333D01*
X171220476Y-126640952D01*
X171268095Y-126688571D01*
X171315714Y-126783809D01*
X171315714Y-127021904D01*
X171268095Y-127117142D01*
X171220476Y-127164761D01*
X171125238Y-127212380D01*
X170839523Y-127212380D01*
X170744285Y-127164761D01*
X170696666Y-127117142D01*
G04 #@! TO.C,R2*
X188583333Y-127282380D02*
X188250000Y-126806190D01*
X188011904Y-127282380D02*
X188011904Y-126282380D01*
X188392857Y-126282380D01*
X188488095Y-126330000D01*
X188535714Y-126377619D01*
X188583333Y-126472857D01*
X188583333Y-126615714D01*
X188535714Y-126710952D01*
X188488095Y-126758571D01*
X188392857Y-126806190D01*
X188011904Y-126806190D01*
X188964285Y-126377619D02*
X189011904Y-126330000D01*
X189107142Y-126282380D01*
X189345238Y-126282380D01*
X189440476Y-126330000D01*
X189488095Y-126377619D01*
X189535714Y-126472857D01*
X189535714Y-126568095D01*
X189488095Y-126710952D01*
X188916666Y-127282380D01*
X189535714Y-127282380D01*
G04 #@! TO.C,R1*
X138923333Y-103102380D02*
X138590000Y-102626190D01*
X138351904Y-103102380D02*
X138351904Y-102102380D01*
X138732857Y-102102380D01*
X138828095Y-102150000D01*
X138875714Y-102197619D01*
X138923333Y-102292857D01*
X138923333Y-102435714D01*
X138875714Y-102530952D01*
X138828095Y-102578571D01*
X138732857Y-102626190D01*
X138351904Y-102626190D01*
X139875714Y-103102380D02*
X139304285Y-103102380D01*
X139590000Y-103102380D02*
X139590000Y-102102380D01*
X139494761Y-102245238D01*
X139399523Y-102340476D01*
X139304285Y-102388095D01*
G04 #@! TO.C,AC0*
X110385714Y-139376666D02*
X110861904Y-139376666D01*
X110290476Y-139662380D02*
X110623809Y-138662380D01*
X110957142Y-139662380D01*
X111861904Y-139567142D02*
X111814285Y-139614761D01*
X111671428Y-139662380D01*
X111576190Y-139662380D01*
X111433333Y-139614761D01*
X111338095Y-139519523D01*
X111290476Y-139424285D01*
X111242857Y-139233809D01*
X111242857Y-139090952D01*
X111290476Y-138900476D01*
X111338095Y-138805238D01*
X111433333Y-138710000D01*
X111576190Y-138662380D01*
X111671428Y-138662380D01*
X111814285Y-138710000D01*
X111861904Y-138757619D01*
X112480952Y-138662380D02*
X112576190Y-138662380D01*
X112671428Y-138710000D01*
X112719047Y-138757619D01*
X112766666Y-138852857D01*
X112814285Y-139043333D01*
X112814285Y-139281428D01*
X112766666Y-139471904D01*
X112719047Y-139567142D01*
X112671428Y-139614761D01*
X112576190Y-139662380D01*
X112480952Y-139662380D01*
X112385714Y-139614761D01*
X112338095Y-139567142D01*
X112290476Y-139471904D01*
X112242857Y-139281428D01*
X112242857Y-139043333D01*
X112290476Y-138852857D01*
X112338095Y-138757619D01*
X112385714Y-138710000D01*
X112480952Y-138662380D01*
G04 #@! TO.C,TRIG*
X117802380Y-127473809D02*
X117802380Y-126902380D01*
X118802380Y-127188095D02*
X117802380Y-127188095D01*
X118802380Y-125997619D02*
X118326190Y-126330952D01*
X118802380Y-126569047D02*
X117802380Y-126569047D01*
X117802380Y-126188095D01*
X117850000Y-126092857D01*
X117897619Y-126045238D01*
X117992857Y-125997619D01*
X118135714Y-125997619D01*
X118230952Y-126045238D01*
X118278571Y-126092857D01*
X118326190Y-126188095D01*
X118326190Y-126569047D01*
X118802380Y-125569047D02*
X117802380Y-125569047D01*
X117850000Y-124569047D02*
X117802380Y-124664285D01*
X117802380Y-124807142D01*
X117850000Y-124950000D01*
X117945238Y-125045238D01*
X118040476Y-125092857D01*
X118230952Y-125140476D01*
X118373809Y-125140476D01*
X118564285Y-125092857D01*
X118659523Y-125045238D01*
X118754761Y-124950000D01*
X118802380Y-124807142D01*
X118802380Y-124711904D01*
X118754761Y-124569047D01*
X118707142Y-124521428D01*
X118373809Y-124521428D01*
X118373809Y-124711904D01*
G04 #@! TO.C,V8*
X140780476Y-142002380D02*
X141113809Y-143002380D01*
X141447142Y-142002380D01*
X141923333Y-142430952D02*
X141828095Y-142383333D01*
X141780476Y-142335714D01*
X141732857Y-142240476D01*
X141732857Y-142192857D01*
X141780476Y-142097619D01*
X141828095Y-142050000D01*
X141923333Y-142002380D01*
X142113809Y-142002380D01*
X142209047Y-142050000D01*
X142256666Y-142097619D01*
X142304285Y-142192857D01*
X142304285Y-142240476D01*
X142256666Y-142335714D01*
X142209047Y-142383333D01*
X142113809Y-142430952D01*
X141923333Y-142430952D01*
X141828095Y-142478571D01*
X141780476Y-142526190D01*
X141732857Y-142621428D01*
X141732857Y-142811904D01*
X141780476Y-142907142D01*
X141828095Y-142954761D01*
X141923333Y-143002380D01*
X142113809Y-143002380D01*
X142209047Y-142954761D01*
X142256666Y-142907142D01*
X142304285Y-142811904D01*
X142304285Y-142621428D01*
X142256666Y-142526190D01*
X142209047Y-142478571D01*
X142113809Y-142430952D01*
G04 #@! TO.C,V7*
X157880476Y-142202380D02*
X158213809Y-143202380D01*
X158547142Y-142202380D01*
X158785238Y-142202380D02*
X159451904Y-142202380D01*
X159023333Y-143202380D01*
G04 #@! TO.C,V6*
X174880476Y-142002380D02*
X175213809Y-143002380D01*
X175547142Y-142002380D01*
X176309047Y-142002380D02*
X176118571Y-142002380D01*
X176023333Y-142050000D01*
X175975714Y-142097619D01*
X175880476Y-142240476D01*
X175832857Y-142430952D01*
X175832857Y-142811904D01*
X175880476Y-142907142D01*
X175928095Y-142954761D01*
X176023333Y-143002380D01*
X176213809Y-143002380D01*
X176309047Y-142954761D01*
X176356666Y-142907142D01*
X176404285Y-142811904D01*
X176404285Y-142573809D01*
X176356666Y-142478571D01*
X176309047Y-142430952D01*
X176213809Y-142383333D01*
X176023333Y-142383333D01*
X175928095Y-142430952D01*
X175880476Y-142478571D01*
X175832857Y-142573809D01*
G04 #@! TO.C,V5*
X191780476Y-142202380D02*
X192113809Y-143202380D01*
X192447142Y-142202380D01*
X193256666Y-142202380D02*
X192780476Y-142202380D01*
X192732857Y-142678571D01*
X192780476Y-142630952D01*
X192875714Y-142583333D01*
X193113809Y-142583333D01*
X193209047Y-142630952D01*
X193256666Y-142678571D01*
X193304285Y-142773809D01*
X193304285Y-143011904D01*
X193256666Y-143107142D01*
X193209047Y-143154761D01*
X193113809Y-143202380D01*
X192875714Y-143202380D01*
X192780476Y-143154761D01*
X192732857Y-143107142D01*
G04 #@! TO.C,V4*
X188890476Y-108752380D02*
X189223809Y-109752380D01*
X189557142Y-108752380D01*
X190319047Y-109085714D02*
X190319047Y-109752380D01*
X190080952Y-108704761D02*
X189842857Y-109419047D01*
X190461904Y-109419047D01*
G04 #@! TO.C,V3*
X174780476Y-110702380D02*
X175113809Y-111702380D01*
X175447142Y-110702380D01*
X175685238Y-110702380D02*
X176304285Y-110702380D01*
X175970952Y-111083333D01*
X176113809Y-111083333D01*
X176209047Y-111130952D01*
X176256666Y-111178571D01*
X176304285Y-111273809D01*
X176304285Y-111511904D01*
X176256666Y-111607142D01*
X176209047Y-111654761D01*
X176113809Y-111702380D01*
X175828095Y-111702380D01*
X175732857Y-111654761D01*
X175685238Y-111607142D01*
G04 #@! TO.C,V2*
X157880476Y-110502380D02*
X158213809Y-111502380D01*
X158547142Y-110502380D01*
X158832857Y-110597619D02*
X158880476Y-110550000D01*
X158975714Y-110502380D01*
X159213809Y-110502380D01*
X159309047Y-110550000D01*
X159356666Y-110597619D01*
X159404285Y-110692857D01*
X159404285Y-110788095D01*
X159356666Y-110930952D01*
X158785238Y-111502380D01*
X159404285Y-111502380D01*
G04 #@! TO.C,V1*
X140780476Y-110402380D02*
X141113809Y-111402380D01*
X141447142Y-110402380D01*
X142304285Y-111402380D02*
X141732857Y-111402380D01*
X142018571Y-111402380D02*
X142018571Y-110402380D01*
X141923333Y-110545238D01*
X141828095Y-110640476D01*
X141732857Y-110688095D01*
G04 #@! TO.C,V0*
X115832380Y-110859523D02*
X116832380Y-110526190D01*
X115832380Y-110192857D01*
X115832380Y-109669047D02*
X115832380Y-109573809D01*
X115880000Y-109478571D01*
X115927619Y-109430952D01*
X116022857Y-109383333D01*
X116213333Y-109335714D01*
X116451428Y-109335714D01*
X116641904Y-109383333D01*
X116737142Y-109430952D01*
X116784761Y-109478571D01*
X116832380Y-109573809D01*
X116832380Y-109669047D01*
X116784761Y-109764285D01*
X116737142Y-109811904D01*
X116641904Y-109859523D01*
X116451428Y-109907142D01*
X116213333Y-109907142D01*
X116022857Y-109859523D01*
X115927619Y-109811904D01*
X115880000Y-109764285D01*
X115832380Y-109669047D01*
X123880476Y-103662380D02*
X124213809Y-104662380D01*
X124547142Y-103662380D01*
X125070952Y-103662380D02*
X125166190Y-103662380D01*
X125261428Y-103710000D01*
X125309047Y-103757619D01*
X125356666Y-103852857D01*
X125404285Y-104043333D01*
X125404285Y-104281428D01*
X125356666Y-104471904D01*
X125309047Y-104567142D01*
X125261428Y-104614761D01*
X125166190Y-104662380D01*
X125070952Y-104662380D01*
X124975714Y-104614761D01*
X124928095Y-104567142D01*
X124880476Y-104471904D01*
X124832857Y-104281428D01*
X124832857Y-104043333D01*
X124880476Y-103852857D01*
X124928095Y-103757619D01*
X124975714Y-103710000D01*
X125070952Y-103662380D01*
G04 #@! TO.C,PROBE*
X151761904Y-103252380D02*
X151761904Y-102252380D01*
X152142857Y-102252380D01*
X152238095Y-102300000D01*
X152285714Y-102347619D01*
X152333333Y-102442857D01*
X152333333Y-102585714D01*
X152285714Y-102680952D01*
X152238095Y-102728571D01*
X152142857Y-102776190D01*
X151761904Y-102776190D01*
X153333333Y-103252380D02*
X153000000Y-102776190D01*
X152761904Y-103252380D02*
X152761904Y-102252380D01*
X153142857Y-102252380D01*
X153238095Y-102300000D01*
X153285714Y-102347619D01*
X153333333Y-102442857D01*
X153333333Y-102585714D01*
X153285714Y-102680952D01*
X153238095Y-102728571D01*
X153142857Y-102776190D01*
X152761904Y-102776190D01*
X153952380Y-102252380D02*
X154142857Y-102252380D01*
X154238095Y-102300000D01*
X154333333Y-102395238D01*
X154380952Y-102585714D01*
X154380952Y-102919047D01*
X154333333Y-103109523D01*
X154238095Y-103204761D01*
X154142857Y-103252380D01*
X153952380Y-103252380D01*
X153857142Y-103204761D01*
X153761904Y-103109523D01*
X153714285Y-102919047D01*
X153714285Y-102585714D01*
X153761904Y-102395238D01*
X153857142Y-102300000D01*
X153952380Y-102252380D01*
X155142857Y-102728571D02*
X155285714Y-102776190D01*
X155333333Y-102823809D01*
X155380952Y-102919047D01*
X155380952Y-103061904D01*
X155333333Y-103157142D01*
X155285714Y-103204761D01*
X155190476Y-103252380D01*
X154809523Y-103252380D01*
X154809523Y-102252380D01*
X155142857Y-102252380D01*
X155238095Y-102300000D01*
X155285714Y-102347619D01*
X155333333Y-102442857D01*
X155333333Y-102538095D01*
X155285714Y-102633333D01*
X155238095Y-102680952D01*
X155142857Y-102728571D01*
X154809523Y-102728571D01*
X155809523Y-102728571D02*
X156142857Y-102728571D01*
X156285714Y-103252380D02*
X155809523Y-103252380D01*
X155809523Y-102252380D01*
X156285714Y-102252380D01*
G04 #@! TO.C,V0*
X120180476Y-102004380D02*
X120513809Y-103004380D01*
X120847142Y-102004380D01*
X121370952Y-102004380D02*
X121466190Y-102004380D01*
X121561428Y-102052000D01*
X121609047Y-102099619D01*
X121656666Y-102194857D01*
X121704285Y-102385333D01*
X121704285Y-102623428D01*
X121656666Y-102813904D01*
X121609047Y-102909142D01*
X121561428Y-102956761D01*
X121466190Y-103004380D01*
X121370952Y-103004380D01*
X121275714Y-102956761D01*
X121228095Y-102909142D01*
X121180476Y-102813904D01*
X121132857Y-102623428D01*
X121132857Y-102385333D01*
X121180476Y-102194857D01*
X121228095Y-102099619D01*
X121275714Y-102052000D01*
X121370952Y-102004380D01*
G04 #@! TO.C,PROBE*
X193702380Y-137238095D02*
X192702380Y-137238095D01*
X192702380Y-136857142D01*
X192750000Y-136761904D01*
X192797619Y-136714285D01*
X192892857Y-136666666D01*
X193035714Y-136666666D01*
X193130952Y-136714285D01*
X193178571Y-136761904D01*
X193226190Y-136857142D01*
X193226190Y-137238095D01*
X193702380Y-135666666D02*
X193226190Y-136000000D01*
X193702380Y-136238095D02*
X192702380Y-136238095D01*
X192702380Y-135857142D01*
X192750000Y-135761904D01*
X192797619Y-135714285D01*
X192892857Y-135666666D01*
X193035714Y-135666666D01*
X193130952Y-135714285D01*
X193178571Y-135761904D01*
X193226190Y-135857142D01*
X193226190Y-136238095D01*
X192702380Y-135047619D02*
X192702380Y-134857142D01*
X192750000Y-134761904D01*
X192845238Y-134666666D01*
X193035714Y-134619047D01*
X193369047Y-134619047D01*
X193559523Y-134666666D01*
X193654761Y-134761904D01*
X193702380Y-134857142D01*
X193702380Y-135047619D01*
X193654761Y-135142857D01*
X193559523Y-135238095D01*
X193369047Y-135285714D01*
X193035714Y-135285714D01*
X192845238Y-135238095D01*
X192750000Y-135142857D01*
X192702380Y-135047619D01*
X193178571Y-133857142D02*
X193226190Y-133714285D01*
X193273809Y-133666666D01*
X193369047Y-133619047D01*
X193511904Y-133619047D01*
X193607142Y-133666666D01*
X193654761Y-133714285D01*
X193702380Y-133809523D01*
X193702380Y-134190476D01*
X192702380Y-134190476D01*
X192702380Y-133857142D01*
X192750000Y-133761904D01*
X192797619Y-133714285D01*
X192892857Y-133666666D01*
X192988095Y-133666666D01*
X193083333Y-133714285D01*
X193130952Y-133761904D01*
X193178571Y-133857142D01*
X193178571Y-134190476D01*
X193178571Y-133190476D02*
X193178571Y-132857142D01*
X193702380Y-132714285D02*
X193702380Y-133190476D01*
X192702380Y-133190476D01*
X192702380Y-132714285D01*
G04 #@! TO.C,V8*
X133190476Y-146452380D02*
X133523809Y-147452380D01*
X133857142Y-146452380D01*
X134333333Y-146880952D02*
X134238095Y-146833333D01*
X134190476Y-146785714D01*
X134142857Y-146690476D01*
X134142857Y-146642857D01*
X134190476Y-146547619D01*
X134238095Y-146500000D01*
X134333333Y-146452380D01*
X134523809Y-146452380D01*
X134619047Y-146500000D01*
X134666666Y-146547619D01*
X134714285Y-146642857D01*
X134714285Y-146690476D01*
X134666666Y-146785714D01*
X134619047Y-146833333D01*
X134523809Y-146880952D01*
X134333333Y-146880952D01*
X134238095Y-146928571D01*
X134190476Y-146976190D01*
X134142857Y-147071428D01*
X134142857Y-147261904D01*
X134190476Y-147357142D01*
X134238095Y-147404761D01*
X134333333Y-147452380D01*
X134523809Y-147452380D01*
X134619047Y-147404761D01*
X134666666Y-147357142D01*
X134714285Y-147261904D01*
X134714285Y-147071428D01*
X134666666Y-146976190D01*
X134619047Y-146928571D01*
X134523809Y-146880952D01*
G04 #@! TO.C,V7*
X150790476Y-146452380D02*
X151123809Y-147452380D01*
X151457142Y-146452380D01*
X151695238Y-146452380D02*
X152361904Y-146452380D01*
X151933333Y-147452380D01*
G04 #@! TO.C,V6*
X167890476Y-146452380D02*
X168223809Y-147452380D01*
X168557142Y-146452380D01*
X169319047Y-146452380D02*
X169128571Y-146452380D01*
X169033333Y-146500000D01*
X168985714Y-146547619D01*
X168890476Y-146690476D01*
X168842857Y-146880952D01*
X168842857Y-147261904D01*
X168890476Y-147357142D01*
X168938095Y-147404761D01*
X169033333Y-147452380D01*
X169223809Y-147452380D01*
X169319047Y-147404761D01*
X169366666Y-147357142D01*
X169414285Y-147261904D01*
X169414285Y-147023809D01*
X169366666Y-146928571D01*
X169319047Y-146880952D01*
X169223809Y-146833333D01*
X169033333Y-146833333D01*
X168938095Y-146880952D01*
X168890476Y-146928571D01*
X168842857Y-147023809D01*
G04 #@! TO.C,V5*
X184490476Y-146352380D02*
X184823809Y-147352380D01*
X185157142Y-146352380D01*
X185966666Y-146352380D02*
X185490476Y-146352380D01*
X185442857Y-146828571D01*
X185490476Y-146780952D01*
X185585714Y-146733333D01*
X185823809Y-146733333D01*
X185919047Y-146780952D01*
X185966666Y-146828571D01*
X186014285Y-146923809D01*
X186014285Y-147161904D01*
X185966666Y-147257142D01*
X185919047Y-147304761D01*
X185823809Y-147352380D01*
X185585714Y-147352380D01*
X185490476Y-147304761D01*
X185442857Y-147257142D01*
G04 #@! TO.C,V4*
X181940476Y-105702380D02*
X182273809Y-106702380D01*
X182607142Y-105702380D01*
X183369047Y-106035714D02*
X183369047Y-106702380D01*
X183130952Y-105654761D02*
X182892857Y-106369047D01*
X183511904Y-106369047D01*
G04 #@! TO.C,V3*
X167580476Y-105902380D02*
X167913809Y-106902380D01*
X168247142Y-105902380D01*
X168485238Y-105902380D02*
X169104285Y-105902380D01*
X168770952Y-106283333D01*
X168913809Y-106283333D01*
X169009047Y-106330952D01*
X169056666Y-106378571D01*
X169104285Y-106473809D01*
X169104285Y-106711904D01*
X169056666Y-106807142D01*
X169009047Y-106854761D01*
X168913809Y-106902380D01*
X168628095Y-106902380D01*
X168532857Y-106854761D01*
X168485238Y-106807142D01*
G04 #@! TO.C,V2*
X150980476Y-105702380D02*
X151313809Y-106702380D01*
X151647142Y-105702380D01*
X151932857Y-105797619D02*
X151980476Y-105750000D01*
X152075714Y-105702380D01*
X152313809Y-105702380D01*
X152409047Y-105750000D01*
X152456666Y-105797619D01*
X152504285Y-105892857D01*
X152504285Y-105988095D01*
X152456666Y-106130952D01*
X151885238Y-106702380D01*
X152504285Y-106702380D01*
G04 #@! TO.C,V1*
X134080476Y-105602380D02*
X134413809Y-106602380D01*
X134747142Y-105602380D01*
X135604285Y-106602380D02*
X135032857Y-106602380D01*
X135318571Y-106602380D02*
X135318571Y-105602380D01*
X135223333Y-105745238D01*
X135128095Y-105840476D01*
X135032857Y-105888095D01*
G04 #@! TO.C,V0*
X123880476Y-111842380D02*
X124213809Y-112842380D01*
X124547142Y-111842380D01*
X125070952Y-111842380D02*
X125166190Y-111842380D01*
X125261428Y-111890000D01*
X125309047Y-111937619D01*
X125356666Y-112032857D01*
X125404285Y-112223333D01*
X125404285Y-112461428D01*
X125356666Y-112651904D01*
X125309047Y-112747142D01*
X125261428Y-112794761D01*
X125166190Y-112842380D01*
X125070952Y-112842380D01*
X124975714Y-112794761D01*
X124928095Y-112747142D01*
X124880476Y-112651904D01*
X124832857Y-112461428D01*
X124832857Y-112223333D01*
X124880476Y-112032857D01*
X124928095Y-111937619D01*
X124975714Y-111890000D01*
X125070952Y-111842380D01*
G04 #@! TO.C,PROBE*
X193161904Y-121252380D02*
X193161904Y-120252380D01*
X193542857Y-120252380D01*
X193638095Y-120300000D01*
X193685714Y-120347619D01*
X193733333Y-120442857D01*
X193733333Y-120585714D01*
X193685714Y-120680952D01*
X193638095Y-120728571D01*
X193542857Y-120776190D01*
X193161904Y-120776190D01*
X194733333Y-121252380D02*
X194400000Y-120776190D01*
X194161904Y-121252380D02*
X194161904Y-120252380D01*
X194542857Y-120252380D01*
X194638095Y-120300000D01*
X194685714Y-120347619D01*
X194733333Y-120442857D01*
X194733333Y-120585714D01*
X194685714Y-120680952D01*
X194638095Y-120728571D01*
X194542857Y-120776190D01*
X194161904Y-120776190D01*
X195352380Y-120252380D02*
X195542857Y-120252380D01*
X195638095Y-120300000D01*
X195733333Y-120395238D01*
X195780952Y-120585714D01*
X195780952Y-120919047D01*
X195733333Y-121109523D01*
X195638095Y-121204761D01*
X195542857Y-121252380D01*
X195352380Y-121252380D01*
X195257142Y-121204761D01*
X195161904Y-121109523D01*
X195114285Y-120919047D01*
X195114285Y-120585714D01*
X195161904Y-120395238D01*
X195257142Y-120300000D01*
X195352380Y-120252380D01*
X196542857Y-120728571D02*
X196685714Y-120776190D01*
X196733333Y-120823809D01*
X196780952Y-120919047D01*
X196780952Y-121061904D01*
X196733333Y-121157142D01*
X196685714Y-121204761D01*
X196590476Y-121252380D01*
X196209523Y-121252380D01*
X196209523Y-120252380D01*
X196542857Y-120252380D01*
X196638095Y-120300000D01*
X196685714Y-120347619D01*
X196733333Y-120442857D01*
X196733333Y-120538095D01*
X196685714Y-120633333D01*
X196638095Y-120680952D01*
X196542857Y-120728571D01*
X196209523Y-120728571D01*
X197209523Y-120728571D02*
X197542857Y-120728571D01*
X197685714Y-121252380D02*
X197209523Y-121252380D01*
X197209523Y-120252380D01*
X197685714Y-120252380D01*
G04 #@! TO.C,AC2*
X108175714Y-147016666D02*
X108651904Y-147016666D01*
X108080476Y-147302380D02*
X108413809Y-146302380D01*
X108747142Y-147302380D01*
X109651904Y-147207142D02*
X109604285Y-147254761D01*
X109461428Y-147302380D01*
X109366190Y-147302380D01*
X109223333Y-147254761D01*
X109128095Y-147159523D01*
X109080476Y-147064285D01*
X109032857Y-146873809D01*
X109032857Y-146730952D01*
X109080476Y-146540476D01*
X109128095Y-146445238D01*
X109223333Y-146350000D01*
X109366190Y-146302380D01*
X109461428Y-146302380D01*
X109604285Y-146350000D01*
X109651904Y-146397619D01*
X110032857Y-146397619D02*
X110080476Y-146350000D01*
X110175714Y-146302380D01*
X110413809Y-146302380D01*
X110509047Y-146350000D01*
X110556666Y-146397619D01*
X110604285Y-146492857D01*
X110604285Y-146588095D01*
X110556666Y-146730952D01*
X109985238Y-147302380D01*
X110604285Y-147302380D01*
G04 #@! TO.C,AC1*
X106416666Y-124114285D02*
X106416666Y-123638095D01*
X106702380Y-124209523D02*
X105702380Y-123876190D01*
X106702380Y-123542857D01*
X106607142Y-122638095D02*
X106654761Y-122685714D01*
X106702380Y-122828571D01*
X106702380Y-122923809D01*
X106654761Y-123066666D01*
X106559523Y-123161904D01*
X106464285Y-123209523D01*
X106273809Y-123257142D01*
X106130952Y-123257142D01*
X105940476Y-123209523D01*
X105845238Y-123161904D01*
X105750000Y-123066666D01*
X105702380Y-122923809D01*
X105702380Y-122828571D01*
X105750000Y-122685714D01*
X105797619Y-122638095D01*
X106702380Y-121685714D02*
X106702380Y-122257142D01*
X106702380Y-121971428D02*
X105702380Y-121971428D01*
X105845238Y-122066666D01*
X105940476Y-122161904D01*
X105988095Y-122257142D01*
G04 #@! TO.C,D5*
X118371904Y-143202380D02*
X118371904Y-142202380D01*
X118610000Y-142202380D01*
X118752857Y-142250000D01*
X118848095Y-142345238D01*
X118895714Y-142440476D01*
X118943333Y-142630952D01*
X118943333Y-142773809D01*
X118895714Y-142964285D01*
X118848095Y-143059523D01*
X118752857Y-143154761D01*
X118610000Y-143202380D01*
X118371904Y-143202380D01*
X119848095Y-142202380D02*
X119371904Y-142202380D01*
X119324285Y-142678571D01*
X119371904Y-142630952D01*
X119467142Y-142583333D01*
X119705238Y-142583333D01*
X119800476Y-142630952D01*
X119848095Y-142678571D01*
X119895714Y-142773809D01*
X119895714Y-143011904D01*
X119848095Y-143107142D01*
X119800476Y-143154761D01*
X119705238Y-143202380D01*
X119467142Y-143202380D01*
X119371904Y-143154761D01*
X119324285Y-143107142D01*
G04 #@! TO.C,D4*
X118351904Y-147302380D02*
X118351904Y-146302380D01*
X118590000Y-146302380D01*
X118732857Y-146350000D01*
X118828095Y-146445238D01*
X118875714Y-146540476D01*
X118923333Y-146730952D01*
X118923333Y-146873809D01*
X118875714Y-147064285D01*
X118828095Y-147159523D01*
X118732857Y-147254761D01*
X118590000Y-147302380D01*
X118351904Y-147302380D01*
X119780476Y-146635714D02*
X119780476Y-147302380D01*
X119542380Y-146254761D02*
X119304285Y-146969047D01*
X119923333Y-146969047D01*
G04 #@! TO.C,D3*
X112142380Y-131388095D02*
X111142380Y-131388095D01*
X111142380Y-131150000D01*
X111190000Y-131007142D01*
X111285238Y-130911904D01*
X111380476Y-130864285D01*
X111570952Y-130816666D01*
X111713809Y-130816666D01*
X111904285Y-130864285D01*
X111999523Y-130911904D01*
X112094761Y-131007142D01*
X112142380Y-131150000D01*
X112142380Y-131388095D01*
X111142380Y-130483333D02*
X111142380Y-129864285D01*
X111523333Y-130197619D01*
X111523333Y-130054761D01*
X111570952Y-129959523D01*
X111618571Y-129911904D01*
X111713809Y-129864285D01*
X111951904Y-129864285D01*
X112047142Y-129911904D01*
X112094761Y-129959523D01*
X112142380Y-130054761D01*
X112142380Y-130340476D01*
X112094761Y-130435714D01*
X112047142Y-130483333D01*
G04 #@! TO.C,D2*
X107651904Y-114002380D02*
X107651904Y-113002380D01*
X107890000Y-113002380D01*
X108032857Y-113050000D01*
X108128095Y-113145238D01*
X108175714Y-113240476D01*
X108223333Y-113430952D01*
X108223333Y-113573809D01*
X108175714Y-113764285D01*
X108128095Y-113859523D01*
X108032857Y-113954761D01*
X107890000Y-114002380D01*
X107651904Y-114002380D01*
X108604285Y-113097619D02*
X108651904Y-113050000D01*
X108747142Y-113002380D01*
X108985238Y-113002380D01*
X109080476Y-113050000D01*
X109128095Y-113097619D01*
X109175714Y-113192857D01*
X109175714Y-113288095D01*
X109128095Y-113430952D01*
X108556666Y-114002380D01*
X109175714Y-114002380D01*
G04 #@! TO.C,D1*
X112142380Y-120868095D02*
X111142380Y-120868095D01*
X111142380Y-120630000D01*
X111190000Y-120487142D01*
X111285238Y-120391904D01*
X111380476Y-120344285D01*
X111570952Y-120296666D01*
X111713809Y-120296666D01*
X111904285Y-120344285D01*
X111999523Y-120391904D01*
X112094761Y-120487142D01*
X112142380Y-120630000D01*
X112142380Y-120868095D01*
X112142380Y-119344285D02*
X112142380Y-119915714D01*
X112142380Y-119630000D02*
X111142380Y-119630000D01*
X111285238Y-119725238D01*
X111380476Y-119820476D01*
X111428095Y-119915714D01*
G04 #@! TO.C,C12*
X122247142Y-134992857D02*
X122294761Y-135040476D01*
X122342380Y-135183333D01*
X122342380Y-135278571D01*
X122294761Y-135421428D01*
X122199523Y-135516666D01*
X122104285Y-135564285D01*
X121913809Y-135611904D01*
X121770952Y-135611904D01*
X121580476Y-135564285D01*
X121485238Y-135516666D01*
X121390000Y-135421428D01*
X121342380Y-135278571D01*
X121342380Y-135183333D01*
X121390000Y-135040476D01*
X121437619Y-134992857D01*
X122342380Y-134040476D02*
X122342380Y-134611904D01*
X122342380Y-134326190D02*
X121342380Y-134326190D01*
X121485238Y-134421428D01*
X121580476Y-134516666D01*
X121628095Y-134611904D01*
X121437619Y-133659523D02*
X121390000Y-133611904D01*
X121342380Y-133516666D01*
X121342380Y-133278571D01*
X121390000Y-133183333D01*
X121437619Y-133135714D01*
X121532857Y-133088095D01*
X121628095Y-133088095D01*
X121770952Y-133135714D01*
X122342380Y-133707142D01*
X122342380Y-133088095D01*
G04 #@! TO.C,C11*
X122147142Y-119092857D02*
X122194761Y-119140476D01*
X122242380Y-119283333D01*
X122242380Y-119378571D01*
X122194761Y-119521428D01*
X122099523Y-119616666D01*
X122004285Y-119664285D01*
X121813809Y-119711904D01*
X121670952Y-119711904D01*
X121480476Y-119664285D01*
X121385238Y-119616666D01*
X121290000Y-119521428D01*
X121242380Y-119378571D01*
X121242380Y-119283333D01*
X121290000Y-119140476D01*
X121337619Y-119092857D01*
X122242380Y-118140476D02*
X122242380Y-118711904D01*
X122242380Y-118426190D02*
X121242380Y-118426190D01*
X121385238Y-118521428D01*
X121480476Y-118616666D01*
X121528095Y-118711904D01*
X122242380Y-117188095D02*
X122242380Y-117759523D01*
X122242380Y-117473809D02*
X121242380Y-117473809D01*
X121385238Y-117569047D01*
X121480476Y-117664285D01*
X121528095Y-117759523D01*
G04 #@! TO.C,C10*
X116447142Y-135192857D02*
X116494761Y-135240476D01*
X116542380Y-135383333D01*
X116542380Y-135478571D01*
X116494761Y-135621428D01*
X116399523Y-135716666D01*
X116304285Y-135764285D01*
X116113809Y-135811904D01*
X115970952Y-135811904D01*
X115780476Y-135764285D01*
X115685238Y-135716666D01*
X115590000Y-135621428D01*
X115542380Y-135478571D01*
X115542380Y-135383333D01*
X115590000Y-135240476D01*
X115637619Y-135192857D01*
X116542380Y-134240476D02*
X116542380Y-134811904D01*
X116542380Y-134526190D02*
X115542380Y-134526190D01*
X115685238Y-134621428D01*
X115780476Y-134716666D01*
X115828095Y-134811904D01*
X115542380Y-133621428D02*
X115542380Y-133526190D01*
X115590000Y-133430952D01*
X115637619Y-133383333D01*
X115732857Y-133335714D01*
X115923333Y-133288095D01*
X116161428Y-133288095D01*
X116351904Y-133335714D01*
X116447142Y-133383333D01*
X116494761Y-133430952D01*
X116542380Y-133526190D01*
X116542380Y-133621428D01*
X116494761Y-133716666D01*
X116447142Y-133764285D01*
X116351904Y-133811904D01*
X116161428Y-133859523D01*
X115923333Y-133859523D01*
X115732857Y-133811904D01*
X115637619Y-133764285D01*
X115590000Y-133716666D01*
X115542380Y-133621428D01*
G04 #@! TO.C,C9*
X117547142Y-116616666D02*
X117594761Y-116664285D01*
X117642380Y-116807142D01*
X117642380Y-116902380D01*
X117594761Y-117045238D01*
X117499523Y-117140476D01*
X117404285Y-117188095D01*
X117213809Y-117235714D01*
X117070952Y-117235714D01*
X116880476Y-117188095D01*
X116785238Y-117140476D01*
X116690000Y-117045238D01*
X116642380Y-116902380D01*
X116642380Y-116807142D01*
X116690000Y-116664285D01*
X116737619Y-116616666D01*
X117642380Y-116140476D02*
X117642380Y-115950000D01*
X117594761Y-115854761D01*
X117547142Y-115807142D01*
X117404285Y-115711904D01*
X117213809Y-115664285D01*
X116832857Y-115664285D01*
X116737619Y-115711904D01*
X116690000Y-115759523D01*
X116642380Y-115854761D01*
X116642380Y-116045238D01*
X116690000Y-116140476D01*
X116737619Y-116188095D01*
X116832857Y-116235714D01*
X117070952Y-116235714D01*
X117166190Y-116188095D01*
X117213809Y-116140476D01*
X117261428Y-116045238D01*
X117261428Y-115854761D01*
X117213809Y-115759523D01*
X117166190Y-115711904D01*
X117070952Y-115664285D01*
G04 #@! TO.C,C8*
X125623333Y-131407142D02*
X125575714Y-131454761D01*
X125432857Y-131502380D01*
X125337619Y-131502380D01*
X125194761Y-131454761D01*
X125099523Y-131359523D01*
X125051904Y-131264285D01*
X125004285Y-131073809D01*
X125004285Y-130930952D01*
X125051904Y-130740476D01*
X125099523Y-130645238D01*
X125194761Y-130550000D01*
X125337619Y-130502380D01*
X125432857Y-130502380D01*
X125575714Y-130550000D01*
X125623333Y-130597619D01*
X126194761Y-130930952D02*
X126099523Y-130883333D01*
X126051904Y-130835714D01*
X126004285Y-130740476D01*
X126004285Y-130692857D01*
X126051904Y-130597619D01*
X126099523Y-130550000D01*
X126194761Y-130502380D01*
X126385238Y-130502380D01*
X126480476Y-130550000D01*
X126528095Y-130597619D01*
X126575714Y-130692857D01*
X126575714Y-130740476D01*
X126528095Y-130835714D01*
X126480476Y-130883333D01*
X126385238Y-130930952D01*
X126194761Y-130930952D01*
X126099523Y-130978571D01*
X126051904Y-131026190D01*
X126004285Y-131121428D01*
X126004285Y-131311904D01*
X126051904Y-131407142D01*
X126099523Y-131454761D01*
X126194761Y-131502380D01*
X126385238Y-131502380D01*
X126480476Y-131454761D01*
X126528095Y-131407142D01*
X126575714Y-131311904D01*
X126575714Y-131121428D01*
X126528095Y-131026190D01*
X126480476Y-130978571D01*
X126385238Y-130930952D01*
G04 #@! TO.C,C7*
X142123333Y-131307142D02*
X142075714Y-131354761D01*
X141932857Y-131402380D01*
X141837619Y-131402380D01*
X141694761Y-131354761D01*
X141599523Y-131259523D01*
X141551904Y-131164285D01*
X141504285Y-130973809D01*
X141504285Y-130830952D01*
X141551904Y-130640476D01*
X141599523Y-130545238D01*
X141694761Y-130450000D01*
X141837619Y-130402380D01*
X141932857Y-130402380D01*
X142075714Y-130450000D01*
X142123333Y-130497619D01*
X142456666Y-130402380D02*
X143123333Y-130402380D01*
X142694761Y-131402380D01*
G04 #@! TO.C,C6*
X159423333Y-131307142D02*
X159375714Y-131354761D01*
X159232857Y-131402380D01*
X159137619Y-131402380D01*
X158994761Y-131354761D01*
X158899523Y-131259523D01*
X158851904Y-131164285D01*
X158804285Y-130973809D01*
X158804285Y-130830952D01*
X158851904Y-130640476D01*
X158899523Y-130545238D01*
X158994761Y-130450000D01*
X159137619Y-130402380D01*
X159232857Y-130402380D01*
X159375714Y-130450000D01*
X159423333Y-130497619D01*
X160280476Y-130402380D02*
X160090000Y-130402380D01*
X159994761Y-130450000D01*
X159947142Y-130497619D01*
X159851904Y-130640476D01*
X159804285Y-130830952D01*
X159804285Y-131211904D01*
X159851904Y-131307142D01*
X159899523Y-131354761D01*
X159994761Y-131402380D01*
X160185238Y-131402380D01*
X160280476Y-131354761D01*
X160328095Y-131307142D01*
X160375714Y-131211904D01*
X160375714Y-130973809D01*
X160328095Y-130878571D01*
X160280476Y-130830952D01*
X160185238Y-130783333D01*
X159994761Y-130783333D01*
X159899523Y-130830952D01*
X159851904Y-130878571D01*
X159804285Y-130973809D01*
G04 #@! TO.C,C5*
X176523333Y-131507142D02*
X176475714Y-131554761D01*
X176332857Y-131602380D01*
X176237619Y-131602380D01*
X176094761Y-131554761D01*
X175999523Y-131459523D01*
X175951904Y-131364285D01*
X175904285Y-131173809D01*
X175904285Y-131030952D01*
X175951904Y-130840476D01*
X175999523Y-130745238D01*
X176094761Y-130650000D01*
X176237619Y-130602380D01*
X176332857Y-130602380D01*
X176475714Y-130650000D01*
X176523333Y-130697619D01*
X177428095Y-130602380D02*
X176951904Y-130602380D01*
X176904285Y-131078571D01*
X176951904Y-131030952D01*
X177047142Y-130983333D01*
X177285238Y-130983333D01*
X177380476Y-131030952D01*
X177428095Y-131078571D01*
X177475714Y-131173809D01*
X177475714Y-131411904D01*
X177428095Y-131507142D01*
X177380476Y-131554761D01*
X177285238Y-131602380D01*
X177047142Y-131602380D01*
X176951904Y-131554761D01*
X176904285Y-131507142D01*
G04 #@! TO.C,C4*
X191423333Y-123007142D02*
X191375714Y-123054761D01*
X191232857Y-123102380D01*
X191137619Y-123102380D01*
X190994761Y-123054761D01*
X190899523Y-122959523D01*
X190851904Y-122864285D01*
X190804285Y-122673809D01*
X190804285Y-122530952D01*
X190851904Y-122340476D01*
X190899523Y-122245238D01*
X190994761Y-122150000D01*
X191137619Y-122102380D01*
X191232857Y-122102380D01*
X191375714Y-122150000D01*
X191423333Y-122197619D01*
X192280476Y-122435714D02*
X192280476Y-123102380D01*
X192042380Y-122054761D02*
X191804285Y-122769047D01*
X192423333Y-122769047D01*
G04 #@! TO.C,C3*
X174623333Y-122907142D02*
X174575714Y-122954761D01*
X174432857Y-123002380D01*
X174337619Y-123002380D01*
X174194761Y-122954761D01*
X174099523Y-122859523D01*
X174051904Y-122764285D01*
X174004285Y-122573809D01*
X174004285Y-122430952D01*
X174051904Y-122240476D01*
X174099523Y-122145238D01*
X174194761Y-122050000D01*
X174337619Y-122002380D01*
X174432857Y-122002380D01*
X174575714Y-122050000D01*
X174623333Y-122097619D01*
X174956666Y-122002380D02*
X175575714Y-122002380D01*
X175242380Y-122383333D01*
X175385238Y-122383333D01*
X175480476Y-122430952D01*
X175528095Y-122478571D01*
X175575714Y-122573809D01*
X175575714Y-122811904D01*
X175528095Y-122907142D01*
X175480476Y-122954761D01*
X175385238Y-123002380D01*
X175099523Y-123002380D01*
X175004285Y-122954761D01*
X174956666Y-122907142D01*
G04 #@! TO.C,C2*
X157423333Y-122707142D02*
X157375714Y-122754761D01*
X157232857Y-122802380D01*
X157137619Y-122802380D01*
X156994761Y-122754761D01*
X156899523Y-122659523D01*
X156851904Y-122564285D01*
X156804285Y-122373809D01*
X156804285Y-122230952D01*
X156851904Y-122040476D01*
X156899523Y-121945238D01*
X156994761Y-121850000D01*
X157137619Y-121802380D01*
X157232857Y-121802380D01*
X157375714Y-121850000D01*
X157423333Y-121897619D01*
X157804285Y-121897619D02*
X157851904Y-121850000D01*
X157947142Y-121802380D01*
X158185238Y-121802380D01*
X158280476Y-121850000D01*
X158328095Y-121897619D01*
X158375714Y-121992857D01*
X158375714Y-122088095D01*
X158328095Y-122230952D01*
X157756666Y-122802380D01*
X158375714Y-122802380D01*
G04 #@! TO.C,C1*
X139823333Y-123207142D02*
X139775714Y-123254761D01*
X139632857Y-123302380D01*
X139537619Y-123302380D01*
X139394761Y-123254761D01*
X139299523Y-123159523D01*
X139251904Y-123064285D01*
X139204285Y-122873809D01*
X139204285Y-122730952D01*
X139251904Y-122540476D01*
X139299523Y-122445238D01*
X139394761Y-122350000D01*
X139537619Y-122302380D01*
X139632857Y-122302380D01*
X139775714Y-122350000D01*
X139823333Y-122397619D01*
X140775714Y-123302380D02*
X140204285Y-123302380D01*
X140490000Y-123302380D02*
X140490000Y-122302380D01*
X140394761Y-122445238D01*
X140299523Y-122540476D01*
X140204285Y-122588095D01*
G04 #@! TD*
M02*
