M48
; DRILL file {KiCad 5.1.4-e60b266~84~ubuntu16.04.1} date Tue 08 Oct 2019 11:43:03 PM CDT
; FORMAT={-:-/ absolute / metric / decimal}
; #@! TF.CreationDate,2019-10-08T23:43:03-05:00
; #@! TF.GenerationSoftware,Kicad,Pcbnew,5.1.4-e60b266~84~ubuntu16.04.1
; #@! TF.FileFunction,Plated,1,2,PTH
FMAT,2
METRIC
T1C0.400
T2C0.800
T3C0.800
T4C1.000
T5C1.100
T6C1.200
T7C1.999
%
G90
G05
T1
X117.9Y-106.4
X196.3Y-132.6
T2
X117.29Y-114.05
X117.29Y-119.05
T3
X171.19Y-106.45
X171.5Y-147.0
X111.6Y-141.75
X154.39Y-106.35
X108.5Y-123.4
X196.2Y-130.5
X124.69Y-106.75
X112.59Y-146.85
X137.2Y-146.9
X188.3Y-146.9
X137.29Y-106.25
X107.47Y-110.25
X124.69Y-109.85
X120.89Y-125.95
X185.25Y-106.25
X154.3Y-147.0
X150.0Y-102.7
X104.34Y-110.25
X196.3Y-123.1
T4
X121.79Y-129.45
X121.79Y-139.45
X121.79Y-114.75
X121.79Y-122.25
X116.19Y-131.35
X116.19Y-138.85
T5
X115.57Y-146.85
X123.19Y-146.85
X111.69Y-127.13
X111.69Y-134.75
X111.69Y-116.63
X111.69Y-124.25
X104.29Y-113.55
X111.91Y-113.55
X115.59Y-142.75
X123.21Y-142.75
T6
X163.39Y-116.35
X170.89Y-116.35
X146.39Y-137.35
X153.89Y-137.35
X129.39Y-137.35
X136.89Y-137.35
X162.93Y-126.76
X178.17Y-126.76
X146.29Y-116.25
X153.79Y-116.25
X163.39Y-137.35
X170.89Y-137.35
X131.65Y-102.65
X146.89Y-102.65
X144.58Y-126.76
X159.82Y-126.76
X129.29Y-116.25
X136.79Y-116.25
X103.69Y-126.46
X103.69Y-141.7
X181.15Y-126.83
X196.39Y-126.83
X126.22Y-126.76
X141.46Y-126.76
X107.9Y-126.5
X107.9Y-141.74
X180.39Y-116.35
X187.89Y-116.35
X180.39Y-137.35
X187.89Y-137.35
T7
X175.59Y-107.65
X158.69Y-107.55
X192.59Y-146.25
X189.7Y-105.7
X158.69Y-146.25
X175.69Y-146.25
X141.59Y-146.15
X141.59Y-107.55
X120.19Y-110.05
T0
M30
