G04 #@! TF.GenerationSoftware,KiCad,Pcbnew,5.1.4-e60b266~84~ubuntu16.04.1*
G04 #@! TF.CreationDate,2019-10-08T23:41:47-05:00*
G04 #@! TF.ProjectId,8cap,38636170-2e6b-4696-9361-645f70636258,rev?*
G04 #@! TF.SameCoordinates,Original*
G04 #@! TF.FileFunction,Legend,Bot*
G04 #@! TF.FilePolarity,Positive*
%FSLAX46Y46*%
G04 Gerber Fmt 4.6, Leading zero omitted, Abs format (unit mm)*
G04 Created by KiCad (PCBNEW 5.1.4-e60b266~84~ubuntu16.04.1) date 2019-10-08 23:41:47*
%MOMM*%
%LPD*%
G04 APERTURE LIST*
%ADD10C,0.300000*%
%ADD11C,0.050000*%
G04 APERTURE END LIST*
D10*
X186792857Y-133304761D02*
X186792857Y-131304761D01*
X186435714Y-131304761D01*
X186221428Y-131400000D01*
X186078571Y-131590476D01*
X186007142Y-131780952D01*
X185935714Y-132161904D01*
X185935714Y-132447619D01*
X186007142Y-132828571D01*
X186078571Y-133019047D01*
X186221428Y-133209523D01*
X186435714Y-133304761D01*
X186792857Y-133304761D01*
X184650000Y-133304761D02*
X184650000Y-132257142D01*
X184721428Y-132066666D01*
X184864285Y-131971428D01*
X185150000Y-131971428D01*
X185292857Y-132066666D01*
X184650000Y-133209523D02*
X184792857Y-133304761D01*
X185150000Y-133304761D01*
X185292857Y-133209523D01*
X185364285Y-133019047D01*
X185364285Y-132828571D01*
X185292857Y-132638095D01*
X185150000Y-132542857D01*
X184792857Y-132542857D01*
X184650000Y-132447619D01*
X183935714Y-131971428D02*
X183935714Y-133304761D01*
X183935714Y-132161904D02*
X183864285Y-132066666D01*
X183721428Y-131971428D01*
X183507142Y-131971428D01*
X183364285Y-132066666D01*
X183292857Y-132257142D01*
X183292857Y-133304761D01*
X181935714Y-131971428D02*
X181935714Y-133590476D01*
X182007142Y-133780952D01*
X182078571Y-133876190D01*
X182221428Y-133971428D01*
X182435714Y-133971428D01*
X182578571Y-133876190D01*
X181935714Y-133209523D02*
X182078571Y-133304761D01*
X182364285Y-133304761D01*
X182507142Y-133209523D01*
X182578571Y-133114285D01*
X182650000Y-132923809D01*
X182650000Y-132352380D01*
X182578571Y-132161904D01*
X182507142Y-132066666D01*
X182364285Y-131971428D01*
X182078571Y-131971428D01*
X181935714Y-132066666D01*
X180650000Y-133209523D02*
X180792857Y-133304761D01*
X181078571Y-133304761D01*
X181221428Y-133209523D01*
X181292857Y-133019047D01*
X181292857Y-132257142D01*
X181221428Y-132066666D01*
X181078571Y-131971428D01*
X180792857Y-131971428D01*
X180650000Y-132066666D01*
X180578571Y-132257142D01*
X180578571Y-132447619D01*
X181292857Y-132638095D01*
X179935714Y-133304761D02*
X179935714Y-131971428D01*
X179935714Y-132352380D02*
X179864285Y-132161904D01*
X179792857Y-132066666D01*
X179650000Y-131971428D01*
X179507142Y-131971428D01*
X179007142Y-133114285D02*
X178935714Y-133209523D01*
X179007142Y-133304761D01*
X179078571Y-133209523D01*
X179007142Y-133114285D01*
X179007142Y-133304761D01*
X179007142Y-132066666D02*
X178935714Y-132161904D01*
X179007142Y-132257142D01*
X179078571Y-132161904D01*
X179007142Y-132066666D01*
X179007142Y-132257142D01*
X177150000Y-133304761D02*
X177150000Y-131304761D01*
X177150000Y-132257142D02*
X176292857Y-132257142D01*
X176292857Y-133304761D02*
X176292857Y-131304761D01*
X175578571Y-133304761D02*
X175578571Y-131971428D01*
X175578571Y-131304761D02*
X175650000Y-131400000D01*
X175578571Y-131495238D01*
X175507142Y-131400000D01*
X175578571Y-131304761D01*
X175578571Y-131495238D01*
X174221428Y-131971428D02*
X174221428Y-133590476D01*
X174292857Y-133780952D01*
X174364285Y-133876190D01*
X174507142Y-133971428D01*
X174721428Y-133971428D01*
X174864285Y-133876190D01*
X174221428Y-133209523D02*
X174364285Y-133304761D01*
X174650000Y-133304761D01*
X174792857Y-133209523D01*
X174864285Y-133114285D01*
X174935714Y-132923809D01*
X174935714Y-132352380D01*
X174864285Y-132161904D01*
X174792857Y-132066666D01*
X174650000Y-131971428D01*
X174364285Y-131971428D01*
X174221428Y-132066666D01*
X173507142Y-133304761D02*
X173507142Y-131304761D01*
X172864285Y-133304761D02*
X172864285Y-132257142D01*
X172935714Y-132066666D01*
X173078571Y-131971428D01*
X173292857Y-131971428D01*
X173435714Y-132066666D01*
X173507142Y-132161904D01*
X171221428Y-131304761D02*
X170721428Y-133304761D01*
X170221428Y-131304761D01*
X169507142Y-133304761D02*
X169650000Y-133209523D01*
X169721428Y-133114285D01*
X169792857Y-132923809D01*
X169792857Y-132352380D01*
X169721428Y-132161904D01*
X169650000Y-132066666D01*
X169507142Y-131971428D01*
X169292857Y-131971428D01*
X169150000Y-132066666D01*
X169078571Y-132161904D01*
X169007142Y-132352380D01*
X169007142Y-132923809D01*
X169078571Y-133114285D01*
X169150000Y-133209523D01*
X169292857Y-133304761D01*
X169507142Y-133304761D01*
X168150000Y-133304761D02*
X168292857Y-133209523D01*
X168364285Y-133019047D01*
X168364285Y-131304761D01*
X167792857Y-131971428D02*
X167221428Y-131971428D01*
X167578571Y-131304761D02*
X167578571Y-133019047D01*
X167507142Y-133209523D01*
X167364285Y-133304761D01*
X167221428Y-133304761D01*
X166078571Y-133304761D02*
X166078571Y-132257142D01*
X166150000Y-132066666D01*
X166292857Y-131971428D01*
X166578571Y-131971428D01*
X166721428Y-132066666D01*
X166078571Y-133209523D02*
X166221428Y-133304761D01*
X166578571Y-133304761D01*
X166721428Y-133209523D01*
X166792857Y-133019047D01*
X166792857Y-132828571D01*
X166721428Y-132638095D01*
X166578571Y-132542857D01*
X166221428Y-132542857D01*
X166078571Y-132447619D01*
X164721428Y-131971428D02*
X164721428Y-133590476D01*
X164792857Y-133780952D01*
X164864285Y-133876190D01*
X165007142Y-133971428D01*
X165221428Y-133971428D01*
X165364285Y-133876190D01*
X164721428Y-133209523D02*
X164864285Y-133304761D01*
X165150000Y-133304761D01*
X165292857Y-133209523D01*
X165364285Y-133114285D01*
X165435714Y-132923809D01*
X165435714Y-132352380D01*
X165364285Y-132161904D01*
X165292857Y-132066666D01*
X165150000Y-131971428D01*
X164864285Y-131971428D01*
X164721428Y-132066666D01*
X163435714Y-133209523D02*
X163578571Y-133304761D01*
X163864285Y-133304761D01*
X164007142Y-133209523D01*
X164078571Y-133019047D01*
X164078571Y-132257142D01*
X164007142Y-132066666D01*
X163864285Y-131971428D01*
X163578571Y-131971428D01*
X163435714Y-132066666D01*
X163364285Y-132257142D01*
X163364285Y-132447619D01*
X164078571Y-132638095D01*
X162721428Y-133114285D02*
X162650000Y-133209523D01*
X162721428Y-133304761D01*
X162792857Y-133209523D01*
X162721428Y-133114285D01*
X162721428Y-133304761D01*
X162721428Y-132542857D02*
X162792857Y-131400000D01*
X162721428Y-131304761D01*
X162650000Y-131400000D01*
X162721428Y-132542857D01*
X162721428Y-131304761D01*
X159435714Y-131304761D02*
X159150000Y-131304761D01*
X159007142Y-131400000D01*
X158864285Y-131590476D01*
X158792857Y-131971428D01*
X158792857Y-132638095D01*
X158864285Y-133019047D01*
X159007142Y-133209523D01*
X159150000Y-133304761D01*
X159435714Y-133304761D01*
X159578571Y-133209523D01*
X159721428Y-133019047D01*
X159792857Y-132638095D01*
X159792857Y-131971428D01*
X159721428Y-131590476D01*
X159578571Y-131400000D01*
X159435714Y-131304761D01*
X158150000Y-131971428D02*
X158150000Y-133971428D01*
X158150000Y-132066666D02*
X158007142Y-131971428D01*
X157721428Y-131971428D01*
X157578571Y-132066666D01*
X157507142Y-132161904D01*
X157435714Y-132352380D01*
X157435714Y-132923809D01*
X157507142Y-133114285D01*
X157578571Y-133209523D01*
X157721428Y-133304761D01*
X158007142Y-133304761D01*
X158150000Y-133209523D01*
X156221428Y-133209523D02*
X156364285Y-133304761D01*
X156650000Y-133304761D01*
X156792857Y-133209523D01*
X156864285Y-133019047D01*
X156864285Y-132257142D01*
X156792857Y-132066666D01*
X156650000Y-131971428D01*
X156364285Y-131971428D01*
X156221428Y-132066666D01*
X156150000Y-132257142D01*
X156150000Y-132447619D01*
X156864285Y-132638095D01*
X155507142Y-131971428D02*
X155507142Y-133304761D01*
X155507142Y-132161904D02*
X155435714Y-132066666D01*
X155292857Y-131971428D01*
X155078571Y-131971428D01*
X154935714Y-132066666D01*
X154864285Y-132257142D01*
X154864285Y-133304761D01*
X153007142Y-133304761D02*
X153007142Y-131304761D01*
X153007142Y-132257142D02*
X152150000Y-132257142D01*
X152150000Y-133304761D02*
X152150000Y-131304761D01*
X150792857Y-133304761D02*
X150792857Y-132257142D01*
X150864285Y-132066666D01*
X151007142Y-131971428D01*
X151292857Y-131971428D01*
X151435714Y-132066666D01*
X150792857Y-133209523D02*
X150935714Y-133304761D01*
X151292857Y-133304761D01*
X151435714Y-133209523D01*
X151507142Y-133019047D01*
X151507142Y-132828571D01*
X151435714Y-132638095D01*
X151292857Y-132542857D01*
X150935714Y-132542857D01*
X150792857Y-132447619D01*
X150078571Y-133304761D02*
X150078571Y-131971428D01*
X150078571Y-132352380D02*
X150007142Y-132161904D01*
X149935714Y-132066666D01*
X149792857Y-131971428D01*
X149650000Y-131971428D01*
X148507142Y-133304761D02*
X148507142Y-131304761D01*
X148507142Y-133209523D02*
X148650000Y-133304761D01*
X148935714Y-133304761D01*
X149078571Y-133209523D01*
X149150000Y-133114285D01*
X149221428Y-132923809D01*
X149221428Y-132352380D01*
X149150000Y-132161904D01*
X149078571Y-132066666D01*
X148935714Y-131971428D01*
X148650000Y-131971428D01*
X148507142Y-132066666D01*
X147935714Y-131971428D02*
X147650000Y-133304761D01*
X147364285Y-132352380D01*
X147078571Y-133304761D01*
X146792857Y-131971428D01*
X145578571Y-133304761D02*
X145578571Y-132257142D01*
X145650000Y-132066666D01*
X145792857Y-131971428D01*
X146078571Y-131971428D01*
X146221428Y-132066666D01*
X145578571Y-133209523D02*
X145721428Y-133304761D01*
X146078571Y-133304761D01*
X146221428Y-133209523D01*
X146292857Y-133019047D01*
X146292857Y-132828571D01*
X146221428Y-132638095D01*
X146078571Y-132542857D01*
X145721428Y-132542857D01*
X145578571Y-132447619D01*
X144864285Y-133304761D02*
X144864285Y-131971428D01*
X144864285Y-132352380D02*
X144792857Y-132161904D01*
X144721428Y-132066666D01*
X144578571Y-131971428D01*
X144435714Y-131971428D01*
X143364285Y-133209523D02*
X143507142Y-133304761D01*
X143792857Y-133304761D01*
X143935714Y-133209523D01*
X144007142Y-133019047D01*
X144007142Y-132257142D01*
X143935714Y-132066666D01*
X143792857Y-131971428D01*
X143507142Y-131971428D01*
X143364285Y-132066666D01*
X143292857Y-132257142D01*
X143292857Y-132447619D01*
X144007142Y-132638095D01*
X140792857Y-133304761D02*
X141507142Y-133304761D01*
X141507142Y-131304761D01*
X140292857Y-133304761D02*
X140292857Y-131971428D01*
X140292857Y-131304761D02*
X140364285Y-131400000D01*
X140292857Y-131495238D01*
X140221428Y-131400000D01*
X140292857Y-131304761D01*
X140292857Y-131495238D01*
X138935714Y-133209523D02*
X139078571Y-133304761D01*
X139364285Y-133304761D01*
X139507142Y-133209523D01*
X139578571Y-133114285D01*
X139649999Y-132923809D01*
X139649999Y-132352380D01*
X139578571Y-132161904D01*
X139507142Y-132066666D01*
X139364285Y-131971428D01*
X139078571Y-131971428D01*
X138935714Y-132066666D01*
X137721428Y-133209523D02*
X137864285Y-133304761D01*
X138149999Y-133304761D01*
X138292857Y-133209523D01*
X138364285Y-133019047D01*
X138364285Y-132257142D01*
X138292857Y-132066666D01*
X138149999Y-131971428D01*
X137864285Y-131971428D01*
X137721428Y-132066666D01*
X137649999Y-132257142D01*
X137649999Y-132447619D01*
X138364285Y-132638095D01*
X137007142Y-131971428D02*
X137007142Y-133304761D01*
X137007142Y-132161904D02*
X136935714Y-132066666D01*
X136792857Y-131971428D01*
X136578571Y-131971428D01*
X136435714Y-132066666D01*
X136364285Y-132257142D01*
X136364285Y-133304761D01*
X135721428Y-133209523D02*
X135578571Y-133304761D01*
X135292857Y-133304761D01*
X135149999Y-133209523D01*
X135078571Y-133019047D01*
X135078571Y-132923809D01*
X135149999Y-132733333D01*
X135292857Y-132638095D01*
X135507142Y-132638095D01*
X135649999Y-132542857D01*
X135721428Y-132352380D01*
X135721428Y-132257142D01*
X135649999Y-132066666D01*
X135507142Y-131971428D01*
X135292857Y-131971428D01*
X135149999Y-132066666D01*
X133864285Y-133209523D02*
X134007142Y-133304761D01*
X134292857Y-133304761D01*
X134435714Y-133209523D01*
X134507142Y-133019047D01*
X134507142Y-132257142D01*
X134435714Y-132066666D01*
X134292857Y-131971428D01*
X134007142Y-131971428D01*
X133864285Y-132066666D01*
X133792857Y-132257142D01*
X133792857Y-132447619D01*
X134507142Y-132638095D01*
X132149999Y-131971428D02*
X131792857Y-133304761D01*
X131435714Y-131971428D01*
X130078571Y-133304761D02*
X130935714Y-133304761D01*
X130507142Y-133304761D02*
X130507142Y-131304761D01*
X130649999Y-131590476D01*
X130792857Y-131780952D01*
X130935714Y-131876190D01*
X129435714Y-133114285D02*
X129364285Y-133209523D01*
X129435714Y-133304761D01*
X129507142Y-133209523D01*
X129435714Y-133114285D01*
X129435714Y-133304761D01*
X128792857Y-131495238D02*
X128721428Y-131400000D01*
X128578571Y-131304761D01*
X128221428Y-131304761D01*
X128078571Y-131400000D01*
X128007142Y-131495238D01*
X127935714Y-131685714D01*
X127935714Y-131876190D01*
X128007142Y-132161904D01*
X128864285Y-133304761D01*
X127935714Y-133304761D01*
X188450000Y-122304761D02*
X188450000Y-120304761D01*
X188092857Y-120304761D01*
X187878571Y-120400000D01*
X187735714Y-120590476D01*
X187664285Y-120780952D01*
X187592857Y-121161904D01*
X187592857Y-121447619D01*
X187664285Y-121828571D01*
X187735714Y-122019047D01*
X187878571Y-122209523D01*
X188092857Y-122304761D01*
X188450000Y-122304761D01*
X186378571Y-122209523D02*
X186521428Y-122304761D01*
X186807142Y-122304761D01*
X186950000Y-122209523D01*
X187021428Y-122019047D01*
X187021428Y-121257142D01*
X186950000Y-121066666D01*
X186807142Y-120971428D01*
X186521428Y-120971428D01*
X186378571Y-121066666D01*
X186307142Y-121257142D01*
X186307142Y-121447619D01*
X187021428Y-121638095D01*
X185735714Y-122209523D02*
X185592857Y-122304761D01*
X185307142Y-122304761D01*
X185164285Y-122209523D01*
X185092857Y-122019047D01*
X185092857Y-121923809D01*
X185164285Y-121733333D01*
X185307142Y-121638095D01*
X185521428Y-121638095D01*
X185664285Y-121542857D01*
X185735714Y-121352380D01*
X185735714Y-121257142D01*
X185664285Y-121066666D01*
X185521428Y-120971428D01*
X185307142Y-120971428D01*
X185164285Y-121066666D01*
X184450000Y-122304761D02*
X184450000Y-120971428D01*
X184450000Y-120304761D02*
X184521428Y-120400000D01*
X184450000Y-120495238D01*
X184378571Y-120400000D01*
X184450000Y-120304761D01*
X184450000Y-120495238D01*
X183092857Y-120971428D02*
X183092857Y-122590476D01*
X183164285Y-122780952D01*
X183235714Y-122876190D01*
X183378571Y-122971428D01*
X183592857Y-122971428D01*
X183735714Y-122876190D01*
X183092857Y-122209523D02*
X183235714Y-122304761D01*
X183521428Y-122304761D01*
X183664285Y-122209523D01*
X183735714Y-122114285D01*
X183807142Y-121923809D01*
X183807142Y-121352380D01*
X183735714Y-121161904D01*
X183664285Y-121066666D01*
X183521428Y-120971428D01*
X183235714Y-120971428D01*
X183092857Y-121066666D01*
X182378571Y-120971428D02*
X182378571Y-122304761D01*
X182378571Y-121161904D02*
X182307142Y-121066666D01*
X182164285Y-120971428D01*
X181950000Y-120971428D01*
X181807142Y-121066666D01*
X181735714Y-121257142D01*
X181735714Y-122304761D01*
X179235714Y-122304761D02*
X179235714Y-121257142D01*
X179307142Y-121066666D01*
X179450000Y-120971428D01*
X179735714Y-120971428D01*
X179878571Y-121066666D01*
X179235714Y-122209523D02*
X179378571Y-122304761D01*
X179735714Y-122304761D01*
X179878571Y-122209523D01*
X179950000Y-122019047D01*
X179950000Y-121828571D01*
X179878571Y-121638095D01*
X179735714Y-121542857D01*
X179378571Y-121542857D01*
X179235714Y-121447619D01*
X178735714Y-120971428D02*
X178164285Y-120971428D01*
X178521428Y-120304761D02*
X178521428Y-122019047D01*
X178450000Y-122209523D01*
X178307142Y-122304761D01*
X178164285Y-122304761D01*
X176521428Y-122304761D02*
X176521428Y-120304761D01*
X175878571Y-122304761D02*
X175878571Y-121257142D01*
X175950000Y-121066666D01*
X176092857Y-120971428D01*
X176307142Y-120971428D01*
X176450000Y-121066666D01*
X176521428Y-121161904D01*
X175378571Y-120971428D02*
X174807142Y-120971428D01*
X175164285Y-120304761D02*
X175164285Y-122019047D01*
X175092857Y-122209523D01*
X174950000Y-122304761D01*
X174807142Y-122304761D01*
X174521428Y-120971428D02*
X173950000Y-120971428D01*
X174307142Y-120304761D02*
X174307142Y-122019047D01*
X174235714Y-122209523D01*
X174092857Y-122304761D01*
X173950000Y-122304761D01*
X173450000Y-120971428D02*
X173450000Y-122971428D01*
X173450000Y-121066666D02*
X173307142Y-120971428D01*
X173021428Y-120971428D01*
X172878571Y-121066666D01*
X172807142Y-121161904D01*
X172735714Y-121352380D01*
X172735714Y-121923809D01*
X172807142Y-122114285D01*
X172878571Y-122209523D01*
X173021428Y-122304761D01*
X173307142Y-122304761D01*
X173450000Y-122209523D01*
X172164285Y-122209523D02*
X172021428Y-122304761D01*
X171735714Y-122304761D01*
X171592857Y-122209523D01*
X171521428Y-122019047D01*
X171521428Y-121923809D01*
X171592857Y-121733333D01*
X171735714Y-121638095D01*
X171950000Y-121638095D01*
X172092857Y-121542857D01*
X172164285Y-121352380D01*
X172164285Y-121257142D01*
X172092857Y-121066666D01*
X171950000Y-120971428D01*
X171735714Y-120971428D01*
X171592857Y-121066666D01*
X170878571Y-122114285D02*
X170807142Y-122209523D01*
X170878571Y-122304761D01*
X170950000Y-122209523D01*
X170878571Y-122114285D01*
X170878571Y-122304761D01*
X170878571Y-121066666D02*
X170807142Y-121161904D01*
X170878571Y-121257142D01*
X170950000Y-121161904D01*
X170878571Y-121066666D01*
X170878571Y-121257142D01*
X169092857Y-120209523D02*
X170378571Y-122780952D01*
X167521428Y-120209523D02*
X168807142Y-122780952D01*
X166378571Y-120971428D02*
X166378571Y-122590476D01*
X166450000Y-122780952D01*
X166521428Y-122876190D01*
X166664285Y-122971428D01*
X166878571Y-122971428D01*
X167021428Y-122876190D01*
X166378571Y-122209523D02*
X166521428Y-122304761D01*
X166807142Y-122304761D01*
X166950000Y-122209523D01*
X167021428Y-122114285D01*
X167092857Y-121923809D01*
X167092857Y-121352380D01*
X167021428Y-121161904D01*
X166950000Y-121066666D01*
X166807142Y-120971428D01*
X166521428Y-120971428D01*
X166378571Y-121066666D01*
X165664285Y-122304761D02*
X165664285Y-120971428D01*
X165664285Y-120304761D02*
X165735714Y-120400000D01*
X165664285Y-120495238D01*
X165592857Y-120400000D01*
X165664285Y-120304761D01*
X165664285Y-120495238D01*
X165164285Y-120971428D02*
X164592857Y-120971428D01*
X164949999Y-120304761D02*
X164949999Y-122019047D01*
X164878571Y-122209523D01*
X164735714Y-122304761D01*
X164592857Y-122304761D01*
X164092857Y-122304761D02*
X164092857Y-120304761D01*
X163449999Y-122304761D02*
X163449999Y-121257142D01*
X163521428Y-121066666D01*
X163664285Y-120971428D01*
X163878571Y-120971428D01*
X164021428Y-121066666D01*
X164092857Y-121161904D01*
X162092857Y-120971428D02*
X162092857Y-122304761D01*
X162735714Y-120971428D02*
X162735714Y-122019047D01*
X162664285Y-122209523D01*
X162521428Y-122304761D01*
X162307142Y-122304761D01*
X162164285Y-122209523D01*
X162092857Y-122114285D01*
X161378571Y-122304761D02*
X161378571Y-120304761D01*
X161378571Y-121066666D02*
X161235714Y-120971428D01*
X160949999Y-120971428D01*
X160807142Y-121066666D01*
X160735714Y-121161904D01*
X160664285Y-121352380D01*
X160664285Y-121923809D01*
X160735714Y-122114285D01*
X160807142Y-122209523D01*
X160949999Y-122304761D01*
X161235714Y-122304761D01*
X161378571Y-122209523D01*
X160021428Y-122114285D02*
X159949999Y-122209523D01*
X160021428Y-122304761D01*
X160092857Y-122209523D01*
X160021428Y-122114285D01*
X160021428Y-122304761D01*
X158664285Y-122209523D02*
X158807142Y-122304761D01*
X159092857Y-122304761D01*
X159235714Y-122209523D01*
X159307142Y-122114285D01*
X159378571Y-121923809D01*
X159378571Y-121352380D01*
X159307142Y-121161904D01*
X159235714Y-121066666D01*
X159092857Y-120971428D01*
X158807142Y-120971428D01*
X158664285Y-121066666D01*
X157807142Y-122304761D02*
X157949999Y-122209523D01*
X158021428Y-122114285D01*
X158092857Y-121923809D01*
X158092857Y-121352380D01*
X158021428Y-121161904D01*
X157949999Y-121066666D01*
X157807142Y-120971428D01*
X157592857Y-120971428D01*
X157449999Y-121066666D01*
X157378571Y-121161904D01*
X157307142Y-121352380D01*
X157307142Y-121923809D01*
X157378571Y-122114285D01*
X157449999Y-122209523D01*
X157592857Y-122304761D01*
X157807142Y-122304761D01*
X156664285Y-122304761D02*
X156664285Y-120971428D01*
X156664285Y-121161904D02*
X156592857Y-121066666D01*
X156449999Y-120971428D01*
X156235714Y-120971428D01*
X156092857Y-121066666D01*
X156021428Y-121257142D01*
X156021428Y-122304761D01*
X156021428Y-121257142D02*
X155949999Y-121066666D01*
X155807142Y-120971428D01*
X155592857Y-120971428D01*
X155449999Y-121066666D01*
X155378571Y-121257142D01*
X155378571Y-122304761D01*
X153592857Y-120209523D02*
X154878571Y-122780952D01*
X152307142Y-120400000D02*
X152449999Y-120304761D01*
X152664285Y-120304761D01*
X152878571Y-120400000D01*
X153021428Y-120590476D01*
X153092857Y-120780952D01*
X153164285Y-121161904D01*
X153164285Y-121447619D01*
X153092857Y-121828571D01*
X153021428Y-122019047D01*
X152878571Y-122209523D01*
X152664285Y-122304761D01*
X152521428Y-122304761D01*
X152307142Y-122209523D01*
X152235714Y-122114285D01*
X152235714Y-121447619D01*
X152521428Y-121447619D01*
X151592857Y-122304761D02*
X151592857Y-120971428D01*
X151592857Y-120304761D02*
X151664285Y-120400000D01*
X151592857Y-120495238D01*
X151521428Y-120400000D01*
X151592857Y-120304761D01*
X151592857Y-120495238D01*
X151092857Y-120971428D02*
X150521428Y-120971428D01*
X150878571Y-120304761D02*
X150878571Y-122019047D01*
X150807142Y-122209523D01*
X150664285Y-122304761D01*
X150521428Y-122304761D01*
X150021428Y-122304761D02*
X150021428Y-120304761D01*
X149164285Y-122304761D02*
X149807142Y-121161904D01*
X149164285Y-120304761D02*
X150021428Y-121447619D01*
X147949999Y-122209523D02*
X148092857Y-122304761D01*
X148378571Y-122304761D01*
X148521428Y-122209523D01*
X148592857Y-122019047D01*
X148592857Y-121257142D01*
X148521428Y-121066666D01*
X148378571Y-120971428D01*
X148092857Y-120971428D01*
X147949999Y-121066666D01*
X147878571Y-121257142D01*
X147878571Y-121447619D01*
X148592857Y-121638095D01*
X147235714Y-122304761D02*
X147235714Y-120971428D01*
X147235714Y-120304761D02*
X147307142Y-120400000D01*
X147235714Y-120495238D01*
X147164285Y-120400000D01*
X147235714Y-120304761D01*
X147235714Y-120495238D01*
X146735714Y-120971428D02*
X146164285Y-120971428D01*
X146521428Y-120304761D02*
X146521428Y-122019047D01*
X146449999Y-122209523D01*
X146307142Y-122304761D01*
X146164285Y-122304761D01*
X145664285Y-122304761D02*
X145664285Y-120304761D01*
X145021428Y-122304761D02*
X145021428Y-121257142D01*
X145092857Y-121066666D01*
X145235714Y-120971428D01*
X145449999Y-120971428D01*
X145592857Y-121066666D01*
X145664285Y-121161904D01*
X144307142Y-122304761D02*
X144307142Y-120304761D01*
X143949999Y-120304761D01*
X143735714Y-120400000D01*
X143592857Y-120590476D01*
X143521428Y-120780952D01*
X143449999Y-121161904D01*
X143449999Y-121447619D01*
X143521428Y-121828571D01*
X143592857Y-122019047D01*
X143735714Y-122209523D01*
X143949999Y-122304761D01*
X144307142Y-122304761D01*
X142164285Y-122304761D02*
X142164285Y-121257142D01*
X142235714Y-121066666D01*
X142378571Y-120971428D01*
X142664285Y-120971428D01*
X142807142Y-121066666D01*
X142164285Y-122209523D02*
X142307142Y-122304761D01*
X142664285Y-122304761D01*
X142807142Y-122209523D01*
X142878571Y-122019047D01*
X142878571Y-121828571D01*
X142807142Y-121638095D01*
X142664285Y-121542857D01*
X142307142Y-121542857D01*
X142164285Y-121447619D01*
X141592857Y-120971428D02*
X141235714Y-122304761D01*
X140878571Y-120971428D01*
X140307142Y-122304761D02*
X140307142Y-120971428D01*
X140307142Y-120304761D02*
X140378571Y-120400000D01*
X140307142Y-120495238D01*
X140235714Y-120400000D01*
X140307142Y-120304761D01*
X140307142Y-120495238D01*
X139664285Y-122209523D02*
X139521428Y-122304761D01*
X139235714Y-122304761D01*
X139092857Y-122209523D01*
X139021428Y-122019047D01*
X139021428Y-121923809D01*
X139092857Y-121733333D01*
X139235714Y-121638095D01*
X139449999Y-121638095D01*
X139592857Y-121542857D01*
X139664285Y-121352380D01*
X139664285Y-121257142D01*
X139592857Y-121066666D01*
X139449999Y-120971428D01*
X139235714Y-120971428D01*
X139092857Y-121066666D01*
X137307142Y-120209523D02*
X138592857Y-122780952D01*
X135949999Y-122114285D02*
X136021428Y-122209523D01*
X136235714Y-122304761D01*
X136378571Y-122304761D01*
X136592857Y-122209523D01*
X136735714Y-122019047D01*
X136807142Y-121828571D01*
X136878571Y-121447619D01*
X136878571Y-121161904D01*
X136807142Y-120780952D01*
X136735714Y-120590476D01*
X136592857Y-120400000D01*
X136378571Y-120304761D01*
X136235714Y-120304761D01*
X136021428Y-120400000D01*
X135949999Y-120495238D01*
X135307142Y-122304761D02*
X135307142Y-120971428D01*
X135307142Y-120304761D02*
X135378571Y-120400000D01*
X135307142Y-120495238D01*
X135235714Y-120400000D01*
X135307142Y-120304761D01*
X135307142Y-120495238D01*
X134592857Y-122304761D02*
X134592857Y-120971428D01*
X134592857Y-121352380D02*
X134521428Y-121161904D01*
X134449999Y-121066666D01*
X134307142Y-120971428D01*
X134164285Y-120971428D01*
X133021428Y-122209523D02*
X133164285Y-122304761D01*
X133449999Y-122304761D01*
X133592857Y-122209523D01*
X133664285Y-122114285D01*
X133735714Y-121923809D01*
X133735714Y-121352380D01*
X133664285Y-121161904D01*
X133592857Y-121066666D01*
X133449999Y-120971428D01*
X133164285Y-120971428D01*
X133021428Y-121066666D01*
X131735714Y-120971428D02*
X131735714Y-122304761D01*
X132378571Y-120971428D02*
X132378571Y-122019047D01*
X132307142Y-122209523D01*
X132164285Y-122304761D01*
X131949999Y-122304761D01*
X131807142Y-122209523D01*
X131735714Y-122114285D01*
X131021428Y-122304761D02*
X131021428Y-120971428D01*
X131021428Y-120304761D02*
X131092857Y-120400000D01*
X131021428Y-120495238D01*
X130949999Y-120400000D01*
X131021428Y-120304761D01*
X131021428Y-120495238D01*
X130521428Y-120971428D02*
X129949999Y-120971428D01*
X130307142Y-120304761D02*
X130307142Y-122019047D01*
X130235714Y-122209523D01*
X130092857Y-122304761D01*
X129949999Y-122304761D01*
X129521428Y-122209523D02*
X129378571Y-122304761D01*
X129092857Y-122304761D01*
X128949999Y-122209523D01*
X128878571Y-122019047D01*
X128878571Y-121923809D01*
X128949999Y-121733333D01*
X129092857Y-121638095D01*
X129307142Y-121638095D01*
X129449999Y-121542857D01*
X129521428Y-121352380D01*
X129521428Y-121257142D01*
X129449999Y-121066666D01*
X129307142Y-120971428D01*
X129092857Y-120971428D01*
X128949999Y-121066666D01*
X173714285Y-112161904D02*
X173857142Y-112066666D01*
X173928571Y-111971428D01*
X174000000Y-111780952D01*
X174000000Y-111685714D01*
X173928571Y-111495238D01*
X173857142Y-111400000D01*
X173714285Y-111304761D01*
X173428571Y-111304761D01*
X173285714Y-111400000D01*
X173214285Y-111495238D01*
X173142857Y-111685714D01*
X173142857Y-111780952D01*
X173214285Y-111971428D01*
X173285714Y-112066666D01*
X173428571Y-112161904D01*
X173714285Y-112161904D01*
X173857142Y-112257142D01*
X173928571Y-112352380D01*
X174000000Y-112542857D01*
X174000000Y-112923809D01*
X173928571Y-113114285D01*
X173857142Y-113209523D01*
X173714285Y-113304761D01*
X173428571Y-113304761D01*
X173285714Y-113209523D01*
X173214285Y-113114285D01*
X173142857Y-112923809D01*
X173142857Y-112542857D01*
X173214285Y-112352380D01*
X173285714Y-112257142D01*
X173428571Y-112161904D01*
X170714285Y-113209523D02*
X170857142Y-113304761D01*
X171142857Y-113304761D01*
X171285714Y-113209523D01*
X171357142Y-113114285D01*
X171428571Y-112923809D01*
X171428571Y-112352380D01*
X171357142Y-112161904D01*
X171285714Y-112066666D01*
X171142857Y-111971428D01*
X170857142Y-111971428D01*
X170714285Y-112066666D01*
X169428571Y-113304761D02*
X169428571Y-112257142D01*
X169500000Y-112066666D01*
X169642857Y-111971428D01*
X169928571Y-111971428D01*
X170071428Y-112066666D01*
X169428571Y-113209523D02*
X169571428Y-113304761D01*
X169928571Y-113304761D01*
X170071428Y-113209523D01*
X170142857Y-113019047D01*
X170142857Y-112828571D01*
X170071428Y-112638095D01*
X169928571Y-112542857D01*
X169571428Y-112542857D01*
X169428571Y-112447619D01*
X168714285Y-111971428D02*
X168714285Y-113971428D01*
X168714285Y-112066666D02*
X168571428Y-111971428D01*
X168285714Y-111971428D01*
X168142857Y-112066666D01*
X168071428Y-112161904D01*
X168000000Y-112352380D01*
X168000000Y-112923809D01*
X168071428Y-113114285D01*
X168142857Y-113209523D01*
X168285714Y-113304761D01*
X168571428Y-113304761D01*
X168714285Y-113209523D01*
X166285714Y-111495238D02*
X166214285Y-111400000D01*
X166071428Y-111304761D01*
X165714285Y-111304761D01*
X165571428Y-111400000D01*
X165500000Y-111495238D01*
X165428571Y-111685714D01*
X165428571Y-111876190D01*
X165500000Y-112161904D01*
X166357142Y-113304761D01*
X165428571Y-113304761D01*
X164785714Y-113304761D02*
X164785714Y-111304761D01*
X164642857Y-112542857D02*
X164214285Y-113304761D01*
X164214285Y-111971428D02*
X164785714Y-112733333D01*
X163785714Y-111304761D02*
X163285714Y-113304761D01*
X162785714Y-111304761D01*
X161142857Y-113304761D02*
X161142857Y-111971428D01*
X161142857Y-112352380D02*
X161071428Y-112161904D01*
X161000000Y-112066666D01*
X160857142Y-111971428D01*
X160714285Y-111971428D01*
X159642857Y-113209523D02*
X159785714Y-113304761D01*
X160071428Y-113304761D01*
X160214285Y-113209523D01*
X160285714Y-113019047D01*
X160285714Y-112257142D01*
X160214285Y-112066666D01*
X160071428Y-111971428D01*
X159785714Y-111971428D01*
X159642857Y-112066666D01*
X159571428Y-112257142D01*
X159571428Y-112447619D01*
X160285714Y-112638095D01*
X158285714Y-113209523D02*
X158428571Y-113304761D01*
X158714285Y-113304761D01*
X158857142Y-113209523D01*
X158928571Y-113114285D01*
X159000000Y-112923809D01*
X159000000Y-112352380D01*
X158928571Y-112161904D01*
X158857142Y-112066666D01*
X158714285Y-111971428D01*
X158428571Y-111971428D01*
X158285714Y-112066666D01*
X157857142Y-111971428D02*
X157285714Y-111971428D01*
X157642857Y-111304761D02*
X157642857Y-113019047D01*
X157571428Y-113209523D01*
X157428571Y-113304761D01*
X157285714Y-113304761D01*
X156785714Y-113304761D02*
X156785714Y-111971428D01*
X156785714Y-111304761D02*
X156857142Y-111400000D01*
X156785714Y-111495238D01*
X156714285Y-111400000D01*
X156785714Y-111304761D01*
X156785714Y-111495238D01*
X156285714Y-111971428D02*
X155714285Y-111971428D01*
X156071428Y-113304761D02*
X156071428Y-111590476D01*
X156000000Y-111400000D01*
X155857142Y-111304761D01*
X155714285Y-111304761D01*
X155214285Y-113304761D02*
X155214285Y-111971428D01*
X155214285Y-111304761D02*
X155285714Y-111400000D01*
X155214285Y-111495238D01*
X155142857Y-111400000D01*
X155214285Y-111304761D01*
X155214285Y-111495238D01*
X153928571Y-113209523D02*
X154071428Y-113304761D01*
X154357142Y-113304761D01*
X154500000Y-113209523D01*
X154571428Y-113019047D01*
X154571428Y-112257142D01*
X154500000Y-112066666D01*
X154357142Y-111971428D01*
X154071428Y-111971428D01*
X153928571Y-112066666D01*
X153857142Y-112257142D01*
X153857142Y-112447619D01*
X154571428Y-112638095D01*
X153214285Y-113304761D02*
X153214285Y-111971428D01*
X153214285Y-112352380D02*
X153142857Y-112161904D01*
X153071428Y-112066666D01*
X152928571Y-111971428D01*
X152785714Y-111971428D01*
X151285714Y-111971428D02*
X151000000Y-113304761D01*
X150714285Y-112352380D01*
X150428571Y-113304761D01*
X150142857Y-111971428D01*
X149571428Y-113304761D02*
X149571428Y-111971428D01*
X149571428Y-111304761D02*
X149642857Y-111400000D01*
X149571428Y-111495238D01*
X149500000Y-111400000D01*
X149571428Y-111304761D01*
X149571428Y-111495238D01*
X149071428Y-111971428D02*
X148500000Y-111971428D01*
X148857142Y-111304761D02*
X148857142Y-113019047D01*
X148785714Y-113209523D01*
X148642857Y-113304761D01*
X148500000Y-113304761D01*
X148000000Y-113304761D02*
X148000000Y-111304761D01*
X147357142Y-113304761D02*
X147357142Y-112257142D01*
X147428571Y-112066666D01*
X147571428Y-111971428D01*
X147785714Y-111971428D01*
X147928571Y-112066666D01*
X148000000Y-112161904D01*
X145714285Y-111971428D02*
X145142857Y-111971428D01*
X145500000Y-113304761D02*
X145500000Y-111590476D01*
X145428571Y-111400000D01*
X145285714Y-111304761D01*
X145142857Y-111304761D01*
X144428571Y-113304761D02*
X144571428Y-113209523D01*
X144642857Y-113019047D01*
X144642857Y-111304761D01*
X143214285Y-113304761D02*
X143214285Y-112257142D01*
X143285714Y-112066666D01*
X143428571Y-111971428D01*
X143714285Y-111971428D01*
X143857142Y-112066666D01*
X143214285Y-113209523D02*
X143357142Y-113304761D01*
X143714285Y-113304761D01*
X143857142Y-113209523D01*
X143928571Y-113019047D01*
X143928571Y-112828571D01*
X143857142Y-112638095D01*
X143714285Y-112542857D01*
X143357142Y-112542857D01*
X143214285Y-112447619D01*
X142571428Y-113209523D02*
X142428571Y-113304761D01*
X142142857Y-113304761D01*
X142000000Y-113209523D01*
X141928571Y-113019047D01*
X141928571Y-112923809D01*
X142000000Y-112733333D01*
X142142857Y-112638095D01*
X142357142Y-112638095D01*
X142500000Y-112542857D01*
X142571428Y-112352380D01*
X142571428Y-112257142D01*
X142500000Y-112066666D01*
X142357142Y-111971428D01*
X142142857Y-111971428D01*
X142000000Y-112066666D01*
X141285714Y-113304761D02*
X141285714Y-111304761D01*
X140642857Y-113304761D02*
X140642857Y-112257142D01*
X140714285Y-112066666D01*
X140857142Y-111971428D01*
X141071428Y-111971428D01*
X141214285Y-112066666D01*
X141285714Y-112161904D01*
X139000000Y-111971428D02*
X138428571Y-111971428D01*
X138785714Y-111304761D02*
X138785714Y-113019047D01*
X138714285Y-113209523D01*
X138571428Y-113304761D01*
X138428571Y-113304761D01*
X137928571Y-113304761D02*
X137928571Y-111971428D01*
X137928571Y-112352380D02*
X137857142Y-112161904D01*
X137785714Y-112066666D01*
X137642857Y-111971428D01*
X137500000Y-111971428D01*
X137000000Y-113304761D02*
X137000000Y-111971428D01*
X137000000Y-111304761D02*
X137071428Y-111400000D01*
X137000000Y-111495238D01*
X136928571Y-111400000D01*
X137000000Y-111304761D01*
X137000000Y-111495238D01*
X135642857Y-111971428D02*
X135642857Y-113590476D01*
X135714285Y-113780952D01*
X135785714Y-113876190D01*
X135928571Y-113971428D01*
X136142857Y-113971428D01*
X136285714Y-113876190D01*
X135642857Y-113209523D02*
X135785714Y-113304761D01*
X136071428Y-113304761D01*
X136214285Y-113209523D01*
X136285714Y-113114285D01*
X136357142Y-112923809D01*
X136357142Y-112352380D01*
X136285714Y-112161904D01*
X136214285Y-112066666D01*
X136071428Y-111971428D01*
X135785714Y-111971428D01*
X135642857Y-112066666D01*
X134285714Y-111971428D02*
X134285714Y-113590476D01*
X134357142Y-113780952D01*
X134428571Y-113876190D01*
X134571428Y-113971428D01*
X134785714Y-113971428D01*
X134928571Y-113876190D01*
X134285714Y-113209523D02*
X134428571Y-113304761D01*
X134714285Y-113304761D01*
X134857142Y-113209523D01*
X134928571Y-113114285D01*
X135000000Y-112923809D01*
X135000000Y-112352380D01*
X134928571Y-112161904D01*
X134857142Y-112066666D01*
X134714285Y-111971428D01*
X134428571Y-111971428D01*
X134285714Y-112066666D01*
X133000000Y-113209523D02*
X133142857Y-113304761D01*
X133428571Y-113304761D01*
X133571428Y-113209523D01*
X133642857Y-113019047D01*
X133642857Y-112257142D01*
X133571428Y-112066666D01*
X133428571Y-111971428D01*
X133142857Y-111971428D01*
X133000000Y-112066666D01*
X132928571Y-112257142D01*
X132928571Y-112447619D01*
X133642857Y-112638095D01*
X132285714Y-113304761D02*
X132285714Y-111971428D01*
X132285714Y-112352380D02*
X132214285Y-112161904D01*
X132142857Y-112066666D01*
X132000000Y-111971428D01*
X131857142Y-111971428D01*
D11*
X100000000Y-150000000D02*
X100000000Y-100000000D01*
X200000000Y-150000000D02*
X100000000Y-150000000D01*
X200000000Y-100000000D02*
X200000000Y-150000000D01*
X100000000Y-100000000D02*
X200000000Y-100000000D01*
M02*
