G04 #@! TF.GenerationSoftware,KiCad,Pcbnew,5.1.4-e60b266~84~ubuntu16.04.1*
G04 #@! TF.CreationDate,2019-10-09T00:35:46-05:00*
G04 #@! TF.ProjectId,8x10p,38783130-702e-46b6-9963-61645f706362,rev?*
G04 #@! TF.SameCoordinates,Original*
G04 #@! TF.FileFunction,Copper,L1,Top*
G04 #@! TF.FilePolarity,Positive*
%FSLAX46Y46*%
G04 Gerber Fmt 4.6, Leading zero omitted, Abs format (unit mm)*
G04 Created by KiCad (PCBNEW 5.1.4-e60b266~84~ubuntu16.04.1) date 2019-10-09 00:35:46*
%MOMM*%
%LPD*%
G04 APERTURE LIST*
G04 #@! TA.AperFunction,NonConductor*
%ADD10C,0.050000*%
G04 #@! TD*
G04 #@! TA.AperFunction,ComponentPad*
%ADD11C,1.998980*%
G04 #@! TD*
G04 #@! TA.AperFunction,ComponentPad*
%ADD12C,2.000000*%
G04 #@! TD*
G04 #@! TA.AperFunction,ComponentPad*
%ADD13O,2.200000X2.200000*%
G04 #@! TD*
G04 #@! TA.AperFunction,ComponentPad*
%ADD14R,2.200000X2.200000*%
G04 #@! TD*
G04 #@! TA.AperFunction,ComponentPad*
%ADD15C,2.200000*%
G04 #@! TD*
G04 #@! TA.AperFunction,Conductor*
%ADD16C,2.200000*%
G04 #@! TD*
G04 #@! TA.AperFunction,Conductor*
%ADD17C,0.150000*%
G04 #@! TD*
G04 APERTURE END LIST*
D10*
X50000000Y-100000000D02*
X50000000Y-50000000D01*
X150000000Y-100000000D02*
X50000000Y-100000000D01*
X150000000Y-50000000D02*
X150000000Y-100000000D01*
X50000000Y-50000000D02*
X150000000Y-50000000D01*
D11*
G04 #@! TO.P,HV1,1*
G04 #@! TO.N,/multiplier/HV1*
X67200000Y-75500000D03*
G04 #@! TD*
G04 #@! TO.P,IN2,1*
G04 #@! TO.N,/multiplier/IN2*
X60000000Y-89400000D03*
G04 #@! TD*
G04 #@! TO.P,IN1,1*
G04 #@! TO.N,/multiplier/IN1*
X60000000Y-57750000D03*
G04 #@! TD*
G04 #@! TO.P,HV7,1*
G04 #@! TO.N,/multiplier/HV7*
X132800000Y-71900000D03*
G04 #@! TD*
G04 #@! TO.P,OUT1,1*
G04 #@! TO.N,/multiplier/OUT1*
X140000000Y-54750000D03*
G04 #@! TD*
G04 #@! TO.P,HV0,1*
G04 #@! TO.N,/multiplier/HV0*
X60000000Y-75500000D03*
G04 #@! TD*
G04 #@! TO.P,OUT2,1*
G04 #@! TO.N,/multiplier/OUT2*
X140000000Y-92900000D03*
G04 #@! TD*
G04 #@! TO.P,HV8,1*
G04 #@! TO.N,/multiplier/HV8*
X140000000Y-71900000D03*
G04 #@! TD*
D12*
G04 #@! TO.P,C28,2*
G04 #@! TO.N,Net-(C27-Pad1)*
X130000000Y-89400000D03*
G04 #@! TO.P,C28,1*
G04 #@! TO.N,/multiplier/OUT2*
X140000000Y-89400000D03*
G04 #@! TD*
G04 #@! TO.P,C27,2*
G04 #@! TO.N,Net-(C26-Pad1)*
X120000000Y-92900000D03*
G04 #@! TO.P,C27,1*
G04 #@! TO.N,Net-(C27-Pad1)*
X130000000Y-92900000D03*
G04 #@! TD*
G04 #@! TO.P,C26,2*
G04 #@! TO.N,Net-(C25-Pad1)*
X110000000Y-89400000D03*
G04 #@! TO.P,C26,1*
G04 #@! TO.N,Net-(C26-Pad1)*
X120000000Y-89400000D03*
G04 #@! TD*
G04 #@! TO.P,C25,2*
G04 #@! TO.N,Net-(C24-Pad1)*
X100000000Y-92900000D03*
G04 #@! TO.P,C25,1*
G04 #@! TO.N,Net-(C25-Pad1)*
X110000000Y-92900000D03*
G04 #@! TD*
G04 #@! TO.P,C24,2*
G04 #@! TO.N,Net-(C23-Pad1)*
X90000000Y-89400000D03*
G04 #@! TO.P,C24,1*
G04 #@! TO.N,Net-(C24-Pad1)*
X100000000Y-89400000D03*
G04 #@! TD*
G04 #@! TO.P,C23,2*
G04 #@! TO.N,Net-(C22-Pad1)*
X80000000Y-92900000D03*
G04 #@! TO.P,C23,1*
G04 #@! TO.N,Net-(C23-Pad1)*
X90000000Y-92900000D03*
G04 #@! TD*
G04 #@! TO.P,C22,2*
G04 #@! TO.N,Net-(C21-Pad1)*
X70000000Y-89400000D03*
G04 #@! TO.P,C22,1*
G04 #@! TO.N,Net-(C22-Pad1)*
X80000000Y-89400000D03*
G04 #@! TD*
G04 #@! TO.P,C21,2*
G04 #@! TO.N,/multiplier/IN2*
X60000000Y-92900000D03*
G04 #@! TO.P,C21,1*
G04 #@! TO.N,Net-(C21-Pad1)*
X70000000Y-92900000D03*
G04 #@! TD*
G04 #@! TO.P,C18,2*
G04 #@! TO.N,/multiplier/HV7*
X130000000Y-75500000D03*
G04 #@! TO.P,C18,1*
G04 #@! TO.N,/multiplier/HV8*
X140000000Y-75500000D03*
G04 #@! TD*
G04 #@! TO.P,C17,2*
G04 #@! TO.N,Net-(C16-Pad1)*
X120000000Y-71900000D03*
G04 #@! TO.P,C17,1*
G04 #@! TO.N,/multiplier/HV7*
X130000000Y-71900000D03*
G04 #@! TD*
G04 #@! TO.P,C16,2*
G04 #@! TO.N,Net-(C15-Pad1)*
X110000000Y-75500000D03*
G04 #@! TO.P,C16,1*
G04 #@! TO.N,Net-(C16-Pad1)*
X120000000Y-75500000D03*
G04 #@! TD*
G04 #@! TO.P,C15,2*
G04 #@! TO.N,Net-(C14-Pad1)*
X100000000Y-71900000D03*
G04 #@! TO.P,C15,1*
G04 #@! TO.N,Net-(C15-Pad1)*
X110000000Y-71900000D03*
G04 #@! TD*
G04 #@! TO.P,C14,2*
G04 #@! TO.N,Net-(C13-Pad1)*
X90000000Y-75500000D03*
G04 #@! TO.P,C14,1*
G04 #@! TO.N,Net-(C14-Pad1)*
X100000000Y-75500000D03*
G04 #@! TD*
G04 #@! TO.P,C13,2*
G04 #@! TO.N,Net-(C12-Pad1)*
X80000000Y-71900000D03*
G04 #@! TO.P,C13,1*
G04 #@! TO.N,Net-(C13-Pad1)*
X90000000Y-71900000D03*
G04 #@! TD*
G04 #@! TO.P,C12,2*
G04 #@! TO.N,/multiplier/HV1*
X70000000Y-75500000D03*
G04 #@! TO.P,C12,1*
G04 #@! TO.N,Net-(C12-Pad1)*
X80000000Y-75500000D03*
G04 #@! TD*
G04 #@! TO.P,C11,2*
G04 #@! TO.N,/multiplier/HV0*
X60000000Y-71900000D03*
G04 #@! TO.P,C11,1*
G04 #@! TO.N,/multiplier/HV1*
X70000000Y-71900000D03*
G04 #@! TD*
G04 #@! TO.P,C8,2*
G04 #@! TO.N,Net-(C7-Pad1)*
X130000000Y-58000000D03*
G04 #@! TO.P,C8,1*
G04 #@! TO.N,/multiplier/OUT1*
X140000000Y-58000000D03*
G04 #@! TD*
G04 #@! TO.P,C7,2*
G04 #@! TO.N,Net-(C6-Pad1)*
X120000000Y-54500000D03*
G04 #@! TO.P,C7,1*
G04 #@! TO.N,Net-(C7-Pad1)*
X130000000Y-54500000D03*
G04 #@! TD*
G04 #@! TO.P,C6,2*
G04 #@! TO.N,Net-(C5-Pad1)*
X110000000Y-58000000D03*
G04 #@! TO.P,C6,1*
G04 #@! TO.N,Net-(C6-Pad1)*
X120000000Y-58000000D03*
G04 #@! TD*
G04 #@! TO.P,C5,2*
G04 #@! TO.N,Net-(C4-Pad1)*
X100000000Y-54540000D03*
G04 #@! TO.P,C5,1*
G04 #@! TO.N,Net-(C5-Pad1)*
X110000000Y-54540000D03*
G04 #@! TD*
G04 #@! TO.P,C4,2*
G04 #@! TO.N,Net-(C3-Pad1)*
X90000000Y-58000000D03*
G04 #@! TO.P,C4,1*
G04 #@! TO.N,Net-(C4-Pad1)*
X100000000Y-58000000D03*
G04 #@! TD*
G04 #@! TO.P,C3,2*
G04 #@! TO.N,Net-(C2-Pad1)*
X80000000Y-54500000D03*
G04 #@! TO.P,C3,1*
G04 #@! TO.N,Net-(C3-Pad1)*
X90000000Y-54500000D03*
G04 #@! TD*
G04 #@! TO.P,C2,2*
G04 #@! TO.N,Net-(C1-Pad1)*
X70000000Y-58000000D03*
G04 #@! TO.P,C2,1*
G04 #@! TO.N,Net-(C2-Pad1)*
X80000000Y-58000000D03*
G04 #@! TD*
G04 #@! TO.P,C1,2*
G04 #@! TO.N,/multiplier/IN1*
X60000000Y-54500000D03*
G04 #@! TO.P,C1,1*
G04 #@! TO.N,Net-(C1-Pad1)*
X70000000Y-54500000D03*
G04 #@! TD*
D13*
G04 #@! TO.P,D36,2*
G04 #@! TO.N,/multiplier/OUT2*
X140000000Y-86220000D03*
D14*
G04 #@! TO.P,D36,1*
G04 #@! TO.N,/multiplier/HV8*
X140000000Y-78600000D03*
G04 #@! TD*
D15*
G04 #@! TO.P,D35,2*
G04 #@! TO.N,/multiplier/HV7*
X132890000Y-79200886D03*
D16*
G04 #@! TD*
G04 #@! TO.N,/multiplier/HV7*
G04 #@! TO.C,D35*
X132890000Y-79200886D02*
X132890000Y-79200886D01*
D15*
G04 #@! TO.P,D35,1*
G04 #@! TO.N,/multiplier/OUT2*
X136700000Y-85800000D03*
D17*
G04 #@! TD*
G04 #@! TO.N,/multiplier/OUT2*
G04 #@! TO.C,D35*
G36*
X138202628Y-86202628D02*
G01*
X136297372Y-87302628D01*
X135197372Y-85397372D01*
X137102628Y-84297372D01*
X138202628Y-86202628D01*
X138202628Y-86202628D01*
G37*
D13*
G04 #@! TO.P,D34,2*
G04 #@! TO.N,Net-(C27-Pad1)*
X130000000Y-86220000D03*
D14*
G04 #@! TO.P,D34,1*
G04 #@! TO.N,/multiplier/HV7*
X130000000Y-78600000D03*
G04 #@! TD*
D15*
G04 #@! TO.P,D33,2*
G04 #@! TO.N,Net-(C16-Pad1)*
X122890000Y-79200886D03*
D16*
G04 #@! TD*
G04 #@! TO.N,Net-(C16-Pad1)*
G04 #@! TO.C,D33*
X122890000Y-79200886D02*
X122890000Y-79200886D01*
D15*
G04 #@! TO.P,D33,1*
G04 #@! TO.N,Net-(C27-Pad1)*
X126700000Y-85800000D03*
D17*
G04 #@! TD*
G04 #@! TO.N,Net-(C27-Pad1)*
G04 #@! TO.C,D33*
G36*
X128202628Y-86202628D02*
G01*
X126297372Y-87302628D01*
X125197372Y-85397372D01*
X127102628Y-84297372D01*
X128202628Y-86202628D01*
X128202628Y-86202628D01*
G37*
D13*
G04 #@! TO.P,D32,2*
G04 #@! TO.N,Net-(C26-Pad1)*
X120000000Y-86220000D03*
D14*
G04 #@! TO.P,D32,1*
G04 #@! TO.N,Net-(C16-Pad1)*
X120000000Y-78600000D03*
G04 #@! TD*
D15*
G04 #@! TO.P,D31,2*
G04 #@! TO.N,Net-(C15-Pad1)*
X112890000Y-79200886D03*
D16*
G04 #@! TD*
G04 #@! TO.N,Net-(C15-Pad1)*
G04 #@! TO.C,D31*
X112890000Y-79200886D02*
X112890000Y-79200886D01*
D15*
G04 #@! TO.P,D31,1*
G04 #@! TO.N,Net-(C26-Pad1)*
X116700000Y-85800000D03*
D17*
G04 #@! TD*
G04 #@! TO.N,Net-(C26-Pad1)*
G04 #@! TO.C,D31*
G36*
X118202628Y-86202628D02*
G01*
X116297372Y-87302628D01*
X115197372Y-85397372D01*
X117102628Y-84297372D01*
X118202628Y-86202628D01*
X118202628Y-86202628D01*
G37*
D13*
G04 #@! TO.P,D30,2*
G04 #@! TO.N,Net-(C25-Pad1)*
X110000000Y-86220000D03*
D14*
G04 #@! TO.P,D30,1*
G04 #@! TO.N,Net-(C15-Pad1)*
X110000000Y-78600000D03*
G04 #@! TD*
D15*
G04 #@! TO.P,D29,2*
G04 #@! TO.N,Net-(C14-Pad1)*
X102890000Y-79200886D03*
D16*
G04 #@! TD*
G04 #@! TO.N,Net-(C14-Pad1)*
G04 #@! TO.C,D29*
X102890000Y-79200886D02*
X102890000Y-79200886D01*
D15*
G04 #@! TO.P,D29,1*
G04 #@! TO.N,Net-(C25-Pad1)*
X106700000Y-85800000D03*
D17*
G04 #@! TD*
G04 #@! TO.N,Net-(C25-Pad1)*
G04 #@! TO.C,D29*
G36*
X108202628Y-86202628D02*
G01*
X106297372Y-87302628D01*
X105197372Y-85397372D01*
X107102628Y-84297372D01*
X108202628Y-86202628D01*
X108202628Y-86202628D01*
G37*
D13*
G04 #@! TO.P,D28,2*
G04 #@! TO.N,Net-(C24-Pad1)*
X100000000Y-86220000D03*
D14*
G04 #@! TO.P,D28,1*
G04 #@! TO.N,Net-(C14-Pad1)*
X100000000Y-78600000D03*
G04 #@! TD*
D15*
G04 #@! TO.P,D27,2*
G04 #@! TO.N,Net-(C13-Pad1)*
X92890000Y-79200886D03*
D16*
G04 #@! TD*
G04 #@! TO.N,Net-(C13-Pad1)*
G04 #@! TO.C,D27*
X92890000Y-79200886D02*
X92890000Y-79200886D01*
D15*
G04 #@! TO.P,D27,1*
G04 #@! TO.N,Net-(C24-Pad1)*
X96700000Y-85800000D03*
D17*
G04 #@! TD*
G04 #@! TO.N,Net-(C24-Pad1)*
G04 #@! TO.C,D27*
G36*
X98202628Y-86202628D02*
G01*
X96297372Y-87302628D01*
X95197372Y-85397372D01*
X97102628Y-84297372D01*
X98202628Y-86202628D01*
X98202628Y-86202628D01*
G37*
D13*
G04 #@! TO.P,D26,2*
G04 #@! TO.N,Net-(C23-Pad1)*
X90000000Y-86220000D03*
D14*
G04 #@! TO.P,D26,1*
G04 #@! TO.N,Net-(C13-Pad1)*
X90000000Y-78600000D03*
G04 #@! TD*
D15*
G04 #@! TO.P,D25,2*
G04 #@! TO.N,Net-(C12-Pad1)*
X82890000Y-79200886D03*
D16*
G04 #@! TD*
G04 #@! TO.N,Net-(C12-Pad1)*
G04 #@! TO.C,D25*
X82890000Y-79200886D02*
X82890000Y-79200886D01*
D15*
G04 #@! TO.P,D25,1*
G04 #@! TO.N,Net-(C23-Pad1)*
X86700000Y-85800000D03*
D17*
G04 #@! TD*
G04 #@! TO.N,Net-(C23-Pad1)*
G04 #@! TO.C,D25*
G36*
X88202628Y-86202628D02*
G01*
X86297372Y-87302628D01*
X85197372Y-85397372D01*
X87102628Y-84297372D01*
X88202628Y-86202628D01*
X88202628Y-86202628D01*
G37*
D13*
G04 #@! TO.P,D24,2*
G04 #@! TO.N,Net-(C22-Pad1)*
X80000000Y-86220000D03*
D14*
G04 #@! TO.P,D24,1*
G04 #@! TO.N,Net-(C12-Pad1)*
X80000000Y-78600000D03*
G04 #@! TD*
D15*
G04 #@! TO.P,D23,2*
G04 #@! TO.N,/multiplier/HV1*
X72890000Y-79200886D03*
D16*
G04 #@! TD*
G04 #@! TO.N,/multiplier/HV1*
G04 #@! TO.C,D23*
X72890000Y-79200886D02*
X72890000Y-79200886D01*
D15*
G04 #@! TO.P,D23,1*
G04 #@! TO.N,Net-(C22-Pad1)*
X76700000Y-85800000D03*
D17*
G04 #@! TD*
G04 #@! TO.N,Net-(C22-Pad1)*
G04 #@! TO.C,D23*
G36*
X78202628Y-86202628D02*
G01*
X76297372Y-87302628D01*
X75197372Y-85397372D01*
X77102628Y-84297372D01*
X78202628Y-86202628D01*
X78202628Y-86202628D01*
G37*
D13*
G04 #@! TO.P,D22,2*
G04 #@! TO.N,Net-(C21-Pad1)*
X70000000Y-86220000D03*
D14*
G04 #@! TO.P,D22,1*
G04 #@! TO.N,/multiplier/HV1*
X70000000Y-78600000D03*
G04 #@! TD*
D15*
G04 #@! TO.P,D21,2*
G04 #@! TO.N,/multiplier/HV0*
X60611846Y-79111846D03*
D16*
G04 #@! TD*
G04 #@! TO.N,/multiplier/HV0*
G04 #@! TO.C,D21*
X60611846Y-79111846D02*
X60611846Y-79111846D01*
D15*
G04 #@! TO.P,D21,1*
G04 #@! TO.N,Net-(C21-Pad1)*
X66000000Y-84500000D03*
D17*
G04 #@! TD*
G04 #@! TO.N,Net-(C21-Pad1)*
G04 #@! TO.C,D21*
G36*
X67555635Y-84500000D02*
G01*
X66000000Y-86055635D01*
X64444365Y-84500000D01*
X66000000Y-82944365D01*
X67555635Y-84500000D01*
X67555635Y-84500000D01*
G37*
D13*
G04 #@! TO.P,D16,2*
G04 #@! TO.N,/multiplier/OUT1*
X140000000Y-61100000D03*
D14*
G04 #@! TO.P,D16,1*
G04 #@! TO.N,/multiplier/HV8*
X140000000Y-68720000D03*
G04 #@! TD*
D15*
G04 #@! TO.P,D15,2*
G04 #@! TO.N,/multiplier/HV7*
X132890000Y-68399114D03*
D16*
G04 #@! TD*
G04 #@! TO.N,/multiplier/HV7*
G04 #@! TO.C,D15*
X132890000Y-68399114D02*
X132890000Y-68399114D01*
D15*
G04 #@! TO.P,D15,1*
G04 #@! TO.N,/multiplier/OUT1*
X136700000Y-61800000D03*
D17*
G04 #@! TD*
G04 #@! TO.N,/multiplier/OUT1*
G04 #@! TO.C,D15*
G36*
X136297372Y-60297372D02*
G01*
X138202628Y-61397372D01*
X137102628Y-63302628D01*
X135197372Y-62202628D01*
X136297372Y-60297372D01*
X136297372Y-60297372D01*
G37*
D13*
G04 #@! TO.P,D14,2*
G04 #@! TO.N,Net-(C7-Pad1)*
X130000000Y-61100000D03*
D14*
G04 #@! TO.P,D14,1*
G04 #@! TO.N,/multiplier/HV7*
X130000000Y-68720000D03*
G04 #@! TD*
D15*
G04 #@! TO.P,D13,2*
G04 #@! TO.N,Net-(C16-Pad1)*
X122890000Y-68399114D03*
D16*
G04 #@! TD*
G04 #@! TO.N,Net-(C16-Pad1)*
G04 #@! TO.C,D13*
X122890000Y-68399114D02*
X122890000Y-68399114D01*
D15*
G04 #@! TO.P,D13,1*
G04 #@! TO.N,Net-(C7-Pad1)*
X126700000Y-61800000D03*
D17*
G04 #@! TD*
G04 #@! TO.N,Net-(C7-Pad1)*
G04 #@! TO.C,D13*
G36*
X126297372Y-60297372D02*
G01*
X128202628Y-61397372D01*
X127102628Y-63302628D01*
X125197372Y-62202628D01*
X126297372Y-60297372D01*
X126297372Y-60297372D01*
G37*
D13*
G04 #@! TO.P,D12,2*
G04 #@! TO.N,Net-(C6-Pad1)*
X120000000Y-61100000D03*
D14*
G04 #@! TO.P,D12,1*
G04 #@! TO.N,Net-(C16-Pad1)*
X120000000Y-68720000D03*
G04 #@! TD*
D15*
G04 #@! TO.P,D11,2*
G04 #@! TO.N,Net-(C15-Pad1)*
X112890000Y-68399114D03*
D16*
G04 #@! TD*
G04 #@! TO.N,Net-(C15-Pad1)*
G04 #@! TO.C,D11*
X112890000Y-68399114D02*
X112890000Y-68399114D01*
D15*
G04 #@! TO.P,D11,1*
G04 #@! TO.N,Net-(C6-Pad1)*
X116700000Y-61800000D03*
D17*
G04 #@! TD*
G04 #@! TO.N,Net-(C6-Pad1)*
G04 #@! TO.C,D11*
G36*
X116297372Y-60297372D02*
G01*
X118202628Y-61397372D01*
X117102628Y-63302628D01*
X115197372Y-62202628D01*
X116297372Y-60297372D01*
X116297372Y-60297372D01*
G37*
D13*
G04 #@! TO.P,D10,2*
G04 #@! TO.N,Net-(C5-Pad1)*
X110000000Y-61100000D03*
D14*
G04 #@! TO.P,D10,1*
G04 #@! TO.N,Net-(C15-Pad1)*
X110000000Y-68720000D03*
G04 #@! TD*
D15*
G04 #@! TO.P,D9,2*
G04 #@! TO.N,Net-(C14-Pad1)*
X102890000Y-68399114D03*
D16*
G04 #@! TD*
G04 #@! TO.N,Net-(C14-Pad1)*
G04 #@! TO.C,D9*
X102890000Y-68399114D02*
X102890000Y-68399114D01*
D15*
G04 #@! TO.P,D9,1*
G04 #@! TO.N,Net-(C5-Pad1)*
X106700000Y-61800000D03*
D17*
G04 #@! TD*
G04 #@! TO.N,Net-(C5-Pad1)*
G04 #@! TO.C,D9*
G36*
X106297372Y-60297372D02*
G01*
X108202628Y-61397372D01*
X107102628Y-63302628D01*
X105197372Y-62202628D01*
X106297372Y-60297372D01*
X106297372Y-60297372D01*
G37*
D13*
G04 #@! TO.P,D8,2*
G04 #@! TO.N,Net-(C4-Pad1)*
X100000000Y-61100000D03*
D14*
G04 #@! TO.P,D8,1*
G04 #@! TO.N,Net-(C14-Pad1)*
X100000000Y-68720000D03*
G04 #@! TD*
D15*
G04 #@! TO.P,D7,2*
G04 #@! TO.N,Net-(C13-Pad1)*
X92890000Y-68399114D03*
D16*
G04 #@! TD*
G04 #@! TO.N,Net-(C13-Pad1)*
G04 #@! TO.C,D7*
X92890000Y-68399114D02*
X92890000Y-68399114D01*
D15*
G04 #@! TO.P,D7,1*
G04 #@! TO.N,Net-(C4-Pad1)*
X96700000Y-61800000D03*
D17*
G04 #@! TD*
G04 #@! TO.N,Net-(C4-Pad1)*
G04 #@! TO.C,D7*
G36*
X96297372Y-60297372D02*
G01*
X98202628Y-61397372D01*
X97102628Y-63302628D01*
X95197372Y-62202628D01*
X96297372Y-60297372D01*
X96297372Y-60297372D01*
G37*
D13*
G04 #@! TO.P,D6,2*
G04 #@! TO.N,Net-(C3-Pad1)*
X90000000Y-61100000D03*
D14*
G04 #@! TO.P,D6,1*
G04 #@! TO.N,Net-(C13-Pad1)*
X90000000Y-68720000D03*
G04 #@! TD*
D15*
G04 #@! TO.P,D5,2*
G04 #@! TO.N,Net-(C12-Pad1)*
X82890000Y-68399114D03*
D16*
G04 #@! TD*
G04 #@! TO.N,Net-(C12-Pad1)*
G04 #@! TO.C,D5*
X82890000Y-68399114D02*
X82890000Y-68399114D01*
D15*
G04 #@! TO.P,D5,1*
G04 #@! TO.N,Net-(C3-Pad1)*
X86700000Y-61800000D03*
D17*
G04 #@! TD*
G04 #@! TO.N,Net-(C3-Pad1)*
G04 #@! TO.C,D5*
G36*
X86297372Y-60297372D02*
G01*
X88202628Y-61397372D01*
X87102628Y-63302628D01*
X85197372Y-62202628D01*
X86297372Y-60297372D01*
X86297372Y-60297372D01*
G37*
D13*
G04 #@! TO.P,D4,2*
G04 #@! TO.N,Net-(C2-Pad1)*
X80000000Y-61100000D03*
D14*
G04 #@! TO.P,D4,1*
G04 #@! TO.N,Net-(C12-Pad1)*
X80000000Y-68720000D03*
G04 #@! TD*
D15*
G04 #@! TO.P,D3,2*
G04 #@! TO.N,/multiplier/HV1*
X72890000Y-68399114D03*
D16*
G04 #@! TD*
G04 #@! TO.N,/multiplier/HV1*
G04 #@! TO.C,D3*
X72890000Y-68399114D02*
X72890000Y-68399114D01*
D15*
G04 #@! TO.P,D3,1*
G04 #@! TO.N,Net-(C2-Pad1)*
X76700000Y-61800000D03*
D17*
G04 #@! TD*
G04 #@! TO.N,Net-(C2-Pad1)*
G04 #@! TO.C,D3*
G36*
X76297372Y-60297372D02*
G01*
X78202628Y-61397372D01*
X77102628Y-63302628D01*
X75197372Y-62202628D01*
X76297372Y-60297372D01*
X76297372Y-60297372D01*
G37*
D13*
G04 #@! TO.P,D2,2*
G04 #@! TO.N,Net-(C1-Pad1)*
X70000000Y-61130000D03*
D14*
G04 #@! TO.P,D2,1*
G04 #@! TO.N,/multiplier/HV1*
X70000000Y-68750000D03*
G04 #@! TD*
D15*
G04 #@! TO.P,D1,2*
G04 #@! TO.N,/multiplier/HV0*
X60611846Y-67888154D03*
D16*
G04 #@! TD*
G04 #@! TO.N,/multiplier/HV0*
G04 #@! TO.C,D1*
X60611846Y-67888154D02*
X60611846Y-67888154D01*
D15*
G04 #@! TO.P,D1,1*
G04 #@! TO.N,Net-(C1-Pad1)*
X66000000Y-62500000D03*
D17*
G04 #@! TD*
G04 #@! TO.N,Net-(C1-Pad1)*
G04 #@! TO.C,D1*
G36*
X66000000Y-60944365D02*
G01*
X67555635Y-62500000D01*
X66000000Y-64055635D01*
X64444365Y-62500000D01*
X66000000Y-60944365D01*
X66000000Y-60944365D01*
G37*
M02*
