G04 #@! TF.GenerationSoftware,KiCad,Pcbnew,5.1.4-e60b266~84~ubuntu16.04.1*
G04 #@! TF.CreationDate,2019-10-09T00:35:46-05:00*
G04 #@! TF.ProjectId,8x10p,38783130-702e-46b6-9963-61645f706362,rev?*
G04 #@! TF.SameCoordinates,Original*
G04 #@! TF.FileFunction,Soldermask,Bot*
G04 #@! TF.FilePolarity,Negative*
%FSLAX46Y46*%
G04 Gerber Fmt 4.6, Leading zero omitted, Abs format (unit mm)*
G04 Created by KiCad (PCBNEW 5.1.4-e60b266~84~ubuntu16.04.1) date 2019-10-09 00:35:46*
%MOMM*%
%LPD*%
G04 APERTURE LIST*
%ADD10C,0.050000*%
%ADD11C,0.150000*%
G04 APERTURE END LIST*
D10*
X50000000Y-100000000D02*
X50000000Y-50000000D01*
X150000000Y-100000000D02*
X50000000Y-100000000D01*
X150000000Y-50000000D02*
X150000000Y-100000000D01*
X50000000Y-50000000D02*
X150000000Y-50000000D01*
D11*
G36*
X145375256Y-93391298D02*
G01*
X145481579Y-93412447D01*
X145782042Y-93536903D01*
X146052451Y-93717585D01*
X146282415Y-93947549D01*
X146463097Y-94217958D01*
X146587553Y-94518421D01*
X146651000Y-94837391D01*
X146651000Y-95162609D01*
X146587553Y-95481579D01*
X146463097Y-95782042D01*
X146282415Y-96052451D01*
X146052451Y-96282415D01*
X145782042Y-96463097D01*
X145481579Y-96587553D01*
X145375256Y-96608702D01*
X145162611Y-96651000D01*
X144837389Y-96651000D01*
X144624744Y-96608702D01*
X144518421Y-96587553D01*
X144217958Y-96463097D01*
X143947549Y-96282415D01*
X143717585Y-96052451D01*
X143536903Y-95782042D01*
X143412447Y-95481579D01*
X143349000Y-95162609D01*
X143349000Y-94837391D01*
X143412447Y-94518421D01*
X143536903Y-94217958D01*
X143717585Y-93947549D01*
X143947549Y-93717585D01*
X144217958Y-93536903D01*
X144518421Y-93412447D01*
X144624744Y-93391298D01*
X144837389Y-93349000D01*
X145162611Y-93349000D01*
X145375256Y-93391298D01*
X145375256Y-93391298D01*
G37*
G36*
X55375256Y-93391298D02*
G01*
X55481579Y-93412447D01*
X55782042Y-93536903D01*
X56052451Y-93717585D01*
X56282415Y-93947549D01*
X56463097Y-94217958D01*
X56587553Y-94518421D01*
X56651000Y-94837391D01*
X56651000Y-95162609D01*
X56587553Y-95481579D01*
X56463097Y-95782042D01*
X56282415Y-96052451D01*
X56052451Y-96282415D01*
X55782042Y-96463097D01*
X55481579Y-96587553D01*
X55375256Y-96608702D01*
X55162611Y-96651000D01*
X54837389Y-96651000D01*
X54624744Y-96608702D01*
X54518421Y-96587553D01*
X54217958Y-96463097D01*
X53947549Y-96282415D01*
X53717585Y-96052451D01*
X53536903Y-95782042D01*
X53412447Y-95481579D01*
X53349000Y-95162609D01*
X53349000Y-94837391D01*
X53412447Y-94518421D01*
X53536903Y-94217958D01*
X53717585Y-93947549D01*
X53947549Y-93717585D01*
X54217958Y-93536903D01*
X54518421Y-93412447D01*
X54624744Y-93391298D01*
X54837389Y-93349000D01*
X55162611Y-93349000D01*
X55375256Y-93391298D01*
X55375256Y-93391298D01*
G37*
G36*
X110306564Y-91889389D02*
G01*
X110497833Y-91968615D01*
X110497835Y-91968616D01*
X110498511Y-91969068D01*
X110669973Y-92083635D01*
X110816365Y-92230027D01*
X110931385Y-92402167D01*
X111010611Y-92593436D01*
X111051000Y-92796484D01*
X111051000Y-93003516D01*
X111010611Y-93206564D01*
X110951612Y-93349000D01*
X110931384Y-93397835D01*
X110816365Y-93569973D01*
X110669973Y-93716365D01*
X110497835Y-93831384D01*
X110497834Y-93831385D01*
X110497833Y-93831385D01*
X110306564Y-93910611D01*
X110103516Y-93951000D01*
X109896484Y-93951000D01*
X109693436Y-93910611D01*
X109502167Y-93831385D01*
X109502166Y-93831385D01*
X109502165Y-93831384D01*
X109330027Y-93716365D01*
X109183635Y-93569973D01*
X109068616Y-93397835D01*
X109048388Y-93349000D01*
X108989389Y-93206564D01*
X108949000Y-93003516D01*
X108949000Y-92796484D01*
X108989389Y-92593436D01*
X109068615Y-92402167D01*
X109183635Y-92230027D01*
X109330027Y-92083635D01*
X109501489Y-91969068D01*
X109502165Y-91968616D01*
X109502167Y-91968615D01*
X109693436Y-91889389D01*
X109896484Y-91849000D01*
X110103516Y-91849000D01*
X110306564Y-91889389D01*
X110306564Y-91889389D01*
G37*
G36*
X70306564Y-91889389D02*
G01*
X70497833Y-91968615D01*
X70497835Y-91968616D01*
X70498511Y-91969068D01*
X70669973Y-92083635D01*
X70816365Y-92230027D01*
X70931385Y-92402167D01*
X71010611Y-92593436D01*
X71051000Y-92796484D01*
X71051000Y-93003516D01*
X71010611Y-93206564D01*
X70951612Y-93349000D01*
X70931384Y-93397835D01*
X70816365Y-93569973D01*
X70669973Y-93716365D01*
X70497835Y-93831384D01*
X70497834Y-93831385D01*
X70497833Y-93831385D01*
X70306564Y-93910611D01*
X70103516Y-93951000D01*
X69896484Y-93951000D01*
X69693436Y-93910611D01*
X69502167Y-93831385D01*
X69502166Y-93831385D01*
X69502165Y-93831384D01*
X69330027Y-93716365D01*
X69183635Y-93569973D01*
X69068616Y-93397835D01*
X69048388Y-93349000D01*
X68989389Y-93206564D01*
X68949000Y-93003516D01*
X68949000Y-92796484D01*
X68989389Y-92593436D01*
X69068615Y-92402167D01*
X69183635Y-92230027D01*
X69330027Y-92083635D01*
X69501489Y-91969068D01*
X69502165Y-91968616D01*
X69502167Y-91968615D01*
X69693436Y-91889389D01*
X69896484Y-91849000D01*
X70103516Y-91849000D01*
X70306564Y-91889389D01*
X70306564Y-91889389D01*
G37*
G36*
X60306564Y-91889389D02*
G01*
X60497833Y-91968615D01*
X60497835Y-91968616D01*
X60498511Y-91969068D01*
X60669973Y-92083635D01*
X60816365Y-92230027D01*
X60931385Y-92402167D01*
X61010611Y-92593436D01*
X61051000Y-92796484D01*
X61051000Y-93003516D01*
X61010611Y-93206564D01*
X60951612Y-93349000D01*
X60931384Y-93397835D01*
X60816365Y-93569973D01*
X60669973Y-93716365D01*
X60497835Y-93831384D01*
X60497834Y-93831385D01*
X60497833Y-93831385D01*
X60306564Y-93910611D01*
X60103516Y-93951000D01*
X59896484Y-93951000D01*
X59693436Y-93910611D01*
X59502167Y-93831385D01*
X59502166Y-93831385D01*
X59502165Y-93831384D01*
X59330027Y-93716365D01*
X59183635Y-93569973D01*
X59068616Y-93397835D01*
X59048388Y-93349000D01*
X58989389Y-93206564D01*
X58949000Y-93003516D01*
X58949000Y-92796484D01*
X58989389Y-92593436D01*
X59068615Y-92402167D01*
X59183635Y-92230027D01*
X59330027Y-92083635D01*
X59501489Y-91969068D01*
X59502165Y-91968616D01*
X59502167Y-91968615D01*
X59693436Y-91889389D01*
X59896484Y-91849000D01*
X60103516Y-91849000D01*
X60306564Y-91889389D01*
X60306564Y-91889389D01*
G37*
G36*
X90306564Y-91889389D02*
G01*
X90497833Y-91968615D01*
X90497835Y-91968616D01*
X90498511Y-91969068D01*
X90669973Y-92083635D01*
X90816365Y-92230027D01*
X90931385Y-92402167D01*
X91010611Y-92593436D01*
X91051000Y-92796484D01*
X91051000Y-93003516D01*
X91010611Y-93206564D01*
X90951612Y-93349000D01*
X90931384Y-93397835D01*
X90816365Y-93569973D01*
X90669973Y-93716365D01*
X90497835Y-93831384D01*
X90497834Y-93831385D01*
X90497833Y-93831385D01*
X90306564Y-93910611D01*
X90103516Y-93951000D01*
X89896484Y-93951000D01*
X89693436Y-93910611D01*
X89502167Y-93831385D01*
X89502166Y-93831385D01*
X89502165Y-93831384D01*
X89330027Y-93716365D01*
X89183635Y-93569973D01*
X89068616Y-93397835D01*
X89048388Y-93349000D01*
X88989389Y-93206564D01*
X88949000Y-93003516D01*
X88949000Y-92796484D01*
X88989389Y-92593436D01*
X89068615Y-92402167D01*
X89183635Y-92230027D01*
X89330027Y-92083635D01*
X89501489Y-91969068D01*
X89502165Y-91968616D01*
X89502167Y-91968615D01*
X89693436Y-91889389D01*
X89896484Y-91849000D01*
X90103516Y-91849000D01*
X90306564Y-91889389D01*
X90306564Y-91889389D01*
G37*
G36*
X80306564Y-91889389D02*
G01*
X80497833Y-91968615D01*
X80497835Y-91968616D01*
X80498511Y-91969068D01*
X80669973Y-92083635D01*
X80816365Y-92230027D01*
X80931385Y-92402167D01*
X81010611Y-92593436D01*
X81051000Y-92796484D01*
X81051000Y-93003516D01*
X81010611Y-93206564D01*
X80951612Y-93349000D01*
X80931384Y-93397835D01*
X80816365Y-93569973D01*
X80669973Y-93716365D01*
X80497835Y-93831384D01*
X80497834Y-93831385D01*
X80497833Y-93831385D01*
X80306564Y-93910611D01*
X80103516Y-93951000D01*
X79896484Y-93951000D01*
X79693436Y-93910611D01*
X79502167Y-93831385D01*
X79502166Y-93831385D01*
X79502165Y-93831384D01*
X79330027Y-93716365D01*
X79183635Y-93569973D01*
X79068616Y-93397835D01*
X79048388Y-93349000D01*
X78989389Y-93206564D01*
X78949000Y-93003516D01*
X78949000Y-92796484D01*
X78989389Y-92593436D01*
X79068615Y-92402167D01*
X79183635Y-92230027D01*
X79330027Y-92083635D01*
X79501489Y-91969068D01*
X79502165Y-91968616D01*
X79502167Y-91968615D01*
X79693436Y-91889389D01*
X79896484Y-91849000D01*
X80103516Y-91849000D01*
X80306564Y-91889389D01*
X80306564Y-91889389D01*
G37*
G36*
X100306564Y-91889389D02*
G01*
X100497833Y-91968615D01*
X100497835Y-91968616D01*
X100498511Y-91969068D01*
X100669973Y-92083635D01*
X100816365Y-92230027D01*
X100931385Y-92402167D01*
X101010611Y-92593436D01*
X101051000Y-92796484D01*
X101051000Y-93003516D01*
X101010611Y-93206564D01*
X100951612Y-93349000D01*
X100931384Y-93397835D01*
X100816365Y-93569973D01*
X100669973Y-93716365D01*
X100497835Y-93831384D01*
X100497834Y-93831385D01*
X100497833Y-93831385D01*
X100306564Y-93910611D01*
X100103516Y-93951000D01*
X99896484Y-93951000D01*
X99693436Y-93910611D01*
X99502167Y-93831385D01*
X99502166Y-93831385D01*
X99502165Y-93831384D01*
X99330027Y-93716365D01*
X99183635Y-93569973D01*
X99068616Y-93397835D01*
X99048388Y-93349000D01*
X98989389Y-93206564D01*
X98949000Y-93003516D01*
X98949000Y-92796484D01*
X98989389Y-92593436D01*
X99068615Y-92402167D01*
X99183635Y-92230027D01*
X99330027Y-92083635D01*
X99501489Y-91969068D01*
X99502165Y-91968616D01*
X99502167Y-91968615D01*
X99693436Y-91889389D01*
X99896484Y-91849000D01*
X100103516Y-91849000D01*
X100306564Y-91889389D01*
X100306564Y-91889389D01*
G37*
G36*
X130306564Y-91889389D02*
G01*
X130497833Y-91968615D01*
X130497835Y-91968616D01*
X130498511Y-91969068D01*
X130669973Y-92083635D01*
X130816365Y-92230027D01*
X130931385Y-92402167D01*
X131010611Y-92593436D01*
X131051000Y-92796484D01*
X131051000Y-93003516D01*
X131010611Y-93206564D01*
X130951612Y-93349000D01*
X130931384Y-93397835D01*
X130816365Y-93569973D01*
X130669973Y-93716365D01*
X130497835Y-93831384D01*
X130497834Y-93831385D01*
X130497833Y-93831385D01*
X130306564Y-93910611D01*
X130103516Y-93951000D01*
X129896484Y-93951000D01*
X129693436Y-93910611D01*
X129502167Y-93831385D01*
X129502166Y-93831385D01*
X129502165Y-93831384D01*
X129330027Y-93716365D01*
X129183635Y-93569973D01*
X129068616Y-93397835D01*
X129048388Y-93349000D01*
X128989389Y-93206564D01*
X128949000Y-93003516D01*
X128949000Y-92796484D01*
X128989389Y-92593436D01*
X129068615Y-92402167D01*
X129183635Y-92230027D01*
X129330027Y-92083635D01*
X129501489Y-91969068D01*
X129502165Y-91968616D01*
X129502167Y-91968615D01*
X129693436Y-91889389D01*
X129896484Y-91849000D01*
X130103516Y-91849000D01*
X130306564Y-91889389D01*
X130306564Y-91889389D01*
G37*
G36*
X120306564Y-91889389D02*
G01*
X120497833Y-91968615D01*
X120497835Y-91968616D01*
X120498511Y-91969068D01*
X120669973Y-92083635D01*
X120816365Y-92230027D01*
X120931385Y-92402167D01*
X121010611Y-92593436D01*
X121051000Y-92796484D01*
X121051000Y-93003516D01*
X121010611Y-93206564D01*
X120951612Y-93349000D01*
X120931384Y-93397835D01*
X120816365Y-93569973D01*
X120669973Y-93716365D01*
X120497835Y-93831384D01*
X120497834Y-93831385D01*
X120497833Y-93831385D01*
X120306564Y-93910611D01*
X120103516Y-93951000D01*
X119896484Y-93951000D01*
X119693436Y-93910611D01*
X119502167Y-93831385D01*
X119502166Y-93831385D01*
X119502165Y-93831384D01*
X119330027Y-93716365D01*
X119183635Y-93569973D01*
X119068616Y-93397835D01*
X119048388Y-93349000D01*
X118989389Y-93206564D01*
X118949000Y-93003516D01*
X118949000Y-92796484D01*
X118989389Y-92593436D01*
X119068615Y-92402167D01*
X119183635Y-92230027D01*
X119330027Y-92083635D01*
X119501489Y-91969068D01*
X119502165Y-91968616D01*
X119502167Y-91968615D01*
X119693436Y-91889389D01*
X119896484Y-91849000D01*
X120103516Y-91849000D01*
X120306564Y-91889389D01*
X120306564Y-91889389D01*
G37*
G36*
X140306416Y-91889879D02*
G01*
X140496503Y-91968616D01*
X140497594Y-91969068D01*
X140669055Y-92083635D01*
X140669648Y-92084031D01*
X140815969Y-92230352D01*
X140930933Y-92402408D01*
X141010121Y-92593584D01*
X141050490Y-92796534D01*
X141050490Y-93003466D01*
X141010121Y-93206416D01*
X140930933Y-93397592D01*
X140930932Y-93397594D01*
X140815969Y-93569648D01*
X140669648Y-93715969D01*
X140497594Y-93830932D01*
X140497593Y-93830933D01*
X140497592Y-93830933D01*
X140306416Y-93910121D01*
X140103466Y-93950490D01*
X139896534Y-93950490D01*
X139693584Y-93910121D01*
X139502408Y-93830933D01*
X139502407Y-93830933D01*
X139502406Y-93830932D01*
X139330352Y-93715969D01*
X139184031Y-93569648D01*
X139069068Y-93397594D01*
X139069067Y-93397592D01*
X138989879Y-93206416D01*
X138949510Y-93003466D01*
X138949510Y-92796534D01*
X138989879Y-92593584D01*
X139069067Y-92402408D01*
X139184031Y-92230352D01*
X139330352Y-92084031D01*
X139330945Y-92083635D01*
X139502406Y-91969068D01*
X139503497Y-91968616D01*
X139693584Y-91889879D01*
X139896534Y-91849510D01*
X140103466Y-91849510D01*
X140306416Y-91889879D01*
X140306416Y-91889879D01*
G37*
G36*
X90306564Y-88389389D02*
G01*
X90497833Y-88468615D01*
X90497835Y-88468616D01*
X90498511Y-88469068D01*
X90669973Y-88583635D01*
X90816365Y-88730027D01*
X90931385Y-88902167D01*
X91010611Y-89093436D01*
X91051000Y-89296484D01*
X91051000Y-89503516D01*
X91010611Y-89706564D01*
X90931485Y-89897592D01*
X90931384Y-89897835D01*
X90816365Y-90069973D01*
X90669973Y-90216365D01*
X90497835Y-90331384D01*
X90497834Y-90331385D01*
X90497833Y-90331385D01*
X90306564Y-90410611D01*
X90103516Y-90451000D01*
X89896484Y-90451000D01*
X89693436Y-90410611D01*
X89502167Y-90331385D01*
X89502166Y-90331385D01*
X89502165Y-90331384D01*
X89330027Y-90216365D01*
X89183635Y-90069973D01*
X89068616Y-89897835D01*
X89068515Y-89897592D01*
X88989389Y-89706564D01*
X88949000Y-89503516D01*
X88949000Y-89296484D01*
X88989389Y-89093436D01*
X89068615Y-88902167D01*
X89183635Y-88730027D01*
X89330027Y-88583635D01*
X89501489Y-88469068D01*
X89502165Y-88468616D01*
X89502167Y-88468615D01*
X89693436Y-88389389D01*
X89896484Y-88349000D01*
X90103516Y-88349000D01*
X90306564Y-88389389D01*
X90306564Y-88389389D01*
G37*
G36*
X80306564Y-88389389D02*
G01*
X80497833Y-88468615D01*
X80497835Y-88468616D01*
X80498511Y-88469068D01*
X80669973Y-88583635D01*
X80816365Y-88730027D01*
X80931385Y-88902167D01*
X81010611Y-89093436D01*
X81051000Y-89296484D01*
X81051000Y-89503516D01*
X81010611Y-89706564D01*
X80931485Y-89897592D01*
X80931384Y-89897835D01*
X80816365Y-90069973D01*
X80669973Y-90216365D01*
X80497835Y-90331384D01*
X80497834Y-90331385D01*
X80497833Y-90331385D01*
X80306564Y-90410611D01*
X80103516Y-90451000D01*
X79896484Y-90451000D01*
X79693436Y-90410611D01*
X79502167Y-90331385D01*
X79502166Y-90331385D01*
X79502165Y-90331384D01*
X79330027Y-90216365D01*
X79183635Y-90069973D01*
X79068616Y-89897835D01*
X79068515Y-89897592D01*
X78989389Y-89706564D01*
X78949000Y-89503516D01*
X78949000Y-89296484D01*
X78989389Y-89093436D01*
X79068615Y-88902167D01*
X79183635Y-88730027D01*
X79330027Y-88583635D01*
X79501489Y-88469068D01*
X79502165Y-88468616D01*
X79502167Y-88468615D01*
X79693436Y-88389389D01*
X79896484Y-88349000D01*
X80103516Y-88349000D01*
X80306564Y-88389389D01*
X80306564Y-88389389D01*
G37*
G36*
X70306564Y-88389389D02*
G01*
X70497833Y-88468615D01*
X70497835Y-88468616D01*
X70498511Y-88469068D01*
X70669973Y-88583635D01*
X70816365Y-88730027D01*
X70931385Y-88902167D01*
X71010611Y-89093436D01*
X71051000Y-89296484D01*
X71051000Y-89503516D01*
X71010611Y-89706564D01*
X70931485Y-89897592D01*
X70931384Y-89897835D01*
X70816365Y-90069973D01*
X70669973Y-90216365D01*
X70497835Y-90331384D01*
X70497834Y-90331385D01*
X70497833Y-90331385D01*
X70306564Y-90410611D01*
X70103516Y-90451000D01*
X69896484Y-90451000D01*
X69693436Y-90410611D01*
X69502167Y-90331385D01*
X69502166Y-90331385D01*
X69502165Y-90331384D01*
X69330027Y-90216365D01*
X69183635Y-90069973D01*
X69068616Y-89897835D01*
X69068515Y-89897592D01*
X68989389Y-89706564D01*
X68949000Y-89503516D01*
X68949000Y-89296484D01*
X68989389Y-89093436D01*
X69068615Y-88902167D01*
X69183635Y-88730027D01*
X69330027Y-88583635D01*
X69501489Y-88469068D01*
X69502165Y-88468616D01*
X69502167Y-88468615D01*
X69693436Y-88389389D01*
X69896484Y-88349000D01*
X70103516Y-88349000D01*
X70306564Y-88389389D01*
X70306564Y-88389389D01*
G37*
G36*
X130306564Y-88389389D02*
G01*
X130497833Y-88468615D01*
X130497835Y-88468616D01*
X130498511Y-88469068D01*
X130669973Y-88583635D01*
X130816365Y-88730027D01*
X130931385Y-88902167D01*
X131010611Y-89093436D01*
X131051000Y-89296484D01*
X131051000Y-89503516D01*
X131010611Y-89706564D01*
X130931485Y-89897592D01*
X130931384Y-89897835D01*
X130816365Y-90069973D01*
X130669973Y-90216365D01*
X130497835Y-90331384D01*
X130497834Y-90331385D01*
X130497833Y-90331385D01*
X130306564Y-90410611D01*
X130103516Y-90451000D01*
X129896484Y-90451000D01*
X129693436Y-90410611D01*
X129502167Y-90331385D01*
X129502166Y-90331385D01*
X129502165Y-90331384D01*
X129330027Y-90216365D01*
X129183635Y-90069973D01*
X129068616Y-89897835D01*
X129068515Y-89897592D01*
X128989389Y-89706564D01*
X128949000Y-89503516D01*
X128949000Y-89296484D01*
X128989389Y-89093436D01*
X129068615Y-88902167D01*
X129183635Y-88730027D01*
X129330027Y-88583635D01*
X129501489Y-88469068D01*
X129502165Y-88468616D01*
X129502167Y-88468615D01*
X129693436Y-88389389D01*
X129896484Y-88349000D01*
X130103516Y-88349000D01*
X130306564Y-88389389D01*
X130306564Y-88389389D01*
G37*
G36*
X110306564Y-88389389D02*
G01*
X110497833Y-88468615D01*
X110497835Y-88468616D01*
X110498511Y-88469068D01*
X110669973Y-88583635D01*
X110816365Y-88730027D01*
X110931385Y-88902167D01*
X111010611Y-89093436D01*
X111051000Y-89296484D01*
X111051000Y-89503516D01*
X111010611Y-89706564D01*
X110931485Y-89897592D01*
X110931384Y-89897835D01*
X110816365Y-90069973D01*
X110669973Y-90216365D01*
X110497835Y-90331384D01*
X110497834Y-90331385D01*
X110497833Y-90331385D01*
X110306564Y-90410611D01*
X110103516Y-90451000D01*
X109896484Y-90451000D01*
X109693436Y-90410611D01*
X109502167Y-90331385D01*
X109502166Y-90331385D01*
X109502165Y-90331384D01*
X109330027Y-90216365D01*
X109183635Y-90069973D01*
X109068616Y-89897835D01*
X109068515Y-89897592D01*
X108989389Y-89706564D01*
X108949000Y-89503516D01*
X108949000Y-89296484D01*
X108989389Y-89093436D01*
X109068615Y-88902167D01*
X109183635Y-88730027D01*
X109330027Y-88583635D01*
X109501489Y-88469068D01*
X109502165Y-88468616D01*
X109502167Y-88468615D01*
X109693436Y-88389389D01*
X109896484Y-88349000D01*
X110103516Y-88349000D01*
X110306564Y-88389389D01*
X110306564Y-88389389D01*
G37*
G36*
X120306564Y-88389389D02*
G01*
X120497833Y-88468615D01*
X120497835Y-88468616D01*
X120498511Y-88469068D01*
X120669973Y-88583635D01*
X120816365Y-88730027D01*
X120931385Y-88902167D01*
X121010611Y-89093436D01*
X121051000Y-89296484D01*
X121051000Y-89503516D01*
X121010611Y-89706564D01*
X120931485Y-89897592D01*
X120931384Y-89897835D01*
X120816365Y-90069973D01*
X120669973Y-90216365D01*
X120497835Y-90331384D01*
X120497834Y-90331385D01*
X120497833Y-90331385D01*
X120306564Y-90410611D01*
X120103516Y-90451000D01*
X119896484Y-90451000D01*
X119693436Y-90410611D01*
X119502167Y-90331385D01*
X119502166Y-90331385D01*
X119502165Y-90331384D01*
X119330027Y-90216365D01*
X119183635Y-90069973D01*
X119068616Y-89897835D01*
X119068515Y-89897592D01*
X118989389Y-89706564D01*
X118949000Y-89503516D01*
X118949000Y-89296484D01*
X118989389Y-89093436D01*
X119068615Y-88902167D01*
X119183635Y-88730027D01*
X119330027Y-88583635D01*
X119501489Y-88469068D01*
X119502165Y-88468616D01*
X119502167Y-88468615D01*
X119693436Y-88389389D01*
X119896484Y-88349000D01*
X120103516Y-88349000D01*
X120306564Y-88389389D01*
X120306564Y-88389389D01*
G37*
G36*
X140306564Y-88389389D02*
G01*
X140497833Y-88468615D01*
X140497835Y-88468616D01*
X140498511Y-88469068D01*
X140669973Y-88583635D01*
X140816365Y-88730027D01*
X140931385Y-88902167D01*
X141010611Y-89093436D01*
X141051000Y-89296484D01*
X141051000Y-89503516D01*
X141010611Y-89706564D01*
X140931485Y-89897592D01*
X140931384Y-89897835D01*
X140816365Y-90069973D01*
X140669973Y-90216365D01*
X140497835Y-90331384D01*
X140497834Y-90331385D01*
X140497833Y-90331385D01*
X140306564Y-90410611D01*
X140103516Y-90451000D01*
X139896484Y-90451000D01*
X139693436Y-90410611D01*
X139502167Y-90331385D01*
X139502166Y-90331385D01*
X139502165Y-90331384D01*
X139330027Y-90216365D01*
X139183635Y-90069973D01*
X139068616Y-89897835D01*
X139068515Y-89897592D01*
X138989389Y-89706564D01*
X138949000Y-89503516D01*
X138949000Y-89296484D01*
X138989389Y-89093436D01*
X139068615Y-88902167D01*
X139183635Y-88730027D01*
X139330027Y-88583635D01*
X139501489Y-88469068D01*
X139502165Y-88468616D01*
X139502167Y-88468615D01*
X139693436Y-88389389D01*
X139896484Y-88349000D01*
X140103516Y-88349000D01*
X140306564Y-88389389D01*
X140306564Y-88389389D01*
G37*
G36*
X100306564Y-88389389D02*
G01*
X100497833Y-88468615D01*
X100497835Y-88468616D01*
X100498511Y-88469068D01*
X100669973Y-88583635D01*
X100816365Y-88730027D01*
X100931385Y-88902167D01*
X101010611Y-89093436D01*
X101051000Y-89296484D01*
X101051000Y-89503516D01*
X101010611Y-89706564D01*
X100931485Y-89897592D01*
X100931384Y-89897835D01*
X100816365Y-90069973D01*
X100669973Y-90216365D01*
X100497835Y-90331384D01*
X100497834Y-90331385D01*
X100497833Y-90331385D01*
X100306564Y-90410611D01*
X100103516Y-90451000D01*
X99896484Y-90451000D01*
X99693436Y-90410611D01*
X99502167Y-90331385D01*
X99502166Y-90331385D01*
X99502165Y-90331384D01*
X99330027Y-90216365D01*
X99183635Y-90069973D01*
X99068616Y-89897835D01*
X99068515Y-89897592D01*
X98989389Y-89706564D01*
X98949000Y-89503516D01*
X98949000Y-89296484D01*
X98989389Y-89093436D01*
X99068615Y-88902167D01*
X99183635Y-88730027D01*
X99330027Y-88583635D01*
X99501489Y-88469068D01*
X99502165Y-88468616D01*
X99502167Y-88468615D01*
X99693436Y-88389389D01*
X99896484Y-88349000D01*
X100103516Y-88349000D01*
X100306564Y-88389389D01*
X100306564Y-88389389D01*
G37*
G36*
X60306416Y-88389879D02*
G01*
X60496503Y-88468616D01*
X60497594Y-88469068D01*
X60669055Y-88583635D01*
X60669648Y-88584031D01*
X60815969Y-88730352D01*
X60930933Y-88902408D01*
X61010121Y-89093584D01*
X61050490Y-89296534D01*
X61050490Y-89503466D01*
X61010121Y-89706416D01*
X61010059Y-89706565D01*
X60930932Y-89897594D01*
X60815969Y-90069648D01*
X60669648Y-90215969D01*
X60497594Y-90330932D01*
X60497593Y-90330933D01*
X60497592Y-90330933D01*
X60306416Y-90410121D01*
X60103466Y-90450490D01*
X59896534Y-90450490D01*
X59693584Y-90410121D01*
X59502408Y-90330933D01*
X59502407Y-90330933D01*
X59502406Y-90330932D01*
X59330352Y-90215969D01*
X59184031Y-90069648D01*
X59069068Y-89897594D01*
X58989941Y-89706565D01*
X58989879Y-89706416D01*
X58949510Y-89503466D01*
X58949510Y-89296534D01*
X58989879Y-89093584D01*
X59069067Y-88902408D01*
X59184031Y-88730352D01*
X59330352Y-88584031D01*
X59330945Y-88583635D01*
X59502406Y-88469068D01*
X59503497Y-88468616D01*
X59693584Y-88389879D01*
X59896534Y-88349510D01*
X60103466Y-88349510D01*
X60306416Y-88389879D01*
X60306416Y-88389879D01*
G37*
G36*
X128272295Y-86221295D02*
G01*
X126278705Y-87372295D01*
X125127705Y-85378705D01*
X127121295Y-84227705D01*
X128272295Y-86221295D01*
X128272295Y-86221295D01*
G37*
G36*
X108272295Y-86221295D02*
G01*
X106278705Y-87372295D01*
X105127705Y-85378705D01*
X107121295Y-84227705D01*
X108272295Y-86221295D01*
X108272295Y-86221295D01*
G37*
G36*
X78272295Y-86221295D02*
G01*
X76278705Y-87372295D01*
X75127705Y-85378705D01*
X77121295Y-84227705D01*
X78272295Y-86221295D01*
X78272295Y-86221295D01*
G37*
G36*
X88272295Y-86221295D02*
G01*
X86278705Y-87372295D01*
X85127705Y-85378705D01*
X87121295Y-84227705D01*
X88272295Y-86221295D01*
X88272295Y-86221295D01*
G37*
G36*
X98272295Y-86221295D02*
G01*
X96278705Y-87372295D01*
X95127705Y-85378705D01*
X97121295Y-84227705D01*
X98272295Y-86221295D01*
X98272295Y-86221295D01*
G37*
G36*
X118272295Y-86221295D02*
G01*
X116278705Y-87372295D01*
X115127705Y-85378705D01*
X117121295Y-84227705D01*
X118272295Y-86221295D01*
X118272295Y-86221295D01*
G37*
G36*
X138272295Y-86221295D02*
G01*
X136278705Y-87372295D01*
X135127705Y-85378705D01*
X137121295Y-84227705D01*
X138272295Y-86221295D01*
X138272295Y-86221295D01*
G37*
G36*
X100169271Y-85080103D02*
G01*
X100225635Y-85085654D01*
X100442600Y-85151470D01*
X100442602Y-85151471D01*
X100642555Y-85258347D01*
X100817818Y-85402182D01*
X100961653Y-85577445D01*
X101068529Y-85777398D01*
X101134346Y-85994366D01*
X101156569Y-86220000D01*
X101134346Y-86445634D01*
X101068529Y-86662602D01*
X100961653Y-86862555D01*
X100817818Y-87037818D01*
X100642555Y-87181653D01*
X100442602Y-87288529D01*
X100442600Y-87288530D01*
X100225635Y-87354346D01*
X100169271Y-87359897D01*
X100056545Y-87371000D01*
X99943455Y-87371000D01*
X99830729Y-87359897D01*
X99774365Y-87354346D01*
X99557400Y-87288530D01*
X99557398Y-87288529D01*
X99357445Y-87181653D01*
X99182182Y-87037818D01*
X99038347Y-86862555D01*
X98931471Y-86662602D01*
X98865654Y-86445634D01*
X98843431Y-86220000D01*
X98865654Y-85994366D01*
X98931471Y-85777398D01*
X99038347Y-85577445D01*
X99182182Y-85402182D01*
X99357445Y-85258347D01*
X99557398Y-85151471D01*
X99557400Y-85151470D01*
X99774365Y-85085654D01*
X99830729Y-85080103D01*
X99943455Y-85069000D01*
X100056545Y-85069000D01*
X100169271Y-85080103D01*
X100169271Y-85080103D01*
G37*
G36*
X80169271Y-85080103D02*
G01*
X80225635Y-85085654D01*
X80442600Y-85151470D01*
X80442602Y-85151471D01*
X80642555Y-85258347D01*
X80817818Y-85402182D01*
X80961653Y-85577445D01*
X81068529Y-85777398D01*
X81134346Y-85994366D01*
X81156569Y-86220000D01*
X81134346Y-86445634D01*
X81068529Y-86662602D01*
X80961653Y-86862555D01*
X80817818Y-87037818D01*
X80642555Y-87181653D01*
X80442602Y-87288529D01*
X80442600Y-87288530D01*
X80225635Y-87354346D01*
X80169271Y-87359897D01*
X80056545Y-87371000D01*
X79943455Y-87371000D01*
X79830729Y-87359897D01*
X79774365Y-87354346D01*
X79557400Y-87288530D01*
X79557398Y-87288529D01*
X79357445Y-87181653D01*
X79182182Y-87037818D01*
X79038347Y-86862555D01*
X78931471Y-86662602D01*
X78865654Y-86445634D01*
X78843431Y-86220000D01*
X78865654Y-85994366D01*
X78931471Y-85777398D01*
X79038347Y-85577445D01*
X79182182Y-85402182D01*
X79357445Y-85258347D01*
X79557398Y-85151471D01*
X79557400Y-85151470D01*
X79774365Y-85085654D01*
X79830729Y-85080103D01*
X79943455Y-85069000D01*
X80056545Y-85069000D01*
X80169271Y-85080103D01*
X80169271Y-85080103D01*
G37*
G36*
X90169271Y-85080103D02*
G01*
X90225635Y-85085654D01*
X90442600Y-85151470D01*
X90442602Y-85151471D01*
X90642555Y-85258347D01*
X90817818Y-85402182D01*
X90961653Y-85577445D01*
X91068529Y-85777398D01*
X91134346Y-85994366D01*
X91156569Y-86220000D01*
X91134346Y-86445634D01*
X91068529Y-86662602D01*
X90961653Y-86862555D01*
X90817818Y-87037818D01*
X90642555Y-87181653D01*
X90442602Y-87288529D01*
X90442600Y-87288530D01*
X90225635Y-87354346D01*
X90169271Y-87359897D01*
X90056545Y-87371000D01*
X89943455Y-87371000D01*
X89830729Y-87359897D01*
X89774365Y-87354346D01*
X89557400Y-87288530D01*
X89557398Y-87288529D01*
X89357445Y-87181653D01*
X89182182Y-87037818D01*
X89038347Y-86862555D01*
X88931471Y-86662602D01*
X88865654Y-86445634D01*
X88843431Y-86220000D01*
X88865654Y-85994366D01*
X88931471Y-85777398D01*
X89038347Y-85577445D01*
X89182182Y-85402182D01*
X89357445Y-85258347D01*
X89557398Y-85151471D01*
X89557400Y-85151470D01*
X89774365Y-85085654D01*
X89830729Y-85080103D01*
X89943455Y-85069000D01*
X90056545Y-85069000D01*
X90169271Y-85080103D01*
X90169271Y-85080103D01*
G37*
G36*
X110169271Y-85080103D02*
G01*
X110225635Y-85085654D01*
X110442600Y-85151470D01*
X110442602Y-85151471D01*
X110642555Y-85258347D01*
X110817818Y-85402182D01*
X110961653Y-85577445D01*
X111068529Y-85777398D01*
X111134346Y-85994366D01*
X111156569Y-86220000D01*
X111134346Y-86445634D01*
X111068529Y-86662602D01*
X110961653Y-86862555D01*
X110817818Y-87037818D01*
X110642555Y-87181653D01*
X110442602Y-87288529D01*
X110442600Y-87288530D01*
X110225635Y-87354346D01*
X110169271Y-87359897D01*
X110056545Y-87371000D01*
X109943455Y-87371000D01*
X109830729Y-87359897D01*
X109774365Y-87354346D01*
X109557400Y-87288530D01*
X109557398Y-87288529D01*
X109357445Y-87181653D01*
X109182182Y-87037818D01*
X109038347Y-86862555D01*
X108931471Y-86662602D01*
X108865654Y-86445634D01*
X108843431Y-86220000D01*
X108865654Y-85994366D01*
X108931471Y-85777398D01*
X109038347Y-85577445D01*
X109182182Y-85402182D01*
X109357445Y-85258347D01*
X109557398Y-85151471D01*
X109557400Y-85151470D01*
X109774365Y-85085654D01*
X109830729Y-85080103D01*
X109943455Y-85069000D01*
X110056545Y-85069000D01*
X110169271Y-85080103D01*
X110169271Y-85080103D01*
G37*
G36*
X70169271Y-85080103D02*
G01*
X70225635Y-85085654D01*
X70442600Y-85151470D01*
X70442602Y-85151471D01*
X70642555Y-85258347D01*
X70817818Y-85402182D01*
X70961653Y-85577445D01*
X71068529Y-85777398D01*
X71134346Y-85994366D01*
X71156569Y-86220000D01*
X71134346Y-86445634D01*
X71068529Y-86662602D01*
X70961653Y-86862555D01*
X70817818Y-87037818D01*
X70642555Y-87181653D01*
X70442602Y-87288529D01*
X70442600Y-87288530D01*
X70225635Y-87354346D01*
X70169271Y-87359897D01*
X70056545Y-87371000D01*
X69943455Y-87371000D01*
X69830729Y-87359897D01*
X69774365Y-87354346D01*
X69557400Y-87288530D01*
X69557398Y-87288529D01*
X69357445Y-87181653D01*
X69182182Y-87037818D01*
X69038347Y-86862555D01*
X68931471Y-86662602D01*
X68865654Y-86445634D01*
X68843431Y-86220000D01*
X68865654Y-85994366D01*
X68931471Y-85777398D01*
X69038347Y-85577445D01*
X69182182Y-85402182D01*
X69357445Y-85258347D01*
X69557398Y-85151471D01*
X69557400Y-85151470D01*
X69774365Y-85085654D01*
X69830729Y-85080103D01*
X69943455Y-85069000D01*
X70056545Y-85069000D01*
X70169271Y-85080103D01*
X70169271Y-85080103D01*
G37*
G36*
X120169271Y-85080103D02*
G01*
X120225635Y-85085654D01*
X120442600Y-85151470D01*
X120442602Y-85151471D01*
X120642555Y-85258347D01*
X120817818Y-85402182D01*
X120961653Y-85577445D01*
X121068529Y-85777398D01*
X121134346Y-85994366D01*
X121156569Y-86220000D01*
X121134346Y-86445634D01*
X121068529Y-86662602D01*
X120961653Y-86862555D01*
X120817818Y-87037818D01*
X120642555Y-87181653D01*
X120442602Y-87288529D01*
X120442600Y-87288530D01*
X120225635Y-87354346D01*
X120169271Y-87359897D01*
X120056545Y-87371000D01*
X119943455Y-87371000D01*
X119830729Y-87359897D01*
X119774365Y-87354346D01*
X119557400Y-87288530D01*
X119557398Y-87288529D01*
X119357445Y-87181653D01*
X119182182Y-87037818D01*
X119038347Y-86862555D01*
X118931471Y-86662602D01*
X118865654Y-86445634D01*
X118843431Y-86220000D01*
X118865654Y-85994366D01*
X118931471Y-85777398D01*
X119038347Y-85577445D01*
X119182182Y-85402182D01*
X119357445Y-85258347D01*
X119557398Y-85151471D01*
X119557400Y-85151470D01*
X119774365Y-85085654D01*
X119830729Y-85080103D01*
X119943455Y-85069000D01*
X120056545Y-85069000D01*
X120169271Y-85080103D01*
X120169271Y-85080103D01*
G37*
G36*
X140169271Y-85080103D02*
G01*
X140225635Y-85085654D01*
X140442600Y-85151470D01*
X140442602Y-85151471D01*
X140642555Y-85258347D01*
X140817818Y-85402182D01*
X140961653Y-85577445D01*
X141068529Y-85777398D01*
X141134346Y-85994366D01*
X141156569Y-86220000D01*
X141134346Y-86445634D01*
X141068529Y-86662602D01*
X140961653Y-86862555D01*
X140817818Y-87037818D01*
X140642555Y-87181653D01*
X140442602Y-87288529D01*
X140442600Y-87288530D01*
X140225635Y-87354346D01*
X140169271Y-87359897D01*
X140056545Y-87371000D01*
X139943455Y-87371000D01*
X139830729Y-87359897D01*
X139774365Y-87354346D01*
X139557400Y-87288530D01*
X139557398Y-87288529D01*
X139357445Y-87181653D01*
X139182182Y-87037818D01*
X139038347Y-86862555D01*
X138931471Y-86662602D01*
X138865654Y-86445634D01*
X138843431Y-86220000D01*
X138865654Y-85994366D01*
X138931471Y-85777398D01*
X139038347Y-85577445D01*
X139182182Y-85402182D01*
X139357445Y-85258347D01*
X139557398Y-85151471D01*
X139557400Y-85151470D01*
X139774365Y-85085654D01*
X139830729Y-85080103D01*
X139943455Y-85069000D01*
X140056545Y-85069000D01*
X140169271Y-85080103D01*
X140169271Y-85080103D01*
G37*
G36*
X130169271Y-85080103D02*
G01*
X130225635Y-85085654D01*
X130442600Y-85151470D01*
X130442602Y-85151471D01*
X130642555Y-85258347D01*
X130817818Y-85402182D01*
X130961653Y-85577445D01*
X131068529Y-85777398D01*
X131134346Y-85994366D01*
X131156569Y-86220000D01*
X131134346Y-86445634D01*
X131068529Y-86662602D01*
X130961653Y-86862555D01*
X130817818Y-87037818D01*
X130642555Y-87181653D01*
X130442602Y-87288529D01*
X130442600Y-87288530D01*
X130225635Y-87354346D01*
X130169271Y-87359897D01*
X130056545Y-87371000D01*
X129943455Y-87371000D01*
X129830729Y-87359897D01*
X129774365Y-87354346D01*
X129557400Y-87288530D01*
X129557398Y-87288529D01*
X129357445Y-87181653D01*
X129182182Y-87037818D01*
X129038347Y-86862555D01*
X128931471Y-86662602D01*
X128865654Y-86445634D01*
X128843431Y-86220000D01*
X128865654Y-85994366D01*
X128931471Y-85777398D01*
X129038347Y-85577445D01*
X129182182Y-85402182D01*
X129357445Y-85258347D01*
X129557398Y-85151471D01*
X129557400Y-85151470D01*
X129774365Y-85085654D01*
X129830729Y-85080103D01*
X129943455Y-85069000D01*
X130056545Y-85069000D01*
X130169271Y-85080103D01*
X130169271Y-85080103D01*
G37*
G36*
X67627760Y-84500000D02*
G01*
X66000000Y-86127760D01*
X64372240Y-84500000D01*
X66000000Y-82872240D01*
X67627760Y-84500000D01*
X67627760Y-84500000D01*
G37*
G36*
X123059271Y-78060989D02*
G01*
X123115635Y-78066540D01*
X123332600Y-78132356D01*
X123332602Y-78132357D01*
X123532555Y-78239233D01*
X123707818Y-78383068D01*
X123851653Y-78558331D01*
X123958529Y-78758284D01*
X123958530Y-78758286D01*
X124024346Y-78975251D01*
X124046569Y-79200886D01*
X124024346Y-79426521D01*
X123985540Y-79554448D01*
X123958529Y-79643488D01*
X123851653Y-79843441D01*
X123707818Y-80018704D01*
X123532555Y-80162539D01*
X123344892Y-80262846D01*
X123332600Y-80269416D01*
X123115635Y-80335232D01*
X123059271Y-80340783D01*
X122946545Y-80351886D01*
X122833455Y-80351886D01*
X122720729Y-80340783D01*
X122664365Y-80335232D01*
X122447400Y-80269416D01*
X122435108Y-80262846D01*
X122247445Y-80162539D01*
X122072182Y-80018704D01*
X121928347Y-79843441D01*
X121821471Y-79643488D01*
X121794461Y-79554448D01*
X121755654Y-79426521D01*
X121733431Y-79200886D01*
X121755654Y-78975251D01*
X121821470Y-78758286D01*
X121821471Y-78758284D01*
X121928347Y-78558331D01*
X122072182Y-78383068D01*
X122247445Y-78239233D01*
X122447398Y-78132357D01*
X122447400Y-78132356D01*
X122664365Y-78066540D01*
X122720729Y-78060989D01*
X122833455Y-78049886D01*
X122946545Y-78049886D01*
X123059271Y-78060989D01*
X123059271Y-78060989D01*
G37*
G36*
X93059271Y-78060989D02*
G01*
X93115635Y-78066540D01*
X93332600Y-78132356D01*
X93332602Y-78132357D01*
X93532555Y-78239233D01*
X93707818Y-78383068D01*
X93851653Y-78558331D01*
X93958529Y-78758284D01*
X93958530Y-78758286D01*
X94024346Y-78975251D01*
X94046569Y-79200886D01*
X94024346Y-79426521D01*
X93985540Y-79554448D01*
X93958529Y-79643488D01*
X93851653Y-79843441D01*
X93707818Y-80018704D01*
X93532555Y-80162539D01*
X93344892Y-80262846D01*
X93332600Y-80269416D01*
X93115635Y-80335232D01*
X93059271Y-80340783D01*
X92946545Y-80351886D01*
X92833455Y-80351886D01*
X92720729Y-80340783D01*
X92664365Y-80335232D01*
X92447400Y-80269416D01*
X92435108Y-80262846D01*
X92247445Y-80162539D01*
X92072182Y-80018704D01*
X91928347Y-79843441D01*
X91821471Y-79643488D01*
X91794461Y-79554448D01*
X91755654Y-79426521D01*
X91733431Y-79200886D01*
X91755654Y-78975251D01*
X91821470Y-78758286D01*
X91821471Y-78758284D01*
X91928347Y-78558331D01*
X92072182Y-78383068D01*
X92247445Y-78239233D01*
X92447398Y-78132357D01*
X92447400Y-78132356D01*
X92664365Y-78066540D01*
X92720729Y-78060989D01*
X92833455Y-78049886D01*
X92946545Y-78049886D01*
X93059271Y-78060989D01*
X93059271Y-78060989D01*
G37*
G36*
X113059271Y-78060989D02*
G01*
X113115635Y-78066540D01*
X113332600Y-78132356D01*
X113332602Y-78132357D01*
X113532555Y-78239233D01*
X113707818Y-78383068D01*
X113851653Y-78558331D01*
X113958529Y-78758284D01*
X113958530Y-78758286D01*
X114024346Y-78975251D01*
X114046569Y-79200886D01*
X114024346Y-79426521D01*
X113985540Y-79554448D01*
X113958529Y-79643488D01*
X113851653Y-79843441D01*
X113707818Y-80018704D01*
X113532555Y-80162539D01*
X113344892Y-80262846D01*
X113332600Y-80269416D01*
X113115635Y-80335232D01*
X113059271Y-80340783D01*
X112946545Y-80351886D01*
X112833455Y-80351886D01*
X112720729Y-80340783D01*
X112664365Y-80335232D01*
X112447400Y-80269416D01*
X112435108Y-80262846D01*
X112247445Y-80162539D01*
X112072182Y-80018704D01*
X111928347Y-79843441D01*
X111821471Y-79643488D01*
X111794461Y-79554448D01*
X111755654Y-79426521D01*
X111733431Y-79200886D01*
X111755654Y-78975251D01*
X111821470Y-78758286D01*
X111821471Y-78758284D01*
X111928347Y-78558331D01*
X112072182Y-78383068D01*
X112247445Y-78239233D01*
X112447398Y-78132357D01*
X112447400Y-78132356D01*
X112664365Y-78066540D01*
X112720729Y-78060989D01*
X112833455Y-78049886D01*
X112946545Y-78049886D01*
X113059271Y-78060989D01*
X113059271Y-78060989D01*
G37*
G36*
X133059271Y-78060989D02*
G01*
X133115635Y-78066540D01*
X133332600Y-78132356D01*
X133332602Y-78132357D01*
X133532555Y-78239233D01*
X133707818Y-78383068D01*
X133851653Y-78558331D01*
X133958529Y-78758284D01*
X133958530Y-78758286D01*
X134024346Y-78975251D01*
X134046569Y-79200886D01*
X134024346Y-79426521D01*
X133985540Y-79554448D01*
X133958529Y-79643488D01*
X133851653Y-79843441D01*
X133707818Y-80018704D01*
X133532555Y-80162539D01*
X133344892Y-80262846D01*
X133332600Y-80269416D01*
X133115635Y-80335232D01*
X133059271Y-80340783D01*
X132946545Y-80351886D01*
X132833455Y-80351886D01*
X132720729Y-80340783D01*
X132664365Y-80335232D01*
X132447400Y-80269416D01*
X132435108Y-80262846D01*
X132247445Y-80162539D01*
X132072182Y-80018704D01*
X131928347Y-79843441D01*
X131821471Y-79643488D01*
X131794461Y-79554448D01*
X131755654Y-79426521D01*
X131733431Y-79200886D01*
X131755654Y-78975251D01*
X131821470Y-78758286D01*
X131821471Y-78758284D01*
X131928347Y-78558331D01*
X132072182Y-78383068D01*
X132247445Y-78239233D01*
X132447398Y-78132357D01*
X132447400Y-78132356D01*
X132664365Y-78066540D01*
X132720729Y-78060989D01*
X132833455Y-78049886D01*
X132946545Y-78049886D01*
X133059271Y-78060989D01*
X133059271Y-78060989D01*
G37*
G36*
X103059271Y-78060989D02*
G01*
X103115635Y-78066540D01*
X103332600Y-78132356D01*
X103332602Y-78132357D01*
X103532555Y-78239233D01*
X103707818Y-78383068D01*
X103851653Y-78558331D01*
X103958529Y-78758284D01*
X103958530Y-78758286D01*
X104024346Y-78975251D01*
X104046569Y-79200886D01*
X104024346Y-79426521D01*
X103985540Y-79554448D01*
X103958529Y-79643488D01*
X103851653Y-79843441D01*
X103707818Y-80018704D01*
X103532555Y-80162539D01*
X103344892Y-80262846D01*
X103332600Y-80269416D01*
X103115635Y-80335232D01*
X103059271Y-80340783D01*
X102946545Y-80351886D01*
X102833455Y-80351886D01*
X102720729Y-80340783D01*
X102664365Y-80335232D01*
X102447400Y-80269416D01*
X102435108Y-80262846D01*
X102247445Y-80162539D01*
X102072182Y-80018704D01*
X101928347Y-79843441D01*
X101821471Y-79643488D01*
X101794461Y-79554448D01*
X101755654Y-79426521D01*
X101733431Y-79200886D01*
X101755654Y-78975251D01*
X101821470Y-78758286D01*
X101821471Y-78758284D01*
X101928347Y-78558331D01*
X102072182Y-78383068D01*
X102247445Y-78239233D01*
X102447398Y-78132357D01*
X102447400Y-78132356D01*
X102664365Y-78066540D01*
X102720729Y-78060989D01*
X102833455Y-78049886D01*
X102946545Y-78049886D01*
X103059271Y-78060989D01*
X103059271Y-78060989D01*
G37*
G36*
X83059271Y-78060989D02*
G01*
X83115635Y-78066540D01*
X83332600Y-78132356D01*
X83332602Y-78132357D01*
X83532555Y-78239233D01*
X83707818Y-78383068D01*
X83851653Y-78558331D01*
X83958529Y-78758284D01*
X83958530Y-78758286D01*
X84024346Y-78975251D01*
X84046569Y-79200886D01*
X84024346Y-79426521D01*
X83985540Y-79554448D01*
X83958529Y-79643488D01*
X83851653Y-79843441D01*
X83707818Y-80018704D01*
X83532555Y-80162539D01*
X83344892Y-80262846D01*
X83332600Y-80269416D01*
X83115635Y-80335232D01*
X83059271Y-80340783D01*
X82946545Y-80351886D01*
X82833455Y-80351886D01*
X82720729Y-80340783D01*
X82664365Y-80335232D01*
X82447400Y-80269416D01*
X82435108Y-80262846D01*
X82247445Y-80162539D01*
X82072182Y-80018704D01*
X81928347Y-79843441D01*
X81821471Y-79643488D01*
X81794461Y-79554448D01*
X81755654Y-79426521D01*
X81733431Y-79200886D01*
X81755654Y-78975251D01*
X81821470Y-78758286D01*
X81821471Y-78758284D01*
X81928347Y-78558331D01*
X82072182Y-78383068D01*
X82247445Y-78239233D01*
X82447398Y-78132357D01*
X82447400Y-78132356D01*
X82664365Y-78066540D01*
X82720729Y-78060989D01*
X82833455Y-78049886D01*
X82946545Y-78049886D01*
X83059271Y-78060989D01*
X83059271Y-78060989D01*
G37*
G36*
X73059271Y-78060989D02*
G01*
X73115635Y-78066540D01*
X73332600Y-78132356D01*
X73332602Y-78132357D01*
X73532555Y-78239233D01*
X73707818Y-78383068D01*
X73851653Y-78558331D01*
X73958529Y-78758284D01*
X73958530Y-78758286D01*
X74024346Y-78975251D01*
X74046569Y-79200886D01*
X74024346Y-79426521D01*
X73985540Y-79554448D01*
X73958529Y-79643488D01*
X73851653Y-79843441D01*
X73707818Y-80018704D01*
X73532555Y-80162539D01*
X73344892Y-80262846D01*
X73332600Y-80269416D01*
X73115635Y-80335232D01*
X73059271Y-80340783D01*
X72946545Y-80351886D01*
X72833455Y-80351886D01*
X72720729Y-80340783D01*
X72664365Y-80335232D01*
X72447400Y-80269416D01*
X72435108Y-80262846D01*
X72247445Y-80162539D01*
X72072182Y-80018704D01*
X71928347Y-79843441D01*
X71821471Y-79643488D01*
X71794461Y-79554448D01*
X71755654Y-79426521D01*
X71733431Y-79200886D01*
X71755654Y-78975251D01*
X71821470Y-78758286D01*
X71821471Y-78758284D01*
X71928347Y-78558331D01*
X72072182Y-78383068D01*
X72247445Y-78239233D01*
X72447398Y-78132357D01*
X72447400Y-78132356D01*
X72664365Y-78066540D01*
X72720729Y-78060989D01*
X72833455Y-78049886D01*
X72946545Y-78049886D01*
X73059271Y-78060989D01*
X73059271Y-78060989D01*
G37*
G36*
X60781117Y-77971949D02*
G01*
X60837481Y-77977500D01*
X61054446Y-78043316D01*
X61054448Y-78043317D01*
X61254401Y-78150193D01*
X61429664Y-78294028D01*
X61573499Y-78469291D01*
X61621091Y-78558331D01*
X61680376Y-78669246D01*
X61707386Y-78758286D01*
X61746192Y-78886212D01*
X61768415Y-79111846D01*
X61746192Y-79337480D01*
X61680375Y-79554448D01*
X61573499Y-79754401D01*
X61429664Y-79929664D01*
X61254401Y-80073499D01*
X61087819Y-80162538D01*
X61054446Y-80180376D01*
X60837481Y-80246192D01*
X60781117Y-80251743D01*
X60668391Y-80262846D01*
X60555301Y-80262846D01*
X60442575Y-80251743D01*
X60386211Y-80246192D01*
X60169246Y-80180376D01*
X60135873Y-80162538D01*
X59969291Y-80073499D01*
X59794028Y-79929664D01*
X59650193Y-79754401D01*
X59543317Y-79554448D01*
X59477500Y-79337480D01*
X59455277Y-79111846D01*
X59477500Y-78886212D01*
X59516306Y-78758286D01*
X59543316Y-78669246D01*
X59602601Y-78558331D01*
X59650193Y-78469291D01*
X59794028Y-78294028D01*
X59969291Y-78150193D01*
X60169244Y-78043317D01*
X60169246Y-78043316D01*
X60386211Y-77977500D01*
X60442575Y-77971949D01*
X60555301Y-77960846D01*
X60668391Y-77960846D01*
X60781117Y-77971949D01*
X60781117Y-77971949D01*
G37*
G36*
X101151000Y-79751000D02*
G01*
X98849000Y-79751000D01*
X98849000Y-77449000D01*
X101151000Y-77449000D01*
X101151000Y-79751000D01*
X101151000Y-79751000D01*
G37*
G36*
X91151000Y-79751000D02*
G01*
X88849000Y-79751000D01*
X88849000Y-77449000D01*
X91151000Y-77449000D01*
X91151000Y-79751000D01*
X91151000Y-79751000D01*
G37*
G36*
X81151000Y-79751000D02*
G01*
X78849000Y-79751000D01*
X78849000Y-77449000D01*
X81151000Y-77449000D01*
X81151000Y-79751000D01*
X81151000Y-79751000D01*
G37*
G36*
X121151000Y-79751000D02*
G01*
X118849000Y-79751000D01*
X118849000Y-77449000D01*
X121151000Y-77449000D01*
X121151000Y-79751000D01*
X121151000Y-79751000D01*
G37*
G36*
X71151000Y-79751000D02*
G01*
X68849000Y-79751000D01*
X68849000Y-77449000D01*
X71151000Y-77449000D01*
X71151000Y-79751000D01*
X71151000Y-79751000D01*
G37*
G36*
X131151000Y-79751000D02*
G01*
X128849000Y-79751000D01*
X128849000Y-77449000D01*
X131151000Y-77449000D01*
X131151000Y-79751000D01*
X131151000Y-79751000D01*
G37*
G36*
X141151000Y-79751000D02*
G01*
X138849000Y-79751000D01*
X138849000Y-77449000D01*
X141151000Y-77449000D01*
X141151000Y-79751000D01*
X141151000Y-79751000D01*
G37*
G36*
X111151000Y-79751000D02*
G01*
X108849000Y-79751000D01*
X108849000Y-77449000D01*
X111151000Y-77449000D01*
X111151000Y-79751000D01*
X111151000Y-79751000D01*
G37*
G36*
X80306564Y-74489389D02*
G01*
X80497833Y-74568615D01*
X80497835Y-74568616D01*
X80498511Y-74569068D01*
X80669973Y-74683635D01*
X80816365Y-74830027D01*
X80931385Y-75002167D01*
X81010611Y-75193436D01*
X81051000Y-75396484D01*
X81051000Y-75603516D01*
X81010611Y-75806564D01*
X80974377Y-75894040D01*
X80931384Y-75997835D01*
X80816365Y-76169973D01*
X80669973Y-76316365D01*
X80497835Y-76431384D01*
X80497834Y-76431385D01*
X80497833Y-76431385D01*
X80306564Y-76510611D01*
X80103516Y-76551000D01*
X79896484Y-76551000D01*
X79693436Y-76510611D01*
X79502167Y-76431385D01*
X79502166Y-76431385D01*
X79502165Y-76431384D01*
X79330027Y-76316365D01*
X79183635Y-76169973D01*
X79068616Y-75997835D01*
X79025623Y-75894040D01*
X78989389Y-75806564D01*
X78949000Y-75603516D01*
X78949000Y-75396484D01*
X78989389Y-75193436D01*
X79068615Y-75002167D01*
X79183635Y-74830027D01*
X79330027Y-74683635D01*
X79501489Y-74569068D01*
X79502165Y-74568616D01*
X79502167Y-74568615D01*
X79693436Y-74489389D01*
X79896484Y-74449000D01*
X80103516Y-74449000D01*
X80306564Y-74489389D01*
X80306564Y-74489389D01*
G37*
G36*
X140306564Y-74489389D02*
G01*
X140497833Y-74568615D01*
X140497835Y-74568616D01*
X140498511Y-74569068D01*
X140669973Y-74683635D01*
X140816365Y-74830027D01*
X140931385Y-75002167D01*
X141010611Y-75193436D01*
X141051000Y-75396484D01*
X141051000Y-75603516D01*
X141010611Y-75806564D01*
X140974377Y-75894040D01*
X140931384Y-75997835D01*
X140816365Y-76169973D01*
X140669973Y-76316365D01*
X140497835Y-76431384D01*
X140497834Y-76431385D01*
X140497833Y-76431385D01*
X140306564Y-76510611D01*
X140103516Y-76551000D01*
X139896484Y-76551000D01*
X139693436Y-76510611D01*
X139502167Y-76431385D01*
X139502166Y-76431385D01*
X139502165Y-76431384D01*
X139330027Y-76316365D01*
X139183635Y-76169973D01*
X139068616Y-75997835D01*
X139025623Y-75894040D01*
X138989389Y-75806564D01*
X138949000Y-75603516D01*
X138949000Y-75396484D01*
X138989389Y-75193436D01*
X139068615Y-75002167D01*
X139183635Y-74830027D01*
X139330027Y-74683635D01*
X139501489Y-74569068D01*
X139502165Y-74568616D01*
X139502167Y-74568615D01*
X139693436Y-74489389D01*
X139896484Y-74449000D01*
X140103516Y-74449000D01*
X140306564Y-74489389D01*
X140306564Y-74489389D01*
G37*
G36*
X70306564Y-74489389D02*
G01*
X70497833Y-74568615D01*
X70497835Y-74568616D01*
X70498511Y-74569068D01*
X70669973Y-74683635D01*
X70816365Y-74830027D01*
X70931385Y-75002167D01*
X71010611Y-75193436D01*
X71051000Y-75396484D01*
X71051000Y-75603516D01*
X71010611Y-75806564D01*
X70974377Y-75894040D01*
X70931384Y-75997835D01*
X70816365Y-76169973D01*
X70669973Y-76316365D01*
X70497835Y-76431384D01*
X70497834Y-76431385D01*
X70497833Y-76431385D01*
X70306564Y-76510611D01*
X70103516Y-76551000D01*
X69896484Y-76551000D01*
X69693436Y-76510611D01*
X69502167Y-76431385D01*
X69502166Y-76431385D01*
X69502165Y-76431384D01*
X69330027Y-76316365D01*
X69183635Y-76169973D01*
X69068616Y-75997835D01*
X69025623Y-75894040D01*
X68989389Y-75806564D01*
X68949000Y-75603516D01*
X68949000Y-75396484D01*
X68989389Y-75193436D01*
X69068615Y-75002167D01*
X69183635Y-74830027D01*
X69330027Y-74683635D01*
X69501489Y-74569068D01*
X69502165Y-74568616D01*
X69502167Y-74568615D01*
X69693436Y-74489389D01*
X69896484Y-74449000D01*
X70103516Y-74449000D01*
X70306564Y-74489389D01*
X70306564Y-74489389D01*
G37*
G36*
X90306564Y-74489389D02*
G01*
X90497833Y-74568615D01*
X90497835Y-74568616D01*
X90498511Y-74569068D01*
X90669973Y-74683635D01*
X90816365Y-74830027D01*
X90931385Y-75002167D01*
X91010611Y-75193436D01*
X91051000Y-75396484D01*
X91051000Y-75603516D01*
X91010611Y-75806564D01*
X90974377Y-75894040D01*
X90931384Y-75997835D01*
X90816365Y-76169973D01*
X90669973Y-76316365D01*
X90497835Y-76431384D01*
X90497834Y-76431385D01*
X90497833Y-76431385D01*
X90306564Y-76510611D01*
X90103516Y-76551000D01*
X89896484Y-76551000D01*
X89693436Y-76510611D01*
X89502167Y-76431385D01*
X89502166Y-76431385D01*
X89502165Y-76431384D01*
X89330027Y-76316365D01*
X89183635Y-76169973D01*
X89068616Y-75997835D01*
X89025623Y-75894040D01*
X88989389Y-75806564D01*
X88949000Y-75603516D01*
X88949000Y-75396484D01*
X88989389Y-75193436D01*
X89068615Y-75002167D01*
X89183635Y-74830027D01*
X89330027Y-74683635D01*
X89501489Y-74569068D01*
X89502165Y-74568616D01*
X89502167Y-74568615D01*
X89693436Y-74489389D01*
X89896484Y-74449000D01*
X90103516Y-74449000D01*
X90306564Y-74489389D01*
X90306564Y-74489389D01*
G37*
G36*
X100306564Y-74489389D02*
G01*
X100497833Y-74568615D01*
X100497835Y-74568616D01*
X100498511Y-74569068D01*
X100669973Y-74683635D01*
X100816365Y-74830027D01*
X100931385Y-75002167D01*
X101010611Y-75193436D01*
X101051000Y-75396484D01*
X101051000Y-75603516D01*
X101010611Y-75806564D01*
X100974377Y-75894040D01*
X100931384Y-75997835D01*
X100816365Y-76169973D01*
X100669973Y-76316365D01*
X100497835Y-76431384D01*
X100497834Y-76431385D01*
X100497833Y-76431385D01*
X100306564Y-76510611D01*
X100103516Y-76551000D01*
X99896484Y-76551000D01*
X99693436Y-76510611D01*
X99502167Y-76431385D01*
X99502166Y-76431385D01*
X99502165Y-76431384D01*
X99330027Y-76316365D01*
X99183635Y-76169973D01*
X99068616Y-75997835D01*
X99025623Y-75894040D01*
X98989389Y-75806564D01*
X98949000Y-75603516D01*
X98949000Y-75396484D01*
X98989389Y-75193436D01*
X99068615Y-75002167D01*
X99183635Y-74830027D01*
X99330027Y-74683635D01*
X99501489Y-74569068D01*
X99502165Y-74568616D01*
X99502167Y-74568615D01*
X99693436Y-74489389D01*
X99896484Y-74449000D01*
X100103516Y-74449000D01*
X100306564Y-74489389D01*
X100306564Y-74489389D01*
G37*
G36*
X110306564Y-74489389D02*
G01*
X110497833Y-74568615D01*
X110497835Y-74568616D01*
X110498511Y-74569068D01*
X110669973Y-74683635D01*
X110816365Y-74830027D01*
X110931385Y-75002167D01*
X111010611Y-75193436D01*
X111051000Y-75396484D01*
X111051000Y-75603516D01*
X111010611Y-75806564D01*
X110974377Y-75894040D01*
X110931384Y-75997835D01*
X110816365Y-76169973D01*
X110669973Y-76316365D01*
X110497835Y-76431384D01*
X110497834Y-76431385D01*
X110497833Y-76431385D01*
X110306564Y-76510611D01*
X110103516Y-76551000D01*
X109896484Y-76551000D01*
X109693436Y-76510611D01*
X109502167Y-76431385D01*
X109502166Y-76431385D01*
X109502165Y-76431384D01*
X109330027Y-76316365D01*
X109183635Y-76169973D01*
X109068616Y-75997835D01*
X109025623Y-75894040D01*
X108989389Y-75806564D01*
X108949000Y-75603516D01*
X108949000Y-75396484D01*
X108989389Y-75193436D01*
X109068615Y-75002167D01*
X109183635Y-74830027D01*
X109330027Y-74683635D01*
X109501489Y-74569068D01*
X109502165Y-74568616D01*
X109502167Y-74568615D01*
X109693436Y-74489389D01*
X109896484Y-74449000D01*
X110103516Y-74449000D01*
X110306564Y-74489389D01*
X110306564Y-74489389D01*
G37*
G36*
X120306564Y-74489389D02*
G01*
X120497833Y-74568615D01*
X120497835Y-74568616D01*
X120498511Y-74569068D01*
X120669973Y-74683635D01*
X120816365Y-74830027D01*
X120931385Y-75002167D01*
X121010611Y-75193436D01*
X121051000Y-75396484D01*
X121051000Y-75603516D01*
X121010611Y-75806564D01*
X120974377Y-75894040D01*
X120931384Y-75997835D01*
X120816365Y-76169973D01*
X120669973Y-76316365D01*
X120497835Y-76431384D01*
X120497834Y-76431385D01*
X120497833Y-76431385D01*
X120306564Y-76510611D01*
X120103516Y-76551000D01*
X119896484Y-76551000D01*
X119693436Y-76510611D01*
X119502167Y-76431385D01*
X119502166Y-76431385D01*
X119502165Y-76431384D01*
X119330027Y-76316365D01*
X119183635Y-76169973D01*
X119068616Y-75997835D01*
X119025623Y-75894040D01*
X118989389Y-75806564D01*
X118949000Y-75603516D01*
X118949000Y-75396484D01*
X118989389Y-75193436D01*
X119068615Y-75002167D01*
X119183635Y-74830027D01*
X119330027Y-74683635D01*
X119501489Y-74569068D01*
X119502165Y-74568616D01*
X119502167Y-74568615D01*
X119693436Y-74489389D01*
X119896484Y-74449000D01*
X120103516Y-74449000D01*
X120306564Y-74489389D01*
X120306564Y-74489389D01*
G37*
G36*
X130306564Y-74489389D02*
G01*
X130497833Y-74568615D01*
X130497835Y-74568616D01*
X130498511Y-74569068D01*
X130669973Y-74683635D01*
X130816365Y-74830027D01*
X130931385Y-75002167D01*
X131010611Y-75193436D01*
X131051000Y-75396484D01*
X131051000Y-75603516D01*
X131010611Y-75806564D01*
X130974377Y-75894040D01*
X130931384Y-75997835D01*
X130816365Y-76169973D01*
X130669973Y-76316365D01*
X130497835Y-76431384D01*
X130497834Y-76431385D01*
X130497833Y-76431385D01*
X130306564Y-76510611D01*
X130103516Y-76551000D01*
X129896484Y-76551000D01*
X129693436Y-76510611D01*
X129502167Y-76431385D01*
X129502166Y-76431385D01*
X129502165Y-76431384D01*
X129330027Y-76316365D01*
X129183635Y-76169973D01*
X129068616Y-75997835D01*
X129025623Y-75894040D01*
X128989389Y-75806564D01*
X128949000Y-75603516D01*
X128949000Y-75396484D01*
X128989389Y-75193436D01*
X129068615Y-75002167D01*
X129183635Y-74830027D01*
X129330027Y-74683635D01*
X129501489Y-74569068D01*
X129502165Y-74568616D01*
X129502167Y-74568615D01*
X129693436Y-74489389D01*
X129896484Y-74449000D01*
X130103516Y-74449000D01*
X130306564Y-74489389D01*
X130306564Y-74489389D01*
G37*
G36*
X60306416Y-74489879D02*
G01*
X60496503Y-74568616D01*
X60497594Y-74569068D01*
X60640068Y-74664266D01*
X60669648Y-74684031D01*
X60815969Y-74830352D01*
X60930933Y-75002408D01*
X61010121Y-75193584D01*
X61050490Y-75396534D01*
X61050490Y-75603466D01*
X61010121Y-75806416D01*
X60930933Y-75997592D01*
X60930932Y-75997594D01*
X60815969Y-76169648D01*
X60669648Y-76315969D01*
X60497594Y-76430932D01*
X60497593Y-76430933D01*
X60497592Y-76430933D01*
X60306416Y-76510121D01*
X60103466Y-76550490D01*
X59896534Y-76550490D01*
X59693584Y-76510121D01*
X59502408Y-76430933D01*
X59502407Y-76430933D01*
X59502406Y-76430932D01*
X59330352Y-76315969D01*
X59184031Y-76169648D01*
X59069068Y-75997594D01*
X59069067Y-75997592D01*
X58989879Y-75806416D01*
X58949510Y-75603466D01*
X58949510Y-75396534D01*
X58989879Y-75193584D01*
X59069067Y-75002408D01*
X59184031Y-74830352D01*
X59330352Y-74684031D01*
X59359932Y-74664266D01*
X59502406Y-74569068D01*
X59503497Y-74568616D01*
X59693584Y-74489879D01*
X59896534Y-74449510D01*
X60103466Y-74449510D01*
X60306416Y-74489879D01*
X60306416Y-74489879D01*
G37*
G36*
X67506416Y-74489879D02*
G01*
X67696503Y-74568616D01*
X67697594Y-74569068D01*
X67840068Y-74664266D01*
X67869648Y-74684031D01*
X68015969Y-74830352D01*
X68130933Y-75002408D01*
X68210121Y-75193584D01*
X68250490Y-75396534D01*
X68250490Y-75603466D01*
X68210121Y-75806416D01*
X68130933Y-75997592D01*
X68130932Y-75997594D01*
X68015969Y-76169648D01*
X67869648Y-76315969D01*
X67697594Y-76430932D01*
X67697593Y-76430933D01*
X67697592Y-76430933D01*
X67506416Y-76510121D01*
X67303466Y-76550490D01*
X67096534Y-76550490D01*
X66893584Y-76510121D01*
X66702408Y-76430933D01*
X66702407Y-76430933D01*
X66702406Y-76430932D01*
X66530352Y-76315969D01*
X66384031Y-76169648D01*
X66269068Y-75997594D01*
X66269067Y-75997592D01*
X66189879Y-75806416D01*
X66149510Y-75603466D01*
X66149510Y-75396534D01*
X66189879Y-75193584D01*
X66269067Y-75002408D01*
X66384031Y-74830352D01*
X66530352Y-74684031D01*
X66559932Y-74664266D01*
X66702406Y-74569068D01*
X66703497Y-74568616D01*
X66893584Y-74489879D01*
X67096534Y-74449510D01*
X67303466Y-74449510D01*
X67506416Y-74489879D01*
X67506416Y-74489879D01*
G37*
G36*
X55224549Y-73871116D02*
G01*
X55335734Y-73893232D01*
X55545203Y-73979997D01*
X55733720Y-74105960D01*
X55894040Y-74266280D01*
X56016470Y-74449510D01*
X56020004Y-74454799D01*
X56106768Y-74664267D01*
X56139805Y-74830352D01*
X56151000Y-74886636D01*
X56151000Y-75113364D01*
X56106768Y-75335734D01*
X56020003Y-75545203D01*
X55894040Y-75733720D01*
X55733720Y-75894040D01*
X55545203Y-76020003D01*
X55335734Y-76106768D01*
X55224549Y-76128884D01*
X55113365Y-76151000D01*
X54886635Y-76151000D01*
X54775451Y-76128884D01*
X54664266Y-76106768D01*
X54454797Y-76020003D01*
X54266280Y-75894040D01*
X54105960Y-75733720D01*
X53979997Y-75545203D01*
X53893232Y-75335734D01*
X53849000Y-75113364D01*
X53849000Y-74886636D01*
X53860196Y-74830352D01*
X53893232Y-74664267D01*
X53979996Y-74454799D01*
X53983530Y-74449510D01*
X54105960Y-74266280D01*
X54266280Y-74105960D01*
X54454797Y-73979997D01*
X54664266Y-73893232D01*
X54775451Y-73871116D01*
X54886635Y-73849000D01*
X55113365Y-73849000D01*
X55224549Y-73871116D01*
X55224549Y-73871116D01*
G37*
G36*
X145224549Y-73871116D02*
G01*
X145335734Y-73893232D01*
X145545203Y-73979997D01*
X145733720Y-74105960D01*
X145894040Y-74266280D01*
X146016470Y-74449510D01*
X146020004Y-74454799D01*
X146106768Y-74664267D01*
X146139805Y-74830352D01*
X146151000Y-74886636D01*
X146151000Y-75113364D01*
X146106768Y-75335734D01*
X146020003Y-75545203D01*
X145894040Y-75733720D01*
X145733720Y-75894040D01*
X145545203Y-76020003D01*
X145335734Y-76106768D01*
X145224549Y-76128884D01*
X145113365Y-76151000D01*
X144886635Y-76151000D01*
X144775451Y-76128884D01*
X144664266Y-76106768D01*
X144454797Y-76020003D01*
X144266280Y-75894040D01*
X144105960Y-75733720D01*
X143979997Y-75545203D01*
X143893232Y-75335734D01*
X143849000Y-75113364D01*
X143849000Y-74886636D01*
X143860196Y-74830352D01*
X143893232Y-74664267D01*
X143979996Y-74454799D01*
X143983530Y-74449510D01*
X144105960Y-74266280D01*
X144266280Y-74105960D01*
X144454797Y-73979997D01*
X144664266Y-73893232D01*
X144775451Y-73871116D01*
X144886635Y-73849000D01*
X145113365Y-73849000D01*
X145224549Y-73871116D01*
X145224549Y-73871116D01*
G37*
G36*
X60306564Y-70889389D02*
G01*
X60497833Y-70968615D01*
X60497835Y-70968616D01*
X60498511Y-70969068D01*
X60669973Y-71083635D01*
X60816365Y-71230027D01*
X60931385Y-71402167D01*
X61010611Y-71593436D01*
X61051000Y-71796484D01*
X61051000Y-72003516D01*
X61010611Y-72206564D01*
X60931485Y-72397592D01*
X60931384Y-72397835D01*
X60816365Y-72569973D01*
X60669973Y-72716365D01*
X60497835Y-72831384D01*
X60497834Y-72831385D01*
X60497833Y-72831385D01*
X60306564Y-72910611D01*
X60103516Y-72951000D01*
X59896484Y-72951000D01*
X59693436Y-72910611D01*
X59502167Y-72831385D01*
X59502166Y-72831385D01*
X59502165Y-72831384D01*
X59330027Y-72716365D01*
X59183635Y-72569973D01*
X59068616Y-72397835D01*
X59068515Y-72397592D01*
X58989389Y-72206564D01*
X58949000Y-72003516D01*
X58949000Y-71796484D01*
X58989389Y-71593436D01*
X59068615Y-71402167D01*
X59183635Y-71230027D01*
X59330027Y-71083635D01*
X59501489Y-70969068D01*
X59502165Y-70968616D01*
X59502167Y-70968615D01*
X59693436Y-70889389D01*
X59896484Y-70849000D01*
X60103516Y-70849000D01*
X60306564Y-70889389D01*
X60306564Y-70889389D01*
G37*
G36*
X70306564Y-70889389D02*
G01*
X70497833Y-70968615D01*
X70497835Y-70968616D01*
X70498511Y-70969068D01*
X70669973Y-71083635D01*
X70816365Y-71230027D01*
X70931385Y-71402167D01*
X71010611Y-71593436D01*
X71051000Y-71796484D01*
X71051000Y-72003516D01*
X71010611Y-72206564D01*
X70931485Y-72397592D01*
X70931384Y-72397835D01*
X70816365Y-72569973D01*
X70669973Y-72716365D01*
X70497835Y-72831384D01*
X70497834Y-72831385D01*
X70497833Y-72831385D01*
X70306564Y-72910611D01*
X70103516Y-72951000D01*
X69896484Y-72951000D01*
X69693436Y-72910611D01*
X69502167Y-72831385D01*
X69502166Y-72831385D01*
X69502165Y-72831384D01*
X69330027Y-72716365D01*
X69183635Y-72569973D01*
X69068616Y-72397835D01*
X69068515Y-72397592D01*
X68989389Y-72206564D01*
X68949000Y-72003516D01*
X68949000Y-71796484D01*
X68989389Y-71593436D01*
X69068615Y-71402167D01*
X69183635Y-71230027D01*
X69330027Y-71083635D01*
X69501489Y-70969068D01*
X69502165Y-70968616D01*
X69502167Y-70968615D01*
X69693436Y-70889389D01*
X69896484Y-70849000D01*
X70103516Y-70849000D01*
X70306564Y-70889389D01*
X70306564Y-70889389D01*
G37*
G36*
X80306564Y-70889389D02*
G01*
X80497833Y-70968615D01*
X80497835Y-70968616D01*
X80498511Y-70969068D01*
X80669973Y-71083635D01*
X80816365Y-71230027D01*
X80931385Y-71402167D01*
X81010611Y-71593436D01*
X81051000Y-71796484D01*
X81051000Y-72003516D01*
X81010611Y-72206564D01*
X80931485Y-72397592D01*
X80931384Y-72397835D01*
X80816365Y-72569973D01*
X80669973Y-72716365D01*
X80497835Y-72831384D01*
X80497834Y-72831385D01*
X80497833Y-72831385D01*
X80306564Y-72910611D01*
X80103516Y-72951000D01*
X79896484Y-72951000D01*
X79693436Y-72910611D01*
X79502167Y-72831385D01*
X79502166Y-72831385D01*
X79502165Y-72831384D01*
X79330027Y-72716365D01*
X79183635Y-72569973D01*
X79068616Y-72397835D01*
X79068515Y-72397592D01*
X78989389Y-72206564D01*
X78949000Y-72003516D01*
X78949000Y-71796484D01*
X78989389Y-71593436D01*
X79068615Y-71402167D01*
X79183635Y-71230027D01*
X79330027Y-71083635D01*
X79501489Y-70969068D01*
X79502165Y-70968616D01*
X79502167Y-70968615D01*
X79693436Y-70889389D01*
X79896484Y-70849000D01*
X80103516Y-70849000D01*
X80306564Y-70889389D01*
X80306564Y-70889389D01*
G37*
G36*
X90306564Y-70889389D02*
G01*
X90497833Y-70968615D01*
X90497835Y-70968616D01*
X90498511Y-70969068D01*
X90669973Y-71083635D01*
X90816365Y-71230027D01*
X90931385Y-71402167D01*
X91010611Y-71593436D01*
X91051000Y-71796484D01*
X91051000Y-72003516D01*
X91010611Y-72206564D01*
X90931485Y-72397592D01*
X90931384Y-72397835D01*
X90816365Y-72569973D01*
X90669973Y-72716365D01*
X90497835Y-72831384D01*
X90497834Y-72831385D01*
X90497833Y-72831385D01*
X90306564Y-72910611D01*
X90103516Y-72951000D01*
X89896484Y-72951000D01*
X89693436Y-72910611D01*
X89502167Y-72831385D01*
X89502166Y-72831385D01*
X89502165Y-72831384D01*
X89330027Y-72716365D01*
X89183635Y-72569973D01*
X89068616Y-72397835D01*
X89068515Y-72397592D01*
X88989389Y-72206564D01*
X88949000Y-72003516D01*
X88949000Y-71796484D01*
X88989389Y-71593436D01*
X89068615Y-71402167D01*
X89183635Y-71230027D01*
X89330027Y-71083635D01*
X89501489Y-70969068D01*
X89502165Y-70968616D01*
X89502167Y-70968615D01*
X89693436Y-70889389D01*
X89896484Y-70849000D01*
X90103516Y-70849000D01*
X90306564Y-70889389D01*
X90306564Y-70889389D01*
G37*
G36*
X110306564Y-70889389D02*
G01*
X110497833Y-70968615D01*
X110497835Y-70968616D01*
X110498511Y-70969068D01*
X110669973Y-71083635D01*
X110816365Y-71230027D01*
X110931385Y-71402167D01*
X111010611Y-71593436D01*
X111051000Y-71796484D01*
X111051000Y-72003516D01*
X111010611Y-72206564D01*
X110931485Y-72397592D01*
X110931384Y-72397835D01*
X110816365Y-72569973D01*
X110669973Y-72716365D01*
X110497835Y-72831384D01*
X110497834Y-72831385D01*
X110497833Y-72831385D01*
X110306564Y-72910611D01*
X110103516Y-72951000D01*
X109896484Y-72951000D01*
X109693436Y-72910611D01*
X109502167Y-72831385D01*
X109502166Y-72831385D01*
X109502165Y-72831384D01*
X109330027Y-72716365D01*
X109183635Y-72569973D01*
X109068616Y-72397835D01*
X109068515Y-72397592D01*
X108989389Y-72206564D01*
X108949000Y-72003516D01*
X108949000Y-71796484D01*
X108989389Y-71593436D01*
X109068615Y-71402167D01*
X109183635Y-71230027D01*
X109330027Y-71083635D01*
X109501489Y-70969068D01*
X109502165Y-70968616D01*
X109502167Y-70968615D01*
X109693436Y-70889389D01*
X109896484Y-70849000D01*
X110103516Y-70849000D01*
X110306564Y-70889389D01*
X110306564Y-70889389D01*
G37*
G36*
X130306564Y-70889389D02*
G01*
X130497833Y-70968615D01*
X130497835Y-70968616D01*
X130498511Y-70969068D01*
X130669973Y-71083635D01*
X130816365Y-71230027D01*
X130931385Y-71402167D01*
X131010611Y-71593436D01*
X131051000Y-71796484D01*
X131051000Y-72003516D01*
X131010611Y-72206564D01*
X130931485Y-72397592D01*
X130931384Y-72397835D01*
X130816365Y-72569973D01*
X130669973Y-72716365D01*
X130497835Y-72831384D01*
X130497834Y-72831385D01*
X130497833Y-72831385D01*
X130306564Y-72910611D01*
X130103516Y-72951000D01*
X129896484Y-72951000D01*
X129693436Y-72910611D01*
X129502167Y-72831385D01*
X129502166Y-72831385D01*
X129502165Y-72831384D01*
X129330027Y-72716365D01*
X129183635Y-72569973D01*
X129068616Y-72397835D01*
X129068515Y-72397592D01*
X128989389Y-72206564D01*
X128949000Y-72003516D01*
X128949000Y-71796484D01*
X128989389Y-71593436D01*
X129068615Y-71402167D01*
X129183635Y-71230027D01*
X129330027Y-71083635D01*
X129501489Y-70969068D01*
X129502165Y-70968616D01*
X129502167Y-70968615D01*
X129693436Y-70889389D01*
X129896484Y-70849000D01*
X130103516Y-70849000D01*
X130306564Y-70889389D01*
X130306564Y-70889389D01*
G37*
G36*
X120306564Y-70889389D02*
G01*
X120497833Y-70968615D01*
X120497835Y-70968616D01*
X120498511Y-70969068D01*
X120669973Y-71083635D01*
X120816365Y-71230027D01*
X120931385Y-71402167D01*
X121010611Y-71593436D01*
X121051000Y-71796484D01*
X121051000Y-72003516D01*
X121010611Y-72206564D01*
X120931485Y-72397592D01*
X120931384Y-72397835D01*
X120816365Y-72569973D01*
X120669973Y-72716365D01*
X120497835Y-72831384D01*
X120497834Y-72831385D01*
X120497833Y-72831385D01*
X120306564Y-72910611D01*
X120103516Y-72951000D01*
X119896484Y-72951000D01*
X119693436Y-72910611D01*
X119502167Y-72831385D01*
X119502166Y-72831385D01*
X119502165Y-72831384D01*
X119330027Y-72716365D01*
X119183635Y-72569973D01*
X119068616Y-72397835D01*
X119068515Y-72397592D01*
X118989389Y-72206564D01*
X118949000Y-72003516D01*
X118949000Y-71796484D01*
X118989389Y-71593436D01*
X119068615Y-71402167D01*
X119183635Y-71230027D01*
X119330027Y-71083635D01*
X119501489Y-70969068D01*
X119502165Y-70968616D01*
X119502167Y-70968615D01*
X119693436Y-70889389D01*
X119896484Y-70849000D01*
X120103516Y-70849000D01*
X120306564Y-70889389D01*
X120306564Y-70889389D01*
G37*
G36*
X100306564Y-70889389D02*
G01*
X100497833Y-70968615D01*
X100497835Y-70968616D01*
X100498511Y-70969068D01*
X100669973Y-71083635D01*
X100816365Y-71230027D01*
X100931385Y-71402167D01*
X101010611Y-71593436D01*
X101051000Y-71796484D01*
X101051000Y-72003516D01*
X101010611Y-72206564D01*
X100931485Y-72397592D01*
X100931384Y-72397835D01*
X100816365Y-72569973D01*
X100669973Y-72716365D01*
X100497835Y-72831384D01*
X100497834Y-72831385D01*
X100497833Y-72831385D01*
X100306564Y-72910611D01*
X100103516Y-72951000D01*
X99896484Y-72951000D01*
X99693436Y-72910611D01*
X99502167Y-72831385D01*
X99502166Y-72831385D01*
X99502165Y-72831384D01*
X99330027Y-72716365D01*
X99183635Y-72569973D01*
X99068616Y-72397835D01*
X99068515Y-72397592D01*
X98989389Y-72206564D01*
X98949000Y-72003516D01*
X98949000Y-71796484D01*
X98989389Y-71593436D01*
X99068615Y-71402167D01*
X99183635Y-71230027D01*
X99330027Y-71083635D01*
X99501489Y-70969068D01*
X99502165Y-70968616D01*
X99502167Y-70968615D01*
X99693436Y-70889389D01*
X99896484Y-70849000D01*
X100103516Y-70849000D01*
X100306564Y-70889389D01*
X100306564Y-70889389D01*
G37*
G36*
X140306416Y-70889879D02*
G01*
X140496503Y-70968616D01*
X140497594Y-70969068D01*
X140669055Y-71083635D01*
X140669648Y-71084031D01*
X140815969Y-71230352D01*
X140930933Y-71402408D01*
X141010121Y-71593584D01*
X141050490Y-71796534D01*
X141050490Y-72003466D01*
X141010121Y-72206416D01*
X141010059Y-72206565D01*
X140930932Y-72397594D01*
X140815969Y-72569648D01*
X140669648Y-72715969D01*
X140497594Y-72830932D01*
X140497593Y-72830933D01*
X140497592Y-72830933D01*
X140306416Y-72910121D01*
X140103466Y-72950490D01*
X139896534Y-72950490D01*
X139693584Y-72910121D01*
X139502408Y-72830933D01*
X139502407Y-72830933D01*
X139502406Y-72830932D01*
X139330352Y-72715969D01*
X139184031Y-72569648D01*
X139069068Y-72397594D01*
X138989941Y-72206565D01*
X138989879Y-72206416D01*
X138949510Y-72003466D01*
X138949510Y-71796534D01*
X138989879Y-71593584D01*
X139069067Y-71402408D01*
X139184031Y-71230352D01*
X139330352Y-71084031D01*
X139330945Y-71083635D01*
X139502406Y-70969068D01*
X139503497Y-70968616D01*
X139693584Y-70889879D01*
X139896534Y-70849510D01*
X140103466Y-70849510D01*
X140306416Y-70889879D01*
X140306416Y-70889879D01*
G37*
G36*
X133106416Y-70889879D02*
G01*
X133296503Y-70968616D01*
X133297594Y-70969068D01*
X133469055Y-71083635D01*
X133469648Y-71084031D01*
X133615969Y-71230352D01*
X133730933Y-71402408D01*
X133810121Y-71593584D01*
X133850490Y-71796534D01*
X133850490Y-72003466D01*
X133810121Y-72206416D01*
X133810059Y-72206565D01*
X133730932Y-72397594D01*
X133615969Y-72569648D01*
X133469648Y-72715969D01*
X133297594Y-72830932D01*
X133297593Y-72830933D01*
X133297592Y-72830933D01*
X133106416Y-72910121D01*
X132903466Y-72950490D01*
X132696534Y-72950490D01*
X132493584Y-72910121D01*
X132302408Y-72830933D01*
X132302407Y-72830933D01*
X132302406Y-72830932D01*
X132130352Y-72715969D01*
X131984031Y-72569648D01*
X131869068Y-72397594D01*
X131789941Y-72206565D01*
X131789879Y-72206416D01*
X131749510Y-72003466D01*
X131749510Y-71796534D01*
X131789879Y-71593584D01*
X131869067Y-71402408D01*
X131984031Y-71230352D01*
X132130352Y-71084031D01*
X132130945Y-71083635D01*
X132302406Y-70969068D01*
X132303497Y-70968616D01*
X132493584Y-70889879D01*
X132696534Y-70849510D01*
X132903466Y-70849510D01*
X133106416Y-70889879D01*
X133106416Y-70889879D01*
G37*
G36*
X71151000Y-69901000D02*
G01*
X68849000Y-69901000D01*
X68849000Y-67599000D01*
X71151000Y-67599000D01*
X71151000Y-69901000D01*
X71151000Y-69901000D01*
G37*
G36*
X91151000Y-69871000D02*
G01*
X88849000Y-69871000D01*
X88849000Y-67569000D01*
X91151000Y-67569000D01*
X91151000Y-69871000D01*
X91151000Y-69871000D01*
G37*
G36*
X101151000Y-69871000D02*
G01*
X98849000Y-69871000D01*
X98849000Y-67569000D01*
X101151000Y-67569000D01*
X101151000Y-69871000D01*
X101151000Y-69871000D01*
G37*
G36*
X111151000Y-69871000D02*
G01*
X108849000Y-69871000D01*
X108849000Y-67569000D01*
X111151000Y-67569000D01*
X111151000Y-69871000D01*
X111151000Y-69871000D01*
G37*
G36*
X131151000Y-69871000D02*
G01*
X128849000Y-69871000D01*
X128849000Y-67569000D01*
X131151000Y-67569000D01*
X131151000Y-69871000D01*
X131151000Y-69871000D01*
G37*
G36*
X141151000Y-69871000D02*
G01*
X138849000Y-69871000D01*
X138849000Y-67569000D01*
X141151000Y-67569000D01*
X141151000Y-69871000D01*
X141151000Y-69871000D01*
G37*
G36*
X81151000Y-69871000D02*
G01*
X78849000Y-69871000D01*
X78849000Y-67569000D01*
X81151000Y-67569000D01*
X81151000Y-69871000D01*
X81151000Y-69871000D01*
G37*
G36*
X121151000Y-69871000D02*
G01*
X118849000Y-69871000D01*
X118849000Y-67569000D01*
X121151000Y-67569000D01*
X121151000Y-69871000D01*
X121151000Y-69871000D01*
G37*
G36*
X103059271Y-67259217D02*
G01*
X103115635Y-67264768D01*
X103332600Y-67330584D01*
X103332602Y-67330585D01*
X103532555Y-67437461D01*
X103707818Y-67581296D01*
X103851653Y-67756559D01*
X103921991Y-67888154D01*
X103958530Y-67956514D01*
X104006239Y-68113789D01*
X104024346Y-68173480D01*
X104046569Y-68399114D01*
X104024346Y-68624748D01*
X103958529Y-68841716D01*
X103851653Y-69041669D01*
X103707818Y-69216932D01*
X103532555Y-69360767D01*
X103332602Y-69467643D01*
X103332600Y-69467644D01*
X103115635Y-69533460D01*
X103059271Y-69539011D01*
X102946545Y-69550114D01*
X102833455Y-69550114D01*
X102720729Y-69539011D01*
X102664365Y-69533460D01*
X102447400Y-69467644D01*
X102447398Y-69467643D01*
X102247445Y-69360767D01*
X102072182Y-69216932D01*
X101928347Y-69041669D01*
X101821471Y-68841716D01*
X101755654Y-68624748D01*
X101733431Y-68399114D01*
X101755654Y-68173480D01*
X101773761Y-68113789D01*
X101821470Y-67956514D01*
X101858009Y-67888154D01*
X101928347Y-67756559D01*
X102072182Y-67581296D01*
X102247445Y-67437461D01*
X102447398Y-67330585D01*
X102447400Y-67330584D01*
X102664365Y-67264768D01*
X102720729Y-67259217D01*
X102833455Y-67248114D01*
X102946545Y-67248114D01*
X103059271Y-67259217D01*
X103059271Y-67259217D01*
G37*
G36*
X123059271Y-67259217D02*
G01*
X123115635Y-67264768D01*
X123332600Y-67330584D01*
X123332602Y-67330585D01*
X123532555Y-67437461D01*
X123707818Y-67581296D01*
X123851653Y-67756559D01*
X123921991Y-67888154D01*
X123958530Y-67956514D01*
X124006239Y-68113789D01*
X124024346Y-68173480D01*
X124046569Y-68399114D01*
X124024346Y-68624748D01*
X123958529Y-68841716D01*
X123851653Y-69041669D01*
X123707818Y-69216932D01*
X123532555Y-69360767D01*
X123332602Y-69467643D01*
X123332600Y-69467644D01*
X123115635Y-69533460D01*
X123059271Y-69539011D01*
X122946545Y-69550114D01*
X122833455Y-69550114D01*
X122720729Y-69539011D01*
X122664365Y-69533460D01*
X122447400Y-69467644D01*
X122447398Y-69467643D01*
X122247445Y-69360767D01*
X122072182Y-69216932D01*
X121928347Y-69041669D01*
X121821471Y-68841716D01*
X121755654Y-68624748D01*
X121733431Y-68399114D01*
X121755654Y-68173480D01*
X121773761Y-68113789D01*
X121821470Y-67956514D01*
X121858009Y-67888154D01*
X121928347Y-67756559D01*
X122072182Y-67581296D01*
X122247445Y-67437461D01*
X122447398Y-67330585D01*
X122447400Y-67330584D01*
X122664365Y-67264768D01*
X122720729Y-67259217D01*
X122833455Y-67248114D01*
X122946545Y-67248114D01*
X123059271Y-67259217D01*
X123059271Y-67259217D01*
G37*
G36*
X113059271Y-67259217D02*
G01*
X113115635Y-67264768D01*
X113332600Y-67330584D01*
X113332602Y-67330585D01*
X113532555Y-67437461D01*
X113707818Y-67581296D01*
X113851653Y-67756559D01*
X113921991Y-67888154D01*
X113958530Y-67956514D01*
X114006239Y-68113789D01*
X114024346Y-68173480D01*
X114046569Y-68399114D01*
X114024346Y-68624748D01*
X113958529Y-68841716D01*
X113851653Y-69041669D01*
X113707818Y-69216932D01*
X113532555Y-69360767D01*
X113332602Y-69467643D01*
X113332600Y-69467644D01*
X113115635Y-69533460D01*
X113059271Y-69539011D01*
X112946545Y-69550114D01*
X112833455Y-69550114D01*
X112720729Y-69539011D01*
X112664365Y-69533460D01*
X112447400Y-69467644D01*
X112447398Y-69467643D01*
X112247445Y-69360767D01*
X112072182Y-69216932D01*
X111928347Y-69041669D01*
X111821471Y-68841716D01*
X111755654Y-68624748D01*
X111733431Y-68399114D01*
X111755654Y-68173480D01*
X111773761Y-68113789D01*
X111821470Y-67956514D01*
X111858009Y-67888154D01*
X111928347Y-67756559D01*
X112072182Y-67581296D01*
X112247445Y-67437461D01*
X112447398Y-67330585D01*
X112447400Y-67330584D01*
X112664365Y-67264768D01*
X112720729Y-67259217D01*
X112833455Y-67248114D01*
X112946545Y-67248114D01*
X113059271Y-67259217D01*
X113059271Y-67259217D01*
G37*
G36*
X93059271Y-67259217D02*
G01*
X93115635Y-67264768D01*
X93332600Y-67330584D01*
X93332602Y-67330585D01*
X93532555Y-67437461D01*
X93707818Y-67581296D01*
X93851653Y-67756559D01*
X93921991Y-67888154D01*
X93958530Y-67956514D01*
X94006239Y-68113789D01*
X94024346Y-68173480D01*
X94046569Y-68399114D01*
X94024346Y-68624748D01*
X93958529Y-68841716D01*
X93851653Y-69041669D01*
X93707818Y-69216932D01*
X93532555Y-69360767D01*
X93332602Y-69467643D01*
X93332600Y-69467644D01*
X93115635Y-69533460D01*
X93059271Y-69539011D01*
X92946545Y-69550114D01*
X92833455Y-69550114D01*
X92720729Y-69539011D01*
X92664365Y-69533460D01*
X92447400Y-69467644D01*
X92447398Y-69467643D01*
X92247445Y-69360767D01*
X92072182Y-69216932D01*
X91928347Y-69041669D01*
X91821471Y-68841716D01*
X91755654Y-68624748D01*
X91733431Y-68399114D01*
X91755654Y-68173480D01*
X91773761Y-68113789D01*
X91821470Y-67956514D01*
X91858009Y-67888154D01*
X91928347Y-67756559D01*
X92072182Y-67581296D01*
X92247445Y-67437461D01*
X92447398Y-67330585D01*
X92447400Y-67330584D01*
X92664365Y-67264768D01*
X92720729Y-67259217D01*
X92833455Y-67248114D01*
X92946545Y-67248114D01*
X93059271Y-67259217D01*
X93059271Y-67259217D01*
G37*
G36*
X83059271Y-67259217D02*
G01*
X83115635Y-67264768D01*
X83332600Y-67330584D01*
X83332602Y-67330585D01*
X83532555Y-67437461D01*
X83707818Y-67581296D01*
X83851653Y-67756559D01*
X83921991Y-67888154D01*
X83958530Y-67956514D01*
X84006239Y-68113789D01*
X84024346Y-68173480D01*
X84046569Y-68399114D01*
X84024346Y-68624748D01*
X83958529Y-68841716D01*
X83851653Y-69041669D01*
X83707818Y-69216932D01*
X83532555Y-69360767D01*
X83332602Y-69467643D01*
X83332600Y-69467644D01*
X83115635Y-69533460D01*
X83059271Y-69539011D01*
X82946545Y-69550114D01*
X82833455Y-69550114D01*
X82720729Y-69539011D01*
X82664365Y-69533460D01*
X82447400Y-69467644D01*
X82447398Y-69467643D01*
X82247445Y-69360767D01*
X82072182Y-69216932D01*
X81928347Y-69041669D01*
X81821471Y-68841716D01*
X81755654Y-68624748D01*
X81733431Y-68399114D01*
X81755654Y-68173480D01*
X81773761Y-68113789D01*
X81821470Y-67956514D01*
X81858009Y-67888154D01*
X81928347Y-67756559D01*
X82072182Y-67581296D01*
X82247445Y-67437461D01*
X82447398Y-67330585D01*
X82447400Y-67330584D01*
X82664365Y-67264768D01*
X82720729Y-67259217D01*
X82833455Y-67248114D01*
X82946545Y-67248114D01*
X83059271Y-67259217D01*
X83059271Y-67259217D01*
G37*
G36*
X73059271Y-67259217D02*
G01*
X73115635Y-67264768D01*
X73332600Y-67330584D01*
X73332602Y-67330585D01*
X73532555Y-67437461D01*
X73707818Y-67581296D01*
X73851653Y-67756559D01*
X73921991Y-67888154D01*
X73958530Y-67956514D01*
X74006239Y-68113789D01*
X74024346Y-68173480D01*
X74046569Y-68399114D01*
X74024346Y-68624748D01*
X73958529Y-68841716D01*
X73851653Y-69041669D01*
X73707818Y-69216932D01*
X73532555Y-69360767D01*
X73332602Y-69467643D01*
X73332600Y-69467644D01*
X73115635Y-69533460D01*
X73059271Y-69539011D01*
X72946545Y-69550114D01*
X72833455Y-69550114D01*
X72720729Y-69539011D01*
X72664365Y-69533460D01*
X72447400Y-69467644D01*
X72447398Y-69467643D01*
X72247445Y-69360767D01*
X72072182Y-69216932D01*
X71928347Y-69041669D01*
X71821471Y-68841716D01*
X71755654Y-68624748D01*
X71733431Y-68399114D01*
X71755654Y-68173480D01*
X71773761Y-68113789D01*
X71821470Y-67956514D01*
X71858009Y-67888154D01*
X71928347Y-67756559D01*
X72072182Y-67581296D01*
X72247445Y-67437461D01*
X72447398Y-67330585D01*
X72447400Y-67330584D01*
X72664365Y-67264768D01*
X72720729Y-67259217D01*
X72833455Y-67248114D01*
X72946545Y-67248114D01*
X73059271Y-67259217D01*
X73059271Y-67259217D01*
G37*
G36*
X133059271Y-67259217D02*
G01*
X133115635Y-67264768D01*
X133332600Y-67330584D01*
X133332602Y-67330585D01*
X133532555Y-67437461D01*
X133707818Y-67581296D01*
X133851653Y-67756559D01*
X133921991Y-67888154D01*
X133958530Y-67956514D01*
X134006239Y-68113789D01*
X134024346Y-68173480D01*
X134046569Y-68399114D01*
X134024346Y-68624748D01*
X133958529Y-68841716D01*
X133851653Y-69041669D01*
X133707818Y-69216932D01*
X133532555Y-69360767D01*
X133332602Y-69467643D01*
X133332600Y-69467644D01*
X133115635Y-69533460D01*
X133059271Y-69539011D01*
X132946545Y-69550114D01*
X132833455Y-69550114D01*
X132720729Y-69539011D01*
X132664365Y-69533460D01*
X132447400Y-69467644D01*
X132447398Y-69467643D01*
X132247445Y-69360767D01*
X132072182Y-69216932D01*
X131928347Y-69041669D01*
X131821471Y-68841716D01*
X131755654Y-68624748D01*
X131733431Y-68399114D01*
X131755654Y-68173480D01*
X131773761Y-68113789D01*
X131821470Y-67956514D01*
X131858009Y-67888154D01*
X131928347Y-67756559D01*
X132072182Y-67581296D01*
X132247445Y-67437461D01*
X132447398Y-67330585D01*
X132447400Y-67330584D01*
X132664365Y-67264768D01*
X132720729Y-67259217D01*
X132833455Y-67248114D01*
X132946545Y-67248114D01*
X133059271Y-67259217D01*
X133059271Y-67259217D01*
G37*
G36*
X60781117Y-66748257D02*
G01*
X60837481Y-66753808D01*
X61054446Y-66819624D01*
X61054448Y-66819625D01*
X61254401Y-66926501D01*
X61429664Y-67070336D01*
X61573499Y-67245599D01*
X61618924Y-67330585D01*
X61680376Y-67445554D01*
X61746192Y-67662519D01*
X61768415Y-67888154D01*
X61746192Y-68113789D01*
X61728085Y-68173480D01*
X61680375Y-68330756D01*
X61573499Y-68530709D01*
X61429664Y-68705972D01*
X61254401Y-68849807D01*
X61054448Y-68956683D01*
X61054446Y-68956684D01*
X60837481Y-69022500D01*
X60781117Y-69028051D01*
X60668391Y-69039154D01*
X60555301Y-69039154D01*
X60442575Y-69028051D01*
X60386211Y-69022500D01*
X60169246Y-68956684D01*
X60169244Y-68956683D01*
X59969291Y-68849807D01*
X59794028Y-68705972D01*
X59650193Y-68530709D01*
X59543317Y-68330756D01*
X59495608Y-68173480D01*
X59477500Y-68113789D01*
X59455277Y-67888154D01*
X59477500Y-67662519D01*
X59543316Y-67445554D01*
X59604768Y-67330585D01*
X59650193Y-67245599D01*
X59794028Y-67070336D01*
X59969291Y-66926501D01*
X60169244Y-66819625D01*
X60169246Y-66819624D01*
X60386211Y-66753808D01*
X60442575Y-66748257D01*
X60555301Y-66737154D01*
X60668391Y-66737154D01*
X60781117Y-66748257D01*
X60781117Y-66748257D01*
G37*
G36*
X67627760Y-62500000D02*
G01*
X66000000Y-64127760D01*
X64372240Y-62500000D01*
X66000000Y-60872240D01*
X67627760Y-62500000D01*
X67627760Y-62500000D01*
G37*
G36*
X78272295Y-61378705D02*
G01*
X77121295Y-63372295D01*
X75127705Y-62221295D01*
X76278705Y-60227705D01*
X78272295Y-61378705D01*
X78272295Y-61378705D01*
G37*
G36*
X88272295Y-61378705D02*
G01*
X87121295Y-63372295D01*
X85127705Y-62221295D01*
X86278705Y-60227705D01*
X88272295Y-61378705D01*
X88272295Y-61378705D01*
G37*
G36*
X98272295Y-61378705D02*
G01*
X97121295Y-63372295D01*
X95127705Y-62221295D01*
X96278705Y-60227705D01*
X98272295Y-61378705D01*
X98272295Y-61378705D01*
G37*
G36*
X108272295Y-61378705D02*
G01*
X107121295Y-63372295D01*
X105127705Y-62221295D01*
X106278705Y-60227705D01*
X108272295Y-61378705D01*
X108272295Y-61378705D01*
G37*
G36*
X128272295Y-61378705D02*
G01*
X127121295Y-63372295D01*
X125127705Y-62221295D01*
X126278705Y-60227705D01*
X128272295Y-61378705D01*
X128272295Y-61378705D01*
G37*
G36*
X138272295Y-61378705D02*
G01*
X137121295Y-63372295D01*
X135127705Y-62221295D01*
X136278705Y-60227705D01*
X138272295Y-61378705D01*
X138272295Y-61378705D01*
G37*
G36*
X118272295Y-61378705D02*
G01*
X117121295Y-63372295D01*
X115127705Y-62221295D01*
X116278705Y-60227705D01*
X118272295Y-61378705D01*
X118272295Y-61378705D01*
G37*
G36*
X70169271Y-59990103D02*
G01*
X70225635Y-59995654D01*
X70442600Y-60061470D01*
X70442602Y-60061471D01*
X70642555Y-60168347D01*
X70817818Y-60312182D01*
X70961653Y-60487445D01*
X71052494Y-60657398D01*
X71068530Y-60687400D01*
X71134346Y-60904365D01*
X71156569Y-61130000D01*
X71134346Y-61355635D01*
X71077630Y-61542602D01*
X71068529Y-61572602D01*
X70961653Y-61772555D01*
X70817818Y-61947818D01*
X70642555Y-62091653D01*
X70442602Y-62198529D01*
X70442600Y-62198530D01*
X70225635Y-62264346D01*
X70169271Y-62269897D01*
X70056545Y-62281000D01*
X69943455Y-62281000D01*
X69830729Y-62269897D01*
X69774365Y-62264346D01*
X69557400Y-62198530D01*
X69557398Y-62198529D01*
X69357445Y-62091653D01*
X69182182Y-61947818D01*
X69038347Y-61772555D01*
X68931471Y-61572602D01*
X68922371Y-61542602D01*
X68865654Y-61355635D01*
X68843431Y-61130000D01*
X68865654Y-60904365D01*
X68931470Y-60687400D01*
X68947506Y-60657398D01*
X69038347Y-60487445D01*
X69182182Y-60312182D01*
X69357445Y-60168347D01*
X69557398Y-60061471D01*
X69557400Y-60061470D01*
X69774365Y-59995654D01*
X69830729Y-59990103D01*
X69943455Y-59979000D01*
X70056545Y-59979000D01*
X70169271Y-59990103D01*
X70169271Y-59990103D01*
G37*
G36*
X110169271Y-59960103D02*
G01*
X110225635Y-59965654D01*
X110442600Y-60031470D01*
X110442602Y-60031471D01*
X110642555Y-60138347D01*
X110817818Y-60282182D01*
X110961653Y-60457445D01*
X111068529Y-60657398D01*
X111068530Y-60657400D01*
X111134346Y-60874365D01*
X111156569Y-61100000D01*
X111134346Y-61325635D01*
X111125246Y-61355635D01*
X111068529Y-61542602D01*
X110961653Y-61742555D01*
X110817818Y-61917818D01*
X110642555Y-62061653D01*
X110442602Y-62168529D01*
X110442600Y-62168530D01*
X110225635Y-62234346D01*
X110169271Y-62239897D01*
X110056545Y-62251000D01*
X109943455Y-62251000D01*
X109830729Y-62239897D01*
X109774365Y-62234346D01*
X109557400Y-62168530D01*
X109557398Y-62168529D01*
X109357445Y-62061653D01*
X109182182Y-61917818D01*
X109038347Y-61742555D01*
X108931471Y-61542602D01*
X108874755Y-61355635D01*
X108865654Y-61325635D01*
X108843431Y-61100000D01*
X108865654Y-60874365D01*
X108931470Y-60657400D01*
X108931471Y-60657398D01*
X109038347Y-60457445D01*
X109182182Y-60282182D01*
X109357445Y-60138347D01*
X109557398Y-60031471D01*
X109557400Y-60031470D01*
X109774365Y-59965654D01*
X109830729Y-59960103D01*
X109943455Y-59949000D01*
X110056545Y-59949000D01*
X110169271Y-59960103D01*
X110169271Y-59960103D01*
G37*
G36*
X80169271Y-59960103D02*
G01*
X80225635Y-59965654D01*
X80442600Y-60031470D01*
X80442602Y-60031471D01*
X80642555Y-60138347D01*
X80817818Y-60282182D01*
X80961653Y-60457445D01*
X81068529Y-60657398D01*
X81068530Y-60657400D01*
X81134346Y-60874365D01*
X81156569Y-61100000D01*
X81134346Y-61325635D01*
X81125246Y-61355635D01*
X81068529Y-61542602D01*
X80961653Y-61742555D01*
X80817818Y-61917818D01*
X80642555Y-62061653D01*
X80442602Y-62168529D01*
X80442600Y-62168530D01*
X80225635Y-62234346D01*
X80169271Y-62239897D01*
X80056545Y-62251000D01*
X79943455Y-62251000D01*
X79830729Y-62239897D01*
X79774365Y-62234346D01*
X79557400Y-62168530D01*
X79557398Y-62168529D01*
X79357445Y-62061653D01*
X79182182Y-61917818D01*
X79038347Y-61742555D01*
X78931471Y-61542602D01*
X78874755Y-61355635D01*
X78865654Y-61325635D01*
X78843431Y-61100000D01*
X78865654Y-60874365D01*
X78931470Y-60657400D01*
X78931471Y-60657398D01*
X79038347Y-60457445D01*
X79182182Y-60282182D01*
X79357445Y-60138347D01*
X79557398Y-60031471D01*
X79557400Y-60031470D01*
X79774365Y-59965654D01*
X79830729Y-59960103D01*
X79943455Y-59949000D01*
X80056545Y-59949000D01*
X80169271Y-59960103D01*
X80169271Y-59960103D01*
G37*
G36*
X90169271Y-59960103D02*
G01*
X90225635Y-59965654D01*
X90442600Y-60031470D01*
X90442602Y-60031471D01*
X90642555Y-60138347D01*
X90817818Y-60282182D01*
X90961653Y-60457445D01*
X91068529Y-60657398D01*
X91068530Y-60657400D01*
X91134346Y-60874365D01*
X91156569Y-61100000D01*
X91134346Y-61325635D01*
X91125246Y-61355635D01*
X91068529Y-61542602D01*
X90961653Y-61742555D01*
X90817818Y-61917818D01*
X90642555Y-62061653D01*
X90442602Y-62168529D01*
X90442600Y-62168530D01*
X90225635Y-62234346D01*
X90169271Y-62239897D01*
X90056545Y-62251000D01*
X89943455Y-62251000D01*
X89830729Y-62239897D01*
X89774365Y-62234346D01*
X89557400Y-62168530D01*
X89557398Y-62168529D01*
X89357445Y-62061653D01*
X89182182Y-61917818D01*
X89038347Y-61742555D01*
X88931471Y-61542602D01*
X88874755Y-61355635D01*
X88865654Y-61325635D01*
X88843431Y-61100000D01*
X88865654Y-60874365D01*
X88931470Y-60657400D01*
X88931471Y-60657398D01*
X89038347Y-60457445D01*
X89182182Y-60282182D01*
X89357445Y-60138347D01*
X89557398Y-60031471D01*
X89557400Y-60031470D01*
X89774365Y-59965654D01*
X89830729Y-59960103D01*
X89943455Y-59949000D01*
X90056545Y-59949000D01*
X90169271Y-59960103D01*
X90169271Y-59960103D01*
G37*
G36*
X100169271Y-59960103D02*
G01*
X100225635Y-59965654D01*
X100442600Y-60031470D01*
X100442602Y-60031471D01*
X100642555Y-60138347D01*
X100817818Y-60282182D01*
X100961653Y-60457445D01*
X101068529Y-60657398D01*
X101068530Y-60657400D01*
X101134346Y-60874365D01*
X101156569Y-61100000D01*
X101134346Y-61325635D01*
X101125246Y-61355635D01*
X101068529Y-61542602D01*
X100961653Y-61742555D01*
X100817818Y-61917818D01*
X100642555Y-62061653D01*
X100442602Y-62168529D01*
X100442600Y-62168530D01*
X100225635Y-62234346D01*
X100169271Y-62239897D01*
X100056545Y-62251000D01*
X99943455Y-62251000D01*
X99830729Y-62239897D01*
X99774365Y-62234346D01*
X99557400Y-62168530D01*
X99557398Y-62168529D01*
X99357445Y-62061653D01*
X99182182Y-61917818D01*
X99038347Y-61742555D01*
X98931471Y-61542602D01*
X98874755Y-61355635D01*
X98865654Y-61325635D01*
X98843431Y-61100000D01*
X98865654Y-60874365D01*
X98931470Y-60657400D01*
X98931471Y-60657398D01*
X99038347Y-60457445D01*
X99182182Y-60282182D01*
X99357445Y-60138347D01*
X99557398Y-60031471D01*
X99557400Y-60031470D01*
X99774365Y-59965654D01*
X99830729Y-59960103D01*
X99943455Y-59949000D01*
X100056545Y-59949000D01*
X100169271Y-59960103D01*
X100169271Y-59960103D01*
G37*
G36*
X140169271Y-59960103D02*
G01*
X140225635Y-59965654D01*
X140442600Y-60031470D01*
X140442602Y-60031471D01*
X140642555Y-60138347D01*
X140817818Y-60282182D01*
X140961653Y-60457445D01*
X141068529Y-60657398D01*
X141068530Y-60657400D01*
X141134346Y-60874365D01*
X141156569Y-61100000D01*
X141134346Y-61325635D01*
X141125246Y-61355635D01*
X141068529Y-61542602D01*
X140961653Y-61742555D01*
X140817818Y-61917818D01*
X140642555Y-62061653D01*
X140442602Y-62168529D01*
X140442600Y-62168530D01*
X140225635Y-62234346D01*
X140169271Y-62239897D01*
X140056545Y-62251000D01*
X139943455Y-62251000D01*
X139830729Y-62239897D01*
X139774365Y-62234346D01*
X139557400Y-62168530D01*
X139557398Y-62168529D01*
X139357445Y-62061653D01*
X139182182Y-61917818D01*
X139038347Y-61742555D01*
X138931471Y-61542602D01*
X138874755Y-61355635D01*
X138865654Y-61325635D01*
X138843431Y-61100000D01*
X138865654Y-60874365D01*
X138931470Y-60657400D01*
X138931471Y-60657398D01*
X139038347Y-60457445D01*
X139182182Y-60282182D01*
X139357445Y-60138347D01*
X139557398Y-60031471D01*
X139557400Y-60031470D01*
X139774365Y-59965654D01*
X139830729Y-59960103D01*
X139943455Y-59949000D01*
X140056545Y-59949000D01*
X140169271Y-59960103D01*
X140169271Y-59960103D01*
G37*
G36*
X130169271Y-59960103D02*
G01*
X130225635Y-59965654D01*
X130442600Y-60031470D01*
X130442602Y-60031471D01*
X130642555Y-60138347D01*
X130817818Y-60282182D01*
X130961653Y-60457445D01*
X131068529Y-60657398D01*
X131068530Y-60657400D01*
X131134346Y-60874365D01*
X131156569Y-61100000D01*
X131134346Y-61325635D01*
X131125246Y-61355635D01*
X131068529Y-61542602D01*
X130961653Y-61742555D01*
X130817818Y-61917818D01*
X130642555Y-62061653D01*
X130442602Y-62168529D01*
X130442600Y-62168530D01*
X130225635Y-62234346D01*
X130169271Y-62239897D01*
X130056545Y-62251000D01*
X129943455Y-62251000D01*
X129830729Y-62239897D01*
X129774365Y-62234346D01*
X129557400Y-62168530D01*
X129557398Y-62168529D01*
X129357445Y-62061653D01*
X129182182Y-61917818D01*
X129038347Y-61742555D01*
X128931471Y-61542602D01*
X128874755Y-61355635D01*
X128865654Y-61325635D01*
X128843431Y-61100000D01*
X128865654Y-60874365D01*
X128931470Y-60657400D01*
X128931471Y-60657398D01*
X129038347Y-60457445D01*
X129182182Y-60282182D01*
X129357445Y-60138347D01*
X129557398Y-60031471D01*
X129557400Y-60031470D01*
X129774365Y-59965654D01*
X129830729Y-59960103D01*
X129943455Y-59949000D01*
X130056545Y-59949000D01*
X130169271Y-59960103D01*
X130169271Y-59960103D01*
G37*
G36*
X120169271Y-59960103D02*
G01*
X120225635Y-59965654D01*
X120442600Y-60031470D01*
X120442602Y-60031471D01*
X120642555Y-60138347D01*
X120817818Y-60282182D01*
X120961653Y-60457445D01*
X121068529Y-60657398D01*
X121068530Y-60657400D01*
X121134346Y-60874365D01*
X121156569Y-61100000D01*
X121134346Y-61325635D01*
X121125246Y-61355635D01*
X121068529Y-61542602D01*
X120961653Y-61742555D01*
X120817818Y-61917818D01*
X120642555Y-62061653D01*
X120442602Y-62168529D01*
X120442600Y-62168530D01*
X120225635Y-62234346D01*
X120169271Y-62239897D01*
X120056545Y-62251000D01*
X119943455Y-62251000D01*
X119830729Y-62239897D01*
X119774365Y-62234346D01*
X119557400Y-62168530D01*
X119557398Y-62168529D01*
X119357445Y-62061653D01*
X119182182Y-61917818D01*
X119038347Y-61742555D01*
X118931471Y-61542602D01*
X118874755Y-61355635D01*
X118865654Y-61325635D01*
X118843431Y-61100000D01*
X118865654Y-60874365D01*
X118931470Y-60657400D01*
X118931471Y-60657398D01*
X119038347Y-60457445D01*
X119182182Y-60282182D01*
X119357445Y-60138347D01*
X119557398Y-60031471D01*
X119557400Y-60031470D01*
X119774365Y-59965654D01*
X119830729Y-59960103D01*
X119943455Y-59949000D01*
X120056545Y-59949000D01*
X120169271Y-59960103D01*
X120169271Y-59960103D01*
G37*
G36*
X100306564Y-56989389D02*
G01*
X100497833Y-57068615D01*
X100497835Y-57068616D01*
X100515399Y-57080352D01*
X100669973Y-57183635D01*
X100816365Y-57330027D01*
X100931385Y-57502167D01*
X101010611Y-57693436D01*
X101051000Y-57896484D01*
X101051000Y-58103516D01*
X101010611Y-58306564D01*
X100963770Y-58419648D01*
X100931384Y-58497835D01*
X100816365Y-58669973D01*
X100669973Y-58816365D01*
X100497835Y-58931384D01*
X100497834Y-58931385D01*
X100497833Y-58931385D01*
X100306564Y-59010611D01*
X100103516Y-59051000D01*
X99896484Y-59051000D01*
X99693436Y-59010611D01*
X99502167Y-58931385D01*
X99502166Y-58931385D01*
X99502165Y-58931384D01*
X99330027Y-58816365D01*
X99183635Y-58669973D01*
X99068616Y-58497835D01*
X99036230Y-58419648D01*
X98989389Y-58306564D01*
X98949000Y-58103516D01*
X98949000Y-57896484D01*
X98989389Y-57693436D01*
X99068615Y-57502167D01*
X99183635Y-57330027D01*
X99330027Y-57183635D01*
X99484601Y-57080352D01*
X99502165Y-57068616D01*
X99502167Y-57068615D01*
X99693436Y-56989389D01*
X99896484Y-56949000D01*
X100103516Y-56949000D01*
X100306564Y-56989389D01*
X100306564Y-56989389D01*
G37*
G36*
X130306564Y-56989389D02*
G01*
X130497833Y-57068615D01*
X130497835Y-57068616D01*
X130515399Y-57080352D01*
X130669973Y-57183635D01*
X130816365Y-57330027D01*
X130931385Y-57502167D01*
X131010611Y-57693436D01*
X131051000Y-57896484D01*
X131051000Y-58103516D01*
X131010611Y-58306564D01*
X130963770Y-58419648D01*
X130931384Y-58497835D01*
X130816365Y-58669973D01*
X130669973Y-58816365D01*
X130497835Y-58931384D01*
X130497834Y-58931385D01*
X130497833Y-58931385D01*
X130306564Y-59010611D01*
X130103516Y-59051000D01*
X129896484Y-59051000D01*
X129693436Y-59010611D01*
X129502167Y-58931385D01*
X129502166Y-58931385D01*
X129502165Y-58931384D01*
X129330027Y-58816365D01*
X129183635Y-58669973D01*
X129068616Y-58497835D01*
X129036230Y-58419648D01*
X128989389Y-58306564D01*
X128949000Y-58103516D01*
X128949000Y-57896484D01*
X128989389Y-57693436D01*
X129068615Y-57502167D01*
X129183635Y-57330027D01*
X129330027Y-57183635D01*
X129484601Y-57080352D01*
X129502165Y-57068616D01*
X129502167Y-57068615D01*
X129693436Y-56989389D01*
X129896484Y-56949000D01*
X130103516Y-56949000D01*
X130306564Y-56989389D01*
X130306564Y-56989389D01*
G37*
G36*
X120306564Y-56989389D02*
G01*
X120497833Y-57068615D01*
X120497835Y-57068616D01*
X120515399Y-57080352D01*
X120669973Y-57183635D01*
X120816365Y-57330027D01*
X120931385Y-57502167D01*
X121010611Y-57693436D01*
X121051000Y-57896484D01*
X121051000Y-58103516D01*
X121010611Y-58306564D01*
X120963770Y-58419648D01*
X120931384Y-58497835D01*
X120816365Y-58669973D01*
X120669973Y-58816365D01*
X120497835Y-58931384D01*
X120497834Y-58931385D01*
X120497833Y-58931385D01*
X120306564Y-59010611D01*
X120103516Y-59051000D01*
X119896484Y-59051000D01*
X119693436Y-59010611D01*
X119502167Y-58931385D01*
X119502166Y-58931385D01*
X119502165Y-58931384D01*
X119330027Y-58816365D01*
X119183635Y-58669973D01*
X119068616Y-58497835D01*
X119036230Y-58419648D01*
X118989389Y-58306564D01*
X118949000Y-58103516D01*
X118949000Y-57896484D01*
X118989389Y-57693436D01*
X119068615Y-57502167D01*
X119183635Y-57330027D01*
X119330027Y-57183635D01*
X119484601Y-57080352D01*
X119502165Y-57068616D01*
X119502167Y-57068615D01*
X119693436Y-56989389D01*
X119896484Y-56949000D01*
X120103516Y-56949000D01*
X120306564Y-56989389D01*
X120306564Y-56989389D01*
G37*
G36*
X110306564Y-56989389D02*
G01*
X110497833Y-57068615D01*
X110497835Y-57068616D01*
X110515399Y-57080352D01*
X110669973Y-57183635D01*
X110816365Y-57330027D01*
X110931385Y-57502167D01*
X111010611Y-57693436D01*
X111051000Y-57896484D01*
X111051000Y-58103516D01*
X111010611Y-58306564D01*
X110963770Y-58419648D01*
X110931384Y-58497835D01*
X110816365Y-58669973D01*
X110669973Y-58816365D01*
X110497835Y-58931384D01*
X110497834Y-58931385D01*
X110497833Y-58931385D01*
X110306564Y-59010611D01*
X110103516Y-59051000D01*
X109896484Y-59051000D01*
X109693436Y-59010611D01*
X109502167Y-58931385D01*
X109502166Y-58931385D01*
X109502165Y-58931384D01*
X109330027Y-58816365D01*
X109183635Y-58669973D01*
X109068616Y-58497835D01*
X109036230Y-58419648D01*
X108989389Y-58306564D01*
X108949000Y-58103516D01*
X108949000Y-57896484D01*
X108989389Y-57693436D01*
X109068615Y-57502167D01*
X109183635Y-57330027D01*
X109330027Y-57183635D01*
X109484601Y-57080352D01*
X109502165Y-57068616D01*
X109502167Y-57068615D01*
X109693436Y-56989389D01*
X109896484Y-56949000D01*
X110103516Y-56949000D01*
X110306564Y-56989389D01*
X110306564Y-56989389D01*
G37*
G36*
X90306564Y-56989389D02*
G01*
X90497833Y-57068615D01*
X90497835Y-57068616D01*
X90515399Y-57080352D01*
X90669973Y-57183635D01*
X90816365Y-57330027D01*
X90931385Y-57502167D01*
X91010611Y-57693436D01*
X91051000Y-57896484D01*
X91051000Y-58103516D01*
X91010611Y-58306564D01*
X90963770Y-58419648D01*
X90931384Y-58497835D01*
X90816365Y-58669973D01*
X90669973Y-58816365D01*
X90497835Y-58931384D01*
X90497834Y-58931385D01*
X90497833Y-58931385D01*
X90306564Y-59010611D01*
X90103516Y-59051000D01*
X89896484Y-59051000D01*
X89693436Y-59010611D01*
X89502167Y-58931385D01*
X89502166Y-58931385D01*
X89502165Y-58931384D01*
X89330027Y-58816365D01*
X89183635Y-58669973D01*
X89068616Y-58497835D01*
X89036230Y-58419648D01*
X88989389Y-58306564D01*
X88949000Y-58103516D01*
X88949000Y-57896484D01*
X88989389Y-57693436D01*
X89068615Y-57502167D01*
X89183635Y-57330027D01*
X89330027Y-57183635D01*
X89484601Y-57080352D01*
X89502165Y-57068616D01*
X89502167Y-57068615D01*
X89693436Y-56989389D01*
X89896484Y-56949000D01*
X90103516Y-56949000D01*
X90306564Y-56989389D01*
X90306564Y-56989389D01*
G37*
G36*
X70306564Y-56989389D02*
G01*
X70497833Y-57068615D01*
X70497835Y-57068616D01*
X70515399Y-57080352D01*
X70669973Y-57183635D01*
X70816365Y-57330027D01*
X70931385Y-57502167D01*
X71010611Y-57693436D01*
X71051000Y-57896484D01*
X71051000Y-58103516D01*
X71010611Y-58306564D01*
X70963770Y-58419648D01*
X70931384Y-58497835D01*
X70816365Y-58669973D01*
X70669973Y-58816365D01*
X70497835Y-58931384D01*
X70497834Y-58931385D01*
X70497833Y-58931385D01*
X70306564Y-59010611D01*
X70103516Y-59051000D01*
X69896484Y-59051000D01*
X69693436Y-59010611D01*
X69502167Y-58931385D01*
X69502166Y-58931385D01*
X69502165Y-58931384D01*
X69330027Y-58816365D01*
X69183635Y-58669973D01*
X69068616Y-58497835D01*
X69036230Y-58419648D01*
X68989389Y-58306564D01*
X68949000Y-58103516D01*
X68949000Y-57896484D01*
X68989389Y-57693436D01*
X69068615Y-57502167D01*
X69183635Y-57330027D01*
X69330027Y-57183635D01*
X69484601Y-57080352D01*
X69502165Y-57068616D01*
X69502167Y-57068615D01*
X69693436Y-56989389D01*
X69896484Y-56949000D01*
X70103516Y-56949000D01*
X70306564Y-56989389D01*
X70306564Y-56989389D01*
G37*
G36*
X80306564Y-56989389D02*
G01*
X80497833Y-57068615D01*
X80497835Y-57068616D01*
X80515399Y-57080352D01*
X80669973Y-57183635D01*
X80816365Y-57330027D01*
X80931385Y-57502167D01*
X81010611Y-57693436D01*
X81051000Y-57896484D01*
X81051000Y-58103516D01*
X81010611Y-58306564D01*
X80963770Y-58419648D01*
X80931384Y-58497835D01*
X80816365Y-58669973D01*
X80669973Y-58816365D01*
X80497835Y-58931384D01*
X80497834Y-58931385D01*
X80497833Y-58931385D01*
X80306564Y-59010611D01*
X80103516Y-59051000D01*
X79896484Y-59051000D01*
X79693436Y-59010611D01*
X79502167Y-58931385D01*
X79502166Y-58931385D01*
X79502165Y-58931384D01*
X79330027Y-58816365D01*
X79183635Y-58669973D01*
X79068616Y-58497835D01*
X79036230Y-58419648D01*
X78989389Y-58306564D01*
X78949000Y-58103516D01*
X78949000Y-57896484D01*
X78989389Y-57693436D01*
X79068615Y-57502167D01*
X79183635Y-57330027D01*
X79330027Y-57183635D01*
X79484601Y-57080352D01*
X79502165Y-57068616D01*
X79502167Y-57068615D01*
X79693436Y-56989389D01*
X79896484Y-56949000D01*
X80103516Y-56949000D01*
X80306564Y-56989389D01*
X80306564Y-56989389D01*
G37*
G36*
X140306564Y-56989389D02*
G01*
X140497833Y-57068615D01*
X140497835Y-57068616D01*
X140515399Y-57080352D01*
X140669973Y-57183635D01*
X140816365Y-57330027D01*
X140931385Y-57502167D01*
X141010611Y-57693436D01*
X141051000Y-57896484D01*
X141051000Y-58103516D01*
X141010611Y-58306564D01*
X140963770Y-58419648D01*
X140931384Y-58497835D01*
X140816365Y-58669973D01*
X140669973Y-58816365D01*
X140497835Y-58931384D01*
X140497834Y-58931385D01*
X140497833Y-58931385D01*
X140306564Y-59010611D01*
X140103516Y-59051000D01*
X139896484Y-59051000D01*
X139693436Y-59010611D01*
X139502167Y-58931385D01*
X139502166Y-58931385D01*
X139502165Y-58931384D01*
X139330027Y-58816365D01*
X139183635Y-58669973D01*
X139068616Y-58497835D01*
X139036230Y-58419648D01*
X138989389Y-58306564D01*
X138949000Y-58103516D01*
X138949000Y-57896484D01*
X138989389Y-57693436D01*
X139068615Y-57502167D01*
X139183635Y-57330027D01*
X139330027Y-57183635D01*
X139484601Y-57080352D01*
X139502165Y-57068616D01*
X139502167Y-57068615D01*
X139693436Y-56989389D01*
X139896484Y-56949000D01*
X140103516Y-56949000D01*
X140306564Y-56989389D01*
X140306564Y-56989389D01*
G37*
G36*
X60306416Y-56739879D02*
G01*
X60497592Y-56819067D01*
X60497594Y-56819068D01*
X60669648Y-56934031D01*
X60815969Y-57080352D01*
X60884981Y-57183635D01*
X60930933Y-57252408D01*
X61010121Y-57443584D01*
X61050490Y-57646534D01*
X61050490Y-57853466D01*
X61010121Y-58056416D01*
X60990612Y-58103514D01*
X60930932Y-58247594D01*
X60815969Y-58419648D01*
X60669648Y-58565969D01*
X60497594Y-58680932D01*
X60497593Y-58680933D01*
X60497592Y-58680933D01*
X60306416Y-58760121D01*
X60103466Y-58800490D01*
X59896534Y-58800490D01*
X59693584Y-58760121D01*
X59502408Y-58680933D01*
X59502407Y-58680933D01*
X59502406Y-58680932D01*
X59330352Y-58565969D01*
X59184031Y-58419648D01*
X59069068Y-58247594D01*
X59009388Y-58103514D01*
X58989879Y-58056416D01*
X58949510Y-57853466D01*
X58949510Y-57646534D01*
X58989879Y-57443584D01*
X59069067Y-57252408D01*
X59115020Y-57183635D01*
X59184031Y-57080352D01*
X59330352Y-56934031D01*
X59502406Y-56819068D01*
X59502408Y-56819067D01*
X59693584Y-56739879D01*
X59896534Y-56699510D01*
X60103466Y-56699510D01*
X60306416Y-56739879D01*
X60306416Y-56739879D01*
G37*
G36*
X55375256Y-53391298D02*
G01*
X55481579Y-53412447D01*
X55782042Y-53536903D01*
X56052451Y-53717585D01*
X56282415Y-53947549D01*
X56463097Y-54217958D01*
X56553614Y-54436484D01*
X56587553Y-54518422D01*
X56651000Y-54837389D01*
X56651000Y-55162611D01*
X56620416Y-55316365D01*
X56587553Y-55481579D01*
X56558959Y-55550610D01*
X56472178Y-55760120D01*
X56463097Y-55782042D01*
X56282415Y-56052451D01*
X56052451Y-56282415D01*
X55782042Y-56463097D01*
X55481579Y-56587553D01*
X55375256Y-56608702D01*
X55162611Y-56651000D01*
X54837389Y-56651000D01*
X54624744Y-56608702D01*
X54518421Y-56587553D01*
X54217958Y-56463097D01*
X53947549Y-56282415D01*
X53717585Y-56052451D01*
X53536903Y-55782042D01*
X53527823Y-55760120D01*
X53441041Y-55550610D01*
X53412447Y-55481579D01*
X53379584Y-55316365D01*
X53349000Y-55162611D01*
X53349000Y-54837389D01*
X53412447Y-54518422D01*
X53446387Y-54436484D01*
X53536903Y-54217958D01*
X53717585Y-53947549D01*
X53947549Y-53717585D01*
X54217958Y-53536903D01*
X54518421Y-53412447D01*
X54624744Y-53391298D01*
X54837389Y-53349000D01*
X55162611Y-53349000D01*
X55375256Y-53391298D01*
X55375256Y-53391298D01*
G37*
G36*
X145375256Y-53391298D02*
G01*
X145481579Y-53412447D01*
X145782042Y-53536903D01*
X146052451Y-53717585D01*
X146282415Y-53947549D01*
X146463097Y-54217958D01*
X146553614Y-54436484D01*
X146587553Y-54518422D01*
X146651000Y-54837389D01*
X146651000Y-55162611D01*
X146620416Y-55316365D01*
X146587553Y-55481579D01*
X146558959Y-55550610D01*
X146472178Y-55760120D01*
X146463097Y-55782042D01*
X146282415Y-56052451D01*
X146052451Y-56282415D01*
X145782042Y-56463097D01*
X145481579Y-56587553D01*
X145375256Y-56608702D01*
X145162611Y-56651000D01*
X144837389Y-56651000D01*
X144624744Y-56608702D01*
X144518421Y-56587553D01*
X144217958Y-56463097D01*
X143947549Y-56282415D01*
X143717585Y-56052451D01*
X143536903Y-55782042D01*
X143527823Y-55760120D01*
X143441041Y-55550610D01*
X143412447Y-55481579D01*
X143379584Y-55316365D01*
X143349000Y-55162611D01*
X143349000Y-54837389D01*
X143412447Y-54518422D01*
X143446387Y-54436484D01*
X143536903Y-54217958D01*
X143717585Y-53947549D01*
X143947549Y-53717585D01*
X144217958Y-53536903D01*
X144518421Y-53412447D01*
X144624744Y-53391298D01*
X144837389Y-53349000D01*
X145162611Y-53349000D01*
X145375256Y-53391298D01*
X145375256Y-53391298D01*
G37*
G36*
X140306416Y-53739879D02*
G01*
X140497592Y-53819067D01*
X140497594Y-53819068D01*
X140669648Y-53934031D01*
X140815969Y-54080352D01*
X140918257Y-54233436D01*
X140930933Y-54252408D01*
X141010121Y-54443584D01*
X141050490Y-54646534D01*
X141050490Y-54853466D01*
X141010121Y-55056416D01*
X140966134Y-55162609D01*
X140930932Y-55247594D01*
X140815969Y-55419648D01*
X140669648Y-55565969D01*
X140497594Y-55680932D01*
X140497593Y-55680933D01*
X140497592Y-55680933D01*
X140306416Y-55760121D01*
X140103466Y-55800490D01*
X139896534Y-55800490D01*
X139693584Y-55760121D01*
X139502408Y-55680933D01*
X139502407Y-55680933D01*
X139502406Y-55680932D01*
X139330352Y-55565969D01*
X139184031Y-55419648D01*
X139069068Y-55247594D01*
X139033866Y-55162609D01*
X138989879Y-55056416D01*
X138949510Y-54853466D01*
X138949510Y-54646534D01*
X138989879Y-54443584D01*
X139069067Y-54252408D01*
X139081744Y-54233436D01*
X139184031Y-54080352D01*
X139330352Y-53934031D01*
X139502406Y-53819068D01*
X139502408Y-53819067D01*
X139693584Y-53739879D01*
X139896534Y-53699510D01*
X140103466Y-53699510D01*
X140306416Y-53739879D01*
X140306416Y-53739879D01*
G37*
G36*
X100306564Y-53529389D02*
G01*
X100497833Y-53608615D01*
X100497835Y-53608616D01*
X100669973Y-53723635D01*
X100816365Y-53870027D01*
X100868164Y-53947549D01*
X100931385Y-54042167D01*
X101010611Y-54233436D01*
X101051000Y-54436484D01*
X101051000Y-54643516D01*
X101010611Y-54846564D01*
X100931385Y-55037833D01*
X100931384Y-55037835D01*
X100816365Y-55209973D01*
X100669973Y-55356365D01*
X100497835Y-55471384D01*
X100497834Y-55471385D01*
X100497833Y-55471385D01*
X100306564Y-55550611D01*
X100103516Y-55591000D01*
X99896484Y-55591000D01*
X99693436Y-55550611D01*
X99502167Y-55471385D01*
X99502166Y-55471385D01*
X99502165Y-55471384D01*
X99330027Y-55356365D01*
X99183635Y-55209973D01*
X99068616Y-55037835D01*
X99068615Y-55037833D01*
X98989389Y-54846564D01*
X98949000Y-54643516D01*
X98949000Y-54436484D01*
X98989389Y-54233436D01*
X99068615Y-54042167D01*
X99131837Y-53947549D01*
X99183635Y-53870027D01*
X99330027Y-53723635D01*
X99502165Y-53608616D01*
X99502167Y-53608615D01*
X99693436Y-53529389D01*
X99896484Y-53489000D01*
X100103516Y-53489000D01*
X100306564Y-53529389D01*
X100306564Y-53529389D01*
G37*
G36*
X110306564Y-53529389D02*
G01*
X110497833Y-53608615D01*
X110497835Y-53608616D01*
X110669973Y-53723635D01*
X110816365Y-53870027D01*
X110868164Y-53947549D01*
X110931385Y-54042167D01*
X111010611Y-54233436D01*
X111051000Y-54436484D01*
X111051000Y-54643516D01*
X111010611Y-54846564D01*
X110931385Y-55037833D01*
X110931384Y-55037835D01*
X110816365Y-55209973D01*
X110669973Y-55356365D01*
X110497835Y-55471384D01*
X110497834Y-55471385D01*
X110497833Y-55471385D01*
X110306564Y-55550611D01*
X110103516Y-55591000D01*
X109896484Y-55591000D01*
X109693436Y-55550611D01*
X109502167Y-55471385D01*
X109502166Y-55471385D01*
X109502165Y-55471384D01*
X109330027Y-55356365D01*
X109183635Y-55209973D01*
X109068616Y-55037835D01*
X109068615Y-55037833D01*
X108989389Y-54846564D01*
X108949000Y-54643516D01*
X108949000Y-54436484D01*
X108989389Y-54233436D01*
X109068615Y-54042167D01*
X109131837Y-53947549D01*
X109183635Y-53870027D01*
X109330027Y-53723635D01*
X109502165Y-53608616D01*
X109502167Y-53608615D01*
X109693436Y-53529389D01*
X109896484Y-53489000D01*
X110103516Y-53489000D01*
X110306564Y-53529389D01*
X110306564Y-53529389D01*
G37*
G36*
X120306564Y-53489389D02*
G01*
X120497833Y-53568615D01*
X120497835Y-53568616D01*
X120557699Y-53608616D01*
X120669973Y-53683635D01*
X120816365Y-53830027D01*
X120931385Y-54002167D01*
X121010611Y-54193436D01*
X121051000Y-54396484D01*
X121051000Y-54603516D01*
X121010611Y-54806564D01*
X120931385Y-54997833D01*
X120931384Y-54997835D01*
X120816365Y-55169973D01*
X120669973Y-55316365D01*
X120497835Y-55431384D01*
X120497834Y-55431385D01*
X120497833Y-55431385D01*
X120306564Y-55510611D01*
X120103516Y-55551000D01*
X119896484Y-55551000D01*
X119693436Y-55510611D01*
X119502167Y-55431385D01*
X119502166Y-55431385D01*
X119502165Y-55431384D01*
X119330027Y-55316365D01*
X119183635Y-55169973D01*
X119068616Y-54997835D01*
X119068615Y-54997833D01*
X118989389Y-54806564D01*
X118949000Y-54603516D01*
X118949000Y-54396484D01*
X118989389Y-54193436D01*
X119068615Y-54002167D01*
X119183635Y-53830027D01*
X119330027Y-53683635D01*
X119442301Y-53608616D01*
X119502165Y-53568616D01*
X119502167Y-53568615D01*
X119693436Y-53489389D01*
X119896484Y-53449000D01*
X120103516Y-53449000D01*
X120306564Y-53489389D01*
X120306564Y-53489389D01*
G37*
G36*
X80306564Y-53489389D02*
G01*
X80497833Y-53568615D01*
X80497835Y-53568616D01*
X80557699Y-53608616D01*
X80669973Y-53683635D01*
X80816365Y-53830027D01*
X80931385Y-54002167D01*
X81010611Y-54193436D01*
X81051000Y-54396484D01*
X81051000Y-54603516D01*
X81010611Y-54806564D01*
X80931385Y-54997833D01*
X80931384Y-54997835D01*
X80816365Y-55169973D01*
X80669973Y-55316365D01*
X80497835Y-55431384D01*
X80497834Y-55431385D01*
X80497833Y-55431385D01*
X80306564Y-55510611D01*
X80103516Y-55551000D01*
X79896484Y-55551000D01*
X79693436Y-55510611D01*
X79502167Y-55431385D01*
X79502166Y-55431385D01*
X79502165Y-55431384D01*
X79330027Y-55316365D01*
X79183635Y-55169973D01*
X79068616Y-54997835D01*
X79068615Y-54997833D01*
X78989389Y-54806564D01*
X78949000Y-54603516D01*
X78949000Y-54396484D01*
X78989389Y-54193436D01*
X79068615Y-54002167D01*
X79183635Y-53830027D01*
X79330027Y-53683635D01*
X79442301Y-53608616D01*
X79502165Y-53568616D01*
X79502167Y-53568615D01*
X79693436Y-53489389D01*
X79896484Y-53449000D01*
X80103516Y-53449000D01*
X80306564Y-53489389D01*
X80306564Y-53489389D01*
G37*
G36*
X90306564Y-53489389D02*
G01*
X90497833Y-53568615D01*
X90497835Y-53568616D01*
X90557699Y-53608616D01*
X90669973Y-53683635D01*
X90816365Y-53830027D01*
X90931385Y-54002167D01*
X91010611Y-54193436D01*
X91051000Y-54396484D01*
X91051000Y-54603516D01*
X91010611Y-54806564D01*
X90931385Y-54997833D01*
X90931384Y-54997835D01*
X90816365Y-55169973D01*
X90669973Y-55316365D01*
X90497835Y-55431384D01*
X90497834Y-55431385D01*
X90497833Y-55431385D01*
X90306564Y-55510611D01*
X90103516Y-55551000D01*
X89896484Y-55551000D01*
X89693436Y-55510611D01*
X89502167Y-55431385D01*
X89502166Y-55431385D01*
X89502165Y-55431384D01*
X89330027Y-55316365D01*
X89183635Y-55169973D01*
X89068616Y-54997835D01*
X89068615Y-54997833D01*
X88989389Y-54806564D01*
X88949000Y-54603516D01*
X88949000Y-54396484D01*
X88989389Y-54193436D01*
X89068615Y-54002167D01*
X89183635Y-53830027D01*
X89330027Y-53683635D01*
X89442301Y-53608616D01*
X89502165Y-53568616D01*
X89502167Y-53568615D01*
X89693436Y-53489389D01*
X89896484Y-53449000D01*
X90103516Y-53449000D01*
X90306564Y-53489389D01*
X90306564Y-53489389D01*
G37*
G36*
X70306564Y-53489389D02*
G01*
X70497833Y-53568615D01*
X70497835Y-53568616D01*
X70557699Y-53608616D01*
X70669973Y-53683635D01*
X70816365Y-53830027D01*
X70931385Y-54002167D01*
X71010611Y-54193436D01*
X71051000Y-54396484D01*
X71051000Y-54603516D01*
X71010611Y-54806564D01*
X70931385Y-54997833D01*
X70931384Y-54997835D01*
X70816365Y-55169973D01*
X70669973Y-55316365D01*
X70497835Y-55431384D01*
X70497834Y-55431385D01*
X70497833Y-55431385D01*
X70306564Y-55510611D01*
X70103516Y-55551000D01*
X69896484Y-55551000D01*
X69693436Y-55510611D01*
X69502167Y-55431385D01*
X69502166Y-55431385D01*
X69502165Y-55431384D01*
X69330027Y-55316365D01*
X69183635Y-55169973D01*
X69068616Y-54997835D01*
X69068615Y-54997833D01*
X68989389Y-54806564D01*
X68949000Y-54603516D01*
X68949000Y-54396484D01*
X68989389Y-54193436D01*
X69068615Y-54002167D01*
X69183635Y-53830027D01*
X69330027Y-53683635D01*
X69442301Y-53608616D01*
X69502165Y-53568616D01*
X69502167Y-53568615D01*
X69693436Y-53489389D01*
X69896484Y-53449000D01*
X70103516Y-53449000D01*
X70306564Y-53489389D01*
X70306564Y-53489389D01*
G37*
G36*
X130306564Y-53489389D02*
G01*
X130497833Y-53568615D01*
X130497835Y-53568616D01*
X130557699Y-53608616D01*
X130669973Y-53683635D01*
X130816365Y-53830027D01*
X130931385Y-54002167D01*
X131010611Y-54193436D01*
X131051000Y-54396484D01*
X131051000Y-54603516D01*
X131010611Y-54806564D01*
X130931385Y-54997833D01*
X130931384Y-54997835D01*
X130816365Y-55169973D01*
X130669973Y-55316365D01*
X130497835Y-55431384D01*
X130497834Y-55431385D01*
X130497833Y-55431385D01*
X130306564Y-55510611D01*
X130103516Y-55551000D01*
X129896484Y-55551000D01*
X129693436Y-55510611D01*
X129502167Y-55431385D01*
X129502166Y-55431385D01*
X129502165Y-55431384D01*
X129330027Y-55316365D01*
X129183635Y-55169973D01*
X129068616Y-54997835D01*
X129068615Y-54997833D01*
X128989389Y-54806564D01*
X128949000Y-54603516D01*
X128949000Y-54396484D01*
X128989389Y-54193436D01*
X129068615Y-54002167D01*
X129183635Y-53830027D01*
X129330027Y-53683635D01*
X129442301Y-53608616D01*
X129502165Y-53568616D01*
X129502167Y-53568615D01*
X129693436Y-53489389D01*
X129896484Y-53449000D01*
X130103516Y-53449000D01*
X130306564Y-53489389D01*
X130306564Y-53489389D01*
G37*
G36*
X60306564Y-53489389D02*
G01*
X60497833Y-53568615D01*
X60497835Y-53568616D01*
X60557699Y-53608616D01*
X60669973Y-53683635D01*
X60816365Y-53830027D01*
X60931385Y-54002167D01*
X61010611Y-54193436D01*
X61051000Y-54396484D01*
X61051000Y-54603516D01*
X61010611Y-54806564D01*
X60931385Y-54997833D01*
X60931384Y-54997835D01*
X60816365Y-55169973D01*
X60669973Y-55316365D01*
X60497835Y-55431384D01*
X60497834Y-55431385D01*
X60497833Y-55431385D01*
X60306564Y-55510611D01*
X60103516Y-55551000D01*
X59896484Y-55551000D01*
X59693436Y-55510611D01*
X59502167Y-55431385D01*
X59502166Y-55431385D01*
X59502165Y-55431384D01*
X59330027Y-55316365D01*
X59183635Y-55169973D01*
X59068616Y-54997835D01*
X59068615Y-54997833D01*
X58989389Y-54806564D01*
X58949000Y-54603516D01*
X58949000Y-54396484D01*
X58989389Y-54193436D01*
X59068615Y-54002167D01*
X59183635Y-53830027D01*
X59330027Y-53683635D01*
X59442301Y-53608616D01*
X59502165Y-53568616D01*
X59502167Y-53568615D01*
X59693436Y-53489389D01*
X59896484Y-53449000D01*
X60103516Y-53449000D01*
X60306564Y-53489389D01*
X60306564Y-53489389D01*
G37*
M02*
