G04 #@! TF.GenerationSoftware,KiCad,Pcbnew,5.1.4-e60b266~84~ubuntu16.04.1*
G04 #@! TF.CreationDate,2019-10-09T00:35:46-05:00*
G04 #@! TF.ProjectId,8x10p,38783130-702e-46b6-9963-61645f706362,rev?*
G04 #@! TF.SameCoordinates,Original*
G04 #@! TF.FileFunction,Legend,Top*
G04 #@! TF.FilePolarity,Positive*
%FSLAX46Y46*%
G04 Gerber Fmt 4.6, Leading zero omitted, Abs format (unit mm)*
G04 Created by KiCad (PCBNEW 5.1.4-e60b266~84~ubuntu16.04.1) date 2019-10-09 00:35:46*
%MOMM*%
%LPD*%
G04 APERTURE LIST*
%ADD10C,0.050000*%
%ADD11C,0.300000*%
%ADD12C,0.010000*%
%ADD13C,0.381000*%
%ADD14C,0.120000*%
%ADD15C,0.150000*%
G04 APERTURE END LIST*
D10*
X50000000Y-100000000D02*
X50000000Y-50000000D01*
X150000000Y-100000000D02*
X50000000Y-100000000D01*
X150000000Y-50000000D02*
X150000000Y-100000000D01*
X50000000Y-50000000D02*
X150000000Y-50000000D01*
D11*
X59366428Y-96621428D02*
X59223571Y-96550000D01*
X59152142Y-96478571D01*
X59080714Y-96335714D01*
X59080714Y-96264285D01*
X59152142Y-96121428D01*
X59223571Y-96050000D01*
X59366428Y-95978571D01*
X59652142Y-95978571D01*
X59795000Y-96050000D01*
X59866428Y-96121428D01*
X59937857Y-96264285D01*
X59937857Y-96335714D01*
X59866428Y-96478571D01*
X59795000Y-96550000D01*
X59652142Y-96621428D01*
X59366428Y-96621428D01*
X59223571Y-96692857D01*
X59152142Y-96764285D01*
X59080714Y-96907142D01*
X59080714Y-97192857D01*
X59152142Y-97335714D01*
X59223571Y-97407142D01*
X59366428Y-97478571D01*
X59652142Y-97478571D01*
X59795000Y-97407142D01*
X59866428Y-97335714D01*
X59937857Y-97192857D01*
X59937857Y-96907142D01*
X59866428Y-96764285D01*
X59795000Y-96692857D01*
X59652142Y-96621428D01*
X61652142Y-97407142D02*
X61866428Y-97478571D01*
X62223571Y-97478571D01*
X62366428Y-97407142D01*
X62437857Y-97335714D01*
X62509285Y-97192857D01*
X62509285Y-97050000D01*
X62437857Y-96907142D01*
X62366428Y-96835714D01*
X62223571Y-96764285D01*
X61937857Y-96692857D01*
X61795000Y-96621428D01*
X61723571Y-96550000D01*
X61652142Y-96407142D01*
X61652142Y-96264285D01*
X61723571Y-96121428D01*
X61795000Y-96050000D01*
X61937857Y-95978571D01*
X62295000Y-95978571D01*
X62509285Y-96050000D01*
X62937857Y-96478571D02*
X63509285Y-96478571D01*
X63152142Y-95978571D02*
X63152142Y-97264285D01*
X63223571Y-97407142D01*
X63366428Y-97478571D01*
X63509285Y-97478571D01*
X64652142Y-97478571D02*
X64652142Y-96692857D01*
X64580714Y-96550000D01*
X64437857Y-96478571D01*
X64152142Y-96478571D01*
X64009285Y-96550000D01*
X64652142Y-97407142D02*
X64509285Y-97478571D01*
X64152142Y-97478571D01*
X64009285Y-97407142D01*
X63937857Y-97264285D01*
X63937857Y-97121428D01*
X64009285Y-96978571D01*
X64152142Y-96907142D01*
X64509285Y-96907142D01*
X64652142Y-96835714D01*
X66009285Y-96478571D02*
X66009285Y-97692857D01*
X65937857Y-97835714D01*
X65866428Y-97907142D01*
X65723571Y-97978571D01*
X65509285Y-97978571D01*
X65366428Y-97907142D01*
X66009285Y-97407142D02*
X65866428Y-97478571D01*
X65580714Y-97478571D01*
X65437857Y-97407142D01*
X65366428Y-97335714D01*
X65295000Y-97192857D01*
X65295000Y-96764285D01*
X65366428Y-96621428D01*
X65437857Y-96550000D01*
X65580714Y-96478571D01*
X65866428Y-96478571D01*
X66009285Y-96550000D01*
X67295000Y-97407142D02*
X67152142Y-97478571D01*
X66866428Y-97478571D01*
X66723571Y-97407142D01*
X66652142Y-97264285D01*
X66652142Y-96692857D01*
X66723571Y-96550000D01*
X66866428Y-96478571D01*
X67152142Y-96478571D01*
X67295000Y-96550000D01*
X67366428Y-96692857D01*
X67366428Y-96835714D01*
X66652142Y-96978571D01*
X68937857Y-95978571D02*
X69437857Y-97478571D01*
X69937857Y-95978571D01*
X70652142Y-97478571D02*
X70509285Y-97407142D01*
X70437857Y-97335714D01*
X70366428Y-97192857D01*
X70366428Y-96764285D01*
X70437857Y-96621428D01*
X70509285Y-96550000D01*
X70652142Y-96478571D01*
X70866428Y-96478571D01*
X71009285Y-96550000D01*
X71080714Y-96621428D01*
X71152142Y-96764285D01*
X71152142Y-97192857D01*
X71080714Y-97335714D01*
X71009285Y-97407142D01*
X70866428Y-97478571D01*
X70652142Y-97478571D01*
X72009285Y-97478571D02*
X71866428Y-97407142D01*
X71795000Y-97264285D01*
X71795000Y-95978571D01*
X72366428Y-96478571D02*
X72937857Y-96478571D01*
X72580714Y-95978571D02*
X72580714Y-97264285D01*
X72652142Y-97407142D01*
X72795000Y-97478571D01*
X72937857Y-97478571D01*
X74080714Y-97478571D02*
X74080714Y-96692857D01*
X74009285Y-96550000D01*
X73866428Y-96478571D01*
X73580714Y-96478571D01*
X73437857Y-96550000D01*
X74080714Y-97407142D02*
X73937857Y-97478571D01*
X73580714Y-97478571D01*
X73437857Y-97407142D01*
X73366428Y-97264285D01*
X73366428Y-97121428D01*
X73437857Y-96978571D01*
X73580714Y-96907142D01*
X73937857Y-96907142D01*
X74080714Y-96835714D01*
X75437857Y-96478571D02*
X75437857Y-97692857D01*
X75366428Y-97835714D01*
X75295000Y-97907142D01*
X75152142Y-97978571D01*
X74937857Y-97978571D01*
X74795000Y-97907142D01*
X75437857Y-97407142D02*
X75295000Y-97478571D01*
X75009285Y-97478571D01*
X74866428Y-97407142D01*
X74795000Y-97335714D01*
X74723571Y-97192857D01*
X74723571Y-96764285D01*
X74795000Y-96621428D01*
X74866428Y-96550000D01*
X75009285Y-96478571D01*
X75295000Y-96478571D01*
X75437857Y-96550000D01*
X76723571Y-97407142D02*
X76580714Y-97478571D01*
X76295000Y-97478571D01*
X76152142Y-97407142D01*
X76080714Y-97264285D01*
X76080714Y-96692857D01*
X76152142Y-96550000D01*
X76295000Y-96478571D01*
X76580714Y-96478571D01*
X76723571Y-96550000D01*
X76795000Y-96692857D01*
X76795000Y-96835714D01*
X76080714Y-96978571D01*
X78580714Y-97478571D02*
X78580714Y-95978571D01*
X79080714Y-97050000D01*
X79580714Y-95978571D01*
X79580714Y-97478571D01*
X80937857Y-96478571D02*
X80937857Y-97478571D01*
X80295000Y-96478571D02*
X80295000Y-97264285D01*
X80366428Y-97407142D01*
X80509285Y-97478571D01*
X80723571Y-97478571D01*
X80866428Y-97407142D01*
X80937857Y-97335714D01*
X81866428Y-97478571D02*
X81723571Y-97407142D01*
X81652142Y-97264285D01*
X81652142Y-95978571D01*
X82223571Y-96478571D02*
X82795000Y-96478571D01*
X82437857Y-95978571D02*
X82437857Y-97264285D01*
X82509285Y-97407142D01*
X82652142Y-97478571D01*
X82795000Y-97478571D01*
X83295000Y-97478571D02*
X83295000Y-96478571D01*
X83295000Y-95978571D02*
X83223571Y-96050000D01*
X83295000Y-96121428D01*
X83366428Y-96050000D01*
X83295000Y-95978571D01*
X83295000Y-96121428D01*
X84009285Y-96478571D02*
X84009285Y-97978571D01*
X84009285Y-96550000D02*
X84152142Y-96478571D01*
X84437857Y-96478571D01*
X84580714Y-96550000D01*
X84652142Y-96621428D01*
X84723571Y-96764285D01*
X84723571Y-97192857D01*
X84652142Y-97335714D01*
X84580714Y-97407142D01*
X84437857Y-97478571D01*
X84152142Y-97478571D01*
X84009285Y-97407142D01*
X85580714Y-97478571D02*
X85437857Y-97407142D01*
X85366428Y-97264285D01*
X85366428Y-95978571D01*
X86152142Y-97478571D02*
X86152142Y-96478571D01*
X86152142Y-95978571D02*
X86080714Y-96050000D01*
X86152142Y-96121428D01*
X86223571Y-96050000D01*
X86152142Y-95978571D01*
X86152142Y-96121428D01*
X87437857Y-97407142D02*
X87295000Y-97478571D01*
X87009285Y-97478571D01*
X86866428Y-97407142D01*
X86795000Y-97264285D01*
X86795000Y-96692857D01*
X86866428Y-96550000D01*
X87009285Y-96478571D01*
X87295000Y-96478571D01*
X87437857Y-96550000D01*
X87509285Y-96692857D01*
X87509285Y-96835714D01*
X86795000Y-96978571D01*
X88152142Y-97478571D02*
X88152142Y-96478571D01*
X88152142Y-96764285D02*
X88223571Y-96621428D01*
X88295000Y-96550000D01*
X88437857Y-96478571D01*
X88580714Y-96478571D01*
X90866428Y-97478571D02*
X90866428Y-96692857D01*
X90795000Y-96550000D01*
X90652142Y-96478571D01*
X90366428Y-96478571D01*
X90223571Y-96550000D01*
X90866428Y-97407142D02*
X90723571Y-97478571D01*
X90366428Y-97478571D01*
X90223571Y-97407142D01*
X90152142Y-97264285D01*
X90152142Y-97121428D01*
X90223571Y-96978571D01*
X90366428Y-96907142D01*
X90723571Y-96907142D01*
X90866428Y-96835714D01*
X91366428Y-96478571D02*
X91937857Y-96478571D01*
X91580714Y-95978571D02*
X91580714Y-97264285D01*
X91652142Y-97407142D01*
X91795000Y-97478571D01*
X91937857Y-97478571D01*
X93580714Y-97478571D02*
X93580714Y-95978571D01*
X94223571Y-97478571D02*
X94223571Y-96692857D01*
X94152142Y-96550000D01*
X94009285Y-96478571D01*
X93795000Y-96478571D01*
X93652142Y-96550000D01*
X93580714Y-96621428D01*
X94723571Y-96478571D02*
X95295000Y-96478571D01*
X94937857Y-95978571D02*
X94937857Y-97264285D01*
X95009285Y-97407142D01*
X95152142Y-97478571D01*
X95295000Y-97478571D01*
X95580714Y-96478571D02*
X96152142Y-96478571D01*
X95795000Y-95978571D02*
X95795000Y-97264285D01*
X95866428Y-97407142D01*
X96009285Y-97478571D01*
X96152142Y-97478571D01*
X96652142Y-96478571D02*
X96652142Y-97978571D01*
X96652142Y-96550000D02*
X96795000Y-96478571D01*
X97080714Y-96478571D01*
X97223571Y-96550000D01*
X97295000Y-96621428D01*
X97366428Y-96764285D01*
X97366428Y-97192857D01*
X97295000Y-97335714D01*
X97223571Y-97407142D01*
X97080714Y-97478571D01*
X96795000Y-97478571D01*
X96652142Y-97407142D01*
X97937857Y-97407142D02*
X98080714Y-97478571D01*
X98366428Y-97478571D01*
X98509285Y-97407142D01*
X98580714Y-97264285D01*
X98580714Y-97192857D01*
X98509285Y-97050000D01*
X98366428Y-96978571D01*
X98152142Y-96978571D01*
X98009285Y-96907142D01*
X97937857Y-96764285D01*
X97937857Y-96692857D01*
X98009285Y-96550000D01*
X98152142Y-96478571D01*
X98366428Y-96478571D01*
X98509285Y-96550000D01*
X99223571Y-97335714D02*
X99295000Y-97407142D01*
X99223571Y-97478571D01*
X99152142Y-97407142D01*
X99223571Y-97335714D01*
X99223571Y-97478571D01*
X99223571Y-96550000D02*
X99295000Y-96621428D01*
X99223571Y-96692857D01*
X99152142Y-96621428D01*
X99223571Y-96550000D01*
X99223571Y-96692857D01*
X101009285Y-95907142D02*
X99723571Y-97835714D01*
X102580714Y-95907142D02*
X101295000Y-97835714D01*
X103723571Y-96478571D02*
X103723571Y-97692857D01*
X103652142Y-97835714D01*
X103580714Y-97907142D01*
X103437857Y-97978571D01*
X103223571Y-97978571D01*
X103080714Y-97907142D01*
X103723571Y-97407142D02*
X103580714Y-97478571D01*
X103295000Y-97478571D01*
X103152142Y-97407142D01*
X103080714Y-97335714D01*
X103009285Y-97192857D01*
X103009285Y-96764285D01*
X103080714Y-96621428D01*
X103152142Y-96550000D01*
X103295000Y-96478571D01*
X103580714Y-96478571D01*
X103723571Y-96550000D01*
X104437857Y-97478571D02*
X104437857Y-96478571D01*
X104437857Y-95978571D02*
X104366428Y-96050000D01*
X104437857Y-96121428D01*
X104509285Y-96050000D01*
X104437857Y-95978571D01*
X104437857Y-96121428D01*
X104937857Y-96478571D02*
X105509285Y-96478571D01*
X105152142Y-95978571D02*
X105152142Y-97264285D01*
X105223571Y-97407142D01*
X105366428Y-97478571D01*
X105509285Y-97478571D01*
X106009285Y-97478571D02*
X106009285Y-95978571D01*
X106652142Y-97478571D02*
X106652142Y-96692857D01*
X106580714Y-96550000D01*
X106437857Y-96478571D01*
X106223571Y-96478571D01*
X106080714Y-96550000D01*
X106009285Y-96621428D01*
X108009285Y-96478571D02*
X108009285Y-97478571D01*
X107366428Y-96478571D02*
X107366428Y-97264285D01*
X107437857Y-97407142D01*
X107580714Y-97478571D01*
X107795000Y-97478571D01*
X107937857Y-97407142D01*
X108009285Y-97335714D01*
X108723571Y-97478571D02*
X108723571Y-95978571D01*
X108723571Y-96550000D02*
X108866428Y-96478571D01*
X109152142Y-96478571D01*
X109295000Y-96550000D01*
X109366428Y-96621428D01*
X109437857Y-96764285D01*
X109437857Y-97192857D01*
X109366428Y-97335714D01*
X109295000Y-97407142D01*
X109152142Y-97478571D01*
X108866428Y-97478571D01*
X108723571Y-97407142D01*
X110080714Y-97335714D02*
X110152142Y-97407142D01*
X110080714Y-97478571D01*
X110009285Y-97407142D01*
X110080714Y-97335714D01*
X110080714Y-97478571D01*
X111437857Y-97407142D02*
X111295000Y-97478571D01*
X111009285Y-97478571D01*
X110866428Y-97407142D01*
X110795000Y-97335714D01*
X110723571Y-97192857D01*
X110723571Y-96764285D01*
X110795000Y-96621428D01*
X110866428Y-96550000D01*
X111009285Y-96478571D01*
X111295000Y-96478571D01*
X111437857Y-96550000D01*
X112295000Y-97478571D02*
X112152142Y-97407142D01*
X112080714Y-97335714D01*
X112009285Y-97192857D01*
X112009285Y-96764285D01*
X112080714Y-96621428D01*
X112152142Y-96550000D01*
X112295000Y-96478571D01*
X112509285Y-96478571D01*
X112652142Y-96550000D01*
X112723571Y-96621428D01*
X112795000Y-96764285D01*
X112795000Y-97192857D01*
X112723571Y-97335714D01*
X112652142Y-97407142D01*
X112509285Y-97478571D01*
X112295000Y-97478571D01*
X113437857Y-97478571D02*
X113437857Y-96478571D01*
X113437857Y-96621428D02*
X113509285Y-96550000D01*
X113652142Y-96478571D01*
X113866428Y-96478571D01*
X114009285Y-96550000D01*
X114080714Y-96692857D01*
X114080714Y-97478571D01*
X114080714Y-96692857D02*
X114152142Y-96550000D01*
X114295000Y-96478571D01*
X114509285Y-96478571D01*
X114652142Y-96550000D01*
X114723571Y-96692857D01*
X114723571Y-97478571D01*
X116509285Y-95907142D02*
X115223571Y-97835714D01*
X117795000Y-96050000D02*
X117652142Y-95978571D01*
X117437857Y-95978571D01*
X117223571Y-96050000D01*
X117080714Y-96192857D01*
X117009285Y-96335714D01*
X116937857Y-96621428D01*
X116937857Y-96835714D01*
X117009285Y-97121428D01*
X117080714Y-97264285D01*
X117223571Y-97407142D01*
X117437857Y-97478571D01*
X117580714Y-97478571D01*
X117795000Y-97407142D01*
X117866428Y-97335714D01*
X117866428Y-96835714D01*
X117580714Y-96835714D01*
X118509285Y-97478571D02*
X118509285Y-96478571D01*
X118509285Y-95978571D02*
X118437857Y-96050000D01*
X118509285Y-96121428D01*
X118580714Y-96050000D01*
X118509285Y-95978571D01*
X118509285Y-96121428D01*
X119009285Y-96478571D02*
X119580714Y-96478571D01*
X119223571Y-95978571D02*
X119223571Y-97264285D01*
X119295000Y-97407142D01*
X119437857Y-97478571D01*
X119580714Y-97478571D01*
X120080714Y-97478571D02*
X120080714Y-95978571D01*
X120937857Y-97478571D02*
X120295000Y-96621428D01*
X120937857Y-95978571D02*
X120080714Y-96835714D01*
X122152142Y-97407142D02*
X122009285Y-97478571D01*
X121723571Y-97478571D01*
X121580714Y-97407142D01*
X121509285Y-97264285D01*
X121509285Y-96692857D01*
X121580714Y-96550000D01*
X121723571Y-96478571D01*
X122009285Y-96478571D01*
X122152142Y-96550000D01*
X122223571Y-96692857D01*
X122223571Y-96835714D01*
X121509285Y-96978571D01*
X122866428Y-97478571D02*
X122866428Y-96478571D01*
X122866428Y-95978571D02*
X122795000Y-96050000D01*
X122866428Y-96121428D01*
X122937857Y-96050000D01*
X122866428Y-95978571D01*
X122866428Y-96121428D01*
X123366428Y-96478571D02*
X123937857Y-96478571D01*
X123580714Y-95978571D02*
X123580714Y-97264285D01*
X123652142Y-97407142D01*
X123795000Y-97478571D01*
X123937857Y-97478571D01*
X124437857Y-97478571D02*
X124437857Y-95978571D01*
X125080714Y-97478571D02*
X125080714Y-96692857D01*
X125009285Y-96550000D01*
X124866428Y-96478571D01*
X124652142Y-96478571D01*
X124509285Y-96550000D01*
X124437857Y-96621428D01*
X125795000Y-97478571D02*
X125795000Y-95978571D01*
X126152142Y-95978571D01*
X126366428Y-96050000D01*
X126509285Y-96192857D01*
X126580714Y-96335714D01*
X126652142Y-96621428D01*
X126652142Y-96835714D01*
X126580714Y-97121428D01*
X126509285Y-97264285D01*
X126366428Y-97407142D01*
X126152142Y-97478571D01*
X125795000Y-97478571D01*
X127937857Y-97478571D02*
X127937857Y-96692857D01*
X127866428Y-96550000D01*
X127723571Y-96478571D01*
X127437857Y-96478571D01*
X127295000Y-96550000D01*
X127937857Y-97407142D02*
X127795000Y-97478571D01*
X127437857Y-97478571D01*
X127295000Y-97407142D01*
X127223571Y-97264285D01*
X127223571Y-97121428D01*
X127295000Y-96978571D01*
X127437857Y-96907142D01*
X127795000Y-96907142D01*
X127937857Y-96835714D01*
X128509285Y-96478571D02*
X128866428Y-97478571D01*
X129223571Y-96478571D01*
X129795000Y-97478571D02*
X129795000Y-96478571D01*
X129795000Y-95978571D02*
X129723571Y-96050000D01*
X129795000Y-96121428D01*
X129866428Y-96050000D01*
X129795000Y-95978571D01*
X129795000Y-96121428D01*
X130437857Y-97407142D02*
X130580714Y-97478571D01*
X130866428Y-97478571D01*
X131009285Y-97407142D01*
X131080714Y-97264285D01*
X131080714Y-97192857D01*
X131009285Y-97050000D01*
X130866428Y-96978571D01*
X130652142Y-96978571D01*
X130509285Y-96907142D01*
X130437857Y-96764285D01*
X130437857Y-96692857D01*
X130509285Y-96550000D01*
X130652142Y-96478571D01*
X130866428Y-96478571D01*
X131009285Y-96550000D01*
X132795000Y-95907142D02*
X131509285Y-97835714D01*
X134152142Y-97335714D02*
X134080714Y-97407142D01*
X133866428Y-97478571D01*
X133723571Y-97478571D01*
X133509285Y-97407142D01*
X133366428Y-97264285D01*
X133295000Y-97121428D01*
X133223571Y-96835714D01*
X133223571Y-96621428D01*
X133295000Y-96335714D01*
X133366428Y-96192857D01*
X133509285Y-96050000D01*
X133723571Y-95978571D01*
X133866428Y-95978571D01*
X134080714Y-96050000D01*
X134152142Y-96121428D01*
X134795000Y-97478571D02*
X134795000Y-96478571D01*
X134795000Y-95978571D02*
X134723571Y-96050000D01*
X134795000Y-96121428D01*
X134866428Y-96050000D01*
X134795000Y-95978571D01*
X134795000Y-96121428D01*
X135509285Y-97478571D02*
X135509285Y-96478571D01*
X135509285Y-96764285D02*
X135580714Y-96621428D01*
X135652142Y-96550000D01*
X135795000Y-96478571D01*
X135937857Y-96478571D01*
X137080714Y-97407142D02*
X136937857Y-97478571D01*
X136652142Y-97478571D01*
X136509285Y-97407142D01*
X136437857Y-97335714D01*
X136366428Y-97192857D01*
X136366428Y-96764285D01*
X136437857Y-96621428D01*
X136509285Y-96550000D01*
X136652142Y-96478571D01*
X136937857Y-96478571D01*
X137080714Y-96550000D01*
X138366428Y-96478571D02*
X138366428Y-97478571D01*
X137723571Y-96478571D02*
X137723571Y-97264285D01*
X137795000Y-97407142D01*
X137937857Y-97478571D01*
X138152142Y-97478571D01*
X138295000Y-97407142D01*
X138366428Y-97335714D01*
X139080714Y-97478571D02*
X139080714Y-96478571D01*
X139080714Y-95978571D02*
X139009285Y-96050000D01*
X139080714Y-96121428D01*
X139152142Y-96050000D01*
X139080714Y-95978571D01*
X139080714Y-96121428D01*
X139580714Y-96478571D02*
X140152142Y-96478571D01*
X139795000Y-95978571D02*
X139795000Y-97264285D01*
X139866428Y-97407142D01*
X140009285Y-97478571D01*
X140152142Y-97478571D01*
X140580714Y-97407142D02*
X140723571Y-97478571D01*
X141009285Y-97478571D01*
X141152142Y-97407142D01*
X141223571Y-97264285D01*
X141223571Y-97192857D01*
X141152142Y-97050000D01*
X141009285Y-96978571D01*
X140795000Y-96978571D01*
X140652142Y-96907142D01*
X140580714Y-96764285D01*
X140580714Y-96692857D01*
X140652142Y-96550000D01*
X140795000Y-96478571D01*
X141009285Y-96478571D01*
X141152142Y-96550000D01*
D12*
G04 #@! TO.C,REF\002A\002A*
G36*
X142668931Y-82444186D02*
G01*
X143113555Y-82360365D01*
X143241053Y-82051080D01*
X143368551Y-81741794D01*
X143116246Y-81370754D01*
X143045996Y-81266843D01*
X142983272Y-81172913D01*
X142930938Y-81093348D01*
X142891857Y-81032530D01*
X142868893Y-80994843D01*
X142863942Y-80984579D01*
X142876676Y-80966090D01*
X142911882Y-80926580D01*
X142965062Y-80870478D01*
X143031718Y-80802213D01*
X143107354Y-80726214D01*
X143187472Y-80646908D01*
X143267574Y-80568725D01*
X143343164Y-80496093D01*
X143409745Y-80433441D01*
X143462818Y-80385197D01*
X143497887Y-80355790D01*
X143509623Y-80348759D01*
X143531260Y-80358877D01*
X143578662Y-80387241D01*
X143647193Y-80430871D01*
X143732215Y-80486782D01*
X143829093Y-80551994D01*
X143884350Y-80589781D01*
X143985248Y-80658657D01*
X144076299Y-80719860D01*
X144152970Y-80770422D01*
X144210728Y-80807372D01*
X144245043Y-80827742D01*
X144252254Y-80830803D01*
X144272748Y-80823864D01*
X144320513Y-80804949D01*
X144388832Y-80776913D01*
X144470989Y-80742609D01*
X144560270Y-80704891D01*
X144649958Y-80666613D01*
X144733338Y-80630630D01*
X144803694Y-80599794D01*
X144854310Y-80576961D01*
X144878471Y-80564983D01*
X144879422Y-80564276D01*
X144884036Y-80545469D01*
X144894328Y-80495382D01*
X144909287Y-80419207D01*
X144927901Y-80322135D01*
X144949159Y-80209357D01*
X144961418Y-80143558D01*
X144984362Y-80023050D01*
X145006195Y-79914203D01*
X145025722Y-79822524D01*
X145041748Y-79753519D01*
X145053079Y-79712696D01*
X145056674Y-79704489D01*
X145081006Y-79696452D01*
X145135959Y-79689967D01*
X145215108Y-79685030D01*
X145312026Y-79681636D01*
X145420287Y-79679782D01*
X145533465Y-79679462D01*
X145645135Y-79680673D01*
X145748868Y-79683410D01*
X145838241Y-79687669D01*
X145906826Y-79693445D01*
X145948197Y-79700733D01*
X145956810Y-79705105D01*
X145967133Y-79731236D01*
X145981892Y-79786607D01*
X145999352Y-79863893D01*
X146017780Y-79955770D01*
X146023741Y-79987842D01*
X146052066Y-80142476D01*
X146074876Y-80264625D01*
X146093080Y-80358327D01*
X146107583Y-80427616D01*
X146119292Y-80476529D01*
X146129115Y-80509103D01*
X146137956Y-80529372D01*
X146146724Y-80541374D01*
X146148457Y-80543053D01*
X146176371Y-80559816D01*
X146230695Y-80585386D01*
X146304777Y-80617212D01*
X146391965Y-80652740D01*
X146485608Y-80689417D01*
X146579052Y-80724689D01*
X146665647Y-80756004D01*
X146738740Y-80780807D01*
X146791678Y-80796546D01*
X146817811Y-80800668D01*
X146818726Y-80800324D01*
X146840086Y-80786359D01*
X146887084Y-80754678D01*
X146954827Y-80708609D01*
X147038423Y-80651482D01*
X147132982Y-80586627D01*
X147159854Y-80568157D01*
X147257275Y-80502301D01*
X147346163Y-80444350D01*
X147421412Y-80397462D01*
X147477920Y-80364793D01*
X147510581Y-80349500D01*
X147514593Y-80348759D01*
X147535684Y-80361608D01*
X147577464Y-80397112D01*
X147635445Y-80450707D01*
X147705135Y-80517829D01*
X147782045Y-80593913D01*
X147861683Y-80674396D01*
X147939561Y-80754713D01*
X148011186Y-80830301D01*
X148072070Y-80896595D01*
X148117721Y-80949031D01*
X148143650Y-80983045D01*
X148147883Y-80992455D01*
X148137912Y-81014357D01*
X148111020Y-81059200D01*
X148071736Y-81119679D01*
X148040117Y-81166211D01*
X147982098Y-81250525D01*
X147913784Y-81350374D01*
X147845579Y-81450527D01*
X147809075Y-81504373D01*
X147685800Y-81686629D01*
X147768520Y-81839619D01*
X147804759Y-81909318D01*
X147832926Y-81968586D01*
X147848991Y-82008689D01*
X147851226Y-82018897D01*
X147834722Y-82031171D01*
X147788082Y-82055387D01*
X147715609Y-82089737D01*
X147621606Y-82132412D01*
X147510374Y-82181606D01*
X147386215Y-82235510D01*
X147253432Y-82292316D01*
X147116327Y-82350218D01*
X146979202Y-82407407D01*
X146846358Y-82462076D01*
X146722098Y-82512416D01*
X146610725Y-82556620D01*
X146516539Y-82592881D01*
X146443844Y-82619391D01*
X146396941Y-82634342D01*
X146380833Y-82636746D01*
X146360286Y-82617689D01*
X146326933Y-82575964D01*
X146287702Y-82520294D01*
X146284599Y-82515622D01*
X146169423Y-82371736D01*
X146035053Y-82255717D01*
X145885784Y-82168570D01*
X145725913Y-82111301D01*
X145559737Y-82084914D01*
X145391552Y-82090415D01*
X145225655Y-82128810D01*
X145066342Y-82201105D01*
X145031487Y-82222374D01*
X144890737Y-82333004D01*
X144777714Y-82463698D01*
X144693003Y-82609936D01*
X144637194Y-82767192D01*
X144610874Y-82930943D01*
X144614630Y-83096667D01*
X144649050Y-83259838D01*
X144714723Y-83415935D01*
X144812235Y-83560433D01*
X144851813Y-83605131D01*
X144975703Y-83718888D01*
X145106124Y-83801782D01*
X145252315Y-83858644D01*
X145397088Y-83890313D01*
X145559860Y-83898131D01*
X145723440Y-83872062D01*
X145882298Y-83814755D01*
X146030906Y-83728856D01*
X146163735Y-83617014D01*
X146275256Y-83481877D01*
X146287011Y-83464117D01*
X146325508Y-83407850D01*
X146358863Y-83365077D01*
X146380160Y-83344628D01*
X146380833Y-83344331D01*
X146403871Y-83348721D01*
X146456157Y-83366124D01*
X146533390Y-83394732D01*
X146631268Y-83432735D01*
X146745491Y-83478326D01*
X146871758Y-83529697D01*
X147005767Y-83585038D01*
X147143218Y-83642542D01*
X147279808Y-83700399D01*
X147411237Y-83756802D01*
X147533205Y-83809942D01*
X147641409Y-83858010D01*
X147731549Y-83899199D01*
X147799323Y-83931699D01*
X147840430Y-83953703D01*
X147851226Y-83962564D01*
X147842819Y-83989640D01*
X147820272Y-84040303D01*
X147787613Y-84105817D01*
X147768520Y-84141841D01*
X147685800Y-84294832D01*
X147809075Y-84477088D01*
X147872228Y-84570125D01*
X147941727Y-84671985D01*
X148007165Y-84767438D01*
X148040117Y-84815250D01*
X148085273Y-84882495D01*
X148121057Y-84939436D01*
X148142938Y-84978646D01*
X148147563Y-84991381D01*
X148135085Y-85009917D01*
X148100252Y-85050941D01*
X148046678Y-85110475D01*
X147977983Y-85184542D01*
X147897781Y-85269165D01*
X147846286Y-85322685D01*
X147754286Y-85416319D01*
X147671999Y-85497241D01*
X147602945Y-85562177D01*
X147550644Y-85607858D01*
X147518616Y-85631011D01*
X147512116Y-85633232D01*
X147487394Y-85622924D01*
X147437405Y-85594439D01*
X147367212Y-85550937D01*
X147281875Y-85495577D01*
X147186456Y-85431520D01*
X147159854Y-85413303D01*
X147063167Y-85346927D01*
X146976117Y-85287378D01*
X146903595Y-85237984D01*
X146850493Y-85202075D01*
X146821703Y-85182981D01*
X146818726Y-85181136D01*
X146795782Y-85183895D01*
X146745336Y-85198538D01*
X146674041Y-85222513D01*
X146588547Y-85253266D01*
X146495507Y-85288244D01*
X146401574Y-85324893D01*
X146313399Y-85360661D01*
X146237634Y-85392994D01*
X146180931Y-85419338D01*
X146149943Y-85437142D01*
X146148457Y-85438407D01*
X146139601Y-85449294D01*
X146130843Y-85467682D01*
X146121277Y-85497606D01*
X146109996Y-85543103D01*
X146096093Y-85608209D01*
X146078663Y-85696961D01*
X146056798Y-85813393D01*
X146029591Y-85961542D01*
X146023741Y-85993618D01*
X146005374Y-86088686D01*
X145987405Y-86171565D01*
X145971569Y-86234930D01*
X145959600Y-86271458D01*
X145956810Y-86276356D01*
X145932072Y-86284427D01*
X145876790Y-86290987D01*
X145797389Y-86296033D01*
X145700296Y-86299559D01*
X145591938Y-86301561D01*
X145478740Y-86302036D01*
X145367128Y-86300977D01*
X145263529Y-86298382D01*
X145174368Y-86294246D01*
X145106072Y-86288563D01*
X145065066Y-86281331D01*
X145056674Y-86276971D01*
X145048208Y-86252698D01*
X145034435Y-86197426D01*
X145016550Y-86116662D01*
X144995748Y-86015912D01*
X144973223Y-85900683D01*
X144961418Y-85837902D01*
X144939151Y-85718787D01*
X144918979Y-85612565D01*
X144901915Y-85524427D01*
X144888969Y-85459566D01*
X144881155Y-85423174D01*
X144879422Y-85417184D01*
X144859890Y-85407061D01*
X144812843Y-85385662D01*
X144745003Y-85355839D01*
X144663091Y-85320445D01*
X144573828Y-85282332D01*
X144483935Y-85244353D01*
X144400135Y-85209360D01*
X144329147Y-85180206D01*
X144277694Y-85159743D01*
X144252497Y-85150823D01*
X144251396Y-85150657D01*
X144231519Y-85160769D01*
X144185777Y-85189117D01*
X144118717Y-85232723D01*
X144034884Y-85288606D01*
X143938826Y-85353787D01*
X143883650Y-85391679D01*
X143782481Y-85460725D01*
X143690630Y-85522050D01*
X143612744Y-85572663D01*
X143553469Y-85609571D01*
X143517451Y-85629782D01*
X143509377Y-85632701D01*
X143490584Y-85620153D01*
X143450457Y-85585463D01*
X143393493Y-85533063D01*
X143324185Y-85467384D01*
X143247031Y-85392856D01*
X143166525Y-85313913D01*
X143087163Y-85234983D01*
X143013440Y-85160500D01*
X142949852Y-85094894D01*
X142900894Y-85042596D01*
X142871061Y-85008039D01*
X142863942Y-84996478D01*
X142873953Y-84977654D01*
X142902078Y-84932631D01*
X142945454Y-84865787D01*
X143001218Y-84781499D01*
X143066506Y-84684144D01*
X143116246Y-84610707D01*
X143368551Y-84239667D01*
X143113555Y-83621095D01*
X142668931Y-83537275D01*
X142224307Y-83453454D01*
X142224307Y-82528006D01*
X142668931Y-82444186D01*
X142668931Y-82444186D01*
G37*
X142668931Y-82444186D02*
X143113555Y-82360365D01*
X143241053Y-82051080D01*
X143368551Y-81741794D01*
X143116246Y-81370754D01*
X143045996Y-81266843D01*
X142983272Y-81172913D01*
X142930938Y-81093348D01*
X142891857Y-81032530D01*
X142868893Y-80994843D01*
X142863942Y-80984579D01*
X142876676Y-80966090D01*
X142911882Y-80926580D01*
X142965062Y-80870478D01*
X143031718Y-80802213D01*
X143107354Y-80726214D01*
X143187472Y-80646908D01*
X143267574Y-80568725D01*
X143343164Y-80496093D01*
X143409745Y-80433441D01*
X143462818Y-80385197D01*
X143497887Y-80355790D01*
X143509623Y-80348759D01*
X143531260Y-80358877D01*
X143578662Y-80387241D01*
X143647193Y-80430871D01*
X143732215Y-80486782D01*
X143829093Y-80551994D01*
X143884350Y-80589781D01*
X143985248Y-80658657D01*
X144076299Y-80719860D01*
X144152970Y-80770422D01*
X144210728Y-80807372D01*
X144245043Y-80827742D01*
X144252254Y-80830803D01*
X144272748Y-80823864D01*
X144320513Y-80804949D01*
X144388832Y-80776913D01*
X144470989Y-80742609D01*
X144560270Y-80704891D01*
X144649958Y-80666613D01*
X144733338Y-80630630D01*
X144803694Y-80599794D01*
X144854310Y-80576961D01*
X144878471Y-80564983D01*
X144879422Y-80564276D01*
X144884036Y-80545469D01*
X144894328Y-80495382D01*
X144909287Y-80419207D01*
X144927901Y-80322135D01*
X144949159Y-80209357D01*
X144961418Y-80143558D01*
X144984362Y-80023050D01*
X145006195Y-79914203D01*
X145025722Y-79822524D01*
X145041748Y-79753519D01*
X145053079Y-79712696D01*
X145056674Y-79704489D01*
X145081006Y-79696452D01*
X145135959Y-79689967D01*
X145215108Y-79685030D01*
X145312026Y-79681636D01*
X145420287Y-79679782D01*
X145533465Y-79679462D01*
X145645135Y-79680673D01*
X145748868Y-79683410D01*
X145838241Y-79687669D01*
X145906826Y-79693445D01*
X145948197Y-79700733D01*
X145956810Y-79705105D01*
X145967133Y-79731236D01*
X145981892Y-79786607D01*
X145999352Y-79863893D01*
X146017780Y-79955770D01*
X146023741Y-79987842D01*
X146052066Y-80142476D01*
X146074876Y-80264625D01*
X146093080Y-80358327D01*
X146107583Y-80427616D01*
X146119292Y-80476529D01*
X146129115Y-80509103D01*
X146137956Y-80529372D01*
X146146724Y-80541374D01*
X146148457Y-80543053D01*
X146176371Y-80559816D01*
X146230695Y-80585386D01*
X146304777Y-80617212D01*
X146391965Y-80652740D01*
X146485608Y-80689417D01*
X146579052Y-80724689D01*
X146665647Y-80756004D01*
X146738740Y-80780807D01*
X146791678Y-80796546D01*
X146817811Y-80800668D01*
X146818726Y-80800324D01*
X146840086Y-80786359D01*
X146887084Y-80754678D01*
X146954827Y-80708609D01*
X147038423Y-80651482D01*
X147132982Y-80586627D01*
X147159854Y-80568157D01*
X147257275Y-80502301D01*
X147346163Y-80444350D01*
X147421412Y-80397462D01*
X147477920Y-80364793D01*
X147510581Y-80349500D01*
X147514593Y-80348759D01*
X147535684Y-80361608D01*
X147577464Y-80397112D01*
X147635445Y-80450707D01*
X147705135Y-80517829D01*
X147782045Y-80593913D01*
X147861683Y-80674396D01*
X147939561Y-80754713D01*
X148011186Y-80830301D01*
X148072070Y-80896595D01*
X148117721Y-80949031D01*
X148143650Y-80983045D01*
X148147883Y-80992455D01*
X148137912Y-81014357D01*
X148111020Y-81059200D01*
X148071736Y-81119679D01*
X148040117Y-81166211D01*
X147982098Y-81250525D01*
X147913784Y-81350374D01*
X147845579Y-81450527D01*
X147809075Y-81504373D01*
X147685800Y-81686629D01*
X147768520Y-81839619D01*
X147804759Y-81909318D01*
X147832926Y-81968586D01*
X147848991Y-82008689D01*
X147851226Y-82018897D01*
X147834722Y-82031171D01*
X147788082Y-82055387D01*
X147715609Y-82089737D01*
X147621606Y-82132412D01*
X147510374Y-82181606D01*
X147386215Y-82235510D01*
X147253432Y-82292316D01*
X147116327Y-82350218D01*
X146979202Y-82407407D01*
X146846358Y-82462076D01*
X146722098Y-82512416D01*
X146610725Y-82556620D01*
X146516539Y-82592881D01*
X146443844Y-82619391D01*
X146396941Y-82634342D01*
X146380833Y-82636746D01*
X146360286Y-82617689D01*
X146326933Y-82575964D01*
X146287702Y-82520294D01*
X146284599Y-82515622D01*
X146169423Y-82371736D01*
X146035053Y-82255717D01*
X145885784Y-82168570D01*
X145725913Y-82111301D01*
X145559737Y-82084914D01*
X145391552Y-82090415D01*
X145225655Y-82128810D01*
X145066342Y-82201105D01*
X145031487Y-82222374D01*
X144890737Y-82333004D01*
X144777714Y-82463698D01*
X144693003Y-82609936D01*
X144637194Y-82767192D01*
X144610874Y-82930943D01*
X144614630Y-83096667D01*
X144649050Y-83259838D01*
X144714723Y-83415935D01*
X144812235Y-83560433D01*
X144851813Y-83605131D01*
X144975703Y-83718888D01*
X145106124Y-83801782D01*
X145252315Y-83858644D01*
X145397088Y-83890313D01*
X145559860Y-83898131D01*
X145723440Y-83872062D01*
X145882298Y-83814755D01*
X146030906Y-83728856D01*
X146163735Y-83617014D01*
X146275256Y-83481877D01*
X146287011Y-83464117D01*
X146325508Y-83407850D01*
X146358863Y-83365077D01*
X146380160Y-83344628D01*
X146380833Y-83344331D01*
X146403871Y-83348721D01*
X146456157Y-83366124D01*
X146533390Y-83394732D01*
X146631268Y-83432735D01*
X146745491Y-83478326D01*
X146871758Y-83529697D01*
X147005767Y-83585038D01*
X147143218Y-83642542D01*
X147279808Y-83700399D01*
X147411237Y-83756802D01*
X147533205Y-83809942D01*
X147641409Y-83858010D01*
X147731549Y-83899199D01*
X147799323Y-83931699D01*
X147840430Y-83953703D01*
X147851226Y-83962564D01*
X147842819Y-83989640D01*
X147820272Y-84040303D01*
X147787613Y-84105817D01*
X147768520Y-84141841D01*
X147685800Y-84294832D01*
X147809075Y-84477088D01*
X147872228Y-84570125D01*
X147941727Y-84671985D01*
X148007165Y-84767438D01*
X148040117Y-84815250D01*
X148085273Y-84882495D01*
X148121057Y-84939436D01*
X148142938Y-84978646D01*
X148147563Y-84991381D01*
X148135085Y-85009917D01*
X148100252Y-85050941D01*
X148046678Y-85110475D01*
X147977983Y-85184542D01*
X147897781Y-85269165D01*
X147846286Y-85322685D01*
X147754286Y-85416319D01*
X147671999Y-85497241D01*
X147602945Y-85562177D01*
X147550644Y-85607858D01*
X147518616Y-85631011D01*
X147512116Y-85633232D01*
X147487394Y-85622924D01*
X147437405Y-85594439D01*
X147367212Y-85550937D01*
X147281875Y-85495577D01*
X147186456Y-85431520D01*
X147159854Y-85413303D01*
X147063167Y-85346927D01*
X146976117Y-85287378D01*
X146903595Y-85237984D01*
X146850493Y-85202075D01*
X146821703Y-85182981D01*
X146818726Y-85181136D01*
X146795782Y-85183895D01*
X146745336Y-85198538D01*
X146674041Y-85222513D01*
X146588547Y-85253266D01*
X146495507Y-85288244D01*
X146401574Y-85324893D01*
X146313399Y-85360661D01*
X146237634Y-85392994D01*
X146180931Y-85419338D01*
X146149943Y-85437142D01*
X146148457Y-85438407D01*
X146139601Y-85449294D01*
X146130843Y-85467682D01*
X146121277Y-85497606D01*
X146109996Y-85543103D01*
X146096093Y-85608209D01*
X146078663Y-85696961D01*
X146056798Y-85813393D01*
X146029591Y-85961542D01*
X146023741Y-85993618D01*
X146005374Y-86088686D01*
X145987405Y-86171565D01*
X145971569Y-86234930D01*
X145959600Y-86271458D01*
X145956810Y-86276356D01*
X145932072Y-86284427D01*
X145876790Y-86290987D01*
X145797389Y-86296033D01*
X145700296Y-86299559D01*
X145591938Y-86301561D01*
X145478740Y-86302036D01*
X145367128Y-86300977D01*
X145263529Y-86298382D01*
X145174368Y-86294246D01*
X145106072Y-86288563D01*
X145065066Y-86281331D01*
X145056674Y-86276971D01*
X145048208Y-86252698D01*
X145034435Y-86197426D01*
X145016550Y-86116662D01*
X144995748Y-86015912D01*
X144973223Y-85900683D01*
X144961418Y-85837902D01*
X144939151Y-85718787D01*
X144918979Y-85612565D01*
X144901915Y-85524427D01*
X144888969Y-85459566D01*
X144881155Y-85423174D01*
X144879422Y-85417184D01*
X144859890Y-85407061D01*
X144812843Y-85385662D01*
X144745003Y-85355839D01*
X144663091Y-85320445D01*
X144573828Y-85282332D01*
X144483935Y-85244353D01*
X144400135Y-85209360D01*
X144329147Y-85180206D01*
X144277694Y-85159743D01*
X144252497Y-85150823D01*
X144251396Y-85150657D01*
X144231519Y-85160769D01*
X144185777Y-85189117D01*
X144118717Y-85232723D01*
X144034884Y-85288606D01*
X143938826Y-85353787D01*
X143883650Y-85391679D01*
X143782481Y-85460725D01*
X143690630Y-85522050D01*
X143612744Y-85572663D01*
X143553469Y-85609571D01*
X143517451Y-85629782D01*
X143509377Y-85632701D01*
X143490584Y-85620153D01*
X143450457Y-85585463D01*
X143393493Y-85533063D01*
X143324185Y-85467384D01*
X143247031Y-85392856D01*
X143166525Y-85313913D01*
X143087163Y-85234983D01*
X143013440Y-85160500D01*
X142949852Y-85094894D01*
X142900894Y-85042596D01*
X142871061Y-85008039D01*
X142863942Y-84996478D01*
X142873953Y-84977654D01*
X142902078Y-84932631D01*
X142945454Y-84865787D01*
X143001218Y-84781499D01*
X143066506Y-84684144D01*
X143116246Y-84610707D01*
X143368551Y-84239667D01*
X143113555Y-83621095D01*
X142668931Y-83537275D01*
X142224307Y-83453454D01*
X142224307Y-82528006D01*
X142668931Y-82444186D01*
D13*
G04 #@! TO.C,High Voltage*
X148199640Y-69497840D02*
X145100840Y-68298960D01*
X145100840Y-68298960D02*
X145499620Y-68898400D01*
X146200660Y-69899160D02*
X143399040Y-68598680D01*
X148199640Y-69497840D02*
X147501140Y-68898400D01*
X143200920Y-69099060D02*
X146200660Y-69899160D01*
X146200660Y-69899160D02*
X145400560Y-68700280D01*
X145400560Y-68700280D02*
X148199640Y-69497840D01*
X148199640Y-69497840D02*
X147300480Y-69599440D01*
X141809000Y-69000000D02*
X148794000Y-64301000D01*
X148794000Y-64301000D02*
X148794000Y-73699000D01*
X148794000Y-73699000D02*
X141809000Y-69000000D01*
D14*
G04 #@! TO.C,C28*
X129630000Y-88144000D02*
X129630000Y-87780000D01*
X129630000Y-91020000D02*
X129630000Y-90656000D01*
X140370000Y-88144000D02*
X140370000Y-87780000D01*
X140370000Y-91020000D02*
X140370000Y-90656000D01*
X140370000Y-87780000D02*
X129630000Y-87780000D01*
X140370000Y-91020000D02*
X129630000Y-91020000D01*
G04 #@! TO.C,C27*
X119630000Y-91644000D02*
X119630000Y-91280000D01*
X119630000Y-94520000D02*
X119630000Y-94156000D01*
X130370000Y-91644000D02*
X130370000Y-91280000D01*
X130370000Y-94520000D02*
X130370000Y-94156000D01*
X130370000Y-91280000D02*
X119630000Y-91280000D01*
X130370000Y-94520000D02*
X119630000Y-94520000D01*
G04 #@! TO.C,C26*
X109630000Y-88144000D02*
X109630000Y-87780000D01*
X109630000Y-91020000D02*
X109630000Y-90656000D01*
X120370000Y-88144000D02*
X120370000Y-87780000D01*
X120370000Y-91020000D02*
X120370000Y-90656000D01*
X120370000Y-87780000D02*
X109630000Y-87780000D01*
X120370000Y-91020000D02*
X109630000Y-91020000D01*
G04 #@! TO.C,C25*
X99630000Y-91644000D02*
X99630000Y-91280000D01*
X99630000Y-94520000D02*
X99630000Y-94156000D01*
X110370000Y-91644000D02*
X110370000Y-91280000D01*
X110370000Y-94520000D02*
X110370000Y-94156000D01*
X110370000Y-91280000D02*
X99630000Y-91280000D01*
X110370000Y-94520000D02*
X99630000Y-94520000D01*
G04 #@! TO.C,C24*
X89630000Y-88144000D02*
X89630000Y-87780000D01*
X89630000Y-91020000D02*
X89630000Y-90656000D01*
X100370000Y-88144000D02*
X100370000Y-87780000D01*
X100370000Y-91020000D02*
X100370000Y-90656000D01*
X100370000Y-87780000D02*
X89630000Y-87780000D01*
X100370000Y-91020000D02*
X89630000Y-91020000D01*
G04 #@! TO.C,C23*
X79630000Y-91644000D02*
X79630000Y-91280000D01*
X79630000Y-94520000D02*
X79630000Y-94156000D01*
X90370000Y-91644000D02*
X90370000Y-91280000D01*
X90370000Y-94520000D02*
X90370000Y-94156000D01*
X90370000Y-91280000D02*
X79630000Y-91280000D01*
X90370000Y-94520000D02*
X79630000Y-94520000D01*
G04 #@! TO.C,C22*
X69630000Y-88144000D02*
X69630000Y-87780000D01*
X69630000Y-91020000D02*
X69630000Y-90656000D01*
X80370000Y-88144000D02*
X80370000Y-87780000D01*
X80370000Y-91020000D02*
X80370000Y-90656000D01*
X80370000Y-87780000D02*
X69630000Y-87780000D01*
X80370000Y-91020000D02*
X69630000Y-91020000D01*
G04 #@! TO.C,C21*
X59630000Y-91644000D02*
X59630000Y-91280000D01*
X59630000Y-94520000D02*
X59630000Y-94156000D01*
X70370000Y-91644000D02*
X70370000Y-91280000D01*
X70370000Y-94520000D02*
X70370000Y-94156000D01*
X70370000Y-91280000D02*
X59630000Y-91280000D01*
X70370000Y-94520000D02*
X59630000Y-94520000D01*
G04 #@! TO.C,C18*
X129630000Y-74244000D02*
X129630000Y-73880000D01*
X129630000Y-77120000D02*
X129630000Y-76756000D01*
X140370000Y-74244000D02*
X140370000Y-73880000D01*
X140370000Y-77120000D02*
X140370000Y-76756000D01*
X140370000Y-73880000D02*
X129630000Y-73880000D01*
X140370000Y-77120000D02*
X129630000Y-77120000D01*
G04 #@! TO.C,C17*
X119630000Y-70644000D02*
X119630000Y-70280000D01*
X119630000Y-73520000D02*
X119630000Y-73156000D01*
X130370000Y-70644000D02*
X130370000Y-70280000D01*
X130370000Y-73520000D02*
X130370000Y-73156000D01*
X130370000Y-70280000D02*
X119630000Y-70280000D01*
X130370000Y-73520000D02*
X119630000Y-73520000D01*
G04 #@! TO.C,C16*
X109630000Y-74244000D02*
X109630000Y-73880000D01*
X109630000Y-77120000D02*
X109630000Y-76756000D01*
X120370000Y-74244000D02*
X120370000Y-73880000D01*
X120370000Y-77120000D02*
X120370000Y-76756000D01*
X120370000Y-73880000D02*
X109630000Y-73880000D01*
X120370000Y-77120000D02*
X109630000Y-77120000D01*
G04 #@! TO.C,C15*
X99630000Y-70644000D02*
X99630000Y-70280000D01*
X99630000Y-73520000D02*
X99630000Y-73156000D01*
X110370000Y-70644000D02*
X110370000Y-70280000D01*
X110370000Y-73520000D02*
X110370000Y-73156000D01*
X110370000Y-70280000D02*
X99630000Y-70280000D01*
X110370000Y-73520000D02*
X99630000Y-73520000D01*
G04 #@! TO.C,C14*
X89630000Y-74244000D02*
X89630000Y-73880000D01*
X89630000Y-77120000D02*
X89630000Y-76756000D01*
X100370000Y-74244000D02*
X100370000Y-73880000D01*
X100370000Y-77120000D02*
X100370000Y-76756000D01*
X100370000Y-73880000D02*
X89630000Y-73880000D01*
X100370000Y-77120000D02*
X89630000Y-77120000D01*
G04 #@! TO.C,C13*
X79630000Y-70644000D02*
X79630000Y-70280000D01*
X79630000Y-73520000D02*
X79630000Y-73156000D01*
X90370000Y-70644000D02*
X90370000Y-70280000D01*
X90370000Y-73520000D02*
X90370000Y-73156000D01*
X90370000Y-70280000D02*
X79630000Y-70280000D01*
X90370000Y-73520000D02*
X79630000Y-73520000D01*
G04 #@! TO.C,C12*
X69630000Y-74244000D02*
X69630000Y-73880000D01*
X69630000Y-77120000D02*
X69630000Y-76756000D01*
X80370000Y-74244000D02*
X80370000Y-73880000D01*
X80370000Y-77120000D02*
X80370000Y-76756000D01*
X80370000Y-73880000D02*
X69630000Y-73880000D01*
X80370000Y-77120000D02*
X69630000Y-77120000D01*
G04 #@! TO.C,C11*
X59630000Y-70644000D02*
X59630000Y-70280000D01*
X59630000Y-73520000D02*
X59630000Y-73156000D01*
X70370000Y-70644000D02*
X70370000Y-70280000D01*
X70370000Y-73520000D02*
X70370000Y-73156000D01*
X70370000Y-70280000D02*
X59630000Y-70280000D01*
X70370000Y-73520000D02*
X59630000Y-73520000D01*
G04 #@! TO.C,C8*
X129630000Y-56744000D02*
X129630000Y-56380000D01*
X129630000Y-59620000D02*
X129630000Y-59256000D01*
X140370000Y-56744000D02*
X140370000Y-56380000D01*
X140370000Y-59620000D02*
X140370000Y-59256000D01*
X140370000Y-56380000D02*
X129630000Y-56380000D01*
X140370000Y-59620000D02*
X129630000Y-59620000D01*
G04 #@! TO.C,C7*
X119630000Y-53244000D02*
X119630000Y-52880000D01*
X119630000Y-56120000D02*
X119630000Y-55756000D01*
X130370000Y-53244000D02*
X130370000Y-52880000D01*
X130370000Y-56120000D02*
X130370000Y-55756000D01*
X130370000Y-52880000D02*
X119630000Y-52880000D01*
X130370000Y-56120000D02*
X119630000Y-56120000D01*
G04 #@! TO.C,C6*
X109630000Y-56744000D02*
X109630000Y-56380000D01*
X109630000Y-59620000D02*
X109630000Y-59256000D01*
X120370000Y-56744000D02*
X120370000Y-56380000D01*
X120370000Y-59620000D02*
X120370000Y-59256000D01*
X120370000Y-56380000D02*
X109630000Y-56380000D01*
X120370000Y-59620000D02*
X109630000Y-59620000D01*
G04 #@! TO.C,C5*
X99630000Y-53284000D02*
X99630000Y-52920000D01*
X99630000Y-56160000D02*
X99630000Y-55796000D01*
X110370000Y-53284000D02*
X110370000Y-52920000D01*
X110370000Y-56160000D02*
X110370000Y-55796000D01*
X110370000Y-52920000D02*
X99630000Y-52920000D01*
X110370000Y-56160000D02*
X99630000Y-56160000D01*
G04 #@! TO.C,C4*
X89630000Y-56744000D02*
X89630000Y-56380000D01*
X89630000Y-59620000D02*
X89630000Y-59256000D01*
X100370000Y-56744000D02*
X100370000Y-56380000D01*
X100370000Y-59620000D02*
X100370000Y-59256000D01*
X100370000Y-56380000D02*
X89630000Y-56380000D01*
X100370000Y-59620000D02*
X89630000Y-59620000D01*
G04 #@! TO.C,C3*
X79630000Y-53244000D02*
X79630000Y-52880000D01*
X79630000Y-56120000D02*
X79630000Y-55756000D01*
X90370000Y-53244000D02*
X90370000Y-52880000D01*
X90370000Y-56120000D02*
X90370000Y-55756000D01*
X90370000Y-52880000D02*
X79630000Y-52880000D01*
X90370000Y-56120000D02*
X79630000Y-56120000D01*
G04 #@! TO.C,C2*
X69630000Y-56744000D02*
X69630000Y-56380000D01*
X69630000Y-59620000D02*
X69630000Y-59256000D01*
X80370000Y-56744000D02*
X80370000Y-56380000D01*
X80370000Y-59620000D02*
X80370000Y-59256000D01*
X80370000Y-56380000D02*
X69630000Y-56380000D01*
X80370000Y-59620000D02*
X69630000Y-59620000D01*
G04 #@! TO.C,C1*
X59630000Y-53244000D02*
X59630000Y-52880000D01*
X59630000Y-56120000D02*
X59630000Y-55756000D01*
X70370000Y-53244000D02*
X70370000Y-52880000D01*
X70370000Y-56120000D02*
X70370000Y-55756000D01*
X70370000Y-52880000D02*
X59630000Y-52880000D01*
X70370000Y-56120000D02*
X59630000Y-56120000D01*
G04 #@! TO.C,D36*
X141470000Y-80470000D02*
X138530000Y-80470000D01*
X141470000Y-80710000D02*
X138530000Y-80710000D01*
X141470000Y-80590000D02*
X138530000Y-80590000D01*
X138530000Y-85130000D02*
X138660000Y-85130000D01*
X138530000Y-79690000D02*
X138530000Y-85130000D01*
X138660000Y-79690000D02*
X138530000Y-79690000D01*
X141470000Y-85130000D02*
X141340000Y-85130000D01*
X141470000Y-79690000D02*
X141470000Y-85130000D01*
X141340000Y-79690000D02*
X141470000Y-79690000D01*
G04 #@! TO.C,D35*
X134491943Y-84915532D02*
X137038057Y-83445532D01*
X134371943Y-84707686D02*
X136918057Y-83237686D01*
X134431943Y-84811609D02*
X136978057Y-83341609D01*
X134708057Y-79409854D02*
X134595474Y-79474854D01*
X137428057Y-84121032D02*
X134708057Y-79409854D01*
X137315474Y-84186032D02*
X137428057Y-84121032D01*
X132161943Y-80879854D02*
X132274526Y-80814854D01*
X134881943Y-85591032D02*
X132161943Y-80879854D01*
X134994526Y-85526032D02*
X134881943Y-85591032D01*
G04 #@! TO.C,D34*
X131470000Y-80470000D02*
X128530000Y-80470000D01*
X131470000Y-80710000D02*
X128530000Y-80710000D01*
X131470000Y-80590000D02*
X128530000Y-80590000D01*
X128530000Y-85130000D02*
X128660000Y-85130000D01*
X128530000Y-79690000D02*
X128530000Y-85130000D01*
X128660000Y-79690000D02*
X128530000Y-79690000D01*
X131470000Y-85130000D02*
X131340000Y-85130000D01*
X131470000Y-79690000D02*
X131470000Y-85130000D01*
X131340000Y-79690000D02*
X131470000Y-79690000D01*
G04 #@! TO.C,D33*
X124491943Y-84915532D02*
X127038057Y-83445532D01*
X124371943Y-84707686D02*
X126918057Y-83237686D01*
X124431943Y-84811609D02*
X126978057Y-83341609D01*
X124708057Y-79409854D02*
X124595474Y-79474854D01*
X127428057Y-84121032D02*
X124708057Y-79409854D01*
X127315474Y-84186032D02*
X127428057Y-84121032D01*
X122161943Y-80879854D02*
X122274526Y-80814854D01*
X124881943Y-85591032D02*
X122161943Y-80879854D01*
X124994526Y-85526032D02*
X124881943Y-85591032D01*
G04 #@! TO.C,D32*
X121470000Y-80470000D02*
X118530000Y-80470000D01*
X121470000Y-80710000D02*
X118530000Y-80710000D01*
X121470000Y-80590000D02*
X118530000Y-80590000D01*
X118530000Y-85130000D02*
X118660000Y-85130000D01*
X118530000Y-79690000D02*
X118530000Y-85130000D01*
X118660000Y-79690000D02*
X118530000Y-79690000D01*
X121470000Y-85130000D02*
X121340000Y-85130000D01*
X121470000Y-79690000D02*
X121470000Y-85130000D01*
X121340000Y-79690000D02*
X121470000Y-79690000D01*
G04 #@! TO.C,D31*
X114491943Y-84915532D02*
X117038057Y-83445532D01*
X114371943Y-84707686D02*
X116918057Y-83237686D01*
X114431943Y-84811609D02*
X116978057Y-83341609D01*
X114708057Y-79409854D02*
X114595474Y-79474854D01*
X117428057Y-84121032D02*
X114708057Y-79409854D01*
X117315474Y-84186032D02*
X117428057Y-84121032D01*
X112161943Y-80879854D02*
X112274526Y-80814854D01*
X114881943Y-85591032D02*
X112161943Y-80879854D01*
X114994526Y-85526032D02*
X114881943Y-85591032D01*
G04 #@! TO.C,D30*
X111470000Y-80470000D02*
X108530000Y-80470000D01*
X111470000Y-80710000D02*
X108530000Y-80710000D01*
X111470000Y-80590000D02*
X108530000Y-80590000D01*
X108530000Y-85130000D02*
X108660000Y-85130000D01*
X108530000Y-79690000D02*
X108530000Y-85130000D01*
X108660000Y-79690000D02*
X108530000Y-79690000D01*
X111470000Y-85130000D02*
X111340000Y-85130000D01*
X111470000Y-79690000D02*
X111470000Y-85130000D01*
X111340000Y-79690000D02*
X111470000Y-79690000D01*
G04 #@! TO.C,D29*
X104491943Y-84915532D02*
X107038057Y-83445532D01*
X104371943Y-84707686D02*
X106918057Y-83237686D01*
X104431943Y-84811609D02*
X106978057Y-83341609D01*
X104708057Y-79409854D02*
X104595474Y-79474854D01*
X107428057Y-84121032D02*
X104708057Y-79409854D01*
X107315474Y-84186032D02*
X107428057Y-84121032D01*
X102161943Y-80879854D02*
X102274526Y-80814854D01*
X104881943Y-85591032D02*
X102161943Y-80879854D01*
X104994526Y-85526032D02*
X104881943Y-85591032D01*
G04 #@! TO.C,D28*
X101470000Y-80470000D02*
X98530000Y-80470000D01*
X101470000Y-80710000D02*
X98530000Y-80710000D01*
X101470000Y-80590000D02*
X98530000Y-80590000D01*
X98530000Y-85130000D02*
X98660000Y-85130000D01*
X98530000Y-79690000D02*
X98530000Y-85130000D01*
X98660000Y-79690000D02*
X98530000Y-79690000D01*
X101470000Y-85130000D02*
X101340000Y-85130000D01*
X101470000Y-79690000D02*
X101470000Y-85130000D01*
X101340000Y-79690000D02*
X101470000Y-79690000D01*
G04 #@! TO.C,D27*
X94491943Y-84915532D02*
X97038057Y-83445532D01*
X94371943Y-84707686D02*
X96918057Y-83237686D01*
X94431943Y-84811609D02*
X96978057Y-83341609D01*
X94708057Y-79409854D02*
X94595474Y-79474854D01*
X97428057Y-84121032D02*
X94708057Y-79409854D01*
X97315474Y-84186032D02*
X97428057Y-84121032D01*
X92161943Y-80879854D02*
X92274526Y-80814854D01*
X94881943Y-85591032D02*
X92161943Y-80879854D01*
X94994526Y-85526032D02*
X94881943Y-85591032D01*
G04 #@! TO.C,D26*
X91470000Y-80470000D02*
X88530000Y-80470000D01*
X91470000Y-80710000D02*
X88530000Y-80710000D01*
X91470000Y-80590000D02*
X88530000Y-80590000D01*
X88530000Y-85130000D02*
X88660000Y-85130000D01*
X88530000Y-79690000D02*
X88530000Y-85130000D01*
X88660000Y-79690000D02*
X88530000Y-79690000D01*
X91470000Y-85130000D02*
X91340000Y-85130000D01*
X91470000Y-79690000D02*
X91470000Y-85130000D01*
X91340000Y-79690000D02*
X91470000Y-79690000D01*
G04 #@! TO.C,D25*
X84491943Y-84915532D02*
X87038057Y-83445532D01*
X84371943Y-84707686D02*
X86918057Y-83237686D01*
X84431943Y-84811609D02*
X86978057Y-83341609D01*
X84708057Y-79409854D02*
X84595474Y-79474854D01*
X87428057Y-84121032D02*
X84708057Y-79409854D01*
X87315474Y-84186032D02*
X87428057Y-84121032D01*
X82161943Y-80879854D02*
X82274526Y-80814854D01*
X84881943Y-85591032D02*
X82161943Y-80879854D01*
X84994526Y-85526032D02*
X84881943Y-85591032D01*
G04 #@! TO.C,D24*
X81470000Y-80470000D02*
X78530000Y-80470000D01*
X81470000Y-80710000D02*
X78530000Y-80710000D01*
X81470000Y-80590000D02*
X78530000Y-80590000D01*
X78530000Y-85130000D02*
X78660000Y-85130000D01*
X78530000Y-79690000D02*
X78530000Y-85130000D01*
X78660000Y-79690000D02*
X78530000Y-79690000D01*
X81470000Y-85130000D02*
X81340000Y-85130000D01*
X81470000Y-79690000D02*
X81470000Y-85130000D01*
X81340000Y-79690000D02*
X81470000Y-79690000D01*
G04 #@! TO.C,D23*
X74491943Y-84915532D02*
X77038057Y-83445532D01*
X74371943Y-84707686D02*
X76918057Y-83237686D01*
X74431943Y-84811609D02*
X76978057Y-83341609D01*
X74708057Y-79409854D02*
X74595474Y-79474854D01*
X77428057Y-84121032D02*
X74708057Y-79409854D01*
X77315474Y-84186032D02*
X77428057Y-84121032D01*
X72161943Y-80879854D02*
X72274526Y-80814854D01*
X74881943Y-85591032D02*
X72161943Y-80879854D01*
X74994526Y-85526032D02*
X74881943Y-85591032D01*
G04 #@! TO.C,D22*
X71470000Y-80470000D02*
X68530000Y-80470000D01*
X71470000Y-80710000D02*
X68530000Y-80710000D01*
X71470000Y-80590000D02*
X68530000Y-80590000D01*
X68530000Y-85130000D02*
X68660000Y-85130000D01*
X68530000Y-79690000D02*
X68530000Y-85130000D01*
X68660000Y-79690000D02*
X68530000Y-79690000D01*
X71470000Y-85130000D02*
X71340000Y-85130000D01*
X71470000Y-79690000D02*
X71470000Y-85130000D01*
X71340000Y-79690000D02*
X71470000Y-79690000D01*
G04 #@! TO.C,D21*
X63638263Y-84217157D02*
X65717157Y-82138263D01*
X63468558Y-84047452D02*
X65547452Y-81968558D01*
X63553411Y-84132304D02*
X65632304Y-82053411D01*
X62422040Y-78843146D02*
X62330116Y-78935070D01*
X66268701Y-82689807D02*
X62422040Y-78843146D01*
X66176777Y-82781731D02*
X66268701Y-82689807D01*
X60343146Y-80922040D02*
X60435070Y-80830116D01*
X64189807Y-84768701D02*
X60343146Y-80922040D01*
X64281731Y-84676777D02*
X64189807Y-84768701D01*
G04 #@! TO.C,D16*
X138530000Y-66850000D02*
X141470000Y-66850000D01*
X138530000Y-66610000D02*
X141470000Y-66610000D01*
X138530000Y-66730000D02*
X141470000Y-66730000D01*
X141470000Y-62190000D02*
X141340000Y-62190000D01*
X141470000Y-67630000D02*
X141470000Y-62190000D01*
X141340000Y-67630000D02*
X141470000Y-67630000D01*
X138530000Y-62190000D02*
X138660000Y-62190000D01*
X138530000Y-67630000D02*
X138530000Y-62190000D01*
X138660000Y-67630000D02*
X138530000Y-67630000D01*
G04 #@! TO.C,D15*
X137038057Y-64154468D02*
X134491943Y-62684468D01*
X136918057Y-64362314D02*
X134371943Y-62892314D01*
X136978057Y-64258391D02*
X134431943Y-62788391D01*
X132161943Y-66720146D02*
X132274526Y-66785146D01*
X134881943Y-62008968D02*
X132161943Y-66720146D01*
X134994526Y-62073968D02*
X134881943Y-62008968D01*
X134708057Y-68190146D02*
X134595474Y-68125146D01*
X137428057Y-63478968D02*
X134708057Y-68190146D01*
X137315474Y-63413968D02*
X137428057Y-63478968D01*
G04 #@! TO.C,D14*
X128530000Y-66850000D02*
X131470000Y-66850000D01*
X128530000Y-66610000D02*
X131470000Y-66610000D01*
X128530000Y-66730000D02*
X131470000Y-66730000D01*
X131470000Y-62190000D02*
X131340000Y-62190000D01*
X131470000Y-67630000D02*
X131470000Y-62190000D01*
X131340000Y-67630000D02*
X131470000Y-67630000D01*
X128530000Y-62190000D02*
X128660000Y-62190000D01*
X128530000Y-67630000D02*
X128530000Y-62190000D01*
X128660000Y-67630000D02*
X128530000Y-67630000D01*
G04 #@! TO.C,D13*
X127038057Y-64154468D02*
X124491943Y-62684468D01*
X126918057Y-64362314D02*
X124371943Y-62892314D01*
X126978057Y-64258391D02*
X124431943Y-62788391D01*
X122161943Y-66720146D02*
X122274526Y-66785146D01*
X124881943Y-62008968D02*
X122161943Y-66720146D01*
X124994526Y-62073968D02*
X124881943Y-62008968D01*
X124708057Y-68190146D02*
X124595474Y-68125146D01*
X127428057Y-63478968D02*
X124708057Y-68190146D01*
X127315474Y-63413968D02*
X127428057Y-63478968D01*
G04 #@! TO.C,D12*
X118530000Y-66850000D02*
X121470000Y-66850000D01*
X118530000Y-66610000D02*
X121470000Y-66610000D01*
X118530000Y-66730000D02*
X121470000Y-66730000D01*
X121470000Y-62190000D02*
X121340000Y-62190000D01*
X121470000Y-67630000D02*
X121470000Y-62190000D01*
X121340000Y-67630000D02*
X121470000Y-67630000D01*
X118530000Y-62190000D02*
X118660000Y-62190000D01*
X118530000Y-67630000D02*
X118530000Y-62190000D01*
X118660000Y-67630000D02*
X118530000Y-67630000D01*
G04 #@! TO.C,D11*
X117038057Y-64154468D02*
X114491943Y-62684468D01*
X116918057Y-64362314D02*
X114371943Y-62892314D01*
X116978057Y-64258391D02*
X114431943Y-62788391D01*
X112161943Y-66720146D02*
X112274526Y-66785146D01*
X114881943Y-62008968D02*
X112161943Y-66720146D01*
X114994526Y-62073968D02*
X114881943Y-62008968D01*
X114708057Y-68190146D02*
X114595474Y-68125146D01*
X117428057Y-63478968D02*
X114708057Y-68190146D01*
X117315474Y-63413968D02*
X117428057Y-63478968D01*
G04 #@! TO.C,D10*
X108530000Y-66850000D02*
X111470000Y-66850000D01*
X108530000Y-66610000D02*
X111470000Y-66610000D01*
X108530000Y-66730000D02*
X111470000Y-66730000D01*
X111470000Y-62190000D02*
X111340000Y-62190000D01*
X111470000Y-67630000D02*
X111470000Y-62190000D01*
X111340000Y-67630000D02*
X111470000Y-67630000D01*
X108530000Y-62190000D02*
X108660000Y-62190000D01*
X108530000Y-67630000D02*
X108530000Y-62190000D01*
X108660000Y-67630000D02*
X108530000Y-67630000D01*
G04 #@! TO.C,D9*
X107038057Y-64154468D02*
X104491943Y-62684468D01*
X106918057Y-64362314D02*
X104371943Y-62892314D01*
X106978057Y-64258391D02*
X104431943Y-62788391D01*
X102161943Y-66720146D02*
X102274526Y-66785146D01*
X104881943Y-62008968D02*
X102161943Y-66720146D01*
X104994526Y-62073968D02*
X104881943Y-62008968D01*
X104708057Y-68190146D02*
X104595474Y-68125146D01*
X107428057Y-63478968D02*
X104708057Y-68190146D01*
X107315474Y-63413968D02*
X107428057Y-63478968D01*
G04 #@! TO.C,D8*
X98530000Y-66850000D02*
X101470000Y-66850000D01*
X98530000Y-66610000D02*
X101470000Y-66610000D01*
X98530000Y-66730000D02*
X101470000Y-66730000D01*
X101470000Y-62190000D02*
X101340000Y-62190000D01*
X101470000Y-67630000D02*
X101470000Y-62190000D01*
X101340000Y-67630000D02*
X101470000Y-67630000D01*
X98530000Y-62190000D02*
X98660000Y-62190000D01*
X98530000Y-67630000D02*
X98530000Y-62190000D01*
X98660000Y-67630000D02*
X98530000Y-67630000D01*
G04 #@! TO.C,D7*
X97038057Y-64154468D02*
X94491943Y-62684468D01*
X96918057Y-64362314D02*
X94371943Y-62892314D01*
X96978057Y-64258391D02*
X94431943Y-62788391D01*
X92161943Y-66720146D02*
X92274526Y-66785146D01*
X94881943Y-62008968D02*
X92161943Y-66720146D01*
X94994526Y-62073968D02*
X94881943Y-62008968D01*
X94708057Y-68190146D02*
X94595474Y-68125146D01*
X97428057Y-63478968D02*
X94708057Y-68190146D01*
X97315474Y-63413968D02*
X97428057Y-63478968D01*
G04 #@! TO.C,D6*
X88530000Y-66850000D02*
X91470000Y-66850000D01*
X88530000Y-66610000D02*
X91470000Y-66610000D01*
X88530000Y-66730000D02*
X91470000Y-66730000D01*
X91470000Y-62190000D02*
X91340000Y-62190000D01*
X91470000Y-67630000D02*
X91470000Y-62190000D01*
X91340000Y-67630000D02*
X91470000Y-67630000D01*
X88530000Y-62190000D02*
X88660000Y-62190000D01*
X88530000Y-67630000D02*
X88530000Y-62190000D01*
X88660000Y-67630000D02*
X88530000Y-67630000D01*
G04 #@! TO.C,D5*
X87038057Y-64154468D02*
X84491943Y-62684468D01*
X86918057Y-64362314D02*
X84371943Y-62892314D01*
X86978057Y-64258391D02*
X84431943Y-62788391D01*
X82161943Y-66720146D02*
X82274526Y-66785146D01*
X84881943Y-62008968D02*
X82161943Y-66720146D01*
X84994526Y-62073968D02*
X84881943Y-62008968D01*
X84708057Y-68190146D02*
X84595474Y-68125146D01*
X87428057Y-63478968D02*
X84708057Y-68190146D01*
X87315474Y-63413968D02*
X87428057Y-63478968D01*
G04 #@! TO.C,D4*
X78530000Y-66850000D02*
X81470000Y-66850000D01*
X78530000Y-66610000D02*
X81470000Y-66610000D01*
X78530000Y-66730000D02*
X81470000Y-66730000D01*
X81470000Y-62190000D02*
X81340000Y-62190000D01*
X81470000Y-67630000D02*
X81470000Y-62190000D01*
X81340000Y-67630000D02*
X81470000Y-67630000D01*
X78530000Y-62190000D02*
X78660000Y-62190000D01*
X78530000Y-67630000D02*
X78530000Y-62190000D01*
X78660000Y-67630000D02*
X78530000Y-67630000D01*
G04 #@! TO.C,D3*
X77038057Y-64154468D02*
X74491943Y-62684468D01*
X76918057Y-64362314D02*
X74371943Y-62892314D01*
X76978057Y-64258391D02*
X74431943Y-62788391D01*
X72161943Y-66720146D02*
X72274526Y-66785146D01*
X74881943Y-62008968D02*
X72161943Y-66720146D01*
X74994526Y-62073968D02*
X74881943Y-62008968D01*
X74708057Y-68190146D02*
X74595474Y-68125146D01*
X77428057Y-63478968D02*
X74708057Y-68190146D01*
X77315474Y-63413968D02*
X77428057Y-63478968D01*
G04 #@! TO.C,D2*
X68530000Y-66880000D02*
X71470000Y-66880000D01*
X68530000Y-66640000D02*
X71470000Y-66640000D01*
X68530000Y-66760000D02*
X71470000Y-66760000D01*
X71470000Y-62220000D02*
X71340000Y-62220000D01*
X71470000Y-67660000D02*
X71470000Y-62220000D01*
X71340000Y-67660000D02*
X71470000Y-67660000D01*
X68530000Y-62220000D02*
X68660000Y-62220000D01*
X68530000Y-67660000D02*
X68530000Y-62220000D01*
X68660000Y-67660000D02*
X68530000Y-67660000D01*
G04 #@! TO.C,D1*
X65717157Y-64861737D02*
X63638263Y-62782843D01*
X65547452Y-65031442D02*
X63468558Y-62952548D01*
X65632304Y-64946589D02*
X63553411Y-62867696D01*
X60343146Y-66077960D02*
X60435070Y-66169884D01*
X64189807Y-62231299D02*
X60343146Y-66077960D01*
X64281731Y-62323223D02*
X64189807Y-62231299D01*
X62422040Y-68156854D02*
X62330116Y-68064930D01*
X66268701Y-64310193D02*
X62422040Y-68156854D01*
X66176777Y-64218269D02*
X66268701Y-64310193D01*
G04 #@! TD*
G04 #@! TO.C,*
D15*
G04 #@! TO.C,High Voltage*
X142952380Y-67571428D02*
X141952380Y-67571428D01*
X142428571Y-67571428D02*
X142428571Y-67000000D01*
X142952380Y-67000000D02*
X141952380Y-67000000D01*
X142952380Y-66523809D02*
X142285714Y-66523809D01*
X141952380Y-66523809D02*
X142000000Y-66571428D01*
X142047619Y-66523809D01*
X142000000Y-66476190D01*
X141952380Y-66523809D01*
X142047619Y-66523809D01*
X142285714Y-65619047D02*
X143095238Y-65619047D01*
X143190476Y-65666666D01*
X143238095Y-65714285D01*
X143285714Y-65809523D01*
X143285714Y-65952380D01*
X143238095Y-66047619D01*
X142904761Y-65619047D02*
X142952380Y-65714285D01*
X142952380Y-65904761D01*
X142904761Y-66000000D01*
X142857142Y-66047619D01*
X142761904Y-66095238D01*
X142476190Y-66095238D01*
X142380952Y-66047619D01*
X142333333Y-66000000D01*
X142285714Y-65904761D01*
X142285714Y-65714285D01*
X142333333Y-65619047D01*
X142952380Y-65142857D02*
X141952380Y-65142857D01*
X142952380Y-64714285D02*
X142428571Y-64714285D01*
X142333333Y-64761904D01*
X142285714Y-64857142D01*
X142285714Y-65000000D01*
X142333333Y-65095238D01*
X142380952Y-65142857D01*
X141952380Y-63619047D02*
X142952380Y-63285714D01*
X141952380Y-62952380D01*
X142952380Y-62476190D02*
X142904761Y-62571428D01*
X142857142Y-62619047D01*
X142761904Y-62666666D01*
X142476190Y-62666666D01*
X142380952Y-62619047D01*
X142333333Y-62571428D01*
X142285714Y-62476190D01*
X142285714Y-62333333D01*
X142333333Y-62238095D01*
X142380952Y-62190476D01*
X142476190Y-62142857D01*
X142761904Y-62142857D01*
X142857142Y-62190476D01*
X142904761Y-62238095D01*
X142952380Y-62333333D01*
X142952380Y-62476190D01*
X142952380Y-61571428D02*
X142904761Y-61666666D01*
X142809523Y-61714285D01*
X141952380Y-61714285D01*
X142285714Y-61333333D02*
X142285714Y-60952380D01*
X141952380Y-61190476D02*
X142809523Y-61190476D01*
X142904761Y-61142857D01*
X142952380Y-61047619D01*
X142952380Y-60952380D01*
X142952380Y-60190476D02*
X142428571Y-60190476D01*
X142333333Y-60238095D01*
X142285714Y-60333333D01*
X142285714Y-60523809D01*
X142333333Y-60619047D01*
X142904761Y-60190476D02*
X142952380Y-60285714D01*
X142952380Y-60523809D01*
X142904761Y-60619047D01*
X142809523Y-60666666D01*
X142714285Y-60666666D01*
X142619047Y-60619047D01*
X142571428Y-60523809D01*
X142571428Y-60285714D01*
X142523809Y-60190476D01*
X142285714Y-59285714D02*
X143095238Y-59285714D01*
X143190476Y-59333333D01*
X143238095Y-59380952D01*
X143285714Y-59476190D01*
X143285714Y-59619047D01*
X143238095Y-59714285D01*
X142904761Y-59285714D02*
X142952380Y-59380952D01*
X142952380Y-59571428D01*
X142904761Y-59666666D01*
X142857142Y-59714285D01*
X142761904Y-59761904D01*
X142476190Y-59761904D01*
X142380952Y-59714285D01*
X142333333Y-59666666D01*
X142285714Y-59571428D01*
X142285714Y-59380952D01*
X142333333Y-59285714D01*
X142904761Y-58428571D02*
X142952380Y-58523809D01*
X142952380Y-58714285D01*
X142904761Y-58809523D01*
X142809523Y-58857142D01*
X142428571Y-58857142D01*
X142333333Y-58809523D01*
X142285714Y-58714285D01*
X142285714Y-58523809D01*
X142333333Y-58428571D01*
X142428571Y-58380952D01*
X142523809Y-58380952D01*
X142619047Y-58857142D01*
G04 #@! TO.C,HV1*
X66001380Y-76614276D02*
X65001380Y-76614276D01*
X65477571Y-76614276D02*
X65477571Y-76042847D01*
X66001380Y-76042847D02*
X65001380Y-76042847D01*
X65001380Y-75709514D02*
X66001380Y-75376180D01*
X65001380Y-75042847D01*
X66001380Y-74185704D02*
X66001380Y-74757133D01*
X66001380Y-74471419D02*
X65001380Y-74471419D01*
X65144238Y-74566657D01*
X65239476Y-74661895D01*
X65287095Y-74757133D01*
G04 #@! TO.C,IN2*
X62662180Y-90527000D02*
X61662180Y-90527000D01*
X62662180Y-90050809D02*
X61662180Y-90050809D01*
X62662180Y-89479380D01*
X61662180Y-89479380D01*
X61757419Y-89050809D02*
X61709800Y-89003190D01*
X61662180Y-88907952D01*
X61662180Y-88669857D01*
X61709800Y-88574619D01*
X61757419Y-88527000D01*
X61852657Y-88479380D01*
X61947895Y-88479380D01*
X62090752Y-88527000D01*
X62662180Y-89098428D01*
X62662180Y-88479380D01*
G04 #@! TO.C,IN1*
X62712980Y-58750000D02*
X61712980Y-58750000D01*
X62712980Y-58273809D02*
X61712980Y-58273809D01*
X62712980Y-57702380D01*
X61712980Y-57702380D01*
X62712980Y-56702380D02*
X62712980Y-57273809D01*
X62712980Y-56988095D02*
X61712980Y-56988095D01*
X61855838Y-57083333D01*
X61951076Y-57178571D01*
X61998695Y-57273809D01*
G04 #@! TO.C,HV7*
X135502380Y-73090476D02*
X134502380Y-73090476D01*
X134978571Y-73090476D02*
X134978571Y-72519047D01*
X135502380Y-72519047D02*
X134502380Y-72519047D01*
X134502380Y-72185714D02*
X135502380Y-71852380D01*
X134502380Y-71519047D01*
X134502380Y-71280952D02*
X134502380Y-70614285D01*
X135502380Y-71042857D01*
G04 #@! TO.C,OUT1*
X137123780Y-56306390D02*
X137123780Y-56115914D01*
X137171400Y-56020676D01*
X137266638Y-55925438D01*
X137457114Y-55877819D01*
X137790447Y-55877819D01*
X137980923Y-55925438D01*
X138076161Y-56020676D01*
X138123780Y-56115914D01*
X138123780Y-56306390D01*
X138076161Y-56401628D01*
X137980923Y-56496866D01*
X137790447Y-56544485D01*
X137457114Y-56544485D01*
X137266638Y-56496866D01*
X137171400Y-56401628D01*
X137123780Y-56306390D01*
X137123780Y-55449247D02*
X137933304Y-55449247D01*
X138028542Y-55401628D01*
X138076161Y-55354009D01*
X138123780Y-55258771D01*
X138123780Y-55068295D01*
X138076161Y-54973057D01*
X138028542Y-54925438D01*
X137933304Y-54877819D01*
X137123780Y-54877819D01*
X137123780Y-54544485D02*
X137123780Y-53973057D01*
X138123780Y-54258771D02*
X137123780Y-54258771D01*
X138123780Y-53115914D02*
X138123780Y-53687342D01*
X138123780Y-53401628D02*
X137123780Y-53401628D01*
X137266638Y-53496866D01*
X137361876Y-53592104D01*
X137409495Y-53687342D01*
G04 #@! TO.C,HV0*
X62729780Y-76610676D02*
X61729780Y-76610676D01*
X62205971Y-76610676D02*
X62205971Y-76039247D01*
X62729780Y-76039247D02*
X61729780Y-76039247D01*
X61729780Y-75705914D02*
X62729780Y-75372580D01*
X61729780Y-75039247D01*
X61729780Y-74515438D02*
X61729780Y-74420200D01*
X61777400Y-74324961D01*
X61825019Y-74277342D01*
X61920257Y-74229723D01*
X62110733Y-74182104D01*
X62348828Y-74182104D01*
X62539304Y-74229723D01*
X62634542Y-74277342D01*
X62682161Y-74324961D01*
X62729780Y-74420200D01*
X62729780Y-74515438D01*
X62682161Y-74610676D01*
X62634542Y-74658295D01*
X62539304Y-74705914D01*
X62348828Y-74753533D01*
X62110733Y-74753533D01*
X61920257Y-74705914D01*
X61825019Y-74658295D01*
X61777400Y-74610676D01*
X61729780Y-74515438D01*
G04 #@! TO.C,OUT2*
X136945980Y-94537590D02*
X136945980Y-94347114D01*
X136993600Y-94251876D01*
X137088838Y-94156638D01*
X137279314Y-94109019D01*
X137612647Y-94109019D01*
X137803123Y-94156638D01*
X137898361Y-94251876D01*
X137945980Y-94347114D01*
X137945980Y-94537590D01*
X137898361Y-94632828D01*
X137803123Y-94728066D01*
X137612647Y-94775685D01*
X137279314Y-94775685D01*
X137088838Y-94728066D01*
X136993600Y-94632828D01*
X136945980Y-94537590D01*
X136945980Y-93680447D02*
X137755504Y-93680447D01*
X137850742Y-93632828D01*
X137898361Y-93585209D01*
X137945980Y-93489971D01*
X137945980Y-93299495D01*
X137898361Y-93204257D01*
X137850742Y-93156638D01*
X137755504Y-93109019D01*
X136945980Y-93109019D01*
X136945980Y-92775685D02*
X136945980Y-92204257D01*
X137945980Y-92489971D02*
X136945980Y-92489971D01*
X137041219Y-91918542D02*
X136993600Y-91870923D01*
X136945980Y-91775685D01*
X136945980Y-91537590D01*
X136993600Y-91442352D01*
X137041219Y-91394733D01*
X137136457Y-91347114D01*
X137231695Y-91347114D01*
X137374552Y-91394733D01*
X137945980Y-91966161D01*
X137945980Y-91347114D01*
G04 #@! TO.C,HV8*
X138276180Y-73153876D02*
X137276180Y-73153876D01*
X137752371Y-73153876D02*
X137752371Y-72582447D01*
X138276180Y-72582447D02*
X137276180Y-72582447D01*
X137276180Y-72249114D02*
X138276180Y-71915780D01*
X137276180Y-71582447D01*
X137704752Y-71106257D02*
X137657133Y-71201495D01*
X137609514Y-71249114D01*
X137514276Y-71296733D01*
X137466657Y-71296733D01*
X137371419Y-71249114D01*
X137323800Y-71201495D01*
X137276180Y-71106257D01*
X137276180Y-70915780D01*
X137323800Y-70820542D01*
X137371419Y-70772923D01*
X137466657Y-70725304D01*
X137514276Y-70725304D01*
X137609514Y-70772923D01*
X137657133Y-70820542D01*
X137704752Y-70915780D01*
X137704752Y-71106257D01*
X137752371Y-71201495D01*
X137799990Y-71249114D01*
X137895228Y-71296733D01*
X138085704Y-71296733D01*
X138180942Y-71249114D01*
X138228561Y-71201495D01*
X138276180Y-71106257D01*
X138276180Y-70915780D01*
X138228561Y-70820542D01*
X138180942Y-70772923D01*
X138085704Y-70725304D01*
X137895228Y-70725304D01*
X137799990Y-70772923D01*
X137752371Y-70820542D01*
X137704752Y-70915780D01*
G04 #@! TO.C,C28*
X133007142Y-89757142D02*
X132959523Y-89804761D01*
X132816666Y-89852380D01*
X132721428Y-89852380D01*
X132578571Y-89804761D01*
X132483333Y-89709523D01*
X132435714Y-89614285D01*
X132388095Y-89423809D01*
X132388095Y-89280952D01*
X132435714Y-89090476D01*
X132483333Y-88995238D01*
X132578571Y-88900000D01*
X132721428Y-88852380D01*
X132816666Y-88852380D01*
X132959523Y-88900000D01*
X133007142Y-88947619D01*
X133388095Y-88947619D02*
X133435714Y-88900000D01*
X133530952Y-88852380D01*
X133769047Y-88852380D01*
X133864285Y-88900000D01*
X133911904Y-88947619D01*
X133959523Y-89042857D01*
X133959523Y-89138095D01*
X133911904Y-89280952D01*
X133340476Y-89852380D01*
X133959523Y-89852380D01*
X134530952Y-89280952D02*
X134435714Y-89233333D01*
X134388095Y-89185714D01*
X134340476Y-89090476D01*
X134340476Y-89042857D01*
X134388095Y-88947619D01*
X134435714Y-88900000D01*
X134530952Y-88852380D01*
X134721428Y-88852380D01*
X134816666Y-88900000D01*
X134864285Y-88947619D01*
X134911904Y-89042857D01*
X134911904Y-89090476D01*
X134864285Y-89185714D01*
X134816666Y-89233333D01*
X134721428Y-89280952D01*
X134530952Y-89280952D01*
X134435714Y-89328571D01*
X134388095Y-89376190D01*
X134340476Y-89471428D01*
X134340476Y-89661904D01*
X134388095Y-89757142D01*
X134435714Y-89804761D01*
X134530952Y-89852380D01*
X134721428Y-89852380D01*
X134816666Y-89804761D01*
X134864285Y-89757142D01*
X134911904Y-89661904D01*
X134911904Y-89471428D01*
X134864285Y-89376190D01*
X134816666Y-89328571D01*
X134721428Y-89280952D01*
G04 #@! TO.C,C27*
X123007142Y-93257142D02*
X122959523Y-93304761D01*
X122816666Y-93352380D01*
X122721428Y-93352380D01*
X122578571Y-93304761D01*
X122483333Y-93209523D01*
X122435714Y-93114285D01*
X122388095Y-92923809D01*
X122388095Y-92780952D01*
X122435714Y-92590476D01*
X122483333Y-92495238D01*
X122578571Y-92400000D01*
X122721428Y-92352380D01*
X122816666Y-92352380D01*
X122959523Y-92400000D01*
X123007142Y-92447619D01*
X123388095Y-92447619D02*
X123435714Y-92400000D01*
X123530952Y-92352380D01*
X123769047Y-92352380D01*
X123864285Y-92400000D01*
X123911904Y-92447619D01*
X123959523Y-92542857D01*
X123959523Y-92638095D01*
X123911904Y-92780952D01*
X123340476Y-93352380D01*
X123959523Y-93352380D01*
X124292857Y-92352380D02*
X124959523Y-92352380D01*
X124530952Y-93352380D01*
G04 #@! TO.C,C26*
X113007142Y-89757142D02*
X112959523Y-89804761D01*
X112816666Y-89852380D01*
X112721428Y-89852380D01*
X112578571Y-89804761D01*
X112483333Y-89709523D01*
X112435714Y-89614285D01*
X112388095Y-89423809D01*
X112388095Y-89280952D01*
X112435714Y-89090476D01*
X112483333Y-88995238D01*
X112578571Y-88900000D01*
X112721428Y-88852380D01*
X112816666Y-88852380D01*
X112959523Y-88900000D01*
X113007142Y-88947619D01*
X113388095Y-88947619D02*
X113435714Y-88900000D01*
X113530952Y-88852380D01*
X113769047Y-88852380D01*
X113864285Y-88900000D01*
X113911904Y-88947619D01*
X113959523Y-89042857D01*
X113959523Y-89138095D01*
X113911904Y-89280952D01*
X113340476Y-89852380D01*
X113959523Y-89852380D01*
X114816666Y-88852380D02*
X114626190Y-88852380D01*
X114530952Y-88900000D01*
X114483333Y-88947619D01*
X114388095Y-89090476D01*
X114340476Y-89280952D01*
X114340476Y-89661904D01*
X114388095Y-89757142D01*
X114435714Y-89804761D01*
X114530952Y-89852380D01*
X114721428Y-89852380D01*
X114816666Y-89804761D01*
X114864285Y-89757142D01*
X114911904Y-89661904D01*
X114911904Y-89423809D01*
X114864285Y-89328571D01*
X114816666Y-89280952D01*
X114721428Y-89233333D01*
X114530952Y-89233333D01*
X114435714Y-89280952D01*
X114388095Y-89328571D01*
X114340476Y-89423809D01*
G04 #@! TO.C,C25*
X103007142Y-93257142D02*
X102959523Y-93304761D01*
X102816666Y-93352380D01*
X102721428Y-93352380D01*
X102578571Y-93304761D01*
X102483333Y-93209523D01*
X102435714Y-93114285D01*
X102388095Y-92923809D01*
X102388095Y-92780952D01*
X102435714Y-92590476D01*
X102483333Y-92495238D01*
X102578571Y-92400000D01*
X102721428Y-92352380D01*
X102816666Y-92352380D01*
X102959523Y-92400000D01*
X103007142Y-92447619D01*
X103388095Y-92447619D02*
X103435714Y-92400000D01*
X103530952Y-92352380D01*
X103769047Y-92352380D01*
X103864285Y-92400000D01*
X103911904Y-92447619D01*
X103959523Y-92542857D01*
X103959523Y-92638095D01*
X103911904Y-92780952D01*
X103340476Y-93352380D01*
X103959523Y-93352380D01*
X104864285Y-92352380D02*
X104388095Y-92352380D01*
X104340476Y-92828571D01*
X104388095Y-92780952D01*
X104483333Y-92733333D01*
X104721428Y-92733333D01*
X104816666Y-92780952D01*
X104864285Y-92828571D01*
X104911904Y-92923809D01*
X104911904Y-93161904D01*
X104864285Y-93257142D01*
X104816666Y-93304761D01*
X104721428Y-93352380D01*
X104483333Y-93352380D01*
X104388095Y-93304761D01*
X104340476Y-93257142D01*
G04 #@! TO.C,C24*
X93007142Y-89757142D02*
X92959523Y-89804761D01*
X92816666Y-89852380D01*
X92721428Y-89852380D01*
X92578571Y-89804761D01*
X92483333Y-89709523D01*
X92435714Y-89614285D01*
X92388095Y-89423809D01*
X92388095Y-89280952D01*
X92435714Y-89090476D01*
X92483333Y-88995238D01*
X92578571Y-88900000D01*
X92721428Y-88852380D01*
X92816666Y-88852380D01*
X92959523Y-88900000D01*
X93007142Y-88947619D01*
X93388095Y-88947619D02*
X93435714Y-88900000D01*
X93530952Y-88852380D01*
X93769047Y-88852380D01*
X93864285Y-88900000D01*
X93911904Y-88947619D01*
X93959523Y-89042857D01*
X93959523Y-89138095D01*
X93911904Y-89280952D01*
X93340476Y-89852380D01*
X93959523Y-89852380D01*
X94816666Y-89185714D02*
X94816666Y-89852380D01*
X94578571Y-88804761D02*
X94340476Y-89519047D01*
X94959523Y-89519047D01*
G04 #@! TO.C,C23*
X83007142Y-93257142D02*
X82959523Y-93304761D01*
X82816666Y-93352380D01*
X82721428Y-93352380D01*
X82578571Y-93304761D01*
X82483333Y-93209523D01*
X82435714Y-93114285D01*
X82388095Y-92923809D01*
X82388095Y-92780952D01*
X82435714Y-92590476D01*
X82483333Y-92495238D01*
X82578571Y-92400000D01*
X82721428Y-92352380D01*
X82816666Y-92352380D01*
X82959523Y-92400000D01*
X83007142Y-92447619D01*
X83388095Y-92447619D02*
X83435714Y-92400000D01*
X83530952Y-92352380D01*
X83769047Y-92352380D01*
X83864285Y-92400000D01*
X83911904Y-92447619D01*
X83959523Y-92542857D01*
X83959523Y-92638095D01*
X83911904Y-92780952D01*
X83340476Y-93352380D01*
X83959523Y-93352380D01*
X84292857Y-92352380D02*
X84911904Y-92352380D01*
X84578571Y-92733333D01*
X84721428Y-92733333D01*
X84816666Y-92780952D01*
X84864285Y-92828571D01*
X84911904Y-92923809D01*
X84911904Y-93161904D01*
X84864285Y-93257142D01*
X84816666Y-93304761D01*
X84721428Y-93352380D01*
X84435714Y-93352380D01*
X84340476Y-93304761D01*
X84292857Y-93257142D01*
G04 #@! TO.C,C22*
X73007142Y-89757142D02*
X72959523Y-89804761D01*
X72816666Y-89852380D01*
X72721428Y-89852380D01*
X72578571Y-89804761D01*
X72483333Y-89709523D01*
X72435714Y-89614285D01*
X72388095Y-89423809D01*
X72388095Y-89280952D01*
X72435714Y-89090476D01*
X72483333Y-88995238D01*
X72578571Y-88900000D01*
X72721428Y-88852380D01*
X72816666Y-88852380D01*
X72959523Y-88900000D01*
X73007142Y-88947619D01*
X73388095Y-88947619D02*
X73435714Y-88900000D01*
X73530952Y-88852380D01*
X73769047Y-88852380D01*
X73864285Y-88900000D01*
X73911904Y-88947619D01*
X73959523Y-89042857D01*
X73959523Y-89138095D01*
X73911904Y-89280952D01*
X73340476Y-89852380D01*
X73959523Y-89852380D01*
X74340476Y-88947619D02*
X74388095Y-88900000D01*
X74483333Y-88852380D01*
X74721428Y-88852380D01*
X74816666Y-88900000D01*
X74864285Y-88947619D01*
X74911904Y-89042857D01*
X74911904Y-89138095D01*
X74864285Y-89280952D01*
X74292857Y-89852380D01*
X74911904Y-89852380D01*
G04 #@! TO.C,C21*
X63007142Y-93257142D02*
X62959523Y-93304761D01*
X62816666Y-93352380D01*
X62721428Y-93352380D01*
X62578571Y-93304761D01*
X62483333Y-93209523D01*
X62435714Y-93114285D01*
X62388095Y-92923809D01*
X62388095Y-92780952D01*
X62435714Y-92590476D01*
X62483333Y-92495238D01*
X62578571Y-92400000D01*
X62721428Y-92352380D01*
X62816666Y-92352380D01*
X62959523Y-92400000D01*
X63007142Y-92447619D01*
X63388095Y-92447619D02*
X63435714Y-92400000D01*
X63530952Y-92352380D01*
X63769047Y-92352380D01*
X63864285Y-92400000D01*
X63911904Y-92447619D01*
X63959523Y-92542857D01*
X63959523Y-92638095D01*
X63911904Y-92780952D01*
X63340476Y-93352380D01*
X63959523Y-93352380D01*
X64911904Y-93352380D02*
X64340476Y-93352380D01*
X64626190Y-93352380D02*
X64626190Y-92352380D01*
X64530952Y-92495238D01*
X64435714Y-92590476D01*
X64340476Y-92638095D01*
G04 #@! TO.C,C18*
X133007142Y-75857142D02*
X132959523Y-75904761D01*
X132816666Y-75952380D01*
X132721428Y-75952380D01*
X132578571Y-75904761D01*
X132483333Y-75809523D01*
X132435714Y-75714285D01*
X132388095Y-75523809D01*
X132388095Y-75380952D01*
X132435714Y-75190476D01*
X132483333Y-75095238D01*
X132578571Y-75000000D01*
X132721428Y-74952380D01*
X132816666Y-74952380D01*
X132959523Y-75000000D01*
X133007142Y-75047619D01*
X133959523Y-75952380D02*
X133388095Y-75952380D01*
X133673809Y-75952380D02*
X133673809Y-74952380D01*
X133578571Y-75095238D01*
X133483333Y-75190476D01*
X133388095Y-75238095D01*
X134530952Y-75380952D02*
X134435714Y-75333333D01*
X134388095Y-75285714D01*
X134340476Y-75190476D01*
X134340476Y-75142857D01*
X134388095Y-75047619D01*
X134435714Y-75000000D01*
X134530952Y-74952380D01*
X134721428Y-74952380D01*
X134816666Y-75000000D01*
X134864285Y-75047619D01*
X134911904Y-75142857D01*
X134911904Y-75190476D01*
X134864285Y-75285714D01*
X134816666Y-75333333D01*
X134721428Y-75380952D01*
X134530952Y-75380952D01*
X134435714Y-75428571D01*
X134388095Y-75476190D01*
X134340476Y-75571428D01*
X134340476Y-75761904D01*
X134388095Y-75857142D01*
X134435714Y-75904761D01*
X134530952Y-75952380D01*
X134721428Y-75952380D01*
X134816666Y-75904761D01*
X134864285Y-75857142D01*
X134911904Y-75761904D01*
X134911904Y-75571428D01*
X134864285Y-75476190D01*
X134816666Y-75428571D01*
X134721428Y-75380952D01*
G04 #@! TO.C,C17*
X123007142Y-72257142D02*
X122959523Y-72304761D01*
X122816666Y-72352380D01*
X122721428Y-72352380D01*
X122578571Y-72304761D01*
X122483333Y-72209523D01*
X122435714Y-72114285D01*
X122388095Y-71923809D01*
X122388095Y-71780952D01*
X122435714Y-71590476D01*
X122483333Y-71495238D01*
X122578571Y-71400000D01*
X122721428Y-71352380D01*
X122816666Y-71352380D01*
X122959523Y-71400000D01*
X123007142Y-71447619D01*
X123959523Y-72352380D02*
X123388095Y-72352380D01*
X123673809Y-72352380D02*
X123673809Y-71352380D01*
X123578571Y-71495238D01*
X123483333Y-71590476D01*
X123388095Y-71638095D01*
X124292857Y-71352380D02*
X124959523Y-71352380D01*
X124530952Y-72352380D01*
G04 #@! TO.C,C16*
X113007142Y-75857142D02*
X112959523Y-75904761D01*
X112816666Y-75952380D01*
X112721428Y-75952380D01*
X112578571Y-75904761D01*
X112483333Y-75809523D01*
X112435714Y-75714285D01*
X112388095Y-75523809D01*
X112388095Y-75380952D01*
X112435714Y-75190476D01*
X112483333Y-75095238D01*
X112578571Y-75000000D01*
X112721428Y-74952380D01*
X112816666Y-74952380D01*
X112959523Y-75000000D01*
X113007142Y-75047619D01*
X113959523Y-75952380D02*
X113388095Y-75952380D01*
X113673809Y-75952380D02*
X113673809Y-74952380D01*
X113578571Y-75095238D01*
X113483333Y-75190476D01*
X113388095Y-75238095D01*
X114816666Y-74952380D02*
X114626190Y-74952380D01*
X114530952Y-75000000D01*
X114483333Y-75047619D01*
X114388095Y-75190476D01*
X114340476Y-75380952D01*
X114340476Y-75761904D01*
X114388095Y-75857142D01*
X114435714Y-75904761D01*
X114530952Y-75952380D01*
X114721428Y-75952380D01*
X114816666Y-75904761D01*
X114864285Y-75857142D01*
X114911904Y-75761904D01*
X114911904Y-75523809D01*
X114864285Y-75428571D01*
X114816666Y-75380952D01*
X114721428Y-75333333D01*
X114530952Y-75333333D01*
X114435714Y-75380952D01*
X114388095Y-75428571D01*
X114340476Y-75523809D01*
G04 #@! TO.C,C15*
X103007142Y-72257142D02*
X102959523Y-72304761D01*
X102816666Y-72352380D01*
X102721428Y-72352380D01*
X102578571Y-72304761D01*
X102483333Y-72209523D01*
X102435714Y-72114285D01*
X102388095Y-71923809D01*
X102388095Y-71780952D01*
X102435714Y-71590476D01*
X102483333Y-71495238D01*
X102578571Y-71400000D01*
X102721428Y-71352380D01*
X102816666Y-71352380D01*
X102959523Y-71400000D01*
X103007142Y-71447619D01*
X103959523Y-72352380D02*
X103388095Y-72352380D01*
X103673809Y-72352380D02*
X103673809Y-71352380D01*
X103578571Y-71495238D01*
X103483333Y-71590476D01*
X103388095Y-71638095D01*
X104864285Y-71352380D02*
X104388095Y-71352380D01*
X104340476Y-71828571D01*
X104388095Y-71780952D01*
X104483333Y-71733333D01*
X104721428Y-71733333D01*
X104816666Y-71780952D01*
X104864285Y-71828571D01*
X104911904Y-71923809D01*
X104911904Y-72161904D01*
X104864285Y-72257142D01*
X104816666Y-72304761D01*
X104721428Y-72352380D01*
X104483333Y-72352380D01*
X104388095Y-72304761D01*
X104340476Y-72257142D01*
G04 #@! TO.C,C14*
X93007142Y-75857142D02*
X92959523Y-75904761D01*
X92816666Y-75952380D01*
X92721428Y-75952380D01*
X92578571Y-75904761D01*
X92483333Y-75809523D01*
X92435714Y-75714285D01*
X92388095Y-75523809D01*
X92388095Y-75380952D01*
X92435714Y-75190476D01*
X92483333Y-75095238D01*
X92578571Y-75000000D01*
X92721428Y-74952380D01*
X92816666Y-74952380D01*
X92959523Y-75000000D01*
X93007142Y-75047619D01*
X93959523Y-75952380D02*
X93388095Y-75952380D01*
X93673809Y-75952380D02*
X93673809Y-74952380D01*
X93578571Y-75095238D01*
X93483333Y-75190476D01*
X93388095Y-75238095D01*
X94816666Y-75285714D02*
X94816666Y-75952380D01*
X94578571Y-74904761D02*
X94340476Y-75619047D01*
X94959523Y-75619047D01*
G04 #@! TO.C,C13*
X83007142Y-72257142D02*
X82959523Y-72304761D01*
X82816666Y-72352380D01*
X82721428Y-72352380D01*
X82578571Y-72304761D01*
X82483333Y-72209523D01*
X82435714Y-72114285D01*
X82388095Y-71923809D01*
X82388095Y-71780952D01*
X82435714Y-71590476D01*
X82483333Y-71495238D01*
X82578571Y-71400000D01*
X82721428Y-71352380D01*
X82816666Y-71352380D01*
X82959523Y-71400000D01*
X83007142Y-71447619D01*
X83959523Y-72352380D02*
X83388095Y-72352380D01*
X83673809Y-72352380D02*
X83673809Y-71352380D01*
X83578571Y-71495238D01*
X83483333Y-71590476D01*
X83388095Y-71638095D01*
X84292857Y-71352380D02*
X84911904Y-71352380D01*
X84578571Y-71733333D01*
X84721428Y-71733333D01*
X84816666Y-71780952D01*
X84864285Y-71828571D01*
X84911904Y-71923809D01*
X84911904Y-72161904D01*
X84864285Y-72257142D01*
X84816666Y-72304761D01*
X84721428Y-72352380D01*
X84435714Y-72352380D01*
X84340476Y-72304761D01*
X84292857Y-72257142D01*
G04 #@! TO.C,C12*
X73007142Y-75857142D02*
X72959523Y-75904761D01*
X72816666Y-75952380D01*
X72721428Y-75952380D01*
X72578571Y-75904761D01*
X72483333Y-75809523D01*
X72435714Y-75714285D01*
X72388095Y-75523809D01*
X72388095Y-75380952D01*
X72435714Y-75190476D01*
X72483333Y-75095238D01*
X72578571Y-75000000D01*
X72721428Y-74952380D01*
X72816666Y-74952380D01*
X72959523Y-75000000D01*
X73007142Y-75047619D01*
X73959523Y-75952380D02*
X73388095Y-75952380D01*
X73673809Y-75952380D02*
X73673809Y-74952380D01*
X73578571Y-75095238D01*
X73483333Y-75190476D01*
X73388095Y-75238095D01*
X74340476Y-75047619D02*
X74388095Y-75000000D01*
X74483333Y-74952380D01*
X74721428Y-74952380D01*
X74816666Y-75000000D01*
X74864285Y-75047619D01*
X74911904Y-75142857D01*
X74911904Y-75238095D01*
X74864285Y-75380952D01*
X74292857Y-75952380D01*
X74911904Y-75952380D01*
G04 #@! TO.C,C11*
X63007142Y-72257142D02*
X62959523Y-72304761D01*
X62816666Y-72352380D01*
X62721428Y-72352380D01*
X62578571Y-72304761D01*
X62483333Y-72209523D01*
X62435714Y-72114285D01*
X62388095Y-71923809D01*
X62388095Y-71780952D01*
X62435714Y-71590476D01*
X62483333Y-71495238D01*
X62578571Y-71400000D01*
X62721428Y-71352380D01*
X62816666Y-71352380D01*
X62959523Y-71400000D01*
X63007142Y-71447619D01*
X63959523Y-72352380D02*
X63388095Y-72352380D01*
X63673809Y-72352380D02*
X63673809Y-71352380D01*
X63578571Y-71495238D01*
X63483333Y-71590476D01*
X63388095Y-71638095D01*
X64911904Y-72352380D02*
X64340476Y-72352380D01*
X64626190Y-72352380D02*
X64626190Y-71352380D01*
X64530952Y-71495238D01*
X64435714Y-71590476D01*
X64340476Y-71638095D01*
G04 #@! TO.C,C8*
X133483333Y-58357142D02*
X133435714Y-58404761D01*
X133292857Y-58452380D01*
X133197619Y-58452380D01*
X133054761Y-58404761D01*
X132959523Y-58309523D01*
X132911904Y-58214285D01*
X132864285Y-58023809D01*
X132864285Y-57880952D01*
X132911904Y-57690476D01*
X132959523Y-57595238D01*
X133054761Y-57500000D01*
X133197619Y-57452380D01*
X133292857Y-57452380D01*
X133435714Y-57500000D01*
X133483333Y-57547619D01*
X134054761Y-57880952D02*
X133959523Y-57833333D01*
X133911904Y-57785714D01*
X133864285Y-57690476D01*
X133864285Y-57642857D01*
X133911904Y-57547619D01*
X133959523Y-57500000D01*
X134054761Y-57452380D01*
X134245238Y-57452380D01*
X134340476Y-57500000D01*
X134388095Y-57547619D01*
X134435714Y-57642857D01*
X134435714Y-57690476D01*
X134388095Y-57785714D01*
X134340476Y-57833333D01*
X134245238Y-57880952D01*
X134054761Y-57880952D01*
X133959523Y-57928571D01*
X133911904Y-57976190D01*
X133864285Y-58071428D01*
X133864285Y-58261904D01*
X133911904Y-58357142D01*
X133959523Y-58404761D01*
X134054761Y-58452380D01*
X134245238Y-58452380D01*
X134340476Y-58404761D01*
X134388095Y-58357142D01*
X134435714Y-58261904D01*
X134435714Y-58071428D01*
X134388095Y-57976190D01*
X134340476Y-57928571D01*
X134245238Y-57880952D01*
G04 #@! TO.C,C7*
X123483333Y-54857142D02*
X123435714Y-54904761D01*
X123292857Y-54952380D01*
X123197619Y-54952380D01*
X123054761Y-54904761D01*
X122959523Y-54809523D01*
X122911904Y-54714285D01*
X122864285Y-54523809D01*
X122864285Y-54380952D01*
X122911904Y-54190476D01*
X122959523Y-54095238D01*
X123054761Y-54000000D01*
X123197619Y-53952380D01*
X123292857Y-53952380D01*
X123435714Y-54000000D01*
X123483333Y-54047619D01*
X123816666Y-53952380D02*
X124483333Y-53952380D01*
X124054761Y-54952380D01*
G04 #@! TO.C,C6*
X113483333Y-58357142D02*
X113435714Y-58404761D01*
X113292857Y-58452380D01*
X113197619Y-58452380D01*
X113054761Y-58404761D01*
X112959523Y-58309523D01*
X112911904Y-58214285D01*
X112864285Y-58023809D01*
X112864285Y-57880952D01*
X112911904Y-57690476D01*
X112959523Y-57595238D01*
X113054761Y-57500000D01*
X113197619Y-57452380D01*
X113292857Y-57452380D01*
X113435714Y-57500000D01*
X113483333Y-57547619D01*
X114340476Y-57452380D02*
X114150000Y-57452380D01*
X114054761Y-57500000D01*
X114007142Y-57547619D01*
X113911904Y-57690476D01*
X113864285Y-57880952D01*
X113864285Y-58261904D01*
X113911904Y-58357142D01*
X113959523Y-58404761D01*
X114054761Y-58452380D01*
X114245238Y-58452380D01*
X114340476Y-58404761D01*
X114388095Y-58357142D01*
X114435714Y-58261904D01*
X114435714Y-58023809D01*
X114388095Y-57928571D01*
X114340476Y-57880952D01*
X114245238Y-57833333D01*
X114054761Y-57833333D01*
X113959523Y-57880952D01*
X113911904Y-57928571D01*
X113864285Y-58023809D01*
G04 #@! TO.C,C5*
X103483333Y-54897142D02*
X103435714Y-54944761D01*
X103292857Y-54992380D01*
X103197619Y-54992380D01*
X103054761Y-54944761D01*
X102959523Y-54849523D01*
X102911904Y-54754285D01*
X102864285Y-54563809D01*
X102864285Y-54420952D01*
X102911904Y-54230476D01*
X102959523Y-54135238D01*
X103054761Y-54040000D01*
X103197619Y-53992380D01*
X103292857Y-53992380D01*
X103435714Y-54040000D01*
X103483333Y-54087619D01*
X104388095Y-53992380D02*
X103911904Y-53992380D01*
X103864285Y-54468571D01*
X103911904Y-54420952D01*
X104007142Y-54373333D01*
X104245238Y-54373333D01*
X104340476Y-54420952D01*
X104388095Y-54468571D01*
X104435714Y-54563809D01*
X104435714Y-54801904D01*
X104388095Y-54897142D01*
X104340476Y-54944761D01*
X104245238Y-54992380D01*
X104007142Y-54992380D01*
X103911904Y-54944761D01*
X103864285Y-54897142D01*
G04 #@! TO.C,C4*
X93483333Y-58357142D02*
X93435714Y-58404761D01*
X93292857Y-58452380D01*
X93197619Y-58452380D01*
X93054761Y-58404761D01*
X92959523Y-58309523D01*
X92911904Y-58214285D01*
X92864285Y-58023809D01*
X92864285Y-57880952D01*
X92911904Y-57690476D01*
X92959523Y-57595238D01*
X93054761Y-57500000D01*
X93197619Y-57452380D01*
X93292857Y-57452380D01*
X93435714Y-57500000D01*
X93483333Y-57547619D01*
X94340476Y-57785714D02*
X94340476Y-58452380D01*
X94102380Y-57404761D02*
X93864285Y-58119047D01*
X94483333Y-58119047D01*
G04 #@! TO.C,C3*
X83483333Y-54857142D02*
X83435714Y-54904761D01*
X83292857Y-54952380D01*
X83197619Y-54952380D01*
X83054761Y-54904761D01*
X82959523Y-54809523D01*
X82911904Y-54714285D01*
X82864285Y-54523809D01*
X82864285Y-54380952D01*
X82911904Y-54190476D01*
X82959523Y-54095238D01*
X83054761Y-54000000D01*
X83197619Y-53952380D01*
X83292857Y-53952380D01*
X83435714Y-54000000D01*
X83483333Y-54047619D01*
X83816666Y-53952380D02*
X84435714Y-53952380D01*
X84102380Y-54333333D01*
X84245238Y-54333333D01*
X84340476Y-54380952D01*
X84388095Y-54428571D01*
X84435714Y-54523809D01*
X84435714Y-54761904D01*
X84388095Y-54857142D01*
X84340476Y-54904761D01*
X84245238Y-54952380D01*
X83959523Y-54952380D01*
X83864285Y-54904761D01*
X83816666Y-54857142D01*
G04 #@! TO.C,C2*
X73483333Y-58357142D02*
X73435714Y-58404761D01*
X73292857Y-58452380D01*
X73197619Y-58452380D01*
X73054761Y-58404761D01*
X72959523Y-58309523D01*
X72911904Y-58214285D01*
X72864285Y-58023809D01*
X72864285Y-57880952D01*
X72911904Y-57690476D01*
X72959523Y-57595238D01*
X73054761Y-57500000D01*
X73197619Y-57452380D01*
X73292857Y-57452380D01*
X73435714Y-57500000D01*
X73483333Y-57547619D01*
X73864285Y-57547619D02*
X73911904Y-57500000D01*
X74007142Y-57452380D01*
X74245238Y-57452380D01*
X74340476Y-57500000D01*
X74388095Y-57547619D01*
X74435714Y-57642857D01*
X74435714Y-57738095D01*
X74388095Y-57880952D01*
X73816666Y-58452380D01*
X74435714Y-58452380D01*
G04 #@! TO.C,C1*
X63483333Y-54857142D02*
X63435714Y-54904761D01*
X63292857Y-54952380D01*
X63197619Y-54952380D01*
X63054761Y-54904761D01*
X62959523Y-54809523D01*
X62911904Y-54714285D01*
X62864285Y-54523809D01*
X62864285Y-54380952D01*
X62911904Y-54190476D01*
X62959523Y-54095238D01*
X63054761Y-54000000D01*
X63197619Y-53952380D01*
X63292857Y-53952380D01*
X63435714Y-54000000D01*
X63483333Y-54047619D01*
X64435714Y-54952380D02*
X63864285Y-54952380D01*
X64150000Y-54952380D02*
X64150000Y-53952380D01*
X64054761Y-54095238D01*
X63959523Y-54190476D01*
X63864285Y-54238095D01*
G04 #@! TO.C,D36*
X140452380Y-83914285D02*
X139452380Y-83914285D01*
X139452380Y-83676190D01*
X139500000Y-83533333D01*
X139595238Y-83438095D01*
X139690476Y-83390476D01*
X139880952Y-83342857D01*
X140023809Y-83342857D01*
X140214285Y-83390476D01*
X140309523Y-83438095D01*
X140404761Y-83533333D01*
X140452380Y-83676190D01*
X140452380Y-83914285D01*
X139452380Y-83009523D02*
X139452380Y-82390476D01*
X139833333Y-82723809D01*
X139833333Y-82580952D01*
X139880952Y-82485714D01*
X139928571Y-82438095D01*
X140023809Y-82390476D01*
X140261904Y-82390476D01*
X140357142Y-82438095D01*
X140404761Y-82485714D01*
X140452380Y-82580952D01*
X140452380Y-82866666D01*
X140404761Y-82961904D01*
X140357142Y-83009523D01*
X139452380Y-81533333D02*
X139452380Y-81723809D01*
X139500000Y-81819047D01*
X139547619Y-81866666D01*
X139690476Y-81961904D01*
X139880952Y-82009523D01*
X140261904Y-82009523D01*
X140357142Y-81961904D01*
X140404761Y-81914285D01*
X140452380Y-81819047D01*
X140452380Y-81628571D01*
X140404761Y-81533333D01*
X140357142Y-81485714D01*
X140261904Y-81438095D01*
X140023809Y-81438095D01*
X139928571Y-81485714D01*
X139880952Y-81533333D01*
X139833333Y-81628571D01*
X139833333Y-81819047D01*
X139880952Y-81914285D01*
X139928571Y-81961904D01*
X140023809Y-82009523D01*
G04 #@! TO.C,D35*
X133651083Y-81423884D02*
X134517109Y-80923884D01*
X134636156Y-81130080D01*
X134666346Y-81277608D01*
X134631486Y-81407705D01*
X134572817Y-81496564D01*
X134431669Y-81633041D01*
X134307951Y-81704470D01*
X134119185Y-81758468D01*
X134012896Y-81764848D01*
X133882799Y-81729989D01*
X133770131Y-81630080D01*
X133651083Y-81423884D01*
X134969490Y-81707430D02*
X135279013Y-82243541D01*
X134782432Y-82145343D01*
X134853861Y-82269060D01*
X134860241Y-82375349D01*
X134842811Y-82440397D01*
X134784142Y-82529256D01*
X134577945Y-82648303D01*
X134471657Y-82654683D01*
X134406608Y-82637253D01*
X134317750Y-82578584D01*
X134174893Y-82331148D01*
X134168513Y-82224860D01*
X134185943Y-82159811D01*
X135731394Y-83027088D02*
X135493299Y-82614695D01*
X135057097Y-82811551D01*
X135122145Y-82828981D01*
X135211004Y-82887650D01*
X135330051Y-83093847D01*
X135336431Y-83200135D01*
X135319001Y-83265183D01*
X135260332Y-83354042D01*
X135054136Y-83473089D01*
X134947848Y-83479469D01*
X134882799Y-83462039D01*
X134793940Y-83403370D01*
X134674893Y-83197174D01*
X134668513Y-83090886D01*
X134685943Y-83025837D01*
G04 #@! TO.C,D34*
X130452380Y-83914285D02*
X129452380Y-83914285D01*
X129452380Y-83676190D01*
X129500000Y-83533333D01*
X129595238Y-83438095D01*
X129690476Y-83390476D01*
X129880952Y-83342857D01*
X130023809Y-83342857D01*
X130214285Y-83390476D01*
X130309523Y-83438095D01*
X130404761Y-83533333D01*
X130452380Y-83676190D01*
X130452380Y-83914285D01*
X129452380Y-83009523D02*
X129452380Y-82390476D01*
X129833333Y-82723809D01*
X129833333Y-82580952D01*
X129880952Y-82485714D01*
X129928571Y-82438095D01*
X130023809Y-82390476D01*
X130261904Y-82390476D01*
X130357142Y-82438095D01*
X130404761Y-82485714D01*
X130452380Y-82580952D01*
X130452380Y-82866666D01*
X130404761Y-82961904D01*
X130357142Y-83009523D01*
X129785714Y-81533333D02*
X130452380Y-81533333D01*
X129404761Y-81771428D02*
X130119047Y-82009523D01*
X130119047Y-81390476D01*
G04 #@! TO.C,D33*
X123665083Y-81448133D02*
X124531109Y-80948133D01*
X124650156Y-81154329D01*
X124680346Y-81301857D01*
X124645486Y-81431954D01*
X124586817Y-81520813D01*
X124445669Y-81657290D01*
X124321951Y-81728719D01*
X124133185Y-81782717D01*
X124026896Y-81789097D01*
X123896799Y-81754238D01*
X123784131Y-81654329D01*
X123665083Y-81448133D01*
X124983490Y-81731679D02*
X125293013Y-82267790D01*
X124796432Y-82169592D01*
X124867861Y-82293309D01*
X124874241Y-82399598D01*
X124856811Y-82464646D01*
X124798142Y-82553505D01*
X124591945Y-82672552D01*
X124485657Y-82678932D01*
X124420608Y-82661502D01*
X124331750Y-82602833D01*
X124188893Y-82355397D01*
X124182513Y-82249109D01*
X124199943Y-82184060D01*
X125459680Y-82556466D02*
X125769204Y-83092577D01*
X125272623Y-82994378D01*
X125344051Y-83118096D01*
X125350431Y-83224384D01*
X125333001Y-83289432D01*
X125274332Y-83378291D01*
X125068136Y-83497338D01*
X124961848Y-83503718D01*
X124896799Y-83486288D01*
X124807940Y-83427619D01*
X124665083Y-83180184D01*
X124658704Y-83073895D01*
X124676133Y-83008847D01*
G04 #@! TO.C,D32*
X120452380Y-83914285D02*
X119452380Y-83914285D01*
X119452380Y-83676190D01*
X119500000Y-83533333D01*
X119595238Y-83438095D01*
X119690476Y-83390476D01*
X119880952Y-83342857D01*
X120023809Y-83342857D01*
X120214285Y-83390476D01*
X120309523Y-83438095D01*
X120404761Y-83533333D01*
X120452380Y-83676190D01*
X120452380Y-83914285D01*
X119452380Y-83009523D02*
X119452380Y-82390476D01*
X119833333Y-82723809D01*
X119833333Y-82580952D01*
X119880952Y-82485714D01*
X119928571Y-82438095D01*
X120023809Y-82390476D01*
X120261904Y-82390476D01*
X120357142Y-82438095D01*
X120404761Y-82485714D01*
X120452380Y-82580952D01*
X120452380Y-82866666D01*
X120404761Y-82961904D01*
X120357142Y-83009523D01*
X119547619Y-82009523D02*
X119500000Y-81961904D01*
X119452380Y-81866666D01*
X119452380Y-81628571D01*
X119500000Y-81533333D01*
X119547619Y-81485714D01*
X119642857Y-81438095D01*
X119738095Y-81438095D01*
X119880952Y-81485714D01*
X120452380Y-82057142D01*
X120452380Y-81438095D01*
G04 #@! TO.C,D31*
X113651083Y-81423884D02*
X114517109Y-80923884D01*
X114636156Y-81130080D01*
X114666346Y-81277608D01*
X114631486Y-81407705D01*
X114572817Y-81496564D01*
X114431669Y-81633041D01*
X114307951Y-81704470D01*
X114119185Y-81758468D01*
X114012896Y-81764848D01*
X113882799Y-81729989D01*
X113770131Y-81630080D01*
X113651083Y-81423884D01*
X114969490Y-81707430D02*
X115279013Y-82243541D01*
X114782432Y-82145343D01*
X114853861Y-82269060D01*
X114860241Y-82375349D01*
X114842811Y-82440397D01*
X114784142Y-82529256D01*
X114577945Y-82648303D01*
X114471657Y-82654683D01*
X114406608Y-82637253D01*
X114317750Y-82578584D01*
X114174893Y-82331148D01*
X114168513Y-82224860D01*
X114185943Y-82159811D01*
X114889178Y-83568328D02*
X114603464Y-83073456D01*
X114746321Y-83320892D02*
X115612347Y-82820892D01*
X115441010Y-82809842D01*
X115310912Y-82774982D01*
X115222054Y-82716313D01*
G04 #@! TO.C,D30*
X110452380Y-83914285D02*
X109452380Y-83914285D01*
X109452380Y-83676190D01*
X109500000Y-83533333D01*
X109595238Y-83438095D01*
X109690476Y-83390476D01*
X109880952Y-83342857D01*
X110023809Y-83342857D01*
X110214285Y-83390476D01*
X110309523Y-83438095D01*
X110404761Y-83533333D01*
X110452380Y-83676190D01*
X110452380Y-83914285D01*
X109452380Y-83009523D02*
X109452380Y-82390476D01*
X109833333Y-82723809D01*
X109833333Y-82580952D01*
X109880952Y-82485714D01*
X109928571Y-82438095D01*
X110023809Y-82390476D01*
X110261904Y-82390476D01*
X110357142Y-82438095D01*
X110404761Y-82485714D01*
X110452380Y-82580952D01*
X110452380Y-82866666D01*
X110404761Y-82961904D01*
X110357142Y-83009523D01*
X109452380Y-81771428D02*
X109452380Y-81676190D01*
X109500000Y-81580952D01*
X109547619Y-81533333D01*
X109642857Y-81485714D01*
X109833333Y-81438095D01*
X110071428Y-81438095D01*
X110261904Y-81485714D01*
X110357142Y-81533333D01*
X110404761Y-81580952D01*
X110452380Y-81676190D01*
X110452380Y-81771428D01*
X110404761Y-81866666D01*
X110357142Y-81914285D01*
X110261904Y-81961904D01*
X110071428Y-82009523D01*
X109833333Y-82009523D01*
X109642857Y-81961904D01*
X109547619Y-81914285D01*
X109500000Y-81866666D01*
X109452380Y-81771428D01*
G04 #@! TO.C,D29*
X103651083Y-81423884D02*
X104517109Y-80923884D01*
X104636156Y-81130080D01*
X104666346Y-81277608D01*
X104631486Y-81407705D01*
X104572817Y-81496564D01*
X104431669Y-81633041D01*
X104307951Y-81704470D01*
X104119185Y-81758468D01*
X104012896Y-81764848D01*
X103882799Y-81729989D01*
X103770131Y-81630080D01*
X103651083Y-81423884D01*
X104910821Y-81796289D02*
X104975869Y-81813719D01*
X105064728Y-81872388D01*
X105183775Y-82078584D01*
X105190155Y-82184872D01*
X105172725Y-82249921D01*
X105114056Y-82338780D01*
X105031578Y-82386399D01*
X104884050Y-82416588D01*
X104103464Y-82207430D01*
X104412988Y-82743541D01*
X104651083Y-83155935D02*
X104746321Y-83320892D01*
X104835180Y-83379561D01*
X104900229Y-83396991D01*
X105071565Y-83408041D01*
X105260332Y-83354042D01*
X105590247Y-83163566D01*
X105648916Y-83074707D01*
X105666346Y-83009658D01*
X105659966Y-82903370D01*
X105564728Y-82738413D01*
X105475869Y-82679744D01*
X105410821Y-82662314D01*
X105304532Y-82668694D01*
X105098336Y-82787742D01*
X105039667Y-82876600D01*
X105022237Y-82941649D01*
X105028617Y-83047937D01*
X105123855Y-83212894D01*
X105212713Y-83271563D01*
X105277762Y-83288993D01*
X105384050Y-83282613D01*
G04 #@! TO.C,D28*
X100452380Y-83914285D02*
X99452380Y-83914285D01*
X99452380Y-83676190D01*
X99500000Y-83533333D01*
X99595238Y-83438095D01*
X99690476Y-83390476D01*
X99880952Y-83342857D01*
X100023809Y-83342857D01*
X100214285Y-83390476D01*
X100309523Y-83438095D01*
X100404761Y-83533333D01*
X100452380Y-83676190D01*
X100452380Y-83914285D01*
X99547619Y-82961904D02*
X99500000Y-82914285D01*
X99452380Y-82819047D01*
X99452380Y-82580952D01*
X99500000Y-82485714D01*
X99547619Y-82438095D01*
X99642857Y-82390476D01*
X99738095Y-82390476D01*
X99880952Y-82438095D01*
X100452380Y-83009523D01*
X100452380Y-82390476D01*
X99880952Y-81819047D02*
X99833333Y-81914285D01*
X99785714Y-81961904D01*
X99690476Y-82009523D01*
X99642857Y-82009523D01*
X99547619Y-81961904D01*
X99500000Y-81914285D01*
X99452380Y-81819047D01*
X99452380Y-81628571D01*
X99500000Y-81533333D01*
X99547619Y-81485714D01*
X99642857Y-81438095D01*
X99690476Y-81438095D01*
X99785714Y-81485714D01*
X99833333Y-81533333D01*
X99880952Y-81628571D01*
X99880952Y-81819047D01*
X99928571Y-81914285D01*
X99976190Y-81961904D01*
X100071428Y-82009523D01*
X100261904Y-82009523D01*
X100357142Y-81961904D01*
X100404761Y-81914285D01*
X100452380Y-81819047D01*
X100452380Y-81628571D01*
X100404761Y-81533333D01*
X100357142Y-81485714D01*
X100261904Y-81438095D01*
X100071428Y-81438095D01*
X99976190Y-81485714D01*
X99928571Y-81533333D01*
X99880952Y-81628571D01*
G04 #@! TO.C,D27*
X93651083Y-81423884D02*
X94517109Y-80923884D01*
X94636156Y-81130080D01*
X94666346Y-81277608D01*
X94631486Y-81407705D01*
X94572817Y-81496564D01*
X94431669Y-81633041D01*
X94307951Y-81704470D01*
X94119185Y-81758468D01*
X94012896Y-81764848D01*
X93882799Y-81729989D01*
X93770131Y-81630080D01*
X93651083Y-81423884D01*
X94910821Y-81796289D02*
X94975869Y-81813719D01*
X95064728Y-81872388D01*
X95183775Y-82078584D01*
X95190155Y-82184872D01*
X95172725Y-82249921D01*
X95114056Y-82338780D01*
X95031578Y-82386399D01*
X94884050Y-82416588D01*
X94103464Y-82207430D01*
X94412988Y-82743541D01*
X95445680Y-82532217D02*
X95779013Y-83109567D01*
X94698702Y-83238413D01*
G04 #@! TO.C,D26*
X90452380Y-83914285D02*
X89452380Y-83914285D01*
X89452380Y-83676190D01*
X89500000Y-83533333D01*
X89595238Y-83438095D01*
X89690476Y-83390476D01*
X89880952Y-83342857D01*
X90023809Y-83342857D01*
X90214285Y-83390476D01*
X90309523Y-83438095D01*
X90404761Y-83533333D01*
X90452380Y-83676190D01*
X90452380Y-83914285D01*
X89547619Y-82961904D02*
X89500000Y-82914285D01*
X89452380Y-82819047D01*
X89452380Y-82580952D01*
X89500000Y-82485714D01*
X89547619Y-82438095D01*
X89642857Y-82390476D01*
X89738095Y-82390476D01*
X89880952Y-82438095D01*
X90452380Y-83009523D01*
X90452380Y-82390476D01*
X89452380Y-81533333D02*
X89452380Y-81723809D01*
X89500000Y-81819047D01*
X89547619Y-81866666D01*
X89690476Y-81961904D01*
X89880952Y-82009523D01*
X90261904Y-82009523D01*
X90357142Y-81961904D01*
X90404761Y-81914285D01*
X90452380Y-81819047D01*
X90452380Y-81628571D01*
X90404761Y-81533333D01*
X90357142Y-81485714D01*
X90261904Y-81438095D01*
X90023809Y-81438095D01*
X89928571Y-81485714D01*
X89880952Y-81533333D01*
X89833333Y-81628571D01*
X89833333Y-81819047D01*
X89880952Y-81914285D01*
X89928571Y-81961904D01*
X90023809Y-82009523D01*
G04 #@! TO.C,D25*
X83651083Y-81423884D02*
X84517109Y-80923884D01*
X84636156Y-81130080D01*
X84666346Y-81277608D01*
X84631486Y-81407705D01*
X84572817Y-81496564D01*
X84431669Y-81633041D01*
X84307951Y-81704470D01*
X84119185Y-81758468D01*
X84012896Y-81764848D01*
X83882799Y-81729989D01*
X83770131Y-81630080D01*
X83651083Y-81423884D01*
X84910821Y-81796289D02*
X84975869Y-81813719D01*
X85064728Y-81872388D01*
X85183775Y-82078584D01*
X85190155Y-82184872D01*
X85172725Y-82249921D01*
X85114056Y-82338780D01*
X85031578Y-82386399D01*
X84884050Y-82416588D01*
X84103464Y-82207430D01*
X84412988Y-82743541D01*
X85731394Y-83027088D02*
X85493299Y-82614695D01*
X85057097Y-82811551D01*
X85122145Y-82828981D01*
X85211004Y-82887650D01*
X85330051Y-83093847D01*
X85336431Y-83200135D01*
X85319001Y-83265183D01*
X85260332Y-83354042D01*
X85054136Y-83473089D01*
X84947848Y-83479469D01*
X84882799Y-83462039D01*
X84793940Y-83403370D01*
X84674893Y-83197174D01*
X84668513Y-83090886D01*
X84685943Y-83025837D01*
G04 #@! TO.C,D24*
X80452380Y-83914285D02*
X79452380Y-83914285D01*
X79452380Y-83676190D01*
X79500000Y-83533333D01*
X79595238Y-83438095D01*
X79690476Y-83390476D01*
X79880952Y-83342857D01*
X80023809Y-83342857D01*
X80214285Y-83390476D01*
X80309523Y-83438095D01*
X80404761Y-83533333D01*
X80452380Y-83676190D01*
X80452380Y-83914285D01*
X79547619Y-82961904D02*
X79500000Y-82914285D01*
X79452380Y-82819047D01*
X79452380Y-82580952D01*
X79500000Y-82485714D01*
X79547619Y-82438095D01*
X79642857Y-82390476D01*
X79738095Y-82390476D01*
X79880952Y-82438095D01*
X80452380Y-83009523D01*
X80452380Y-82390476D01*
X79785714Y-81533333D02*
X80452380Y-81533333D01*
X79404761Y-81771428D02*
X80119047Y-82009523D01*
X80119047Y-81390476D01*
G04 #@! TO.C,D23*
X73651083Y-81423884D02*
X74517109Y-80923884D01*
X74636156Y-81130080D01*
X74666346Y-81277608D01*
X74631486Y-81407705D01*
X74572817Y-81496564D01*
X74431669Y-81633041D01*
X74307951Y-81704470D01*
X74119185Y-81758468D01*
X74012896Y-81764848D01*
X73882799Y-81729989D01*
X73770131Y-81630080D01*
X73651083Y-81423884D01*
X74910821Y-81796289D02*
X74975869Y-81813719D01*
X75064728Y-81872388D01*
X75183775Y-82078584D01*
X75190155Y-82184872D01*
X75172725Y-82249921D01*
X75114056Y-82338780D01*
X75031578Y-82386399D01*
X74884050Y-82416588D01*
X74103464Y-82207430D01*
X74412988Y-82743541D01*
X75445680Y-82532217D02*
X75755204Y-83068328D01*
X75258623Y-82970129D01*
X75330051Y-83093847D01*
X75336431Y-83200135D01*
X75319001Y-83265183D01*
X75260332Y-83354042D01*
X75054136Y-83473089D01*
X74947848Y-83479469D01*
X74882799Y-83462039D01*
X74793940Y-83403370D01*
X74651083Y-83155935D01*
X74644704Y-83049646D01*
X74662133Y-82984598D01*
G04 #@! TO.C,D22*
X70452380Y-83914285D02*
X69452380Y-83914285D01*
X69452380Y-83676190D01*
X69500000Y-83533333D01*
X69595238Y-83438095D01*
X69690476Y-83390476D01*
X69880952Y-83342857D01*
X70023809Y-83342857D01*
X70214285Y-83390476D01*
X70309523Y-83438095D01*
X70404761Y-83533333D01*
X70452380Y-83676190D01*
X70452380Y-83914285D01*
X69547619Y-82961904D02*
X69500000Y-82914285D01*
X69452380Y-82819047D01*
X69452380Y-82580952D01*
X69500000Y-82485714D01*
X69547619Y-82438095D01*
X69642857Y-82390476D01*
X69738095Y-82390476D01*
X69880952Y-82438095D01*
X70452380Y-83009523D01*
X70452380Y-82390476D01*
X69547619Y-82009523D02*
X69500000Y-81961904D01*
X69452380Y-81866666D01*
X69452380Y-81628571D01*
X69500000Y-81533333D01*
X69547619Y-81485714D01*
X69642857Y-81438095D01*
X69738095Y-81438095D01*
X69880952Y-81485714D01*
X70452380Y-82057142D01*
X70452380Y-81438095D01*
G04 #@! TO.C,D21*
X61922350Y-81062113D02*
X62629457Y-80355007D01*
X62797816Y-80523365D01*
X62865159Y-80658052D01*
X62865159Y-80792739D01*
X62831487Y-80893755D01*
X62730472Y-81062113D01*
X62629457Y-81163129D01*
X62461098Y-81264144D01*
X62360083Y-81297816D01*
X62225396Y-81297816D01*
X62090709Y-81230472D01*
X61922350Y-81062113D01*
X63235549Y-81095785D02*
X63302892Y-81095785D01*
X63403907Y-81129457D01*
X63572266Y-81297816D01*
X63605938Y-81398831D01*
X63605938Y-81466174D01*
X63572266Y-81567190D01*
X63504923Y-81634533D01*
X63370236Y-81701877D01*
X62562113Y-81701877D01*
X62999846Y-82139610D01*
X63673281Y-82813045D02*
X63269220Y-82408984D01*
X63471251Y-82611014D02*
X64178358Y-81903907D01*
X64009999Y-81937579D01*
X63875312Y-81937579D01*
X63774297Y-81903907D01*
G04 #@! TO.C,D16*
X140452380Y-66124285D02*
X139452380Y-66124285D01*
X139452380Y-65886190D01*
X139500000Y-65743333D01*
X139595238Y-65648095D01*
X139690476Y-65600476D01*
X139880952Y-65552857D01*
X140023809Y-65552857D01*
X140214285Y-65600476D01*
X140309523Y-65648095D01*
X140404761Y-65743333D01*
X140452380Y-65886190D01*
X140452380Y-66124285D01*
X140452380Y-64600476D02*
X140452380Y-65171904D01*
X140452380Y-64886190D02*
X139452380Y-64886190D01*
X139595238Y-64981428D01*
X139690476Y-65076666D01*
X139738095Y-65171904D01*
X139452380Y-63743333D02*
X139452380Y-63933809D01*
X139500000Y-64029047D01*
X139547619Y-64076666D01*
X139690476Y-64171904D01*
X139880952Y-64219523D01*
X140261904Y-64219523D01*
X140357142Y-64171904D01*
X140404761Y-64124285D01*
X140452380Y-64029047D01*
X140452380Y-63838571D01*
X140404761Y-63743333D01*
X140357142Y-63695714D01*
X140261904Y-63648095D01*
X140023809Y-63648095D01*
X139928571Y-63695714D01*
X139880952Y-63743333D01*
X139833333Y-63838571D01*
X139833333Y-64029047D01*
X139880952Y-64124285D01*
X139928571Y-64171904D01*
X140023809Y-64219523D01*
G04 #@! TO.C,D15*
X134579630Y-66377349D02*
X133713605Y-65877349D01*
X133832652Y-65671153D01*
X133945320Y-65571244D01*
X134075418Y-65536385D01*
X134181706Y-65542765D01*
X134370473Y-65596763D01*
X134494191Y-65668192D01*
X134635338Y-65804669D01*
X134694007Y-65893528D01*
X134728867Y-66023625D01*
X134698678Y-66171153D01*
X134579630Y-66377349D01*
X135341535Y-65057691D02*
X135055821Y-65552563D01*
X135198678Y-65305127D02*
X134332652Y-64805127D01*
X134408751Y-64959035D01*
X134443611Y-65089132D01*
X134437231Y-65195420D01*
X134927890Y-63774145D02*
X134689795Y-64186538D01*
X135078379Y-64465872D01*
X135060949Y-64400823D01*
X135067329Y-64294535D01*
X135186376Y-64088339D01*
X135275235Y-64029670D01*
X135340283Y-64012240D01*
X135446572Y-64018620D01*
X135652768Y-64137667D01*
X135711437Y-64226526D01*
X135728867Y-64291574D01*
X135722487Y-64397863D01*
X135603440Y-64604059D01*
X135514581Y-64662728D01*
X135449532Y-64680158D01*
G04 #@! TO.C,D14*
X130452380Y-66124285D02*
X129452380Y-66124285D01*
X129452380Y-65886190D01*
X129500000Y-65743333D01*
X129595238Y-65648095D01*
X129690476Y-65600476D01*
X129880952Y-65552857D01*
X130023809Y-65552857D01*
X130214285Y-65600476D01*
X130309523Y-65648095D01*
X130404761Y-65743333D01*
X130452380Y-65886190D01*
X130452380Y-66124285D01*
X130452380Y-64600476D02*
X130452380Y-65171904D01*
X130452380Y-64886190D02*
X129452380Y-64886190D01*
X129595238Y-64981428D01*
X129690476Y-65076666D01*
X129738095Y-65171904D01*
X129785714Y-63743333D02*
X130452380Y-63743333D01*
X129404761Y-63981428D02*
X130119047Y-64219523D01*
X130119047Y-63600476D01*
G04 #@! TO.C,D13*
X124579630Y-66377349D02*
X123713605Y-65877349D01*
X123832652Y-65671153D01*
X123945320Y-65571244D01*
X124075418Y-65536385D01*
X124181706Y-65542765D01*
X124370473Y-65596763D01*
X124494191Y-65668192D01*
X124635338Y-65804669D01*
X124694007Y-65893528D01*
X124728867Y-66023625D01*
X124698678Y-66171153D01*
X124579630Y-66377349D01*
X125341535Y-65057691D02*
X125055821Y-65552563D01*
X125198678Y-65305127D02*
X124332652Y-64805127D01*
X124408751Y-64959035D01*
X124443611Y-65089132D01*
X124437231Y-65195420D01*
X124642176Y-64269016D02*
X124951700Y-63732905D01*
X125114948Y-64212057D01*
X125186376Y-64088339D01*
X125275235Y-64029670D01*
X125340283Y-64012240D01*
X125446572Y-64018620D01*
X125652768Y-64137667D01*
X125711437Y-64226526D01*
X125728867Y-64291574D01*
X125722487Y-64397863D01*
X125579630Y-64645298D01*
X125490772Y-64703968D01*
X125425723Y-64721397D01*
G04 #@! TO.C,D12*
X120452380Y-66124285D02*
X119452380Y-66124285D01*
X119452380Y-65886190D01*
X119500000Y-65743333D01*
X119595238Y-65648095D01*
X119690476Y-65600476D01*
X119880952Y-65552857D01*
X120023809Y-65552857D01*
X120214285Y-65600476D01*
X120309523Y-65648095D01*
X120404761Y-65743333D01*
X120452380Y-65886190D01*
X120452380Y-66124285D01*
X120452380Y-64600476D02*
X120452380Y-65171904D01*
X120452380Y-64886190D02*
X119452380Y-64886190D01*
X119595238Y-64981428D01*
X119690476Y-65076666D01*
X119738095Y-65171904D01*
X119547619Y-64219523D02*
X119500000Y-64171904D01*
X119452380Y-64076666D01*
X119452380Y-63838571D01*
X119500000Y-63743333D01*
X119547619Y-63695714D01*
X119642857Y-63648095D01*
X119738095Y-63648095D01*
X119880952Y-63695714D01*
X120452380Y-64267142D01*
X120452380Y-63648095D01*
G04 #@! TO.C,D11*
X114579630Y-66377349D02*
X113713605Y-65877349D01*
X113832652Y-65671153D01*
X113945320Y-65571244D01*
X114075418Y-65536385D01*
X114181706Y-65542765D01*
X114370473Y-65596763D01*
X114494191Y-65668192D01*
X114635338Y-65804669D01*
X114694007Y-65893528D01*
X114728867Y-66023625D01*
X114698678Y-66171153D01*
X114579630Y-66377349D01*
X115341535Y-65057691D02*
X115055821Y-65552563D01*
X115198678Y-65305127D02*
X114332652Y-64805127D01*
X114408751Y-64959035D01*
X114443611Y-65089132D01*
X114437231Y-65195420D01*
X115817725Y-64232905D02*
X115532011Y-64727777D01*
X115674868Y-64480341D02*
X114808843Y-63980341D01*
X114884942Y-64134248D01*
X114919801Y-64264346D01*
X114913421Y-64370634D01*
G04 #@! TO.C,D10*
X110452380Y-66124285D02*
X109452380Y-66124285D01*
X109452380Y-65886190D01*
X109500000Y-65743333D01*
X109595238Y-65648095D01*
X109690476Y-65600476D01*
X109880952Y-65552857D01*
X110023809Y-65552857D01*
X110214285Y-65600476D01*
X110309523Y-65648095D01*
X110404761Y-65743333D01*
X110452380Y-65886190D01*
X110452380Y-66124285D01*
X110452380Y-64600476D02*
X110452380Y-65171904D01*
X110452380Y-64886190D02*
X109452380Y-64886190D01*
X109595238Y-64981428D01*
X109690476Y-65076666D01*
X109738095Y-65171904D01*
X109452380Y-63981428D02*
X109452380Y-63886190D01*
X109500000Y-63790952D01*
X109547619Y-63743333D01*
X109642857Y-63695714D01*
X109833333Y-63648095D01*
X110071428Y-63648095D01*
X110261904Y-63695714D01*
X110357142Y-63743333D01*
X110404761Y-63790952D01*
X110452380Y-63886190D01*
X110452380Y-63981428D01*
X110404761Y-64076666D01*
X110357142Y-64124285D01*
X110261904Y-64171904D01*
X110071428Y-64219523D01*
X109833333Y-64219523D01*
X109642857Y-64171904D01*
X109547619Y-64124285D01*
X109500000Y-64076666D01*
X109452380Y-63981428D01*
G04 #@! TO.C,D9*
X104817725Y-65964956D02*
X103951700Y-65464956D01*
X104070747Y-65258760D01*
X104183415Y-65158851D01*
X104313513Y-65123992D01*
X104419801Y-65130371D01*
X104608568Y-65184370D01*
X104732286Y-65255799D01*
X104873434Y-65392276D01*
X104932103Y-65481135D01*
X104966962Y-65611232D01*
X104936773Y-65758760D01*
X104817725Y-65964956D01*
X105341535Y-65057691D02*
X105436773Y-64892734D01*
X105443153Y-64786446D01*
X105425723Y-64721397D01*
X105349624Y-64567490D01*
X105208476Y-64431013D01*
X104878562Y-64240537D01*
X104772274Y-64234157D01*
X104707225Y-64251587D01*
X104618367Y-64310256D01*
X104523128Y-64475213D01*
X104516749Y-64581501D01*
X104534178Y-64646550D01*
X104592848Y-64735408D01*
X104799044Y-64854456D01*
X104905332Y-64860836D01*
X104970381Y-64843406D01*
X105059239Y-64784737D01*
X105154478Y-64619779D01*
X105160857Y-64513491D01*
X105143427Y-64448443D01*
X105084758Y-64359584D01*
G04 #@! TO.C,D8*
X100452380Y-65648095D02*
X99452380Y-65648095D01*
X99452380Y-65410000D01*
X99500000Y-65267142D01*
X99595238Y-65171904D01*
X99690476Y-65124285D01*
X99880952Y-65076666D01*
X100023809Y-65076666D01*
X100214285Y-65124285D01*
X100309523Y-65171904D01*
X100404761Y-65267142D01*
X100452380Y-65410000D01*
X100452380Y-65648095D01*
X99880952Y-64505238D02*
X99833333Y-64600476D01*
X99785714Y-64648095D01*
X99690476Y-64695714D01*
X99642857Y-64695714D01*
X99547619Y-64648095D01*
X99500000Y-64600476D01*
X99452380Y-64505238D01*
X99452380Y-64314761D01*
X99500000Y-64219523D01*
X99547619Y-64171904D01*
X99642857Y-64124285D01*
X99690476Y-64124285D01*
X99785714Y-64171904D01*
X99833333Y-64219523D01*
X99880952Y-64314761D01*
X99880952Y-64505238D01*
X99928571Y-64600476D01*
X99976190Y-64648095D01*
X100071428Y-64695714D01*
X100261904Y-64695714D01*
X100357142Y-64648095D01*
X100404761Y-64600476D01*
X100452380Y-64505238D01*
X100452380Y-64314761D01*
X100404761Y-64219523D01*
X100357142Y-64171904D01*
X100261904Y-64124285D01*
X100071428Y-64124285D01*
X99976190Y-64171904D01*
X99928571Y-64219523D01*
X99880952Y-64314761D01*
G04 #@! TO.C,D7*
X94817725Y-65964956D02*
X93951700Y-65464956D01*
X94070747Y-65258760D01*
X94183415Y-65158851D01*
X94313513Y-65123992D01*
X94419801Y-65130371D01*
X94608568Y-65184370D01*
X94732286Y-65255799D01*
X94873434Y-65392276D01*
X94932103Y-65481135D01*
X94966962Y-65611232D01*
X94936773Y-65758760D01*
X94817725Y-65964956D01*
X94404081Y-64681409D02*
X94737414Y-64104059D01*
X95389154Y-64975213D01*
G04 #@! TO.C,D6*
X90452380Y-65648095D02*
X89452380Y-65648095D01*
X89452380Y-65410000D01*
X89500000Y-65267142D01*
X89595238Y-65171904D01*
X89690476Y-65124285D01*
X89880952Y-65076666D01*
X90023809Y-65076666D01*
X90214285Y-65124285D01*
X90309523Y-65171904D01*
X90404761Y-65267142D01*
X90452380Y-65410000D01*
X90452380Y-65648095D01*
X89452380Y-64219523D02*
X89452380Y-64410000D01*
X89500000Y-64505238D01*
X89547619Y-64552857D01*
X89690476Y-64648095D01*
X89880952Y-64695714D01*
X90261904Y-64695714D01*
X90357142Y-64648095D01*
X90404761Y-64600476D01*
X90452380Y-64505238D01*
X90452380Y-64314761D01*
X90404761Y-64219523D01*
X90357142Y-64171904D01*
X90261904Y-64124285D01*
X90023809Y-64124285D01*
X89928571Y-64171904D01*
X89880952Y-64219523D01*
X89833333Y-64314761D01*
X89833333Y-64505238D01*
X89880952Y-64600476D01*
X89928571Y-64648095D01*
X90023809Y-64695714D01*
G04 #@! TO.C,D5*
X84817725Y-65964956D02*
X83951700Y-65464956D01*
X84070747Y-65258760D01*
X84183415Y-65158851D01*
X84313513Y-65123992D01*
X84419801Y-65130371D01*
X84608568Y-65184370D01*
X84732286Y-65255799D01*
X84873434Y-65392276D01*
X84932103Y-65481135D01*
X84966962Y-65611232D01*
X84936773Y-65758760D01*
X84817725Y-65964956D01*
X84689795Y-64186538D02*
X84451700Y-64598931D01*
X84840283Y-64878265D01*
X84822854Y-64813217D01*
X84829233Y-64706928D01*
X84948281Y-64500732D01*
X85037139Y-64442063D01*
X85102188Y-64424633D01*
X85208476Y-64431013D01*
X85414673Y-64550060D01*
X85473342Y-64638919D01*
X85490772Y-64703968D01*
X85484392Y-64810256D01*
X85365344Y-65016452D01*
X85276486Y-65075121D01*
X85211437Y-65092551D01*
G04 #@! TO.C,D4*
X80452380Y-65648095D02*
X79452380Y-65648095D01*
X79452380Y-65410000D01*
X79500000Y-65267142D01*
X79595238Y-65171904D01*
X79690476Y-65124285D01*
X79880952Y-65076666D01*
X80023809Y-65076666D01*
X80214285Y-65124285D01*
X80309523Y-65171904D01*
X80404761Y-65267142D01*
X80452380Y-65410000D01*
X80452380Y-65648095D01*
X79785714Y-64219523D02*
X80452380Y-64219523D01*
X79404761Y-64457619D02*
X80119047Y-64695714D01*
X80119047Y-64076666D01*
G04 #@! TO.C,D3*
X74817725Y-65964956D02*
X73951700Y-65464956D01*
X74070747Y-65258760D01*
X74183415Y-65158851D01*
X74313513Y-65123992D01*
X74419801Y-65130371D01*
X74608568Y-65184370D01*
X74732286Y-65255799D01*
X74873434Y-65392276D01*
X74932103Y-65481135D01*
X74966962Y-65611232D01*
X74936773Y-65758760D01*
X74817725Y-65964956D01*
X74404081Y-64681409D02*
X74713605Y-64145298D01*
X74876852Y-64624450D01*
X74948281Y-64500732D01*
X75037139Y-64442063D01*
X75102188Y-64424633D01*
X75208476Y-64431013D01*
X75414673Y-64550060D01*
X75473342Y-64638919D01*
X75490772Y-64703968D01*
X75484392Y-64810256D01*
X75341535Y-65057691D01*
X75252676Y-65116361D01*
X75187628Y-65133790D01*
G04 #@! TO.C,D2*
X70452380Y-65678095D02*
X69452380Y-65678095D01*
X69452380Y-65440000D01*
X69500000Y-65297142D01*
X69595238Y-65201904D01*
X69690476Y-65154285D01*
X69880952Y-65106666D01*
X70023809Y-65106666D01*
X70214285Y-65154285D01*
X70309523Y-65201904D01*
X70404761Y-65297142D01*
X70452380Y-65440000D01*
X70452380Y-65678095D01*
X69547619Y-64725714D02*
X69500000Y-64678095D01*
X69452380Y-64582857D01*
X69452380Y-64344761D01*
X69500000Y-64249523D01*
X69547619Y-64201904D01*
X69642857Y-64154285D01*
X69738095Y-64154285D01*
X69880952Y-64201904D01*
X70452380Y-64773333D01*
X70452380Y-64154285D01*
G04 #@! TO.C,D1*
X63103892Y-66035870D02*
X62396785Y-65328764D01*
X62565144Y-65160405D01*
X62699831Y-65093061D01*
X62834518Y-65093061D01*
X62935533Y-65126733D01*
X63103892Y-65227748D01*
X63204907Y-65328764D01*
X63305923Y-65497122D01*
X63339594Y-65598138D01*
X63339594Y-65732825D01*
X63272251Y-65867512D01*
X63103892Y-66035870D01*
X64181388Y-64958374D02*
X63777327Y-65362435D01*
X63979358Y-65160405D02*
X63272251Y-64453298D01*
X63305923Y-64621657D01*
X63305923Y-64756344D01*
X63272251Y-64857359D01*
G04 #@! TD*
M02*
