M48
; DRILL file {KiCad 5.1.4-e60b266~84~ubuntu16.04.1} date Wed 09 Oct 2019 12:34:27 AM CDT
; FORMAT={-:-/ absolute / metric / decimal}
; #@! TF.CreationDate,2019-10-09T00:34:27-05:00
; #@! TF.GenerationSoftware,Kicad,Pcbnew,5.1.4-e60b266~84~ubuntu16.04.1
; #@! TF.FileFunction,Plated,1,2,PTH
FMAT,2
METRIC
T1C0.800
T2C1.000
T3C1.100
%
G90
G05
T1
X65.944Y-75.04
X61.88Y-75.04
X139.24Y-71.04
X61.219Y-89.849
X61.931Y-56.448
X133.24Y-71.04
X139.24Y-53.04
X139.24Y-93.04
T2
X129.49Y-89.54
X139.49Y-89.54
X120.24Y-71.29
X130.24Y-71.29
X105.74Y-53.04
X115.74Y-53.04
X99.49Y-75.04
X109.49Y-75.04
X65.596Y-56.752
X75.596Y-56.752
X129.49Y-75.04
X139.49Y-75.04
X114.24Y-75.04
X124.24Y-75.04
X68.72Y-75.04
X78.72Y-75.04
X129.49Y-56.79
X139.49Y-56.79
X61.74Y-71.29
X71.74Y-71.29
X97.219Y-56.752
X107.219Y-56.752
X95.74Y-89.54
X105.74Y-89.54
X121.49Y-53.04
X131.49Y-53.04
X90.056Y-71.332
X100.056Y-71.332
X113.518Y-56.727
X123.518Y-56.727
X121.24Y-93.29
X131.24Y-93.29
X104.74Y-93.29
X114.74Y-93.29
X61.74Y-53.04
X71.74Y-53.04
X88.74Y-93.29
X98.74Y-93.29
X75.24Y-71.29
X85.24Y-71.29
X60.99Y-93.29
X70.99Y-93.29
X80.49Y-89.54
X90.49Y-89.54
X82.99Y-75.04
X92.99Y-75.04
X105.74Y-71.332
X115.74Y-71.332
X65.494Y-89.518
X75.494Y-89.518
X113.24Y-89.54
X123.24Y-89.54
X90.49Y-53.04
X100.49Y-53.04
X75.74Y-53.04
X85.74Y-53.04
X74.74Y-93.29
X84.74Y-93.29
X81.006Y-56.752
X91.006Y-56.752
T3
X61.956Y-78.452
X61.956Y-86.072
X131.044Y-60.156
X131.044Y-67.776
X74.148Y-60.156
X74.148Y-67.776
X66.02Y-60.156
X66.02Y-67.776
X102.596Y-60.156
X102.596Y-67.776
X118.852Y-60.156
X118.852Y-67.776
X78.212Y-78.452
X78.212Y-86.072
X122.916Y-78.452
X122.916Y-86.072
X82.276Y-78.452
X82.276Y-86.072
X94.468Y-60.156
X94.468Y-67.776
X90.404Y-60.156
X90.404Y-67.776
X131.044Y-78.452
X131.044Y-86.072
X114.788Y-78.452
X114.788Y-86.072
X102.596Y-78.452
X102.596Y-86.072
X86.34Y-78.452
X86.34Y-86.072
X106.66Y-60.156
X106.66Y-67.776
X78.212Y-60.156
X78.212Y-67.776
X70.084Y-60.156
X70.084Y-67.776
X61.956Y-60.156
X61.956Y-67.776
X106.66Y-78.452
X106.66Y-86.072
X94.468Y-78.452
X94.468Y-86.072
X135.108Y-78.452
X135.108Y-86.072
X135.108Y-60.156
X135.108Y-67.776
X126.98Y-60.156
X126.98Y-67.776
X126.98Y-78.452
X126.98Y-86.072
X118.852Y-78.452
X118.852Y-86.072
X110.724Y-78.452
X110.724Y-86.072
X74.148Y-78.452
X74.148Y-86.072
X82.276Y-60.156
X82.276Y-67.776
X139.172Y-60.156
X139.172Y-67.776
X139.172Y-78.452
X139.172Y-86.072
X98.532Y-78.452
X98.532Y-86.072
X90.404Y-78.452
X90.404Y-86.072
X110.724Y-60.156
X110.724Y-67.776
X98.532Y-60.156
X98.532Y-67.776
X86.34Y-60.156
X86.34Y-67.776
X66.02Y-78.452
X66.02Y-86.072
X122.916Y-60.156
X122.916Y-67.776
X70.084Y-78.452
X70.084Y-86.072
X114.788Y-60.156
X114.788Y-67.776
T0
M30
