G04 #@! TF.GenerationSoftware,KiCad,Pcbnew,5.0.2+dfsg1-1~bpo9+1*
G04 #@! TF.CreationDate,2020-03-02T01:02:18-06:00*
G04 #@! TF.ProjectId,bare4,62617265-342e-46b6-9963-61645f706362,1.0*
G04 #@! TF.SameCoordinates,Original*
G04 #@! TF.FileFunction,Copper,L2,Bot*
G04 #@! TF.FilePolarity,Positive*
%FSLAX46Y46*%
G04 Gerber Fmt 4.6, Leading zero omitted, Abs format (unit mm)*
G04 Created by KiCad (PCBNEW 5.0.2+dfsg1-1~bpo9+1) date Mon 02 Mar 2020 01:02:18 AM CST*
%MOMM*%
%LPD*%
G01*
G04 APERTURE LIST*
G04 #@! TA.AperFunction,ComponentPad*
%ADD10R,1.700000X1.700000*%
G04 #@! TD*
G04 #@! TA.AperFunction,ComponentPad*
%ADD11O,1.700000X1.700000*%
G04 #@! TD*
G04 #@! TA.AperFunction,ViaPad*
%ADD12C,0.800000*%
G04 #@! TD*
G04 #@! TA.AperFunction,Conductor*
%ADD13C,0.127000*%
G04 #@! TD*
G04 APERTURE END LIST*
D10*
G04 #@! TO.P,J1,1*
G04 #@! TO.N,GND*
X147220000Y-146891000D03*
D11*
G04 #@! TO.P,J1,2*
G04 #@! TO.N,3V3*
X147220000Y-144351000D03*
G04 #@! TO.P,J1,3*
G04 #@! TO.N,EN*
X147220000Y-141811000D03*
G04 #@! TO.P,J1,4*
G04 #@! TO.N,SENSOR_VP*
X147220000Y-139271000D03*
G04 #@! TO.P,J1,5*
G04 #@! TO.N,SENSOR_VN*
X147220000Y-136731000D03*
G04 #@! TO.P,J1,6*
G04 #@! TO.N,IO34*
X147220000Y-134191000D03*
G04 #@! TO.P,J1,7*
G04 #@! TO.N,IO35*
X147220000Y-131651000D03*
G04 #@! TO.P,J1,8*
G04 #@! TO.N,IO32*
X147220000Y-129111000D03*
G04 #@! TO.P,J1,9*
G04 #@! TO.N,IO33*
X147220000Y-126571000D03*
G04 #@! TO.P,J1,10*
G04 #@! TO.N,IO25*
X147220000Y-124031000D03*
G04 #@! TO.P,J1,11*
G04 #@! TO.N,IO26*
X147220000Y-121491000D03*
G04 #@! TO.P,J1,12*
G04 #@! TO.N,IO27*
X147220000Y-118951000D03*
G04 #@! TO.P,J1,13*
G04 #@! TO.N,IO14*
X147220000Y-116411000D03*
G04 #@! TO.P,J1,14*
G04 #@! TO.N,IO12*
X147220000Y-113871000D03*
G04 #@! TO.P,J1,15*
G04 #@! TO.N,IO13*
X147220000Y-111331000D03*
G04 #@! TO.P,J1,16*
G04 #@! TO.N,SD2*
X147220000Y-108791000D03*
G04 #@! TO.P,J1,17*
G04 #@! TO.N,SD3*
X147220000Y-106251000D03*
G04 #@! TO.P,J1,18*
G04 #@! TO.N,CMD*
X147220000Y-103711000D03*
G04 #@! TD*
D10*
G04 #@! TO.P,J2,1*
G04 #@! TO.N,GND*
X109120000Y-146891000D03*
D11*
G04 #@! TO.P,J2,2*
G04 #@! TO.N,IO23*
X109120000Y-144351000D03*
G04 #@! TO.P,J2,3*
G04 #@! TO.N,IO22*
X109120000Y-141811000D03*
G04 #@! TO.P,J2,4*
G04 #@! TO.N,TXD0*
X109120000Y-139271000D03*
G04 #@! TO.P,J2,5*
G04 #@! TO.N,RXD0*
X109120000Y-136731000D03*
G04 #@! TO.P,J2,6*
G04 #@! TO.N,IO21*
X109120000Y-134191000D03*
G04 #@! TO.P,J2,7*
G04 #@! TO.N,IO19*
X109120000Y-131651000D03*
G04 #@! TO.P,J2,8*
G04 #@! TO.N,IO18*
X109120000Y-129111000D03*
G04 #@! TO.P,J2,9*
G04 #@! TO.N,IO5*
X109120000Y-126571000D03*
G04 #@! TO.P,J2,10*
G04 #@! TO.N,IO17*
X109120000Y-124031000D03*
G04 #@! TO.P,J2,11*
G04 #@! TO.N,IO16*
X109120000Y-121491000D03*
G04 #@! TO.P,J2,12*
G04 #@! TO.N,IO4*
X109120000Y-118951000D03*
G04 #@! TO.P,J2,13*
G04 #@! TO.N,IO0*
X109120000Y-116411000D03*
G04 #@! TO.P,J2,14*
G04 #@! TO.N,IO2*
X109120000Y-113871000D03*
G04 #@! TO.P,J2,15*
G04 #@! TO.N,IO15*
X109120000Y-111331000D03*
G04 #@! TO.P,J2,16*
G04 #@! TO.N,SD1*
X109120000Y-108791000D03*
G04 #@! TO.P,J2,17*
G04 #@! TO.N,SD0*
X109120000Y-106251000D03*
G04 #@! TO.P,J2,18*
G04 #@! TO.N,CLK*
X109120000Y-103711000D03*
G04 #@! TD*
G04 #@! TO.P,J2,18*
G04 #@! TO.N,CLK*
X52820000Y-103711000D03*
G04 #@! TO.P,J2,17*
G04 #@! TO.N,SD0*
X52820000Y-106251000D03*
G04 #@! TO.P,J2,16*
G04 #@! TO.N,SD1*
X52820000Y-108791000D03*
G04 #@! TO.P,J2,15*
G04 #@! TO.N,IO15*
X52820000Y-111331000D03*
G04 #@! TO.P,J2,14*
G04 #@! TO.N,IO2*
X52820000Y-113871000D03*
G04 #@! TO.P,J2,13*
G04 #@! TO.N,IO0*
X52820000Y-116411000D03*
G04 #@! TO.P,J2,12*
G04 #@! TO.N,IO4*
X52820000Y-118951000D03*
G04 #@! TO.P,J2,11*
G04 #@! TO.N,IO16*
X52820000Y-121491000D03*
G04 #@! TO.P,J2,10*
G04 #@! TO.N,IO17*
X52820000Y-124031000D03*
G04 #@! TO.P,J2,9*
G04 #@! TO.N,IO5*
X52820000Y-126571000D03*
G04 #@! TO.P,J2,8*
G04 #@! TO.N,IO18*
X52820000Y-129111000D03*
G04 #@! TO.P,J2,7*
G04 #@! TO.N,IO19*
X52820000Y-131651000D03*
G04 #@! TO.P,J2,6*
G04 #@! TO.N,IO21*
X52820000Y-134191000D03*
G04 #@! TO.P,J2,5*
G04 #@! TO.N,RXD0*
X52820000Y-136731000D03*
G04 #@! TO.P,J2,4*
G04 #@! TO.N,TXD0*
X52820000Y-139271000D03*
G04 #@! TO.P,J2,3*
G04 #@! TO.N,IO22*
X52820000Y-141811000D03*
G04 #@! TO.P,J2,2*
G04 #@! TO.N,IO23*
X52820000Y-144351000D03*
D10*
G04 #@! TO.P,J2,1*
G04 #@! TO.N,GND*
X52820000Y-146891000D03*
G04 #@! TD*
D11*
G04 #@! TO.P,J1,18*
G04 #@! TO.N,CMD*
X90920000Y-103711000D03*
G04 #@! TO.P,J1,17*
G04 #@! TO.N,SD3*
X90920000Y-106251000D03*
G04 #@! TO.P,J1,16*
G04 #@! TO.N,SD2*
X90920000Y-108791000D03*
G04 #@! TO.P,J1,15*
G04 #@! TO.N,IO13*
X90920000Y-111331000D03*
G04 #@! TO.P,J1,14*
G04 #@! TO.N,IO12*
X90920000Y-113871000D03*
G04 #@! TO.P,J1,13*
G04 #@! TO.N,IO14*
X90920000Y-116411000D03*
G04 #@! TO.P,J1,12*
G04 #@! TO.N,IO27*
X90920000Y-118951000D03*
G04 #@! TO.P,J1,11*
G04 #@! TO.N,IO26*
X90920000Y-121491000D03*
G04 #@! TO.P,J1,10*
G04 #@! TO.N,IO25*
X90920000Y-124031000D03*
G04 #@! TO.P,J1,9*
G04 #@! TO.N,IO33*
X90920000Y-126571000D03*
G04 #@! TO.P,J1,8*
G04 #@! TO.N,IO32*
X90920000Y-129111000D03*
G04 #@! TO.P,J1,7*
G04 #@! TO.N,IO35*
X90920000Y-131651000D03*
G04 #@! TO.P,J1,6*
G04 #@! TO.N,IO34*
X90920000Y-134191000D03*
G04 #@! TO.P,J1,5*
G04 #@! TO.N,SENSOR_VN*
X90920000Y-136731000D03*
G04 #@! TO.P,J1,4*
G04 #@! TO.N,SENSOR_VP*
X90920000Y-139271000D03*
G04 #@! TO.P,J1,3*
G04 #@! TO.N,EN*
X90920000Y-141811000D03*
G04 #@! TO.P,J1,2*
G04 #@! TO.N,3V3*
X90920000Y-144351000D03*
D10*
G04 #@! TO.P,J1,1*
G04 #@! TO.N,GND*
X90920000Y-146891000D03*
G04 #@! TD*
G04 #@! TO.P,J2,1*
G04 #@! TO.N,GND*
X90880000Y-53109000D03*
D11*
G04 #@! TO.P,J2,2*
G04 #@! TO.N,IO23*
X90880000Y-55649000D03*
G04 #@! TO.P,J2,3*
G04 #@! TO.N,IO22*
X90880000Y-58189000D03*
G04 #@! TO.P,J2,4*
G04 #@! TO.N,TXD0*
X90880000Y-60729000D03*
G04 #@! TO.P,J2,5*
G04 #@! TO.N,RXD0*
X90880000Y-63269000D03*
G04 #@! TO.P,J2,6*
G04 #@! TO.N,IO21*
X90880000Y-65809000D03*
G04 #@! TO.P,J2,7*
G04 #@! TO.N,IO19*
X90880000Y-68349000D03*
G04 #@! TO.P,J2,8*
G04 #@! TO.N,IO18*
X90880000Y-70889000D03*
G04 #@! TO.P,J2,9*
G04 #@! TO.N,IO5*
X90880000Y-73429000D03*
G04 #@! TO.P,J2,10*
G04 #@! TO.N,IO17*
X90880000Y-75969000D03*
G04 #@! TO.P,J2,11*
G04 #@! TO.N,IO16*
X90880000Y-78509000D03*
G04 #@! TO.P,J2,12*
G04 #@! TO.N,IO4*
X90880000Y-81049000D03*
G04 #@! TO.P,J2,13*
G04 #@! TO.N,IO0*
X90880000Y-83589000D03*
G04 #@! TO.P,J2,14*
G04 #@! TO.N,IO2*
X90880000Y-86129000D03*
G04 #@! TO.P,J2,15*
G04 #@! TO.N,IO15*
X90880000Y-88669000D03*
G04 #@! TO.P,J2,16*
G04 #@! TO.N,SD1*
X90880000Y-91209000D03*
G04 #@! TO.P,J2,17*
G04 #@! TO.N,SD0*
X90880000Y-93749000D03*
G04 #@! TO.P,J2,18*
G04 #@! TO.N,CLK*
X90880000Y-96289000D03*
G04 #@! TD*
D10*
G04 #@! TO.P,J1,1*
G04 #@! TO.N,GND*
X52780000Y-53109000D03*
D11*
G04 #@! TO.P,J1,2*
G04 #@! TO.N,3V3*
X52780000Y-55649000D03*
G04 #@! TO.P,J1,3*
G04 #@! TO.N,EN*
X52780000Y-58189000D03*
G04 #@! TO.P,J1,4*
G04 #@! TO.N,SENSOR_VP*
X52780000Y-60729000D03*
G04 #@! TO.P,J1,5*
G04 #@! TO.N,SENSOR_VN*
X52780000Y-63269000D03*
G04 #@! TO.P,J1,6*
G04 #@! TO.N,IO34*
X52780000Y-65809000D03*
G04 #@! TO.P,J1,7*
G04 #@! TO.N,IO35*
X52780000Y-68349000D03*
G04 #@! TO.P,J1,8*
G04 #@! TO.N,IO32*
X52780000Y-70889000D03*
G04 #@! TO.P,J1,9*
G04 #@! TO.N,IO33*
X52780000Y-73429000D03*
G04 #@! TO.P,J1,10*
G04 #@! TO.N,IO25*
X52780000Y-75969000D03*
G04 #@! TO.P,J1,11*
G04 #@! TO.N,IO26*
X52780000Y-78509000D03*
G04 #@! TO.P,J1,12*
G04 #@! TO.N,IO27*
X52780000Y-81049000D03*
G04 #@! TO.P,J1,13*
G04 #@! TO.N,IO14*
X52780000Y-83589000D03*
G04 #@! TO.P,J1,14*
G04 #@! TO.N,IO12*
X52780000Y-86129000D03*
G04 #@! TO.P,J1,15*
G04 #@! TO.N,IO13*
X52780000Y-88669000D03*
G04 #@! TO.P,J1,16*
G04 #@! TO.N,SD2*
X52780000Y-91209000D03*
G04 #@! TO.P,J1,17*
G04 #@! TO.N,SD3*
X52780000Y-93749000D03*
G04 #@! TO.P,J1,18*
G04 #@! TO.N,CMD*
X52780000Y-96289000D03*
G04 #@! TD*
G04 #@! TO.P,J1,18*
G04 #@! TO.N,CMD*
X109180000Y-96289000D03*
G04 #@! TO.P,J1,17*
G04 #@! TO.N,SD3*
X109180000Y-93749000D03*
G04 #@! TO.P,J1,16*
G04 #@! TO.N,SD2*
X109180000Y-91209000D03*
G04 #@! TO.P,J1,15*
G04 #@! TO.N,IO13*
X109180000Y-88669000D03*
G04 #@! TO.P,J1,14*
G04 #@! TO.N,IO12*
X109180000Y-86129000D03*
G04 #@! TO.P,J1,13*
G04 #@! TO.N,IO14*
X109180000Y-83589000D03*
G04 #@! TO.P,J1,12*
G04 #@! TO.N,IO27*
X109180000Y-81049000D03*
G04 #@! TO.P,J1,11*
G04 #@! TO.N,IO26*
X109180000Y-78509000D03*
G04 #@! TO.P,J1,10*
G04 #@! TO.N,IO25*
X109180000Y-75969000D03*
G04 #@! TO.P,J1,9*
G04 #@! TO.N,IO33*
X109180000Y-73429000D03*
G04 #@! TO.P,J1,8*
G04 #@! TO.N,IO32*
X109180000Y-70889000D03*
G04 #@! TO.P,J1,7*
G04 #@! TO.N,IO35*
X109180000Y-68349000D03*
G04 #@! TO.P,J1,6*
G04 #@! TO.N,IO34*
X109180000Y-65809000D03*
G04 #@! TO.P,J1,5*
G04 #@! TO.N,SENSOR_VN*
X109180000Y-63269000D03*
G04 #@! TO.P,J1,4*
G04 #@! TO.N,SENSOR_VP*
X109180000Y-60729000D03*
G04 #@! TO.P,J1,3*
G04 #@! TO.N,EN*
X109180000Y-58189000D03*
G04 #@! TO.P,J1,2*
G04 #@! TO.N,3V3*
X109180000Y-55649000D03*
D10*
G04 #@! TO.P,J1,1*
G04 #@! TO.N,GND*
X109180000Y-53109000D03*
G04 #@! TD*
D11*
G04 #@! TO.P,J2,18*
G04 #@! TO.N,CLK*
X147280000Y-96289000D03*
G04 #@! TO.P,J2,17*
G04 #@! TO.N,SD0*
X147280000Y-93749000D03*
G04 #@! TO.P,J2,16*
G04 #@! TO.N,SD1*
X147280000Y-91209000D03*
G04 #@! TO.P,J2,15*
G04 #@! TO.N,IO15*
X147280000Y-88669000D03*
G04 #@! TO.P,J2,14*
G04 #@! TO.N,IO2*
X147280000Y-86129000D03*
G04 #@! TO.P,J2,13*
G04 #@! TO.N,IO0*
X147280000Y-83589000D03*
G04 #@! TO.P,J2,12*
G04 #@! TO.N,IO4*
X147280000Y-81049000D03*
G04 #@! TO.P,J2,11*
G04 #@! TO.N,IO16*
X147280000Y-78509000D03*
G04 #@! TO.P,J2,10*
G04 #@! TO.N,IO17*
X147280000Y-75969000D03*
G04 #@! TO.P,J2,9*
G04 #@! TO.N,IO5*
X147280000Y-73429000D03*
G04 #@! TO.P,J2,8*
G04 #@! TO.N,IO18*
X147280000Y-70889000D03*
G04 #@! TO.P,J2,7*
G04 #@! TO.N,IO19*
X147280000Y-68349000D03*
G04 #@! TO.P,J2,6*
G04 #@! TO.N,IO21*
X147280000Y-65809000D03*
G04 #@! TO.P,J2,5*
G04 #@! TO.N,RXD0*
X147280000Y-63269000D03*
G04 #@! TO.P,J2,4*
G04 #@! TO.N,TXD0*
X147280000Y-60729000D03*
G04 #@! TO.P,J2,3*
G04 #@! TO.N,IO22*
X147280000Y-58189000D03*
G04 #@! TO.P,J2,2*
G04 #@! TO.N,IO23*
X147280000Y-55649000D03*
D10*
G04 #@! TO.P,J2,1*
G04 #@! TO.N,GND*
X147280000Y-53109000D03*
G04 #@! TD*
D12*
G04 #@! TO.N,GND*
X122007000Y-64412000D03*
X134961000Y-64412000D03*
X65607000Y-64412000D03*
X78561000Y-64412000D03*
X65139000Y-135588000D03*
X78093000Y-135588000D03*
X121439000Y-135588000D03*
X134393000Y-135588000D03*
G04 #@! TO.N,3V3*
X122007000Y-65682000D03*
X65607000Y-65682000D03*
X78093000Y-134318000D03*
X134393000Y-134318000D03*
G04 #@! TO.N,EN*
X122007000Y-66952000D03*
X65607000Y-66952000D03*
X78093000Y-133048000D03*
X134393000Y-133048000D03*
G04 #@! TO.N,SENSOR_VP*
X122007000Y-68222000D03*
X65607000Y-68222000D03*
X78093000Y-131778000D03*
X134393000Y-131778000D03*
G04 #@! TO.N,SENSOR_VN*
X122007000Y-69492000D03*
X65607000Y-69492000D03*
X78093000Y-130508000D03*
X134393000Y-130508000D03*
G04 #@! TO.N,IO34*
X122007000Y-70762000D03*
X65607000Y-70762000D03*
X78093000Y-129238000D03*
X134393000Y-129238000D03*
G04 #@! TO.N,IO35*
X122007000Y-72032000D03*
X65607000Y-72032000D03*
X78093000Y-127968000D03*
X134393000Y-127968000D03*
G04 #@! TO.N,IO32*
X122007000Y-73302000D03*
X65607000Y-73302000D03*
X78093000Y-126698000D03*
X134393000Y-126698000D03*
G04 #@! TO.N,IO33*
X122007000Y-74572000D03*
X65607000Y-74572000D03*
X78093000Y-125428000D03*
X134393000Y-125428000D03*
G04 #@! TO.N,IO25*
X122007000Y-75842000D03*
X65607000Y-75842000D03*
X78093000Y-124158000D03*
X134393000Y-124158000D03*
G04 #@! TO.N,IO26*
X122007000Y-77112000D03*
X65607000Y-77112000D03*
X78093000Y-122888000D03*
X134393000Y-122888000D03*
G04 #@! TO.N,IO27*
X122007000Y-78382000D03*
X65607000Y-78382000D03*
X78093000Y-121618000D03*
X134393000Y-121618000D03*
G04 #@! TO.N,IO14*
X122007000Y-79652000D03*
X65607000Y-79652000D03*
X78093000Y-120348000D03*
X134393000Y-120348000D03*
G04 #@! TO.N,IO12*
X119848000Y-82319000D03*
X63448000Y-82319000D03*
X80252000Y-117681000D03*
X136552000Y-117681000D03*
G04 #@! TO.N,IO13*
X123912000Y-80033000D03*
X67512000Y-80033000D03*
X76188000Y-119967000D03*
X132488000Y-119967000D03*
G04 #@! TO.N,SD2*
X125182000Y-80033000D03*
X68782000Y-80033000D03*
X74918000Y-119967000D03*
X131218000Y-119967000D03*
G04 #@! TO.N,SD3*
X126452000Y-80033000D03*
X70052000Y-80033000D03*
X73648000Y-119967000D03*
X129948000Y-119967000D03*
G04 #@! TO.N,CMD*
X127722000Y-80033000D03*
X71322000Y-80033000D03*
X72378000Y-119967000D03*
X128678000Y-119967000D03*
G04 #@! TO.N,CLK*
X128992000Y-80033000D03*
X72592000Y-80033000D03*
X71108000Y-119967000D03*
X127408000Y-119967000D03*
G04 #@! TO.N,SD0*
X130262000Y-80033000D03*
X73862000Y-80033000D03*
X69838000Y-119967000D03*
X126138000Y-119967000D03*
G04 #@! TO.N,SD1*
X131532000Y-80033000D03*
X75132000Y-80033000D03*
X68568000Y-119967000D03*
X124868000Y-119967000D03*
G04 #@! TO.N,IO15*
X132802000Y-80033000D03*
X76402000Y-80033000D03*
X67298000Y-119967000D03*
X123598000Y-119967000D03*
G04 #@! TO.N,IO2*
X134072000Y-80033000D03*
X77672000Y-80033000D03*
X66028000Y-119967000D03*
X122328000Y-119967000D03*
G04 #@! TO.N,IO0*
X136866000Y-82319000D03*
X80466000Y-82319000D03*
X63234000Y-117681000D03*
X119534000Y-117681000D03*
G04 #@! TO.N,IO4*
X134961000Y-79652000D03*
X78561000Y-79652000D03*
X65139000Y-120348000D03*
X121439000Y-120348000D03*
G04 #@! TO.N,IO16*
X134961000Y-78382000D03*
X78561000Y-78382000D03*
X65139000Y-121618000D03*
X121439000Y-121618000D03*
G04 #@! TO.N,IO17*
X134961000Y-77112000D03*
X78561000Y-77112000D03*
X65139000Y-122888000D03*
X121439000Y-122888000D03*
G04 #@! TO.N,IO5*
X134961000Y-75842000D03*
X78561000Y-75842000D03*
X65139000Y-124158000D03*
X121439000Y-124158000D03*
G04 #@! TO.N,IO18*
X134961000Y-74572000D03*
X78561000Y-74572000D03*
X65139000Y-125428000D03*
X121439000Y-125428000D03*
G04 #@! TO.N,IO19*
X134961000Y-73302000D03*
X78561000Y-73302000D03*
X65139000Y-126698000D03*
X121439000Y-126698000D03*
G04 #@! TO.N,IO21*
X134961000Y-70762000D03*
X78561000Y-70762000D03*
X65139000Y-129238000D03*
X121439000Y-129238000D03*
G04 #@! TO.N,RXD0*
X134961000Y-69492000D03*
X78561000Y-69492000D03*
X65139000Y-130508000D03*
X121439000Y-130508000D03*
G04 #@! TO.N,TXD0*
X134961000Y-68222000D03*
X78561000Y-68222000D03*
X65139000Y-131778000D03*
X121439000Y-131778000D03*
G04 #@! TO.N,IO22*
X134961000Y-66952000D03*
X78561000Y-66952000D03*
X65139000Y-133048000D03*
X121439000Y-133048000D03*
G04 #@! TO.N,IO23*
X134961000Y-65682000D03*
X78561000Y-65682000D03*
X65139000Y-134318000D03*
X121439000Y-134318000D03*
G04 #@! TD*
D13*
G04 #@! TO.N,GND*
X122007000Y-64412000D02*
X115022000Y-64412000D01*
X115022000Y-64412000D02*
X113498000Y-62888000D01*
X113498000Y-62888000D02*
X113498000Y-58404000D01*
X109180000Y-54086000D02*
X109180000Y-53109000D01*
X113498000Y-58404000D02*
X109180000Y-54086000D01*
X147280000Y-54086000D02*
X147280000Y-53109000D01*
X142835000Y-58531000D02*
X147280000Y-54086000D01*
X141692000Y-64412000D02*
X142835000Y-63269000D01*
X142835000Y-63269000D02*
X142835000Y-58531000D01*
X134961000Y-64412000D02*
X141692000Y-64412000D01*
X134395315Y-64412000D02*
X122007000Y-64412000D01*
X134961000Y-64412000D02*
X134395315Y-64412000D01*
X65607000Y-64412000D02*
X58622000Y-64412000D01*
X78561000Y-64412000D02*
X85292000Y-64412000D01*
X77995315Y-64412000D02*
X65607000Y-64412000D01*
X78561000Y-64412000D02*
X77995315Y-64412000D01*
X58622000Y-64412000D02*
X57098000Y-62888000D01*
X57098000Y-62888000D02*
X57098000Y-58404000D01*
X52780000Y-54086000D02*
X52780000Y-53109000D01*
X57098000Y-58404000D02*
X52780000Y-54086000D01*
X90880000Y-54086000D02*
X90880000Y-53109000D01*
X86435000Y-58531000D02*
X90880000Y-54086000D01*
X85292000Y-64412000D02*
X86435000Y-63269000D01*
X86435000Y-63269000D02*
X86435000Y-58531000D01*
X65139000Y-135588000D02*
X58408000Y-135588000D01*
X65704685Y-135588000D02*
X78093000Y-135588000D01*
X65139000Y-135588000D02*
X65704685Y-135588000D01*
X85078000Y-135588000D02*
X86602000Y-137112000D01*
X86602000Y-137112000D02*
X86602000Y-141596000D01*
X90920000Y-145914000D02*
X90920000Y-146891000D01*
X86602000Y-141596000D02*
X90920000Y-145914000D01*
X52820000Y-145914000D02*
X52820000Y-146891000D01*
X57265000Y-141469000D02*
X52820000Y-145914000D01*
X58408000Y-135588000D02*
X57265000Y-136731000D01*
X57265000Y-136731000D02*
X57265000Y-141469000D01*
X78093000Y-135588000D02*
X85078000Y-135588000D01*
X142902000Y-141596000D02*
X147220000Y-145914000D01*
X109120000Y-145914000D02*
X109120000Y-146891000D01*
X121439000Y-135588000D02*
X122004685Y-135588000D01*
X141378000Y-135588000D02*
X142902000Y-137112000D01*
X142902000Y-137112000D02*
X142902000Y-141596000D01*
X134393000Y-135588000D02*
X141378000Y-135588000D01*
X114708000Y-135588000D02*
X113565000Y-136731000D01*
X113565000Y-136731000D02*
X113565000Y-141469000D01*
X122004685Y-135588000D02*
X134393000Y-135588000D01*
X113565000Y-141469000D02*
X109120000Y-145914000D01*
X147220000Y-145914000D02*
X147220000Y-146891000D01*
X121439000Y-135588000D02*
X114708000Y-135588000D01*
G04 #@! TO.N,3V3*
X112736000Y-63015000D02*
X112736000Y-59205000D01*
X122007000Y-65682000D02*
X115403000Y-65682000D01*
X112736000Y-59205000D02*
X110029999Y-56498999D01*
X110029999Y-56498999D02*
X109180000Y-55649000D01*
X115403000Y-65682000D02*
X112736000Y-63015000D01*
X59003000Y-65682000D02*
X56336000Y-63015000D01*
X56336000Y-63015000D02*
X56336000Y-59205000D01*
X65607000Y-65682000D02*
X59003000Y-65682000D01*
X56336000Y-59205000D02*
X53629999Y-56498999D01*
X53629999Y-56498999D02*
X52780000Y-55649000D01*
X84697000Y-134318000D02*
X87364000Y-136985000D01*
X90070001Y-143501001D02*
X90920000Y-144351000D01*
X78093000Y-134318000D02*
X84697000Y-134318000D01*
X87364000Y-140795000D02*
X90070001Y-143501001D01*
X87364000Y-136985000D02*
X87364000Y-140795000D01*
X146370001Y-143501001D02*
X147220000Y-144351000D01*
X140997000Y-134318000D02*
X143664000Y-136985000D01*
X134393000Y-134318000D02*
X140997000Y-134318000D01*
X143664000Y-140795000D02*
X146370001Y-143501001D01*
X143664000Y-136985000D02*
X143664000Y-140795000D01*
G04 #@! TO.N,EN*
X122007000Y-66952000D02*
X115784000Y-66952000D01*
X115784000Y-66952000D02*
X112355000Y-63523000D01*
X112355000Y-61364000D02*
X109180000Y-58189000D01*
X112355000Y-63523000D02*
X112355000Y-61364000D01*
X65607000Y-66952000D02*
X59384000Y-66952000D01*
X59384000Y-66952000D02*
X55955000Y-63523000D01*
X55955000Y-61364000D02*
X52780000Y-58189000D01*
X55955000Y-63523000D02*
X55955000Y-61364000D01*
X87745000Y-138636000D02*
X90920000Y-141811000D01*
X84316000Y-133048000D02*
X87745000Y-136477000D01*
X87745000Y-136477000D02*
X87745000Y-138636000D01*
X78093000Y-133048000D02*
X84316000Y-133048000D01*
X140616000Y-133048000D02*
X144045000Y-136477000D01*
X144045000Y-136477000D02*
X144045000Y-138636000D01*
X144045000Y-138636000D02*
X147220000Y-141811000D01*
X134393000Y-133048000D02*
X140616000Y-133048000D01*
G04 #@! TO.N,SENSOR_VP*
X116673000Y-68222000D02*
X109180000Y-60729000D01*
X122007000Y-68222000D02*
X116673000Y-68222000D01*
X60273000Y-68222000D02*
X52780000Y-60729000D01*
X65607000Y-68222000D02*
X60273000Y-68222000D01*
X78093000Y-131778000D02*
X83427000Y-131778000D01*
X83427000Y-131778000D02*
X90920000Y-139271000D01*
X139727000Y-131778000D02*
X147220000Y-139271000D01*
X134393000Y-131778000D02*
X139727000Y-131778000D01*
G04 #@! TO.N,SENSOR_VN*
X115403000Y-69492000D02*
X109180000Y-63269000D01*
X122007000Y-69492000D02*
X115403000Y-69492000D01*
X59003000Y-69492000D02*
X52780000Y-63269000D01*
X65607000Y-69492000D02*
X59003000Y-69492000D01*
X84697000Y-130508000D02*
X90920000Y-136731000D01*
X78093000Y-130508000D02*
X84697000Y-130508000D01*
X140997000Y-130508000D02*
X147220000Y-136731000D01*
X134393000Y-130508000D02*
X140997000Y-130508000D01*
G04 #@! TO.N,IO34*
X114133000Y-70762000D02*
X109180000Y-65809000D01*
X122007000Y-70762000D02*
X114133000Y-70762000D01*
X57733000Y-70762000D02*
X52780000Y-65809000D01*
X65607000Y-70762000D02*
X57733000Y-70762000D01*
X78093000Y-129238000D02*
X85967000Y-129238000D01*
X85967000Y-129238000D02*
X90920000Y-134191000D01*
X134393000Y-129238000D02*
X142267000Y-129238000D01*
X142267000Y-129238000D02*
X147220000Y-134191000D01*
G04 #@! TO.N,IO35*
X112863000Y-72032000D02*
X109180000Y-68349000D01*
X122007000Y-72032000D02*
X112863000Y-72032000D01*
X56463000Y-72032000D02*
X52780000Y-68349000D01*
X65607000Y-72032000D02*
X56463000Y-72032000D01*
X78093000Y-127968000D02*
X87237000Y-127968000D01*
X87237000Y-127968000D02*
X90920000Y-131651000D01*
X143537000Y-127968000D02*
X147220000Y-131651000D01*
X134393000Y-127968000D02*
X143537000Y-127968000D01*
G04 #@! TO.N,IO32*
X111593000Y-73302000D02*
X109180000Y-70889000D01*
X122007000Y-73302000D02*
X111593000Y-73302000D01*
X55193000Y-73302000D02*
X52780000Y-70889000D01*
X65607000Y-73302000D02*
X55193000Y-73302000D01*
X88507000Y-126698000D02*
X90920000Y-129111000D01*
X78093000Y-126698000D02*
X88507000Y-126698000D01*
X144807000Y-126698000D02*
X147220000Y-129111000D01*
X134393000Y-126698000D02*
X144807000Y-126698000D01*
G04 #@! TO.N,IO33*
X110323000Y-74572000D02*
X109180000Y-73429000D01*
X122007000Y-74572000D02*
X110323000Y-74572000D01*
X53923000Y-74572000D02*
X52780000Y-73429000D01*
X65607000Y-74572000D02*
X53923000Y-74572000D01*
X78093000Y-125428000D02*
X89777000Y-125428000D01*
X89777000Y-125428000D02*
X90920000Y-126571000D01*
X146077000Y-125428000D02*
X147220000Y-126571000D01*
X134393000Y-125428000D02*
X146077000Y-125428000D01*
G04 #@! TO.N,IO25*
X109307000Y-75842000D02*
X109180000Y-75969000D01*
X122007000Y-75842000D02*
X109307000Y-75842000D01*
X52907000Y-75842000D02*
X52780000Y-75969000D01*
X65607000Y-75842000D02*
X52907000Y-75842000D01*
X90793000Y-124158000D02*
X90920000Y-124031000D01*
X78093000Y-124158000D02*
X90793000Y-124158000D01*
X147093000Y-124158000D02*
X147220000Y-124031000D01*
X134393000Y-124158000D02*
X147093000Y-124158000D01*
G04 #@! TO.N,IO26*
X110577000Y-77112000D02*
X109180000Y-78509000D01*
X122007000Y-77112000D02*
X110577000Y-77112000D01*
X54177000Y-77112000D02*
X52780000Y-78509000D01*
X65607000Y-77112000D02*
X54177000Y-77112000D01*
X78093000Y-122888000D02*
X89523000Y-122888000D01*
X89523000Y-122888000D02*
X90920000Y-121491000D01*
X134393000Y-122888000D02*
X145823000Y-122888000D01*
X145823000Y-122888000D02*
X147220000Y-121491000D01*
G04 #@! TO.N,IO27*
X111847000Y-78382000D02*
X109180000Y-81049000D01*
X122007000Y-78382000D02*
X111847000Y-78382000D01*
X55447000Y-78382000D02*
X52780000Y-81049000D01*
X65607000Y-78382000D02*
X55447000Y-78382000D01*
X88253000Y-121618000D02*
X90920000Y-118951000D01*
X78093000Y-121618000D02*
X88253000Y-121618000D01*
X144553000Y-121618000D02*
X147220000Y-118951000D01*
X134393000Y-121618000D02*
X144553000Y-121618000D01*
G04 #@! TO.N,IO14*
X113117000Y-79652000D02*
X109180000Y-83589000D01*
X122007000Y-79652000D02*
X113117000Y-79652000D01*
X56717000Y-79652000D02*
X52780000Y-83589000D01*
X65607000Y-79652000D02*
X56717000Y-79652000D01*
X86983000Y-120348000D02*
X90920000Y-116411000D01*
X78093000Y-120348000D02*
X86983000Y-120348000D01*
X143283000Y-120348000D02*
X147220000Y-116411000D01*
X134393000Y-120348000D02*
X143283000Y-120348000D01*
G04 #@! TO.N,IO12*
X112990000Y-82319000D02*
X109180000Y-86129000D01*
X119848000Y-82319000D02*
X112990000Y-82319000D01*
X56590000Y-82319000D02*
X52780000Y-86129000D01*
X63448000Y-82319000D02*
X56590000Y-82319000D01*
X80252000Y-117681000D02*
X87110000Y-117681000D01*
X87110000Y-117681000D02*
X90920000Y-113871000D01*
X136552000Y-117681000D02*
X143410000Y-117681000D01*
X143410000Y-117681000D02*
X147220000Y-113871000D01*
G04 #@! TO.N,IO13*
X115276000Y-88669000D02*
X109180000Y-88669000D01*
X123912000Y-80033000D02*
X115276000Y-88669000D01*
X67512000Y-80033000D02*
X58876000Y-88669000D01*
X58876000Y-88669000D02*
X52780000Y-88669000D01*
X76188000Y-119967000D02*
X84824000Y-111331000D01*
X84824000Y-111331000D02*
X90920000Y-111331000D01*
X141124000Y-111331000D02*
X147220000Y-111331000D01*
X132488000Y-119967000D02*
X141124000Y-111331000D01*
G04 #@! TO.N,SD2*
X114006000Y-91209000D02*
X109180000Y-91209000D01*
X125182000Y-80033000D02*
X114006000Y-91209000D01*
X57606000Y-91209000D02*
X52780000Y-91209000D01*
X68782000Y-80033000D02*
X57606000Y-91209000D01*
X74918000Y-119967000D02*
X86094000Y-108791000D01*
X86094000Y-108791000D02*
X90920000Y-108791000D01*
X131218000Y-119967000D02*
X142394000Y-108791000D01*
X142394000Y-108791000D02*
X147220000Y-108791000D01*
G04 #@! TO.N,SD3*
X110382081Y-93749000D02*
X109180000Y-93749000D01*
X113301685Y-93749000D02*
X110382081Y-93749000D01*
X126452000Y-80598685D02*
X113301685Y-93749000D01*
X126452000Y-80033000D02*
X126452000Y-80598685D01*
X53982081Y-93749000D02*
X52780000Y-93749000D01*
X56901685Y-93749000D02*
X53982081Y-93749000D01*
X70052000Y-80598685D02*
X56901685Y-93749000D01*
X70052000Y-80033000D02*
X70052000Y-80598685D01*
X86798315Y-106251000D02*
X89717919Y-106251000D01*
X89717919Y-106251000D02*
X90920000Y-106251000D01*
X73648000Y-119967000D02*
X73648000Y-119401315D01*
X73648000Y-119401315D02*
X86798315Y-106251000D01*
X129948000Y-119967000D02*
X129948000Y-119401315D01*
X146017919Y-106251000D02*
X147220000Y-106251000D01*
X143098315Y-106251000D02*
X146017919Y-106251000D01*
X129948000Y-119401315D02*
X143098315Y-106251000D01*
G04 #@! TO.N,CMD*
X111466000Y-96289000D02*
X109180000Y-96289000D01*
X127722000Y-80033000D02*
X111466000Y-96289000D01*
X55066000Y-96289000D02*
X52780000Y-96289000D01*
X71322000Y-80033000D02*
X55066000Y-96289000D01*
X88634000Y-103711000D02*
X90920000Y-103711000D01*
X72378000Y-119967000D02*
X88634000Y-103711000D01*
X128678000Y-119967000D02*
X144934000Y-103711000D01*
X144934000Y-103711000D02*
X147220000Y-103711000D01*
G04 #@! TO.N,CLK*
X145248000Y-96289000D02*
X147280000Y-96289000D01*
X128992000Y-80033000D02*
X145248000Y-96289000D01*
X88848000Y-96289000D02*
X90880000Y-96289000D01*
X72592000Y-80033000D02*
X88848000Y-96289000D01*
X54852000Y-103711000D02*
X52820000Y-103711000D01*
X71108000Y-119967000D02*
X54852000Y-103711000D01*
X111152000Y-103711000D02*
X109120000Y-103711000D01*
X127408000Y-119967000D02*
X111152000Y-103711000D01*
G04 #@! TO.N,SD0*
X143978000Y-93749000D02*
X147280000Y-93749000D01*
X130262000Y-80033000D02*
X143978000Y-93749000D01*
X87578000Y-93749000D02*
X90880000Y-93749000D01*
X73862000Y-80033000D02*
X87578000Y-93749000D01*
X69838000Y-119967000D02*
X56122000Y-106251000D01*
X56122000Y-106251000D02*
X52820000Y-106251000D01*
X126138000Y-119967000D02*
X112422000Y-106251000D01*
X112422000Y-106251000D02*
X109120000Y-106251000D01*
G04 #@! TO.N,SD1*
X146077919Y-91209000D02*
X147280000Y-91209000D01*
X142142315Y-91209000D02*
X146077919Y-91209000D01*
X131532000Y-80598685D02*
X142142315Y-91209000D01*
X131532000Y-80033000D02*
X131532000Y-80598685D01*
X89677919Y-91209000D02*
X90880000Y-91209000D01*
X85742315Y-91209000D02*
X89677919Y-91209000D01*
X75132000Y-80598685D02*
X85742315Y-91209000D01*
X75132000Y-80033000D02*
X75132000Y-80598685D01*
X57957685Y-108791000D02*
X54022081Y-108791000D01*
X54022081Y-108791000D02*
X52820000Y-108791000D01*
X68568000Y-119967000D02*
X68568000Y-119401315D01*
X68568000Y-119401315D02*
X57957685Y-108791000D01*
X110322081Y-108791000D02*
X109120000Y-108791000D01*
X124868000Y-119967000D02*
X124868000Y-119401315D01*
X124868000Y-119401315D02*
X114257685Y-108791000D01*
X114257685Y-108791000D02*
X110322081Y-108791000D01*
G04 #@! TO.N,IO15*
X141438000Y-88669000D02*
X147280000Y-88669000D01*
X132802000Y-80033000D02*
X141438000Y-88669000D01*
X85038000Y-88669000D02*
X90880000Y-88669000D01*
X76402000Y-80033000D02*
X85038000Y-88669000D01*
X58662000Y-111331000D02*
X52820000Y-111331000D01*
X67298000Y-119967000D02*
X58662000Y-111331000D01*
X114962000Y-111331000D02*
X109120000Y-111331000D01*
X123598000Y-119967000D02*
X114962000Y-111331000D01*
G04 #@! TO.N,IO2*
X134072000Y-80033000D02*
X134072000Y-80598685D01*
X139602315Y-86129000D02*
X147280000Y-86129000D01*
X134072000Y-80598685D02*
X139602315Y-86129000D01*
X77672000Y-80033000D02*
X77672000Y-80598685D01*
X83202315Y-86129000D02*
X90880000Y-86129000D01*
X77672000Y-80598685D02*
X83202315Y-86129000D01*
X66028000Y-119401315D02*
X60497685Y-113871000D01*
X60497685Y-113871000D02*
X52820000Y-113871000D01*
X66028000Y-119967000D02*
X66028000Y-119401315D01*
X122328000Y-119401315D02*
X116797685Y-113871000D01*
X116797685Y-113871000D02*
X109120000Y-113871000D01*
X122328000Y-119967000D02*
X122328000Y-119401315D01*
G04 #@! TO.N,IO0*
X146010000Y-82319000D02*
X147280000Y-83589000D01*
X136866000Y-82319000D02*
X146010000Y-82319000D01*
X89610000Y-82319000D02*
X90880000Y-83589000D01*
X80466000Y-82319000D02*
X89610000Y-82319000D01*
X63234000Y-117681000D02*
X54090000Y-117681000D01*
X54090000Y-117681000D02*
X52820000Y-116411000D01*
X119534000Y-117681000D02*
X110390000Y-117681000D01*
X110390000Y-117681000D02*
X109120000Y-116411000D01*
G04 #@! TO.N,IO4*
X145883000Y-79652000D02*
X147280000Y-81049000D01*
X134961000Y-79652000D02*
X145883000Y-79652000D01*
X89483000Y-79652000D02*
X90880000Y-81049000D01*
X78561000Y-79652000D02*
X89483000Y-79652000D01*
X65139000Y-120348000D02*
X54217000Y-120348000D01*
X54217000Y-120348000D02*
X52820000Y-118951000D01*
X110517000Y-120348000D02*
X109120000Y-118951000D01*
X121439000Y-120348000D02*
X110517000Y-120348000D01*
G04 #@! TO.N,IO16*
X147153000Y-78382000D02*
X147280000Y-78509000D01*
X134961000Y-78382000D02*
X147153000Y-78382000D01*
X90753000Y-78382000D02*
X90880000Y-78509000D01*
X78561000Y-78382000D02*
X90753000Y-78382000D01*
X52947000Y-121618000D02*
X52820000Y-121491000D01*
X65139000Y-121618000D02*
X52947000Y-121618000D01*
X121439000Y-121618000D02*
X109247000Y-121618000D01*
X109247000Y-121618000D02*
X109120000Y-121491000D01*
G04 #@! TO.N,IO17*
X146137000Y-77112000D02*
X147280000Y-75969000D01*
X134961000Y-77112000D02*
X146137000Y-77112000D01*
X89737000Y-77112000D02*
X90880000Y-75969000D01*
X78561000Y-77112000D02*
X89737000Y-77112000D01*
X65139000Y-122888000D02*
X53963000Y-122888000D01*
X53963000Y-122888000D02*
X52820000Y-124031000D01*
X121439000Y-122888000D02*
X110263000Y-122888000D01*
X110263000Y-122888000D02*
X109120000Y-124031000D01*
G04 #@! TO.N,IO5*
X144867000Y-75842000D02*
X147280000Y-73429000D01*
X134961000Y-75842000D02*
X144867000Y-75842000D01*
X88467000Y-75842000D02*
X90880000Y-73429000D01*
X78561000Y-75842000D02*
X88467000Y-75842000D01*
X55233000Y-124158000D02*
X52820000Y-126571000D01*
X65139000Y-124158000D02*
X55233000Y-124158000D01*
X111533000Y-124158000D02*
X109120000Y-126571000D01*
X121439000Y-124158000D02*
X111533000Y-124158000D01*
G04 #@! TO.N,IO18*
X143597000Y-74572000D02*
X147280000Y-70889000D01*
X134961000Y-74572000D02*
X143597000Y-74572000D01*
X87197000Y-74572000D02*
X90880000Y-70889000D01*
X78561000Y-74572000D02*
X87197000Y-74572000D01*
X65139000Y-125428000D02*
X56503000Y-125428000D01*
X56503000Y-125428000D02*
X52820000Y-129111000D01*
X112803000Y-125428000D02*
X109120000Y-129111000D01*
X121439000Y-125428000D02*
X112803000Y-125428000D01*
G04 #@! TO.N,IO19*
X142327000Y-73302000D02*
X147280000Y-68349000D01*
X134961000Y-73302000D02*
X142327000Y-73302000D01*
X85927000Y-73302000D02*
X90880000Y-68349000D01*
X78561000Y-73302000D02*
X85927000Y-73302000D01*
X57773000Y-126698000D02*
X52820000Y-131651000D01*
X65139000Y-126698000D02*
X57773000Y-126698000D01*
X114073000Y-126698000D02*
X109120000Y-131651000D01*
X121439000Y-126698000D02*
X114073000Y-126698000D01*
G04 #@! TO.N,IO21*
X142327000Y-70762000D02*
X147280000Y-65809000D01*
X134961000Y-70762000D02*
X142327000Y-70762000D01*
X85927000Y-70762000D02*
X90880000Y-65809000D01*
X78561000Y-70762000D02*
X85927000Y-70762000D01*
X57773000Y-129238000D02*
X52820000Y-134191000D01*
X65139000Y-129238000D02*
X57773000Y-129238000D01*
X114073000Y-129238000D02*
X109120000Y-134191000D01*
X121439000Y-129238000D02*
X114073000Y-129238000D01*
G04 #@! TO.N,RXD0*
X141057000Y-69492000D02*
X147280000Y-63269000D01*
X134961000Y-69492000D02*
X141057000Y-69492000D01*
X84657000Y-69492000D02*
X90880000Y-63269000D01*
X78561000Y-69492000D02*
X84657000Y-69492000D01*
X59043000Y-130508000D02*
X52820000Y-136731000D01*
X65139000Y-130508000D02*
X59043000Y-130508000D01*
X121439000Y-130508000D02*
X115343000Y-130508000D01*
X115343000Y-130508000D02*
X109120000Y-136731000D01*
G04 #@! TO.N,TXD0*
X139787000Y-68222000D02*
X147280000Y-60729000D01*
X134961000Y-68222000D02*
X139787000Y-68222000D01*
X83387000Y-68222000D02*
X90880000Y-60729000D01*
X78561000Y-68222000D02*
X83387000Y-68222000D01*
X60313000Y-131778000D02*
X52820000Y-139271000D01*
X65139000Y-131778000D02*
X60313000Y-131778000D01*
X121439000Y-131778000D02*
X116613000Y-131778000D01*
X116613000Y-131778000D02*
X109120000Y-139271000D01*
G04 #@! TO.N,IO22*
X134961000Y-66952000D02*
X140422000Y-66952000D01*
X140422000Y-66952000D02*
X144105000Y-63269000D01*
X144105000Y-61364000D02*
X147280000Y-58189000D01*
X144105000Y-63269000D02*
X144105000Y-61364000D01*
X78561000Y-66952000D02*
X84022000Y-66952000D01*
X84022000Y-66952000D02*
X87705000Y-63269000D01*
X87705000Y-61364000D02*
X90880000Y-58189000D01*
X87705000Y-63269000D02*
X87705000Y-61364000D01*
X65139000Y-133048000D02*
X59678000Y-133048000D01*
X59678000Y-133048000D02*
X55995000Y-136731000D01*
X55995000Y-138636000D02*
X52820000Y-141811000D01*
X55995000Y-136731000D02*
X55995000Y-138636000D01*
X121439000Y-133048000D02*
X115978000Y-133048000D01*
X115978000Y-133048000D02*
X112295000Y-136731000D01*
X112295000Y-138636000D02*
X109120000Y-141811000D01*
X112295000Y-136731000D02*
X112295000Y-138636000D01*
G04 #@! TO.N,IO23*
X140781224Y-65682000D02*
X143216000Y-63247224D01*
X134961000Y-65682000D02*
X140781224Y-65682000D01*
X143216000Y-59713000D02*
X147280000Y-55649000D01*
X143216000Y-63247224D02*
X143216000Y-59713000D01*
X84381224Y-65682000D02*
X86816000Y-63247224D01*
X78561000Y-65682000D02*
X84381224Y-65682000D01*
X86816000Y-59713000D02*
X90880000Y-55649000D01*
X86816000Y-63247224D02*
X86816000Y-59713000D01*
X59318776Y-134318000D02*
X56884000Y-136752776D01*
X65139000Y-134318000D02*
X59318776Y-134318000D01*
X56884000Y-140287000D02*
X52820000Y-144351000D01*
X56884000Y-136752776D02*
X56884000Y-140287000D01*
X115618776Y-134318000D02*
X113184000Y-136752776D01*
X121439000Y-134318000D02*
X115618776Y-134318000D01*
X113184000Y-140287000D02*
X109120000Y-144351000D01*
X113184000Y-136752776D02*
X113184000Y-140287000D01*
G04 #@! TD*
M02*
