G04 #@! TF.GenerationSoftware,KiCad,Pcbnew,5.0.2+dfsg1-1~bpo9+1*
G04 #@! TF.CreationDate,2020-03-02T01:02:18-06:00*
G04 #@! TF.ProjectId,bare4,62617265-342e-46b6-9963-61645f706362,1.0*
G04 #@! TF.SameCoordinates,Original*
G04 #@! TF.FileFunction,Legend,Top*
G04 #@! TF.FilePolarity,Positive*
%FSLAX46Y46*%
G04 Gerber Fmt 4.6, Leading zero omitted, Abs format (unit mm)*
G04 Created by KiCad (PCBNEW 5.0.2+dfsg1-1~bpo9+1) date Mon 02 Mar 2020 01:02:18 AM CST*
%MOMM*%
%LPD*%
G01*
G04 APERTURE LIST*
%ADD10C,0.160000*%
%ADD11C,0.225000*%
%ADD12C,0.120000*%
%ADD13C,0.150000*%
G04 APERTURE END LIST*
D10*
X150000000Y-100000000D02*
X50000000Y-100000000D01*
X104000000Y-150000000D02*
X104000000Y-50000000D01*
X96000000Y-49900000D02*
X96000000Y-150100000D01*
X145590428Y-126936857D02*
X145033285Y-126936857D01*
X145333285Y-126594000D01*
X145204714Y-126594000D01*
X145119000Y-126551142D01*
X145076142Y-126508285D01*
X145033285Y-126422571D01*
X145033285Y-126208285D01*
X145076142Y-126122571D01*
X145119000Y-126079714D01*
X145204714Y-126036857D01*
X145461857Y-126036857D01*
X145547571Y-126079714D01*
X145590428Y-126122571D01*
X144733285Y-126936857D02*
X144176142Y-126936857D01*
X144476142Y-126594000D01*
X144347571Y-126594000D01*
X144261857Y-126551142D01*
X144219000Y-126508285D01*
X144176142Y-126422571D01*
X144176142Y-126208285D01*
X144219000Y-126122571D01*
X144261857Y-126079714D01*
X144347571Y-126036857D01*
X144604714Y-126036857D01*
X144690428Y-126079714D01*
X144733285Y-126122571D01*
X137243428Y-102541857D02*
X137543428Y-102970428D01*
X137757714Y-102541857D02*
X137757714Y-103441857D01*
X137414857Y-103441857D01*
X137329142Y-103399000D01*
X137286285Y-103356142D01*
X137243428Y-103270428D01*
X137243428Y-103141857D01*
X137286285Y-103056142D01*
X137329142Y-103013285D01*
X137414857Y-102970428D01*
X137757714Y-102970428D01*
X136857714Y-103013285D02*
X136557714Y-103013285D01*
X136429142Y-102541857D02*
X136857714Y-102541857D01*
X136857714Y-103441857D01*
X136429142Y-103441857D01*
X136086285Y-102584714D02*
X135957714Y-102541857D01*
X135743428Y-102541857D01*
X135657714Y-102584714D01*
X135614857Y-102627571D01*
X135572000Y-102713285D01*
X135572000Y-102799000D01*
X135614857Y-102884714D01*
X135657714Y-102927571D01*
X135743428Y-102970428D01*
X135914857Y-103013285D01*
X136000571Y-103056142D01*
X136043428Y-103099000D01*
X136086285Y-103184714D01*
X136086285Y-103270428D01*
X136043428Y-103356142D01*
X136000571Y-103399000D01*
X135914857Y-103441857D01*
X135700571Y-103441857D01*
X135572000Y-103399000D01*
X135186285Y-103013285D02*
X134886285Y-103013285D01*
X134757714Y-102541857D02*
X135186285Y-102541857D01*
X135186285Y-103441857D01*
X134757714Y-103441857D01*
X134500571Y-103441857D02*
X133986285Y-103441857D01*
X134243428Y-102541857D02*
X134243428Y-103441857D01*
X145033285Y-116003857D02*
X145547571Y-116003857D01*
X145290428Y-116003857D02*
X145290428Y-116903857D01*
X145376142Y-116775285D01*
X145461857Y-116689571D01*
X145547571Y-116646714D01*
X144261857Y-116603857D02*
X144261857Y-116003857D01*
X144476142Y-116946714D02*
X144690428Y-116303857D01*
X144133285Y-116303857D01*
X144906285Y-113336857D02*
X145420571Y-113336857D01*
X145163428Y-113336857D02*
X145163428Y-114236857D01*
X145249142Y-114108285D01*
X145334857Y-114022571D01*
X145420571Y-113979714D01*
X144563428Y-114151142D02*
X144520571Y-114194000D01*
X144434857Y-114236857D01*
X144220571Y-114236857D01*
X144134857Y-114194000D01*
X144092000Y-114151142D01*
X144049142Y-114065428D01*
X144049142Y-113979714D01*
X144092000Y-113851142D01*
X144606285Y-113336857D01*
X144049142Y-113336857D01*
X145547571Y-138779714D02*
X145419000Y-138736857D01*
X145204714Y-138736857D01*
X145119000Y-138779714D01*
X145076142Y-138822571D01*
X145033285Y-138908285D01*
X145033285Y-138994000D01*
X145076142Y-139079714D01*
X145119000Y-139122571D01*
X145204714Y-139165428D01*
X145376142Y-139208285D01*
X145461857Y-139251142D01*
X145504714Y-139294000D01*
X145547571Y-139379714D01*
X145547571Y-139465428D01*
X145504714Y-139551142D01*
X145461857Y-139594000D01*
X145376142Y-139636857D01*
X145161857Y-139636857D01*
X145033285Y-139594000D01*
X144776142Y-139636857D02*
X144476142Y-138736857D01*
X144176142Y-139636857D01*
X143876142Y-138736857D02*
X143876142Y-139636857D01*
X143533285Y-139636857D01*
X143447571Y-139594000D01*
X143404714Y-139551142D01*
X143361857Y-139465428D01*
X143361857Y-139336857D01*
X143404714Y-139251142D01*
X143447571Y-139208285D01*
X143533285Y-139165428D01*
X143876142Y-139165428D01*
X112284571Y-130989857D02*
X112798857Y-130989857D01*
X112541714Y-130989857D02*
X112541714Y-131889857D01*
X112627428Y-131761285D01*
X112713142Y-131675571D01*
X112798857Y-131632714D01*
X111856000Y-130989857D02*
X111684571Y-130989857D01*
X111598857Y-131032714D01*
X111556000Y-131075571D01*
X111470285Y-131204142D01*
X111427428Y-131375571D01*
X111427428Y-131718428D01*
X111470285Y-131804142D01*
X111513142Y-131847000D01*
X111598857Y-131889857D01*
X111770285Y-131889857D01*
X111856000Y-131847000D01*
X111898857Y-131804142D01*
X111941714Y-131718428D01*
X111941714Y-131504142D01*
X111898857Y-131418428D01*
X111856000Y-131375571D01*
X111770285Y-131332714D01*
X111598857Y-131332714D01*
X111513142Y-131375571D01*
X111470285Y-131418428D01*
X111427428Y-131504142D01*
X145547571Y-119358142D02*
X145504714Y-119401000D01*
X145419000Y-119443857D01*
X145204714Y-119443857D01*
X145119000Y-119401000D01*
X145076142Y-119358142D01*
X145033285Y-119272428D01*
X145033285Y-119186714D01*
X145076142Y-119058142D01*
X145590428Y-118543857D01*
X145033285Y-118543857D01*
X144733285Y-119443857D02*
X144133285Y-119443857D01*
X144519000Y-118543857D01*
X112284571Y-121210857D02*
X112798857Y-121210857D01*
X112541714Y-121210857D02*
X112541714Y-122110857D01*
X112627428Y-121982285D01*
X112713142Y-121896571D01*
X112798857Y-121853714D01*
X111513142Y-122110857D02*
X111684571Y-122110857D01*
X111770285Y-122068000D01*
X111813142Y-122025142D01*
X111898857Y-121896571D01*
X111941714Y-121725142D01*
X111941714Y-121382285D01*
X111898857Y-121296571D01*
X111856000Y-121253714D01*
X111770285Y-121210857D01*
X111598857Y-121210857D01*
X111513142Y-121253714D01*
X111470285Y-121296571D01*
X111427428Y-121382285D01*
X111427428Y-121596571D01*
X111470285Y-121682285D01*
X111513142Y-121725142D01*
X111598857Y-121768000D01*
X111770285Y-121768000D01*
X111856000Y-121725142D01*
X111898857Y-121682285D01*
X111941714Y-121596571D01*
X111941714Y-114278142D02*
X111898857Y-114321000D01*
X111813142Y-114363857D01*
X111598857Y-114363857D01*
X111513142Y-114321000D01*
X111470285Y-114278142D01*
X111427428Y-114192428D01*
X111427428Y-114106714D01*
X111470285Y-113978142D01*
X111984571Y-113463857D01*
X111427428Y-113463857D01*
X112284571Y-128576857D02*
X112798857Y-128576857D01*
X112541714Y-128576857D02*
X112541714Y-129476857D01*
X112627428Y-129348285D01*
X112713142Y-129262571D01*
X112798857Y-129219714D01*
X111770285Y-129091142D02*
X111856000Y-129134000D01*
X111898857Y-129176857D01*
X111941714Y-129262571D01*
X111941714Y-129305428D01*
X111898857Y-129391142D01*
X111856000Y-129434000D01*
X111770285Y-129476857D01*
X111598857Y-129476857D01*
X111513142Y-129434000D01*
X111470285Y-129391142D01*
X111427428Y-129305428D01*
X111427428Y-129262571D01*
X111470285Y-129176857D01*
X111513142Y-129134000D01*
X111598857Y-129091142D01*
X111770285Y-129091142D01*
X111856000Y-129048285D01*
X111898857Y-129005428D01*
X111941714Y-128919714D01*
X111941714Y-128748285D01*
X111898857Y-128662571D01*
X111856000Y-128619714D01*
X111770285Y-128576857D01*
X111598857Y-128576857D01*
X111513142Y-128619714D01*
X111470285Y-128662571D01*
X111427428Y-128748285D01*
X111427428Y-128919714D01*
X111470285Y-129005428D01*
X111513142Y-129048285D01*
X111598857Y-129091142D01*
X112798857Y-134471142D02*
X112756000Y-134514000D01*
X112670285Y-134556857D01*
X112456000Y-134556857D01*
X112370285Y-134514000D01*
X112327428Y-134471142D01*
X112284571Y-134385428D01*
X112284571Y-134299714D01*
X112327428Y-134171142D01*
X112841714Y-133656857D01*
X112284571Y-133656857D01*
X111427428Y-133656857D02*
X111941714Y-133656857D01*
X111684571Y-133656857D02*
X111684571Y-134556857D01*
X111770285Y-134428285D01*
X111856000Y-134342571D01*
X111941714Y-134299714D01*
X145590428Y-134556857D02*
X145033285Y-134556857D01*
X145333285Y-134214000D01*
X145204714Y-134214000D01*
X145119000Y-134171142D01*
X145076142Y-134128285D01*
X145033285Y-134042571D01*
X145033285Y-133828285D01*
X145076142Y-133742571D01*
X145119000Y-133699714D01*
X145204714Y-133656857D01*
X145461857Y-133656857D01*
X145547571Y-133699714D01*
X145590428Y-133742571D01*
X144261857Y-134256857D02*
X144261857Y-133656857D01*
X144476142Y-134599714D02*
X144690428Y-133956857D01*
X144133285Y-133956857D01*
X145590428Y-129476857D02*
X145033285Y-129476857D01*
X145333285Y-129134000D01*
X145204714Y-129134000D01*
X145119000Y-129091142D01*
X145076142Y-129048285D01*
X145033285Y-128962571D01*
X145033285Y-128748285D01*
X145076142Y-128662571D01*
X145119000Y-128619714D01*
X145204714Y-128576857D01*
X145461857Y-128576857D01*
X145547571Y-128619714D01*
X145590428Y-128662571D01*
X144690428Y-129391142D02*
X144647571Y-129434000D01*
X144561857Y-129476857D01*
X144347571Y-129476857D01*
X144261857Y-129434000D01*
X144219000Y-129391142D01*
X144176142Y-129305428D01*
X144176142Y-129219714D01*
X144219000Y-129091142D01*
X144733285Y-128576857D01*
X144176142Y-128576857D01*
X112284571Y-123623857D02*
X112798857Y-123623857D01*
X112541714Y-123623857D02*
X112541714Y-124523857D01*
X112627428Y-124395285D01*
X112713142Y-124309571D01*
X112798857Y-124266714D01*
X111984571Y-124523857D02*
X111384571Y-124523857D01*
X111770285Y-123623857D01*
X112798857Y-144758142D02*
X112756000Y-144801000D01*
X112670285Y-144843857D01*
X112456000Y-144843857D01*
X112370285Y-144801000D01*
X112327428Y-144758142D01*
X112284571Y-144672428D01*
X112284571Y-144586714D01*
X112327428Y-144458142D01*
X112841714Y-143943857D01*
X112284571Y-143943857D01*
X111984571Y-144843857D02*
X111427428Y-144843857D01*
X111727428Y-144501000D01*
X111598857Y-144501000D01*
X111513142Y-144458142D01*
X111470285Y-144415285D01*
X111427428Y-144329571D01*
X111427428Y-144115285D01*
X111470285Y-144029571D01*
X111513142Y-143986714D01*
X111598857Y-143943857D01*
X111856000Y-143943857D01*
X111941714Y-143986714D01*
X111984571Y-144029571D01*
X112284571Y-110923857D02*
X112798857Y-110923857D01*
X112541714Y-110923857D02*
X112541714Y-111823857D01*
X112627428Y-111695285D01*
X112713142Y-111609571D01*
X112798857Y-111566714D01*
X111470285Y-111823857D02*
X111898857Y-111823857D01*
X111941714Y-111395285D01*
X111898857Y-111438142D01*
X111813142Y-111481000D01*
X111598857Y-111481000D01*
X111513142Y-111438142D01*
X111470285Y-111395285D01*
X111427428Y-111309571D01*
X111427428Y-111095285D01*
X111470285Y-111009571D01*
X111513142Y-110966714D01*
X111598857Y-110923857D01*
X111813142Y-110923857D01*
X111898857Y-110966714D01*
X111941714Y-111009571D01*
X145547571Y-121898142D02*
X145504714Y-121941000D01*
X145419000Y-121983857D01*
X145204714Y-121983857D01*
X145119000Y-121941000D01*
X145076142Y-121898142D01*
X145033285Y-121812428D01*
X145033285Y-121726714D01*
X145076142Y-121598142D01*
X145590428Y-121083857D01*
X145033285Y-121083857D01*
X144261857Y-121983857D02*
X144433285Y-121983857D01*
X144519000Y-121941000D01*
X144561857Y-121898142D01*
X144647571Y-121769571D01*
X144690428Y-121598142D01*
X144690428Y-121255285D01*
X144647571Y-121169571D01*
X144604714Y-121126714D01*
X144519000Y-121083857D01*
X144347571Y-121083857D01*
X144261857Y-121126714D01*
X144219000Y-121169571D01*
X144176142Y-121255285D01*
X144176142Y-121469571D01*
X144219000Y-121555285D01*
X144261857Y-121598142D01*
X144347571Y-121641000D01*
X144519000Y-121641000D01*
X144604714Y-121598142D01*
X144647571Y-121555285D01*
X144690428Y-121469571D01*
D11*
X141066857Y-146638571D02*
X140466857Y-146638571D01*
X140209714Y-145695714D02*
X141066857Y-145695714D01*
X141066857Y-147495714D01*
X140209714Y-147495714D01*
X139524000Y-145781428D02*
X139266857Y-145695714D01*
X138838285Y-145695714D01*
X138666857Y-145781428D01*
X138581142Y-145867142D01*
X138495428Y-146038571D01*
X138495428Y-146210000D01*
X138581142Y-146381428D01*
X138666857Y-146467142D01*
X138838285Y-146552857D01*
X139181142Y-146638571D01*
X139352571Y-146724285D01*
X139438285Y-146810000D01*
X139524000Y-146981428D01*
X139524000Y-147152857D01*
X139438285Y-147324285D01*
X139352571Y-147410000D01*
X139181142Y-147495714D01*
X138752571Y-147495714D01*
X138495428Y-147410000D01*
X137724000Y-145695714D02*
X137724000Y-147495714D01*
X137038285Y-147495714D01*
X136866857Y-147410000D01*
X136781142Y-147324285D01*
X136695428Y-147152857D01*
X136695428Y-146895714D01*
X136781142Y-146724285D01*
X136866857Y-146638571D01*
X137038285Y-146552857D01*
X137724000Y-146552857D01*
X136095428Y-147495714D02*
X134981142Y-147495714D01*
X135581142Y-146810000D01*
X135324000Y-146810000D01*
X135152571Y-146724285D01*
X135066857Y-146638571D01*
X134981142Y-146467142D01*
X134981142Y-146038571D01*
X135066857Y-145867142D01*
X135152571Y-145781428D01*
X135324000Y-145695714D01*
X135838285Y-145695714D01*
X136009714Y-145781428D01*
X136095428Y-145867142D01*
X134295428Y-147324285D02*
X134209714Y-147410000D01*
X134038285Y-147495714D01*
X133609714Y-147495714D01*
X133438285Y-147410000D01*
X133352571Y-147324285D01*
X133266857Y-147152857D01*
X133266857Y-146981428D01*
X133352571Y-146724285D01*
X134381142Y-145695714D01*
X133266857Y-145695714D01*
X132495428Y-146381428D02*
X131124000Y-146381428D01*
X130438285Y-147495714D02*
X130009714Y-145695714D01*
X129666857Y-146981428D01*
X129324000Y-145695714D01*
X128895428Y-147495714D01*
X127181142Y-145695714D02*
X127781142Y-146552857D01*
X128209714Y-145695714D02*
X128209714Y-147495714D01*
X127524000Y-147495714D01*
X127352571Y-147410000D01*
X127266857Y-147324285D01*
X127181142Y-147152857D01*
X127181142Y-146895714D01*
X127266857Y-146724285D01*
X127352571Y-146638571D01*
X127524000Y-146552857D01*
X128209714Y-146552857D01*
X126066857Y-147495714D02*
X125724000Y-147495714D01*
X125552571Y-147410000D01*
X125381142Y-147238571D01*
X125295428Y-146895714D01*
X125295428Y-146295714D01*
X125381142Y-145952857D01*
X125552571Y-145781428D01*
X125724000Y-145695714D01*
X126066857Y-145695714D01*
X126238285Y-145781428D01*
X126409714Y-145952857D01*
X126495428Y-146295714D01*
X126495428Y-146895714D01*
X126409714Y-147238571D01*
X126238285Y-147410000D01*
X126066857Y-147495714D01*
X124181142Y-147495714D02*
X123838285Y-147495714D01*
X123666857Y-147410000D01*
X123495428Y-147238571D01*
X123409714Y-146895714D01*
X123409714Y-146295714D01*
X123495428Y-145952857D01*
X123666857Y-145781428D01*
X123838285Y-145695714D01*
X124181142Y-145695714D01*
X124352571Y-145781428D01*
X124524000Y-145952857D01*
X124609714Y-146295714D01*
X124609714Y-146895714D01*
X124524000Y-147238571D01*
X124352571Y-147410000D01*
X124181142Y-147495714D01*
X122638285Y-145695714D02*
X122638285Y-147495714D01*
X122038285Y-146210000D01*
X121438285Y-147495714D01*
X121438285Y-145695714D01*
X120581142Y-146381428D02*
X119209714Y-146381428D01*
X118524000Y-147495714D02*
X117409714Y-147495714D01*
X118009714Y-146810000D01*
X117752571Y-146810000D01*
X117581142Y-146724285D01*
X117495428Y-146638571D01*
X117409714Y-146467142D01*
X117409714Y-146038571D01*
X117495428Y-145867142D01*
X117581142Y-145781428D01*
X117752571Y-145695714D01*
X118266857Y-145695714D01*
X118438285Y-145781428D01*
X118524000Y-145867142D01*
X116724000Y-147324285D02*
X116638285Y-147410000D01*
X116466857Y-147495714D01*
X116038285Y-147495714D01*
X115866857Y-147410000D01*
X115781142Y-147324285D01*
X115695428Y-147152857D01*
X115695428Y-146981428D01*
X115781142Y-146724285D01*
X116809714Y-145695714D01*
X115695428Y-145695714D01*
D10*
X112929000Y-103389571D02*
X112971857Y-103346714D01*
X113100428Y-103303857D01*
X113186142Y-103303857D01*
X113314714Y-103346714D01*
X113400428Y-103432428D01*
X113443285Y-103518142D01*
X113486142Y-103689571D01*
X113486142Y-103818142D01*
X113443285Y-103989571D01*
X113400428Y-104075285D01*
X113314714Y-104161000D01*
X113186142Y-104203857D01*
X113100428Y-104203857D01*
X112971857Y-104161000D01*
X112929000Y-104118142D01*
X112114714Y-103303857D02*
X112543285Y-103303857D01*
X112543285Y-104203857D01*
X111814714Y-103303857D02*
X111814714Y-104203857D01*
X111300428Y-103303857D02*
X111686142Y-103818142D01*
X111300428Y-104203857D02*
X111814714Y-103689571D01*
X145504714Y-141748285D02*
X145204714Y-141748285D01*
X145076142Y-141276857D02*
X145504714Y-141276857D01*
X145504714Y-142176857D01*
X145076142Y-142176857D01*
X144690428Y-141276857D02*
X144690428Y-142176857D01*
X144176142Y-141276857D01*
X144176142Y-142176857D01*
X145420571Y-105886714D02*
X145292000Y-105843857D01*
X145077714Y-105843857D01*
X144992000Y-105886714D01*
X144949142Y-105929571D01*
X144906285Y-106015285D01*
X144906285Y-106101000D01*
X144949142Y-106186714D01*
X144992000Y-106229571D01*
X145077714Y-106272428D01*
X145249142Y-106315285D01*
X145334857Y-106358142D01*
X145377714Y-106401000D01*
X145420571Y-106486714D01*
X145420571Y-106572428D01*
X145377714Y-106658142D01*
X145334857Y-106701000D01*
X145249142Y-106743857D01*
X145034857Y-106743857D01*
X144906285Y-106701000D01*
X144520571Y-105843857D02*
X144520571Y-106743857D01*
X144306285Y-106743857D01*
X144177714Y-106701000D01*
X144092000Y-106615285D01*
X144049142Y-106529571D01*
X144006285Y-106358142D01*
X144006285Y-106229571D01*
X144049142Y-106058142D01*
X144092000Y-105972428D01*
X144177714Y-105886714D01*
X144306285Y-105843857D01*
X144520571Y-105843857D01*
X143706285Y-106743857D02*
X143149142Y-106743857D01*
X143449142Y-106401000D01*
X143320571Y-106401000D01*
X143234857Y-106358142D01*
X143192000Y-106315285D01*
X143149142Y-106229571D01*
X143149142Y-106015285D01*
X143192000Y-105929571D01*
X143234857Y-105886714D01*
X143320571Y-105843857D01*
X143577714Y-105843857D01*
X143663428Y-105886714D01*
X143706285Y-105929571D01*
X113313142Y-147341000D02*
X113398857Y-147383857D01*
X113527428Y-147383857D01*
X113656000Y-147341000D01*
X113741714Y-147255285D01*
X113784571Y-147169571D01*
X113827428Y-146998142D01*
X113827428Y-146869571D01*
X113784571Y-146698142D01*
X113741714Y-146612428D01*
X113656000Y-146526714D01*
X113527428Y-146483857D01*
X113441714Y-146483857D01*
X113313142Y-146526714D01*
X113270285Y-146569571D01*
X113270285Y-146869571D01*
X113441714Y-146869571D01*
X112884571Y-146483857D02*
X112884571Y-147383857D01*
X112370285Y-146483857D01*
X112370285Y-147383857D01*
X111941714Y-146483857D02*
X111941714Y-147383857D01*
X111727428Y-147383857D01*
X111598857Y-147341000D01*
X111513142Y-147255285D01*
X111470285Y-147169571D01*
X111427428Y-146998142D01*
X111427428Y-146869571D01*
X111470285Y-146698142D01*
X111513142Y-146612428D01*
X111598857Y-146526714D01*
X111727428Y-146483857D01*
X111941714Y-146483857D01*
X114470285Y-139636857D02*
X113956000Y-139636857D01*
X114213142Y-138736857D02*
X114213142Y-139636857D01*
X113741714Y-139636857D02*
X113141714Y-138736857D01*
X113141714Y-139636857D02*
X113741714Y-138736857D01*
X112798857Y-138736857D02*
X112798857Y-139636857D01*
X112584571Y-139636857D01*
X112456000Y-139594000D01*
X112370285Y-139508285D01*
X112327428Y-139422571D01*
X112284571Y-139251142D01*
X112284571Y-139122571D01*
X112327428Y-138951142D01*
X112370285Y-138865428D01*
X112456000Y-138779714D01*
X112584571Y-138736857D01*
X112798857Y-138736857D01*
X111727428Y-139636857D02*
X111641714Y-139636857D01*
X111556000Y-139594000D01*
X111513142Y-139551142D01*
X111470285Y-139465428D01*
X111427428Y-139294000D01*
X111427428Y-139079714D01*
X111470285Y-138908285D01*
X111513142Y-138822571D01*
X111556000Y-138779714D01*
X111641714Y-138736857D01*
X111727428Y-138736857D01*
X111813142Y-138779714D01*
X111856000Y-138822571D01*
X111898857Y-138908285D01*
X111941714Y-139079714D01*
X111941714Y-139294000D01*
X111898857Y-139465428D01*
X111856000Y-139551142D01*
X111813142Y-139594000D01*
X111727428Y-139636857D01*
X145033285Y-147341000D02*
X145119000Y-147383857D01*
X145247571Y-147383857D01*
X145376142Y-147341000D01*
X145461857Y-147255285D01*
X145504714Y-147169571D01*
X145547571Y-146998142D01*
X145547571Y-146869571D01*
X145504714Y-146698142D01*
X145461857Y-146612428D01*
X145376142Y-146526714D01*
X145247571Y-146483857D01*
X145161857Y-146483857D01*
X145033285Y-146526714D01*
X144990428Y-146569571D01*
X144990428Y-146869571D01*
X145161857Y-146869571D01*
X144604714Y-146483857D02*
X144604714Y-147383857D01*
X144090428Y-146483857D01*
X144090428Y-147383857D01*
X143661857Y-146483857D02*
X143661857Y-147383857D01*
X143447571Y-147383857D01*
X143319000Y-147341000D01*
X143233285Y-147255285D01*
X143190428Y-147169571D01*
X143147571Y-146998142D01*
X143147571Y-146869571D01*
X143190428Y-146698142D01*
X143233285Y-146612428D01*
X143319000Y-146526714D01*
X143447571Y-146483857D01*
X143661857Y-146483857D01*
X112798857Y-142218142D02*
X112756000Y-142261000D01*
X112670285Y-142303857D01*
X112456000Y-142303857D01*
X112370285Y-142261000D01*
X112327428Y-142218142D01*
X112284571Y-142132428D01*
X112284571Y-142046714D01*
X112327428Y-141918142D01*
X112841714Y-141403857D01*
X112284571Y-141403857D01*
X111941714Y-142218142D02*
X111898857Y-142261000D01*
X111813142Y-142303857D01*
X111598857Y-142303857D01*
X111513142Y-142261000D01*
X111470285Y-142218142D01*
X111427428Y-142132428D01*
X111427428Y-142046714D01*
X111470285Y-141918142D01*
X111984571Y-141403857D01*
X111427428Y-141403857D01*
X114041714Y-136323857D02*
X114341714Y-136752428D01*
X114556000Y-136323857D02*
X114556000Y-137223857D01*
X114213142Y-137223857D01*
X114127428Y-137181000D01*
X114084571Y-137138142D01*
X114041714Y-137052428D01*
X114041714Y-136923857D01*
X114084571Y-136838142D01*
X114127428Y-136795285D01*
X114213142Y-136752428D01*
X114556000Y-136752428D01*
X113741714Y-137223857D02*
X113141714Y-136323857D01*
X113141714Y-137223857D02*
X113741714Y-136323857D01*
X112798857Y-136323857D02*
X112798857Y-137223857D01*
X112584571Y-137223857D01*
X112456000Y-137181000D01*
X112370285Y-137095285D01*
X112327428Y-137009571D01*
X112284571Y-136838142D01*
X112284571Y-136709571D01*
X112327428Y-136538142D01*
X112370285Y-136452428D01*
X112456000Y-136366714D01*
X112584571Y-136323857D01*
X112798857Y-136323857D01*
X111727428Y-137223857D02*
X111641714Y-137223857D01*
X111556000Y-137181000D01*
X111513142Y-137138142D01*
X111470285Y-137052428D01*
X111427428Y-136881000D01*
X111427428Y-136666714D01*
X111470285Y-136495285D01*
X111513142Y-136409571D01*
X111556000Y-136366714D01*
X111641714Y-136323857D01*
X111727428Y-136323857D01*
X111813142Y-136366714D01*
X111856000Y-136409571D01*
X111898857Y-136495285D01*
X111941714Y-136666714D01*
X111941714Y-136881000D01*
X111898857Y-137052428D01*
X111856000Y-137138142D01*
X111813142Y-137181000D01*
X111727428Y-137223857D01*
X145590428Y-144843857D02*
X145033285Y-144843857D01*
X145333285Y-144501000D01*
X145204714Y-144501000D01*
X145119000Y-144458142D01*
X145076142Y-144415285D01*
X145033285Y-144329571D01*
X145033285Y-144115285D01*
X145076142Y-144029571D01*
X145119000Y-143986714D01*
X145204714Y-143943857D01*
X145461857Y-143943857D01*
X145547571Y-143986714D01*
X145590428Y-144029571D01*
X144776142Y-144843857D02*
X144476142Y-143943857D01*
X144176142Y-144843857D01*
X143961857Y-144843857D02*
X143404714Y-144843857D01*
X143704714Y-144501000D01*
X143576142Y-144501000D01*
X143490428Y-144458142D01*
X143447571Y-144415285D01*
X143404714Y-144329571D01*
X143404714Y-144115285D01*
X143447571Y-144029571D01*
X143490428Y-143986714D01*
X143576142Y-143943857D01*
X143833285Y-143943857D01*
X143919000Y-143986714D01*
X143961857Y-144029571D01*
X111727428Y-116903857D02*
X111641714Y-116903857D01*
X111556000Y-116861000D01*
X111513142Y-116818142D01*
X111470285Y-116732428D01*
X111427428Y-116561000D01*
X111427428Y-116346714D01*
X111470285Y-116175285D01*
X111513142Y-116089571D01*
X111556000Y-116046714D01*
X111641714Y-116003857D01*
X111727428Y-116003857D01*
X111813142Y-116046714D01*
X111856000Y-116089571D01*
X111898857Y-116175285D01*
X111941714Y-116346714D01*
X111941714Y-116561000D01*
X111898857Y-116732428D01*
X111856000Y-116818142D01*
X111813142Y-116861000D01*
X111727428Y-116903857D01*
X113698857Y-108426714D02*
X113570285Y-108383857D01*
X113356000Y-108383857D01*
X113270285Y-108426714D01*
X113227428Y-108469571D01*
X113184571Y-108555285D01*
X113184571Y-108641000D01*
X113227428Y-108726714D01*
X113270285Y-108769571D01*
X113356000Y-108812428D01*
X113527428Y-108855285D01*
X113613142Y-108898142D01*
X113656000Y-108941000D01*
X113698857Y-109026714D01*
X113698857Y-109112428D01*
X113656000Y-109198142D01*
X113613142Y-109241000D01*
X113527428Y-109283857D01*
X113313142Y-109283857D01*
X113184571Y-109241000D01*
X112798857Y-108383857D02*
X112798857Y-109283857D01*
X112584571Y-109283857D01*
X112456000Y-109241000D01*
X112370285Y-109155285D01*
X112327428Y-109069571D01*
X112284571Y-108898142D01*
X112284571Y-108769571D01*
X112327428Y-108598142D01*
X112370285Y-108512428D01*
X112456000Y-108426714D01*
X112584571Y-108383857D01*
X112798857Y-108383857D01*
X111427428Y-108383857D02*
X111941714Y-108383857D01*
X111684571Y-108383857D02*
X111684571Y-109283857D01*
X111770285Y-109155285D01*
X111856000Y-109069571D01*
X111941714Y-109026714D01*
X123406714Y-102541857D02*
X123406714Y-103441857D01*
X123192428Y-103441857D01*
X123063857Y-103399000D01*
X122978142Y-103313285D01*
X122935285Y-103227571D01*
X122892428Y-103056142D01*
X122892428Y-102927571D01*
X122935285Y-102756142D01*
X122978142Y-102670428D01*
X123063857Y-102584714D01*
X123192428Y-102541857D01*
X123406714Y-102541857D01*
X122335285Y-103441857D02*
X122163857Y-103441857D01*
X122078142Y-103399000D01*
X121992428Y-103313285D01*
X121949571Y-103141857D01*
X121949571Y-102841857D01*
X121992428Y-102670428D01*
X122078142Y-102584714D01*
X122163857Y-102541857D01*
X122335285Y-102541857D01*
X122421000Y-102584714D01*
X122506714Y-102670428D01*
X122549571Y-102841857D01*
X122549571Y-103141857D01*
X122506714Y-103313285D01*
X122421000Y-103399000D01*
X122335285Y-103441857D01*
X121649571Y-103441857D02*
X121435285Y-102541857D01*
X121263857Y-103184714D01*
X121092428Y-102541857D01*
X120878142Y-103441857D01*
X120535285Y-102541857D02*
X120535285Y-103441857D01*
X120021000Y-102541857D01*
X120021000Y-103441857D01*
X119163857Y-102541857D02*
X119592428Y-102541857D01*
X119592428Y-103441857D01*
X118692428Y-103441857D02*
X118521000Y-103441857D01*
X118435285Y-103399000D01*
X118349571Y-103313285D01*
X118306714Y-103141857D01*
X118306714Y-102841857D01*
X118349571Y-102670428D01*
X118435285Y-102584714D01*
X118521000Y-102541857D01*
X118692428Y-102541857D01*
X118778142Y-102584714D01*
X118863857Y-102670428D01*
X118906714Y-102841857D01*
X118906714Y-103141857D01*
X118863857Y-103313285D01*
X118778142Y-103399000D01*
X118692428Y-103441857D01*
X117963857Y-102799000D02*
X117535285Y-102799000D01*
X118049571Y-102541857D02*
X117749571Y-103441857D01*
X117449571Y-102541857D01*
X117149571Y-102541857D02*
X117149571Y-103441857D01*
X116935285Y-103441857D01*
X116806714Y-103399000D01*
X116721000Y-103313285D01*
X116678142Y-103227571D01*
X116635285Y-103056142D01*
X116635285Y-102927571D01*
X116678142Y-102756142D01*
X116721000Y-102670428D01*
X116806714Y-102584714D01*
X116935285Y-102541857D01*
X117149571Y-102541857D01*
X144863428Y-103389571D02*
X144906285Y-103346714D01*
X145034857Y-103303857D01*
X145120571Y-103303857D01*
X145249142Y-103346714D01*
X145334857Y-103432428D01*
X145377714Y-103518142D01*
X145420571Y-103689571D01*
X145420571Y-103818142D01*
X145377714Y-103989571D01*
X145334857Y-104075285D01*
X145249142Y-104161000D01*
X145120571Y-104203857D01*
X145034857Y-104203857D01*
X144906285Y-104161000D01*
X144863428Y-104118142D01*
X144477714Y-103303857D02*
X144477714Y-104203857D01*
X144177714Y-103561000D01*
X143877714Y-104203857D01*
X143877714Y-103303857D01*
X143449142Y-103303857D02*
X143449142Y-104203857D01*
X143234857Y-104203857D01*
X143106285Y-104161000D01*
X143020571Y-104075285D01*
X142977714Y-103989571D01*
X142934857Y-103818142D01*
X142934857Y-103689571D01*
X142977714Y-103518142D01*
X143020571Y-103432428D01*
X143106285Y-103346714D01*
X143234857Y-103303857D01*
X143449142Y-103303857D01*
X145547571Y-136239714D02*
X145419000Y-136196857D01*
X145204714Y-136196857D01*
X145119000Y-136239714D01*
X145076142Y-136282571D01*
X145033285Y-136368285D01*
X145033285Y-136454000D01*
X145076142Y-136539714D01*
X145119000Y-136582571D01*
X145204714Y-136625428D01*
X145376142Y-136668285D01*
X145461857Y-136711142D01*
X145504714Y-136754000D01*
X145547571Y-136839714D01*
X145547571Y-136925428D01*
X145504714Y-137011142D01*
X145461857Y-137054000D01*
X145376142Y-137096857D01*
X145161857Y-137096857D01*
X145033285Y-137054000D01*
X144776142Y-137096857D02*
X144476142Y-136196857D01*
X144176142Y-137096857D01*
X143876142Y-136196857D02*
X143876142Y-137096857D01*
X143361857Y-136196857D01*
X143361857Y-137096857D01*
X111513142Y-119143857D02*
X111513142Y-118543857D01*
X111727428Y-119486714D02*
X111941714Y-118843857D01*
X111384571Y-118843857D01*
X113698857Y-105886714D02*
X113570285Y-105843857D01*
X113356000Y-105843857D01*
X113270285Y-105886714D01*
X113227428Y-105929571D01*
X113184571Y-106015285D01*
X113184571Y-106101000D01*
X113227428Y-106186714D01*
X113270285Y-106229571D01*
X113356000Y-106272428D01*
X113527428Y-106315285D01*
X113613142Y-106358142D01*
X113656000Y-106401000D01*
X113698857Y-106486714D01*
X113698857Y-106572428D01*
X113656000Y-106658142D01*
X113613142Y-106701000D01*
X113527428Y-106743857D01*
X113313142Y-106743857D01*
X113184571Y-106701000D01*
X112798857Y-105843857D02*
X112798857Y-106743857D01*
X112584571Y-106743857D01*
X112456000Y-106701000D01*
X112370285Y-106615285D01*
X112327428Y-106529571D01*
X112284571Y-106358142D01*
X112284571Y-106229571D01*
X112327428Y-106058142D01*
X112370285Y-105972428D01*
X112456000Y-105886714D01*
X112584571Y-105843857D01*
X112798857Y-105843857D01*
X111727428Y-106743857D02*
X111641714Y-106743857D01*
X111556000Y-106701000D01*
X111513142Y-106658142D01*
X111470285Y-106572428D01*
X111427428Y-106401000D01*
X111427428Y-106186714D01*
X111470285Y-106015285D01*
X111513142Y-105929571D01*
X111556000Y-105886714D01*
X111641714Y-105843857D01*
X111727428Y-105843857D01*
X111813142Y-105886714D01*
X111856000Y-105929571D01*
X111898857Y-106015285D01*
X111941714Y-106186714D01*
X111941714Y-106401000D01*
X111898857Y-106572428D01*
X111856000Y-106658142D01*
X111813142Y-106701000D01*
X111727428Y-106743857D01*
X144906285Y-111050857D02*
X145420571Y-111050857D01*
X145163428Y-111050857D02*
X145163428Y-111950857D01*
X145249142Y-111822285D01*
X145334857Y-111736571D01*
X145420571Y-111693714D01*
X144606285Y-111950857D02*
X144049142Y-111950857D01*
X144349142Y-111608000D01*
X144220571Y-111608000D01*
X144134857Y-111565142D01*
X144092000Y-111522285D01*
X144049142Y-111436571D01*
X144049142Y-111222285D01*
X144092000Y-111136571D01*
X144134857Y-111093714D01*
X144220571Y-111050857D01*
X144477714Y-111050857D01*
X144563428Y-111093714D01*
X144606285Y-111136571D01*
X145547571Y-124438142D02*
X145504714Y-124481000D01*
X145419000Y-124523857D01*
X145204714Y-124523857D01*
X145119000Y-124481000D01*
X145076142Y-124438142D01*
X145033285Y-124352428D01*
X145033285Y-124266714D01*
X145076142Y-124138142D01*
X145590428Y-123623857D01*
X145033285Y-123623857D01*
X144219000Y-124523857D02*
X144647571Y-124523857D01*
X144690428Y-124095285D01*
X144647571Y-124138142D01*
X144561857Y-124181000D01*
X144347571Y-124181000D01*
X144261857Y-124138142D01*
X144219000Y-124095285D01*
X144176142Y-124009571D01*
X144176142Y-123795285D01*
X144219000Y-123709571D01*
X144261857Y-123666714D01*
X144347571Y-123623857D01*
X144561857Y-123623857D01*
X144647571Y-123666714D01*
X144690428Y-123709571D01*
X111470285Y-126936857D02*
X111898857Y-126936857D01*
X111941714Y-126508285D01*
X111898857Y-126551142D01*
X111813142Y-126594000D01*
X111598857Y-126594000D01*
X111513142Y-126551142D01*
X111470285Y-126508285D01*
X111427428Y-126422571D01*
X111427428Y-126208285D01*
X111470285Y-126122571D01*
X111513142Y-126079714D01*
X111598857Y-126036857D01*
X111813142Y-126036857D01*
X111898857Y-126079714D01*
X111941714Y-126122571D01*
X145420571Y-108426714D02*
X145292000Y-108383857D01*
X145077714Y-108383857D01*
X144992000Y-108426714D01*
X144949142Y-108469571D01*
X144906285Y-108555285D01*
X144906285Y-108641000D01*
X144949142Y-108726714D01*
X144992000Y-108769571D01*
X145077714Y-108812428D01*
X145249142Y-108855285D01*
X145334857Y-108898142D01*
X145377714Y-108941000D01*
X145420571Y-109026714D01*
X145420571Y-109112428D01*
X145377714Y-109198142D01*
X145334857Y-109241000D01*
X145249142Y-109283857D01*
X145034857Y-109283857D01*
X144906285Y-109241000D01*
X144520571Y-108383857D02*
X144520571Y-109283857D01*
X144306285Y-109283857D01*
X144177714Y-109241000D01*
X144092000Y-109155285D01*
X144049142Y-109069571D01*
X144006285Y-108898142D01*
X144006285Y-108769571D01*
X144049142Y-108598142D01*
X144092000Y-108512428D01*
X144177714Y-108426714D01*
X144306285Y-108383857D01*
X144520571Y-108383857D01*
X143663428Y-109198142D02*
X143620571Y-109241000D01*
X143534857Y-109283857D01*
X143320571Y-109283857D01*
X143234857Y-109241000D01*
X143192000Y-109198142D01*
X143149142Y-109112428D01*
X143149142Y-109026714D01*
X143192000Y-108898142D01*
X143706285Y-108383857D01*
X143149142Y-108383857D01*
X145590428Y-132143857D02*
X145033285Y-132143857D01*
X145333285Y-131801000D01*
X145204714Y-131801000D01*
X145119000Y-131758142D01*
X145076142Y-131715285D01*
X145033285Y-131629571D01*
X145033285Y-131415285D01*
X145076142Y-131329571D01*
X145119000Y-131286714D01*
X145204714Y-131243857D01*
X145461857Y-131243857D01*
X145547571Y-131286714D01*
X145590428Y-131329571D01*
X144219000Y-132143857D02*
X144647571Y-132143857D01*
X144690428Y-131715285D01*
X144647571Y-131758142D01*
X144561857Y-131801000D01*
X144347571Y-131801000D01*
X144261857Y-131758142D01*
X144219000Y-131715285D01*
X144176142Y-131629571D01*
X144176142Y-131415285D01*
X144219000Y-131329571D01*
X144261857Y-131286714D01*
X144347571Y-131243857D01*
X144561857Y-131243857D01*
X144647571Y-131286714D01*
X144690428Y-131329571D01*
X89247571Y-138779714D02*
X89119000Y-138736857D01*
X88904714Y-138736857D01*
X88819000Y-138779714D01*
X88776142Y-138822571D01*
X88733285Y-138908285D01*
X88733285Y-138994000D01*
X88776142Y-139079714D01*
X88819000Y-139122571D01*
X88904714Y-139165428D01*
X89076142Y-139208285D01*
X89161857Y-139251142D01*
X89204714Y-139294000D01*
X89247571Y-139379714D01*
X89247571Y-139465428D01*
X89204714Y-139551142D01*
X89161857Y-139594000D01*
X89076142Y-139636857D01*
X88861857Y-139636857D01*
X88733285Y-139594000D01*
X88476142Y-139636857D02*
X88176142Y-138736857D01*
X87876142Y-139636857D01*
X87576142Y-138736857D02*
X87576142Y-139636857D01*
X87233285Y-139636857D01*
X87147571Y-139594000D01*
X87104714Y-139551142D01*
X87061857Y-139465428D01*
X87061857Y-139336857D01*
X87104714Y-139251142D01*
X87147571Y-139208285D01*
X87233285Y-139165428D01*
X87576142Y-139165428D01*
X55984571Y-130989857D02*
X56498857Y-130989857D01*
X56241714Y-130989857D02*
X56241714Y-131889857D01*
X56327428Y-131761285D01*
X56413142Y-131675571D01*
X56498857Y-131632714D01*
X55556000Y-130989857D02*
X55384571Y-130989857D01*
X55298857Y-131032714D01*
X55256000Y-131075571D01*
X55170285Y-131204142D01*
X55127428Y-131375571D01*
X55127428Y-131718428D01*
X55170285Y-131804142D01*
X55213142Y-131847000D01*
X55298857Y-131889857D01*
X55470285Y-131889857D01*
X55556000Y-131847000D01*
X55598857Y-131804142D01*
X55641714Y-131718428D01*
X55641714Y-131504142D01*
X55598857Y-131418428D01*
X55556000Y-131375571D01*
X55470285Y-131332714D01*
X55298857Y-131332714D01*
X55213142Y-131375571D01*
X55170285Y-131418428D01*
X55127428Y-131504142D01*
X89247571Y-119358142D02*
X89204714Y-119401000D01*
X89119000Y-119443857D01*
X88904714Y-119443857D01*
X88819000Y-119401000D01*
X88776142Y-119358142D01*
X88733285Y-119272428D01*
X88733285Y-119186714D01*
X88776142Y-119058142D01*
X89290428Y-118543857D01*
X88733285Y-118543857D01*
X88433285Y-119443857D02*
X87833285Y-119443857D01*
X88219000Y-118543857D01*
X55984571Y-121210857D02*
X56498857Y-121210857D01*
X56241714Y-121210857D02*
X56241714Y-122110857D01*
X56327428Y-121982285D01*
X56413142Y-121896571D01*
X56498857Y-121853714D01*
X55213142Y-122110857D02*
X55384571Y-122110857D01*
X55470285Y-122068000D01*
X55513142Y-122025142D01*
X55598857Y-121896571D01*
X55641714Y-121725142D01*
X55641714Y-121382285D01*
X55598857Y-121296571D01*
X55556000Y-121253714D01*
X55470285Y-121210857D01*
X55298857Y-121210857D01*
X55213142Y-121253714D01*
X55170285Y-121296571D01*
X55127428Y-121382285D01*
X55127428Y-121596571D01*
X55170285Y-121682285D01*
X55213142Y-121725142D01*
X55298857Y-121768000D01*
X55470285Y-121768000D01*
X55556000Y-121725142D01*
X55598857Y-121682285D01*
X55641714Y-121596571D01*
X55641714Y-114278142D02*
X55598857Y-114321000D01*
X55513142Y-114363857D01*
X55298857Y-114363857D01*
X55213142Y-114321000D01*
X55170285Y-114278142D01*
X55127428Y-114192428D01*
X55127428Y-114106714D01*
X55170285Y-113978142D01*
X55684571Y-113463857D01*
X55127428Y-113463857D01*
X55984571Y-128576857D02*
X56498857Y-128576857D01*
X56241714Y-128576857D02*
X56241714Y-129476857D01*
X56327428Y-129348285D01*
X56413142Y-129262571D01*
X56498857Y-129219714D01*
X55470285Y-129091142D02*
X55556000Y-129134000D01*
X55598857Y-129176857D01*
X55641714Y-129262571D01*
X55641714Y-129305428D01*
X55598857Y-129391142D01*
X55556000Y-129434000D01*
X55470285Y-129476857D01*
X55298857Y-129476857D01*
X55213142Y-129434000D01*
X55170285Y-129391142D01*
X55127428Y-129305428D01*
X55127428Y-129262571D01*
X55170285Y-129176857D01*
X55213142Y-129134000D01*
X55298857Y-129091142D01*
X55470285Y-129091142D01*
X55556000Y-129048285D01*
X55598857Y-129005428D01*
X55641714Y-128919714D01*
X55641714Y-128748285D01*
X55598857Y-128662571D01*
X55556000Y-128619714D01*
X55470285Y-128576857D01*
X55298857Y-128576857D01*
X55213142Y-128619714D01*
X55170285Y-128662571D01*
X55127428Y-128748285D01*
X55127428Y-128919714D01*
X55170285Y-129005428D01*
X55213142Y-129048285D01*
X55298857Y-129091142D01*
X56498857Y-134471142D02*
X56456000Y-134514000D01*
X56370285Y-134556857D01*
X56156000Y-134556857D01*
X56070285Y-134514000D01*
X56027428Y-134471142D01*
X55984571Y-134385428D01*
X55984571Y-134299714D01*
X56027428Y-134171142D01*
X56541714Y-133656857D01*
X55984571Y-133656857D01*
X55127428Y-133656857D02*
X55641714Y-133656857D01*
X55384571Y-133656857D02*
X55384571Y-134556857D01*
X55470285Y-134428285D01*
X55556000Y-134342571D01*
X55641714Y-134299714D01*
X55213142Y-119143857D02*
X55213142Y-118543857D01*
X55427428Y-119486714D02*
X55641714Y-118843857D01*
X55084571Y-118843857D01*
X89204714Y-141748285D02*
X88904714Y-141748285D01*
X88776142Y-141276857D02*
X89204714Y-141276857D01*
X89204714Y-142176857D01*
X88776142Y-142176857D01*
X88390428Y-141276857D02*
X88390428Y-142176857D01*
X87876142Y-141276857D01*
X87876142Y-142176857D01*
X88606285Y-111050857D02*
X89120571Y-111050857D01*
X88863428Y-111050857D02*
X88863428Y-111950857D01*
X88949142Y-111822285D01*
X89034857Y-111736571D01*
X89120571Y-111693714D01*
X88306285Y-111950857D02*
X87749142Y-111950857D01*
X88049142Y-111608000D01*
X87920571Y-111608000D01*
X87834857Y-111565142D01*
X87792000Y-111522285D01*
X87749142Y-111436571D01*
X87749142Y-111222285D01*
X87792000Y-111136571D01*
X87834857Y-111093714D01*
X87920571Y-111050857D01*
X88177714Y-111050857D01*
X88263428Y-111093714D01*
X88306285Y-111136571D01*
X89247571Y-124438142D02*
X89204714Y-124481000D01*
X89119000Y-124523857D01*
X88904714Y-124523857D01*
X88819000Y-124481000D01*
X88776142Y-124438142D01*
X88733285Y-124352428D01*
X88733285Y-124266714D01*
X88776142Y-124138142D01*
X89290428Y-123623857D01*
X88733285Y-123623857D01*
X87919000Y-124523857D02*
X88347571Y-124523857D01*
X88390428Y-124095285D01*
X88347571Y-124138142D01*
X88261857Y-124181000D01*
X88047571Y-124181000D01*
X87961857Y-124138142D01*
X87919000Y-124095285D01*
X87876142Y-124009571D01*
X87876142Y-123795285D01*
X87919000Y-123709571D01*
X87961857Y-123666714D01*
X88047571Y-123623857D01*
X88261857Y-123623857D01*
X88347571Y-123666714D01*
X88390428Y-123709571D01*
X55170285Y-126936857D02*
X55598857Y-126936857D01*
X55641714Y-126508285D01*
X55598857Y-126551142D01*
X55513142Y-126594000D01*
X55298857Y-126594000D01*
X55213142Y-126551142D01*
X55170285Y-126508285D01*
X55127428Y-126422571D01*
X55127428Y-126208285D01*
X55170285Y-126122571D01*
X55213142Y-126079714D01*
X55298857Y-126036857D01*
X55513142Y-126036857D01*
X55598857Y-126079714D01*
X55641714Y-126122571D01*
X89120571Y-105886714D02*
X88992000Y-105843857D01*
X88777714Y-105843857D01*
X88692000Y-105886714D01*
X88649142Y-105929571D01*
X88606285Y-106015285D01*
X88606285Y-106101000D01*
X88649142Y-106186714D01*
X88692000Y-106229571D01*
X88777714Y-106272428D01*
X88949142Y-106315285D01*
X89034857Y-106358142D01*
X89077714Y-106401000D01*
X89120571Y-106486714D01*
X89120571Y-106572428D01*
X89077714Y-106658142D01*
X89034857Y-106701000D01*
X88949142Y-106743857D01*
X88734857Y-106743857D01*
X88606285Y-106701000D01*
X88220571Y-105843857D02*
X88220571Y-106743857D01*
X88006285Y-106743857D01*
X87877714Y-106701000D01*
X87792000Y-106615285D01*
X87749142Y-106529571D01*
X87706285Y-106358142D01*
X87706285Y-106229571D01*
X87749142Y-106058142D01*
X87792000Y-105972428D01*
X87877714Y-105886714D01*
X88006285Y-105843857D01*
X88220571Y-105843857D01*
X87406285Y-106743857D02*
X86849142Y-106743857D01*
X87149142Y-106401000D01*
X87020571Y-106401000D01*
X86934857Y-106358142D01*
X86892000Y-106315285D01*
X86849142Y-106229571D01*
X86849142Y-106015285D01*
X86892000Y-105929571D01*
X86934857Y-105886714D01*
X87020571Y-105843857D01*
X87277714Y-105843857D01*
X87363428Y-105886714D01*
X87406285Y-105929571D01*
X89120571Y-108426714D02*
X88992000Y-108383857D01*
X88777714Y-108383857D01*
X88692000Y-108426714D01*
X88649142Y-108469571D01*
X88606285Y-108555285D01*
X88606285Y-108641000D01*
X88649142Y-108726714D01*
X88692000Y-108769571D01*
X88777714Y-108812428D01*
X88949142Y-108855285D01*
X89034857Y-108898142D01*
X89077714Y-108941000D01*
X89120571Y-109026714D01*
X89120571Y-109112428D01*
X89077714Y-109198142D01*
X89034857Y-109241000D01*
X88949142Y-109283857D01*
X88734857Y-109283857D01*
X88606285Y-109241000D01*
X88220571Y-108383857D02*
X88220571Y-109283857D01*
X88006285Y-109283857D01*
X87877714Y-109241000D01*
X87792000Y-109155285D01*
X87749142Y-109069571D01*
X87706285Y-108898142D01*
X87706285Y-108769571D01*
X87749142Y-108598142D01*
X87792000Y-108512428D01*
X87877714Y-108426714D01*
X88006285Y-108383857D01*
X88220571Y-108383857D01*
X87363428Y-109198142D02*
X87320571Y-109241000D01*
X87234857Y-109283857D01*
X87020571Y-109283857D01*
X86934857Y-109241000D01*
X86892000Y-109198142D01*
X86849142Y-109112428D01*
X86849142Y-109026714D01*
X86892000Y-108898142D01*
X87406285Y-108383857D01*
X86849142Y-108383857D01*
X88563428Y-103389571D02*
X88606285Y-103346714D01*
X88734857Y-103303857D01*
X88820571Y-103303857D01*
X88949142Y-103346714D01*
X89034857Y-103432428D01*
X89077714Y-103518142D01*
X89120571Y-103689571D01*
X89120571Y-103818142D01*
X89077714Y-103989571D01*
X89034857Y-104075285D01*
X88949142Y-104161000D01*
X88820571Y-104203857D01*
X88734857Y-104203857D01*
X88606285Y-104161000D01*
X88563428Y-104118142D01*
X88177714Y-103303857D02*
X88177714Y-104203857D01*
X87877714Y-103561000D01*
X87577714Y-104203857D01*
X87577714Y-103303857D01*
X87149142Y-103303857D02*
X87149142Y-104203857D01*
X86934857Y-104203857D01*
X86806285Y-104161000D01*
X86720571Y-104075285D01*
X86677714Y-103989571D01*
X86634857Y-103818142D01*
X86634857Y-103689571D01*
X86677714Y-103518142D01*
X86720571Y-103432428D01*
X86806285Y-103346714D01*
X86934857Y-103303857D01*
X87149142Y-103303857D01*
X56629000Y-103389571D02*
X56671857Y-103346714D01*
X56800428Y-103303857D01*
X56886142Y-103303857D01*
X57014714Y-103346714D01*
X57100428Y-103432428D01*
X57143285Y-103518142D01*
X57186142Y-103689571D01*
X57186142Y-103818142D01*
X57143285Y-103989571D01*
X57100428Y-104075285D01*
X57014714Y-104161000D01*
X56886142Y-104203857D01*
X56800428Y-104203857D01*
X56671857Y-104161000D01*
X56629000Y-104118142D01*
X55814714Y-103303857D02*
X56243285Y-103303857D01*
X56243285Y-104203857D01*
X55514714Y-103303857D02*
X55514714Y-104203857D01*
X55000428Y-103303857D02*
X55386142Y-103818142D01*
X55000428Y-104203857D02*
X55514714Y-103689571D01*
X57398857Y-105886714D02*
X57270285Y-105843857D01*
X57056000Y-105843857D01*
X56970285Y-105886714D01*
X56927428Y-105929571D01*
X56884571Y-106015285D01*
X56884571Y-106101000D01*
X56927428Y-106186714D01*
X56970285Y-106229571D01*
X57056000Y-106272428D01*
X57227428Y-106315285D01*
X57313142Y-106358142D01*
X57356000Y-106401000D01*
X57398857Y-106486714D01*
X57398857Y-106572428D01*
X57356000Y-106658142D01*
X57313142Y-106701000D01*
X57227428Y-106743857D01*
X57013142Y-106743857D01*
X56884571Y-106701000D01*
X56498857Y-105843857D02*
X56498857Y-106743857D01*
X56284571Y-106743857D01*
X56156000Y-106701000D01*
X56070285Y-106615285D01*
X56027428Y-106529571D01*
X55984571Y-106358142D01*
X55984571Y-106229571D01*
X56027428Y-106058142D01*
X56070285Y-105972428D01*
X56156000Y-105886714D01*
X56284571Y-105843857D01*
X56498857Y-105843857D01*
X55427428Y-106743857D02*
X55341714Y-106743857D01*
X55256000Y-106701000D01*
X55213142Y-106658142D01*
X55170285Y-106572428D01*
X55127428Y-106401000D01*
X55127428Y-106186714D01*
X55170285Y-106015285D01*
X55213142Y-105929571D01*
X55256000Y-105886714D01*
X55341714Y-105843857D01*
X55427428Y-105843857D01*
X55513142Y-105886714D01*
X55556000Y-105929571D01*
X55598857Y-106015285D01*
X55641714Y-106186714D01*
X55641714Y-106401000D01*
X55598857Y-106572428D01*
X55556000Y-106658142D01*
X55513142Y-106701000D01*
X55427428Y-106743857D01*
X57398857Y-108426714D02*
X57270285Y-108383857D01*
X57056000Y-108383857D01*
X56970285Y-108426714D01*
X56927428Y-108469571D01*
X56884571Y-108555285D01*
X56884571Y-108641000D01*
X56927428Y-108726714D01*
X56970285Y-108769571D01*
X57056000Y-108812428D01*
X57227428Y-108855285D01*
X57313142Y-108898142D01*
X57356000Y-108941000D01*
X57398857Y-109026714D01*
X57398857Y-109112428D01*
X57356000Y-109198142D01*
X57313142Y-109241000D01*
X57227428Y-109283857D01*
X57013142Y-109283857D01*
X56884571Y-109241000D01*
X56498857Y-108383857D02*
X56498857Y-109283857D01*
X56284571Y-109283857D01*
X56156000Y-109241000D01*
X56070285Y-109155285D01*
X56027428Y-109069571D01*
X55984571Y-108898142D01*
X55984571Y-108769571D01*
X56027428Y-108598142D01*
X56070285Y-108512428D01*
X56156000Y-108426714D01*
X56284571Y-108383857D01*
X56498857Y-108383857D01*
X55127428Y-108383857D02*
X55641714Y-108383857D01*
X55384571Y-108383857D02*
X55384571Y-109283857D01*
X55470285Y-109155285D01*
X55556000Y-109069571D01*
X55641714Y-109026714D01*
X55984571Y-110923857D02*
X56498857Y-110923857D01*
X56241714Y-110923857D02*
X56241714Y-111823857D01*
X56327428Y-111695285D01*
X56413142Y-111609571D01*
X56498857Y-111566714D01*
X55170285Y-111823857D02*
X55598857Y-111823857D01*
X55641714Y-111395285D01*
X55598857Y-111438142D01*
X55513142Y-111481000D01*
X55298857Y-111481000D01*
X55213142Y-111438142D01*
X55170285Y-111395285D01*
X55127428Y-111309571D01*
X55127428Y-111095285D01*
X55170285Y-111009571D01*
X55213142Y-110966714D01*
X55298857Y-110923857D01*
X55513142Y-110923857D01*
X55598857Y-110966714D01*
X55641714Y-111009571D01*
X57741714Y-136323857D02*
X58041714Y-136752428D01*
X58256000Y-136323857D02*
X58256000Y-137223857D01*
X57913142Y-137223857D01*
X57827428Y-137181000D01*
X57784571Y-137138142D01*
X57741714Y-137052428D01*
X57741714Y-136923857D01*
X57784571Y-136838142D01*
X57827428Y-136795285D01*
X57913142Y-136752428D01*
X58256000Y-136752428D01*
X57441714Y-137223857D02*
X56841714Y-136323857D01*
X56841714Y-137223857D02*
X57441714Y-136323857D01*
X56498857Y-136323857D02*
X56498857Y-137223857D01*
X56284571Y-137223857D01*
X56156000Y-137181000D01*
X56070285Y-137095285D01*
X56027428Y-137009571D01*
X55984571Y-136838142D01*
X55984571Y-136709571D01*
X56027428Y-136538142D01*
X56070285Y-136452428D01*
X56156000Y-136366714D01*
X56284571Y-136323857D01*
X56498857Y-136323857D01*
X55427428Y-137223857D02*
X55341714Y-137223857D01*
X55256000Y-137181000D01*
X55213142Y-137138142D01*
X55170285Y-137052428D01*
X55127428Y-136881000D01*
X55127428Y-136666714D01*
X55170285Y-136495285D01*
X55213142Y-136409571D01*
X55256000Y-136366714D01*
X55341714Y-136323857D01*
X55427428Y-136323857D01*
X55513142Y-136366714D01*
X55556000Y-136409571D01*
X55598857Y-136495285D01*
X55641714Y-136666714D01*
X55641714Y-136881000D01*
X55598857Y-137052428D01*
X55556000Y-137138142D01*
X55513142Y-137181000D01*
X55427428Y-137223857D01*
X58170285Y-139636857D02*
X57656000Y-139636857D01*
X57913142Y-138736857D02*
X57913142Y-139636857D01*
X57441714Y-139636857D02*
X56841714Y-138736857D01*
X56841714Y-139636857D02*
X57441714Y-138736857D01*
X56498857Y-138736857D02*
X56498857Y-139636857D01*
X56284571Y-139636857D01*
X56156000Y-139594000D01*
X56070285Y-139508285D01*
X56027428Y-139422571D01*
X55984571Y-139251142D01*
X55984571Y-139122571D01*
X56027428Y-138951142D01*
X56070285Y-138865428D01*
X56156000Y-138779714D01*
X56284571Y-138736857D01*
X56498857Y-138736857D01*
X55427428Y-139636857D02*
X55341714Y-139636857D01*
X55256000Y-139594000D01*
X55213142Y-139551142D01*
X55170285Y-139465428D01*
X55127428Y-139294000D01*
X55127428Y-139079714D01*
X55170285Y-138908285D01*
X55213142Y-138822571D01*
X55256000Y-138779714D01*
X55341714Y-138736857D01*
X55427428Y-138736857D01*
X55513142Y-138779714D01*
X55556000Y-138822571D01*
X55598857Y-138908285D01*
X55641714Y-139079714D01*
X55641714Y-139294000D01*
X55598857Y-139465428D01*
X55556000Y-139551142D01*
X55513142Y-139594000D01*
X55427428Y-139636857D01*
X56498857Y-142218142D02*
X56456000Y-142261000D01*
X56370285Y-142303857D01*
X56156000Y-142303857D01*
X56070285Y-142261000D01*
X56027428Y-142218142D01*
X55984571Y-142132428D01*
X55984571Y-142046714D01*
X56027428Y-141918142D01*
X56541714Y-141403857D01*
X55984571Y-141403857D01*
X55641714Y-142218142D02*
X55598857Y-142261000D01*
X55513142Y-142303857D01*
X55298857Y-142303857D01*
X55213142Y-142261000D01*
X55170285Y-142218142D01*
X55127428Y-142132428D01*
X55127428Y-142046714D01*
X55170285Y-141918142D01*
X55684571Y-141403857D01*
X55127428Y-141403857D01*
X56498857Y-144758142D02*
X56456000Y-144801000D01*
X56370285Y-144843857D01*
X56156000Y-144843857D01*
X56070285Y-144801000D01*
X56027428Y-144758142D01*
X55984571Y-144672428D01*
X55984571Y-144586714D01*
X56027428Y-144458142D01*
X56541714Y-143943857D01*
X55984571Y-143943857D01*
X55684571Y-144843857D02*
X55127428Y-144843857D01*
X55427428Y-144501000D01*
X55298857Y-144501000D01*
X55213142Y-144458142D01*
X55170285Y-144415285D01*
X55127428Y-144329571D01*
X55127428Y-144115285D01*
X55170285Y-144029571D01*
X55213142Y-143986714D01*
X55298857Y-143943857D01*
X55556000Y-143943857D01*
X55641714Y-143986714D01*
X55684571Y-144029571D01*
X57013142Y-147341000D02*
X57098857Y-147383857D01*
X57227428Y-147383857D01*
X57356000Y-147341000D01*
X57441714Y-147255285D01*
X57484571Y-147169571D01*
X57527428Y-146998142D01*
X57527428Y-146869571D01*
X57484571Y-146698142D01*
X57441714Y-146612428D01*
X57356000Y-146526714D01*
X57227428Y-146483857D01*
X57141714Y-146483857D01*
X57013142Y-146526714D01*
X56970285Y-146569571D01*
X56970285Y-146869571D01*
X57141714Y-146869571D01*
X56584571Y-146483857D02*
X56584571Y-147383857D01*
X56070285Y-146483857D01*
X56070285Y-147383857D01*
X55641714Y-146483857D02*
X55641714Y-147383857D01*
X55427428Y-147383857D01*
X55298857Y-147341000D01*
X55213142Y-147255285D01*
X55170285Y-147169571D01*
X55127428Y-146998142D01*
X55127428Y-146869571D01*
X55170285Y-146698142D01*
X55213142Y-146612428D01*
X55298857Y-146526714D01*
X55427428Y-146483857D01*
X55641714Y-146483857D01*
X88733285Y-147341000D02*
X88819000Y-147383857D01*
X88947571Y-147383857D01*
X89076142Y-147341000D01*
X89161857Y-147255285D01*
X89204714Y-147169571D01*
X89247571Y-146998142D01*
X89247571Y-146869571D01*
X89204714Y-146698142D01*
X89161857Y-146612428D01*
X89076142Y-146526714D01*
X88947571Y-146483857D01*
X88861857Y-146483857D01*
X88733285Y-146526714D01*
X88690428Y-146569571D01*
X88690428Y-146869571D01*
X88861857Y-146869571D01*
X88304714Y-146483857D02*
X88304714Y-147383857D01*
X87790428Y-146483857D01*
X87790428Y-147383857D01*
X87361857Y-146483857D02*
X87361857Y-147383857D01*
X87147571Y-147383857D01*
X87019000Y-147341000D01*
X86933285Y-147255285D01*
X86890428Y-147169571D01*
X86847571Y-146998142D01*
X86847571Y-146869571D01*
X86890428Y-146698142D01*
X86933285Y-146612428D01*
X87019000Y-146526714D01*
X87147571Y-146483857D01*
X87361857Y-146483857D01*
X67106714Y-102541857D02*
X67106714Y-103441857D01*
X66892428Y-103441857D01*
X66763857Y-103399000D01*
X66678142Y-103313285D01*
X66635285Y-103227571D01*
X66592428Y-103056142D01*
X66592428Y-102927571D01*
X66635285Y-102756142D01*
X66678142Y-102670428D01*
X66763857Y-102584714D01*
X66892428Y-102541857D01*
X67106714Y-102541857D01*
X66035285Y-103441857D02*
X65863857Y-103441857D01*
X65778142Y-103399000D01*
X65692428Y-103313285D01*
X65649571Y-103141857D01*
X65649571Y-102841857D01*
X65692428Y-102670428D01*
X65778142Y-102584714D01*
X65863857Y-102541857D01*
X66035285Y-102541857D01*
X66121000Y-102584714D01*
X66206714Y-102670428D01*
X66249571Y-102841857D01*
X66249571Y-103141857D01*
X66206714Y-103313285D01*
X66121000Y-103399000D01*
X66035285Y-103441857D01*
X65349571Y-103441857D02*
X65135285Y-102541857D01*
X64963857Y-103184714D01*
X64792428Y-102541857D01*
X64578142Y-103441857D01*
X64235285Y-102541857D02*
X64235285Y-103441857D01*
X63721000Y-102541857D01*
X63721000Y-103441857D01*
X62863857Y-102541857D02*
X63292428Y-102541857D01*
X63292428Y-103441857D01*
X62392428Y-103441857D02*
X62221000Y-103441857D01*
X62135285Y-103399000D01*
X62049571Y-103313285D01*
X62006714Y-103141857D01*
X62006714Y-102841857D01*
X62049571Y-102670428D01*
X62135285Y-102584714D01*
X62221000Y-102541857D01*
X62392428Y-102541857D01*
X62478142Y-102584714D01*
X62563857Y-102670428D01*
X62606714Y-102841857D01*
X62606714Y-103141857D01*
X62563857Y-103313285D01*
X62478142Y-103399000D01*
X62392428Y-103441857D01*
X61663857Y-102799000D02*
X61235285Y-102799000D01*
X61749571Y-102541857D02*
X61449571Y-103441857D01*
X61149571Y-102541857D01*
X60849571Y-102541857D02*
X60849571Y-103441857D01*
X60635285Y-103441857D01*
X60506714Y-103399000D01*
X60421000Y-103313285D01*
X60378142Y-103227571D01*
X60335285Y-103056142D01*
X60335285Y-102927571D01*
X60378142Y-102756142D01*
X60421000Y-102670428D01*
X60506714Y-102584714D01*
X60635285Y-102541857D01*
X60849571Y-102541857D01*
X55427428Y-116903857D02*
X55341714Y-116903857D01*
X55256000Y-116861000D01*
X55213142Y-116818142D01*
X55170285Y-116732428D01*
X55127428Y-116561000D01*
X55127428Y-116346714D01*
X55170285Y-116175285D01*
X55213142Y-116089571D01*
X55256000Y-116046714D01*
X55341714Y-116003857D01*
X55427428Y-116003857D01*
X55513142Y-116046714D01*
X55556000Y-116089571D01*
X55598857Y-116175285D01*
X55641714Y-116346714D01*
X55641714Y-116561000D01*
X55598857Y-116732428D01*
X55556000Y-116818142D01*
X55513142Y-116861000D01*
X55427428Y-116903857D01*
X88733285Y-116003857D02*
X89247571Y-116003857D01*
X88990428Y-116003857D02*
X88990428Y-116903857D01*
X89076142Y-116775285D01*
X89161857Y-116689571D01*
X89247571Y-116646714D01*
X87961857Y-116603857D02*
X87961857Y-116003857D01*
X88176142Y-116946714D02*
X88390428Y-116303857D01*
X87833285Y-116303857D01*
X89290428Y-134556857D02*
X88733285Y-134556857D01*
X89033285Y-134214000D01*
X88904714Y-134214000D01*
X88819000Y-134171142D01*
X88776142Y-134128285D01*
X88733285Y-134042571D01*
X88733285Y-133828285D01*
X88776142Y-133742571D01*
X88819000Y-133699714D01*
X88904714Y-133656857D01*
X89161857Y-133656857D01*
X89247571Y-133699714D01*
X89290428Y-133742571D01*
X87961857Y-134256857D02*
X87961857Y-133656857D01*
X88176142Y-134599714D02*
X88390428Y-133956857D01*
X87833285Y-133956857D01*
X80943428Y-102541857D02*
X81243428Y-102970428D01*
X81457714Y-102541857D02*
X81457714Y-103441857D01*
X81114857Y-103441857D01*
X81029142Y-103399000D01*
X80986285Y-103356142D01*
X80943428Y-103270428D01*
X80943428Y-103141857D01*
X80986285Y-103056142D01*
X81029142Y-103013285D01*
X81114857Y-102970428D01*
X81457714Y-102970428D01*
X80557714Y-103013285D02*
X80257714Y-103013285D01*
X80129142Y-102541857D02*
X80557714Y-102541857D01*
X80557714Y-103441857D01*
X80129142Y-103441857D01*
X79786285Y-102584714D02*
X79657714Y-102541857D01*
X79443428Y-102541857D01*
X79357714Y-102584714D01*
X79314857Y-102627571D01*
X79272000Y-102713285D01*
X79272000Y-102799000D01*
X79314857Y-102884714D01*
X79357714Y-102927571D01*
X79443428Y-102970428D01*
X79614857Y-103013285D01*
X79700571Y-103056142D01*
X79743428Y-103099000D01*
X79786285Y-103184714D01*
X79786285Y-103270428D01*
X79743428Y-103356142D01*
X79700571Y-103399000D01*
X79614857Y-103441857D01*
X79400571Y-103441857D01*
X79272000Y-103399000D01*
X78886285Y-103013285D02*
X78586285Y-103013285D01*
X78457714Y-102541857D02*
X78886285Y-102541857D01*
X78886285Y-103441857D01*
X78457714Y-103441857D01*
X78200571Y-103441857D02*
X77686285Y-103441857D01*
X77943428Y-102541857D02*
X77943428Y-103441857D01*
D11*
X84766857Y-146638571D02*
X84166857Y-146638571D01*
X83909714Y-145695714D02*
X84766857Y-145695714D01*
X84766857Y-147495714D01*
X83909714Y-147495714D01*
X83224000Y-145781428D02*
X82966857Y-145695714D01*
X82538285Y-145695714D01*
X82366857Y-145781428D01*
X82281142Y-145867142D01*
X82195428Y-146038571D01*
X82195428Y-146210000D01*
X82281142Y-146381428D01*
X82366857Y-146467142D01*
X82538285Y-146552857D01*
X82881142Y-146638571D01*
X83052571Y-146724285D01*
X83138285Y-146810000D01*
X83224000Y-146981428D01*
X83224000Y-147152857D01*
X83138285Y-147324285D01*
X83052571Y-147410000D01*
X82881142Y-147495714D01*
X82452571Y-147495714D01*
X82195428Y-147410000D01*
X81424000Y-145695714D02*
X81424000Y-147495714D01*
X80738285Y-147495714D01*
X80566857Y-147410000D01*
X80481142Y-147324285D01*
X80395428Y-147152857D01*
X80395428Y-146895714D01*
X80481142Y-146724285D01*
X80566857Y-146638571D01*
X80738285Y-146552857D01*
X81424000Y-146552857D01*
X79795428Y-147495714D02*
X78681142Y-147495714D01*
X79281142Y-146810000D01*
X79024000Y-146810000D01*
X78852571Y-146724285D01*
X78766857Y-146638571D01*
X78681142Y-146467142D01*
X78681142Y-146038571D01*
X78766857Y-145867142D01*
X78852571Y-145781428D01*
X79024000Y-145695714D01*
X79538285Y-145695714D01*
X79709714Y-145781428D01*
X79795428Y-145867142D01*
X77995428Y-147324285D02*
X77909714Y-147410000D01*
X77738285Y-147495714D01*
X77309714Y-147495714D01*
X77138285Y-147410000D01*
X77052571Y-147324285D01*
X76966857Y-147152857D01*
X76966857Y-146981428D01*
X77052571Y-146724285D01*
X78081142Y-145695714D01*
X76966857Y-145695714D01*
X76195428Y-146381428D02*
X74824000Y-146381428D01*
X74138285Y-147495714D02*
X73709714Y-145695714D01*
X73366857Y-146981428D01*
X73024000Y-145695714D01*
X72595428Y-147495714D01*
X70881142Y-145695714D02*
X71481142Y-146552857D01*
X71909714Y-145695714D02*
X71909714Y-147495714D01*
X71224000Y-147495714D01*
X71052571Y-147410000D01*
X70966857Y-147324285D01*
X70881142Y-147152857D01*
X70881142Y-146895714D01*
X70966857Y-146724285D01*
X71052571Y-146638571D01*
X71224000Y-146552857D01*
X71909714Y-146552857D01*
X69766857Y-147495714D02*
X69424000Y-147495714D01*
X69252571Y-147410000D01*
X69081142Y-147238571D01*
X68995428Y-146895714D01*
X68995428Y-146295714D01*
X69081142Y-145952857D01*
X69252571Y-145781428D01*
X69424000Y-145695714D01*
X69766857Y-145695714D01*
X69938285Y-145781428D01*
X70109714Y-145952857D01*
X70195428Y-146295714D01*
X70195428Y-146895714D01*
X70109714Y-147238571D01*
X69938285Y-147410000D01*
X69766857Y-147495714D01*
X67881142Y-147495714D02*
X67538285Y-147495714D01*
X67366857Y-147410000D01*
X67195428Y-147238571D01*
X67109714Y-146895714D01*
X67109714Y-146295714D01*
X67195428Y-145952857D01*
X67366857Y-145781428D01*
X67538285Y-145695714D01*
X67881142Y-145695714D01*
X68052571Y-145781428D01*
X68224000Y-145952857D01*
X68309714Y-146295714D01*
X68309714Y-146895714D01*
X68224000Y-147238571D01*
X68052571Y-147410000D01*
X67881142Y-147495714D01*
X66338285Y-145695714D02*
X66338285Y-147495714D01*
X65738285Y-146210000D01*
X65138285Y-147495714D01*
X65138285Y-145695714D01*
X64281142Y-146381428D02*
X62909714Y-146381428D01*
X62224000Y-147495714D02*
X61109714Y-147495714D01*
X61709714Y-146810000D01*
X61452571Y-146810000D01*
X61281142Y-146724285D01*
X61195428Y-146638571D01*
X61109714Y-146467142D01*
X61109714Y-146038571D01*
X61195428Y-145867142D01*
X61281142Y-145781428D01*
X61452571Y-145695714D01*
X61966857Y-145695714D01*
X62138285Y-145781428D01*
X62224000Y-145867142D01*
X60424000Y-147324285D02*
X60338285Y-147410000D01*
X60166857Y-147495714D01*
X59738285Y-147495714D01*
X59566857Y-147410000D01*
X59481142Y-147324285D01*
X59395428Y-147152857D01*
X59395428Y-146981428D01*
X59481142Y-146724285D01*
X60509714Y-145695714D01*
X59395428Y-145695714D01*
D10*
X89290428Y-129476857D02*
X88733285Y-129476857D01*
X89033285Y-129134000D01*
X88904714Y-129134000D01*
X88819000Y-129091142D01*
X88776142Y-129048285D01*
X88733285Y-128962571D01*
X88733285Y-128748285D01*
X88776142Y-128662571D01*
X88819000Y-128619714D01*
X88904714Y-128576857D01*
X89161857Y-128576857D01*
X89247571Y-128619714D01*
X89290428Y-128662571D01*
X88390428Y-129391142D02*
X88347571Y-129434000D01*
X88261857Y-129476857D01*
X88047571Y-129476857D01*
X87961857Y-129434000D01*
X87919000Y-129391142D01*
X87876142Y-129305428D01*
X87876142Y-129219714D01*
X87919000Y-129091142D01*
X88433285Y-128576857D01*
X87876142Y-128576857D01*
X89247571Y-136239714D02*
X89119000Y-136196857D01*
X88904714Y-136196857D01*
X88819000Y-136239714D01*
X88776142Y-136282571D01*
X88733285Y-136368285D01*
X88733285Y-136454000D01*
X88776142Y-136539714D01*
X88819000Y-136582571D01*
X88904714Y-136625428D01*
X89076142Y-136668285D01*
X89161857Y-136711142D01*
X89204714Y-136754000D01*
X89247571Y-136839714D01*
X89247571Y-136925428D01*
X89204714Y-137011142D01*
X89161857Y-137054000D01*
X89076142Y-137096857D01*
X88861857Y-137096857D01*
X88733285Y-137054000D01*
X88476142Y-137096857D02*
X88176142Y-136196857D01*
X87876142Y-137096857D01*
X87576142Y-136196857D02*
X87576142Y-137096857D01*
X87061857Y-136196857D01*
X87061857Y-137096857D01*
X89290428Y-126936857D02*
X88733285Y-126936857D01*
X89033285Y-126594000D01*
X88904714Y-126594000D01*
X88819000Y-126551142D01*
X88776142Y-126508285D01*
X88733285Y-126422571D01*
X88733285Y-126208285D01*
X88776142Y-126122571D01*
X88819000Y-126079714D01*
X88904714Y-126036857D01*
X89161857Y-126036857D01*
X89247571Y-126079714D01*
X89290428Y-126122571D01*
X88433285Y-126936857D02*
X87876142Y-126936857D01*
X88176142Y-126594000D01*
X88047571Y-126594000D01*
X87961857Y-126551142D01*
X87919000Y-126508285D01*
X87876142Y-126422571D01*
X87876142Y-126208285D01*
X87919000Y-126122571D01*
X87961857Y-126079714D01*
X88047571Y-126036857D01*
X88304714Y-126036857D01*
X88390428Y-126079714D01*
X88433285Y-126122571D01*
X89247571Y-121898142D02*
X89204714Y-121941000D01*
X89119000Y-121983857D01*
X88904714Y-121983857D01*
X88819000Y-121941000D01*
X88776142Y-121898142D01*
X88733285Y-121812428D01*
X88733285Y-121726714D01*
X88776142Y-121598142D01*
X89290428Y-121083857D01*
X88733285Y-121083857D01*
X87961857Y-121983857D02*
X88133285Y-121983857D01*
X88219000Y-121941000D01*
X88261857Y-121898142D01*
X88347571Y-121769571D01*
X88390428Y-121598142D01*
X88390428Y-121255285D01*
X88347571Y-121169571D01*
X88304714Y-121126714D01*
X88219000Y-121083857D01*
X88047571Y-121083857D01*
X87961857Y-121126714D01*
X87919000Y-121169571D01*
X87876142Y-121255285D01*
X87876142Y-121469571D01*
X87919000Y-121555285D01*
X87961857Y-121598142D01*
X88047571Y-121641000D01*
X88219000Y-121641000D01*
X88304714Y-121598142D01*
X88347571Y-121555285D01*
X88390428Y-121469571D01*
X89290428Y-132143857D02*
X88733285Y-132143857D01*
X89033285Y-131801000D01*
X88904714Y-131801000D01*
X88819000Y-131758142D01*
X88776142Y-131715285D01*
X88733285Y-131629571D01*
X88733285Y-131415285D01*
X88776142Y-131329571D01*
X88819000Y-131286714D01*
X88904714Y-131243857D01*
X89161857Y-131243857D01*
X89247571Y-131286714D01*
X89290428Y-131329571D01*
X87919000Y-132143857D02*
X88347571Y-132143857D01*
X88390428Y-131715285D01*
X88347571Y-131758142D01*
X88261857Y-131801000D01*
X88047571Y-131801000D01*
X87961857Y-131758142D01*
X87919000Y-131715285D01*
X87876142Y-131629571D01*
X87876142Y-131415285D01*
X87919000Y-131329571D01*
X87961857Y-131286714D01*
X88047571Y-131243857D01*
X88261857Y-131243857D01*
X88347571Y-131286714D01*
X88390428Y-131329571D01*
X89290428Y-144843857D02*
X88733285Y-144843857D01*
X89033285Y-144501000D01*
X88904714Y-144501000D01*
X88819000Y-144458142D01*
X88776142Y-144415285D01*
X88733285Y-144329571D01*
X88733285Y-144115285D01*
X88776142Y-144029571D01*
X88819000Y-143986714D01*
X88904714Y-143943857D01*
X89161857Y-143943857D01*
X89247571Y-143986714D01*
X89290428Y-144029571D01*
X88476142Y-144843857D02*
X88176142Y-143943857D01*
X87876142Y-144843857D01*
X87661857Y-144843857D02*
X87104714Y-144843857D01*
X87404714Y-144501000D01*
X87276142Y-144501000D01*
X87190428Y-144458142D01*
X87147571Y-144415285D01*
X87104714Y-144329571D01*
X87104714Y-144115285D01*
X87147571Y-144029571D01*
X87190428Y-143986714D01*
X87276142Y-143943857D01*
X87533285Y-143943857D01*
X87619000Y-143986714D01*
X87661857Y-144029571D01*
X88606285Y-113336857D02*
X89120571Y-113336857D01*
X88863428Y-113336857D02*
X88863428Y-114236857D01*
X88949142Y-114108285D01*
X89034857Y-114022571D01*
X89120571Y-113979714D01*
X88263428Y-114151142D02*
X88220571Y-114194000D01*
X88134857Y-114236857D01*
X87920571Y-114236857D01*
X87834857Y-114194000D01*
X87792000Y-114151142D01*
X87749142Y-114065428D01*
X87749142Y-113979714D01*
X87792000Y-113851142D01*
X88306285Y-113336857D01*
X87749142Y-113336857D01*
X55984571Y-123623857D02*
X56498857Y-123623857D01*
X56241714Y-123623857D02*
X56241714Y-124523857D01*
X56327428Y-124395285D01*
X56413142Y-124309571D01*
X56498857Y-124266714D01*
X55684571Y-124523857D02*
X55084571Y-124523857D01*
X55470285Y-123623857D01*
X54966714Y-52659000D02*
X54881000Y-52616142D01*
X54752428Y-52616142D01*
X54623857Y-52659000D01*
X54538142Y-52744714D01*
X54495285Y-52830428D01*
X54452428Y-53001857D01*
X54452428Y-53130428D01*
X54495285Y-53301857D01*
X54538142Y-53387571D01*
X54623857Y-53473285D01*
X54752428Y-53516142D01*
X54838142Y-53516142D01*
X54966714Y-53473285D01*
X55009571Y-53430428D01*
X55009571Y-53130428D01*
X54838142Y-53130428D01*
X55395285Y-53516142D02*
X55395285Y-52616142D01*
X55909571Y-53516142D01*
X55909571Y-52616142D01*
X56338142Y-53516142D02*
X56338142Y-52616142D01*
X56552428Y-52616142D01*
X56681000Y-52659000D01*
X56766714Y-52744714D01*
X56809571Y-52830428D01*
X56852428Y-53001857D01*
X56852428Y-53130428D01*
X56809571Y-53301857D01*
X56766714Y-53387571D01*
X56681000Y-53473285D01*
X56552428Y-53516142D01*
X56338142Y-53516142D01*
X54409571Y-55156142D02*
X54966714Y-55156142D01*
X54666714Y-55499000D01*
X54795285Y-55499000D01*
X54881000Y-55541857D01*
X54923857Y-55584714D01*
X54966714Y-55670428D01*
X54966714Y-55884714D01*
X54923857Y-55970428D01*
X54881000Y-56013285D01*
X54795285Y-56056142D01*
X54538142Y-56056142D01*
X54452428Y-56013285D01*
X54409571Y-55970428D01*
X55223857Y-55156142D02*
X55523857Y-56056142D01*
X55823857Y-55156142D01*
X56038142Y-55156142D02*
X56595285Y-55156142D01*
X56295285Y-55499000D01*
X56423857Y-55499000D01*
X56509571Y-55541857D01*
X56552428Y-55584714D01*
X56595285Y-55670428D01*
X56595285Y-55884714D01*
X56552428Y-55970428D01*
X56509571Y-56013285D01*
X56423857Y-56056142D01*
X56166714Y-56056142D01*
X56081000Y-56013285D01*
X56038142Y-55970428D01*
X54495285Y-58251714D02*
X54795285Y-58251714D01*
X54923857Y-58723142D02*
X54495285Y-58723142D01*
X54495285Y-57823142D01*
X54923857Y-57823142D01*
X55309571Y-58723142D02*
X55309571Y-57823142D01*
X55823857Y-58723142D01*
X55823857Y-57823142D01*
X54452428Y-61220285D02*
X54581000Y-61263142D01*
X54795285Y-61263142D01*
X54881000Y-61220285D01*
X54923857Y-61177428D01*
X54966714Y-61091714D01*
X54966714Y-61006000D01*
X54923857Y-60920285D01*
X54881000Y-60877428D01*
X54795285Y-60834571D01*
X54623857Y-60791714D01*
X54538142Y-60748857D01*
X54495285Y-60706000D01*
X54452428Y-60620285D01*
X54452428Y-60534571D01*
X54495285Y-60448857D01*
X54538142Y-60406000D01*
X54623857Y-60363142D01*
X54838142Y-60363142D01*
X54966714Y-60406000D01*
X55223857Y-60363142D02*
X55523857Y-61263142D01*
X55823857Y-60363142D01*
X56123857Y-61263142D02*
X56123857Y-60363142D01*
X56466714Y-60363142D01*
X56552428Y-60406000D01*
X56595285Y-60448857D01*
X56638142Y-60534571D01*
X56638142Y-60663142D01*
X56595285Y-60748857D01*
X56552428Y-60791714D01*
X56466714Y-60834571D01*
X56123857Y-60834571D01*
X54452428Y-63760285D02*
X54581000Y-63803142D01*
X54795285Y-63803142D01*
X54881000Y-63760285D01*
X54923857Y-63717428D01*
X54966714Y-63631714D01*
X54966714Y-63546000D01*
X54923857Y-63460285D01*
X54881000Y-63417428D01*
X54795285Y-63374571D01*
X54623857Y-63331714D01*
X54538142Y-63288857D01*
X54495285Y-63246000D01*
X54452428Y-63160285D01*
X54452428Y-63074571D01*
X54495285Y-62988857D01*
X54538142Y-62946000D01*
X54623857Y-62903142D01*
X54838142Y-62903142D01*
X54966714Y-62946000D01*
X55223857Y-62903142D02*
X55523857Y-63803142D01*
X55823857Y-62903142D01*
X56123857Y-63803142D02*
X56123857Y-62903142D01*
X56638142Y-63803142D01*
X56638142Y-62903142D01*
X54409571Y-65443142D02*
X54966714Y-65443142D01*
X54666714Y-65786000D01*
X54795285Y-65786000D01*
X54881000Y-65828857D01*
X54923857Y-65871714D01*
X54966714Y-65957428D01*
X54966714Y-66171714D01*
X54923857Y-66257428D01*
X54881000Y-66300285D01*
X54795285Y-66343142D01*
X54538142Y-66343142D01*
X54452428Y-66300285D01*
X54409571Y-66257428D01*
X55738142Y-65743142D02*
X55738142Y-66343142D01*
X55523857Y-65400285D02*
X55309571Y-66043142D01*
X55866714Y-66043142D01*
X54409571Y-67856142D02*
X54966714Y-67856142D01*
X54666714Y-68199000D01*
X54795285Y-68199000D01*
X54881000Y-68241857D01*
X54923857Y-68284714D01*
X54966714Y-68370428D01*
X54966714Y-68584714D01*
X54923857Y-68670428D01*
X54881000Y-68713285D01*
X54795285Y-68756142D01*
X54538142Y-68756142D01*
X54452428Y-68713285D01*
X54409571Y-68670428D01*
X55781000Y-67856142D02*
X55352428Y-67856142D01*
X55309571Y-68284714D01*
X55352428Y-68241857D01*
X55438142Y-68199000D01*
X55652428Y-68199000D01*
X55738142Y-68241857D01*
X55781000Y-68284714D01*
X55823857Y-68370428D01*
X55823857Y-68584714D01*
X55781000Y-68670428D01*
X55738142Y-68713285D01*
X55652428Y-68756142D01*
X55438142Y-68756142D01*
X55352428Y-68713285D01*
X55309571Y-68670428D01*
X54409571Y-70523142D02*
X54966714Y-70523142D01*
X54666714Y-70866000D01*
X54795285Y-70866000D01*
X54881000Y-70908857D01*
X54923857Y-70951714D01*
X54966714Y-71037428D01*
X54966714Y-71251714D01*
X54923857Y-71337428D01*
X54881000Y-71380285D01*
X54795285Y-71423142D01*
X54538142Y-71423142D01*
X54452428Y-71380285D01*
X54409571Y-71337428D01*
X55309571Y-70608857D02*
X55352428Y-70566000D01*
X55438142Y-70523142D01*
X55652428Y-70523142D01*
X55738142Y-70566000D01*
X55781000Y-70608857D01*
X55823857Y-70694571D01*
X55823857Y-70780285D01*
X55781000Y-70908857D01*
X55266714Y-71423142D01*
X55823857Y-71423142D01*
X54452428Y-75561857D02*
X54495285Y-75519000D01*
X54581000Y-75476142D01*
X54795285Y-75476142D01*
X54881000Y-75519000D01*
X54923857Y-75561857D01*
X54966714Y-75647571D01*
X54966714Y-75733285D01*
X54923857Y-75861857D01*
X54409571Y-76376142D01*
X54966714Y-76376142D01*
X55781000Y-75476142D02*
X55352428Y-75476142D01*
X55309571Y-75904714D01*
X55352428Y-75861857D01*
X55438142Y-75819000D01*
X55652428Y-75819000D01*
X55738142Y-75861857D01*
X55781000Y-75904714D01*
X55823857Y-75990428D01*
X55823857Y-76204714D01*
X55781000Y-76290428D01*
X55738142Y-76333285D01*
X55652428Y-76376142D01*
X55438142Y-76376142D01*
X55352428Y-76333285D01*
X55309571Y-76290428D01*
X54409571Y-73063142D02*
X54966714Y-73063142D01*
X54666714Y-73406000D01*
X54795285Y-73406000D01*
X54881000Y-73448857D01*
X54923857Y-73491714D01*
X54966714Y-73577428D01*
X54966714Y-73791714D01*
X54923857Y-73877428D01*
X54881000Y-73920285D01*
X54795285Y-73963142D01*
X54538142Y-73963142D01*
X54452428Y-73920285D01*
X54409571Y-73877428D01*
X55266714Y-73063142D02*
X55823857Y-73063142D01*
X55523857Y-73406000D01*
X55652428Y-73406000D01*
X55738142Y-73448857D01*
X55781000Y-73491714D01*
X55823857Y-73577428D01*
X55823857Y-73791714D01*
X55781000Y-73877428D01*
X55738142Y-73920285D01*
X55652428Y-73963142D01*
X55395285Y-73963142D01*
X55309571Y-73920285D01*
X55266714Y-73877428D01*
X54452428Y-78101857D02*
X54495285Y-78059000D01*
X54581000Y-78016142D01*
X54795285Y-78016142D01*
X54881000Y-78059000D01*
X54923857Y-78101857D01*
X54966714Y-78187571D01*
X54966714Y-78273285D01*
X54923857Y-78401857D01*
X54409571Y-78916142D01*
X54966714Y-78916142D01*
X55738142Y-78016142D02*
X55566714Y-78016142D01*
X55481000Y-78059000D01*
X55438142Y-78101857D01*
X55352428Y-78230428D01*
X55309571Y-78401857D01*
X55309571Y-78744714D01*
X55352428Y-78830428D01*
X55395285Y-78873285D01*
X55481000Y-78916142D01*
X55652428Y-78916142D01*
X55738142Y-78873285D01*
X55781000Y-78830428D01*
X55823857Y-78744714D01*
X55823857Y-78530428D01*
X55781000Y-78444714D01*
X55738142Y-78401857D01*
X55652428Y-78359000D01*
X55481000Y-78359000D01*
X55395285Y-78401857D01*
X55352428Y-78444714D01*
X55309571Y-78530428D01*
X54452428Y-80641857D02*
X54495285Y-80599000D01*
X54581000Y-80556142D01*
X54795285Y-80556142D01*
X54881000Y-80599000D01*
X54923857Y-80641857D01*
X54966714Y-80727571D01*
X54966714Y-80813285D01*
X54923857Y-80941857D01*
X54409571Y-81456142D01*
X54966714Y-81456142D01*
X55266714Y-80556142D02*
X55866714Y-80556142D01*
X55481000Y-81456142D01*
X54966714Y-83996142D02*
X54452428Y-83996142D01*
X54709571Y-83996142D02*
X54709571Y-83096142D01*
X54623857Y-83224714D01*
X54538142Y-83310428D01*
X54452428Y-83353285D01*
X55738142Y-83396142D02*
X55738142Y-83996142D01*
X55523857Y-83053285D02*
X55309571Y-83696142D01*
X55866714Y-83696142D01*
X55093714Y-86663142D02*
X54579428Y-86663142D01*
X54836571Y-86663142D02*
X54836571Y-85763142D01*
X54750857Y-85891714D01*
X54665142Y-85977428D01*
X54579428Y-86020285D01*
X55436571Y-85848857D02*
X55479428Y-85806000D01*
X55565142Y-85763142D01*
X55779428Y-85763142D01*
X55865142Y-85806000D01*
X55908000Y-85848857D01*
X55950857Y-85934571D01*
X55950857Y-86020285D01*
X55908000Y-86148857D01*
X55393714Y-86663142D01*
X55950857Y-86663142D01*
X55093714Y-88949142D02*
X54579428Y-88949142D01*
X54836571Y-88949142D02*
X54836571Y-88049142D01*
X54750857Y-88177714D01*
X54665142Y-88263428D01*
X54579428Y-88306285D01*
X55393714Y-88049142D02*
X55950857Y-88049142D01*
X55650857Y-88392000D01*
X55779428Y-88392000D01*
X55865142Y-88434857D01*
X55908000Y-88477714D01*
X55950857Y-88563428D01*
X55950857Y-88777714D01*
X55908000Y-88863428D01*
X55865142Y-88906285D01*
X55779428Y-88949142D01*
X55522285Y-88949142D01*
X55436571Y-88906285D01*
X55393714Y-88863428D01*
X54579428Y-91573285D02*
X54708000Y-91616142D01*
X54922285Y-91616142D01*
X55008000Y-91573285D01*
X55050857Y-91530428D01*
X55093714Y-91444714D01*
X55093714Y-91359000D01*
X55050857Y-91273285D01*
X55008000Y-91230428D01*
X54922285Y-91187571D01*
X54750857Y-91144714D01*
X54665142Y-91101857D01*
X54622285Y-91059000D01*
X54579428Y-90973285D01*
X54579428Y-90887571D01*
X54622285Y-90801857D01*
X54665142Y-90759000D01*
X54750857Y-90716142D01*
X54965142Y-90716142D01*
X55093714Y-90759000D01*
X55479428Y-91616142D02*
X55479428Y-90716142D01*
X55693714Y-90716142D01*
X55822285Y-90759000D01*
X55908000Y-90844714D01*
X55950857Y-90930428D01*
X55993714Y-91101857D01*
X55993714Y-91230428D01*
X55950857Y-91401857D01*
X55908000Y-91487571D01*
X55822285Y-91573285D01*
X55693714Y-91616142D01*
X55479428Y-91616142D01*
X56336571Y-90801857D02*
X56379428Y-90759000D01*
X56465142Y-90716142D01*
X56679428Y-90716142D01*
X56765142Y-90759000D01*
X56808000Y-90801857D01*
X56850857Y-90887571D01*
X56850857Y-90973285D01*
X56808000Y-91101857D01*
X56293714Y-91616142D01*
X56850857Y-91616142D01*
X54579428Y-94113285D02*
X54708000Y-94156142D01*
X54922285Y-94156142D01*
X55008000Y-94113285D01*
X55050857Y-94070428D01*
X55093714Y-93984714D01*
X55093714Y-93899000D01*
X55050857Y-93813285D01*
X55008000Y-93770428D01*
X54922285Y-93727571D01*
X54750857Y-93684714D01*
X54665142Y-93641857D01*
X54622285Y-93599000D01*
X54579428Y-93513285D01*
X54579428Y-93427571D01*
X54622285Y-93341857D01*
X54665142Y-93299000D01*
X54750857Y-93256142D01*
X54965142Y-93256142D01*
X55093714Y-93299000D01*
X55479428Y-94156142D02*
X55479428Y-93256142D01*
X55693714Y-93256142D01*
X55822285Y-93299000D01*
X55908000Y-93384714D01*
X55950857Y-93470428D01*
X55993714Y-93641857D01*
X55993714Y-93770428D01*
X55950857Y-93941857D01*
X55908000Y-94027571D01*
X55822285Y-94113285D01*
X55693714Y-94156142D01*
X55479428Y-94156142D01*
X56293714Y-93256142D02*
X56850857Y-93256142D01*
X56550857Y-93599000D01*
X56679428Y-93599000D01*
X56765142Y-93641857D01*
X56808000Y-93684714D01*
X56850857Y-93770428D01*
X56850857Y-93984714D01*
X56808000Y-94070428D01*
X56765142Y-94113285D01*
X56679428Y-94156142D01*
X56422285Y-94156142D01*
X56336571Y-94113285D01*
X56293714Y-94070428D01*
X55136571Y-96610428D02*
X55093714Y-96653285D01*
X54965142Y-96696142D01*
X54879428Y-96696142D01*
X54750857Y-96653285D01*
X54665142Y-96567571D01*
X54622285Y-96481857D01*
X54579428Y-96310428D01*
X54579428Y-96181857D01*
X54622285Y-96010428D01*
X54665142Y-95924714D01*
X54750857Y-95839000D01*
X54879428Y-95796142D01*
X54965142Y-95796142D01*
X55093714Y-95839000D01*
X55136571Y-95881857D01*
X55522285Y-96696142D02*
X55522285Y-95796142D01*
X55822285Y-96439000D01*
X56122285Y-95796142D01*
X56122285Y-96696142D01*
X56550857Y-96696142D02*
X56550857Y-95796142D01*
X56765142Y-95796142D01*
X56893714Y-95839000D01*
X56979428Y-95924714D01*
X57022285Y-96010428D01*
X57065142Y-96181857D01*
X57065142Y-96310428D01*
X57022285Y-96481857D01*
X56979428Y-96567571D01*
X56893714Y-96653285D01*
X56765142Y-96696142D01*
X56550857Y-96696142D01*
X87071000Y-96610428D02*
X87028142Y-96653285D01*
X86899571Y-96696142D01*
X86813857Y-96696142D01*
X86685285Y-96653285D01*
X86599571Y-96567571D01*
X86556714Y-96481857D01*
X86513857Y-96310428D01*
X86513857Y-96181857D01*
X86556714Y-96010428D01*
X86599571Y-95924714D01*
X86685285Y-95839000D01*
X86813857Y-95796142D01*
X86899571Y-95796142D01*
X87028142Y-95839000D01*
X87071000Y-95881857D01*
X87885285Y-96696142D02*
X87456714Y-96696142D01*
X87456714Y-95796142D01*
X88185285Y-96696142D02*
X88185285Y-95796142D01*
X88699571Y-96696142D02*
X88313857Y-96181857D01*
X88699571Y-95796142D02*
X88185285Y-96310428D01*
X86301142Y-94113285D02*
X86429714Y-94156142D01*
X86644000Y-94156142D01*
X86729714Y-94113285D01*
X86772571Y-94070428D01*
X86815428Y-93984714D01*
X86815428Y-93899000D01*
X86772571Y-93813285D01*
X86729714Y-93770428D01*
X86644000Y-93727571D01*
X86472571Y-93684714D01*
X86386857Y-93641857D01*
X86344000Y-93599000D01*
X86301142Y-93513285D01*
X86301142Y-93427571D01*
X86344000Y-93341857D01*
X86386857Y-93299000D01*
X86472571Y-93256142D01*
X86686857Y-93256142D01*
X86815428Y-93299000D01*
X87201142Y-94156142D02*
X87201142Y-93256142D01*
X87415428Y-93256142D01*
X87544000Y-93299000D01*
X87629714Y-93384714D01*
X87672571Y-93470428D01*
X87715428Y-93641857D01*
X87715428Y-93770428D01*
X87672571Y-93941857D01*
X87629714Y-94027571D01*
X87544000Y-94113285D01*
X87415428Y-94156142D01*
X87201142Y-94156142D01*
X88272571Y-93256142D02*
X88358285Y-93256142D01*
X88444000Y-93299000D01*
X88486857Y-93341857D01*
X88529714Y-93427571D01*
X88572571Y-93599000D01*
X88572571Y-93813285D01*
X88529714Y-93984714D01*
X88486857Y-94070428D01*
X88444000Y-94113285D01*
X88358285Y-94156142D01*
X88272571Y-94156142D01*
X88186857Y-94113285D01*
X88144000Y-94070428D01*
X88101142Y-93984714D01*
X88058285Y-93813285D01*
X88058285Y-93599000D01*
X88101142Y-93427571D01*
X88144000Y-93341857D01*
X88186857Y-93299000D01*
X88272571Y-93256142D01*
X86301142Y-91573285D02*
X86429714Y-91616142D01*
X86644000Y-91616142D01*
X86729714Y-91573285D01*
X86772571Y-91530428D01*
X86815428Y-91444714D01*
X86815428Y-91359000D01*
X86772571Y-91273285D01*
X86729714Y-91230428D01*
X86644000Y-91187571D01*
X86472571Y-91144714D01*
X86386857Y-91101857D01*
X86344000Y-91059000D01*
X86301142Y-90973285D01*
X86301142Y-90887571D01*
X86344000Y-90801857D01*
X86386857Y-90759000D01*
X86472571Y-90716142D01*
X86686857Y-90716142D01*
X86815428Y-90759000D01*
X87201142Y-91616142D02*
X87201142Y-90716142D01*
X87415428Y-90716142D01*
X87544000Y-90759000D01*
X87629714Y-90844714D01*
X87672571Y-90930428D01*
X87715428Y-91101857D01*
X87715428Y-91230428D01*
X87672571Y-91401857D01*
X87629714Y-91487571D01*
X87544000Y-91573285D01*
X87415428Y-91616142D01*
X87201142Y-91616142D01*
X88572571Y-91616142D02*
X88058285Y-91616142D01*
X88315428Y-91616142D02*
X88315428Y-90716142D01*
X88229714Y-90844714D01*
X88144000Y-90930428D01*
X88058285Y-90973285D01*
X87715428Y-89076142D02*
X87201142Y-89076142D01*
X87458285Y-89076142D02*
X87458285Y-88176142D01*
X87372571Y-88304714D01*
X87286857Y-88390428D01*
X87201142Y-88433285D01*
X88529714Y-88176142D02*
X88101142Y-88176142D01*
X88058285Y-88604714D01*
X88101142Y-88561857D01*
X88186857Y-88519000D01*
X88401142Y-88519000D01*
X88486857Y-88561857D01*
X88529714Y-88604714D01*
X88572571Y-88690428D01*
X88572571Y-88904714D01*
X88529714Y-88990428D01*
X88486857Y-89033285D01*
X88401142Y-89076142D01*
X88186857Y-89076142D01*
X88101142Y-89033285D01*
X88058285Y-88990428D01*
X85958285Y-63676142D02*
X85658285Y-63247571D01*
X85444000Y-63676142D02*
X85444000Y-62776142D01*
X85786857Y-62776142D01*
X85872571Y-62819000D01*
X85915428Y-62861857D01*
X85958285Y-62947571D01*
X85958285Y-63076142D01*
X85915428Y-63161857D01*
X85872571Y-63204714D01*
X85786857Y-63247571D01*
X85444000Y-63247571D01*
X86258285Y-62776142D02*
X86858285Y-63676142D01*
X86858285Y-62776142D02*
X86258285Y-63676142D01*
X87201142Y-63676142D02*
X87201142Y-62776142D01*
X87415428Y-62776142D01*
X87544000Y-62819000D01*
X87629714Y-62904714D01*
X87672571Y-62990428D01*
X87715428Y-63161857D01*
X87715428Y-63290428D01*
X87672571Y-63461857D01*
X87629714Y-63547571D01*
X87544000Y-63633285D01*
X87415428Y-63676142D01*
X87201142Y-63676142D01*
X88272571Y-62776142D02*
X88358285Y-62776142D01*
X88444000Y-62819000D01*
X88486857Y-62861857D01*
X88529714Y-62947571D01*
X88572571Y-63119000D01*
X88572571Y-63333285D01*
X88529714Y-63504714D01*
X88486857Y-63590428D01*
X88444000Y-63633285D01*
X88358285Y-63676142D01*
X88272571Y-63676142D01*
X88186857Y-63633285D01*
X88144000Y-63590428D01*
X88101142Y-63504714D01*
X88058285Y-63333285D01*
X88058285Y-63119000D01*
X88101142Y-62947571D01*
X88144000Y-62861857D01*
X88186857Y-62819000D01*
X88272571Y-62776142D01*
X85529714Y-60363142D02*
X86044000Y-60363142D01*
X85786857Y-61263142D02*
X85786857Y-60363142D01*
X86258285Y-60363142D02*
X86858285Y-61263142D01*
X86858285Y-60363142D02*
X86258285Y-61263142D01*
X87201142Y-61263142D02*
X87201142Y-60363142D01*
X87415428Y-60363142D01*
X87544000Y-60406000D01*
X87629714Y-60491714D01*
X87672571Y-60577428D01*
X87715428Y-60748857D01*
X87715428Y-60877428D01*
X87672571Y-61048857D01*
X87629714Y-61134571D01*
X87544000Y-61220285D01*
X87415428Y-61263142D01*
X87201142Y-61263142D01*
X88272571Y-60363142D02*
X88358285Y-60363142D01*
X88444000Y-60406000D01*
X88486857Y-60448857D01*
X88529714Y-60534571D01*
X88572571Y-60706000D01*
X88572571Y-60920285D01*
X88529714Y-61091714D01*
X88486857Y-61177428D01*
X88444000Y-61220285D01*
X88358285Y-61263142D01*
X88272571Y-61263142D01*
X88186857Y-61220285D01*
X88144000Y-61177428D01*
X88101142Y-61091714D01*
X88058285Y-60920285D01*
X88058285Y-60706000D01*
X88101142Y-60534571D01*
X88144000Y-60448857D01*
X88186857Y-60406000D01*
X88272571Y-60363142D01*
X87201142Y-57781857D02*
X87244000Y-57739000D01*
X87329714Y-57696142D01*
X87544000Y-57696142D01*
X87629714Y-57739000D01*
X87672571Y-57781857D01*
X87715428Y-57867571D01*
X87715428Y-57953285D01*
X87672571Y-58081857D01*
X87158285Y-58596142D01*
X87715428Y-58596142D01*
X88058285Y-57781857D02*
X88101142Y-57739000D01*
X88186857Y-57696142D01*
X88401142Y-57696142D01*
X88486857Y-57739000D01*
X88529714Y-57781857D01*
X88572571Y-57867571D01*
X88572571Y-57953285D01*
X88529714Y-58081857D01*
X88015428Y-58596142D01*
X88572571Y-58596142D01*
X87201142Y-55241857D02*
X87244000Y-55199000D01*
X87329714Y-55156142D01*
X87544000Y-55156142D01*
X87629714Y-55199000D01*
X87672571Y-55241857D01*
X87715428Y-55327571D01*
X87715428Y-55413285D01*
X87672571Y-55541857D01*
X87158285Y-56056142D01*
X87715428Y-56056142D01*
X88015428Y-55156142D02*
X88572571Y-55156142D01*
X88272571Y-55499000D01*
X88401142Y-55499000D01*
X88486857Y-55541857D01*
X88529714Y-55584714D01*
X88572571Y-55670428D01*
X88572571Y-55884714D01*
X88529714Y-55970428D01*
X88486857Y-56013285D01*
X88401142Y-56056142D01*
X88144000Y-56056142D01*
X88058285Y-56013285D01*
X88015428Y-55970428D01*
X86686857Y-52659000D02*
X86601142Y-52616142D01*
X86472571Y-52616142D01*
X86344000Y-52659000D01*
X86258285Y-52744714D01*
X86215428Y-52830428D01*
X86172571Y-53001857D01*
X86172571Y-53130428D01*
X86215428Y-53301857D01*
X86258285Y-53387571D01*
X86344000Y-53473285D01*
X86472571Y-53516142D01*
X86558285Y-53516142D01*
X86686857Y-53473285D01*
X86729714Y-53430428D01*
X86729714Y-53130428D01*
X86558285Y-53130428D01*
X87115428Y-53516142D02*
X87115428Y-52616142D01*
X87629714Y-53516142D01*
X87629714Y-52616142D01*
X88058285Y-53516142D02*
X88058285Y-52616142D01*
X88272571Y-52616142D01*
X88401142Y-52659000D01*
X88486857Y-52744714D01*
X88529714Y-52830428D01*
X88572571Y-53001857D01*
X88572571Y-53130428D01*
X88529714Y-53301857D01*
X88486857Y-53387571D01*
X88401142Y-53473285D01*
X88272571Y-53516142D01*
X88058285Y-53516142D01*
D11*
X58933142Y-53361428D02*
X59533142Y-53361428D01*
X59790285Y-54304285D02*
X58933142Y-54304285D01*
X58933142Y-52504285D01*
X59790285Y-52504285D01*
X60476000Y-54218571D02*
X60733142Y-54304285D01*
X61161714Y-54304285D01*
X61333142Y-54218571D01*
X61418857Y-54132857D01*
X61504571Y-53961428D01*
X61504571Y-53790000D01*
X61418857Y-53618571D01*
X61333142Y-53532857D01*
X61161714Y-53447142D01*
X60818857Y-53361428D01*
X60647428Y-53275714D01*
X60561714Y-53190000D01*
X60476000Y-53018571D01*
X60476000Y-52847142D01*
X60561714Y-52675714D01*
X60647428Y-52590000D01*
X60818857Y-52504285D01*
X61247428Y-52504285D01*
X61504571Y-52590000D01*
X62276000Y-54304285D02*
X62276000Y-52504285D01*
X62961714Y-52504285D01*
X63133142Y-52590000D01*
X63218857Y-52675714D01*
X63304571Y-52847142D01*
X63304571Y-53104285D01*
X63218857Y-53275714D01*
X63133142Y-53361428D01*
X62961714Y-53447142D01*
X62276000Y-53447142D01*
X63904571Y-52504285D02*
X65018857Y-52504285D01*
X64418857Y-53190000D01*
X64676000Y-53190000D01*
X64847428Y-53275714D01*
X64933142Y-53361428D01*
X65018857Y-53532857D01*
X65018857Y-53961428D01*
X64933142Y-54132857D01*
X64847428Y-54218571D01*
X64676000Y-54304285D01*
X64161714Y-54304285D01*
X63990285Y-54218571D01*
X63904571Y-54132857D01*
X65704571Y-52675714D02*
X65790285Y-52590000D01*
X65961714Y-52504285D01*
X66390285Y-52504285D01*
X66561714Y-52590000D01*
X66647428Y-52675714D01*
X66733142Y-52847142D01*
X66733142Y-53018571D01*
X66647428Y-53275714D01*
X65618857Y-54304285D01*
X66733142Y-54304285D01*
X67504571Y-53618571D02*
X68876000Y-53618571D01*
X69561714Y-52504285D02*
X69990285Y-54304285D01*
X70333142Y-53018571D01*
X70676000Y-54304285D01*
X71104571Y-52504285D01*
X72818857Y-54304285D02*
X72218857Y-53447142D01*
X71790285Y-54304285D02*
X71790285Y-52504285D01*
X72476000Y-52504285D01*
X72647428Y-52590000D01*
X72733142Y-52675714D01*
X72818857Y-52847142D01*
X72818857Y-53104285D01*
X72733142Y-53275714D01*
X72647428Y-53361428D01*
X72476000Y-53447142D01*
X71790285Y-53447142D01*
X73933142Y-52504285D02*
X74276000Y-52504285D01*
X74447428Y-52590000D01*
X74618857Y-52761428D01*
X74704571Y-53104285D01*
X74704571Y-53704285D01*
X74618857Y-54047142D01*
X74447428Y-54218571D01*
X74276000Y-54304285D01*
X73933142Y-54304285D01*
X73761714Y-54218571D01*
X73590285Y-54047142D01*
X73504571Y-53704285D01*
X73504571Y-53104285D01*
X73590285Y-52761428D01*
X73761714Y-52590000D01*
X73933142Y-52504285D01*
X75818857Y-52504285D02*
X76161714Y-52504285D01*
X76333142Y-52590000D01*
X76504571Y-52761428D01*
X76590285Y-53104285D01*
X76590285Y-53704285D01*
X76504571Y-54047142D01*
X76333142Y-54218571D01*
X76161714Y-54304285D01*
X75818857Y-54304285D01*
X75647428Y-54218571D01*
X75476000Y-54047142D01*
X75390285Y-53704285D01*
X75390285Y-53104285D01*
X75476000Y-52761428D01*
X75647428Y-52590000D01*
X75818857Y-52504285D01*
X77361714Y-54304285D02*
X77361714Y-52504285D01*
X77961714Y-53790000D01*
X78561714Y-52504285D01*
X78561714Y-54304285D01*
X79418857Y-53618571D02*
X80790285Y-53618571D01*
X81476000Y-52504285D02*
X82590285Y-52504285D01*
X81990285Y-53190000D01*
X82247428Y-53190000D01*
X82418857Y-53275714D01*
X82504571Y-53361428D01*
X82590285Y-53532857D01*
X82590285Y-53961428D01*
X82504571Y-54132857D01*
X82418857Y-54218571D01*
X82247428Y-54304285D01*
X81733142Y-54304285D01*
X81561714Y-54218571D01*
X81476000Y-54132857D01*
X83276000Y-52675714D02*
X83361714Y-52590000D01*
X83533142Y-52504285D01*
X83961714Y-52504285D01*
X84133142Y-52590000D01*
X84218857Y-52675714D01*
X84304571Y-52847142D01*
X84304571Y-53018571D01*
X84218857Y-53275714D01*
X83190285Y-54304285D01*
X84304571Y-54304285D01*
D10*
X62756571Y-97458142D02*
X62456571Y-97029571D01*
X62242285Y-97458142D02*
X62242285Y-96558142D01*
X62585142Y-96558142D01*
X62670857Y-96601000D01*
X62713714Y-96643857D01*
X62756571Y-96729571D01*
X62756571Y-96858142D01*
X62713714Y-96943857D01*
X62670857Y-96986714D01*
X62585142Y-97029571D01*
X62242285Y-97029571D01*
X63142285Y-96986714D02*
X63442285Y-96986714D01*
X63570857Y-97458142D02*
X63142285Y-97458142D01*
X63142285Y-96558142D01*
X63570857Y-96558142D01*
X63913714Y-97415285D02*
X64042285Y-97458142D01*
X64256571Y-97458142D01*
X64342285Y-97415285D01*
X64385142Y-97372428D01*
X64428000Y-97286714D01*
X64428000Y-97201000D01*
X64385142Y-97115285D01*
X64342285Y-97072428D01*
X64256571Y-97029571D01*
X64085142Y-96986714D01*
X63999428Y-96943857D01*
X63956571Y-96901000D01*
X63913714Y-96815285D01*
X63913714Y-96729571D01*
X63956571Y-96643857D01*
X63999428Y-96601000D01*
X64085142Y-96558142D01*
X64299428Y-96558142D01*
X64428000Y-96601000D01*
X64813714Y-96986714D02*
X65113714Y-96986714D01*
X65242285Y-97458142D02*
X64813714Y-97458142D01*
X64813714Y-96558142D01*
X65242285Y-96558142D01*
X65499428Y-96558142D02*
X66013714Y-96558142D01*
X65756571Y-97458142D02*
X65756571Y-96558142D01*
X76593285Y-97458142D02*
X76593285Y-96558142D01*
X76807571Y-96558142D01*
X76936142Y-96601000D01*
X77021857Y-96686714D01*
X77064714Y-96772428D01*
X77107571Y-96943857D01*
X77107571Y-97072428D01*
X77064714Y-97243857D01*
X77021857Y-97329571D01*
X76936142Y-97415285D01*
X76807571Y-97458142D01*
X76593285Y-97458142D01*
X77664714Y-96558142D02*
X77836142Y-96558142D01*
X77921857Y-96601000D01*
X78007571Y-96686714D01*
X78050428Y-96858142D01*
X78050428Y-97158142D01*
X78007571Y-97329571D01*
X77921857Y-97415285D01*
X77836142Y-97458142D01*
X77664714Y-97458142D01*
X77579000Y-97415285D01*
X77493285Y-97329571D01*
X77450428Y-97158142D01*
X77450428Y-96858142D01*
X77493285Y-96686714D01*
X77579000Y-96601000D01*
X77664714Y-96558142D01*
X78350428Y-96558142D02*
X78564714Y-97458142D01*
X78736142Y-96815285D01*
X78907571Y-97458142D01*
X79121857Y-96558142D01*
X79464714Y-97458142D02*
X79464714Y-96558142D01*
X79979000Y-97458142D01*
X79979000Y-96558142D01*
X80836142Y-97458142D02*
X80407571Y-97458142D01*
X80407571Y-96558142D01*
X81307571Y-96558142D02*
X81479000Y-96558142D01*
X81564714Y-96601000D01*
X81650428Y-96686714D01*
X81693285Y-96858142D01*
X81693285Y-97158142D01*
X81650428Y-97329571D01*
X81564714Y-97415285D01*
X81479000Y-97458142D01*
X81307571Y-97458142D01*
X81221857Y-97415285D01*
X81136142Y-97329571D01*
X81093285Y-97158142D01*
X81093285Y-96858142D01*
X81136142Y-96686714D01*
X81221857Y-96601000D01*
X81307571Y-96558142D01*
X82036142Y-97201000D02*
X82464714Y-97201000D01*
X81950428Y-97458142D02*
X82250428Y-96558142D01*
X82550428Y-97458142D01*
X82850428Y-97458142D02*
X82850428Y-96558142D01*
X83064714Y-96558142D01*
X83193285Y-96601000D01*
X83279000Y-96686714D01*
X83321857Y-96772428D01*
X83364714Y-96943857D01*
X83364714Y-97072428D01*
X83321857Y-97243857D01*
X83279000Y-97329571D01*
X83193285Y-97415285D01*
X83064714Y-97458142D01*
X82850428Y-97458142D01*
X88058285Y-85721857D02*
X88101142Y-85679000D01*
X88186857Y-85636142D01*
X88401142Y-85636142D01*
X88486857Y-85679000D01*
X88529714Y-85721857D01*
X88572571Y-85807571D01*
X88572571Y-85893285D01*
X88529714Y-86021857D01*
X88015428Y-86536142D01*
X88572571Y-86536142D01*
X88272571Y-83096142D02*
X88358285Y-83096142D01*
X88444000Y-83139000D01*
X88486857Y-83181857D01*
X88529714Y-83267571D01*
X88572571Y-83439000D01*
X88572571Y-83653285D01*
X88529714Y-83824714D01*
X88486857Y-83910428D01*
X88444000Y-83953285D01*
X88358285Y-83996142D01*
X88272571Y-83996142D01*
X88186857Y-83953285D01*
X88144000Y-83910428D01*
X88101142Y-83824714D01*
X88058285Y-83653285D01*
X88058285Y-83439000D01*
X88101142Y-83267571D01*
X88144000Y-83181857D01*
X88186857Y-83139000D01*
X88272571Y-83096142D01*
X88486857Y-80856142D02*
X88486857Y-81456142D01*
X88272571Y-80513285D02*
X88058285Y-81156142D01*
X88615428Y-81156142D01*
X87715428Y-78789142D02*
X87201142Y-78789142D01*
X87458285Y-78789142D02*
X87458285Y-77889142D01*
X87372571Y-78017714D01*
X87286857Y-78103428D01*
X87201142Y-78146285D01*
X88486857Y-77889142D02*
X88315428Y-77889142D01*
X88229714Y-77932000D01*
X88186857Y-77974857D01*
X88101142Y-78103428D01*
X88058285Y-78274857D01*
X88058285Y-78617714D01*
X88101142Y-78703428D01*
X88144000Y-78746285D01*
X88229714Y-78789142D01*
X88401142Y-78789142D01*
X88486857Y-78746285D01*
X88529714Y-78703428D01*
X88572571Y-78617714D01*
X88572571Y-78403428D01*
X88529714Y-78317714D01*
X88486857Y-78274857D01*
X88401142Y-78232000D01*
X88229714Y-78232000D01*
X88144000Y-78274857D01*
X88101142Y-78317714D01*
X88058285Y-78403428D01*
X87715428Y-76376142D02*
X87201142Y-76376142D01*
X87458285Y-76376142D02*
X87458285Y-75476142D01*
X87372571Y-75604714D01*
X87286857Y-75690428D01*
X87201142Y-75733285D01*
X88015428Y-75476142D02*
X88615428Y-75476142D01*
X88229714Y-76376142D01*
X88529714Y-73063142D02*
X88101142Y-73063142D01*
X88058285Y-73491714D01*
X88101142Y-73448857D01*
X88186857Y-73406000D01*
X88401142Y-73406000D01*
X88486857Y-73448857D01*
X88529714Y-73491714D01*
X88572571Y-73577428D01*
X88572571Y-73791714D01*
X88529714Y-73877428D01*
X88486857Y-73920285D01*
X88401142Y-73963142D01*
X88186857Y-73963142D01*
X88101142Y-73920285D01*
X88058285Y-73877428D01*
X87715428Y-71423142D02*
X87201142Y-71423142D01*
X87458285Y-71423142D02*
X87458285Y-70523142D01*
X87372571Y-70651714D01*
X87286857Y-70737428D01*
X87201142Y-70780285D01*
X88229714Y-70908857D02*
X88144000Y-70866000D01*
X88101142Y-70823142D01*
X88058285Y-70737428D01*
X88058285Y-70694571D01*
X88101142Y-70608857D01*
X88144000Y-70566000D01*
X88229714Y-70523142D01*
X88401142Y-70523142D01*
X88486857Y-70566000D01*
X88529714Y-70608857D01*
X88572571Y-70694571D01*
X88572571Y-70737428D01*
X88529714Y-70823142D01*
X88486857Y-70866000D01*
X88401142Y-70908857D01*
X88229714Y-70908857D01*
X88144000Y-70951714D01*
X88101142Y-70994571D01*
X88058285Y-71080285D01*
X88058285Y-71251714D01*
X88101142Y-71337428D01*
X88144000Y-71380285D01*
X88229714Y-71423142D01*
X88401142Y-71423142D01*
X88486857Y-71380285D01*
X88529714Y-71337428D01*
X88572571Y-71251714D01*
X88572571Y-71080285D01*
X88529714Y-70994571D01*
X88486857Y-70951714D01*
X88401142Y-70908857D01*
X87715428Y-69010142D02*
X87201142Y-69010142D01*
X87458285Y-69010142D02*
X87458285Y-68110142D01*
X87372571Y-68238714D01*
X87286857Y-68324428D01*
X87201142Y-68367285D01*
X88144000Y-69010142D02*
X88315428Y-69010142D01*
X88401142Y-68967285D01*
X88444000Y-68924428D01*
X88529714Y-68795857D01*
X88572571Y-68624428D01*
X88572571Y-68281571D01*
X88529714Y-68195857D01*
X88486857Y-68153000D01*
X88401142Y-68110142D01*
X88229714Y-68110142D01*
X88144000Y-68153000D01*
X88101142Y-68195857D01*
X88058285Y-68281571D01*
X88058285Y-68495857D01*
X88101142Y-68581571D01*
X88144000Y-68624428D01*
X88229714Y-68667285D01*
X88401142Y-68667285D01*
X88486857Y-68624428D01*
X88529714Y-68581571D01*
X88572571Y-68495857D01*
X87201142Y-65528857D02*
X87244000Y-65486000D01*
X87329714Y-65443142D01*
X87544000Y-65443142D01*
X87629714Y-65486000D01*
X87672571Y-65528857D01*
X87715428Y-65614571D01*
X87715428Y-65700285D01*
X87672571Y-65828857D01*
X87158285Y-66343142D01*
X87715428Y-66343142D01*
X88572571Y-66343142D02*
X88058285Y-66343142D01*
X88315428Y-66343142D02*
X88315428Y-65443142D01*
X88229714Y-65571714D01*
X88144000Y-65657428D01*
X88058285Y-65700285D01*
X132993285Y-97458142D02*
X132993285Y-96558142D01*
X133207571Y-96558142D01*
X133336142Y-96601000D01*
X133421857Y-96686714D01*
X133464714Y-96772428D01*
X133507571Y-96943857D01*
X133507571Y-97072428D01*
X133464714Y-97243857D01*
X133421857Y-97329571D01*
X133336142Y-97415285D01*
X133207571Y-97458142D01*
X132993285Y-97458142D01*
X134064714Y-96558142D02*
X134236142Y-96558142D01*
X134321857Y-96601000D01*
X134407571Y-96686714D01*
X134450428Y-96858142D01*
X134450428Y-97158142D01*
X134407571Y-97329571D01*
X134321857Y-97415285D01*
X134236142Y-97458142D01*
X134064714Y-97458142D01*
X133979000Y-97415285D01*
X133893285Y-97329571D01*
X133850428Y-97158142D01*
X133850428Y-96858142D01*
X133893285Y-96686714D01*
X133979000Y-96601000D01*
X134064714Y-96558142D01*
X134750428Y-96558142D02*
X134964714Y-97458142D01*
X135136142Y-96815285D01*
X135307571Y-97458142D01*
X135521857Y-96558142D01*
X135864714Y-97458142D02*
X135864714Y-96558142D01*
X136379000Y-97458142D01*
X136379000Y-96558142D01*
X137236142Y-97458142D02*
X136807571Y-97458142D01*
X136807571Y-96558142D01*
X137707571Y-96558142D02*
X137879000Y-96558142D01*
X137964714Y-96601000D01*
X138050428Y-96686714D01*
X138093285Y-96858142D01*
X138093285Y-97158142D01*
X138050428Y-97329571D01*
X137964714Y-97415285D01*
X137879000Y-97458142D01*
X137707571Y-97458142D01*
X137621857Y-97415285D01*
X137536142Y-97329571D01*
X137493285Y-97158142D01*
X137493285Y-96858142D01*
X137536142Y-96686714D01*
X137621857Y-96601000D01*
X137707571Y-96558142D01*
X138436142Y-97201000D02*
X138864714Y-97201000D01*
X138350428Y-97458142D02*
X138650428Y-96558142D01*
X138950428Y-97458142D01*
X139250428Y-97458142D02*
X139250428Y-96558142D01*
X139464714Y-96558142D01*
X139593285Y-96601000D01*
X139679000Y-96686714D01*
X139721857Y-96772428D01*
X139764714Y-96943857D01*
X139764714Y-97072428D01*
X139721857Y-97243857D01*
X139679000Y-97329571D01*
X139593285Y-97415285D01*
X139464714Y-97458142D01*
X139250428Y-97458142D01*
X119156571Y-97458142D02*
X118856571Y-97029571D01*
X118642285Y-97458142D02*
X118642285Y-96558142D01*
X118985142Y-96558142D01*
X119070857Y-96601000D01*
X119113714Y-96643857D01*
X119156571Y-96729571D01*
X119156571Y-96858142D01*
X119113714Y-96943857D01*
X119070857Y-96986714D01*
X118985142Y-97029571D01*
X118642285Y-97029571D01*
X119542285Y-96986714D02*
X119842285Y-96986714D01*
X119970857Y-97458142D02*
X119542285Y-97458142D01*
X119542285Y-96558142D01*
X119970857Y-96558142D01*
X120313714Y-97415285D02*
X120442285Y-97458142D01*
X120656571Y-97458142D01*
X120742285Y-97415285D01*
X120785142Y-97372428D01*
X120828000Y-97286714D01*
X120828000Y-97201000D01*
X120785142Y-97115285D01*
X120742285Y-97072428D01*
X120656571Y-97029571D01*
X120485142Y-96986714D01*
X120399428Y-96943857D01*
X120356571Y-96901000D01*
X120313714Y-96815285D01*
X120313714Y-96729571D01*
X120356571Y-96643857D01*
X120399428Y-96601000D01*
X120485142Y-96558142D01*
X120699428Y-96558142D01*
X120828000Y-96601000D01*
X121213714Y-96986714D02*
X121513714Y-96986714D01*
X121642285Y-97458142D02*
X121213714Y-97458142D01*
X121213714Y-96558142D01*
X121642285Y-96558142D01*
X121899428Y-96558142D02*
X122413714Y-96558142D01*
X122156571Y-97458142D02*
X122156571Y-96558142D01*
D11*
X115333142Y-53361428D02*
X115933142Y-53361428D01*
X116190285Y-54304285D02*
X115333142Y-54304285D01*
X115333142Y-52504285D01*
X116190285Y-52504285D01*
X116876000Y-54218571D02*
X117133142Y-54304285D01*
X117561714Y-54304285D01*
X117733142Y-54218571D01*
X117818857Y-54132857D01*
X117904571Y-53961428D01*
X117904571Y-53790000D01*
X117818857Y-53618571D01*
X117733142Y-53532857D01*
X117561714Y-53447142D01*
X117218857Y-53361428D01*
X117047428Y-53275714D01*
X116961714Y-53190000D01*
X116876000Y-53018571D01*
X116876000Y-52847142D01*
X116961714Y-52675714D01*
X117047428Y-52590000D01*
X117218857Y-52504285D01*
X117647428Y-52504285D01*
X117904571Y-52590000D01*
X118676000Y-54304285D02*
X118676000Y-52504285D01*
X119361714Y-52504285D01*
X119533142Y-52590000D01*
X119618857Y-52675714D01*
X119704571Y-52847142D01*
X119704571Y-53104285D01*
X119618857Y-53275714D01*
X119533142Y-53361428D01*
X119361714Y-53447142D01*
X118676000Y-53447142D01*
X120304571Y-52504285D02*
X121418857Y-52504285D01*
X120818857Y-53190000D01*
X121076000Y-53190000D01*
X121247428Y-53275714D01*
X121333142Y-53361428D01*
X121418857Y-53532857D01*
X121418857Y-53961428D01*
X121333142Y-54132857D01*
X121247428Y-54218571D01*
X121076000Y-54304285D01*
X120561714Y-54304285D01*
X120390285Y-54218571D01*
X120304571Y-54132857D01*
X122104571Y-52675714D02*
X122190285Y-52590000D01*
X122361714Y-52504285D01*
X122790285Y-52504285D01*
X122961714Y-52590000D01*
X123047428Y-52675714D01*
X123133142Y-52847142D01*
X123133142Y-53018571D01*
X123047428Y-53275714D01*
X122018857Y-54304285D01*
X123133142Y-54304285D01*
X123904571Y-53618571D02*
X125276000Y-53618571D01*
X125961714Y-52504285D02*
X126390285Y-54304285D01*
X126733142Y-53018571D01*
X127076000Y-54304285D01*
X127504571Y-52504285D01*
X129218857Y-54304285D02*
X128618857Y-53447142D01*
X128190285Y-54304285D02*
X128190285Y-52504285D01*
X128876000Y-52504285D01*
X129047428Y-52590000D01*
X129133142Y-52675714D01*
X129218857Y-52847142D01*
X129218857Y-53104285D01*
X129133142Y-53275714D01*
X129047428Y-53361428D01*
X128876000Y-53447142D01*
X128190285Y-53447142D01*
X130333142Y-52504285D02*
X130676000Y-52504285D01*
X130847428Y-52590000D01*
X131018857Y-52761428D01*
X131104571Y-53104285D01*
X131104571Y-53704285D01*
X131018857Y-54047142D01*
X130847428Y-54218571D01*
X130676000Y-54304285D01*
X130333142Y-54304285D01*
X130161714Y-54218571D01*
X129990285Y-54047142D01*
X129904571Y-53704285D01*
X129904571Y-53104285D01*
X129990285Y-52761428D01*
X130161714Y-52590000D01*
X130333142Y-52504285D01*
X132218857Y-52504285D02*
X132561714Y-52504285D01*
X132733142Y-52590000D01*
X132904571Y-52761428D01*
X132990285Y-53104285D01*
X132990285Y-53704285D01*
X132904571Y-54047142D01*
X132733142Y-54218571D01*
X132561714Y-54304285D01*
X132218857Y-54304285D01*
X132047428Y-54218571D01*
X131876000Y-54047142D01*
X131790285Y-53704285D01*
X131790285Y-53104285D01*
X131876000Y-52761428D01*
X132047428Y-52590000D01*
X132218857Y-52504285D01*
X133761714Y-54304285D02*
X133761714Y-52504285D01*
X134361714Y-53790000D01*
X134961714Y-52504285D01*
X134961714Y-54304285D01*
X135818857Y-53618571D02*
X137190285Y-53618571D01*
X137876000Y-52504285D02*
X138990285Y-52504285D01*
X138390285Y-53190000D01*
X138647428Y-53190000D01*
X138818857Y-53275714D01*
X138904571Y-53361428D01*
X138990285Y-53532857D01*
X138990285Y-53961428D01*
X138904571Y-54132857D01*
X138818857Y-54218571D01*
X138647428Y-54304285D01*
X138133142Y-54304285D01*
X137961714Y-54218571D01*
X137876000Y-54132857D01*
X139676000Y-52675714D02*
X139761714Y-52590000D01*
X139933142Y-52504285D01*
X140361714Y-52504285D01*
X140533142Y-52590000D01*
X140618857Y-52675714D01*
X140704571Y-52847142D01*
X140704571Y-53018571D01*
X140618857Y-53275714D01*
X139590285Y-54304285D01*
X140704571Y-54304285D01*
D10*
X143086857Y-52659000D02*
X143001142Y-52616142D01*
X142872571Y-52616142D01*
X142744000Y-52659000D01*
X142658285Y-52744714D01*
X142615428Y-52830428D01*
X142572571Y-53001857D01*
X142572571Y-53130428D01*
X142615428Y-53301857D01*
X142658285Y-53387571D01*
X142744000Y-53473285D01*
X142872571Y-53516142D01*
X142958285Y-53516142D01*
X143086857Y-53473285D01*
X143129714Y-53430428D01*
X143129714Y-53130428D01*
X142958285Y-53130428D01*
X143515428Y-53516142D02*
X143515428Y-52616142D01*
X144029714Y-53516142D01*
X144029714Y-52616142D01*
X144458285Y-53516142D02*
X144458285Y-52616142D01*
X144672571Y-52616142D01*
X144801142Y-52659000D01*
X144886857Y-52744714D01*
X144929714Y-52830428D01*
X144972571Y-53001857D01*
X144972571Y-53130428D01*
X144929714Y-53301857D01*
X144886857Y-53387571D01*
X144801142Y-53473285D01*
X144672571Y-53516142D01*
X144458285Y-53516142D01*
X143601142Y-55241857D02*
X143644000Y-55199000D01*
X143729714Y-55156142D01*
X143944000Y-55156142D01*
X144029714Y-55199000D01*
X144072571Y-55241857D01*
X144115428Y-55327571D01*
X144115428Y-55413285D01*
X144072571Y-55541857D01*
X143558285Y-56056142D01*
X144115428Y-56056142D01*
X144415428Y-55156142D02*
X144972571Y-55156142D01*
X144672571Y-55499000D01*
X144801142Y-55499000D01*
X144886857Y-55541857D01*
X144929714Y-55584714D01*
X144972571Y-55670428D01*
X144972571Y-55884714D01*
X144929714Y-55970428D01*
X144886857Y-56013285D01*
X144801142Y-56056142D01*
X144544000Y-56056142D01*
X144458285Y-56013285D01*
X144415428Y-55970428D01*
X143601142Y-57781857D02*
X143644000Y-57739000D01*
X143729714Y-57696142D01*
X143944000Y-57696142D01*
X144029714Y-57739000D01*
X144072571Y-57781857D01*
X144115428Y-57867571D01*
X144115428Y-57953285D01*
X144072571Y-58081857D01*
X143558285Y-58596142D01*
X144115428Y-58596142D01*
X144458285Y-57781857D02*
X144501142Y-57739000D01*
X144586857Y-57696142D01*
X144801142Y-57696142D01*
X144886857Y-57739000D01*
X144929714Y-57781857D01*
X144972571Y-57867571D01*
X144972571Y-57953285D01*
X144929714Y-58081857D01*
X144415428Y-58596142D01*
X144972571Y-58596142D01*
X141929714Y-60363142D02*
X142444000Y-60363142D01*
X142186857Y-61263142D02*
X142186857Y-60363142D01*
X142658285Y-60363142D02*
X143258285Y-61263142D01*
X143258285Y-60363142D02*
X142658285Y-61263142D01*
X143601142Y-61263142D02*
X143601142Y-60363142D01*
X143815428Y-60363142D01*
X143944000Y-60406000D01*
X144029714Y-60491714D01*
X144072571Y-60577428D01*
X144115428Y-60748857D01*
X144115428Y-60877428D01*
X144072571Y-61048857D01*
X144029714Y-61134571D01*
X143944000Y-61220285D01*
X143815428Y-61263142D01*
X143601142Y-61263142D01*
X144672571Y-60363142D02*
X144758285Y-60363142D01*
X144844000Y-60406000D01*
X144886857Y-60448857D01*
X144929714Y-60534571D01*
X144972571Y-60706000D01*
X144972571Y-60920285D01*
X144929714Y-61091714D01*
X144886857Y-61177428D01*
X144844000Y-61220285D01*
X144758285Y-61263142D01*
X144672571Y-61263142D01*
X144586857Y-61220285D01*
X144544000Y-61177428D01*
X144501142Y-61091714D01*
X144458285Y-60920285D01*
X144458285Y-60706000D01*
X144501142Y-60534571D01*
X144544000Y-60448857D01*
X144586857Y-60406000D01*
X144672571Y-60363142D01*
X142358285Y-63676142D02*
X142058285Y-63247571D01*
X141844000Y-63676142D02*
X141844000Y-62776142D01*
X142186857Y-62776142D01*
X142272571Y-62819000D01*
X142315428Y-62861857D01*
X142358285Y-62947571D01*
X142358285Y-63076142D01*
X142315428Y-63161857D01*
X142272571Y-63204714D01*
X142186857Y-63247571D01*
X141844000Y-63247571D01*
X142658285Y-62776142D02*
X143258285Y-63676142D01*
X143258285Y-62776142D02*
X142658285Y-63676142D01*
X143601142Y-63676142D02*
X143601142Y-62776142D01*
X143815428Y-62776142D01*
X143944000Y-62819000D01*
X144029714Y-62904714D01*
X144072571Y-62990428D01*
X144115428Y-63161857D01*
X144115428Y-63290428D01*
X144072571Y-63461857D01*
X144029714Y-63547571D01*
X143944000Y-63633285D01*
X143815428Y-63676142D01*
X143601142Y-63676142D01*
X144672571Y-62776142D02*
X144758285Y-62776142D01*
X144844000Y-62819000D01*
X144886857Y-62861857D01*
X144929714Y-62947571D01*
X144972571Y-63119000D01*
X144972571Y-63333285D01*
X144929714Y-63504714D01*
X144886857Y-63590428D01*
X144844000Y-63633285D01*
X144758285Y-63676142D01*
X144672571Y-63676142D01*
X144586857Y-63633285D01*
X144544000Y-63590428D01*
X144501142Y-63504714D01*
X144458285Y-63333285D01*
X144458285Y-63119000D01*
X144501142Y-62947571D01*
X144544000Y-62861857D01*
X144586857Y-62819000D01*
X144672571Y-62776142D01*
X143601142Y-65528857D02*
X143644000Y-65486000D01*
X143729714Y-65443142D01*
X143944000Y-65443142D01*
X144029714Y-65486000D01*
X144072571Y-65528857D01*
X144115428Y-65614571D01*
X144115428Y-65700285D01*
X144072571Y-65828857D01*
X143558285Y-66343142D01*
X144115428Y-66343142D01*
X144972571Y-66343142D02*
X144458285Y-66343142D01*
X144715428Y-66343142D02*
X144715428Y-65443142D01*
X144629714Y-65571714D01*
X144544000Y-65657428D01*
X144458285Y-65700285D01*
X144115428Y-69010142D02*
X143601142Y-69010142D01*
X143858285Y-69010142D02*
X143858285Y-68110142D01*
X143772571Y-68238714D01*
X143686857Y-68324428D01*
X143601142Y-68367285D01*
X144544000Y-69010142D02*
X144715428Y-69010142D01*
X144801142Y-68967285D01*
X144844000Y-68924428D01*
X144929714Y-68795857D01*
X144972571Y-68624428D01*
X144972571Y-68281571D01*
X144929714Y-68195857D01*
X144886857Y-68153000D01*
X144801142Y-68110142D01*
X144629714Y-68110142D01*
X144544000Y-68153000D01*
X144501142Y-68195857D01*
X144458285Y-68281571D01*
X144458285Y-68495857D01*
X144501142Y-68581571D01*
X144544000Y-68624428D01*
X144629714Y-68667285D01*
X144801142Y-68667285D01*
X144886857Y-68624428D01*
X144929714Y-68581571D01*
X144972571Y-68495857D01*
X144115428Y-71423142D02*
X143601142Y-71423142D01*
X143858285Y-71423142D02*
X143858285Y-70523142D01*
X143772571Y-70651714D01*
X143686857Y-70737428D01*
X143601142Y-70780285D01*
X144629714Y-70908857D02*
X144544000Y-70866000D01*
X144501142Y-70823142D01*
X144458285Y-70737428D01*
X144458285Y-70694571D01*
X144501142Y-70608857D01*
X144544000Y-70566000D01*
X144629714Y-70523142D01*
X144801142Y-70523142D01*
X144886857Y-70566000D01*
X144929714Y-70608857D01*
X144972571Y-70694571D01*
X144972571Y-70737428D01*
X144929714Y-70823142D01*
X144886857Y-70866000D01*
X144801142Y-70908857D01*
X144629714Y-70908857D01*
X144544000Y-70951714D01*
X144501142Y-70994571D01*
X144458285Y-71080285D01*
X144458285Y-71251714D01*
X144501142Y-71337428D01*
X144544000Y-71380285D01*
X144629714Y-71423142D01*
X144801142Y-71423142D01*
X144886857Y-71380285D01*
X144929714Y-71337428D01*
X144972571Y-71251714D01*
X144972571Y-71080285D01*
X144929714Y-70994571D01*
X144886857Y-70951714D01*
X144801142Y-70908857D01*
X144929714Y-73063142D02*
X144501142Y-73063142D01*
X144458285Y-73491714D01*
X144501142Y-73448857D01*
X144586857Y-73406000D01*
X144801142Y-73406000D01*
X144886857Y-73448857D01*
X144929714Y-73491714D01*
X144972571Y-73577428D01*
X144972571Y-73791714D01*
X144929714Y-73877428D01*
X144886857Y-73920285D01*
X144801142Y-73963142D01*
X144586857Y-73963142D01*
X144501142Y-73920285D01*
X144458285Y-73877428D01*
X144115428Y-76376142D02*
X143601142Y-76376142D01*
X143858285Y-76376142D02*
X143858285Y-75476142D01*
X143772571Y-75604714D01*
X143686857Y-75690428D01*
X143601142Y-75733285D01*
X144415428Y-75476142D02*
X145015428Y-75476142D01*
X144629714Y-76376142D01*
X144115428Y-78789142D02*
X143601142Y-78789142D01*
X143858285Y-78789142D02*
X143858285Y-77889142D01*
X143772571Y-78017714D01*
X143686857Y-78103428D01*
X143601142Y-78146285D01*
X144886857Y-77889142D02*
X144715428Y-77889142D01*
X144629714Y-77932000D01*
X144586857Y-77974857D01*
X144501142Y-78103428D01*
X144458285Y-78274857D01*
X144458285Y-78617714D01*
X144501142Y-78703428D01*
X144544000Y-78746285D01*
X144629714Y-78789142D01*
X144801142Y-78789142D01*
X144886857Y-78746285D01*
X144929714Y-78703428D01*
X144972571Y-78617714D01*
X144972571Y-78403428D01*
X144929714Y-78317714D01*
X144886857Y-78274857D01*
X144801142Y-78232000D01*
X144629714Y-78232000D01*
X144544000Y-78274857D01*
X144501142Y-78317714D01*
X144458285Y-78403428D01*
X144886857Y-80856142D02*
X144886857Y-81456142D01*
X144672571Y-80513285D02*
X144458285Y-81156142D01*
X145015428Y-81156142D01*
X144672571Y-83096142D02*
X144758285Y-83096142D01*
X144844000Y-83139000D01*
X144886857Y-83181857D01*
X144929714Y-83267571D01*
X144972571Y-83439000D01*
X144972571Y-83653285D01*
X144929714Y-83824714D01*
X144886857Y-83910428D01*
X144844000Y-83953285D01*
X144758285Y-83996142D01*
X144672571Y-83996142D01*
X144586857Y-83953285D01*
X144544000Y-83910428D01*
X144501142Y-83824714D01*
X144458285Y-83653285D01*
X144458285Y-83439000D01*
X144501142Y-83267571D01*
X144544000Y-83181857D01*
X144586857Y-83139000D01*
X144672571Y-83096142D01*
X144458285Y-85721857D02*
X144501142Y-85679000D01*
X144586857Y-85636142D01*
X144801142Y-85636142D01*
X144886857Y-85679000D01*
X144929714Y-85721857D01*
X144972571Y-85807571D01*
X144972571Y-85893285D01*
X144929714Y-86021857D01*
X144415428Y-86536142D01*
X144972571Y-86536142D01*
X144115428Y-89076142D02*
X143601142Y-89076142D01*
X143858285Y-89076142D02*
X143858285Y-88176142D01*
X143772571Y-88304714D01*
X143686857Y-88390428D01*
X143601142Y-88433285D01*
X144929714Y-88176142D02*
X144501142Y-88176142D01*
X144458285Y-88604714D01*
X144501142Y-88561857D01*
X144586857Y-88519000D01*
X144801142Y-88519000D01*
X144886857Y-88561857D01*
X144929714Y-88604714D01*
X144972571Y-88690428D01*
X144972571Y-88904714D01*
X144929714Y-88990428D01*
X144886857Y-89033285D01*
X144801142Y-89076142D01*
X144586857Y-89076142D01*
X144501142Y-89033285D01*
X144458285Y-88990428D01*
X142701142Y-91573285D02*
X142829714Y-91616142D01*
X143044000Y-91616142D01*
X143129714Y-91573285D01*
X143172571Y-91530428D01*
X143215428Y-91444714D01*
X143215428Y-91359000D01*
X143172571Y-91273285D01*
X143129714Y-91230428D01*
X143044000Y-91187571D01*
X142872571Y-91144714D01*
X142786857Y-91101857D01*
X142744000Y-91059000D01*
X142701142Y-90973285D01*
X142701142Y-90887571D01*
X142744000Y-90801857D01*
X142786857Y-90759000D01*
X142872571Y-90716142D01*
X143086857Y-90716142D01*
X143215428Y-90759000D01*
X143601142Y-91616142D02*
X143601142Y-90716142D01*
X143815428Y-90716142D01*
X143944000Y-90759000D01*
X144029714Y-90844714D01*
X144072571Y-90930428D01*
X144115428Y-91101857D01*
X144115428Y-91230428D01*
X144072571Y-91401857D01*
X144029714Y-91487571D01*
X143944000Y-91573285D01*
X143815428Y-91616142D01*
X143601142Y-91616142D01*
X144972571Y-91616142D02*
X144458285Y-91616142D01*
X144715428Y-91616142D02*
X144715428Y-90716142D01*
X144629714Y-90844714D01*
X144544000Y-90930428D01*
X144458285Y-90973285D01*
X142701142Y-94113285D02*
X142829714Y-94156142D01*
X143044000Y-94156142D01*
X143129714Y-94113285D01*
X143172571Y-94070428D01*
X143215428Y-93984714D01*
X143215428Y-93899000D01*
X143172571Y-93813285D01*
X143129714Y-93770428D01*
X143044000Y-93727571D01*
X142872571Y-93684714D01*
X142786857Y-93641857D01*
X142744000Y-93599000D01*
X142701142Y-93513285D01*
X142701142Y-93427571D01*
X142744000Y-93341857D01*
X142786857Y-93299000D01*
X142872571Y-93256142D01*
X143086857Y-93256142D01*
X143215428Y-93299000D01*
X143601142Y-94156142D02*
X143601142Y-93256142D01*
X143815428Y-93256142D01*
X143944000Y-93299000D01*
X144029714Y-93384714D01*
X144072571Y-93470428D01*
X144115428Y-93641857D01*
X144115428Y-93770428D01*
X144072571Y-93941857D01*
X144029714Y-94027571D01*
X143944000Y-94113285D01*
X143815428Y-94156142D01*
X143601142Y-94156142D01*
X144672571Y-93256142D02*
X144758285Y-93256142D01*
X144844000Y-93299000D01*
X144886857Y-93341857D01*
X144929714Y-93427571D01*
X144972571Y-93599000D01*
X144972571Y-93813285D01*
X144929714Y-93984714D01*
X144886857Y-94070428D01*
X144844000Y-94113285D01*
X144758285Y-94156142D01*
X144672571Y-94156142D01*
X144586857Y-94113285D01*
X144544000Y-94070428D01*
X144501142Y-93984714D01*
X144458285Y-93813285D01*
X144458285Y-93599000D01*
X144501142Y-93427571D01*
X144544000Y-93341857D01*
X144586857Y-93299000D01*
X144672571Y-93256142D01*
X143471000Y-96610428D02*
X143428142Y-96653285D01*
X143299571Y-96696142D01*
X143213857Y-96696142D01*
X143085285Y-96653285D01*
X142999571Y-96567571D01*
X142956714Y-96481857D01*
X142913857Y-96310428D01*
X142913857Y-96181857D01*
X142956714Y-96010428D01*
X142999571Y-95924714D01*
X143085285Y-95839000D01*
X143213857Y-95796142D01*
X143299571Y-95796142D01*
X143428142Y-95839000D01*
X143471000Y-95881857D01*
X144285285Y-96696142D02*
X143856714Y-96696142D01*
X143856714Y-95796142D01*
X144585285Y-96696142D02*
X144585285Y-95796142D01*
X145099571Y-96696142D02*
X144713857Y-96181857D01*
X145099571Y-95796142D02*
X144585285Y-96310428D01*
X111536571Y-96610428D02*
X111493714Y-96653285D01*
X111365142Y-96696142D01*
X111279428Y-96696142D01*
X111150857Y-96653285D01*
X111065142Y-96567571D01*
X111022285Y-96481857D01*
X110979428Y-96310428D01*
X110979428Y-96181857D01*
X111022285Y-96010428D01*
X111065142Y-95924714D01*
X111150857Y-95839000D01*
X111279428Y-95796142D01*
X111365142Y-95796142D01*
X111493714Y-95839000D01*
X111536571Y-95881857D01*
X111922285Y-96696142D02*
X111922285Y-95796142D01*
X112222285Y-96439000D01*
X112522285Y-95796142D01*
X112522285Y-96696142D01*
X112950857Y-96696142D02*
X112950857Y-95796142D01*
X113165142Y-95796142D01*
X113293714Y-95839000D01*
X113379428Y-95924714D01*
X113422285Y-96010428D01*
X113465142Y-96181857D01*
X113465142Y-96310428D01*
X113422285Y-96481857D01*
X113379428Y-96567571D01*
X113293714Y-96653285D01*
X113165142Y-96696142D01*
X112950857Y-96696142D01*
X110979428Y-94113285D02*
X111108000Y-94156142D01*
X111322285Y-94156142D01*
X111408000Y-94113285D01*
X111450857Y-94070428D01*
X111493714Y-93984714D01*
X111493714Y-93899000D01*
X111450857Y-93813285D01*
X111408000Y-93770428D01*
X111322285Y-93727571D01*
X111150857Y-93684714D01*
X111065142Y-93641857D01*
X111022285Y-93599000D01*
X110979428Y-93513285D01*
X110979428Y-93427571D01*
X111022285Y-93341857D01*
X111065142Y-93299000D01*
X111150857Y-93256142D01*
X111365142Y-93256142D01*
X111493714Y-93299000D01*
X111879428Y-94156142D02*
X111879428Y-93256142D01*
X112093714Y-93256142D01*
X112222285Y-93299000D01*
X112308000Y-93384714D01*
X112350857Y-93470428D01*
X112393714Y-93641857D01*
X112393714Y-93770428D01*
X112350857Y-93941857D01*
X112308000Y-94027571D01*
X112222285Y-94113285D01*
X112093714Y-94156142D01*
X111879428Y-94156142D01*
X112693714Y-93256142D02*
X113250857Y-93256142D01*
X112950857Y-93599000D01*
X113079428Y-93599000D01*
X113165142Y-93641857D01*
X113208000Y-93684714D01*
X113250857Y-93770428D01*
X113250857Y-93984714D01*
X113208000Y-94070428D01*
X113165142Y-94113285D01*
X113079428Y-94156142D01*
X112822285Y-94156142D01*
X112736571Y-94113285D01*
X112693714Y-94070428D01*
X110979428Y-91573285D02*
X111108000Y-91616142D01*
X111322285Y-91616142D01*
X111408000Y-91573285D01*
X111450857Y-91530428D01*
X111493714Y-91444714D01*
X111493714Y-91359000D01*
X111450857Y-91273285D01*
X111408000Y-91230428D01*
X111322285Y-91187571D01*
X111150857Y-91144714D01*
X111065142Y-91101857D01*
X111022285Y-91059000D01*
X110979428Y-90973285D01*
X110979428Y-90887571D01*
X111022285Y-90801857D01*
X111065142Y-90759000D01*
X111150857Y-90716142D01*
X111365142Y-90716142D01*
X111493714Y-90759000D01*
X111879428Y-91616142D02*
X111879428Y-90716142D01*
X112093714Y-90716142D01*
X112222285Y-90759000D01*
X112308000Y-90844714D01*
X112350857Y-90930428D01*
X112393714Y-91101857D01*
X112393714Y-91230428D01*
X112350857Y-91401857D01*
X112308000Y-91487571D01*
X112222285Y-91573285D01*
X112093714Y-91616142D01*
X111879428Y-91616142D01*
X112736571Y-90801857D02*
X112779428Y-90759000D01*
X112865142Y-90716142D01*
X113079428Y-90716142D01*
X113165142Y-90759000D01*
X113208000Y-90801857D01*
X113250857Y-90887571D01*
X113250857Y-90973285D01*
X113208000Y-91101857D01*
X112693714Y-91616142D01*
X113250857Y-91616142D01*
X111493714Y-88949142D02*
X110979428Y-88949142D01*
X111236571Y-88949142D02*
X111236571Y-88049142D01*
X111150857Y-88177714D01*
X111065142Y-88263428D01*
X110979428Y-88306285D01*
X111793714Y-88049142D02*
X112350857Y-88049142D01*
X112050857Y-88392000D01*
X112179428Y-88392000D01*
X112265142Y-88434857D01*
X112308000Y-88477714D01*
X112350857Y-88563428D01*
X112350857Y-88777714D01*
X112308000Y-88863428D01*
X112265142Y-88906285D01*
X112179428Y-88949142D01*
X111922285Y-88949142D01*
X111836571Y-88906285D01*
X111793714Y-88863428D01*
X111493714Y-86663142D02*
X110979428Y-86663142D01*
X111236571Y-86663142D02*
X111236571Y-85763142D01*
X111150857Y-85891714D01*
X111065142Y-85977428D01*
X110979428Y-86020285D01*
X111836571Y-85848857D02*
X111879428Y-85806000D01*
X111965142Y-85763142D01*
X112179428Y-85763142D01*
X112265142Y-85806000D01*
X112308000Y-85848857D01*
X112350857Y-85934571D01*
X112350857Y-86020285D01*
X112308000Y-86148857D01*
X111793714Y-86663142D01*
X112350857Y-86663142D01*
X111366714Y-83996142D02*
X110852428Y-83996142D01*
X111109571Y-83996142D02*
X111109571Y-83096142D01*
X111023857Y-83224714D01*
X110938142Y-83310428D01*
X110852428Y-83353285D01*
X112138142Y-83396142D02*
X112138142Y-83996142D01*
X111923857Y-83053285D02*
X111709571Y-83696142D01*
X112266714Y-83696142D01*
X110852428Y-80641857D02*
X110895285Y-80599000D01*
X110981000Y-80556142D01*
X111195285Y-80556142D01*
X111281000Y-80599000D01*
X111323857Y-80641857D01*
X111366714Y-80727571D01*
X111366714Y-80813285D01*
X111323857Y-80941857D01*
X110809571Y-81456142D01*
X111366714Y-81456142D01*
X111666714Y-80556142D02*
X112266714Y-80556142D01*
X111881000Y-81456142D01*
X110852428Y-78101857D02*
X110895285Y-78059000D01*
X110981000Y-78016142D01*
X111195285Y-78016142D01*
X111281000Y-78059000D01*
X111323857Y-78101857D01*
X111366714Y-78187571D01*
X111366714Y-78273285D01*
X111323857Y-78401857D01*
X110809571Y-78916142D01*
X111366714Y-78916142D01*
X112138142Y-78016142D02*
X111966714Y-78016142D01*
X111881000Y-78059000D01*
X111838142Y-78101857D01*
X111752428Y-78230428D01*
X111709571Y-78401857D01*
X111709571Y-78744714D01*
X111752428Y-78830428D01*
X111795285Y-78873285D01*
X111881000Y-78916142D01*
X112052428Y-78916142D01*
X112138142Y-78873285D01*
X112181000Y-78830428D01*
X112223857Y-78744714D01*
X112223857Y-78530428D01*
X112181000Y-78444714D01*
X112138142Y-78401857D01*
X112052428Y-78359000D01*
X111881000Y-78359000D01*
X111795285Y-78401857D01*
X111752428Y-78444714D01*
X111709571Y-78530428D01*
X110809571Y-73063142D02*
X111366714Y-73063142D01*
X111066714Y-73406000D01*
X111195285Y-73406000D01*
X111281000Y-73448857D01*
X111323857Y-73491714D01*
X111366714Y-73577428D01*
X111366714Y-73791714D01*
X111323857Y-73877428D01*
X111281000Y-73920285D01*
X111195285Y-73963142D01*
X110938142Y-73963142D01*
X110852428Y-73920285D01*
X110809571Y-73877428D01*
X111666714Y-73063142D02*
X112223857Y-73063142D01*
X111923857Y-73406000D01*
X112052428Y-73406000D01*
X112138142Y-73448857D01*
X112181000Y-73491714D01*
X112223857Y-73577428D01*
X112223857Y-73791714D01*
X112181000Y-73877428D01*
X112138142Y-73920285D01*
X112052428Y-73963142D01*
X111795285Y-73963142D01*
X111709571Y-73920285D01*
X111666714Y-73877428D01*
X110852428Y-75561857D02*
X110895285Y-75519000D01*
X110981000Y-75476142D01*
X111195285Y-75476142D01*
X111281000Y-75519000D01*
X111323857Y-75561857D01*
X111366714Y-75647571D01*
X111366714Y-75733285D01*
X111323857Y-75861857D01*
X110809571Y-76376142D01*
X111366714Y-76376142D01*
X112181000Y-75476142D02*
X111752428Y-75476142D01*
X111709571Y-75904714D01*
X111752428Y-75861857D01*
X111838142Y-75819000D01*
X112052428Y-75819000D01*
X112138142Y-75861857D01*
X112181000Y-75904714D01*
X112223857Y-75990428D01*
X112223857Y-76204714D01*
X112181000Y-76290428D01*
X112138142Y-76333285D01*
X112052428Y-76376142D01*
X111838142Y-76376142D01*
X111752428Y-76333285D01*
X111709571Y-76290428D01*
X110809571Y-70523142D02*
X111366714Y-70523142D01*
X111066714Y-70866000D01*
X111195285Y-70866000D01*
X111281000Y-70908857D01*
X111323857Y-70951714D01*
X111366714Y-71037428D01*
X111366714Y-71251714D01*
X111323857Y-71337428D01*
X111281000Y-71380285D01*
X111195285Y-71423142D01*
X110938142Y-71423142D01*
X110852428Y-71380285D01*
X110809571Y-71337428D01*
X111709571Y-70608857D02*
X111752428Y-70566000D01*
X111838142Y-70523142D01*
X112052428Y-70523142D01*
X112138142Y-70566000D01*
X112181000Y-70608857D01*
X112223857Y-70694571D01*
X112223857Y-70780285D01*
X112181000Y-70908857D01*
X111666714Y-71423142D01*
X112223857Y-71423142D01*
X110809571Y-67856142D02*
X111366714Y-67856142D01*
X111066714Y-68199000D01*
X111195285Y-68199000D01*
X111281000Y-68241857D01*
X111323857Y-68284714D01*
X111366714Y-68370428D01*
X111366714Y-68584714D01*
X111323857Y-68670428D01*
X111281000Y-68713285D01*
X111195285Y-68756142D01*
X110938142Y-68756142D01*
X110852428Y-68713285D01*
X110809571Y-68670428D01*
X112181000Y-67856142D02*
X111752428Y-67856142D01*
X111709571Y-68284714D01*
X111752428Y-68241857D01*
X111838142Y-68199000D01*
X112052428Y-68199000D01*
X112138142Y-68241857D01*
X112181000Y-68284714D01*
X112223857Y-68370428D01*
X112223857Y-68584714D01*
X112181000Y-68670428D01*
X112138142Y-68713285D01*
X112052428Y-68756142D01*
X111838142Y-68756142D01*
X111752428Y-68713285D01*
X111709571Y-68670428D01*
X110809571Y-65443142D02*
X111366714Y-65443142D01*
X111066714Y-65786000D01*
X111195285Y-65786000D01*
X111281000Y-65828857D01*
X111323857Y-65871714D01*
X111366714Y-65957428D01*
X111366714Y-66171714D01*
X111323857Y-66257428D01*
X111281000Y-66300285D01*
X111195285Y-66343142D01*
X110938142Y-66343142D01*
X110852428Y-66300285D01*
X110809571Y-66257428D01*
X112138142Y-65743142D02*
X112138142Y-66343142D01*
X111923857Y-65400285D02*
X111709571Y-66043142D01*
X112266714Y-66043142D01*
X110852428Y-63760285D02*
X110981000Y-63803142D01*
X111195285Y-63803142D01*
X111281000Y-63760285D01*
X111323857Y-63717428D01*
X111366714Y-63631714D01*
X111366714Y-63546000D01*
X111323857Y-63460285D01*
X111281000Y-63417428D01*
X111195285Y-63374571D01*
X111023857Y-63331714D01*
X110938142Y-63288857D01*
X110895285Y-63246000D01*
X110852428Y-63160285D01*
X110852428Y-63074571D01*
X110895285Y-62988857D01*
X110938142Y-62946000D01*
X111023857Y-62903142D01*
X111238142Y-62903142D01*
X111366714Y-62946000D01*
X111623857Y-62903142D02*
X111923857Y-63803142D01*
X112223857Y-62903142D01*
X112523857Y-63803142D02*
X112523857Y-62903142D01*
X113038142Y-63803142D01*
X113038142Y-62903142D01*
X110852428Y-61220285D02*
X110981000Y-61263142D01*
X111195285Y-61263142D01*
X111281000Y-61220285D01*
X111323857Y-61177428D01*
X111366714Y-61091714D01*
X111366714Y-61006000D01*
X111323857Y-60920285D01*
X111281000Y-60877428D01*
X111195285Y-60834571D01*
X111023857Y-60791714D01*
X110938142Y-60748857D01*
X110895285Y-60706000D01*
X110852428Y-60620285D01*
X110852428Y-60534571D01*
X110895285Y-60448857D01*
X110938142Y-60406000D01*
X111023857Y-60363142D01*
X111238142Y-60363142D01*
X111366714Y-60406000D01*
X111623857Y-60363142D02*
X111923857Y-61263142D01*
X112223857Y-60363142D01*
X112523857Y-61263142D02*
X112523857Y-60363142D01*
X112866714Y-60363142D01*
X112952428Y-60406000D01*
X112995285Y-60448857D01*
X113038142Y-60534571D01*
X113038142Y-60663142D01*
X112995285Y-60748857D01*
X112952428Y-60791714D01*
X112866714Y-60834571D01*
X112523857Y-60834571D01*
X110895285Y-58251714D02*
X111195285Y-58251714D01*
X111323857Y-58723142D02*
X110895285Y-58723142D01*
X110895285Y-57823142D01*
X111323857Y-57823142D01*
X111709571Y-58723142D02*
X111709571Y-57823142D01*
X112223857Y-58723142D01*
X112223857Y-57823142D01*
X110809571Y-55156142D02*
X111366714Y-55156142D01*
X111066714Y-55499000D01*
X111195285Y-55499000D01*
X111281000Y-55541857D01*
X111323857Y-55584714D01*
X111366714Y-55670428D01*
X111366714Y-55884714D01*
X111323857Y-55970428D01*
X111281000Y-56013285D01*
X111195285Y-56056142D01*
X110938142Y-56056142D01*
X110852428Y-56013285D01*
X110809571Y-55970428D01*
X111623857Y-55156142D02*
X111923857Y-56056142D01*
X112223857Y-55156142D01*
X112438142Y-55156142D02*
X112995285Y-55156142D01*
X112695285Y-55499000D01*
X112823857Y-55499000D01*
X112909571Y-55541857D01*
X112952428Y-55584714D01*
X112995285Y-55670428D01*
X112995285Y-55884714D01*
X112952428Y-55970428D01*
X112909571Y-56013285D01*
X112823857Y-56056142D01*
X112566714Y-56056142D01*
X112481000Y-56013285D01*
X112438142Y-55970428D01*
X111366714Y-52659000D02*
X111281000Y-52616142D01*
X111152428Y-52616142D01*
X111023857Y-52659000D01*
X110938142Y-52744714D01*
X110895285Y-52830428D01*
X110852428Y-53001857D01*
X110852428Y-53130428D01*
X110895285Y-53301857D01*
X110938142Y-53387571D01*
X111023857Y-53473285D01*
X111152428Y-53516142D01*
X111238142Y-53516142D01*
X111366714Y-53473285D01*
X111409571Y-53430428D01*
X111409571Y-53130428D01*
X111238142Y-53130428D01*
X111795285Y-53516142D02*
X111795285Y-52616142D01*
X112309571Y-53516142D01*
X112309571Y-52616142D01*
X112738142Y-53516142D02*
X112738142Y-52616142D01*
X112952428Y-52616142D01*
X113081000Y-52659000D01*
X113166714Y-52744714D01*
X113209571Y-52830428D01*
X113252428Y-53001857D01*
X113252428Y-53130428D01*
X113209571Y-53301857D01*
X113166714Y-53387571D01*
X113081000Y-53473285D01*
X112952428Y-53516142D01*
X112738142Y-53516142D01*
D12*
G04 #@! TO.C,C2*
X140517829Y-134802589D02*
X140517829Y-135319745D01*
X139097829Y-134802589D02*
X139097829Y-135319745D01*
G04 #@! TO.C,SW2*
X121342000Y-110671000D02*
X118742000Y-110671000D01*
X117227000Y-104371000D02*
X117477000Y-104371000D01*
X117227000Y-110671000D02*
X117227000Y-104371000D01*
X117477000Y-110671000D02*
X117227000Y-110671000D01*
X118742000Y-104371000D02*
X121342000Y-104371000D01*
X122857000Y-110671000D02*
X122607000Y-110671000D01*
X122857000Y-104371000D02*
X122857000Y-110671000D01*
X122607000Y-104371000D02*
X122857000Y-104371000D01*
G04 #@! TO.C,J1*
X148550000Y-102381000D02*
X145890000Y-102381000D01*
X148550000Y-145621000D02*
X148550000Y-102381000D01*
X145890000Y-145621000D02*
X145890000Y-102381000D01*
X148550000Y-145621000D02*
X145890000Y-145621000D01*
X148550000Y-146891000D02*
X148550000Y-148221000D01*
X148550000Y-148221000D02*
X147220000Y-148221000D01*
G04 #@! TO.C,C1*
X141557000Y-134802589D02*
X141557000Y-135319745D01*
X142977000Y-134802589D02*
X142977000Y-135319745D01*
G04 #@! TO.C,C4*
X118259422Y-113542000D02*
X118776578Y-113542000D01*
X118259422Y-114962000D02*
X118776578Y-114962000D01*
G04 #@! TO.C,J2*
X110450000Y-102381000D02*
X107790000Y-102381000D01*
X110450000Y-145621000D02*
X110450000Y-102381000D01*
X107790000Y-145621000D02*
X107790000Y-102381000D01*
X110450000Y-145621000D02*
X107790000Y-145621000D01*
X110450000Y-146891000D02*
X110450000Y-148221000D01*
X110450000Y-148221000D02*
X109120000Y-148221000D01*
G04 #@! TO.C,SW1*
X133479000Y-110671000D02*
X133229000Y-110671000D01*
X133229000Y-110671000D02*
X133229000Y-104371000D01*
X133229000Y-104371000D02*
X133479000Y-104371000D01*
X137344000Y-110671000D02*
X134744000Y-110671000D01*
X138609000Y-104371000D02*
X138859000Y-104371000D01*
X138859000Y-104371000D02*
X138859000Y-110671000D01*
X138859000Y-110671000D02*
X138609000Y-110671000D01*
X134744000Y-104371000D02*
X137344000Y-104371000D01*
G04 #@! TO.C,C3*
X137826578Y-113288000D02*
X137309422Y-113288000D01*
X137826578Y-114708000D02*
X137309422Y-114708000D01*
G04 #@! TO.C,U1*
X137163000Y-136778000D02*
X137543000Y-136778000D01*
X137163000Y-143198000D02*
X137163000Y-136778000D01*
X118923000Y-143198000D02*
X118923000Y-136778000D01*
X137163000Y-143198000D02*
X118923000Y-143198000D01*
X118923000Y-117453000D02*
X119923000Y-117453000D01*
X118923000Y-118233000D02*
X118923000Y-117453000D01*
X137163000Y-117453000D02*
X136163000Y-117453000D01*
X137163000Y-118233000D02*
X137163000Y-117453000D01*
G04 #@! TO.C,SW1*
X78444000Y-104371000D02*
X81044000Y-104371000D01*
X82559000Y-110671000D02*
X82309000Y-110671000D01*
X82559000Y-104371000D02*
X82559000Y-110671000D01*
X82309000Y-104371000D02*
X82559000Y-104371000D01*
X81044000Y-110671000D02*
X78444000Y-110671000D01*
X76929000Y-104371000D02*
X77179000Y-104371000D01*
X76929000Y-110671000D02*
X76929000Y-104371000D01*
X77179000Y-110671000D02*
X76929000Y-110671000D01*
G04 #@! TO.C,J2*
X54150000Y-148221000D02*
X52820000Y-148221000D01*
X54150000Y-146891000D02*
X54150000Y-148221000D01*
X54150000Y-145621000D02*
X51490000Y-145621000D01*
X51490000Y-145621000D02*
X51490000Y-102381000D01*
X54150000Y-145621000D02*
X54150000Y-102381000D01*
X54150000Y-102381000D02*
X51490000Y-102381000D01*
G04 #@! TO.C,C3*
X81526578Y-114708000D02*
X81009422Y-114708000D01*
X81526578Y-113288000D02*
X81009422Y-113288000D01*
G04 #@! TO.C,C1*
X86677000Y-134802589D02*
X86677000Y-135319745D01*
X85257000Y-134802589D02*
X85257000Y-135319745D01*
G04 #@! TO.C,U1*
X80863000Y-118233000D02*
X80863000Y-117453000D01*
X80863000Y-117453000D02*
X79863000Y-117453000D01*
X62623000Y-118233000D02*
X62623000Y-117453000D01*
X62623000Y-117453000D02*
X63623000Y-117453000D01*
X80863000Y-143198000D02*
X62623000Y-143198000D01*
X62623000Y-143198000D02*
X62623000Y-136778000D01*
X80863000Y-143198000D02*
X80863000Y-136778000D01*
X80863000Y-136778000D02*
X81243000Y-136778000D01*
G04 #@! TO.C,J1*
X92250000Y-148221000D02*
X90920000Y-148221000D01*
X92250000Y-146891000D02*
X92250000Y-148221000D01*
X92250000Y-145621000D02*
X89590000Y-145621000D01*
X89590000Y-145621000D02*
X89590000Y-102381000D01*
X92250000Y-145621000D02*
X92250000Y-102381000D01*
X92250000Y-102381000D02*
X89590000Y-102381000D01*
G04 #@! TO.C,C2*
X82797829Y-134802589D02*
X82797829Y-135319745D01*
X84217829Y-134802589D02*
X84217829Y-135319745D01*
G04 #@! TO.C,C4*
X61959422Y-114962000D02*
X62476578Y-114962000D01*
X61959422Y-113542000D02*
X62476578Y-113542000D01*
G04 #@! TO.C,SW2*
X66307000Y-104371000D02*
X66557000Y-104371000D01*
X66557000Y-104371000D02*
X66557000Y-110671000D01*
X66557000Y-110671000D02*
X66307000Y-110671000D01*
X62442000Y-104371000D02*
X65042000Y-104371000D01*
X61177000Y-110671000D02*
X60927000Y-110671000D01*
X60927000Y-110671000D02*
X60927000Y-104371000D01*
X60927000Y-104371000D02*
X61177000Y-104371000D01*
X65042000Y-110671000D02*
X62442000Y-110671000D01*
G04 #@! TO.C,C4*
X81740578Y-86458000D02*
X81223422Y-86458000D01*
X81740578Y-85038000D02*
X81223422Y-85038000D01*
G04 #@! TO.C,SW2*
X78658000Y-89329000D02*
X81258000Y-89329000D01*
X82773000Y-95629000D02*
X82523000Y-95629000D01*
X82773000Y-89329000D02*
X82773000Y-95629000D01*
X82523000Y-89329000D02*
X82773000Y-89329000D01*
X81258000Y-95629000D02*
X78658000Y-95629000D01*
X77143000Y-89329000D02*
X77393000Y-89329000D01*
X77143000Y-95629000D02*
X77143000Y-89329000D01*
X77393000Y-95629000D02*
X77143000Y-95629000D01*
G04 #@! TO.C,C3*
X62173422Y-86712000D02*
X62690578Y-86712000D01*
X62173422Y-85292000D02*
X62690578Y-85292000D01*
G04 #@! TO.C,C1*
X58443000Y-65197411D02*
X58443000Y-64680255D01*
X57023000Y-65197411D02*
X57023000Y-64680255D01*
G04 #@! TO.C,J2*
X89550000Y-97619000D02*
X92210000Y-97619000D01*
X89550000Y-54379000D02*
X89550000Y-97619000D01*
X92210000Y-54379000D02*
X92210000Y-97619000D01*
X89550000Y-54379000D02*
X92210000Y-54379000D01*
X89550000Y-53109000D02*
X89550000Y-51779000D01*
X89550000Y-51779000D02*
X90880000Y-51779000D01*
G04 #@! TO.C,SW1*
X66521000Y-89329000D02*
X66771000Y-89329000D01*
X66771000Y-89329000D02*
X66771000Y-95629000D01*
X66771000Y-95629000D02*
X66521000Y-95629000D01*
X62656000Y-89329000D02*
X65256000Y-89329000D01*
X61391000Y-95629000D02*
X61141000Y-95629000D01*
X61141000Y-95629000D02*
X61141000Y-89329000D01*
X61141000Y-89329000D02*
X61391000Y-89329000D01*
X65256000Y-95629000D02*
X62656000Y-95629000D01*
G04 #@! TO.C,J1*
X51450000Y-97619000D02*
X54110000Y-97619000D01*
X51450000Y-54379000D02*
X51450000Y-97619000D01*
X54110000Y-54379000D02*
X54110000Y-97619000D01*
X51450000Y-54379000D02*
X54110000Y-54379000D01*
X51450000Y-53109000D02*
X51450000Y-51779000D01*
X51450000Y-51779000D02*
X52780000Y-51779000D01*
G04 #@! TO.C,C2*
X59482171Y-65197411D02*
X59482171Y-64680255D01*
X60902171Y-65197411D02*
X60902171Y-64680255D01*
G04 #@! TO.C,U1*
X62837000Y-63222000D02*
X62457000Y-63222000D01*
X62837000Y-56802000D02*
X62837000Y-63222000D01*
X81077000Y-56802000D02*
X81077000Y-63222000D01*
X62837000Y-56802000D02*
X81077000Y-56802000D01*
X81077000Y-82547000D02*
X80077000Y-82547000D01*
X81077000Y-81767000D02*
X81077000Y-82547000D01*
X62837000Y-82547000D02*
X63837000Y-82547000D01*
X62837000Y-81767000D02*
X62837000Y-82547000D01*
G04 #@! TO.C,J1*
X107850000Y-51779000D02*
X109180000Y-51779000D01*
X107850000Y-53109000D02*
X107850000Y-51779000D01*
X107850000Y-54379000D02*
X110510000Y-54379000D01*
X110510000Y-54379000D02*
X110510000Y-97619000D01*
X107850000Y-54379000D02*
X107850000Y-97619000D01*
X107850000Y-97619000D02*
X110510000Y-97619000D01*
G04 #@! TO.C,U1*
X119237000Y-81767000D02*
X119237000Y-82547000D01*
X119237000Y-82547000D02*
X120237000Y-82547000D01*
X137477000Y-81767000D02*
X137477000Y-82547000D01*
X137477000Y-82547000D02*
X136477000Y-82547000D01*
X119237000Y-56802000D02*
X137477000Y-56802000D01*
X137477000Y-56802000D02*
X137477000Y-63222000D01*
X119237000Y-56802000D02*
X119237000Y-63222000D01*
X119237000Y-63222000D02*
X118857000Y-63222000D01*
G04 #@! TO.C,J2*
X145950000Y-51779000D02*
X147280000Y-51779000D01*
X145950000Y-53109000D02*
X145950000Y-51779000D01*
X145950000Y-54379000D02*
X148610000Y-54379000D01*
X148610000Y-54379000D02*
X148610000Y-97619000D01*
X145950000Y-54379000D02*
X145950000Y-97619000D01*
X145950000Y-97619000D02*
X148610000Y-97619000D01*
G04 #@! TO.C,C1*
X113423000Y-65197411D02*
X113423000Y-64680255D01*
X114843000Y-65197411D02*
X114843000Y-64680255D01*
G04 #@! TO.C,C2*
X117302171Y-65197411D02*
X117302171Y-64680255D01*
X115882171Y-65197411D02*
X115882171Y-64680255D01*
G04 #@! TO.C,C3*
X118573422Y-85292000D02*
X119090578Y-85292000D01*
X118573422Y-86712000D02*
X119090578Y-86712000D01*
G04 #@! TO.C,C4*
X138140578Y-85038000D02*
X137623422Y-85038000D01*
X138140578Y-86458000D02*
X137623422Y-86458000D01*
G04 #@! TO.C,SW1*
X121656000Y-95629000D02*
X119056000Y-95629000D01*
X117541000Y-89329000D02*
X117791000Y-89329000D01*
X117541000Y-95629000D02*
X117541000Y-89329000D01*
X117791000Y-95629000D02*
X117541000Y-95629000D01*
X119056000Y-89329000D02*
X121656000Y-89329000D01*
X123171000Y-95629000D02*
X122921000Y-95629000D01*
X123171000Y-89329000D02*
X123171000Y-95629000D01*
X122921000Y-89329000D02*
X123171000Y-89329000D01*
G04 #@! TO.C,SW2*
X133793000Y-95629000D02*
X133543000Y-95629000D01*
X133543000Y-95629000D02*
X133543000Y-89329000D01*
X133543000Y-89329000D02*
X133793000Y-89329000D01*
X137658000Y-95629000D02*
X135058000Y-95629000D01*
X138923000Y-89329000D02*
X139173000Y-89329000D01*
X139173000Y-89329000D02*
X139173000Y-95629000D01*
X139173000Y-95629000D02*
X138923000Y-95629000D01*
X135058000Y-89329000D02*
X137658000Y-89329000D01*
G04 #@! TO.C,C2*
D13*
X140211142Y-132706666D02*
X140258761Y-132754285D01*
X140306380Y-132897142D01*
X140306380Y-132992380D01*
X140258761Y-133135238D01*
X140163523Y-133230476D01*
X140068285Y-133278095D01*
X139877809Y-133325714D01*
X139734952Y-133325714D01*
X139544476Y-133278095D01*
X139449238Y-133230476D01*
X139354000Y-133135238D01*
X139306380Y-132992380D01*
X139306380Y-132897142D01*
X139354000Y-132754285D01*
X139401619Y-132706666D01*
X139401619Y-132325714D02*
X139354000Y-132278095D01*
X139306380Y-132182857D01*
X139306380Y-131944761D01*
X139354000Y-131849523D01*
X139401619Y-131801904D01*
X139496857Y-131754285D01*
X139592095Y-131754285D01*
X139734952Y-131801904D01*
X140306380Y-132373333D01*
X140306380Y-131754285D01*
G04 #@! TO.C,SW2*
X118677667Y-112445762D02*
X118820524Y-112493381D01*
X119058620Y-112493381D01*
X119153858Y-112445762D01*
X119201477Y-112398143D01*
X119249096Y-112302905D01*
X119249096Y-112207667D01*
X119201477Y-112112429D01*
X119153858Y-112064810D01*
X119058620Y-112017191D01*
X118868143Y-111969572D01*
X118772905Y-111921953D01*
X118725286Y-111874334D01*
X118677667Y-111779096D01*
X118677667Y-111683858D01*
X118725286Y-111588620D01*
X118772905Y-111541001D01*
X118868143Y-111493381D01*
X119106239Y-111493381D01*
X119249096Y-111541001D01*
X119582429Y-111493381D02*
X119820524Y-112493381D01*
X120011001Y-111779096D01*
X120201477Y-112493381D01*
X120439572Y-111493381D01*
X120772905Y-111588620D02*
X120820524Y-111541001D01*
X120915762Y-111493381D01*
X121153858Y-111493381D01*
X121249096Y-111541001D01*
X121296715Y-111588620D01*
X121344334Y-111683858D01*
X121344334Y-111779096D01*
X121296715Y-111921953D01*
X120725286Y-112493381D01*
X121344334Y-112493381D01*
G04 #@! TO.C,J1*
X146886666Y-148673380D02*
X146886666Y-149387666D01*
X146839047Y-149530523D01*
X146743809Y-149625761D01*
X146600952Y-149673380D01*
X146505714Y-149673380D01*
X147886666Y-149673380D02*
X147315238Y-149673380D01*
X147600952Y-149673380D02*
X147600952Y-148673380D01*
X147505714Y-148816238D01*
X147410476Y-148911476D01*
X147315238Y-148959095D01*
G04 #@! TO.C,C1*
X142624142Y-132706666D02*
X142671761Y-132754285D01*
X142719380Y-132897142D01*
X142719380Y-132992380D01*
X142671761Y-133135238D01*
X142576523Y-133230476D01*
X142481285Y-133278095D01*
X142290809Y-133325714D01*
X142147952Y-133325714D01*
X141957476Y-133278095D01*
X141862238Y-133230476D01*
X141767000Y-133135238D01*
X141719380Y-132992380D01*
X141719380Y-132897142D01*
X141767000Y-132754285D01*
X141814619Y-132706666D01*
X142719380Y-131754285D02*
X142719380Y-132325714D01*
X142719380Y-132040000D02*
X141719380Y-132040000D01*
X141862238Y-132135238D01*
X141957476Y-132230476D01*
X142005095Y-132325714D01*
G04 #@! TO.C,C4*
X121272333Y-114482142D02*
X121224714Y-114529761D01*
X121081857Y-114577380D01*
X120986619Y-114577380D01*
X120843761Y-114529761D01*
X120748523Y-114434523D01*
X120700904Y-114339285D01*
X120653285Y-114148809D01*
X120653285Y-114005952D01*
X120700904Y-113815476D01*
X120748523Y-113720238D01*
X120843761Y-113625000D01*
X120986619Y-113577380D01*
X121081857Y-113577380D01*
X121224714Y-113625000D01*
X121272333Y-113672619D01*
X122129476Y-113910714D02*
X122129476Y-114577380D01*
X121891380Y-113529761D02*
X121653285Y-114244047D01*
X122272333Y-114244047D01*
G04 #@! TO.C,J2*
X108786666Y-148673380D02*
X108786666Y-149387666D01*
X108739047Y-149530523D01*
X108643809Y-149625761D01*
X108500952Y-149673380D01*
X108405714Y-149673380D01*
X109215238Y-148768619D02*
X109262857Y-148721000D01*
X109358095Y-148673380D01*
X109596190Y-148673380D01*
X109691428Y-148721000D01*
X109739047Y-148768619D01*
X109786666Y-148863857D01*
X109786666Y-148959095D01*
X109739047Y-149101952D01*
X109167619Y-149673380D01*
X109786666Y-149673380D01*
G04 #@! TO.C,SW1*
X134964666Y-112370761D02*
X135107523Y-112418380D01*
X135345619Y-112418380D01*
X135440857Y-112370761D01*
X135488476Y-112323142D01*
X135536095Y-112227904D01*
X135536095Y-112132666D01*
X135488476Y-112037428D01*
X135440857Y-111989809D01*
X135345619Y-111942190D01*
X135155142Y-111894571D01*
X135059904Y-111846952D01*
X135012285Y-111799333D01*
X134964666Y-111704095D01*
X134964666Y-111608857D01*
X135012285Y-111513619D01*
X135059904Y-111466000D01*
X135155142Y-111418380D01*
X135393238Y-111418380D01*
X135536095Y-111466000D01*
X135869428Y-111418380D02*
X136107523Y-112418380D01*
X136298000Y-111704095D01*
X136488476Y-112418380D01*
X136726571Y-111418380D01*
X137631333Y-112418380D02*
X137059904Y-112418380D01*
X137345619Y-112418380D02*
X137345619Y-111418380D01*
X137250380Y-111561238D01*
X137155142Y-111656476D01*
X137059904Y-111704095D01*
G04 #@! TO.C,C3*
X140322333Y-114355142D02*
X140274714Y-114402761D01*
X140131857Y-114450380D01*
X140036619Y-114450380D01*
X139893761Y-114402761D01*
X139798523Y-114307523D01*
X139750904Y-114212285D01*
X139703285Y-114021809D01*
X139703285Y-113878952D01*
X139750904Y-113688476D01*
X139798523Y-113593238D01*
X139893761Y-113498000D01*
X140036619Y-113450380D01*
X140131857Y-113450380D01*
X140274714Y-113498000D01*
X140322333Y-113545619D01*
X140655666Y-113450380D02*
X141274714Y-113450380D01*
X140941380Y-113831333D01*
X141084238Y-113831333D01*
X141179476Y-113878952D01*
X141227095Y-113926571D01*
X141274714Y-114021809D01*
X141274714Y-114259904D01*
X141227095Y-114355142D01*
X141179476Y-114402761D01*
X141084238Y-114450380D01*
X140798523Y-114450380D01*
X140703285Y-114402761D01*
X140655666Y-114355142D01*
G04 #@! TO.C,U1*
X138105380Y-119664904D02*
X138914904Y-119664904D01*
X139010142Y-119617285D01*
X139057761Y-119569666D01*
X139105380Y-119474428D01*
X139105380Y-119283952D01*
X139057761Y-119188714D01*
X139010142Y-119141095D01*
X138914904Y-119093476D01*
X138105380Y-119093476D01*
X139105380Y-118093476D02*
X139105380Y-118664904D01*
X139105380Y-118379190D02*
X138105380Y-118379190D01*
X138248238Y-118474428D01*
X138343476Y-118569666D01*
X138391095Y-118664904D01*
G04 #@! TO.C,SW1*
X78664666Y-112370761D02*
X78807523Y-112418380D01*
X79045619Y-112418380D01*
X79140857Y-112370761D01*
X79188476Y-112323142D01*
X79236095Y-112227904D01*
X79236095Y-112132666D01*
X79188476Y-112037428D01*
X79140857Y-111989809D01*
X79045619Y-111942190D01*
X78855142Y-111894571D01*
X78759904Y-111846952D01*
X78712285Y-111799333D01*
X78664666Y-111704095D01*
X78664666Y-111608857D01*
X78712285Y-111513619D01*
X78759904Y-111466000D01*
X78855142Y-111418380D01*
X79093238Y-111418380D01*
X79236095Y-111466000D01*
X79569428Y-111418380D02*
X79807523Y-112418380D01*
X79998000Y-111704095D01*
X80188476Y-112418380D01*
X80426571Y-111418380D01*
X81331333Y-112418380D02*
X80759904Y-112418380D01*
X81045619Y-112418380D02*
X81045619Y-111418380D01*
X80950380Y-111561238D01*
X80855142Y-111656476D01*
X80759904Y-111704095D01*
G04 #@! TO.C,J2*
X52486666Y-148673380D02*
X52486666Y-149387666D01*
X52439047Y-149530523D01*
X52343809Y-149625761D01*
X52200952Y-149673380D01*
X52105714Y-149673380D01*
X52915238Y-148768619D02*
X52962857Y-148721000D01*
X53058095Y-148673380D01*
X53296190Y-148673380D01*
X53391428Y-148721000D01*
X53439047Y-148768619D01*
X53486666Y-148863857D01*
X53486666Y-148959095D01*
X53439047Y-149101952D01*
X52867619Y-149673380D01*
X53486666Y-149673380D01*
G04 #@! TO.C,C3*
X84022333Y-114355142D02*
X83974714Y-114402761D01*
X83831857Y-114450380D01*
X83736619Y-114450380D01*
X83593761Y-114402761D01*
X83498523Y-114307523D01*
X83450904Y-114212285D01*
X83403285Y-114021809D01*
X83403285Y-113878952D01*
X83450904Y-113688476D01*
X83498523Y-113593238D01*
X83593761Y-113498000D01*
X83736619Y-113450380D01*
X83831857Y-113450380D01*
X83974714Y-113498000D01*
X84022333Y-113545619D01*
X84355666Y-113450380D02*
X84974714Y-113450380D01*
X84641380Y-113831333D01*
X84784238Y-113831333D01*
X84879476Y-113878952D01*
X84927095Y-113926571D01*
X84974714Y-114021809D01*
X84974714Y-114259904D01*
X84927095Y-114355142D01*
X84879476Y-114402761D01*
X84784238Y-114450380D01*
X84498523Y-114450380D01*
X84403285Y-114402761D01*
X84355666Y-114355142D01*
G04 #@! TO.C,C1*
X86324142Y-132706666D02*
X86371761Y-132754285D01*
X86419380Y-132897142D01*
X86419380Y-132992380D01*
X86371761Y-133135238D01*
X86276523Y-133230476D01*
X86181285Y-133278095D01*
X85990809Y-133325714D01*
X85847952Y-133325714D01*
X85657476Y-133278095D01*
X85562238Y-133230476D01*
X85467000Y-133135238D01*
X85419380Y-132992380D01*
X85419380Y-132897142D01*
X85467000Y-132754285D01*
X85514619Y-132706666D01*
X86419380Y-131754285D02*
X86419380Y-132325714D01*
X86419380Y-132040000D02*
X85419380Y-132040000D01*
X85562238Y-132135238D01*
X85657476Y-132230476D01*
X85705095Y-132325714D01*
G04 #@! TO.C,U1*
X81805380Y-119664904D02*
X82614904Y-119664904D01*
X82710142Y-119617285D01*
X82757761Y-119569666D01*
X82805380Y-119474428D01*
X82805380Y-119283952D01*
X82757761Y-119188714D01*
X82710142Y-119141095D01*
X82614904Y-119093476D01*
X81805380Y-119093476D01*
X82805380Y-118093476D02*
X82805380Y-118664904D01*
X82805380Y-118379190D02*
X81805380Y-118379190D01*
X81948238Y-118474428D01*
X82043476Y-118569666D01*
X82091095Y-118664904D01*
G04 #@! TO.C,J1*
X90586666Y-148673380D02*
X90586666Y-149387666D01*
X90539047Y-149530523D01*
X90443809Y-149625761D01*
X90300952Y-149673380D01*
X90205714Y-149673380D01*
X91586666Y-149673380D02*
X91015238Y-149673380D01*
X91300952Y-149673380D02*
X91300952Y-148673380D01*
X91205714Y-148816238D01*
X91110476Y-148911476D01*
X91015238Y-148959095D01*
G04 #@! TO.C,C2*
X83911142Y-132706666D02*
X83958761Y-132754285D01*
X84006380Y-132897142D01*
X84006380Y-132992380D01*
X83958761Y-133135238D01*
X83863523Y-133230476D01*
X83768285Y-133278095D01*
X83577809Y-133325714D01*
X83434952Y-133325714D01*
X83244476Y-133278095D01*
X83149238Y-133230476D01*
X83054000Y-133135238D01*
X83006380Y-132992380D01*
X83006380Y-132897142D01*
X83054000Y-132754285D01*
X83101619Y-132706666D01*
X83101619Y-132325714D02*
X83054000Y-132278095D01*
X83006380Y-132182857D01*
X83006380Y-131944761D01*
X83054000Y-131849523D01*
X83101619Y-131801904D01*
X83196857Y-131754285D01*
X83292095Y-131754285D01*
X83434952Y-131801904D01*
X84006380Y-132373333D01*
X84006380Y-131754285D01*
G04 #@! TO.C,C4*
X64972333Y-114482142D02*
X64924714Y-114529761D01*
X64781857Y-114577380D01*
X64686619Y-114577380D01*
X64543761Y-114529761D01*
X64448523Y-114434523D01*
X64400904Y-114339285D01*
X64353285Y-114148809D01*
X64353285Y-114005952D01*
X64400904Y-113815476D01*
X64448523Y-113720238D01*
X64543761Y-113625000D01*
X64686619Y-113577380D01*
X64781857Y-113577380D01*
X64924714Y-113625000D01*
X64972333Y-113672619D01*
X65829476Y-113910714D02*
X65829476Y-114577380D01*
X65591380Y-113529761D02*
X65353285Y-114244047D01*
X65972333Y-114244047D01*
G04 #@! TO.C,SW2*
X62377667Y-112445762D02*
X62520524Y-112493381D01*
X62758620Y-112493381D01*
X62853858Y-112445762D01*
X62901477Y-112398143D01*
X62949096Y-112302905D01*
X62949096Y-112207667D01*
X62901477Y-112112429D01*
X62853858Y-112064810D01*
X62758620Y-112017191D01*
X62568143Y-111969572D01*
X62472905Y-111921953D01*
X62425286Y-111874334D01*
X62377667Y-111779096D01*
X62377667Y-111683858D01*
X62425286Y-111588620D01*
X62472905Y-111541001D01*
X62568143Y-111493381D01*
X62806239Y-111493381D01*
X62949096Y-111541001D01*
X63282429Y-111493381D02*
X63520524Y-112493381D01*
X63711001Y-111779096D01*
X63901477Y-112493381D01*
X64139572Y-111493381D01*
X64472905Y-111588620D02*
X64520524Y-111541001D01*
X64615762Y-111493381D01*
X64853858Y-111493381D01*
X64949096Y-111541001D01*
X64996715Y-111588620D01*
X65044334Y-111683858D01*
X65044334Y-111779096D01*
X64996715Y-111921953D01*
X64425286Y-112493381D01*
X65044334Y-112493381D01*
G04 #@! TO.C,C4*
X78394333Y-86232142D02*
X78346714Y-86279761D01*
X78203857Y-86327380D01*
X78108619Y-86327380D01*
X77965761Y-86279761D01*
X77870523Y-86184523D01*
X77822904Y-86089285D01*
X77775285Y-85898809D01*
X77775285Y-85755952D01*
X77822904Y-85565476D01*
X77870523Y-85470238D01*
X77965761Y-85375000D01*
X78108619Y-85327380D01*
X78203857Y-85327380D01*
X78346714Y-85375000D01*
X78394333Y-85422619D01*
X79251476Y-85660714D02*
X79251476Y-86327380D01*
X79013380Y-85279761D02*
X78775285Y-85994047D01*
X79394333Y-85994047D01*
G04 #@! TO.C,SW2*
X78655665Y-88363760D02*
X78798522Y-88411379D01*
X79036618Y-88411379D01*
X79131856Y-88363760D01*
X79179475Y-88316141D01*
X79227094Y-88220903D01*
X79227094Y-88125665D01*
X79179475Y-88030427D01*
X79131856Y-87982808D01*
X79036618Y-87935189D01*
X78846141Y-87887570D01*
X78750903Y-87839951D01*
X78703284Y-87792332D01*
X78655665Y-87697094D01*
X78655665Y-87601856D01*
X78703284Y-87506618D01*
X78750903Y-87458999D01*
X78846141Y-87411379D01*
X79084237Y-87411379D01*
X79227094Y-87458999D01*
X79560427Y-87411379D02*
X79798522Y-88411379D01*
X79988999Y-87697094D01*
X80179475Y-88411379D01*
X80417570Y-87411379D01*
X80750903Y-87506618D02*
X80798522Y-87458999D01*
X80893760Y-87411379D01*
X81131856Y-87411379D01*
X81227094Y-87458999D01*
X81274713Y-87506618D01*
X81322332Y-87601856D01*
X81322332Y-87697094D01*
X81274713Y-87839951D01*
X80703284Y-88411379D01*
X81322332Y-88411379D01*
G04 #@! TO.C,C3*
X59344333Y-86359142D02*
X59296714Y-86406761D01*
X59153857Y-86454380D01*
X59058619Y-86454380D01*
X58915761Y-86406761D01*
X58820523Y-86311523D01*
X58772904Y-86216285D01*
X58725285Y-86025809D01*
X58725285Y-85882952D01*
X58772904Y-85692476D01*
X58820523Y-85597238D01*
X58915761Y-85502000D01*
X59058619Y-85454380D01*
X59153857Y-85454380D01*
X59296714Y-85502000D01*
X59344333Y-85549619D01*
X59677666Y-85454380D02*
X60296714Y-85454380D01*
X59963380Y-85835333D01*
X60106238Y-85835333D01*
X60201476Y-85882952D01*
X60249095Y-85930571D01*
X60296714Y-86025809D01*
X60296714Y-86263904D01*
X60249095Y-86359142D01*
X60201476Y-86406761D01*
X60106238Y-86454380D01*
X59820523Y-86454380D01*
X59725285Y-86406761D01*
X59677666Y-86359142D01*
G04 #@! TO.C,C1*
X58090142Y-67626666D02*
X58137761Y-67674285D01*
X58185380Y-67817142D01*
X58185380Y-67912380D01*
X58137761Y-68055238D01*
X58042523Y-68150476D01*
X57947285Y-68198095D01*
X57756809Y-68245714D01*
X57613952Y-68245714D01*
X57423476Y-68198095D01*
X57328238Y-68150476D01*
X57233000Y-68055238D01*
X57185380Y-67912380D01*
X57185380Y-67817142D01*
X57233000Y-67674285D01*
X57280619Y-67626666D01*
X58185380Y-66674285D02*
X58185380Y-67245714D01*
X58185380Y-66960000D02*
X57185380Y-66960000D01*
X57328238Y-67055238D01*
X57423476Y-67150476D01*
X57471095Y-67245714D01*
G04 #@! TO.C,J2*
X90546666Y-50231380D02*
X90546666Y-50945666D01*
X90499047Y-51088523D01*
X90403809Y-51183761D01*
X90260952Y-51231380D01*
X90165714Y-51231380D01*
X90975238Y-50326619D02*
X91022857Y-50279000D01*
X91118095Y-50231380D01*
X91356190Y-50231380D01*
X91451428Y-50279000D01*
X91499047Y-50326619D01*
X91546666Y-50421857D01*
X91546666Y-50517095D01*
X91499047Y-50659952D01*
X90927619Y-51231380D01*
X91546666Y-51231380D01*
G04 #@! TO.C,SW1*
X62368666Y-88438761D02*
X62511523Y-88486380D01*
X62749619Y-88486380D01*
X62844857Y-88438761D01*
X62892476Y-88391142D01*
X62940095Y-88295904D01*
X62940095Y-88200666D01*
X62892476Y-88105428D01*
X62844857Y-88057809D01*
X62749619Y-88010190D01*
X62559142Y-87962571D01*
X62463904Y-87914952D01*
X62416285Y-87867333D01*
X62368666Y-87772095D01*
X62368666Y-87676857D01*
X62416285Y-87581619D01*
X62463904Y-87534000D01*
X62559142Y-87486380D01*
X62797238Y-87486380D01*
X62940095Y-87534000D01*
X63273428Y-87486380D02*
X63511523Y-88486380D01*
X63702000Y-87772095D01*
X63892476Y-88486380D01*
X64130571Y-87486380D01*
X65035333Y-88486380D02*
X64463904Y-88486380D01*
X64749619Y-88486380D02*
X64749619Y-87486380D01*
X64654380Y-87629238D01*
X64559142Y-87724476D01*
X64463904Y-87772095D01*
G04 #@! TO.C,J1*
X52446666Y-50231380D02*
X52446666Y-50945666D01*
X52399047Y-51088523D01*
X52303809Y-51183761D01*
X52160952Y-51231380D01*
X52065714Y-51231380D01*
X53446666Y-51231380D02*
X52875238Y-51231380D01*
X53160952Y-51231380D02*
X53160952Y-50231380D01*
X53065714Y-50374238D01*
X52970476Y-50469476D01*
X52875238Y-50517095D01*
G04 #@! TO.C,C2*
X60503142Y-67626666D02*
X60550761Y-67674285D01*
X60598380Y-67817142D01*
X60598380Y-67912380D01*
X60550761Y-68055238D01*
X60455523Y-68150476D01*
X60360285Y-68198095D01*
X60169809Y-68245714D01*
X60026952Y-68245714D01*
X59836476Y-68198095D01*
X59741238Y-68150476D01*
X59646000Y-68055238D01*
X59598380Y-67912380D01*
X59598380Y-67817142D01*
X59646000Y-67674285D01*
X59693619Y-67626666D01*
X59693619Y-67245714D02*
X59646000Y-67198095D01*
X59598380Y-67102857D01*
X59598380Y-66864761D01*
X59646000Y-66769523D01*
X59693619Y-66721904D01*
X59788857Y-66674285D01*
X59884095Y-66674285D01*
X60026952Y-66721904D01*
X60598380Y-67293333D01*
X60598380Y-66674285D01*
G04 #@! TO.C,U1*
X60799380Y-81858904D02*
X61608904Y-81858904D01*
X61704142Y-81811285D01*
X61751761Y-81763666D01*
X61799380Y-81668428D01*
X61799380Y-81477952D01*
X61751761Y-81382714D01*
X61704142Y-81335095D01*
X61608904Y-81287476D01*
X60799380Y-81287476D01*
X61799380Y-80287476D02*
X61799380Y-80858904D01*
X61799380Y-80573190D02*
X60799380Y-80573190D01*
X60942238Y-80668428D01*
X61037476Y-80763666D01*
X61085095Y-80858904D01*
G04 #@! TO.C,J1*
X108846666Y-50231380D02*
X108846666Y-50945666D01*
X108799047Y-51088523D01*
X108703809Y-51183761D01*
X108560952Y-51231380D01*
X108465714Y-51231380D01*
X109846666Y-51231380D02*
X109275238Y-51231380D01*
X109560952Y-51231380D02*
X109560952Y-50231380D01*
X109465714Y-50374238D01*
X109370476Y-50469476D01*
X109275238Y-50517095D01*
G04 #@! TO.C,U1*
X117199380Y-81858904D02*
X118008904Y-81858904D01*
X118104142Y-81811285D01*
X118151761Y-81763666D01*
X118199380Y-81668428D01*
X118199380Y-81477952D01*
X118151761Y-81382714D01*
X118104142Y-81335095D01*
X118008904Y-81287476D01*
X117199380Y-81287476D01*
X118199380Y-80287476D02*
X118199380Y-80858904D01*
X118199380Y-80573190D02*
X117199380Y-80573190D01*
X117342238Y-80668428D01*
X117437476Y-80763666D01*
X117485095Y-80858904D01*
G04 #@! TO.C,J2*
X146946666Y-50231380D02*
X146946666Y-50945666D01*
X146899047Y-51088523D01*
X146803809Y-51183761D01*
X146660952Y-51231380D01*
X146565714Y-51231380D01*
X147375238Y-50326619D02*
X147422857Y-50279000D01*
X147518095Y-50231380D01*
X147756190Y-50231380D01*
X147851428Y-50279000D01*
X147899047Y-50326619D01*
X147946666Y-50421857D01*
X147946666Y-50517095D01*
X147899047Y-50659952D01*
X147327619Y-51231380D01*
X147946666Y-51231380D01*
G04 #@! TO.C,C1*
X114490142Y-67626666D02*
X114537761Y-67674285D01*
X114585380Y-67817142D01*
X114585380Y-67912380D01*
X114537761Y-68055238D01*
X114442523Y-68150476D01*
X114347285Y-68198095D01*
X114156809Y-68245714D01*
X114013952Y-68245714D01*
X113823476Y-68198095D01*
X113728238Y-68150476D01*
X113633000Y-68055238D01*
X113585380Y-67912380D01*
X113585380Y-67817142D01*
X113633000Y-67674285D01*
X113680619Y-67626666D01*
X114585380Y-66674285D02*
X114585380Y-67245714D01*
X114585380Y-66960000D02*
X113585380Y-66960000D01*
X113728238Y-67055238D01*
X113823476Y-67150476D01*
X113871095Y-67245714D01*
G04 #@! TO.C,C2*
X116903142Y-67626666D02*
X116950761Y-67674285D01*
X116998380Y-67817142D01*
X116998380Y-67912380D01*
X116950761Y-68055238D01*
X116855523Y-68150476D01*
X116760285Y-68198095D01*
X116569809Y-68245714D01*
X116426952Y-68245714D01*
X116236476Y-68198095D01*
X116141238Y-68150476D01*
X116046000Y-68055238D01*
X115998380Y-67912380D01*
X115998380Y-67817142D01*
X116046000Y-67674285D01*
X116093619Y-67626666D01*
X116093619Y-67245714D02*
X116046000Y-67198095D01*
X115998380Y-67102857D01*
X115998380Y-66864761D01*
X116046000Y-66769523D01*
X116093619Y-66721904D01*
X116188857Y-66674285D01*
X116284095Y-66674285D01*
X116426952Y-66721904D01*
X116998380Y-67293333D01*
X116998380Y-66674285D01*
G04 #@! TO.C,C3*
X115744333Y-86359142D02*
X115696714Y-86406761D01*
X115553857Y-86454380D01*
X115458619Y-86454380D01*
X115315761Y-86406761D01*
X115220523Y-86311523D01*
X115172904Y-86216285D01*
X115125285Y-86025809D01*
X115125285Y-85882952D01*
X115172904Y-85692476D01*
X115220523Y-85597238D01*
X115315761Y-85502000D01*
X115458619Y-85454380D01*
X115553857Y-85454380D01*
X115696714Y-85502000D01*
X115744333Y-85549619D01*
X116077666Y-85454380D02*
X116696714Y-85454380D01*
X116363380Y-85835333D01*
X116506238Y-85835333D01*
X116601476Y-85882952D01*
X116649095Y-85930571D01*
X116696714Y-86025809D01*
X116696714Y-86263904D01*
X116649095Y-86359142D01*
X116601476Y-86406761D01*
X116506238Y-86454380D01*
X116220523Y-86454380D01*
X116125285Y-86406761D01*
X116077666Y-86359142D01*
G04 #@! TO.C,C4*
X134794333Y-86232142D02*
X134746714Y-86279761D01*
X134603857Y-86327380D01*
X134508619Y-86327380D01*
X134365761Y-86279761D01*
X134270523Y-86184523D01*
X134222904Y-86089285D01*
X134175285Y-85898809D01*
X134175285Y-85755952D01*
X134222904Y-85565476D01*
X134270523Y-85470238D01*
X134365761Y-85375000D01*
X134508619Y-85327380D01*
X134603857Y-85327380D01*
X134746714Y-85375000D01*
X134794333Y-85422619D01*
X135651476Y-85660714D02*
X135651476Y-86327380D01*
X135413380Y-85279761D02*
X135175285Y-85994047D01*
X135794333Y-85994047D01*
G04 #@! TO.C,SW1*
X118768666Y-88438761D02*
X118911523Y-88486380D01*
X119149619Y-88486380D01*
X119244857Y-88438761D01*
X119292476Y-88391142D01*
X119340095Y-88295904D01*
X119340095Y-88200666D01*
X119292476Y-88105428D01*
X119244857Y-88057809D01*
X119149619Y-88010190D01*
X118959142Y-87962571D01*
X118863904Y-87914952D01*
X118816285Y-87867333D01*
X118768666Y-87772095D01*
X118768666Y-87676857D01*
X118816285Y-87581619D01*
X118863904Y-87534000D01*
X118959142Y-87486380D01*
X119197238Y-87486380D01*
X119340095Y-87534000D01*
X119673428Y-87486380D02*
X119911523Y-88486380D01*
X120102000Y-87772095D01*
X120292476Y-88486380D01*
X120530571Y-87486380D01*
X121435333Y-88486380D02*
X120863904Y-88486380D01*
X121149619Y-88486380D02*
X121149619Y-87486380D01*
X121054380Y-87629238D01*
X120959142Y-87724476D01*
X120863904Y-87772095D01*
G04 #@! TO.C,SW2*
X135055665Y-88363760D02*
X135198522Y-88411379D01*
X135436618Y-88411379D01*
X135531856Y-88363760D01*
X135579475Y-88316141D01*
X135627094Y-88220903D01*
X135627094Y-88125665D01*
X135579475Y-88030427D01*
X135531856Y-87982808D01*
X135436618Y-87935189D01*
X135246141Y-87887570D01*
X135150903Y-87839951D01*
X135103284Y-87792332D01*
X135055665Y-87697094D01*
X135055665Y-87601856D01*
X135103284Y-87506618D01*
X135150903Y-87458999D01*
X135246141Y-87411379D01*
X135484237Y-87411379D01*
X135627094Y-87458999D01*
X135960427Y-87411379D02*
X136198522Y-88411379D01*
X136388999Y-87697094D01*
X136579475Y-88411379D01*
X136817570Y-87411379D01*
X137150903Y-87506618D02*
X137198522Y-87458999D01*
X137293760Y-87411379D01*
X137531856Y-87411379D01*
X137627094Y-87458999D01*
X137674713Y-87506618D01*
X137722332Y-87601856D01*
X137722332Y-87697094D01*
X137674713Y-87839951D01*
X137103284Y-88411379D01*
X137722332Y-88411379D01*
G04 #@! TD*
M02*
