M48
INCH,TZ
T1C0.0157
T2C0.0394
%
G90
G05
T1
X24895Y-46331
X24980Y-32409
X25645Y-47381
X25645Y-47881
X25645Y-48381
X25645Y-48881
X25645Y-49381
X25645Y-49881
X25645Y-50881
X25645Y-51381
X25645Y-51881
X25645Y-52381
X25645Y-52881
X25645Y-53381
X25830Y-25359
X25830Y-25859
X25830Y-26359
X25830Y-26859
X25830Y-27359
X25830Y-27859
X25830Y-28359
X25830Y-28859
X25830Y-29359
X25830Y-29859
X25830Y-30359
X25830Y-30859
X25830Y-31359
X25995Y-47231
X26495Y-47231
X26580Y-31509
X26995Y-47231
X27080Y-31509
X27495Y-47231
X27580Y-31509
X27995Y-47231
X28080Y-31509
X28495Y-47231
X28580Y-31509
X28995Y-47231
X29080Y-31509
X29495Y-47231
X29580Y-31509
X29995Y-47231
X30080Y-31509
X30580Y-31509
X30745Y-47381
X30745Y-47881
X30745Y-48381
X30745Y-48881
X30745Y-49381
X30745Y-49881
X30745Y-50381
X30745Y-50881
X30745Y-51381
X30745Y-51881
X30745Y-52381
X30745Y-52881
X30745Y-53381
X30930Y-25359
X30930Y-25859
X30930Y-26359
X30930Y-26859
X30930Y-27359
X30930Y-27859
X30930Y-28859
X30930Y-29359
X30930Y-29859
X30930Y-30359
X30930Y-30859
X30930Y-31359
X31595Y-46331
X31680Y-32409
X47061Y-46331
X47184Y-32409
X47811Y-47381
X47811Y-47881
X47811Y-48381
X47811Y-48881
X47811Y-49381
X47811Y-49881
X47811Y-50881
X47811Y-51381
X47811Y-51881
X47811Y-52381
X47811Y-52881
X47811Y-53381
X48034Y-25359
X48034Y-25859
X48034Y-26359
X48034Y-26859
X48034Y-27359
X48034Y-27859
X48034Y-28359
X48034Y-28859
X48034Y-29359
X48034Y-29859
X48034Y-30359
X48034Y-30859
X48034Y-31359
X48161Y-47231
X48661Y-47231
X48784Y-31509
X49161Y-47231
X49284Y-31509
X49661Y-47231
X49784Y-31509
X50161Y-47231
X50284Y-31509
X50661Y-47231
X50784Y-31509
X51161Y-47231
X51284Y-31509
X51661Y-47231
X51784Y-31509
X52161Y-47231
X52284Y-31509
X52784Y-31509
X52911Y-47381
X52911Y-47881
X52911Y-48381
X52911Y-48881
X52911Y-49381
X52911Y-49881
X52911Y-50381
X52911Y-50881
X52911Y-51381
X52911Y-51881
X52911Y-52381
X52911Y-52881
X52911Y-53381
X53134Y-25359
X53134Y-25859
X53134Y-26359
X53134Y-26859
X53134Y-27359
X53134Y-27859
X53134Y-28859
X53134Y-29359
X53134Y-29859
X53134Y-30359
X53134Y-30859
X53134Y-31359
X53761Y-46331
X53884Y-32409
T2
X20795Y-40831
X20795Y-41831
X20795Y-42831
X20795Y-43831
X20795Y-44831
X20795Y-45831
X20795Y-46831
X20795Y-47831
X20795Y-48831
X20795Y-49831
X20795Y-50831
X20795Y-51831
X20795Y-52831
X20795Y-53831
X20795Y-54831
X20795Y-55831
X20795Y-56831
X20795Y-57831
X35795Y-40831
X35795Y-41831
X35795Y-42831
X35795Y-43831
X35795Y-44831
X35795Y-45831
X35795Y-46831
X35795Y-47831
X35795Y-48831
X35795Y-49831
X35795Y-50831
X35795Y-51831
X35795Y-52831
X35795Y-53831
X35795Y-54831
X35795Y-55831
X35795Y-56831
X35795Y-57831
X42984Y-20909
X42984Y-21909
X42984Y-22909
X42984Y-23909
X42984Y-24909
X42984Y-25909
X42984Y-26909
X42984Y-27909
X42984Y-28909
X42984Y-29909
X42984Y-30909
X42984Y-31909
X42984Y-32909
X42984Y-33909
X42984Y-34909
X42984Y-35909
X42984Y-36909
X42984Y-37909
X57961Y-40831
X57961Y-41831
X57961Y-42831
X57961Y-43831
X57961Y-44831
X57961Y-45831
X57961Y-46831
X57961Y-47831
X57961Y-48831
X57961Y-49831
X57961Y-50831
X57961Y-51831
X57961Y-52831
X57961Y-53831
X57961Y-54831
X57961Y-55831
X57961Y-56831
X57961Y-57831
X35780Y-20909
X35780Y-21909
X35780Y-22909
X35780Y-23909
X35780Y-24909
X35780Y-25909
X35780Y-26909
X35780Y-27909
X35780Y-28909
X35780Y-29909
X35780Y-30909
X35780Y-31909
X35780Y-32909
X35780Y-33909
X35780Y-34909
X35780Y-35909
X35780Y-36909
X35780Y-37909
X20780Y-20909
X20780Y-21909
X20780Y-22909
X20780Y-23909
X20780Y-24909
X20780Y-25909
X20780Y-26909
X20780Y-27909
X20780Y-28909
X20780Y-29909
X20780Y-30909
X20780Y-31909
X20780Y-32909
X20780Y-33909
X20780Y-34909
X20780Y-35909
X20780Y-36909
X20780Y-37909
X42961Y-40831
X42961Y-41831
X42961Y-42831
X42961Y-43831
X42961Y-44831
X42961Y-45831
X42961Y-46831
X42961Y-47831
X42961Y-48831
X42961Y-49831
X42961Y-50831
X42961Y-51831
X42961Y-52831
X42961Y-53831
X42961Y-54831
X42961Y-55831
X42961Y-56831
X42961Y-57831
X57984Y-20909
X57984Y-21909
X57984Y-22909
X57984Y-23909
X57984Y-24909
X57984Y-25909
X57984Y-26909
X57984Y-27909
X57984Y-28909
X57984Y-29909
X57984Y-30909
X57984Y-31909
X57984Y-32909
X57984Y-33909
X57984Y-34909
X57984Y-35909
X57984Y-36909
X57984Y-37909
T0
M30
