G04 #@! TF.GenerationSoftware,KiCad,Pcbnew,5.1.4-e60b266~84~ubuntu16.04.1*
G04 #@! TF.CreationDate,2019-10-08T23:12:12-05:00*
G04 #@! TF.ProjectId,10x10p,31307831-3070-42e6-9b69-6361645f7063,rev?*
G04 #@! TF.SameCoordinates,Original*
G04 #@! TF.FileFunction,Copper,L1,Top*
G04 #@! TF.FilePolarity,Positive*
%FSLAX46Y46*%
G04 Gerber Fmt 4.6, Leading zero omitted, Abs format (unit mm)*
G04 Created by KiCad (PCBNEW 5.1.4-e60b266~84~ubuntu16.04.1) date 2019-10-08 23:12:12*
%MOMM*%
%LPD*%
G04 APERTURE LIST*
G04 #@! TA.AperFunction,NonConductor*
%ADD10C,0.050000*%
G04 #@! TD*
G04 #@! TA.AperFunction,ComponentPad*
%ADD11C,2.000000*%
G04 #@! TD*
G04 #@! TA.AperFunction,ComponentPad*
%ADD12R,2.200000X2.200000*%
G04 #@! TD*
G04 #@! TA.AperFunction,ComponentPad*
%ADD13O,2.200000X2.200000*%
G04 #@! TD*
G04 #@! TA.AperFunction,ComponentPad*
%ADD14C,1.998980*%
G04 #@! TD*
G04 APERTURE END LIST*
D10*
X50000000Y-150000000D02*
X50000000Y-50000000D01*
X150000000Y-150000000D02*
X50000000Y-150000000D01*
X150000000Y-50000000D02*
X150000000Y-150000000D01*
X50000000Y-50000000D02*
X150000000Y-50000000D01*
D11*
G04 #@! TO.P,C10,1*
G04 #@! TO.N,N/C*
X139490000Y-110790000D03*
G04 #@! TO.P,C10,2*
X129490000Y-110790000D03*
G04 #@! TD*
G04 #@! TO.P,C21,1*
G04 #@! TO.N,N/C*
X70990000Y-147290000D03*
G04 #@! TO.P,C21,2*
X60990000Y-147290000D03*
G04 #@! TD*
G04 #@! TO.P,C4,1*
G04 #@! TO.N,N/C*
X91006000Y-110752400D03*
G04 #@! TO.P,C4,2*
X81006000Y-110752400D03*
G04 #@! TD*
D12*
G04 #@! TO.P,D34,1*
G04 #@! TO.N,N/C*
X114788000Y-132452000D03*
D13*
G04 #@! TO.P,D34,2*
X114788000Y-140072000D03*
G04 #@! TD*
D12*
G04 #@! TO.P,D37,1*
G04 #@! TO.N,N/C*
X126980000Y-140072000D03*
D13*
G04 #@! TO.P,D37,2*
X126980000Y-132452000D03*
G04 #@! TD*
D11*
G04 #@! TO.P,C5,1*
G04 #@! TO.N,N/C*
X100490000Y-107040000D03*
G04 #@! TO.P,C5,2*
X90490000Y-107040000D03*
G04 #@! TD*
D12*
G04 #@! TO.P,D32,1*
G04 #@! TO.N,N/C*
X106660000Y-132452000D03*
D13*
G04 #@! TO.P,D32,2*
X106660000Y-140072000D03*
G04 #@! TD*
D12*
G04 #@! TO.P,D33,1*
G04 #@! TO.N,N/C*
X110724000Y-140072000D03*
D13*
G04 #@! TO.P,D33,2*
X110724000Y-132452000D03*
G04 #@! TD*
D12*
G04 #@! TO.P,D40,1*
G04 #@! TO.N,N/C*
X139172000Y-132452000D03*
D13*
G04 #@! TO.P,D40,2*
X139172000Y-140072000D03*
G04 #@! TD*
D11*
G04 #@! TO.P,C20,1*
G04 #@! TO.N,N/C*
X139490000Y-129040000D03*
G04 #@! TO.P,C20,2*
X129490000Y-129040000D03*
G04 #@! TD*
G04 #@! TO.P,C25,1*
G04 #@! TO.N,N/C*
X98740000Y-147290000D03*
G04 #@! TO.P,C25,2*
X88740000Y-147290000D03*
G04 #@! TD*
G04 #@! TO.P,C8,1*
G04 #@! TO.N,N/C*
X123518000Y-110727000D03*
G04 #@! TO.P,C8,2*
X113518000Y-110727000D03*
G04 #@! TD*
G04 #@! TO.P,C3,1*
G04 #@! TO.N,N/C*
X85740000Y-107040000D03*
G04 #@! TO.P,C3,2*
X75740000Y-107040000D03*
G04 #@! TD*
D12*
G04 #@! TO.P,D30,1*
G04 #@! TO.N,N/C*
X98532000Y-132452000D03*
D13*
G04 #@! TO.P,D30,2*
X98532000Y-140072000D03*
G04 #@! TD*
D12*
G04 #@! TO.P,D31,1*
G04 #@! TO.N,N/C*
X102596000Y-140072000D03*
D13*
G04 #@! TO.P,D31,2*
X102596000Y-132452000D03*
G04 #@! TD*
D12*
G04 #@! TO.P,D3,1*
G04 #@! TO.N,N/C*
X70084000Y-114156000D03*
D13*
G04 #@! TO.P,D3,2*
X70084000Y-121776000D03*
G04 #@! TD*
D12*
G04 #@! TO.P,D4,1*
G04 #@! TO.N,N/C*
X74148000Y-121776000D03*
D13*
G04 #@! TO.P,D4,2*
X74148000Y-114156000D03*
G04 #@! TD*
D12*
G04 #@! TO.P,D5,1*
G04 #@! TO.N,N/C*
X78212000Y-114156000D03*
D13*
G04 #@! TO.P,D5,2*
X78212000Y-121776000D03*
G04 #@! TD*
D12*
G04 #@! TO.P,D6,1*
G04 #@! TO.N,N/C*
X82276000Y-121776000D03*
D13*
G04 #@! TO.P,D6,2*
X82276000Y-114156000D03*
G04 #@! TD*
D12*
G04 #@! TO.P,D7,1*
G04 #@! TO.N,N/C*
X86340000Y-114156000D03*
D13*
G04 #@! TO.P,D7,2*
X86340000Y-121776000D03*
G04 #@! TD*
D12*
G04 #@! TO.P,D8,1*
G04 #@! TO.N,N/C*
X90404000Y-121776000D03*
D13*
G04 #@! TO.P,D8,2*
X90404000Y-114156000D03*
G04 #@! TD*
D12*
G04 #@! TO.P,D10,1*
G04 #@! TO.N,N/C*
X98532000Y-121776000D03*
D13*
G04 #@! TO.P,D10,2*
X98532000Y-114156000D03*
G04 #@! TD*
D12*
G04 #@! TO.P,D11,1*
G04 #@! TO.N,N/C*
X102596000Y-114156000D03*
D13*
G04 #@! TO.P,D11,2*
X102596000Y-121776000D03*
G04 #@! TD*
D12*
G04 #@! TO.P,D12,1*
G04 #@! TO.N,N/C*
X106660000Y-121776000D03*
D13*
G04 #@! TO.P,D12,2*
X106660000Y-114156000D03*
G04 #@! TD*
D12*
G04 #@! TO.P,D13,1*
G04 #@! TO.N,N/C*
X110724000Y-114156000D03*
D13*
G04 #@! TO.P,D13,2*
X110724000Y-121776000D03*
G04 #@! TD*
D12*
G04 #@! TO.P,D14,1*
G04 #@! TO.N,N/C*
X114788000Y-121776000D03*
D13*
G04 #@! TO.P,D14,2*
X114788000Y-114156000D03*
G04 #@! TD*
D12*
G04 #@! TO.P,D15,1*
G04 #@! TO.N,N/C*
X118852000Y-114156000D03*
D13*
G04 #@! TO.P,D15,2*
X118852000Y-121776000D03*
G04 #@! TD*
D12*
G04 #@! TO.P,D16,1*
G04 #@! TO.N,N/C*
X122916000Y-121776000D03*
D13*
G04 #@! TO.P,D16,2*
X122916000Y-114156000D03*
G04 #@! TD*
D12*
G04 #@! TO.P,D17,1*
G04 #@! TO.N,N/C*
X126980000Y-114156000D03*
D13*
G04 #@! TO.P,D17,2*
X126980000Y-121776000D03*
G04 #@! TD*
D12*
G04 #@! TO.P,D18,1*
G04 #@! TO.N,N/C*
X131044000Y-121776000D03*
D13*
G04 #@! TO.P,D18,2*
X131044000Y-114156000D03*
G04 #@! TD*
D12*
G04 #@! TO.P,D19,1*
G04 #@! TO.N,N/C*
X135108000Y-114156000D03*
D13*
G04 #@! TO.P,D19,2*
X135108000Y-121776000D03*
G04 #@! TD*
D12*
G04 #@! TO.P,D20,1*
G04 #@! TO.N,N/C*
X139172000Y-121776000D03*
D13*
G04 #@! TO.P,D20,2*
X139172000Y-114156000D03*
G04 #@! TD*
D12*
G04 #@! TO.P,D21,1*
G04 #@! TO.N,N/C*
X61956000Y-140072000D03*
D13*
G04 #@! TO.P,D21,2*
X61956000Y-132452000D03*
G04 #@! TD*
D12*
G04 #@! TO.P,D22,1*
G04 #@! TO.N,N/C*
X66020000Y-132452000D03*
D13*
G04 #@! TO.P,D22,2*
X66020000Y-140072000D03*
G04 #@! TD*
D12*
G04 #@! TO.P,D23,1*
G04 #@! TO.N,N/C*
X70084000Y-140072000D03*
D13*
G04 #@! TO.P,D23,2*
X70084000Y-132452000D03*
G04 #@! TD*
D12*
G04 #@! TO.P,D24,1*
G04 #@! TO.N,N/C*
X74148000Y-132452000D03*
D13*
G04 #@! TO.P,D24,2*
X74148000Y-140072000D03*
G04 #@! TD*
D12*
G04 #@! TO.P,D25,1*
G04 #@! TO.N,N/C*
X78212000Y-140072000D03*
D13*
G04 #@! TO.P,D25,2*
X78212000Y-132452000D03*
G04 #@! TD*
D12*
G04 #@! TO.P,D26,1*
G04 #@! TO.N,N/C*
X82276000Y-132452000D03*
D13*
G04 #@! TO.P,D26,2*
X82276000Y-140072000D03*
G04 #@! TD*
D12*
G04 #@! TO.P,D27,1*
G04 #@! TO.N,N/C*
X86340000Y-140072000D03*
D13*
G04 #@! TO.P,D27,2*
X86340000Y-132452000D03*
G04 #@! TD*
D12*
G04 #@! TO.P,D28,1*
G04 #@! TO.N,N/C*
X90404000Y-132452000D03*
D13*
G04 #@! TO.P,D28,2*
X90404000Y-140072000D03*
G04 #@! TD*
D12*
G04 #@! TO.P,D29,1*
G04 #@! TO.N,N/C*
X94468000Y-140072000D03*
D13*
G04 #@! TO.P,D29,2*
X94468000Y-132452000D03*
G04 #@! TD*
D11*
G04 #@! TO.P,C16,1*
G04 #@! TO.N,N/C*
X109490000Y-129040000D03*
G04 #@! TO.P,C16,2*
X99490000Y-129040000D03*
G04 #@! TD*
G04 #@! TO.P,C11,1*
G04 #@! TO.N,N/C*
X71740000Y-125290000D03*
G04 #@! TO.P,C11,2*
X61740000Y-125290000D03*
G04 #@! TD*
G04 #@! TO.P,C17,1*
G04 #@! TO.N,N/C*
X115740000Y-125332000D03*
G04 #@! TO.P,C17,2*
X105740000Y-125332000D03*
G04 #@! TD*
G04 #@! TO.P,C13,1*
G04 #@! TO.N,N/C*
X85240000Y-125290000D03*
G04 #@! TO.P,C13,2*
X75240000Y-125290000D03*
G04 #@! TD*
D14*
G04 #@! TO.P,OUT1,1*
G04 #@! TO.N,N/C*
X139240000Y-107040000D03*
G04 #@! TD*
D11*
G04 #@! TO.P,C15,1*
G04 #@! TO.N,N/C*
X100056000Y-125332000D03*
G04 #@! TO.P,C15,2*
X90056000Y-125332000D03*
G04 #@! TD*
G04 #@! TO.P,C9,1*
G04 #@! TO.N,N/C*
X131490000Y-107040000D03*
G04 #@! TO.P,C9,2*
X121490000Y-107040000D03*
G04 #@! TD*
G04 #@! TO.P,C14,1*
G04 #@! TO.N,N/C*
X92990000Y-129040000D03*
G04 #@! TO.P,C14,2*
X82990000Y-129040000D03*
G04 #@! TD*
G04 #@! TO.P,C12,1*
G04 #@! TO.N,N/C*
X78720000Y-129040400D03*
G04 #@! TO.P,C12,2*
X68720000Y-129040400D03*
G04 #@! TD*
G04 #@! TO.P,C18,1*
G04 #@! TO.N,N/C*
X124240000Y-129040000D03*
G04 #@! TO.P,C18,2*
X114240000Y-129040000D03*
G04 #@! TD*
D14*
G04 #@! TO.P,HV0,1*
G04 #@! TO.N,N/C*
X61879800Y-129040400D03*
G04 #@! TD*
G04 #@! TO.P,IN2,1*
G04 #@! TO.N,N/C*
X61219400Y-143848600D03*
G04 #@! TD*
D11*
G04 #@! TO.P,C29,1*
G04 #@! TO.N,N/C*
X131240000Y-147290000D03*
G04 #@! TO.P,C29,2*
X121240000Y-147290000D03*
G04 #@! TD*
D14*
G04 #@! TO.P,HV10,1*
G04 #@! TO.N,N/C*
X139240000Y-125040000D03*
G04 #@! TD*
G04 #@! TO.P,OUT2,1*
G04 #@! TO.N,N/C*
X139240000Y-147040000D03*
G04 #@! TD*
G04 #@! TO.P,IN1,1*
G04 #@! TO.N,N/C*
X61930600Y-110447600D03*
G04 #@! TD*
G04 #@! TO.P,HV9,1*
G04 #@! TO.N,N/C*
X133240000Y-125040000D03*
G04 #@! TD*
D11*
G04 #@! TO.P,C28,1*
G04 #@! TO.N,N/C*
X123240000Y-143540000D03*
G04 #@! TO.P,C28,2*
X113240000Y-143540000D03*
G04 #@! TD*
G04 #@! TO.P,C1,1*
G04 #@! TO.N,N/C*
X71740000Y-107040000D03*
G04 #@! TO.P,C1,2*
X61740000Y-107040000D03*
G04 #@! TD*
D12*
G04 #@! TO.P,D9,1*
G04 #@! TO.N,N/C*
X94468000Y-114156000D03*
D13*
G04 #@! TO.P,D9,2*
X94468000Y-121776000D03*
G04 #@! TD*
D11*
G04 #@! TO.P,C2,1*
G04 #@! TO.N,N/C*
X75595800Y-110752400D03*
G04 #@! TO.P,C2,2*
X65595800Y-110752400D03*
G04 #@! TD*
G04 #@! TO.P,C6,1*
G04 #@! TO.N,N/C*
X107218800Y-110752400D03*
G04 #@! TO.P,C6,2*
X97218800Y-110752400D03*
G04 #@! TD*
D12*
G04 #@! TO.P,D36,1*
G04 #@! TO.N,N/C*
X122916000Y-132452000D03*
D13*
G04 #@! TO.P,D36,2*
X122916000Y-140072000D03*
G04 #@! TD*
D11*
G04 #@! TO.P,C24,1*
G04 #@! TO.N,N/C*
X90490000Y-143540000D03*
G04 #@! TO.P,C24,2*
X80490000Y-143540000D03*
G04 #@! TD*
G04 #@! TO.P,C7,1*
G04 #@! TO.N,N/C*
X115740000Y-107040000D03*
G04 #@! TO.P,C7,2*
X105740000Y-107040000D03*
G04 #@! TD*
D12*
G04 #@! TO.P,D39,1*
G04 #@! TO.N,N/C*
X135108000Y-140072000D03*
D13*
G04 #@! TO.P,D39,2*
X135108000Y-132452000D03*
G04 #@! TD*
D11*
G04 #@! TO.P,C26,1*
G04 #@! TO.N,N/C*
X105740000Y-143540000D03*
G04 #@! TO.P,C26,2*
X95740000Y-143540000D03*
G04 #@! TD*
D12*
G04 #@! TO.P,D35,1*
G04 #@! TO.N,N/C*
X118852000Y-140072000D03*
D13*
G04 #@! TO.P,D35,2*
X118852000Y-132452000D03*
G04 #@! TD*
D11*
G04 #@! TO.P,C27,1*
G04 #@! TO.N,N/C*
X114740000Y-147290000D03*
G04 #@! TO.P,C27,2*
X104740000Y-147290000D03*
G04 #@! TD*
G04 #@! TO.P,C23,1*
G04 #@! TO.N,N/C*
X84740000Y-147290000D03*
G04 #@! TO.P,C23,2*
X74740000Y-147290000D03*
G04 #@! TD*
G04 #@! TO.P,C22,1*
G04 #@! TO.N,N/C*
X75494200Y-143518400D03*
G04 #@! TO.P,C22,2*
X65494200Y-143518400D03*
G04 #@! TD*
D12*
G04 #@! TO.P,D38,1*
G04 #@! TO.N,N/C*
X131044000Y-132452000D03*
D13*
G04 #@! TO.P,D38,2*
X131044000Y-140072000D03*
G04 #@! TD*
D12*
G04 #@! TO.P,D1,1*
G04 #@! TO.N,N/C*
X61956000Y-114156000D03*
D13*
G04 #@! TO.P,D1,2*
X61956000Y-121776000D03*
G04 #@! TD*
D12*
G04 #@! TO.P,D2,1*
G04 #@! TO.N,N/C*
X66020000Y-121776000D03*
D13*
G04 #@! TO.P,D2,2*
X66020000Y-114156000D03*
G04 #@! TD*
D14*
G04 #@! TO.P,HV1,1*
G04 #@! TO.N,N/C*
X65943800Y-129040400D03*
G04 #@! TD*
D11*
G04 #@! TO.P,C30,1*
G04 #@! TO.N,N/C*
X139490000Y-143540000D03*
G04 #@! TO.P,C30,2*
X129490000Y-143540000D03*
G04 #@! TD*
G04 #@! TO.P,C19,1*
G04 #@! TO.N,N/C*
X130240000Y-125290000D03*
G04 #@! TO.P,C19,2*
X120240000Y-125290000D03*
G04 #@! TD*
D14*
G04 #@! TO.P,HV1,1*
G04 #@! TO.N,/multiplier/HV1*
X65943800Y-75040400D03*
G04 #@! TD*
G04 #@! TO.P,IN2,1*
G04 #@! TO.N,/multiplier/IN2*
X61219400Y-89848600D03*
G04 #@! TD*
G04 #@! TO.P,IN1,1*
G04 #@! TO.N,/multiplier/IN1*
X61930600Y-56447600D03*
G04 #@! TD*
G04 #@! TO.P,HV9,1*
G04 #@! TO.N,/multiplier/HV9*
X133240000Y-71040000D03*
G04 #@! TD*
G04 #@! TO.P,OUT1,1*
G04 #@! TO.N,/multiplier/OUT1*
X139240000Y-53040000D03*
G04 #@! TD*
G04 #@! TO.P,HV0,1*
G04 #@! TO.N,/multiplier/HV0*
X61879800Y-75040400D03*
G04 #@! TD*
G04 #@! TO.P,OUT2,1*
G04 #@! TO.N,/multiplier/OUT2*
X139240000Y-93040000D03*
G04 #@! TD*
G04 #@! TO.P,HV10,1*
G04 #@! TO.N,/multiplier/HV10*
X139240000Y-71040000D03*
G04 #@! TD*
D11*
G04 #@! TO.P,C30,2*
G04 #@! TO.N,Net-(C29-Pad1)*
X129490000Y-89540000D03*
G04 #@! TO.P,C30,1*
G04 #@! TO.N,/multiplier/OUT2*
X139490000Y-89540000D03*
G04 #@! TD*
G04 #@! TO.P,C29,2*
G04 #@! TO.N,Net-(C28-Pad1)*
X121240000Y-93290000D03*
G04 #@! TO.P,C29,1*
G04 #@! TO.N,Net-(C29-Pad1)*
X131240000Y-93290000D03*
G04 #@! TD*
G04 #@! TO.P,C28,2*
G04 #@! TO.N,Net-(C27-Pad1)*
X113240000Y-89540000D03*
G04 #@! TO.P,C28,1*
G04 #@! TO.N,Net-(C28-Pad1)*
X123240000Y-89540000D03*
G04 #@! TD*
G04 #@! TO.P,C27,2*
G04 #@! TO.N,Net-(C26-Pad1)*
X104740000Y-93290000D03*
G04 #@! TO.P,C27,1*
G04 #@! TO.N,Net-(C27-Pad1)*
X114740000Y-93290000D03*
G04 #@! TD*
G04 #@! TO.P,C26,2*
G04 #@! TO.N,Net-(C25-Pad1)*
X95740000Y-89540000D03*
G04 #@! TO.P,C26,1*
G04 #@! TO.N,Net-(C26-Pad1)*
X105740000Y-89540000D03*
G04 #@! TD*
G04 #@! TO.P,C25,2*
G04 #@! TO.N,Net-(C24-Pad1)*
X88740000Y-93290000D03*
G04 #@! TO.P,C25,1*
G04 #@! TO.N,Net-(C25-Pad1)*
X98740000Y-93290000D03*
G04 #@! TD*
G04 #@! TO.P,C24,2*
G04 #@! TO.N,Net-(C23-Pad1)*
X80490000Y-89540000D03*
G04 #@! TO.P,C24,1*
G04 #@! TO.N,Net-(C24-Pad1)*
X90490000Y-89540000D03*
G04 #@! TD*
G04 #@! TO.P,C23,2*
G04 #@! TO.N,Net-(C22-Pad1)*
X74740000Y-93290000D03*
G04 #@! TO.P,C23,1*
G04 #@! TO.N,Net-(C23-Pad1)*
X84740000Y-93290000D03*
G04 #@! TD*
G04 #@! TO.P,C22,2*
G04 #@! TO.N,Net-(C21-Pad1)*
X65494200Y-89518400D03*
G04 #@! TO.P,C22,1*
G04 #@! TO.N,Net-(C22-Pad1)*
X75494200Y-89518400D03*
G04 #@! TD*
G04 #@! TO.P,C21,2*
G04 #@! TO.N,/multiplier/IN2*
X60990000Y-93290000D03*
G04 #@! TO.P,C21,1*
G04 #@! TO.N,Net-(C21-Pad1)*
X70990000Y-93290000D03*
G04 #@! TD*
G04 #@! TO.P,C20,2*
G04 #@! TO.N,/multiplier/HV9*
X129490000Y-75040000D03*
G04 #@! TO.P,C20,1*
G04 #@! TO.N,/multiplier/HV10*
X139490000Y-75040000D03*
G04 #@! TD*
G04 #@! TO.P,C19,2*
G04 #@! TO.N,Net-(C18-Pad1)*
X120240000Y-71290000D03*
G04 #@! TO.P,C19,1*
G04 #@! TO.N,/multiplier/HV9*
X130240000Y-71290000D03*
G04 #@! TD*
G04 #@! TO.P,C18,2*
G04 #@! TO.N,Net-(C17-Pad1)*
X114240000Y-75040000D03*
G04 #@! TO.P,C18,1*
G04 #@! TO.N,Net-(C18-Pad1)*
X124240000Y-75040000D03*
G04 #@! TD*
G04 #@! TO.P,C17,2*
G04 #@! TO.N,Net-(C16-Pad1)*
X105740000Y-71332000D03*
G04 #@! TO.P,C17,1*
G04 #@! TO.N,Net-(C17-Pad1)*
X115740000Y-71332000D03*
G04 #@! TD*
G04 #@! TO.P,C16,2*
G04 #@! TO.N,Net-(C15-Pad1)*
X99490000Y-75040000D03*
G04 #@! TO.P,C16,1*
G04 #@! TO.N,Net-(C16-Pad1)*
X109490000Y-75040000D03*
G04 #@! TD*
G04 #@! TO.P,C15,2*
G04 #@! TO.N,Net-(C14-Pad1)*
X90056000Y-71332000D03*
G04 #@! TO.P,C15,1*
G04 #@! TO.N,Net-(C15-Pad1)*
X100056000Y-71332000D03*
G04 #@! TD*
G04 #@! TO.P,C14,2*
G04 #@! TO.N,Net-(C13-Pad1)*
X82990000Y-75040000D03*
G04 #@! TO.P,C14,1*
G04 #@! TO.N,Net-(C14-Pad1)*
X92990000Y-75040000D03*
G04 #@! TD*
G04 #@! TO.P,C13,2*
G04 #@! TO.N,Net-(C12-Pad1)*
X75240000Y-71290000D03*
G04 #@! TO.P,C13,1*
G04 #@! TO.N,Net-(C13-Pad1)*
X85240000Y-71290000D03*
G04 #@! TD*
G04 #@! TO.P,C12,2*
G04 #@! TO.N,/multiplier/HV1*
X68720000Y-75040400D03*
G04 #@! TO.P,C12,1*
G04 #@! TO.N,Net-(C12-Pad1)*
X78720000Y-75040400D03*
G04 #@! TD*
G04 #@! TO.P,C11,2*
G04 #@! TO.N,/multiplier/HV0*
X61740000Y-71290000D03*
G04 #@! TO.P,C11,1*
G04 #@! TO.N,/multiplier/HV1*
X71740000Y-71290000D03*
G04 #@! TD*
G04 #@! TO.P,C10,2*
G04 #@! TO.N,Net-(C10-Pad2)*
X129490000Y-56790000D03*
G04 #@! TO.P,C10,1*
G04 #@! TO.N,/multiplier/OUT1*
X139490000Y-56790000D03*
G04 #@! TD*
G04 #@! TO.P,C9,2*
G04 #@! TO.N,Net-(C8-Pad1)*
X121490000Y-53040000D03*
G04 #@! TO.P,C9,1*
G04 #@! TO.N,Net-(C10-Pad2)*
X131490000Y-53040000D03*
G04 #@! TD*
G04 #@! TO.P,C8,2*
G04 #@! TO.N,Net-(C7-Pad1)*
X113518000Y-56727000D03*
G04 #@! TO.P,C8,1*
G04 #@! TO.N,Net-(C8-Pad1)*
X123518000Y-56727000D03*
G04 #@! TD*
G04 #@! TO.P,C7,2*
G04 #@! TO.N,Net-(C6-Pad1)*
X105740000Y-53040000D03*
G04 #@! TO.P,C7,1*
G04 #@! TO.N,Net-(C7-Pad1)*
X115740000Y-53040000D03*
G04 #@! TD*
G04 #@! TO.P,C6,2*
G04 #@! TO.N,Net-(C5-Pad1)*
X97218800Y-56752400D03*
G04 #@! TO.P,C6,1*
G04 #@! TO.N,Net-(C6-Pad1)*
X107218800Y-56752400D03*
G04 #@! TD*
G04 #@! TO.P,C5,2*
G04 #@! TO.N,Net-(C4-Pad1)*
X90490000Y-53040000D03*
G04 #@! TO.P,C5,1*
G04 #@! TO.N,Net-(C5-Pad1)*
X100490000Y-53040000D03*
G04 #@! TD*
G04 #@! TO.P,C4,2*
G04 #@! TO.N,Net-(C3-Pad1)*
X81006000Y-56752400D03*
G04 #@! TO.P,C4,1*
G04 #@! TO.N,Net-(C4-Pad1)*
X91006000Y-56752400D03*
G04 #@! TD*
G04 #@! TO.P,C3,2*
G04 #@! TO.N,Net-(C2-Pad1)*
X75740000Y-53040000D03*
G04 #@! TO.P,C3,1*
G04 #@! TO.N,Net-(C3-Pad1)*
X85740000Y-53040000D03*
G04 #@! TD*
G04 #@! TO.P,C2,2*
G04 #@! TO.N,Net-(C1-Pad1)*
X65595800Y-56752400D03*
G04 #@! TO.P,C2,1*
G04 #@! TO.N,Net-(C2-Pad1)*
X75595800Y-56752400D03*
G04 #@! TD*
G04 #@! TO.P,C1,2*
G04 #@! TO.N,/multiplier/IN1*
X61740000Y-53040000D03*
G04 #@! TO.P,C1,1*
G04 #@! TO.N,Net-(C1-Pad1)*
X71740000Y-53040000D03*
G04 #@! TD*
D13*
G04 #@! TO.P,D40,2*
G04 #@! TO.N,/multiplier/OUT2*
X139172000Y-86072000D03*
D12*
G04 #@! TO.P,D40,1*
G04 #@! TO.N,/multiplier/HV10*
X139172000Y-78452000D03*
G04 #@! TD*
D13*
G04 #@! TO.P,D39,2*
G04 #@! TO.N,/multiplier/HV9*
X135108000Y-78452000D03*
D12*
G04 #@! TO.P,D39,1*
G04 #@! TO.N,/multiplier/OUT2*
X135108000Y-86072000D03*
G04 #@! TD*
D13*
G04 #@! TO.P,D38,2*
G04 #@! TO.N,Net-(C29-Pad1)*
X131044000Y-86072000D03*
D12*
G04 #@! TO.P,D38,1*
G04 #@! TO.N,/multiplier/HV9*
X131044000Y-78452000D03*
G04 #@! TD*
D13*
G04 #@! TO.P,D37,2*
G04 #@! TO.N,Net-(C18-Pad1)*
X126980000Y-78452000D03*
D12*
G04 #@! TO.P,D37,1*
G04 #@! TO.N,Net-(C29-Pad1)*
X126980000Y-86072000D03*
G04 #@! TD*
D13*
G04 #@! TO.P,D36,2*
G04 #@! TO.N,Net-(C28-Pad1)*
X122916000Y-86072000D03*
D12*
G04 #@! TO.P,D36,1*
G04 #@! TO.N,Net-(C18-Pad1)*
X122916000Y-78452000D03*
G04 #@! TD*
D13*
G04 #@! TO.P,D35,2*
G04 #@! TO.N,Net-(C17-Pad1)*
X118852000Y-78452000D03*
D12*
G04 #@! TO.P,D35,1*
G04 #@! TO.N,Net-(C28-Pad1)*
X118852000Y-86072000D03*
G04 #@! TD*
D13*
G04 #@! TO.P,D34,2*
G04 #@! TO.N,Net-(C27-Pad1)*
X114788000Y-86072000D03*
D12*
G04 #@! TO.P,D34,1*
G04 #@! TO.N,Net-(C17-Pad1)*
X114788000Y-78452000D03*
G04 #@! TD*
D13*
G04 #@! TO.P,D33,2*
G04 #@! TO.N,Net-(C16-Pad1)*
X110724000Y-78452000D03*
D12*
G04 #@! TO.P,D33,1*
G04 #@! TO.N,Net-(C27-Pad1)*
X110724000Y-86072000D03*
G04 #@! TD*
D13*
G04 #@! TO.P,D32,2*
G04 #@! TO.N,Net-(C26-Pad1)*
X106660000Y-86072000D03*
D12*
G04 #@! TO.P,D32,1*
G04 #@! TO.N,Net-(C16-Pad1)*
X106660000Y-78452000D03*
G04 #@! TD*
D13*
G04 #@! TO.P,D31,2*
G04 #@! TO.N,Net-(C15-Pad1)*
X102596000Y-78452000D03*
D12*
G04 #@! TO.P,D31,1*
G04 #@! TO.N,Net-(C26-Pad1)*
X102596000Y-86072000D03*
G04 #@! TD*
D13*
G04 #@! TO.P,D30,2*
G04 #@! TO.N,Net-(C25-Pad1)*
X98532000Y-86072000D03*
D12*
G04 #@! TO.P,D30,1*
G04 #@! TO.N,Net-(C15-Pad1)*
X98532000Y-78452000D03*
G04 #@! TD*
D13*
G04 #@! TO.P,D29,2*
G04 #@! TO.N,Net-(C14-Pad1)*
X94468000Y-78452000D03*
D12*
G04 #@! TO.P,D29,1*
G04 #@! TO.N,Net-(C25-Pad1)*
X94468000Y-86072000D03*
G04 #@! TD*
D13*
G04 #@! TO.P,D28,2*
G04 #@! TO.N,Net-(C24-Pad1)*
X90404000Y-86072000D03*
D12*
G04 #@! TO.P,D28,1*
G04 #@! TO.N,Net-(C14-Pad1)*
X90404000Y-78452000D03*
G04 #@! TD*
D13*
G04 #@! TO.P,D27,2*
G04 #@! TO.N,Net-(C13-Pad1)*
X86340000Y-78452000D03*
D12*
G04 #@! TO.P,D27,1*
G04 #@! TO.N,Net-(C24-Pad1)*
X86340000Y-86072000D03*
G04 #@! TD*
D13*
G04 #@! TO.P,D26,2*
G04 #@! TO.N,Net-(C23-Pad1)*
X82276000Y-86072000D03*
D12*
G04 #@! TO.P,D26,1*
G04 #@! TO.N,Net-(C13-Pad1)*
X82276000Y-78452000D03*
G04 #@! TD*
D13*
G04 #@! TO.P,D25,2*
G04 #@! TO.N,Net-(C12-Pad1)*
X78212000Y-78452000D03*
D12*
G04 #@! TO.P,D25,1*
G04 #@! TO.N,Net-(C23-Pad1)*
X78212000Y-86072000D03*
G04 #@! TD*
D13*
G04 #@! TO.P,D24,2*
G04 #@! TO.N,Net-(C22-Pad1)*
X74148000Y-86072000D03*
D12*
G04 #@! TO.P,D24,1*
G04 #@! TO.N,Net-(C12-Pad1)*
X74148000Y-78452000D03*
G04 #@! TD*
D13*
G04 #@! TO.P,D23,2*
G04 #@! TO.N,/multiplier/HV1*
X70084000Y-78452000D03*
D12*
G04 #@! TO.P,D23,1*
G04 #@! TO.N,Net-(C22-Pad1)*
X70084000Y-86072000D03*
G04 #@! TD*
D13*
G04 #@! TO.P,D22,2*
G04 #@! TO.N,Net-(C21-Pad1)*
X66020000Y-86072000D03*
D12*
G04 #@! TO.P,D22,1*
G04 #@! TO.N,/multiplier/HV1*
X66020000Y-78452000D03*
G04 #@! TD*
D13*
G04 #@! TO.P,D21,2*
G04 #@! TO.N,/multiplier/HV0*
X61956000Y-78452000D03*
D12*
G04 #@! TO.P,D21,1*
G04 #@! TO.N,Net-(C21-Pad1)*
X61956000Y-86072000D03*
G04 #@! TD*
D13*
G04 #@! TO.P,D20,2*
G04 #@! TO.N,/multiplier/OUT1*
X139172000Y-60156000D03*
D12*
G04 #@! TO.P,D20,1*
G04 #@! TO.N,/multiplier/HV10*
X139172000Y-67776000D03*
G04 #@! TD*
D13*
G04 #@! TO.P,D19,2*
G04 #@! TO.N,/multiplier/HV9*
X135108000Y-67776000D03*
D12*
G04 #@! TO.P,D19,1*
G04 #@! TO.N,/multiplier/OUT1*
X135108000Y-60156000D03*
G04 #@! TD*
D13*
G04 #@! TO.P,D18,2*
G04 #@! TO.N,Net-(C10-Pad2)*
X131044000Y-60156000D03*
D12*
G04 #@! TO.P,D18,1*
G04 #@! TO.N,/multiplier/HV9*
X131044000Y-67776000D03*
G04 #@! TD*
D13*
G04 #@! TO.P,D17,2*
G04 #@! TO.N,Net-(C18-Pad1)*
X126980000Y-67776000D03*
D12*
G04 #@! TO.P,D17,1*
G04 #@! TO.N,Net-(C10-Pad2)*
X126980000Y-60156000D03*
G04 #@! TD*
D13*
G04 #@! TO.P,D16,2*
G04 #@! TO.N,Net-(C8-Pad1)*
X122916000Y-60156000D03*
D12*
G04 #@! TO.P,D16,1*
G04 #@! TO.N,Net-(C18-Pad1)*
X122916000Y-67776000D03*
G04 #@! TD*
D13*
G04 #@! TO.P,D15,2*
G04 #@! TO.N,Net-(C17-Pad1)*
X118852000Y-67776000D03*
D12*
G04 #@! TO.P,D15,1*
G04 #@! TO.N,Net-(C8-Pad1)*
X118852000Y-60156000D03*
G04 #@! TD*
D13*
G04 #@! TO.P,D14,2*
G04 #@! TO.N,Net-(C7-Pad1)*
X114788000Y-60156000D03*
D12*
G04 #@! TO.P,D14,1*
G04 #@! TO.N,Net-(C17-Pad1)*
X114788000Y-67776000D03*
G04 #@! TD*
D13*
G04 #@! TO.P,D13,2*
G04 #@! TO.N,Net-(C16-Pad1)*
X110724000Y-67776000D03*
D12*
G04 #@! TO.P,D13,1*
G04 #@! TO.N,Net-(C7-Pad1)*
X110724000Y-60156000D03*
G04 #@! TD*
D13*
G04 #@! TO.P,D12,2*
G04 #@! TO.N,Net-(C6-Pad1)*
X106660000Y-60156000D03*
D12*
G04 #@! TO.P,D12,1*
G04 #@! TO.N,Net-(C16-Pad1)*
X106660000Y-67776000D03*
G04 #@! TD*
D13*
G04 #@! TO.P,D11,2*
G04 #@! TO.N,Net-(C15-Pad1)*
X102596000Y-67776000D03*
D12*
G04 #@! TO.P,D11,1*
G04 #@! TO.N,Net-(C6-Pad1)*
X102596000Y-60156000D03*
G04 #@! TD*
D13*
G04 #@! TO.P,D10,2*
G04 #@! TO.N,Net-(C5-Pad1)*
X98532000Y-60156000D03*
D12*
G04 #@! TO.P,D10,1*
G04 #@! TO.N,Net-(C15-Pad1)*
X98532000Y-67776000D03*
G04 #@! TD*
D13*
G04 #@! TO.P,D9,2*
G04 #@! TO.N,Net-(C14-Pad1)*
X94468000Y-67776000D03*
D12*
G04 #@! TO.P,D9,1*
G04 #@! TO.N,Net-(C5-Pad1)*
X94468000Y-60156000D03*
G04 #@! TD*
D13*
G04 #@! TO.P,D8,2*
G04 #@! TO.N,Net-(C4-Pad1)*
X90404000Y-60156000D03*
D12*
G04 #@! TO.P,D8,1*
G04 #@! TO.N,Net-(C14-Pad1)*
X90404000Y-67776000D03*
G04 #@! TD*
D13*
G04 #@! TO.P,D7,2*
G04 #@! TO.N,Net-(C13-Pad1)*
X86340000Y-67776000D03*
D12*
G04 #@! TO.P,D7,1*
G04 #@! TO.N,Net-(C4-Pad1)*
X86340000Y-60156000D03*
G04 #@! TD*
D13*
G04 #@! TO.P,D6,2*
G04 #@! TO.N,Net-(C3-Pad1)*
X82276000Y-60156000D03*
D12*
G04 #@! TO.P,D6,1*
G04 #@! TO.N,Net-(C13-Pad1)*
X82276000Y-67776000D03*
G04 #@! TD*
D13*
G04 #@! TO.P,D5,2*
G04 #@! TO.N,Net-(C12-Pad1)*
X78212000Y-67776000D03*
D12*
G04 #@! TO.P,D5,1*
G04 #@! TO.N,Net-(C3-Pad1)*
X78212000Y-60156000D03*
G04 #@! TD*
D13*
G04 #@! TO.P,D4,2*
G04 #@! TO.N,Net-(C2-Pad1)*
X74148000Y-60156000D03*
D12*
G04 #@! TO.P,D4,1*
G04 #@! TO.N,Net-(C12-Pad1)*
X74148000Y-67776000D03*
G04 #@! TD*
D13*
G04 #@! TO.P,D3,2*
G04 #@! TO.N,/multiplier/HV1*
X70084000Y-67776000D03*
D12*
G04 #@! TO.P,D3,1*
G04 #@! TO.N,Net-(C2-Pad1)*
X70084000Y-60156000D03*
G04 #@! TD*
D13*
G04 #@! TO.P,D2,2*
G04 #@! TO.N,Net-(C1-Pad1)*
X66020000Y-60156000D03*
D12*
G04 #@! TO.P,D2,1*
G04 #@! TO.N,/multiplier/HV1*
X66020000Y-67776000D03*
G04 #@! TD*
D13*
G04 #@! TO.P,D1,2*
G04 #@! TO.N,/multiplier/HV0*
X61956000Y-67776000D03*
D12*
G04 #@! TO.P,D1,1*
G04 #@! TO.N,Net-(C1-Pad1)*
X61956000Y-60156000D03*
G04 #@! TD*
M02*
