G04 #@! TF.GenerationSoftware,KiCad,Pcbnew,5.1.4-e60b266~84~ubuntu16.04.1*
G04 #@! TF.CreationDate,2019-10-08T23:12:12-05:00*
G04 #@! TF.ProjectId,10x10p,31307831-3070-42e6-9b69-6361645f7063,rev?*
G04 #@! TF.SameCoordinates,Original*
G04 #@! TF.FileFunction,Copper,L2,Bot*
G04 #@! TF.FilePolarity,Positive*
%FSLAX46Y46*%
G04 Gerber Fmt 4.6, Leading zero omitted, Abs format (unit mm)*
G04 Created by KiCad (PCBNEW 5.1.4-e60b266~84~ubuntu16.04.1) date 2019-10-08 23:12:12*
%MOMM*%
%LPD*%
G04 APERTURE LIST*
G04 #@! TA.AperFunction,NonConductor*
%ADD10C,0.050000*%
G04 #@! TD*
G04 #@! TA.AperFunction,ComponentPad*
%ADD11C,2.000000*%
G04 #@! TD*
G04 #@! TA.AperFunction,ComponentPad*
%ADD12R,2.200000X2.200000*%
G04 #@! TD*
G04 #@! TA.AperFunction,ComponentPad*
%ADD13O,2.200000X2.200000*%
G04 #@! TD*
G04 #@! TA.AperFunction,ComponentPad*
%ADD14C,1.998980*%
G04 #@! TD*
G04 #@! TA.AperFunction,Conductor*
%ADD15C,2.000000*%
G04 #@! TD*
G04 APERTURE END LIST*
D10*
X50000000Y-150000000D02*
X50000000Y-50000000D01*
X150000000Y-150000000D02*
X50000000Y-150000000D01*
X150000000Y-50000000D02*
X150000000Y-150000000D01*
X50000000Y-50000000D02*
X150000000Y-50000000D01*
D11*
G04 #@! TO.P,C10,1*
G04 #@! TO.N,N/C*
X139490000Y-110790000D03*
G04 #@! TO.P,C10,2*
X129490000Y-110790000D03*
G04 #@! TD*
G04 #@! TO.P,C21,1*
G04 #@! TO.N,N/C*
X70990000Y-147290000D03*
G04 #@! TO.P,C21,2*
X60990000Y-147290000D03*
G04 #@! TD*
G04 #@! TO.P,C4,1*
G04 #@! TO.N,N/C*
X91006000Y-110752400D03*
G04 #@! TO.P,C4,2*
X81006000Y-110752400D03*
G04 #@! TD*
D12*
G04 #@! TO.P,D34,1*
G04 #@! TO.N,N/C*
X114788000Y-132452000D03*
D13*
G04 #@! TO.P,D34,2*
X114788000Y-140072000D03*
G04 #@! TD*
D12*
G04 #@! TO.P,D37,1*
G04 #@! TO.N,N/C*
X126980000Y-140072000D03*
D13*
G04 #@! TO.P,D37,2*
X126980000Y-132452000D03*
G04 #@! TD*
D11*
G04 #@! TO.P,C5,1*
G04 #@! TO.N,N/C*
X100490000Y-107040000D03*
G04 #@! TO.P,C5,2*
X90490000Y-107040000D03*
G04 #@! TD*
D12*
G04 #@! TO.P,D32,1*
G04 #@! TO.N,N/C*
X106660000Y-132452000D03*
D13*
G04 #@! TO.P,D32,2*
X106660000Y-140072000D03*
G04 #@! TD*
D12*
G04 #@! TO.P,D33,1*
G04 #@! TO.N,N/C*
X110724000Y-140072000D03*
D13*
G04 #@! TO.P,D33,2*
X110724000Y-132452000D03*
G04 #@! TD*
D12*
G04 #@! TO.P,D40,1*
G04 #@! TO.N,N/C*
X139172000Y-132452000D03*
D13*
G04 #@! TO.P,D40,2*
X139172000Y-140072000D03*
G04 #@! TD*
D11*
G04 #@! TO.P,C20,1*
G04 #@! TO.N,N/C*
X139490000Y-129040000D03*
G04 #@! TO.P,C20,2*
X129490000Y-129040000D03*
G04 #@! TD*
G04 #@! TO.P,C25,1*
G04 #@! TO.N,N/C*
X98740000Y-147290000D03*
G04 #@! TO.P,C25,2*
X88740000Y-147290000D03*
G04 #@! TD*
G04 #@! TO.P,C8,1*
G04 #@! TO.N,N/C*
X123518000Y-110727000D03*
G04 #@! TO.P,C8,2*
X113518000Y-110727000D03*
G04 #@! TD*
G04 #@! TO.P,C3,1*
G04 #@! TO.N,N/C*
X85740000Y-107040000D03*
G04 #@! TO.P,C3,2*
X75740000Y-107040000D03*
G04 #@! TD*
D12*
G04 #@! TO.P,D30,1*
G04 #@! TO.N,N/C*
X98532000Y-132452000D03*
D13*
G04 #@! TO.P,D30,2*
X98532000Y-140072000D03*
G04 #@! TD*
D12*
G04 #@! TO.P,D31,1*
G04 #@! TO.N,N/C*
X102596000Y-140072000D03*
D13*
G04 #@! TO.P,D31,2*
X102596000Y-132452000D03*
G04 #@! TD*
D12*
G04 #@! TO.P,D3,1*
G04 #@! TO.N,N/C*
X70084000Y-114156000D03*
D13*
G04 #@! TO.P,D3,2*
X70084000Y-121776000D03*
G04 #@! TD*
D12*
G04 #@! TO.P,D4,1*
G04 #@! TO.N,N/C*
X74148000Y-121776000D03*
D13*
G04 #@! TO.P,D4,2*
X74148000Y-114156000D03*
G04 #@! TD*
D12*
G04 #@! TO.P,D5,1*
G04 #@! TO.N,N/C*
X78212000Y-114156000D03*
D13*
G04 #@! TO.P,D5,2*
X78212000Y-121776000D03*
G04 #@! TD*
D12*
G04 #@! TO.P,D6,1*
G04 #@! TO.N,N/C*
X82276000Y-121776000D03*
D13*
G04 #@! TO.P,D6,2*
X82276000Y-114156000D03*
G04 #@! TD*
D12*
G04 #@! TO.P,D7,1*
G04 #@! TO.N,N/C*
X86340000Y-114156000D03*
D13*
G04 #@! TO.P,D7,2*
X86340000Y-121776000D03*
G04 #@! TD*
D12*
G04 #@! TO.P,D8,1*
G04 #@! TO.N,N/C*
X90404000Y-121776000D03*
D13*
G04 #@! TO.P,D8,2*
X90404000Y-114156000D03*
G04 #@! TD*
D12*
G04 #@! TO.P,D10,1*
G04 #@! TO.N,N/C*
X98532000Y-121776000D03*
D13*
G04 #@! TO.P,D10,2*
X98532000Y-114156000D03*
G04 #@! TD*
D12*
G04 #@! TO.P,D11,1*
G04 #@! TO.N,N/C*
X102596000Y-114156000D03*
D13*
G04 #@! TO.P,D11,2*
X102596000Y-121776000D03*
G04 #@! TD*
D12*
G04 #@! TO.P,D12,1*
G04 #@! TO.N,N/C*
X106660000Y-121776000D03*
D13*
G04 #@! TO.P,D12,2*
X106660000Y-114156000D03*
G04 #@! TD*
D12*
G04 #@! TO.P,D13,1*
G04 #@! TO.N,N/C*
X110724000Y-114156000D03*
D13*
G04 #@! TO.P,D13,2*
X110724000Y-121776000D03*
G04 #@! TD*
D12*
G04 #@! TO.P,D14,1*
G04 #@! TO.N,N/C*
X114788000Y-121776000D03*
D13*
G04 #@! TO.P,D14,2*
X114788000Y-114156000D03*
G04 #@! TD*
D12*
G04 #@! TO.P,D15,1*
G04 #@! TO.N,N/C*
X118852000Y-114156000D03*
D13*
G04 #@! TO.P,D15,2*
X118852000Y-121776000D03*
G04 #@! TD*
D12*
G04 #@! TO.P,D16,1*
G04 #@! TO.N,N/C*
X122916000Y-121776000D03*
D13*
G04 #@! TO.P,D16,2*
X122916000Y-114156000D03*
G04 #@! TD*
D12*
G04 #@! TO.P,D17,1*
G04 #@! TO.N,N/C*
X126980000Y-114156000D03*
D13*
G04 #@! TO.P,D17,2*
X126980000Y-121776000D03*
G04 #@! TD*
D12*
G04 #@! TO.P,D18,1*
G04 #@! TO.N,N/C*
X131044000Y-121776000D03*
D13*
G04 #@! TO.P,D18,2*
X131044000Y-114156000D03*
G04 #@! TD*
D12*
G04 #@! TO.P,D19,1*
G04 #@! TO.N,N/C*
X135108000Y-114156000D03*
D13*
G04 #@! TO.P,D19,2*
X135108000Y-121776000D03*
G04 #@! TD*
D12*
G04 #@! TO.P,D20,1*
G04 #@! TO.N,N/C*
X139172000Y-121776000D03*
D13*
G04 #@! TO.P,D20,2*
X139172000Y-114156000D03*
G04 #@! TD*
D12*
G04 #@! TO.P,D21,1*
G04 #@! TO.N,N/C*
X61956000Y-140072000D03*
D13*
G04 #@! TO.P,D21,2*
X61956000Y-132452000D03*
G04 #@! TD*
D12*
G04 #@! TO.P,D22,1*
G04 #@! TO.N,N/C*
X66020000Y-132452000D03*
D13*
G04 #@! TO.P,D22,2*
X66020000Y-140072000D03*
G04 #@! TD*
D12*
G04 #@! TO.P,D23,1*
G04 #@! TO.N,N/C*
X70084000Y-140072000D03*
D13*
G04 #@! TO.P,D23,2*
X70084000Y-132452000D03*
G04 #@! TD*
D12*
G04 #@! TO.P,D24,1*
G04 #@! TO.N,N/C*
X74148000Y-132452000D03*
D13*
G04 #@! TO.P,D24,2*
X74148000Y-140072000D03*
G04 #@! TD*
D12*
G04 #@! TO.P,D25,1*
G04 #@! TO.N,N/C*
X78212000Y-140072000D03*
D13*
G04 #@! TO.P,D25,2*
X78212000Y-132452000D03*
G04 #@! TD*
D12*
G04 #@! TO.P,D26,1*
G04 #@! TO.N,N/C*
X82276000Y-132452000D03*
D13*
G04 #@! TO.P,D26,2*
X82276000Y-140072000D03*
G04 #@! TD*
D12*
G04 #@! TO.P,D27,1*
G04 #@! TO.N,N/C*
X86340000Y-140072000D03*
D13*
G04 #@! TO.P,D27,2*
X86340000Y-132452000D03*
G04 #@! TD*
D12*
G04 #@! TO.P,D28,1*
G04 #@! TO.N,N/C*
X90404000Y-132452000D03*
D13*
G04 #@! TO.P,D28,2*
X90404000Y-140072000D03*
G04 #@! TD*
D12*
G04 #@! TO.P,D29,1*
G04 #@! TO.N,N/C*
X94468000Y-140072000D03*
D13*
G04 #@! TO.P,D29,2*
X94468000Y-132452000D03*
G04 #@! TD*
D11*
G04 #@! TO.P,C16,1*
G04 #@! TO.N,N/C*
X109490000Y-129040000D03*
G04 #@! TO.P,C16,2*
X99490000Y-129040000D03*
G04 #@! TD*
G04 #@! TO.P,C11,1*
G04 #@! TO.N,N/C*
X71740000Y-125290000D03*
G04 #@! TO.P,C11,2*
X61740000Y-125290000D03*
G04 #@! TD*
G04 #@! TO.P,C17,1*
G04 #@! TO.N,N/C*
X115740000Y-125332000D03*
G04 #@! TO.P,C17,2*
X105740000Y-125332000D03*
G04 #@! TD*
G04 #@! TO.P,C13,1*
G04 #@! TO.N,N/C*
X85240000Y-125290000D03*
G04 #@! TO.P,C13,2*
X75240000Y-125290000D03*
G04 #@! TD*
D14*
G04 #@! TO.P,OUT1,1*
G04 #@! TO.N,N/C*
X139240000Y-107040000D03*
G04 #@! TD*
D11*
G04 #@! TO.P,C15,1*
G04 #@! TO.N,N/C*
X100056000Y-125332000D03*
G04 #@! TO.P,C15,2*
X90056000Y-125332000D03*
G04 #@! TD*
G04 #@! TO.P,C9,1*
G04 #@! TO.N,N/C*
X131490000Y-107040000D03*
G04 #@! TO.P,C9,2*
X121490000Y-107040000D03*
G04 #@! TD*
G04 #@! TO.P,C14,1*
G04 #@! TO.N,N/C*
X92990000Y-129040000D03*
G04 #@! TO.P,C14,2*
X82990000Y-129040000D03*
G04 #@! TD*
G04 #@! TO.P,C12,1*
G04 #@! TO.N,N/C*
X78720000Y-129040400D03*
G04 #@! TO.P,C12,2*
X68720000Y-129040400D03*
G04 #@! TD*
G04 #@! TO.P,C18,1*
G04 #@! TO.N,N/C*
X124240000Y-129040000D03*
G04 #@! TO.P,C18,2*
X114240000Y-129040000D03*
G04 #@! TD*
D14*
G04 #@! TO.P,HV0,1*
G04 #@! TO.N,N/C*
X61879800Y-129040400D03*
G04 #@! TD*
G04 #@! TO.P,IN2,1*
G04 #@! TO.N,N/C*
X61219400Y-143848600D03*
G04 #@! TD*
D11*
G04 #@! TO.P,C29,1*
G04 #@! TO.N,N/C*
X131240000Y-147290000D03*
G04 #@! TO.P,C29,2*
X121240000Y-147290000D03*
G04 #@! TD*
D14*
G04 #@! TO.P,HV10,1*
G04 #@! TO.N,N/C*
X139240000Y-125040000D03*
G04 #@! TD*
G04 #@! TO.P,OUT2,1*
G04 #@! TO.N,N/C*
X139240000Y-147040000D03*
G04 #@! TD*
G04 #@! TO.P,IN1,1*
G04 #@! TO.N,N/C*
X61930600Y-110447600D03*
G04 #@! TD*
G04 #@! TO.P,HV9,1*
G04 #@! TO.N,N/C*
X133240000Y-125040000D03*
G04 #@! TD*
D11*
G04 #@! TO.P,C28,1*
G04 #@! TO.N,N/C*
X123240000Y-143540000D03*
G04 #@! TO.P,C28,2*
X113240000Y-143540000D03*
G04 #@! TD*
G04 #@! TO.P,C1,1*
G04 #@! TO.N,N/C*
X71740000Y-107040000D03*
G04 #@! TO.P,C1,2*
X61740000Y-107040000D03*
G04 #@! TD*
D12*
G04 #@! TO.P,D9,1*
G04 #@! TO.N,N/C*
X94468000Y-114156000D03*
D13*
G04 #@! TO.P,D9,2*
X94468000Y-121776000D03*
G04 #@! TD*
D11*
G04 #@! TO.P,C2,1*
G04 #@! TO.N,N/C*
X75595800Y-110752400D03*
G04 #@! TO.P,C2,2*
X65595800Y-110752400D03*
G04 #@! TD*
G04 #@! TO.P,C6,1*
G04 #@! TO.N,N/C*
X107218800Y-110752400D03*
G04 #@! TO.P,C6,2*
X97218800Y-110752400D03*
G04 #@! TD*
D12*
G04 #@! TO.P,D36,1*
G04 #@! TO.N,N/C*
X122916000Y-132452000D03*
D13*
G04 #@! TO.P,D36,2*
X122916000Y-140072000D03*
G04 #@! TD*
D11*
G04 #@! TO.P,C24,1*
G04 #@! TO.N,N/C*
X90490000Y-143540000D03*
G04 #@! TO.P,C24,2*
X80490000Y-143540000D03*
G04 #@! TD*
G04 #@! TO.P,C7,1*
G04 #@! TO.N,N/C*
X115740000Y-107040000D03*
G04 #@! TO.P,C7,2*
X105740000Y-107040000D03*
G04 #@! TD*
D12*
G04 #@! TO.P,D39,1*
G04 #@! TO.N,N/C*
X135108000Y-140072000D03*
D13*
G04 #@! TO.P,D39,2*
X135108000Y-132452000D03*
G04 #@! TD*
D11*
G04 #@! TO.P,C26,1*
G04 #@! TO.N,N/C*
X105740000Y-143540000D03*
G04 #@! TO.P,C26,2*
X95740000Y-143540000D03*
G04 #@! TD*
D12*
G04 #@! TO.P,D35,1*
G04 #@! TO.N,N/C*
X118852000Y-140072000D03*
D13*
G04 #@! TO.P,D35,2*
X118852000Y-132452000D03*
G04 #@! TD*
D11*
G04 #@! TO.P,C27,1*
G04 #@! TO.N,N/C*
X114740000Y-147290000D03*
G04 #@! TO.P,C27,2*
X104740000Y-147290000D03*
G04 #@! TD*
G04 #@! TO.P,C23,1*
G04 #@! TO.N,N/C*
X84740000Y-147290000D03*
G04 #@! TO.P,C23,2*
X74740000Y-147290000D03*
G04 #@! TD*
G04 #@! TO.P,C22,1*
G04 #@! TO.N,N/C*
X75494200Y-143518400D03*
G04 #@! TO.P,C22,2*
X65494200Y-143518400D03*
G04 #@! TD*
D12*
G04 #@! TO.P,D38,1*
G04 #@! TO.N,N/C*
X131044000Y-132452000D03*
D13*
G04 #@! TO.P,D38,2*
X131044000Y-140072000D03*
G04 #@! TD*
D12*
G04 #@! TO.P,D1,1*
G04 #@! TO.N,N/C*
X61956000Y-114156000D03*
D13*
G04 #@! TO.P,D1,2*
X61956000Y-121776000D03*
G04 #@! TD*
D12*
G04 #@! TO.P,D2,1*
G04 #@! TO.N,N/C*
X66020000Y-121776000D03*
D13*
G04 #@! TO.P,D2,2*
X66020000Y-114156000D03*
G04 #@! TD*
D14*
G04 #@! TO.P,HV1,1*
G04 #@! TO.N,N/C*
X65943800Y-129040400D03*
G04 #@! TD*
D11*
G04 #@! TO.P,C30,1*
G04 #@! TO.N,N/C*
X139490000Y-143540000D03*
G04 #@! TO.P,C30,2*
X129490000Y-143540000D03*
G04 #@! TD*
G04 #@! TO.P,C19,1*
G04 #@! TO.N,N/C*
X130240000Y-125290000D03*
G04 #@! TO.P,C19,2*
X120240000Y-125290000D03*
G04 #@! TD*
D14*
G04 #@! TO.P,HV1,1*
G04 #@! TO.N,/multiplier/HV1*
X65943800Y-75040400D03*
G04 #@! TD*
G04 #@! TO.P,IN2,1*
G04 #@! TO.N,/multiplier/IN2*
X61219400Y-89848600D03*
G04 #@! TD*
G04 #@! TO.P,IN1,1*
G04 #@! TO.N,/multiplier/IN1*
X61930600Y-56447600D03*
G04 #@! TD*
G04 #@! TO.P,HV9,1*
G04 #@! TO.N,/multiplier/HV9*
X133240000Y-71040000D03*
G04 #@! TD*
G04 #@! TO.P,OUT1,1*
G04 #@! TO.N,/multiplier/OUT1*
X139240000Y-53040000D03*
G04 #@! TD*
G04 #@! TO.P,HV0,1*
G04 #@! TO.N,/multiplier/HV0*
X61879800Y-75040400D03*
G04 #@! TD*
G04 #@! TO.P,OUT2,1*
G04 #@! TO.N,/multiplier/OUT2*
X139240000Y-93040000D03*
G04 #@! TD*
G04 #@! TO.P,HV10,1*
G04 #@! TO.N,/multiplier/HV10*
X139240000Y-71040000D03*
G04 #@! TD*
D11*
G04 #@! TO.P,C30,2*
G04 #@! TO.N,Net-(C29-Pad1)*
X129490000Y-89540000D03*
G04 #@! TO.P,C30,1*
G04 #@! TO.N,/multiplier/OUT2*
X139490000Y-89540000D03*
G04 #@! TD*
G04 #@! TO.P,C29,2*
G04 #@! TO.N,Net-(C28-Pad1)*
X121240000Y-93290000D03*
G04 #@! TO.P,C29,1*
G04 #@! TO.N,Net-(C29-Pad1)*
X131240000Y-93290000D03*
G04 #@! TD*
G04 #@! TO.P,C28,2*
G04 #@! TO.N,Net-(C27-Pad1)*
X113240000Y-89540000D03*
G04 #@! TO.P,C28,1*
G04 #@! TO.N,Net-(C28-Pad1)*
X123240000Y-89540000D03*
G04 #@! TD*
G04 #@! TO.P,C27,2*
G04 #@! TO.N,Net-(C26-Pad1)*
X104740000Y-93290000D03*
G04 #@! TO.P,C27,1*
G04 #@! TO.N,Net-(C27-Pad1)*
X114740000Y-93290000D03*
G04 #@! TD*
G04 #@! TO.P,C26,2*
G04 #@! TO.N,Net-(C25-Pad1)*
X95740000Y-89540000D03*
G04 #@! TO.P,C26,1*
G04 #@! TO.N,Net-(C26-Pad1)*
X105740000Y-89540000D03*
G04 #@! TD*
G04 #@! TO.P,C25,2*
G04 #@! TO.N,Net-(C24-Pad1)*
X88740000Y-93290000D03*
G04 #@! TO.P,C25,1*
G04 #@! TO.N,Net-(C25-Pad1)*
X98740000Y-93290000D03*
G04 #@! TD*
G04 #@! TO.P,C24,2*
G04 #@! TO.N,Net-(C23-Pad1)*
X80490000Y-89540000D03*
G04 #@! TO.P,C24,1*
G04 #@! TO.N,Net-(C24-Pad1)*
X90490000Y-89540000D03*
G04 #@! TD*
G04 #@! TO.P,C23,2*
G04 #@! TO.N,Net-(C22-Pad1)*
X74740000Y-93290000D03*
G04 #@! TO.P,C23,1*
G04 #@! TO.N,Net-(C23-Pad1)*
X84740000Y-93290000D03*
G04 #@! TD*
G04 #@! TO.P,C22,2*
G04 #@! TO.N,Net-(C21-Pad1)*
X65494200Y-89518400D03*
G04 #@! TO.P,C22,1*
G04 #@! TO.N,Net-(C22-Pad1)*
X75494200Y-89518400D03*
G04 #@! TD*
G04 #@! TO.P,C21,2*
G04 #@! TO.N,/multiplier/IN2*
X60990000Y-93290000D03*
G04 #@! TO.P,C21,1*
G04 #@! TO.N,Net-(C21-Pad1)*
X70990000Y-93290000D03*
G04 #@! TD*
G04 #@! TO.P,C20,2*
G04 #@! TO.N,/multiplier/HV9*
X129490000Y-75040000D03*
G04 #@! TO.P,C20,1*
G04 #@! TO.N,/multiplier/HV10*
X139490000Y-75040000D03*
G04 #@! TD*
G04 #@! TO.P,C19,2*
G04 #@! TO.N,Net-(C18-Pad1)*
X120240000Y-71290000D03*
G04 #@! TO.P,C19,1*
G04 #@! TO.N,/multiplier/HV9*
X130240000Y-71290000D03*
G04 #@! TD*
G04 #@! TO.P,C18,2*
G04 #@! TO.N,Net-(C17-Pad1)*
X114240000Y-75040000D03*
G04 #@! TO.P,C18,1*
G04 #@! TO.N,Net-(C18-Pad1)*
X124240000Y-75040000D03*
G04 #@! TD*
G04 #@! TO.P,C17,2*
G04 #@! TO.N,Net-(C16-Pad1)*
X105740000Y-71332000D03*
G04 #@! TO.P,C17,1*
G04 #@! TO.N,Net-(C17-Pad1)*
X115740000Y-71332000D03*
G04 #@! TD*
G04 #@! TO.P,C16,2*
G04 #@! TO.N,Net-(C15-Pad1)*
X99490000Y-75040000D03*
G04 #@! TO.P,C16,1*
G04 #@! TO.N,Net-(C16-Pad1)*
X109490000Y-75040000D03*
G04 #@! TD*
G04 #@! TO.P,C15,2*
G04 #@! TO.N,Net-(C14-Pad1)*
X90056000Y-71332000D03*
G04 #@! TO.P,C15,1*
G04 #@! TO.N,Net-(C15-Pad1)*
X100056000Y-71332000D03*
G04 #@! TD*
G04 #@! TO.P,C14,2*
G04 #@! TO.N,Net-(C13-Pad1)*
X82990000Y-75040000D03*
G04 #@! TO.P,C14,1*
G04 #@! TO.N,Net-(C14-Pad1)*
X92990000Y-75040000D03*
G04 #@! TD*
G04 #@! TO.P,C13,2*
G04 #@! TO.N,Net-(C12-Pad1)*
X75240000Y-71290000D03*
G04 #@! TO.P,C13,1*
G04 #@! TO.N,Net-(C13-Pad1)*
X85240000Y-71290000D03*
G04 #@! TD*
G04 #@! TO.P,C12,2*
G04 #@! TO.N,/multiplier/HV1*
X68720000Y-75040400D03*
G04 #@! TO.P,C12,1*
G04 #@! TO.N,Net-(C12-Pad1)*
X78720000Y-75040400D03*
G04 #@! TD*
G04 #@! TO.P,C11,2*
G04 #@! TO.N,/multiplier/HV0*
X61740000Y-71290000D03*
G04 #@! TO.P,C11,1*
G04 #@! TO.N,/multiplier/HV1*
X71740000Y-71290000D03*
G04 #@! TD*
G04 #@! TO.P,C10,2*
G04 #@! TO.N,Net-(C10-Pad2)*
X129490000Y-56790000D03*
G04 #@! TO.P,C10,1*
G04 #@! TO.N,/multiplier/OUT1*
X139490000Y-56790000D03*
G04 #@! TD*
G04 #@! TO.P,C9,2*
G04 #@! TO.N,Net-(C8-Pad1)*
X121490000Y-53040000D03*
G04 #@! TO.P,C9,1*
G04 #@! TO.N,Net-(C10-Pad2)*
X131490000Y-53040000D03*
G04 #@! TD*
G04 #@! TO.P,C8,2*
G04 #@! TO.N,Net-(C7-Pad1)*
X113518000Y-56727000D03*
G04 #@! TO.P,C8,1*
G04 #@! TO.N,Net-(C8-Pad1)*
X123518000Y-56727000D03*
G04 #@! TD*
G04 #@! TO.P,C7,2*
G04 #@! TO.N,Net-(C6-Pad1)*
X105740000Y-53040000D03*
G04 #@! TO.P,C7,1*
G04 #@! TO.N,Net-(C7-Pad1)*
X115740000Y-53040000D03*
G04 #@! TD*
G04 #@! TO.P,C6,2*
G04 #@! TO.N,Net-(C5-Pad1)*
X97218800Y-56752400D03*
G04 #@! TO.P,C6,1*
G04 #@! TO.N,Net-(C6-Pad1)*
X107218800Y-56752400D03*
G04 #@! TD*
G04 #@! TO.P,C5,2*
G04 #@! TO.N,Net-(C4-Pad1)*
X90490000Y-53040000D03*
G04 #@! TO.P,C5,1*
G04 #@! TO.N,Net-(C5-Pad1)*
X100490000Y-53040000D03*
G04 #@! TD*
G04 #@! TO.P,C4,2*
G04 #@! TO.N,Net-(C3-Pad1)*
X81006000Y-56752400D03*
G04 #@! TO.P,C4,1*
G04 #@! TO.N,Net-(C4-Pad1)*
X91006000Y-56752400D03*
G04 #@! TD*
G04 #@! TO.P,C3,2*
G04 #@! TO.N,Net-(C2-Pad1)*
X75740000Y-53040000D03*
G04 #@! TO.P,C3,1*
G04 #@! TO.N,Net-(C3-Pad1)*
X85740000Y-53040000D03*
G04 #@! TD*
G04 #@! TO.P,C2,2*
G04 #@! TO.N,Net-(C1-Pad1)*
X65595800Y-56752400D03*
G04 #@! TO.P,C2,1*
G04 #@! TO.N,Net-(C2-Pad1)*
X75595800Y-56752400D03*
G04 #@! TD*
G04 #@! TO.P,C1,2*
G04 #@! TO.N,/multiplier/IN1*
X61740000Y-53040000D03*
G04 #@! TO.P,C1,1*
G04 #@! TO.N,Net-(C1-Pad1)*
X71740000Y-53040000D03*
G04 #@! TD*
D13*
G04 #@! TO.P,D40,2*
G04 #@! TO.N,/multiplier/OUT2*
X139172000Y-86072000D03*
D12*
G04 #@! TO.P,D40,1*
G04 #@! TO.N,/multiplier/HV10*
X139172000Y-78452000D03*
G04 #@! TD*
D13*
G04 #@! TO.P,D39,2*
G04 #@! TO.N,/multiplier/HV9*
X135108000Y-78452000D03*
D12*
G04 #@! TO.P,D39,1*
G04 #@! TO.N,/multiplier/OUT2*
X135108000Y-86072000D03*
G04 #@! TD*
D13*
G04 #@! TO.P,D38,2*
G04 #@! TO.N,Net-(C29-Pad1)*
X131044000Y-86072000D03*
D12*
G04 #@! TO.P,D38,1*
G04 #@! TO.N,/multiplier/HV9*
X131044000Y-78452000D03*
G04 #@! TD*
D13*
G04 #@! TO.P,D37,2*
G04 #@! TO.N,Net-(C18-Pad1)*
X126980000Y-78452000D03*
D12*
G04 #@! TO.P,D37,1*
G04 #@! TO.N,Net-(C29-Pad1)*
X126980000Y-86072000D03*
G04 #@! TD*
D13*
G04 #@! TO.P,D36,2*
G04 #@! TO.N,Net-(C28-Pad1)*
X122916000Y-86072000D03*
D12*
G04 #@! TO.P,D36,1*
G04 #@! TO.N,Net-(C18-Pad1)*
X122916000Y-78452000D03*
G04 #@! TD*
D13*
G04 #@! TO.P,D35,2*
G04 #@! TO.N,Net-(C17-Pad1)*
X118852000Y-78452000D03*
D12*
G04 #@! TO.P,D35,1*
G04 #@! TO.N,Net-(C28-Pad1)*
X118852000Y-86072000D03*
G04 #@! TD*
D13*
G04 #@! TO.P,D34,2*
G04 #@! TO.N,Net-(C27-Pad1)*
X114788000Y-86072000D03*
D12*
G04 #@! TO.P,D34,1*
G04 #@! TO.N,Net-(C17-Pad1)*
X114788000Y-78452000D03*
G04 #@! TD*
D13*
G04 #@! TO.P,D33,2*
G04 #@! TO.N,Net-(C16-Pad1)*
X110724000Y-78452000D03*
D12*
G04 #@! TO.P,D33,1*
G04 #@! TO.N,Net-(C27-Pad1)*
X110724000Y-86072000D03*
G04 #@! TD*
D13*
G04 #@! TO.P,D32,2*
G04 #@! TO.N,Net-(C26-Pad1)*
X106660000Y-86072000D03*
D12*
G04 #@! TO.P,D32,1*
G04 #@! TO.N,Net-(C16-Pad1)*
X106660000Y-78452000D03*
G04 #@! TD*
D13*
G04 #@! TO.P,D31,2*
G04 #@! TO.N,Net-(C15-Pad1)*
X102596000Y-78452000D03*
D12*
G04 #@! TO.P,D31,1*
G04 #@! TO.N,Net-(C26-Pad1)*
X102596000Y-86072000D03*
G04 #@! TD*
D13*
G04 #@! TO.P,D30,2*
G04 #@! TO.N,Net-(C25-Pad1)*
X98532000Y-86072000D03*
D12*
G04 #@! TO.P,D30,1*
G04 #@! TO.N,Net-(C15-Pad1)*
X98532000Y-78452000D03*
G04 #@! TD*
D13*
G04 #@! TO.P,D29,2*
G04 #@! TO.N,Net-(C14-Pad1)*
X94468000Y-78452000D03*
D12*
G04 #@! TO.P,D29,1*
G04 #@! TO.N,Net-(C25-Pad1)*
X94468000Y-86072000D03*
G04 #@! TD*
D13*
G04 #@! TO.P,D28,2*
G04 #@! TO.N,Net-(C24-Pad1)*
X90404000Y-86072000D03*
D12*
G04 #@! TO.P,D28,1*
G04 #@! TO.N,Net-(C14-Pad1)*
X90404000Y-78452000D03*
G04 #@! TD*
D13*
G04 #@! TO.P,D27,2*
G04 #@! TO.N,Net-(C13-Pad1)*
X86340000Y-78452000D03*
D12*
G04 #@! TO.P,D27,1*
G04 #@! TO.N,Net-(C24-Pad1)*
X86340000Y-86072000D03*
G04 #@! TD*
D13*
G04 #@! TO.P,D26,2*
G04 #@! TO.N,Net-(C23-Pad1)*
X82276000Y-86072000D03*
D12*
G04 #@! TO.P,D26,1*
G04 #@! TO.N,Net-(C13-Pad1)*
X82276000Y-78452000D03*
G04 #@! TD*
D13*
G04 #@! TO.P,D25,2*
G04 #@! TO.N,Net-(C12-Pad1)*
X78212000Y-78452000D03*
D12*
G04 #@! TO.P,D25,1*
G04 #@! TO.N,Net-(C23-Pad1)*
X78212000Y-86072000D03*
G04 #@! TD*
D13*
G04 #@! TO.P,D24,2*
G04 #@! TO.N,Net-(C22-Pad1)*
X74148000Y-86072000D03*
D12*
G04 #@! TO.P,D24,1*
G04 #@! TO.N,Net-(C12-Pad1)*
X74148000Y-78452000D03*
G04 #@! TD*
D13*
G04 #@! TO.P,D23,2*
G04 #@! TO.N,/multiplier/HV1*
X70084000Y-78452000D03*
D12*
G04 #@! TO.P,D23,1*
G04 #@! TO.N,Net-(C22-Pad1)*
X70084000Y-86072000D03*
G04 #@! TD*
D13*
G04 #@! TO.P,D22,2*
G04 #@! TO.N,Net-(C21-Pad1)*
X66020000Y-86072000D03*
D12*
G04 #@! TO.P,D22,1*
G04 #@! TO.N,/multiplier/HV1*
X66020000Y-78452000D03*
G04 #@! TD*
D13*
G04 #@! TO.P,D21,2*
G04 #@! TO.N,/multiplier/HV0*
X61956000Y-78452000D03*
D12*
G04 #@! TO.P,D21,1*
G04 #@! TO.N,Net-(C21-Pad1)*
X61956000Y-86072000D03*
G04 #@! TD*
D13*
G04 #@! TO.P,D20,2*
G04 #@! TO.N,/multiplier/OUT1*
X139172000Y-60156000D03*
D12*
G04 #@! TO.P,D20,1*
G04 #@! TO.N,/multiplier/HV10*
X139172000Y-67776000D03*
G04 #@! TD*
D13*
G04 #@! TO.P,D19,2*
G04 #@! TO.N,/multiplier/HV9*
X135108000Y-67776000D03*
D12*
G04 #@! TO.P,D19,1*
G04 #@! TO.N,/multiplier/OUT1*
X135108000Y-60156000D03*
G04 #@! TD*
D13*
G04 #@! TO.P,D18,2*
G04 #@! TO.N,Net-(C10-Pad2)*
X131044000Y-60156000D03*
D12*
G04 #@! TO.P,D18,1*
G04 #@! TO.N,/multiplier/HV9*
X131044000Y-67776000D03*
G04 #@! TD*
D13*
G04 #@! TO.P,D17,2*
G04 #@! TO.N,Net-(C18-Pad1)*
X126980000Y-67776000D03*
D12*
G04 #@! TO.P,D17,1*
G04 #@! TO.N,Net-(C10-Pad2)*
X126980000Y-60156000D03*
G04 #@! TD*
D13*
G04 #@! TO.P,D16,2*
G04 #@! TO.N,Net-(C8-Pad1)*
X122916000Y-60156000D03*
D12*
G04 #@! TO.P,D16,1*
G04 #@! TO.N,Net-(C18-Pad1)*
X122916000Y-67776000D03*
G04 #@! TD*
D13*
G04 #@! TO.P,D15,2*
G04 #@! TO.N,Net-(C17-Pad1)*
X118852000Y-67776000D03*
D12*
G04 #@! TO.P,D15,1*
G04 #@! TO.N,Net-(C8-Pad1)*
X118852000Y-60156000D03*
G04 #@! TD*
D13*
G04 #@! TO.P,D14,2*
G04 #@! TO.N,Net-(C7-Pad1)*
X114788000Y-60156000D03*
D12*
G04 #@! TO.P,D14,1*
G04 #@! TO.N,Net-(C17-Pad1)*
X114788000Y-67776000D03*
G04 #@! TD*
D13*
G04 #@! TO.P,D13,2*
G04 #@! TO.N,Net-(C16-Pad1)*
X110724000Y-67776000D03*
D12*
G04 #@! TO.P,D13,1*
G04 #@! TO.N,Net-(C7-Pad1)*
X110724000Y-60156000D03*
G04 #@! TD*
D13*
G04 #@! TO.P,D12,2*
G04 #@! TO.N,Net-(C6-Pad1)*
X106660000Y-60156000D03*
D12*
G04 #@! TO.P,D12,1*
G04 #@! TO.N,Net-(C16-Pad1)*
X106660000Y-67776000D03*
G04 #@! TD*
D13*
G04 #@! TO.P,D11,2*
G04 #@! TO.N,Net-(C15-Pad1)*
X102596000Y-67776000D03*
D12*
G04 #@! TO.P,D11,1*
G04 #@! TO.N,Net-(C6-Pad1)*
X102596000Y-60156000D03*
G04 #@! TD*
D13*
G04 #@! TO.P,D10,2*
G04 #@! TO.N,Net-(C5-Pad1)*
X98532000Y-60156000D03*
D12*
G04 #@! TO.P,D10,1*
G04 #@! TO.N,Net-(C15-Pad1)*
X98532000Y-67776000D03*
G04 #@! TD*
D13*
G04 #@! TO.P,D9,2*
G04 #@! TO.N,Net-(C14-Pad1)*
X94468000Y-67776000D03*
D12*
G04 #@! TO.P,D9,1*
G04 #@! TO.N,Net-(C5-Pad1)*
X94468000Y-60156000D03*
G04 #@! TD*
D13*
G04 #@! TO.P,D8,2*
G04 #@! TO.N,Net-(C4-Pad1)*
X90404000Y-60156000D03*
D12*
G04 #@! TO.P,D8,1*
G04 #@! TO.N,Net-(C14-Pad1)*
X90404000Y-67776000D03*
G04 #@! TD*
D13*
G04 #@! TO.P,D7,2*
G04 #@! TO.N,Net-(C13-Pad1)*
X86340000Y-67776000D03*
D12*
G04 #@! TO.P,D7,1*
G04 #@! TO.N,Net-(C4-Pad1)*
X86340000Y-60156000D03*
G04 #@! TD*
D13*
G04 #@! TO.P,D6,2*
G04 #@! TO.N,Net-(C3-Pad1)*
X82276000Y-60156000D03*
D12*
G04 #@! TO.P,D6,1*
G04 #@! TO.N,Net-(C13-Pad1)*
X82276000Y-67776000D03*
G04 #@! TD*
D13*
G04 #@! TO.P,D5,2*
G04 #@! TO.N,Net-(C12-Pad1)*
X78212000Y-67776000D03*
D12*
G04 #@! TO.P,D5,1*
G04 #@! TO.N,Net-(C3-Pad1)*
X78212000Y-60156000D03*
G04 #@! TD*
D13*
G04 #@! TO.P,D4,2*
G04 #@! TO.N,Net-(C2-Pad1)*
X74148000Y-60156000D03*
D12*
G04 #@! TO.P,D4,1*
G04 #@! TO.N,Net-(C12-Pad1)*
X74148000Y-67776000D03*
G04 #@! TD*
D13*
G04 #@! TO.P,D3,2*
G04 #@! TO.N,/multiplier/HV1*
X70084000Y-67776000D03*
D12*
G04 #@! TO.P,D3,1*
G04 #@! TO.N,Net-(C2-Pad1)*
X70084000Y-60156000D03*
G04 #@! TD*
D13*
G04 #@! TO.P,D2,2*
G04 #@! TO.N,Net-(C1-Pad1)*
X66020000Y-60156000D03*
D12*
G04 #@! TO.P,D2,1*
G04 #@! TO.N,/multiplier/HV1*
X66020000Y-67776000D03*
G04 #@! TD*
D13*
G04 #@! TO.P,D1,2*
G04 #@! TO.N,/multiplier/HV0*
X61956000Y-67776000D03*
D12*
G04 #@! TO.P,D1,1*
G04 #@! TO.N,Net-(C1-Pad1)*
X61956000Y-60156000D03*
G04 #@! TD*
D15*
G04 #@! TO.N,*
X69308200Y-107040000D02*
X65595800Y-110752400D01*
X71740000Y-107040000D02*
X69308200Y-107040000D01*
X65595800Y-113731800D02*
X66020000Y-114156000D01*
X65595800Y-110752400D02*
X65595800Y-113731800D01*
X66020000Y-112760000D02*
X71740000Y-107040000D01*
X66020000Y-114156000D02*
X66020000Y-112760000D01*
X65595800Y-112599000D02*
X64038800Y-114156000D01*
X65595800Y-110752400D02*
X65595800Y-112599000D01*
X64038800Y-114156000D02*
X61956000Y-114156000D01*
X66020000Y-114156000D02*
X64038800Y-114156000D01*
X70084000Y-114156000D02*
X74148000Y-114156000D01*
X74148000Y-112200200D02*
X75595800Y-110752400D01*
X74148000Y-114156000D02*
X74148000Y-112200200D01*
X75595800Y-107184200D02*
X75740000Y-107040000D01*
X75595800Y-110752400D02*
X75595800Y-107184200D01*
X72192200Y-114156000D02*
X75595800Y-110752400D01*
X70084000Y-114156000D02*
X72192200Y-114156000D01*
X75740000Y-108500000D02*
X70084000Y-114156000D01*
X75740000Y-107040000D02*
X75740000Y-108500000D01*
X84718400Y-107040000D02*
X81006000Y-110752400D01*
X85740000Y-107040000D02*
X84718400Y-107040000D01*
X81006000Y-112886000D02*
X82276000Y-114156000D01*
X81006000Y-110752400D02*
X81006000Y-112886000D01*
X82276000Y-114156000D02*
X78212000Y-114156000D01*
X81006000Y-111362000D02*
X78212000Y-114156000D01*
X81006000Y-110752400D02*
X81006000Y-111362000D01*
X82276000Y-110504000D02*
X82276000Y-114156000D01*
X85740000Y-107040000D02*
X82276000Y-110504000D01*
X86340000Y-114156000D02*
X90404000Y-114156000D01*
X90404000Y-111354400D02*
X91006000Y-110752400D01*
X90404000Y-114156000D02*
X90404000Y-111354400D01*
X91006000Y-107556000D02*
X90490000Y-107040000D01*
X91006000Y-110752400D02*
X91006000Y-107556000D01*
X87602400Y-114156000D02*
X91006000Y-110752400D01*
X86340000Y-114156000D02*
X87602400Y-114156000D01*
X90490000Y-110006000D02*
X86340000Y-114156000D01*
X90490000Y-107040000D02*
X90490000Y-110006000D01*
X94468000Y-114156000D02*
X98532000Y-114156000D01*
X98532000Y-112065600D02*
X97218800Y-110752400D01*
X98532000Y-114156000D02*
X98532000Y-112065600D01*
X97218800Y-110311200D02*
X100490000Y-107040000D01*
X97218800Y-110752400D02*
X97218800Y-110311200D01*
X97218800Y-111405200D02*
X94468000Y-114156000D01*
X97218800Y-110752400D02*
X97218800Y-111405200D01*
X97218800Y-112842800D02*
X97218800Y-111405200D01*
X98532000Y-114156000D02*
X97218800Y-112842800D01*
X98532000Y-108998000D02*
X98532000Y-114156000D01*
X100490000Y-107040000D02*
X98532000Y-108998000D01*
X106660000Y-111311200D02*
X107218800Y-110752400D01*
X106660000Y-114156000D02*
X106660000Y-111311200D01*
X106660000Y-114156000D02*
X102596000Y-114156000D01*
X103815200Y-114156000D02*
X107218800Y-110752400D01*
X105740000Y-111012000D02*
X102596000Y-114156000D01*
X105740000Y-107040000D02*
X105740000Y-111012000D01*
X102596000Y-114156000D02*
X103815200Y-114156000D01*
X105740000Y-109273600D02*
X107218800Y-110752400D01*
X105740000Y-107040000D02*
X105740000Y-109273600D01*
X110724000Y-114156000D02*
X114788000Y-114156000D01*
X113518000Y-112886000D02*
X114788000Y-114156000D01*
X113518000Y-110727000D02*
X113518000Y-112886000D01*
X113518000Y-109262000D02*
X115740000Y-107040000D01*
X113518000Y-110727000D02*
X113518000Y-109262000D01*
X113518000Y-111362000D02*
X110724000Y-114156000D01*
X113518000Y-110727000D02*
X113518000Y-111362000D01*
X115740000Y-109140000D02*
X110724000Y-114156000D01*
X115740000Y-107040000D02*
X115740000Y-109140000D01*
X121490000Y-108699000D02*
X123518000Y-110727000D01*
X121490000Y-107040000D02*
X121490000Y-108699000D01*
X122916000Y-111329000D02*
X123518000Y-110727000D01*
X122916000Y-114156000D02*
X122916000Y-111329000D01*
X122916000Y-114156000D02*
X118852000Y-114156000D01*
X120089000Y-114156000D02*
X123518000Y-110727000D01*
X118852000Y-114156000D02*
X120089000Y-114156000D01*
X121490000Y-112730000D02*
X122916000Y-114156000D01*
X121490000Y-107040000D02*
X121490000Y-112730000D01*
X121490000Y-111518000D02*
X118852000Y-114156000D01*
X121490000Y-107040000D02*
X121490000Y-111518000D01*
X131044000Y-114156000D02*
X126980000Y-114156000D01*
X129490000Y-112602000D02*
X131044000Y-114156000D01*
X129490000Y-110790000D02*
X129490000Y-112602000D01*
X129490000Y-111646000D02*
X126980000Y-114156000D01*
X129490000Y-110790000D02*
X129490000Y-111646000D01*
X129490000Y-109040000D02*
X131490000Y-107040000D01*
X129490000Y-110790000D02*
X129490000Y-109040000D01*
X131044000Y-107486000D02*
X131490000Y-107040000D01*
X131044000Y-114156000D02*
X131044000Y-107486000D01*
X74148000Y-132452000D02*
X75308400Y-132452000D01*
X78720000Y-129040400D02*
X78720000Y-128770000D01*
X78720000Y-128770000D02*
X75240000Y-125290000D01*
X75240000Y-122868000D02*
X74148000Y-121776000D01*
X75240000Y-125290000D02*
X75240000Y-122868000D01*
X74148000Y-121776000D02*
X78212000Y-121776000D01*
X75240000Y-125290000D02*
X75240000Y-124748000D01*
X74148000Y-132452000D02*
X74148000Y-132139200D01*
X78212000Y-128388000D02*
X74148000Y-132452000D01*
X78212000Y-121776000D02*
X78212000Y-128388000D01*
X75308400Y-132452000D02*
X78720000Y-129040400D01*
X78720000Y-126348000D02*
X74148000Y-121776000D01*
X75240000Y-124748000D02*
X78212000Y-121776000D01*
X78212000Y-132452000D02*
X78212000Y-129548400D01*
X78720000Y-129040400D02*
X78720000Y-126348000D01*
X78212000Y-129548400D02*
X78720000Y-129040400D01*
X74148000Y-132452000D02*
X78212000Y-132452000D01*
X86340000Y-132452000D02*
X82276000Y-132452000D01*
X82990000Y-131738000D02*
X82276000Y-132452000D01*
X82990000Y-129040000D02*
X82990000Y-131738000D01*
X85240000Y-122876000D02*
X86340000Y-121776000D01*
X85240000Y-125290000D02*
X85240000Y-122876000D01*
X86340000Y-121776000D02*
X82276000Y-121776000D01*
X85240000Y-124740000D02*
X82276000Y-121776000D01*
X85240000Y-125290000D02*
X85240000Y-124740000D01*
X86340000Y-132390000D02*
X82990000Y-129040000D01*
X86340000Y-132452000D02*
X86340000Y-132390000D01*
X82990000Y-125126000D02*
X86340000Y-121776000D01*
X82990000Y-129040000D02*
X82990000Y-125126000D01*
X82990000Y-127540000D02*
X85240000Y-125290000D01*
X82990000Y-129040000D02*
X82990000Y-127540000D01*
X85240000Y-129488000D02*
X82276000Y-132452000D01*
X85240000Y-125290000D02*
X85240000Y-129488000D01*
X86340000Y-132452000D02*
X86340000Y-130513600D01*
X86340000Y-130513600D02*
X84079400Y-128253000D01*
X82526000Y-125126000D02*
X82990000Y-125126000D01*
X82276000Y-124876000D02*
X82526000Y-125126000D01*
X82276000Y-121776000D02*
X82276000Y-124876000D01*
X90404000Y-132452000D02*
X94468000Y-132452000D01*
X92990000Y-130974000D02*
X94468000Y-132452000D01*
X92990000Y-129040000D02*
X92990000Y-130974000D01*
X92990000Y-128266000D02*
X90056000Y-125332000D01*
X92990000Y-129040000D02*
X92990000Y-128266000D01*
X90404000Y-124984000D02*
X90056000Y-125332000D01*
X90404000Y-121776000D02*
X90404000Y-124984000D01*
X90404000Y-121776000D02*
X94468000Y-121776000D01*
X93612000Y-121776000D02*
X90056000Y-125332000D01*
X94468000Y-121776000D02*
X93612000Y-121776000D01*
X90404000Y-131626000D02*
X92990000Y-129040000D01*
X90404000Y-132452000D02*
X90404000Y-131626000D01*
X102596000Y-121776000D02*
X98532000Y-121776000D01*
X100056000Y-128474000D02*
X99490000Y-129040000D01*
X100056000Y-125332000D02*
X100056000Y-128474000D01*
X99490000Y-131494000D02*
X98532000Y-132452000D01*
X99490000Y-129040000D02*
X99490000Y-131494000D01*
X98532000Y-132452000D02*
X102596000Y-132452000D01*
X99490000Y-129346000D02*
X102596000Y-132452000D01*
X99490000Y-129040000D02*
X99490000Y-129346000D01*
X100056000Y-124316000D02*
X102596000Y-121776000D01*
X100056000Y-125332000D02*
X100056000Y-124316000D01*
X100056000Y-123300000D02*
X98532000Y-121776000D01*
X100056000Y-125332000D02*
X100056000Y-123300000D01*
X98532000Y-121776000D02*
X98532000Y-132452000D01*
X98532000Y-125840000D02*
X102596000Y-121776000D01*
X98532000Y-132452000D02*
X98532000Y-125840000D01*
X100056000Y-129912000D02*
X102596000Y-132452000D01*
X100056000Y-125332000D02*
X100056000Y-129912000D01*
X110724000Y-132452000D02*
X106660000Y-132452000D01*
X109490000Y-131218000D02*
X110724000Y-132452000D01*
X109490000Y-129040000D02*
X109490000Y-131218000D01*
X105782000Y-125332000D02*
X109490000Y-129040000D01*
X105740000Y-125332000D02*
X105782000Y-125332000D01*
X106660000Y-124412000D02*
X105740000Y-125332000D01*
X106660000Y-121776000D02*
X106660000Y-124412000D01*
X106660000Y-121776000D02*
X110724000Y-121776000D01*
X109296000Y-121776000D02*
X105740000Y-125332000D01*
X110724000Y-121776000D02*
X109296000Y-121776000D01*
X106660000Y-131870000D02*
X109490000Y-129040000D01*
X106660000Y-132452000D02*
X106660000Y-131870000D01*
X106660000Y-126252000D02*
X105740000Y-125332000D01*
X106660000Y-132452000D02*
X106660000Y-126252000D01*
X110724000Y-132452000D02*
X107701400Y-129429400D01*
X106660000Y-126210000D02*
X109490000Y-129040000D01*
X106660000Y-121776000D02*
X106660000Y-126210000D01*
X106660000Y-132452000D02*
X106660000Y-125840000D01*
X109490000Y-126942800D02*
X107523600Y-124976400D01*
X109490000Y-129040000D02*
X109490000Y-126942800D01*
X107523600Y-124976400D02*
X110724000Y-121776000D01*
X106660000Y-125840000D02*
X107523600Y-124976400D01*
X118852000Y-132452000D02*
X114788000Y-132452000D01*
X114240000Y-126832000D02*
X115740000Y-125332000D01*
X114240000Y-129040000D02*
X114240000Y-126832000D01*
X114788000Y-124380000D02*
X115740000Y-125332000D01*
X114788000Y-121776000D02*
X114788000Y-124380000D01*
X114788000Y-121776000D02*
X118852000Y-121776000D01*
X115740000Y-124888000D02*
X118852000Y-121776000D01*
X115740000Y-125332000D02*
X115740000Y-124888000D01*
X117251800Y-121776000D02*
X114788000Y-124239800D01*
X118852000Y-121776000D02*
X117251800Y-121776000D01*
X117752001Y-131352001D02*
X116286801Y-131352001D01*
X118852000Y-132452000D02*
X117752001Y-131352001D01*
X116286801Y-131352001D02*
X114788000Y-129853200D01*
X114788000Y-124239800D02*
X114788000Y-129853200D01*
X114788000Y-129853200D02*
X114788000Y-132452000D01*
X114788000Y-129588000D02*
X114240000Y-129040000D01*
X114788000Y-132452000D02*
X114788000Y-129588000D01*
X122916000Y-122614000D02*
X120240000Y-125290000D01*
X122916000Y-121776000D02*
X122916000Y-122614000D01*
X120490000Y-125290000D02*
X124240000Y-129040000D01*
X120240000Y-125290000D02*
X120490000Y-125290000D01*
X124240000Y-131128000D02*
X122916000Y-132452000D01*
X124240000Y-129040000D02*
X124240000Y-131128000D01*
X122916000Y-132452000D02*
X126980000Y-132452000D01*
X124240000Y-129712000D02*
X126980000Y-132452000D01*
X124240000Y-129040000D02*
X124240000Y-129712000D01*
X122916000Y-127966000D02*
X120240000Y-125290000D01*
X122916000Y-132452000D02*
X122916000Y-127966000D01*
X123754000Y-121776000D02*
X124821000Y-121776000D01*
X120240000Y-125290000D02*
X123754000Y-121776000D01*
X124821000Y-121776000D02*
X122916000Y-121776000D01*
X126980000Y-121776000D02*
X124821000Y-121776000D01*
X123128000Y-124072366D02*
X123128000Y-125290000D01*
X125424366Y-121776000D02*
X123128000Y-124072366D01*
X126980000Y-121776000D02*
X125424366Y-121776000D01*
X120240000Y-125290000D02*
X123128000Y-125290000D01*
X124240000Y-123100000D02*
X122916000Y-121776000D01*
X124240000Y-129040000D02*
X124240000Y-123100000D01*
X122916000Y-128388000D02*
X126980000Y-132452000D01*
X122916000Y-121776000D02*
X122916000Y-128388000D01*
X66020000Y-142992600D02*
X65494200Y-143518400D01*
X66020000Y-140072000D02*
X66020000Y-142992600D01*
X65494200Y-141443200D02*
X64123000Y-140072000D01*
X64123000Y-140072000D02*
X61956000Y-140072000D01*
X65494200Y-143518400D02*
X65494200Y-141443200D01*
X66020000Y-140072000D02*
X64123000Y-140072000D01*
X67218400Y-143518400D02*
X70990000Y-147290000D01*
X65494200Y-143518400D02*
X67218400Y-143518400D01*
X74148000Y-142172200D02*
X75494200Y-143518400D01*
X74148000Y-140072000D02*
X74148000Y-142172200D01*
X74148000Y-140072000D02*
X70084000Y-140072000D01*
X74740000Y-144272600D02*
X75494200Y-143518400D01*
X74740000Y-147290000D02*
X74740000Y-144272600D01*
X74740000Y-140664000D02*
X74148000Y-140072000D01*
X74740000Y-147290000D02*
X74740000Y-140664000D01*
X84240000Y-147290000D02*
X80490000Y-143540000D01*
X84740000Y-147290000D02*
X84240000Y-147290000D01*
X80490000Y-141858000D02*
X82276000Y-140072000D01*
X80490000Y-143540000D02*
X80490000Y-141858000D01*
X82276000Y-140072000D02*
X78212000Y-140072000D01*
X80490000Y-142350000D02*
X78212000Y-140072000D01*
X80490000Y-143540000D02*
X80490000Y-142350000D01*
X86340000Y-140072000D02*
X90404000Y-140072000D01*
X90404000Y-143454000D02*
X90490000Y-143540000D01*
X90404000Y-140072000D02*
X90404000Y-143454000D01*
X90490000Y-145540000D02*
X88740000Y-147290000D01*
X90490000Y-143540000D02*
X90490000Y-145540000D01*
X95740000Y-141344000D02*
X94468000Y-140072000D01*
X95740000Y-143540000D02*
X95740000Y-141344000D01*
X94468000Y-140072000D02*
X98532000Y-140072000D01*
X95740000Y-142864000D02*
X98532000Y-140072000D01*
X95740000Y-143540000D02*
X95740000Y-142864000D01*
X98740000Y-146540000D02*
X95740000Y-143540000D01*
X98740000Y-147290000D02*
X98740000Y-146540000D01*
X102596000Y-140072000D02*
X106660000Y-140072000D01*
X105740000Y-140992000D02*
X106660000Y-140072000D01*
X105740000Y-143540000D02*
X105740000Y-140992000D01*
X104740000Y-144540000D02*
X105740000Y-143540000D01*
X104740000Y-147290000D02*
X104740000Y-144540000D01*
X105740000Y-143216000D02*
X102596000Y-140072000D01*
X105740000Y-143540000D02*
X105740000Y-143216000D01*
X113240000Y-145790000D02*
X114740000Y-147290000D01*
X113240000Y-143540000D02*
X113240000Y-145790000D01*
X113240000Y-141620000D02*
X114788000Y-140072000D01*
X113240000Y-143540000D02*
X113240000Y-141620000D01*
X114788000Y-140072000D02*
X110724000Y-140072000D01*
X113240000Y-142588000D02*
X110724000Y-140072000D01*
X113240000Y-143540000D02*
X113240000Y-142588000D01*
X122916000Y-143216000D02*
X123240000Y-143540000D01*
X122916000Y-140072000D02*
X122916000Y-143216000D01*
X122916000Y-140072000D02*
X118852000Y-140072000D01*
X119772000Y-140072000D02*
X123240000Y-143540000D01*
X118852000Y-140072000D02*
X119772000Y-140072000D01*
X123240000Y-145290000D02*
X121240000Y-147290000D01*
X123240000Y-143540000D02*
X123240000Y-145290000D01*
X121240000Y-141748000D02*
X122916000Y-140072000D01*
X121240000Y-147290000D02*
X121240000Y-141748000D01*
X126980000Y-140072000D02*
X131044000Y-140072000D01*
X129490000Y-141626000D02*
X131044000Y-140072000D01*
X129490000Y-143540000D02*
X129490000Y-141626000D01*
X129490000Y-142582000D02*
X126980000Y-140072000D01*
X129490000Y-143540000D02*
X129490000Y-142582000D01*
X129490000Y-145540000D02*
X131240000Y-147290000D01*
X129490000Y-143540000D02*
X129490000Y-145540000D01*
X61740000Y-110257000D02*
X61930600Y-110447600D01*
X61740000Y-107040000D02*
X61740000Y-110257000D01*
X139240000Y-110540000D02*
X139490000Y-110790000D01*
X139240000Y-107040000D02*
X139240000Y-110540000D01*
X139172000Y-111108000D02*
X139490000Y-110790000D01*
X139172000Y-114156000D02*
X139172000Y-111108000D01*
X139172000Y-114156000D02*
X135108000Y-114156000D01*
X136124000Y-114156000D02*
X139490000Y-110790000D01*
X135108000Y-114156000D02*
X136124000Y-114156000D01*
X139240000Y-110024000D02*
X135108000Y-114156000D01*
X139240000Y-107040000D02*
X139240000Y-110024000D01*
X61990000Y-125540000D02*
X61740000Y-125290000D01*
X61956000Y-125074000D02*
X61740000Y-125290000D01*
X61956000Y-121776000D02*
X61956000Y-125074000D01*
X61740000Y-128900600D02*
X61879800Y-129040400D01*
X61740000Y-125290000D02*
X61740000Y-128900600D01*
X61879800Y-132375800D02*
X61956000Y-132452000D01*
X61879800Y-129040400D02*
X61879800Y-132375800D01*
X135108000Y-132452000D02*
X131044000Y-132452000D01*
X131044000Y-130594000D02*
X129490000Y-129040000D01*
X131044000Y-132452000D02*
X131044000Y-130594000D01*
X130240000Y-128290000D02*
X129490000Y-129040000D01*
X130240000Y-125290000D02*
X130240000Y-128290000D01*
X132990000Y-125290000D02*
X133240000Y-125040000D01*
X130240000Y-125290000D02*
X132990000Y-125290000D01*
X131044000Y-124486000D02*
X130240000Y-125290000D01*
X131044000Y-121776000D02*
X131044000Y-124486000D01*
X131044000Y-121776000D02*
X135108000Y-121776000D01*
X133240000Y-123644000D02*
X135108000Y-121776000D01*
X133240000Y-125040000D02*
X133240000Y-123644000D01*
X133754000Y-121776000D02*
X130240000Y-125290000D01*
X135108000Y-121776000D02*
X133754000Y-121776000D01*
X133240000Y-125290000D02*
X129490000Y-129040000D01*
X133240000Y-125040000D02*
X133240000Y-125290000D01*
X132902000Y-132452000D02*
X129490000Y-129040000D01*
X135108000Y-132452000D02*
X132902000Y-132452000D01*
X130240000Y-127584000D02*
X135108000Y-132452000D01*
X130240000Y-125290000D02*
X130240000Y-127584000D01*
X139172000Y-124972000D02*
X139240000Y-125040000D01*
X139172000Y-121776000D02*
X139172000Y-124972000D01*
X139240000Y-128790000D02*
X139490000Y-129040000D01*
X139240000Y-125040000D02*
X139240000Y-128790000D01*
X139172000Y-132452000D02*
X139172000Y-129358000D01*
X139172000Y-129358000D02*
X139490000Y-129040000D01*
X61219400Y-147060600D02*
X60990000Y-147290000D01*
X61219400Y-143848600D02*
X61219400Y-147060600D01*
X135108000Y-140072000D02*
X139172000Y-140072000D01*
X139172000Y-143222000D02*
X139490000Y-143540000D01*
X139172000Y-140072000D02*
X139172000Y-143222000D01*
X139240000Y-143790000D02*
X139490000Y-143540000D01*
X139240000Y-147040000D02*
X139240000Y-143790000D01*
X136022000Y-140072000D02*
X139490000Y-143540000D01*
X135108000Y-140072000D02*
X136022000Y-140072000D01*
X70084000Y-123634000D02*
X71740000Y-125290000D01*
X70084000Y-121776000D02*
X70084000Y-123634000D01*
X70084000Y-121776000D02*
X66020000Y-121776000D01*
X69534000Y-125290000D02*
X66020000Y-121776000D01*
X71740000Y-125290000D02*
X69534000Y-125290000D01*
X68490000Y-123370000D02*
X70084000Y-121776000D01*
X66020000Y-131740400D02*
X68720000Y-129040400D01*
X68720000Y-129040400D02*
X65943800Y-129040400D01*
X67989600Y-129040400D02*
X71740000Y-125290000D01*
X65943800Y-129040400D02*
X67989600Y-129040400D01*
X66020000Y-132452000D02*
X70084000Y-132452000D01*
X66020000Y-132452000D02*
X66020000Y-131740400D01*
X68720000Y-131088000D02*
X70084000Y-132452000D01*
X68720000Y-129040400D02*
X68720000Y-131088000D01*
G04 #@! TO.N,Net-(C1-Pad1)*
X69308200Y-53040000D02*
X65595800Y-56752400D01*
X71740000Y-53040000D02*
X69308200Y-53040000D01*
X65595800Y-59731800D02*
X66020000Y-60156000D01*
X65595800Y-56752400D02*
X65595800Y-59731800D01*
X66020000Y-58760000D02*
X71740000Y-53040000D01*
X66020000Y-60156000D02*
X66020000Y-58760000D01*
X65595800Y-58599000D02*
X64038800Y-60156000D01*
X65595800Y-56752400D02*
X65595800Y-58599000D01*
X64038800Y-60156000D02*
X61956000Y-60156000D01*
X66020000Y-60156000D02*
X64038800Y-60156000D01*
G04 #@! TO.N,Net-(C2-Pad1)*
X70084000Y-60156000D02*
X74148000Y-60156000D01*
X74148000Y-58200200D02*
X75595800Y-56752400D01*
X74148000Y-60156000D02*
X74148000Y-58200200D01*
X75595800Y-53184200D02*
X75740000Y-53040000D01*
X75595800Y-56752400D02*
X75595800Y-53184200D01*
X72192200Y-60156000D02*
X75595800Y-56752400D01*
X70084000Y-60156000D02*
X72192200Y-60156000D01*
X75740000Y-54500000D02*
X70084000Y-60156000D01*
X75740000Y-53040000D02*
X75740000Y-54500000D01*
G04 #@! TO.N,Net-(C3-Pad1)*
X84718400Y-53040000D02*
X81006000Y-56752400D01*
X85740000Y-53040000D02*
X84718400Y-53040000D01*
X81006000Y-58886000D02*
X82276000Y-60156000D01*
X81006000Y-56752400D02*
X81006000Y-58886000D01*
X82276000Y-60156000D02*
X78212000Y-60156000D01*
X81006000Y-57362000D02*
X78212000Y-60156000D01*
X81006000Y-56752400D02*
X81006000Y-57362000D01*
X82276000Y-56504000D02*
X82276000Y-60156000D01*
X85740000Y-53040000D02*
X82276000Y-56504000D01*
G04 #@! TO.N,Net-(C4-Pad1)*
X86340000Y-60156000D02*
X90404000Y-60156000D01*
X90404000Y-57354400D02*
X91006000Y-56752400D01*
X90404000Y-60156000D02*
X90404000Y-57354400D01*
X91006000Y-53556000D02*
X90490000Y-53040000D01*
X91006000Y-56752400D02*
X91006000Y-53556000D01*
X87602400Y-60156000D02*
X91006000Y-56752400D01*
X86340000Y-60156000D02*
X87602400Y-60156000D01*
X90490000Y-56006000D02*
X86340000Y-60156000D01*
X90490000Y-53040000D02*
X90490000Y-56006000D01*
G04 #@! TO.N,Net-(C5-Pad1)*
X94468000Y-60156000D02*
X98532000Y-60156000D01*
X98532000Y-58065600D02*
X97218800Y-56752400D01*
X98532000Y-60156000D02*
X98532000Y-58065600D01*
X97218800Y-56311200D02*
X100490000Y-53040000D01*
X97218800Y-56752400D02*
X97218800Y-56311200D01*
X97218800Y-57405200D02*
X94468000Y-60156000D01*
X97218800Y-56752400D02*
X97218800Y-57405200D01*
X97218800Y-58842800D02*
X97218800Y-57405200D01*
X98532000Y-60156000D02*
X97218800Y-58842800D01*
X98532000Y-54998000D02*
X98532000Y-60156000D01*
X100490000Y-53040000D02*
X98532000Y-54998000D01*
G04 #@! TO.N,Net-(C6-Pad1)*
X106660000Y-57311200D02*
X107218800Y-56752400D01*
X106660000Y-60156000D02*
X106660000Y-57311200D01*
X106660000Y-60156000D02*
X102596000Y-60156000D01*
X103815200Y-60156000D02*
X107218800Y-56752400D01*
X102596000Y-60156000D02*
X103815200Y-60156000D01*
X105740000Y-55273600D02*
X107218800Y-56752400D01*
X105740000Y-53040000D02*
X105740000Y-55273600D01*
X105740000Y-57012000D02*
X102596000Y-60156000D01*
X105740000Y-53040000D02*
X105740000Y-57012000D01*
G04 #@! TO.N,Net-(C7-Pad1)*
X110724000Y-60156000D02*
X114788000Y-60156000D01*
X113518000Y-58886000D02*
X114788000Y-60156000D01*
X113518000Y-56727000D02*
X113518000Y-58886000D01*
X113518000Y-55262000D02*
X115740000Y-53040000D01*
X113518000Y-56727000D02*
X113518000Y-55262000D01*
X113518000Y-57362000D02*
X110724000Y-60156000D01*
X113518000Y-56727000D02*
X113518000Y-57362000D01*
X115740000Y-55140000D02*
X110724000Y-60156000D01*
X115740000Y-53040000D02*
X115740000Y-55140000D01*
G04 #@! TO.N,Net-(C8-Pad1)*
X121490000Y-54699000D02*
X123518000Y-56727000D01*
X121490000Y-53040000D02*
X121490000Y-54699000D01*
X122916000Y-57329000D02*
X123518000Y-56727000D01*
X122916000Y-60156000D02*
X122916000Y-57329000D01*
X122916000Y-60156000D02*
X118852000Y-60156000D01*
X120089000Y-60156000D02*
X123518000Y-56727000D01*
X118852000Y-60156000D02*
X120089000Y-60156000D01*
X121490000Y-58730000D02*
X122916000Y-60156000D01*
X121490000Y-53040000D02*
X121490000Y-58730000D01*
X121490000Y-57518000D02*
X118852000Y-60156000D01*
X121490000Y-53040000D02*
X121490000Y-57518000D01*
G04 #@! TO.N,Net-(C10-Pad2)*
X131044000Y-60156000D02*
X126980000Y-60156000D01*
X129490000Y-58602000D02*
X131044000Y-60156000D01*
X129490000Y-56790000D02*
X129490000Y-58602000D01*
X129490000Y-57646000D02*
X126980000Y-60156000D01*
X129490000Y-56790000D02*
X129490000Y-57646000D01*
X129490000Y-55040000D02*
X131490000Y-53040000D01*
X129490000Y-56790000D02*
X129490000Y-55040000D01*
X131044000Y-53486000D02*
X131490000Y-53040000D01*
X131044000Y-60156000D02*
X131044000Y-53486000D01*
G04 #@! TO.N,Net-(C12-Pad1)*
X75240000Y-68868000D02*
X74148000Y-67776000D01*
X75240000Y-71290000D02*
X75240000Y-68868000D01*
X74148000Y-67776000D02*
X78212000Y-67776000D01*
X75240000Y-70748000D02*
X78212000Y-67776000D01*
X75240000Y-71290000D02*
X75240000Y-70748000D01*
X74148000Y-78452000D02*
X74148000Y-78139200D01*
X74148000Y-78452000D02*
X78212000Y-78452000D01*
X78212000Y-75548400D02*
X78720000Y-75040400D01*
X78212000Y-78452000D02*
X78212000Y-75548400D01*
X78720000Y-74770000D02*
X75240000Y-71290000D01*
X78720000Y-75040400D02*
X78720000Y-74770000D01*
X75308400Y-78452000D02*
X78720000Y-75040400D01*
X74148000Y-78452000D02*
X75308400Y-78452000D01*
X78212000Y-74388000D02*
X74148000Y-78452000D01*
X78212000Y-67776000D02*
X78212000Y-74388000D01*
X78720000Y-72348000D02*
X74148000Y-67776000D01*
X78720000Y-75040400D02*
X78720000Y-72348000D01*
G04 #@! TO.N,Net-(C13-Pad1)*
X86340000Y-78452000D02*
X82276000Y-78452000D01*
X82990000Y-77738000D02*
X82276000Y-78452000D01*
X82990000Y-75040000D02*
X82990000Y-77738000D01*
X85240000Y-68876000D02*
X86340000Y-67776000D01*
X85240000Y-71290000D02*
X85240000Y-68876000D01*
X86340000Y-67776000D02*
X82276000Y-67776000D01*
X85240000Y-70740000D02*
X82276000Y-67776000D01*
X85240000Y-71290000D02*
X85240000Y-70740000D01*
X86340000Y-78390000D02*
X82990000Y-75040000D01*
X86340000Y-78452000D02*
X86340000Y-78390000D01*
X82990000Y-71126000D02*
X86340000Y-67776000D01*
X82990000Y-75040000D02*
X82990000Y-71126000D01*
X82990000Y-73540000D02*
X85240000Y-71290000D01*
X82990000Y-75040000D02*
X82990000Y-73540000D01*
X85240000Y-75488000D02*
X82276000Y-78452000D01*
X85240000Y-71290000D02*
X85240000Y-75488000D01*
X86340000Y-78452000D02*
X86340000Y-76513600D01*
X86340000Y-76513600D02*
X84079400Y-74253000D01*
X82526000Y-71126000D02*
X82990000Y-71126000D01*
X82276000Y-70876000D02*
X82526000Y-71126000D01*
X82276000Y-67776000D02*
X82276000Y-70876000D01*
G04 #@! TO.N,Net-(C14-Pad1)*
X90404000Y-78452000D02*
X94468000Y-78452000D01*
X92990000Y-76974000D02*
X94468000Y-78452000D01*
X92990000Y-75040000D02*
X92990000Y-76974000D01*
X92990000Y-74266000D02*
X90056000Y-71332000D01*
X92990000Y-75040000D02*
X92990000Y-74266000D01*
X90404000Y-70984000D02*
X90056000Y-71332000D01*
X90404000Y-67776000D02*
X90404000Y-70984000D01*
X90404000Y-67776000D02*
X94468000Y-67776000D01*
X93612000Y-67776000D02*
X90056000Y-71332000D01*
X94468000Y-67776000D02*
X93612000Y-67776000D01*
X90404000Y-77626000D02*
X92990000Y-75040000D01*
X90404000Y-78452000D02*
X90404000Y-77626000D01*
G04 #@! TO.N,Net-(C15-Pad1)*
X102596000Y-67776000D02*
X98532000Y-67776000D01*
X100056000Y-74474000D02*
X99490000Y-75040000D01*
X100056000Y-71332000D02*
X100056000Y-74474000D01*
X99490000Y-77494000D02*
X98532000Y-78452000D01*
X99490000Y-75040000D02*
X99490000Y-77494000D01*
X98532000Y-78452000D02*
X102596000Y-78452000D01*
X99490000Y-75346000D02*
X102596000Y-78452000D01*
X99490000Y-75040000D02*
X99490000Y-75346000D01*
X100056000Y-70316000D02*
X102596000Y-67776000D01*
X100056000Y-71332000D02*
X100056000Y-70316000D01*
X100056000Y-69300000D02*
X98532000Y-67776000D01*
X100056000Y-71332000D02*
X100056000Y-69300000D01*
X98532000Y-67776000D02*
X98532000Y-78452000D01*
X98532000Y-71840000D02*
X102596000Y-67776000D01*
X98532000Y-78452000D02*
X98532000Y-71840000D01*
X100056000Y-75912000D02*
X102596000Y-78452000D01*
X100056000Y-71332000D02*
X100056000Y-75912000D01*
G04 #@! TO.N,Net-(C16-Pad1)*
X110724000Y-78452000D02*
X106660000Y-78452000D01*
X109490000Y-77218000D02*
X110724000Y-78452000D01*
X109490000Y-75040000D02*
X109490000Y-77218000D01*
X105782000Y-71332000D02*
X109490000Y-75040000D01*
X105740000Y-71332000D02*
X105782000Y-71332000D01*
X106660000Y-70412000D02*
X105740000Y-71332000D01*
X106660000Y-67776000D02*
X106660000Y-70412000D01*
X106660000Y-67776000D02*
X110724000Y-67776000D01*
X109296000Y-67776000D02*
X105740000Y-71332000D01*
X110724000Y-67776000D02*
X109296000Y-67776000D01*
X106660000Y-77870000D02*
X109490000Y-75040000D01*
X106660000Y-78452000D02*
X106660000Y-77870000D01*
X106660000Y-72252000D02*
X105740000Y-71332000D01*
X106660000Y-78452000D02*
X106660000Y-72252000D01*
X110724000Y-78452000D02*
X107701400Y-75429400D01*
X106660000Y-72210000D02*
X109490000Y-75040000D01*
X106660000Y-67776000D02*
X106660000Y-72210000D01*
X106660000Y-78452000D02*
X106660000Y-71840000D01*
X109490000Y-72942800D02*
X107523600Y-70976400D01*
X109490000Y-75040000D02*
X109490000Y-72942800D01*
X107523600Y-70976400D02*
X110724000Y-67776000D01*
X106660000Y-71840000D02*
X107523600Y-70976400D01*
G04 #@! TO.N,Net-(C17-Pad1)*
X118852000Y-78452000D02*
X114788000Y-78452000D01*
X114240000Y-72832000D02*
X115740000Y-71332000D01*
X114240000Y-75040000D02*
X114240000Y-72832000D01*
X114788000Y-70380000D02*
X115740000Y-71332000D01*
X114788000Y-67776000D02*
X114788000Y-70380000D01*
X114788000Y-67776000D02*
X118852000Y-67776000D01*
X115740000Y-70888000D02*
X118852000Y-67776000D01*
X115740000Y-71332000D02*
X115740000Y-70888000D01*
X117251800Y-67776000D02*
X114788000Y-70239800D01*
X118852000Y-67776000D02*
X117251800Y-67776000D01*
X117752001Y-77352001D02*
X116286801Y-77352001D01*
X118852000Y-78452000D02*
X117752001Y-77352001D01*
X116286801Y-77352001D02*
X114788000Y-75853200D01*
X114788000Y-70239800D02*
X114788000Y-75853200D01*
X114788000Y-75853200D02*
X114788000Y-78452000D01*
X114788000Y-75588000D02*
X114240000Y-75040000D01*
X114788000Y-78452000D02*
X114788000Y-75588000D01*
G04 #@! TO.N,Net-(C18-Pad1)*
X122916000Y-68614000D02*
X120240000Y-71290000D01*
X122916000Y-67776000D02*
X122916000Y-68614000D01*
X120490000Y-71290000D02*
X124240000Y-75040000D01*
X120240000Y-71290000D02*
X120490000Y-71290000D01*
X124240000Y-77128000D02*
X122916000Y-78452000D01*
X124240000Y-75040000D02*
X124240000Y-77128000D01*
X122916000Y-78452000D02*
X126980000Y-78452000D01*
X124240000Y-75712000D02*
X126980000Y-78452000D01*
X124240000Y-75040000D02*
X124240000Y-75712000D01*
X122916000Y-73966000D02*
X120240000Y-71290000D01*
X122916000Y-78452000D02*
X122916000Y-73966000D01*
X123754000Y-67776000D02*
X124821000Y-67776000D01*
X120240000Y-71290000D02*
X123754000Y-67776000D01*
X124821000Y-67776000D02*
X122916000Y-67776000D01*
X126980000Y-67776000D02*
X124821000Y-67776000D01*
X123128000Y-70072366D02*
X123128000Y-71290000D01*
X125424366Y-67776000D02*
X123128000Y-70072366D01*
X126980000Y-67776000D02*
X125424366Y-67776000D01*
X120240000Y-71290000D02*
X123128000Y-71290000D01*
X124240000Y-69100000D02*
X122916000Y-67776000D01*
X124240000Y-75040000D02*
X124240000Y-69100000D01*
X122916000Y-74388000D02*
X126980000Y-78452000D01*
X122916000Y-67776000D02*
X122916000Y-74388000D01*
G04 #@! TO.N,Net-(C21-Pad1)*
X66020000Y-88992600D02*
X65494200Y-89518400D01*
X66020000Y-86072000D02*
X66020000Y-88992600D01*
X65494200Y-87443200D02*
X64123000Y-86072000D01*
X64123000Y-86072000D02*
X61956000Y-86072000D01*
X65494200Y-89518400D02*
X65494200Y-87443200D01*
X66020000Y-86072000D02*
X64123000Y-86072000D01*
X67218400Y-89518400D02*
X70990000Y-93290000D01*
X65494200Y-89518400D02*
X67218400Y-89518400D01*
G04 #@! TO.N,Net-(C22-Pad1)*
X74148000Y-88172200D02*
X75494200Y-89518400D01*
X74148000Y-86072000D02*
X74148000Y-88172200D01*
X74148000Y-86072000D02*
X70084000Y-86072000D01*
X74740000Y-90272600D02*
X75494200Y-89518400D01*
X74740000Y-93290000D02*
X74740000Y-90272600D01*
X74740000Y-86664000D02*
X74148000Y-86072000D01*
X74740000Y-93290000D02*
X74740000Y-86664000D01*
G04 #@! TO.N,Net-(C23-Pad1)*
X84240000Y-93290000D02*
X80490000Y-89540000D01*
X84740000Y-93290000D02*
X84240000Y-93290000D01*
X80490000Y-87858000D02*
X82276000Y-86072000D01*
X80490000Y-89540000D02*
X80490000Y-87858000D01*
X82276000Y-86072000D02*
X78212000Y-86072000D01*
X80490000Y-88350000D02*
X78212000Y-86072000D01*
X80490000Y-89540000D02*
X80490000Y-88350000D01*
G04 #@! TO.N,Net-(C24-Pad1)*
X86340000Y-86072000D02*
X90404000Y-86072000D01*
X90404000Y-89454000D02*
X90490000Y-89540000D01*
X90404000Y-86072000D02*
X90404000Y-89454000D01*
X90490000Y-91540000D02*
X88740000Y-93290000D01*
X90490000Y-89540000D02*
X90490000Y-91540000D01*
G04 #@! TO.N,Net-(C25-Pad1)*
X98740000Y-92540000D02*
X95740000Y-89540000D01*
X98740000Y-93290000D02*
X98740000Y-92540000D01*
X95740000Y-87344000D02*
X94468000Y-86072000D01*
X95740000Y-89540000D02*
X95740000Y-87344000D01*
X94468000Y-86072000D02*
X98532000Y-86072000D01*
X95740000Y-88864000D02*
X98532000Y-86072000D01*
X95740000Y-89540000D02*
X95740000Y-88864000D01*
G04 #@! TO.N,Net-(C26-Pad1)*
X102596000Y-86072000D02*
X106660000Y-86072000D01*
X105740000Y-86992000D02*
X106660000Y-86072000D01*
X105740000Y-89540000D02*
X105740000Y-86992000D01*
X104740000Y-90540000D02*
X105740000Y-89540000D01*
X104740000Y-93290000D02*
X104740000Y-90540000D01*
X105740000Y-89216000D02*
X102596000Y-86072000D01*
X105740000Y-89540000D02*
X105740000Y-89216000D01*
G04 #@! TO.N,Net-(C27-Pad1)*
X113240000Y-91790000D02*
X114740000Y-93290000D01*
X113240000Y-89540000D02*
X113240000Y-91790000D01*
X113240000Y-87620000D02*
X114788000Y-86072000D01*
X113240000Y-89540000D02*
X113240000Y-87620000D01*
X114788000Y-86072000D02*
X110724000Y-86072000D01*
X113240000Y-88588000D02*
X110724000Y-86072000D01*
X113240000Y-89540000D02*
X113240000Y-88588000D01*
G04 #@! TO.N,Net-(C28-Pad1)*
X122916000Y-89216000D02*
X123240000Y-89540000D01*
X122916000Y-86072000D02*
X122916000Y-89216000D01*
X122916000Y-86072000D02*
X118852000Y-86072000D01*
X119772000Y-86072000D02*
X123240000Y-89540000D01*
X118852000Y-86072000D02*
X119772000Y-86072000D01*
X123240000Y-91290000D02*
X121240000Y-93290000D01*
X123240000Y-89540000D02*
X123240000Y-91290000D01*
X121240000Y-87748000D02*
X122916000Y-86072000D01*
X121240000Y-93290000D02*
X121240000Y-87748000D01*
G04 #@! TO.N,Net-(C29-Pad1)*
X126980000Y-86072000D02*
X131044000Y-86072000D01*
X129490000Y-87626000D02*
X131044000Y-86072000D01*
X129490000Y-89540000D02*
X129490000Y-87626000D01*
X129490000Y-88582000D02*
X126980000Y-86072000D01*
X129490000Y-89540000D02*
X129490000Y-88582000D01*
X129490000Y-91540000D02*
X131240000Y-93290000D01*
X129490000Y-89540000D02*
X129490000Y-91540000D01*
G04 #@! TO.N,/multiplier/IN1*
X61740000Y-56257000D02*
X61930600Y-56447600D01*
X61740000Y-53040000D02*
X61740000Y-56257000D01*
G04 #@! TO.N,/multiplier/OUT1*
X139240000Y-56540000D02*
X139490000Y-56790000D01*
X139240000Y-53040000D02*
X139240000Y-56540000D01*
X139172000Y-57108000D02*
X139490000Y-56790000D01*
X139172000Y-60156000D02*
X139172000Y-57108000D01*
X139172000Y-60156000D02*
X135108000Y-60156000D01*
X136124000Y-60156000D02*
X139490000Y-56790000D01*
X135108000Y-60156000D02*
X136124000Y-60156000D01*
X139240000Y-56024000D02*
X135108000Y-60156000D01*
X139240000Y-53040000D02*
X139240000Y-56024000D01*
G04 #@! TO.N,/multiplier/HV0*
X61990000Y-71540000D02*
X61740000Y-71290000D01*
X61956000Y-71074000D02*
X61740000Y-71290000D01*
X61956000Y-67776000D02*
X61956000Y-71074000D01*
X61740000Y-74900600D02*
X61879800Y-75040400D01*
X61740000Y-71290000D02*
X61740000Y-74900600D01*
X61879800Y-78375800D02*
X61956000Y-78452000D01*
X61879800Y-75040400D02*
X61879800Y-78375800D01*
G04 #@! TO.N,/multiplier/HV9*
X135108000Y-78452000D02*
X131044000Y-78452000D01*
X131044000Y-76594000D02*
X129490000Y-75040000D01*
X131044000Y-78452000D02*
X131044000Y-76594000D01*
X130240000Y-74290000D02*
X129490000Y-75040000D01*
X130240000Y-71290000D02*
X130240000Y-74290000D01*
X132990000Y-71290000D02*
X133240000Y-71040000D01*
X130240000Y-71290000D02*
X132990000Y-71290000D01*
X131044000Y-70486000D02*
X130240000Y-71290000D01*
X131044000Y-67776000D02*
X131044000Y-70486000D01*
X131044000Y-67776000D02*
X135108000Y-67776000D01*
X133240000Y-69644000D02*
X135108000Y-67776000D01*
X133240000Y-71040000D02*
X133240000Y-69644000D01*
X133754000Y-67776000D02*
X130240000Y-71290000D01*
X135108000Y-67776000D02*
X133754000Y-67776000D01*
X133240000Y-71290000D02*
X129490000Y-75040000D01*
X133240000Y-71040000D02*
X133240000Y-71290000D01*
X132902000Y-78452000D02*
X129490000Y-75040000D01*
X135108000Y-78452000D02*
X132902000Y-78452000D01*
X130240000Y-73584000D02*
X135108000Y-78452000D01*
X130240000Y-71290000D02*
X130240000Y-73584000D01*
G04 #@! TO.N,/multiplier/HV10*
X139172000Y-70972000D02*
X139240000Y-71040000D01*
X139172000Y-67776000D02*
X139172000Y-70972000D01*
X139240000Y-74790000D02*
X139490000Y-75040000D01*
X139240000Y-71040000D02*
X139240000Y-74790000D01*
X139172000Y-78452000D02*
X139172000Y-75358000D01*
X139172000Y-75358000D02*
X139490000Y-75040000D01*
G04 #@! TO.N,/multiplier/IN2*
X61219400Y-93060600D02*
X60990000Y-93290000D01*
X61219400Y-89848600D02*
X61219400Y-93060600D01*
G04 #@! TO.N,/multiplier/OUT2*
X135108000Y-86072000D02*
X139172000Y-86072000D01*
X139172000Y-89222000D02*
X139490000Y-89540000D01*
X139172000Y-86072000D02*
X139172000Y-89222000D01*
X139240000Y-89790000D02*
X139490000Y-89540000D01*
X139240000Y-93040000D02*
X139240000Y-89790000D01*
X136022000Y-86072000D02*
X139490000Y-89540000D01*
X135108000Y-86072000D02*
X136022000Y-86072000D01*
G04 #@! TO.N,/multiplier/HV1*
X70084000Y-69634000D02*
X71740000Y-71290000D01*
X70084000Y-67776000D02*
X70084000Y-69634000D01*
X70084000Y-67776000D02*
X66020000Y-67776000D01*
X69534000Y-71290000D02*
X66020000Y-67776000D01*
X71740000Y-71290000D02*
X69534000Y-71290000D01*
X68490000Y-69370000D02*
X70084000Y-67776000D01*
X66020000Y-78452000D02*
X70084000Y-78452000D01*
X68720000Y-77088000D02*
X70084000Y-78452000D01*
X68720000Y-75040400D02*
X68720000Y-77088000D01*
X68720000Y-75040400D02*
X65943800Y-75040400D01*
X66020000Y-77740400D02*
X68720000Y-75040400D01*
X66020000Y-78452000D02*
X66020000Y-77740400D01*
X67989600Y-75040400D02*
X71740000Y-71290000D01*
X65943800Y-75040400D02*
X67989600Y-75040400D01*
G04 #@! TD*
M02*
