M48
; DRILL file {KiCad 5.1.4-e60b266~84~ubuntu16.04.1} date Tue 08 Oct 2019 11:03:53 PM CDT
; FORMAT={-:-/ absolute / metric / decimal}
; #@! TF.CreationDate,2019-10-08T23:03:53-05:00
; #@! TF.GenerationSoftware,Kicad,Pcbnew,5.1.4-e60b266~84~ubuntu16.04.1
; #@! TF.FileFunction,Plated,1,2,PTH
FMAT,2
METRIC
T1C0.800
T2C1.000
T3C1.100
%
G90
G05
T1
X140.0Y-92.9
X132.8Y-71.9
X60.0Y-139.4
X60.0Y-125.5
X60.0Y-107.75
X140.0Y-121.9
X140.0Y-54.75
X60.0Y-75.5
X140.0Y-104.75
X140.0Y-71.9
X67.2Y-75.5
X132.8Y-121.9
X60.0Y-89.4
X60.0Y-57.75
X67.2Y-125.5
X140.0Y-142.9
T2
X100.0Y-104.54
X110.0Y-104.54
X130.0Y-125.5
X140.0Y-125.5
X110.0Y-139.4
X120.0Y-139.4
X100.0Y-92.9
X110.0Y-92.9
X80.0Y-54.5
X90.0Y-54.5
X130.0Y-139.4
X140.0Y-139.4
X90.0Y-139.4
X100.0Y-139.4
X80.0Y-71.9
X90.0Y-71.9
X60.0Y-71.9
X70.0Y-71.9
X130.0Y-89.4
X140.0Y-89.4
X110.0Y-89.4
X120.0Y-89.4
X110.0Y-125.5
X120.0Y-125.5
X70.0Y-108.0
X80.0Y-108.0
X110.0Y-75.5
X120.0Y-75.5
X60.0Y-142.9
X70.0Y-142.9
X130.0Y-58.0
X140.0Y-58.0
X100.0Y-121.9
X110.0Y-121.9
X80.0Y-104.5
X90.0Y-104.5
X60.0Y-104.5
X70.0Y-104.5
X80.0Y-121.9
X90.0Y-121.9
X120.0Y-142.9
X130.0Y-142.9
X110.0Y-58.0
X120.0Y-58.0
X100.0Y-142.9
X110.0Y-142.9
X90.0Y-108.0
X100.0Y-108.0
X90.0Y-89.4
X100.0Y-89.4
X80.0Y-92.9
X90.0Y-92.9
X100.0Y-71.9
X110.0Y-71.9
X100.0Y-54.54
X110.0Y-54.54
X80.0Y-142.9
X90.0Y-142.9
X120.0Y-104.5
X130.0Y-104.5
X90.0Y-75.5
X100.0Y-75.5
X120.0Y-54.5
X130.0Y-54.5
X70.0Y-89.4
X80.0Y-89.4
X70.0Y-58.0
X80.0Y-58.0
X130.0Y-75.5
X140.0Y-75.5
X120.0Y-121.9
X130.0Y-121.9
X60.0Y-92.9
X70.0Y-92.9
X90.0Y-125.5
X100.0Y-125.5
X70.0Y-125.5
X80.0Y-125.5
X70.0Y-139.4
X80.0Y-139.4
X120.0Y-92.9
X130.0Y-92.9
X120.0Y-71.9
X130.0Y-71.9
X60.0Y-54.5
X70.0Y-54.5
X130.0Y-108.0
X140.0Y-108.0
X70.0Y-75.5
X80.0Y-75.5
X90.0Y-58.0
X100.0Y-58.0
X60.0Y-121.9
X70.0Y-121.9
X110.0Y-108.0
X120.0Y-108.0
T3
X92.89Y-68.399
X96.7Y-61.8
X80.0Y-128.6
X80.0Y-136.22
X132.89Y-129.201
X136.7Y-135.8
X92.89Y-79.201
X96.7Y-85.8
X82.89Y-68.399
X86.7Y-61.8
X140.0Y-78.6
X140.0Y-86.22
X72.89Y-129.201
X76.7Y-135.8
X110.0Y-128.6
X110.0Y-136.22
X72.89Y-68.399
X76.7Y-61.8
X112.89Y-129.201
X116.7Y-135.8
X122.89Y-68.399
X126.7Y-61.8
X90.0Y-78.6
X90.0Y-86.22
X130.0Y-128.6
X130.0Y-136.22
X110.0Y-78.6
X110.0Y-86.22
X140.0Y-111.1
X140.0Y-118.72
X72.89Y-79.201
X76.7Y-85.8
X132.89Y-68.399
X136.7Y-61.8
X120.0Y-78.6
X120.0Y-86.22
X70.0Y-111.13
X70.0Y-118.75
X130.0Y-78.6
X130.0Y-86.22
X92.89Y-129.201
X96.7Y-135.8
X110.0Y-61.1
X110.0Y-68.72
X102.89Y-129.201
X106.7Y-135.8
X110.0Y-111.1
X110.0Y-118.72
X112.89Y-118.399
X116.7Y-111.8
X90.0Y-128.6
X90.0Y-136.22
X60.612Y-117.888
X66.0Y-112.5
X132.89Y-118.399
X136.7Y-111.8
X60.612Y-79.112
X66.0Y-84.5
X100.0Y-61.1
X100.0Y-68.72
X60.612Y-67.888
X66.0Y-62.5
X140.0Y-128.6
X140.0Y-136.22
X82.89Y-79.201
X86.7Y-85.8
X102.89Y-68.399
X106.7Y-61.8
X130.0Y-111.1
X130.0Y-118.72
X82.89Y-129.201
X86.7Y-135.8
X100.0Y-128.6
X100.0Y-136.22
X122.89Y-79.201
X126.7Y-85.8
X130.0Y-61.1
X130.0Y-68.72
X112.89Y-68.399
X116.7Y-61.8
X70.0Y-128.6
X70.0Y-136.22
X70.0Y-78.6
X70.0Y-86.22
X140.0Y-61.1
X140.0Y-68.72
X120.0Y-61.1
X120.0Y-68.72
X90.0Y-111.1
X90.0Y-118.72
X122.89Y-129.201
X126.7Y-135.8
X132.89Y-79.201
X136.7Y-85.8
X90.0Y-61.1
X90.0Y-68.72
X72.89Y-118.399
X76.7Y-111.8
X100.0Y-78.6
X100.0Y-86.22
X70.0Y-61.13
X70.0Y-68.75
X60.612Y-129.112
X66.0Y-134.5
X92.89Y-118.399
X96.7Y-111.8
X80.0Y-78.6
X80.0Y-86.22
X102.89Y-118.399
X106.7Y-111.8
X122.89Y-118.399
X126.7Y-111.8
X112.89Y-79.201
X116.7Y-85.8
X120.0Y-111.1
X120.0Y-118.72
X102.89Y-79.201
X106.7Y-85.8
X82.89Y-118.399
X86.7Y-111.8
X80.0Y-111.1
X80.0Y-118.72
X100.0Y-111.1
X100.0Y-118.72
X120.0Y-128.6
X120.0Y-136.22
X80.0Y-61.1
X80.0Y-68.72
T0
M30
